<svg xmlns="http://www.w3.org/2000/svg" xmlns:xlink="http://www.w3.org/1999/xlink" id="body_10" preserveAspectRatio="xMinYMin meet" viewBox="0 0 1568 2069"><g transform="matrix(1.333333 0 0 1.333333 0 0)"><g><g clip-path="url(#1)"><g clip-path="url(#2)"><g><g clip-path="url(#3)"><g clip-path="url(#4)"><g><path transform="matrix(1 0 0 -1 0 1552)" d="M0 -1236L1176 137L1176 137L1176 3649L1176 3649L0 2276" stroke="none" fill="url(#840)" /><path transform="matrix(1 0 0 -1 0 1552)" d="M0 -1235.4L1176 137.7415L1176 137.7415L1176 0L1176 0L0 0" stroke="none" fill="#4C216D" fill-rule="evenodd" fill-opacity="0.8980392" /><path transform="matrix(1 0 0 -1 0 1552)" d="M0 2274.613L1176 3647.754L1176 3647.754L1176 1552L1176 1552L0 1552" stroke="none" fill="#B83F54" fill-rule="evenodd" fill-opacity="0.8980392" /></g></g></g></g><g><g clip-path="url(#5)"><g clip-path="url(#6)"><g><path transform="matrix(1 0 0 -1 0 1552)" d="M0 3480L1176 2281L1176 2281L1176 325L1176 325L0 1524" stroke="none" fill="url(#1660)" /><path transform="matrix(1 0 0 -1 0 1552)" d="M0 3479.083L1176 2280.275L1176 2280.275L1176 1552L1176 1552L0 1552" stroke="none" fill="#FFD800" fill-rule="evenodd" fill-opacity="0.1960784" /><path transform="matrix(1 0 0 -1 0 1552)" d="M0 1524.885L1176 326.0772L1176 326.0772L1176 0L1176 0L0 0" stroke="none" fill="#FF387D" fill-rule="evenodd" fill-opacity="0.1960784" /></g></g><g clip-path="url(#7)"><g><path transform="matrix(1 0 0 -1 0 1552)" d="M0 3479L1176 2281L1176 2281L1176 326L1176 326L0 1525" stroke="none" fill="url(#2266)" /><path transform="matrix(1 0 0 -1 0 1552)" d="M0 3478.496L1176 2279.688L1176 2279.688L1176 1552L1176 1552L0 1552" stroke="none" fill="#FFD800" fill-rule="evenodd" fill-opacity="0.1960784" /><path transform="matrix(1 0 0 -1 0 1552)" d="M0 1525.596L1176 326.7888L1176 326.7888L1176 0L1176 0L0 0" stroke="none" fill="#FF387D" fill-rule="evenodd" fill-opacity="0.1960784" /></g></g><g clip-path="url(#8)"><g><path transform="matrix(1 0 0 -1 0 1552)" d="M0 3479L1176 2280L1176 2280L1176 326L1176 326L0 1525" stroke="none" fill="url(#2872)" /><path transform="matrix(1 0 0 -1 0 1552)" d="M0 3477.907L1176 2279.1L1176 2279.1L1176 1552L1176 1552L0 1552" stroke="none" fill="#FFD800" fill-rule="evenodd" fill-opacity="0.1960784" /><path transform="matrix(1 0 0 -1 0 1552)" d="M0 1526.257L1176 327.4496L1176 327.4496L1176 0L1176 0L0 0" stroke="none" fill="#FF387D" fill-rule="evenodd" fill-opacity="0.1960784" /></g></g><g clip-path="url(#9)"><g><path transform="matrix(1 0 0 -1 0 1552)" d="M0 3478L1176 2280L1176 2280L1176 327L1176 327L0 1526" stroke="none" fill="url(#3476)" /><path transform="matrix(1 0 0 -1 0 1552)" d="M0 3477.323L1176 2278.515L1176 2278.515L1176 1552L1176 1552L0 1552" stroke="none" fill="#FFD800" fill-rule="evenodd" fill-opacity="0.1960784" /><path transform="matrix(1 0 0 -1 0 1552)" d="M0 1526.872L1176 328.0648L1176 328.0648L1176 0L1176 0L0 0" stroke="none" fill="#FF387D" fill-rule="evenodd" fill-opacity="0.1960784" /></g></g><g clip-path="url(#10)"><g><path transform="matrix(1 0 0 -1 0 1552)" d="M0 3478L1176 2279L1176 2279L1176 328L1176 328L0 1526" stroke="none" fill="url(#4081)" /><path transform="matrix(1 0 0 -1 0 1552)" d="M0 3476.732L1176 2277.925L1176 2277.925L1176 1552L1176 1552L0 1552" stroke="none" fill="#FFD800" fill-rule="evenodd" fill-opacity="0.1960784" /><path transform="matrix(1 0 0 -1 0 1552)" d="M0 1527.443L1176 328.6354L1176 328.6354L1176 0L1176 0L0 0" stroke="none" fill="#FF387D" fill-rule="evenodd" fill-opacity="0.1960784" /></g></g><g clip-path="url(#11)"><g><path transform="matrix(1 0 0 -1 0 1552)" d="M0 3477L1176 2278L1176 2278L1176 328L1176 328L0 1527" stroke="none" fill="url(#4685)" /><path transform="matrix(1 0 0 -1 0 1552)" d="M0 3476.135L1176 2277.327L1176 2277.327L1176 1552L1176 1552L0 1552" stroke="none" fill="#FFD800" fill-rule="evenodd" fill-opacity="0.1960784" /><path transform="matrix(1 0 0 -1 0 1552)" d="M0 1527.967L1176 329.1595L1176 329.1595L1176 0L1176 0L0 0" stroke="none" fill="#FF387D" fill-rule="evenodd" fill-opacity="0.1960784" /></g></g><g clip-path="url(#12)"><g><path transform="matrix(1 0 0 -1 0 1552)" d="M0 3477L1176 2278L1176 2278L1176 329L1176 329L0 1527" stroke="none" fill="url(#5281)" /><path transform="matrix(1 0 0 -1 0 1552)" d="M0 3475.55L1176 2276.743L1176 2276.743L1176 1552L1176 1552L0 1552" stroke="none" fill="#FFD800" fill-rule="evenodd" fill-opacity="0.1960784" /><path transform="matrix(1 0 0 -1 0 1552)" d="M0 1528.449L1176 329.6418L1176 329.6418L1176 0L1176 0L0 0" stroke="none" fill="#FF387D" fill-rule="evenodd" fill-opacity="0.1960784" /></g></g><g clip-path="url(#13)"><g><path transform="matrix(1 0 0 -1 0 1552)" d="M0 3476L1176 2277L1176 2277L1176 329L1176 329L0 1528" stroke="none" fill="url(#5882)" /><path transform="matrix(1 0 0 -1 0 1552)" d="M0 3474.95L1176 2276.142L1176 2276.142L1176 1552L1176 1552L0 1552" stroke="none" fill="#FFD800" fill-rule="evenodd" fill-opacity="0.1960784" /><path transform="matrix(1 0 0 -1 0 1552)" d="M0 1528.879L1176 330.0716L1176 330.0716L1176 0L1176 0L0 0" stroke="none" fill="#FF387D" fill-rule="evenodd" fill-opacity="0.1960784" /></g></g><g clip-path="url(#14)"><g><path transform="matrix(1 0 0 -1 0 1552)" d="M0 3475L1176 2277L1176 2277L1176 329L1176 329L0 1528" stroke="none" fill="url(#6479)" /><path transform="matrix(1 0 0 -1 0 1552)" d="M0 3474.365L1176 2275.557L1176 2275.557L1176 1552L1176 1552L0 1552" stroke="none" fill="#FFD800" fill-rule="evenodd" fill-opacity="0.1960784" /><path transform="matrix(1 0 0 -1 0 1552)" d="M0 1529.276L1176 330.4688L1176 330.4688L1176 0L1176 0L0 0" stroke="none" fill="#FF387D" fill-rule="evenodd" fill-opacity="0.1960784" /></g></g><g clip-path="url(#15)"><g><path transform="matrix(1 0 0 -1 0 1552)" d="M0 3475L1176 2276L1176 2276L1176 330L1176 330L0 1529" stroke="none" fill="url(#7076)" /><path transform="matrix(1 0 0 -1 0 1552)" d="M0 3473.767L1176 2274.959L1176 2274.959L1176 1552L1176 1552L0 1552" stroke="none" fill="#FFD800" fill-rule="evenodd" fill-opacity="0.1960784" /><path transform="matrix(1 0 0 -1 0 1552)" d="M0 1529.648L1176 330.8405L1176 330.8405L1176 0L1176 0L0 0" stroke="none" fill="#FF387D" fill-rule="evenodd" fill-opacity="0.1960784" /></g></g><g clip-path="url(#16)"><g><path transform="matrix(1 0 0 -1 0 1552)" d="M0 3474L1176 2275L1176 2275L1176 330L1176 330L0 1529" stroke="none" fill="url(#7670)" /><path transform="matrix(1 0 0 -1 0 1552)" d="M0 3473.172L1176 2274.365L1176 2274.365L1176 1552L1176 1552L0 1552" stroke="none" fill="#FFD800" fill-rule="evenodd" fill-opacity="0.1960784" /><path transform="matrix(1 0 0 -1 0 1552)" d="M0 1529.975L1176 331.1671L1176 331.1671L1176 0L1176 0L0 0" stroke="none" fill="#FF387D" fill-rule="evenodd" fill-opacity="0.1960784" /></g></g><g clip-path="url(#17)"><g><path transform="matrix(1 0 0 -1 0 1552)" d="M0 3474L1176 2275L1176 2275L1176 330L1176 330L0 1529" stroke="none" fill="url(#8271)" /><path transform="matrix(1 0 0 -1 0 1552)" d="M0 3472.577L1176 2273.77L1176 2273.77L1176 1552L1176 1552L0 1552" stroke="none" fill="#FFD800" fill-rule="evenodd" fill-opacity="0.1960784" /><path transform="matrix(1 0 0 -1 0 1552)" d="M0 1530.26L1176 331.4523L1176 331.4523L1176 0L1176 0L0 0" stroke="none" fill="#FF387D" fill-rule="evenodd" fill-opacity="0.1960784" /></g></g><g clip-path="url(#18)"><g><path transform="matrix(1 0 0 -1 0 1552)" d="M0 3473L1176 2274L1176 2274L1176 331L1176 331L0 1530" stroke="none" fill="url(#8875)" /><path transform="matrix(1 0 0 -1 0 1552)" d="M0 3471.985L1176 2273.177L1176 2273.177L1176 1552L1176 1552L0 1552" stroke="none" fill="#FFD800" fill-rule="evenodd" fill-opacity="0.1960784" /><path transform="matrix(1 0 0 -1 0 1552)" d="M0 1530.517L1176 331.7097L1176 331.7097L1176 0L1176 0L0 0" stroke="none" fill="#FF387D" fill-rule="evenodd" fill-opacity="0.1960784" /></g></g><g clip-path="url(#19)"><g><path transform="matrix(1 0 0 -1 0 1552)" d="M0 3472L1176 2274L1176 2274L1176 331L1176 331L0 1530" stroke="none" fill="url(#9465)" /><path transform="matrix(1 0 0 -1 0 1552)" d="M0 3471.397L1176 2272.59L1176 2272.59L1176 1552L1176 1552L0 1552" stroke="none" fill="#FFD800" fill-rule="evenodd" fill-opacity="0.1960784" /><path transform="matrix(1 0 0 -1 0 1552)" d="M0 1530.738L1176 331.9308L1176 331.9308L1176 0L1176 0L0 0" stroke="none" fill="#FF387D" fill-rule="evenodd" fill-opacity="0.1960784" /></g></g></g></g></g><g clip-path="url(#20)"><path transform="matrix(1 0 0 -1 0 1552)" d="M1176.492 0.49L0.151001 0.49L0.151001 0.49L0.151001 1552.877L0.151001 1552.877L1176.492 1552.877z" stroke="#E6E7E8" stroke-width="1" fill="none" /><g><g clip-path="url(#21)"><g clip-path="url(#22)"><g><path transform="matrix(1 0 0 -1 0 1552)" d="M1019.302 0L1019.302 1552L1019.302 1552L1176.492 1552L1176.492 1552L1176.492 0" stroke="none" fill="url(#10376)" /><path transform="matrix(1 0 0 -1 0 1552)" d="M1019.302 0L1019.302 1552L1019.302 1552L0 1552L0 1552L0 0" stroke="none" fill="#4C216D" fill-rule="evenodd" fill-opacity="0.4980392" /><path transform="matrix(1 0 0 -1 0 1552)" d="M1176.492 0L1176.492 1552L1176.492 1552L1176 1552L1176 1552L1176 0" stroke="none" fill="#B83F54" fill-rule="evenodd" fill-opacity="0.4980392" /></g></g></g></g><g><g clip-path="url(#23)"></g></g></g><g clip-path="url(#24)"><g transform="matrix(0.2398164 0 0 0.2382367 752.6523 1466.534)"><g transform="matrix(1 0 0 1 0 0)"><image x="0" y="0" xlink:href="img_07.png" width="207" height="125" /></g></g></g><path transform="matrix(1 0 0 -1 0 1552)" d="M814.084 80.2148L814.084 64.1328" stroke="#797A7C" stroke-width="1" fill="none" /><g clip-path="url(#25)"><g clip-path="url(#26)"><g clip-path="url(#27)"><g><g clip-path="url(#28)"><g clip-path="url(#29)"><g><path transform="matrix(1 0 0 -1 0 1552)" d="M0 -622L1176 751L1176 751L1176 4819L1176 4819L0 3446" stroke="none" fill="url(#12275)" /><path transform="matrix(1 0 0 -1 0 1552)" d="M0 -620.8635L1176 752.278L1176 752.278L1176 0L1176 0L0 0" stroke="none" fill="#4C216D" fill-rule="evenodd" fill-opacity="0.8980392" /><path transform="matrix(1 0 0 -1 0 1552)" d="M0 3444.88L1176 4818.021L1176 4818.021L1176 1552L1176 1552L0 1552" stroke="none" fill="#B83F54" fill-rule="evenodd" fill-opacity="0.8980392" /></g></g></g></g><g><g clip-path="url(#30)"><g clip-path="url(#31)"><g><path transform="matrix(1 0 0 -1 0 1552)" d="M0 1761L1176 562L1176 562L1176 -1705L1176 -1705L0 -506" stroke="none" fill="url(#13147)" /><path transform="matrix(1 0 0 -1 0 1552)" d="M0 1760.074L1176 561.2666L1176 561.2666L1176 1552L1176 1552L0 1552" stroke="none" fill="#FFD800" fill-rule="evenodd" fill-opacity="0.1960784" /><path transform="matrix(1 0 0 -1 0 1552)" d="M0 -505.2527L1176 -1704.06L1176 -1704.06L1176 0L1176 0L0 0" stroke="none" fill="#FF387D" fill-rule="evenodd" fill-opacity="0.1960784" /></g></g><g clip-path="url(#32)"><g><path transform="matrix(1 0 0 -1 0 1552)" d="M0 1760L1176 562L1176 562L1176 -1704L1176 -1704L0 -505" stroke="none" fill="url(#13779)" /><path transform="matrix(1 0 0 -1 0 1552)" d="M0 1759.398L1176 560.59L1176 560.59L1176 1552L1176 1552L0 1552" stroke="none" fill="#FFD800" fill-rule="evenodd" fill-opacity="0.1960784" /><path transform="matrix(1 0 0 -1 0 1552)" d="M0 -504.3435L1176 -1703.151L1176 -1703.151L1176 0L1176 0L0 0" stroke="none" fill="#FF387D" fill-rule="evenodd" fill-opacity="0.1960784" /></g></g><g clip-path="url(#33)"><g><path transform="matrix(1 0 0 -1 0 1552)" d="M0 1760L1176 561L1176 561L1176 -1703L1176 -1703L0 -505" stroke="none" fill="url(#14415)" /><path transform="matrix(1 0 0 -1 0 1552)" d="M0 1758.718L1176 559.9103L1176 559.9103L1176 1552L1176 1552L0 1552" stroke="none" fill="#FFD800" fill-rule="evenodd" fill-opacity="0.1960784" /><path transform="matrix(1 0 0 -1 0 1552)" d="M0 -503.5191L1176 -1702.327L1176 -1702.327L1176 0L1176 0L0 0" stroke="none" fill="#FF387D" fill-rule="evenodd" fill-opacity="0.1960784" /></g></g><g clip-path="url(#34)"><g><path transform="matrix(1 0 0 -1 0 1552)" d="M0 1759L1176 560L1176 560L1176 -1703L1176 -1703L0 -504" stroke="none" fill="url(#15036)" /><path transform="matrix(1 0 0 -1 0 1552)" d="M0 1758.036L1176 559.2286L1176 559.2286L1176 1552L1176 1552L0 1552" stroke="none" fill="#FFD800" fill-rule="evenodd" fill-opacity="0.1960784" /><path transform="matrix(1 0 0 -1 0 1552)" d="M0 -502.7539L1176 -1701.561L1176 -1701.561L1176 0L1176 0L0 0" stroke="none" fill="#FF387D" fill-rule="evenodd" fill-opacity="0.1960784" /></g></g><g clip-path="url(#35)"><g><path transform="matrix(1 0 0 -1 0 1552)" d="M0 1758L1176 560L1176 560L1176 -1702L1176 -1702L0 -503" stroke="none" fill="url(#15667)" /><path transform="matrix(1 0 0 -1 0 1552)" d="M0 1757.359L1176 558.5511L1176 558.5511L1176 1552L1176 1552L0 1552" stroke="none" fill="#FFD800" fill-rule="evenodd" fill-opacity="0.1960784" /><path transform="matrix(1 0 0 -1 0 1552)" d="M0 -502.0414L1176 -1700.849L1176 -1700.849L1176 0L1176 0L0 0" stroke="none" fill="#FF387D" fill-rule="evenodd" fill-opacity="0.1960784" /></g></g><g clip-path="url(#36)"><g><path transform="matrix(1 0 0 -1 0 1552)" d="M0 1758L1176 559L1176 559L1176 -1701L1176 -1701L0 -502" stroke="none" fill="url(#16291)" /><path transform="matrix(1 0 0 -1 0 1552)" d="M0 1756.675L1176 557.8676L1176 557.8676L1176 1552L1176 1552L0 1552" stroke="none" fill="#FFD800" fill-rule="evenodd" fill-opacity="0.1960784" /><path transform="matrix(1 0 0 -1 0 1552)" d="M0 -501.3802L1176 -1700.188L1176 -1700.188L1176 0L1176 0L0 0" stroke="none" fill="#FF387D" fill-rule="evenodd" fill-opacity="0.1960784" /></g></g><g clip-path="url(#37)"><g><path transform="matrix(1 0 0 -1 0 1552)" d="M0 1757L1176 558L1176 558L1176 -1701L1176 -1701L0 -502" stroke="none" fill="url(#16922)" /><path transform="matrix(1 0 0 -1 0 1552)" d="M0 1755.983L1176 557.1753L1176 557.1753L1176 1552L1176 1552L0 1552" stroke="none" fill="#FFD800" fill-rule="evenodd" fill-opacity="0.1960784" /><path transform="matrix(1 0 0 -1 0 1552)" d="M0 -500.7732L1176 -1699.581L1176 -1699.581L1176 0L1176 0L0 0" stroke="none" fill="#FF387D" fill-rule="evenodd" fill-opacity="0.1960784" /></g></g><g clip-path="url(#38)"><g><path transform="matrix(1 0 0 -1 0 1552)" d="M0 1756L1176 557L1176 557L1176 -1700L1176 -1700L0 -501" stroke="none" fill="url(#17551)" /><path transform="matrix(1 0 0 -1 0 1552)" d="M0 1755.306L1176 556.4982L1176 556.4982L1176 1552L1176 1552L0 1552" stroke="none" fill="#FFD800" fill-rule="evenodd" fill-opacity="0.1960784" /><path transform="matrix(1 0 0 -1 0 1552)" d="M0 -500.215L1176 -1699.023L1176 -1699.023L1176 0L1176 0L0 0" stroke="none" fill="#FF387D" fill-rule="evenodd" fill-opacity="0.1960784" /></g></g><g clip-path="url(#39)"><g><path transform="matrix(1 0 0 -1 0 1552)" d="M0 1756L1176 557L1176 557L1176 -1700L1176 -1700L0 -501" stroke="none" fill="url(#18178)" /><path transform="matrix(1 0 0 -1 0 1552)" d="M0 1754.611L1176 555.8033L1176 555.8033L1176 1552L1176 1552L0 1552" stroke="none" fill="#FFD800" fill-rule="evenodd" fill-opacity="0.1960784" /><path transform="matrix(1 0 0 -1 0 1552)" d="M0 -499.7169L1176 -1698.524L1176 -1698.524L1176 0L1176 0L0 0" stroke="none" fill="#FF387D" fill-rule="evenodd" fill-opacity="0.1960784" /></g></g><g clip-path="url(#40)"><g><path transform="matrix(1 0 0 -1 0 1552)" d="M0 1755L1176 556L1176 556L1176 -1699L1176 -1699L0 -500" stroke="none" fill="url(#18808)" /><path transform="matrix(1 0 0 -1 0 1552)" d="M0 1753.933L1176 555.1251L1176 555.1251L1176 1552L1176 1552L0 1552" stroke="none" fill="#FFD800" fill-rule="evenodd" fill-opacity="0.1960784" /><path transform="matrix(1 0 0 -1 0 1552)" d="M0 -499.2568L1176 -1698.064L1176 -1698.064L1176 0L1176 0L0 0" stroke="none" fill="#FF387D" fill-rule="evenodd" fill-opacity="0.1960784" /></g></g><g clip-path="url(#41)"><g><path transform="matrix(1 0 0 -1 0 1552)" d="M0 1754L1176 555L1176 555L1176 -1699L1176 -1699L0 -500" stroke="none" fill="url(#19440)" /><path transform="matrix(1 0 0 -1 0 1552)" d="M0 1753.24L1176 554.4325L1176 554.4325L1176 1552L1176 1552L0 1552" stroke="none" fill="#FFD800" fill-rule="evenodd" fill-opacity="0.1960784" /><path transform="matrix(1 0 0 -1 0 1552)" d="M0 -498.8267L1176 -1697.634L1176 -1697.634L1176 0L1176 0L0 0" stroke="none" fill="#FF387D" fill-rule="evenodd" fill-opacity="0.1960784" /></g></g><g clip-path="url(#42)"><g><path transform="matrix(1 0 0 -1 0 1552)" d="M0 1754L1176 555L1176 555L1176 -1698L1176 -1698L0 -499" stroke="none" fill="url(#20070)" /><path transform="matrix(1 0 0 -1 0 1552)" d="M0 1752.552L1176 553.7442L1176 553.7442L1176 1552L1176 1552L0 1552" stroke="none" fill="#FFD800" fill-rule="evenodd" fill-opacity="0.1960784" /><path transform="matrix(1 0 0 -1 0 1552)" d="M0 -498.4479L1176 -1697.255L1176 -1697.255L1176 0L1176 0L0 0" stroke="none" fill="#FF387D" fill-rule="evenodd" fill-opacity="0.1960784" /></g></g><g clip-path="url(#43)"><g><path transform="matrix(1 0 0 -1 0 1552)" d="M0 1753L1176 554L1176 554L1176 -1698L1176 -1698L0 -499" stroke="none" fill="url(#20699)" /><path transform="matrix(1 0 0 -1 0 1552)" d="M0 1751.863L1176 553.055L1176 553.055L1176 1552L1176 1552L0 1552" stroke="none" fill="#FFD800" fill-rule="evenodd" fill-opacity="0.1960784" /><path transform="matrix(1 0 0 -1 0 1552)" d="M0 -498.1178L1176 -1696.925L1176 -1696.925L1176 0L1176 0L0 0" stroke="none" fill="#FF387D" fill-rule="evenodd" fill-opacity="0.1960784" /></g></g><g clip-path="url(#44)"><g><path transform="matrix(1 0 0 -1 0 1552)" d="M0 1752L1176 553L1176 553L1176 -1698L1176 -1698L0 -499" stroke="none" fill="url(#21338)" /><path transform="matrix(1 0 0 -1 0 1552)" d="M0 1751.176L1176 552.3688L1176 552.3688L1176 1552L1176 1552L0 1552" stroke="none" fill="#FFD800" fill-rule="evenodd" fill-opacity="0.1960784" /><path transform="matrix(1 0 0 -1 0 1552)" d="M0 -497.8195L1176 -1696.627L1176 -1696.627L1176 0L1176 0L0 0" stroke="none" fill="#FF387D" fill-rule="evenodd" fill-opacity="0.1960784" /></g></g><g clip-path="url(#45)"><g><path transform="matrix(1 0 0 -1 0 1552)" d="M0 1751L1176 553L1176 553L1176 -1697L1176 -1697L0 -499" stroke="none" fill="url(#21972)" /><path transform="matrix(1 0 0 -1 0 1552)" d="M0 1750.496L1176 551.6884L1176 551.6884L1176 1552L1176 1552L0 1552" stroke="none" fill="#FFD800" fill-rule="evenodd" fill-opacity="0.1960784" /><path transform="matrix(1 0 0 -1 0 1552)" d="M0 -497.5634L1176 -1696.371L1176 -1696.371L1176 0L1176 0L0 0" stroke="none" fill="#FF387D" fill-rule="evenodd" fill-opacity="0.1960784" /></g></g></g></g></g></g><g><g clip-path="url(#46)"><path transform="matrix(1 0 0 -1 0 1552)" d="M1056.897 1066.558L541.02 1066.558L541.02 1066.558L541.02 1392.805L541.02 1392.805L1056.897 1392.805z" stroke="#000000" stroke-width="2" fill="none" stroke-opacity="0.4980392" /></g></g></g><g clip-path="url(#47)"><g transform="matrix(0.6559427 0 0 -0.6559428 549.1779 476.0374)"><g transform="matrix(1 0 0 -1 0 471)"><image x="0" y="0" xlink:href="img_15.png" width="760" height="471" /></g></g></g><g clip-path="url(#48)"><g><g clip-path="url(#49)"><g clip-path="url(#50)"><g><path transform="matrix(1 0 0 -1 0 1552)" d="M0 -2002L1176 -629L1176 -629L1176 2883L1176 2883L0 1510" stroke="none" fill="url(#23298)" /><path transform="matrix(1 0 0 -1 0 1552)" d="M0 -2001.447L1176 -628.3054L1176 -628.3054L1176 0L1176 0L0 0" stroke="none" fill="#4C216D" fill-rule="evenodd" fill-opacity="0.8980392" /><path transform="matrix(1 0 0 -1 0 1552)" d="M0 1508.566L1176 2881.708L1176 2881.708L1176 1552L1176 1552L0 1552" stroke="none" fill="#B83F54" fill-rule="evenodd" fill-opacity="0.8980392" /></g></g></g></g><g><g clip-path="url(#51)"><g clip-path="url(#52)"><g><path transform="matrix(1 0 0 -1 0 1552)" d="M0 2716L1176 1517L1176 1517L1176 -444L1176 -444L0 755" stroke="none" fill="url(#24110)" /><path transform="matrix(1 0 0 -1 0 1552)" d="M0 2714.786L1176 1515.978L1176 1515.978L1176 1552L1176 1552L0 1552" stroke="none" fill="#FFD800" fill-rule="evenodd" fill-opacity="0.1960784" /><path transform="matrix(1 0 0 -1 0 1552)" d="M0 756.3022L1176 -442.5053L1176 -442.5053L1176 0L1176 0L0 0" stroke="none" fill="#FF387D" fill-rule="evenodd" fill-opacity="0.1960784" /></g></g><g clip-path="url(#53)"><g><path transform="matrix(1 0 0 -1 0 1552)" d="M0 2715L1176 1516L1176 1516L1176 -443L1176 -443L0 756" stroke="none" fill="url(#24705)" /><path transform="matrix(1 0 0 -1 0 1552)" d="M0 2714.204L1176 1515.396L1176 1515.396L1176 1552L1176 1552L0 1552" stroke="none" fill="#FFD800" fill-rule="evenodd" fill-opacity="0.1960784" /><path transform="matrix(1 0 0 -1 0 1552)" d="M0 757.2101L1176 -441.5974L1176 -441.5974L1176 0L1176 0L0 0" stroke="none" fill="#FF387D" fill-rule="evenodd" fill-opacity="0.1960784" /></g></g><g clip-path="url(#54)"><g><path transform="matrix(1 0 0 -1 0 1552)" d="M0 2715L1176 1516L1176 1516L1176 -442L1176 -442L0 757" stroke="none" fill="url(#25296)" /><path transform="matrix(1 0 0 -1 0 1552)" d="M0 2713.62L1176 1514.813L1176 1514.813L1176 1552L1176 1552L0 1552" stroke="none" fill="#FFD800" fill-rule="evenodd" fill-opacity="0.1960784" /><path transform="matrix(1 0 0 -1 0 1552)" d="M0 758.0527L1176 -440.7547L1176 -440.7547L1176 0L1176 0L0 0" stroke="none" fill="#FF387D" fill-rule="evenodd" fill-opacity="0.1960784" /></g></g><g clip-path="url(#55)"><g><path transform="matrix(1 0 0 -1 0 1552)" d="M0 2714L1176 1515L1176 1515L1176 -441L1176 -441L0 758" stroke="none" fill="url(#25888)" /><path transform="matrix(1 0 0 -1 0 1552)" d="M0 2713.036L1176 1514.229L1176 1514.229L1176 1552L1176 1552L0 1552" stroke="none" fill="#FFD800" fill-rule="evenodd" fill-opacity="0.1960784" /><path transform="matrix(1 0 0 -1 0 1552)" d="M0 758.8378L1176 -439.9697L1176 -439.9697L1176 0L1176 0L0 0" stroke="none" fill="#FF387D" fill-rule="evenodd" fill-opacity="0.1960784" /></g></g><g clip-path="url(#56)"><g><path transform="matrix(1 0 0 -1 0 1552)" d="M0 2713L1176 1515L1176 1515L1176 -440L1176 -440L0 759" stroke="none" fill="url(#26484)" /><path transform="matrix(1 0 0 -1 0 1552)" d="M0 2712.449L1176 1513.642L1176 1513.642L1176 1552L1176 1552L0 1552" stroke="none" fill="#FFD800" fill-rule="evenodd" fill-opacity="0.1960784" /><path transform="matrix(1 0 0 -1 0 1552)" d="M0 759.5496L1176 -439.2579L1176 -439.2579L1176 0L1176 0L0 0" stroke="none" fill="#FF387D" fill-rule="evenodd" fill-opacity="0.1960784" /></g></g><g clip-path="url(#57)"><g><path transform="matrix(1 0 0 -1 0 1552)" d="M0 2713L1176 1514L1176 1514L1176 -440L1176 -440L0 759" stroke="none" fill="url(#27079)" /><path transform="matrix(1 0 0 -1 0 1552)" d="M0 2711.861L1176 1513.053L1176 1513.053L1176 1552L1176 1552L0 1552" stroke="none" fill="#FFD800" fill-rule="evenodd" fill-opacity="0.1960784" /><path transform="matrix(1 0 0 -1 0 1552)" d="M0 760.2103L1176 -438.5972L1176 -438.5972L1176 0L1176 0L0 0" stroke="none" fill="#FF387D" fill-rule="evenodd" fill-opacity="0.1960784" /></g></g><g clip-path="url(#58)"><g><path transform="matrix(1 0 0 -1 0 1552)" d="M0 2712L1176 1513L1176 1513L1176 -439L1176 -439L0 760" stroke="none" fill="url(#27676)" /><path transform="matrix(1 0 0 -1 0 1552)" d="M0 2711.276L1176 1512.468L1176 1512.468L1176 1552L1176 1552L0 1552" stroke="none" fill="#FFD800" fill-rule="evenodd" fill-opacity="0.1960784" /><path transform="matrix(1 0 0 -1 0 1552)" d="M0 760.8254L1176 -437.982L1176 -437.982L1176 0L1176 0L0 0" stroke="none" fill="#FF387D" fill-rule="evenodd" fill-opacity="0.1960784" /></g></g><g clip-path="url(#59)"><g><path transform="matrix(1 0 0 -1 0 1552)" d="M0 2712L1176 1513L1176 1513L1176 -438L1176 -438L0 760" stroke="none" fill="url(#28270)" /><path transform="matrix(1 0 0 -1 0 1552)" d="M0 2710.686L1176 1511.878L1176 1511.878L1176 1552L1176 1552L0 1552" stroke="none" fill="#FFD800" fill-rule="evenodd" fill-opacity="0.1960784" /><path transform="matrix(1 0 0 -1 0 1552)" d="M0 761.3962L1176 -437.4113L1176 -437.4113L1176 0L1176 0L0 0" stroke="none" fill="#FF387D" fill-rule="evenodd" fill-opacity="0.1960784" /></g></g><g clip-path="url(#60)"><g><path transform="matrix(1 0 0 -1 0 1552)" d="M0 2711L1176 1512L1176 1512L1176 -438L1176 -438L0 761" stroke="none" fill="url(#28856)" /><path transform="matrix(1 0 0 -1 0 1552)" d="M0 2710.088L1176 1511.28L1176 1511.28L1176 1552L1176 1552L0 1552" stroke="none" fill="#FFD800" fill-rule="evenodd" fill-opacity="0.1960784" /><path transform="matrix(1 0 0 -1 0 1552)" d="M0 761.9202L1176 -436.8873L1176 -436.8873L1176 0L1176 0L0 0" stroke="none" fill="#FF387D" fill-rule="evenodd" fill-opacity="0.1960784" /></g></g><g clip-path="url(#61)"><g><path transform="matrix(1 0 0 -1 0 1552)" d="M0 2711L1176 1512L1176 1512L1176 -437L1176 -437L0 761" stroke="none" fill="url(#29445)" /><path transform="matrix(1 0 0 -1 0 1552)" d="M0 2709.503L1176 1510.696L1176 1510.696L1176 1552L1176 1552L0 1552" stroke="none" fill="#FFD800" fill-rule="evenodd" fill-opacity="0.1960784" /><path transform="matrix(1 0 0 -1 0 1552)" d="M0 762.4025L1176 -436.4051L1176 -436.4051L1176 0L1176 0L0 0" stroke="none" fill="#FF387D" fill-rule="evenodd" fill-opacity="0.1960784" /></g></g><g clip-path="url(#62)"><g><path transform="matrix(1 0 0 -1 0 1552)" d="M0 2710L1176 1511L1176 1511L1176 -437L1176 -437L0 762" stroke="none" fill="url(#30040)" /><path transform="matrix(1 0 0 -1 0 1552)" d="M0 2708.903L1176 1510.095L1176 1510.095L1176 1552L1176 1552L0 1552" stroke="none" fill="#FFD800" fill-rule="evenodd" fill-opacity="0.1960784" /><path transform="matrix(1 0 0 -1 0 1552)" d="M0 762.8322L1176 -435.9753L1176 -435.9753L1176 0L1176 0L0 0" stroke="none" fill="#FF387D" fill-rule="evenodd" fill-opacity="0.1960784" /></g></g><g clip-path="url(#63)"><g><path transform="matrix(1 0 0 -1 0 1552)" d="M0 2709L1176 1511L1176 1511L1176 -437L1176 -437L0 762" stroke="none" fill="url(#30636)" /><path transform="matrix(1 0 0 -1 0 1552)" d="M0 2708.318L1176 1509.51L1176 1509.51L1176 1552L1176 1552L0 1552" stroke="none" fill="#FFD800" fill-rule="evenodd" fill-opacity="0.1960784" /><path transform="matrix(1 0 0 -1 0 1552)" d="M0 763.2295L1176 -435.578L1176 -435.578L1176 0L1176 0L0 0" stroke="none" fill="#FF387D" fill-rule="evenodd" fill-opacity="0.1960784" /></g></g><g clip-path="url(#64)"><g><path transform="matrix(1 0 0 -1 0 1552)" d="M0 2709L1176 1510L1176 1510L1176 -436L1176 -436L0 763" stroke="none" fill="url(#31228)" /><path transform="matrix(1 0 0 -1 0 1552)" d="M0 2707.72L1176 1508.912L1176 1508.912L1176 1552L1176 1552L0 1552" stroke="none" fill="#FFD800" fill-rule="evenodd" fill-opacity="0.1960784" /><path transform="matrix(1 0 0 -1 0 1552)" d="M0 763.6011L1176 -435.2064L1176 -435.2064L1176 0L1176 0L0 0" stroke="none" fill="#FF387D" fill-rule="evenodd" fill-opacity="0.1960784" /></g></g><g clip-path="url(#65)"><g><path transform="matrix(1 0 0 -1 0 1552)" d="M0 2708L1176 1509L1176 1509L1176 -436L1176 -436L0 763" stroke="none" fill="url(#31826)" /><path transform="matrix(1 0 0 -1 0 1552)" d="M0 2707.125L1176 1508.318L1176 1508.318L1176 1552L1176 1552L0 1552" stroke="none" fill="#FFD800" fill-rule="evenodd" fill-opacity="0.1960784" /><path transform="matrix(1 0 0 -1 0 1552)" d="M0 763.9279L1176 -434.8797L1176 -434.8797L1176 0L1176 0L0 0" stroke="none" fill="#FF387D" fill-rule="evenodd" fill-opacity="0.1960784" /></g></g><g clip-path="url(#66)"><g><path transform="matrix(1 0 0 -1 0 1552)" d="M0 2708L1176 1509L1176 1509L1176 -436L1176 -436L0 763" stroke="none" fill="url(#32424)" /><path transform="matrix(1 0 0 -1 0 1552)" d="M0 2706.53L1176 1507.723L1176 1507.723L1176 1552L1176 1552L0 1552" stroke="none" fill="#FFD800" fill-rule="evenodd" fill-opacity="0.1960784" /><path transform="matrix(1 0 0 -1 0 1552)" d="M0 764.2129L1176 -434.5946L1176 -434.5946L1176 0L1176 0L0 0" stroke="none" fill="#FF387D" fill-rule="evenodd" fill-opacity="0.1960784" /></g></g><g clip-path="url(#67)"><g><path transform="matrix(1 0 0 -1 0 1552)" d="M0 2707L1176 1508L1176 1508L1176 -435L1176 -435L0 763" stroke="none" fill="url(#33023)" /><path transform="matrix(1 0 0 -1 0 1552)" d="M0 2705.938L1176 1507.13L1176 1507.13L1176 1552L1176 1552L0 1552" stroke="none" fill="#FFD800" fill-rule="evenodd" fill-opacity="0.1960784" /><path transform="matrix(1 0 0 -1 0 1552)" d="M0 764.4704L1176 -434.3371L1176 -434.3371L1176 0L1176 0L0 0" stroke="none" fill="#FF387D" fill-rule="evenodd" fill-opacity="0.1960784" /></g></g><g clip-path="url(#68)"><g><path transform="matrix(1 0 0 -1 0 1552)" d="M0 2706L1176 1508L1176 1508L1176 -435L1176 -435L0 764" stroke="none" fill="url(#33612)" /><path transform="matrix(1 0 0 -1 0 1552)" d="M0 2705.35L1176 1506.543L1176 1506.543L1176 1552L1176 1552L0 1552" stroke="none" fill="#FFD800" fill-rule="evenodd" fill-opacity="0.1960784" /><path transform="matrix(1 0 0 -1 0 1552)" d="M0 764.6915L1176 -434.1161L1176 -434.1161L1176 0L1176 0L0 0" stroke="none" fill="#FF387D" fill-rule="evenodd" fill-opacity="0.1960784" /></g></g></g></g><g><g clip-path="url(#69)"><g clip-path="url(#70)"><g><path transform="matrix(1 0 0 -1 0 1552)" d="M0 -49414L1176 187297L1176 187297L1176 45227L1176 45227L0 -191485" stroke="none" fill="url(#34328)" /><path transform="matrix(1 0 0 -1 0 1552)" d="M0 -49532.49L1176 187178.7L1176 187178.7L1176 1552L1176 1552L0 1552" stroke="none" fill="#560099" fill-rule="evenodd" fill-opacity="0.04705882" /><path transform="matrix(1 0 0 -1 0 1552)" d="M0 -191366.2L1176 45344.96L1176 45344.96L1176 0L1176 0L0 0" stroke="none" fill="#FF0A35" fill-rule="evenodd" fill-opacity="0.04705882" /></g></g><g clip-path="url(#71)"><g><path transform="matrix(1 0 0 -1 0 1552)" d="M0 -47129L1176 189582L1176 189582L1176 47512L1176 47512L0 -189200" stroke="none" fill="url(#34823)" /><path transform="matrix(1 0 0 -1 0 1552)" d="M0 -47247.38L1176 189463.8L1176 189463.8L1176 1552L1176 1552L0 1552" stroke="none" fill="#560099" fill-rule="evenodd" fill-opacity="0.04705882" /><path transform="matrix(1 0 0 -1 0 1552)" d="M0 -189081.2L1176 47630.06L1176 47630.06L1176 0L1176 0L0 0" stroke="none" fill="#FF0A35" fill-rule="evenodd" fill-opacity="0.04705882" /></g></g><g clip-path="url(#72)"><g><path transform="matrix(1 0 0 -1 0 1552)" d="M0 -44844L1176 191867L1176 191867L1176 49797L1176 49797L0 -186914" stroke="none" fill="url(#35316)" /><path transform="matrix(1 0 0 -1 0 1552)" d="M0 -44962.09L1176 191749.1L1176 191749.1L1176 1552L1176 1552L0 1552" stroke="none" fill="#560099" fill-rule="evenodd" fill-opacity="0.04705882" /><path transform="matrix(1 0 0 -1 0 1552)" d="M0 -186795.9L1176 49915.36L1176 49915.36L1176 0L1176 0L0 0" stroke="none" fill="#FF0A35" fill-rule="evenodd" fill-opacity="0.04705882" /></g></g><g clip-path="url(#73)"><g><path transform="matrix(1 0 0 -1 0 1552)" d="M0 -42557L1176 194146L1176 194146L1176 52080L1176 52080L0 -184623" stroke="none" fill="url(#35808)" /><path transform="matrix(1 0 0 -1 0 1552)" d="M0 -42675.3L1176 194028L1176 194028L1176 1552L1176 1552L0 1552" stroke="none" fill="#560099" fill-rule="evenodd" fill-opacity="0.04705882" /><path transform="matrix(1 0 0 -1 0 1552)" d="M0 -184504.5L1176 52198.79L1176 52198.79L1176 0L1176 0L0 0" stroke="none" fill="#FF0A35" fill-rule="evenodd" fill-opacity="0.04705882" /></g></g><g clip-path="url(#74)"><g><path transform="matrix(1 0 0 -1 0 1552)" d="M0 -40273L1176 196438L1176 196438L1176 54367L1176 54367L0 -182344" stroke="none" fill="url(#36300)" /><path transform="matrix(1 0 0 -1 0 1552)" d="M0 -40391.67L1176 196319.5L1176 196319.5L1176 1552L1176 1552L0 1552" stroke="none" fill="#560099" fill-rule="evenodd" fill-opacity="0.04705882" /><path transform="matrix(1 0 0 -1 0 1552)" d="M0 -182225.4L1176 54485.78L1176 54485.78L1176 0L1176 0L0 0" stroke="none" fill="#FF0A35" fill-rule="evenodd" fill-opacity="0.04705882" /></g></g><g clip-path="url(#75)"><g><path transform="matrix(1 0 0 -1 0 1552)" d="M0 -37988L1176 198723L1176 198723L1176 56653L1176 56653L0 -180058" stroke="none" fill="url(#36792)" /><path transform="matrix(1 0 0 -1 0 1552)" d="M0 -38106.36L1176 198604.8L1176 198604.8L1176 1552L1176 1552L0 1552" stroke="none" fill="#560099" fill-rule="evenodd" fill-opacity="0.04705882" /><path transform="matrix(1 0 0 -1 0 1552)" d="M0 -179940.1L1176 56771.09L1176 56771.09L1176 0L1176 0L0 0" stroke="none" fill="#FF0A35" fill-rule="evenodd" fill-opacity="0.04705882" /></g></g><g clip-path="url(#76)"><g><path transform="matrix(1 0 0 -1 0 1552)" d="M0 -35703L1176 201008L1176 201008L1176 58938L1176 58938L0 -177773" stroke="none" fill="url(#37284)" /><path transform="matrix(1 0 0 -1 0 1552)" d="M0 -35821.25L1176 200890L1176 200890L1176 1552L1176 1552L0 1552" stroke="none" fill="#560099" fill-rule="evenodd" fill-opacity="0.04705882" /><path transform="matrix(1 0 0 -1 0 1552)" d="M0 -177655L1176 59056.2L1176 59056.2L1176 0L1176 0L0 0" stroke="none" fill="#FF0A35" fill-rule="evenodd" fill-opacity="0.04705882" /></g></g><g clip-path="url(#77)"><g><path transform="matrix(1 0 0 -1 0 1552)" d="M0 -33418L1176 203294L1176 203294L1176 61223L1176 61223L0 -175488" stroke="none" fill="url(#37776)" /><path transform="matrix(1 0 0 -1 0 1552)" d="M0 -33535.96L1176 203175.3L1176 203175.3L1176 1552L1176 1552L0 1552" stroke="none" fill="#560099" fill-rule="evenodd" fill-opacity="0.04705882" /><path transform="matrix(1 0 0 -1 0 1552)" d="M0 -175369.7L1176 61341.5L1176 61341.5L1176 0L1176 0L0 0" stroke="none" fill="#FF0A35" fill-rule="evenodd" fill-opacity="0.04705882" /></g></g><g clip-path="url(#78)"><g><path transform="matrix(1 0 0 -1 0 1552)" d="M0 -31132L1176 205579L1176 205579L1176 63508L1176 63508L0 -173203" stroke="none" fill="url(#38270)" /><path transform="matrix(1 0 0 -1 0 1552)" d="M0 -31250.84L1176 205460.4L1176 205460.4L1176 1552L1176 1552L0 1552" stroke="none" fill="#560099" fill-rule="evenodd" fill-opacity="0.04705882" /><path transform="matrix(1 0 0 -1 0 1552)" d="M0 -173084.6L1176 63626.61L1176 63626.61L1176 0L1176 0L0 0" stroke="none" fill="#FF0A35" fill-rule="evenodd" fill-opacity="0.04705882" /></g></g><g clip-path="url(#79)"><g><path transform="matrix(1 0 0 -1 0 1552)" d="M0 -28847L1176 207864L1176 207864L1176 65794L1176 65794L0 -170918" stroke="none" fill="url(#38763)" /><path transform="matrix(1 0 0 -1 0 1552)" d="M0 -28965.54L1176 207745.7L1176 207745.7L1176 1552L1176 1552L0 1552" stroke="none" fill="#560099" fill-rule="evenodd" fill-opacity="0.04705882" /><path transform="matrix(1 0 0 -1 0 1552)" d="M0 -170799.3L1176 65911.91L1176 65911.91L1176 0L1176 0L0 0" stroke="none" fill="#FF0A35" fill-rule="evenodd" fill-opacity="0.04705882" /></g></g><g clip-path="url(#80)"><g><path transform="matrix(1 0 0 -1 0 1552)" d="M0 -26561L1176 210142L1176 210142L1176 68076L1176 68076L0 -168627" stroke="none" fill="url(#39256)" /><path transform="matrix(1 0 0 -1 0 1552)" d="M0 -26679.29L1176 210024L1176 210024L1176 1552L1176 1552L0 1552" stroke="none" fill="#560099" fill-rule="evenodd" fill-opacity="0.04705882" /><path transform="matrix(1 0 0 -1 0 1552)" d="M0 -168508.5L1176 68194.8L1176 68194.8L1176 0L1176 0L0 0" stroke="none" fill="#FF0A35" fill-rule="evenodd" fill-opacity="0.04705882" /></g></g><g clip-path="url(#81)"><g><path transform="matrix(1 0 0 -1 0 1552)" d="M0 -24277L1176 212434L1176 212434L1176 70364L1176 70364L0 -166347" stroke="none" fill="url(#39751)" /><path transform="matrix(1 0 0 -1 0 1552)" d="M0 -24395.13L1176 212316.1L1176 212316.1L1176 1552L1176 1552L0 1552" stroke="none" fill="#560099" fill-rule="evenodd" fill-opacity="0.04705882" /><path transform="matrix(1 0 0 -1 0 1552)" d="M0 -166228.9L1176 70482.33L1176 70482.33L1176 0L1176 0L0 0" stroke="none" fill="#FF0A35" fill-rule="evenodd" fill-opacity="0.04705882" /></g></g><g clip-path="url(#82)"><g><path transform="matrix(1 0 0 -1 0 1552)" d="M0 -21991L1176 214713L1176 214713L1176 72647L1176 72647L0 -164057" stroke="none" fill="url(#40243)" /><path transform="matrix(1 0 0 -1 0 1552)" d="M0 -22109.03L1176 214594.3L1176 214594.3L1176 1552L1176 1552L0 1552" stroke="none" fill="#560099" fill-rule="evenodd" fill-opacity="0.04705882" /><path transform="matrix(1 0 0 -1 0 1552)" d="M0 -163938.2L1176 72765.05L1176 72765.05L1176 0L1176 0L0 0" stroke="none" fill="#FF0A35" fill-rule="evenodd" fill-opacity="0.04705882" /></g></g><g clip-path="url(#83)"><g><path transform="matrix(1 0 0 -1 0 1552)" d="M0 -19706L1176 217005L1176 217005L1176 74934L1176 74934L0 -161777" stroke="none" fill="url(#40736)" /><path transform="matrix(1 0 0 -1 0 1552)" d="M0 -19824.71L1176 216886.5L1176 216886.5L1176 1552L1176 1552L0 1552" stroke="none" fill="#560099" fill-rule="evenodd" fill-opacity="0.04705882" /><path transform="matrix(1 0 0 -1 0 1552)" d="M0 -161658.5L1176 75052.74L1176 75052.74L1176 0L1176 0L0 0" stroke="none" fill="#FF0A35" fill-rule="evenodd" fill-opacity="0.04705882" /></g></g><g clip-path="url(#84)"><g><path transform="matrix(1 0 0 -1 0 1552)" d="M0 -17421L1176 219290L1176 219290L1176 77220L1176 77220L0 -159492" stroke="none" fill="url(#41225)" /><path transform="matrix(1 0 0 -1 0 1552)" d="M0 -17539.41L1176 219171.8L1176 219171.8L1176 1552L1176 1552L0 1552" stroke="none" fill="#560099" fill-rule="evenodd" fill-opacity="0.04705882" /><path transform="matrix(1 0 0 -1 0 1552)" d="M0 -159373.2L1176 77338.05L1176 77338.05L1176 0L1176 0L0 0" stroke="none" fill="#FF0A35" fill-rule="evenodd" fill-opacity="0.04705882" /></g></g><g clip-path="url(#85)"><g><path transform="matrix(1 0 0 -1 0 1552)" d="M0 -15136L1176 221575L1176 221575L1176 79505L1176 79505L0 -157206" stroke="none" fill="url(#41712)" /><path transform="matrix(1 0 0 -1 0 1552)" d="M0 -15254.3L1176 221456.9L1176 221456.9L1176 1552L1176 1552L0 1552" stroke="none" fill="#560099" fill-rule="evenodd" fill-opacity="0.04705882" /><path transform="matrix(1 0 0 -1 0 1552)" d="M0 -157088.1L1176 79623.16L1176 79623.16L1176 0L1176 0L0 0" stroke="none" fill="#FF0A35" fill-rule="evenodd" fill-opacity="0.04705882" /></g></g><g clip-path="url(#86)"><g><path transform="matrix(1 0 0 -1 0 1552)" d="M0 -12851L1176 223861L1176 223861L1176 81790L1176 81790L0 -154921" stroke="none" fill="url(#42198)" /><path transform="matrix(1 0 0 -1 0 1552)" d="M0 -12969L1176 223742.2L1176 223742.2L1176 1552L1176 1552L0 1552" stroke="none" fill="#560099" fill-rule="evenodd" fill-opacity="0.04705882" /><path transform="matrix(1 0 0 -1 0 1552)" d="M0 -154802.8L1176 81908.46L1176 81908.46L1176 0L1176 0L0 0" stroke="none" fill="#FF0A35" fill-rule="evenodd" fill-opacity="0.04705882" /></g></g></g></g></g><g clip-path="url(#87)"><g><g clip-path="url(#88)"><path transform="matrix(1 0 0 -1 0 1552)" d="M1051.08 303.374L613.187 303.374L613.187 303.374L613.187 601.693L613.187 601.693L1051.08 601.693z" stroke="#000000" stroke-width="2" fill="none" stroke-opacity="0.4980392" /></g></g></g><g clip-path="url(#89)"><g transform="matrix(0.7639199 0 0 -0.7639199 621.8673 1239.292)"><g transform="matrix(1 0 0 -1 0 367)"><image x="0" y="0" xlink:href="img_16.png" width="550" height="367" /></g></g></g></g></g></g><defs><clipPath id="1"><path d="M0 1552L0 -0.3900146L0 -0.3900146L1176.34 -0.3900146L1176.34 -0.3900146L1176.34 1552L1176.34 1552L0 1552z" /></clipPath><clipPath id="2"><path d="M0.23 137.672L1058.029 137.672L1058.029 137.672L1058.029 62.99402L1058.029 62.99402L0.23 62.99402z" /></clipPath><clipPath id="3"><path d="M-483.003 -253.17L1502.37 -253.17L1502.37 -253.17L1502.37 901.714L1502.37 901.714L-483.003 901.714z" /></clipPath><clipPath id="4"><path d="M2.062 901.714L1427.883 898.661L1427.883 898.661L1502.37 -253.174L1502.37 -253.174L-483.003 -248.905z" /></clipPath><linearGradient transform="matrix(1 0 0 1 0 0)" id="840" x1="-199.4315" y1="2042.75" x2="-199.43152042.75" y2="-199.43151486.015"><stop stop-color="#4C216D" offset="0%" /><stop stop-color="#B83F54" offset="100%" /></linearGradient><clipPath id="5"><path d="M-259.199 -760.3101L1433.37 -760.3101L1433.37 -760.3101L1433.37 445.1L1433.37 445.1L-259.199 445.1z" /></clipPath><clipPath id="6"><path d="M510.612 28.20605L509.873 27.43103L509.873 27.43103L-56.646 -531.1699L-56.646 -531.1699L-55.136 -532.7L-55.136 -532.7L510.642 25.11597L510.642 25.11597L1233.341 -711.7629L1233.341 -711.7629L1234.821 -710.2029z" /></clipPath><linearGradient transform="matrix(1 0 0 1 0 0)" id="1660" x1="-28.47308" y1="2512.224" x2="-28.473082512.224" y2="-28.47308959.3137"><stop stop-color="#FFD800" offset="0%" /><stop stop-color="#FF387D" offset="100%" /></linearGradient><clipPath id="7"><path d="M510.304 60.27295L509.565 59.48999L509.565 59.48999L-72.226 -515.2839L-72.226 -515.2839L-70.716 -516.8149L-70.716 -516.8149L510.334 57.18201L510.334 57.18201L1248.613 -695.582L1248.613 -695.582L1250.093 -694.021z" /></clipPath><linearGradient transform="matrix(1 0 0 1 0 0)" id="2266" x1="-20.02753" y1="2503.689" x2="-20.027532503.689" y2="-20.02753958.6768"><stop stop-color="#FFD800" offset="0%" /><stop stop-color="#FF387D" offset="100%" /></linearGradient><clipPath id="8"><path d="M509.997 92.349L509.257 91.56396L509.257 91.56396L-87.814 -499.3889L-87.814 -499.3889L-86.304 -500.9221L-86.304 -500.9221L510.026 89.25806L510.026 89.25806L1263.892 -679.3911L1263.892 -679.3911L1265.372 -677.832z" /></clipPath><linearGradient transform="matrix(1 0 0 1 0 0)" id="2872" x1="-11.60455" y1="2495.151" x2="-11.604552495.151" y2="-11.60455958.0642"><stop stop-color="#FFD800" offset="0%" /><stop stop-color="#FF387D" offset="100%" /></linearGradient><clipPath id="9"><path d="M509.688 124.415L508.949 123.631L508.949 123.631L-103.394 -483.5129L-103.394 -483.5129L-101.883 -485.045L-101.883 -485.045L509.718 121.324L509.718 121.324L1279.164 -663.218L1279.164 -663.218L1280.644 -661.6589z" /></clipPath><linearGradient transform="matrix(1 0 0 1 0 0)" id="3476" x1="-3.208984" y1="2486.619" x2="-3.2089842486.619" y2="-3.208984957.4756"><stop stop-color="#FFD800" offset="0%" /><stop stop-color="#FF387D" offset="100%" /></linearGradient><clipPath id="10"><path d="M509.381 156.473L508.641 155.698L508.641 155.698L-118.973 -467.629L-118.973 -467.629L-117.463 -469.1591L-117.463 -469.1591L509.41 153.382L509.41 153.382L1294.436 -647.0359L1294.436 -647.0359L1295.916 -645.4771z" /></clipPath><linearGradient transform="matrix(1 0 0 1 0 0)" id="4081" x1="5.164185" y1="2478.085" x2="5.1641852478.085" y2="5.164185956.9064"><stop stop-color="#FFD800" offset="0%" /><stop stop-color="#FF387D" offset="100%" /></linearGradient><clipPath id="11"><path d="M509.072 188.549L508.333 187.7729L508.333 187.7729L-134.553 -451.735L-134.553 -451.735L-133.043 -453.265L-133.043 -453.265L509.102 185.458L509.102 185.458L1309.708 -630.8459L1309.708 -630.8459L1311.187 -629.2871z" /></clipPath><linearGradient transform="matrix(1 0 0 1 0 0)" id="4685" x1="13.52069" y1="2469.54" x2="13.520692469.54" y2="13.52069956.3563"><stop stop-color="#FFD800" offset="0%" /><stop stop-color="#FF387D" offset="100%" /></linearGradient><clipPath id="12"><path d="M508.764 220.623L508.025 219.848L508.025 219.848L-150.133 -435.849L-150.133 -435.849L-148.623 -437.381L-148.623 -437.381L508.794 217.533L508.794 217.533L1324.979 -614.665L1324.979 -614.665L1326.46 -613.105z" /></clipPath><linearGradient transform="matrix(1 0 0 1 0 0)" id="5281" x1="21.8537" y1="2461.005" x2="21.85372461.005" y2="21.8537955.8331"><stop stop-color="#FFD800" offset="0%" /><stop stop-color="#FF387D" offset="100%" /></linearGradient><clipPath id="13"><path d="M508.457 252.682L507.717 251.899L507.717 251.899L-165.712 -419.964L-165.712 -419.964L-164.203 -421.495L-164.203 -421.495L508.486 249.5909L508.486 249.5909L1340.251 -598.4829L1340.251 -598.4829L1341.731 -596.9241z" /></clipPath><linearGradient transform="matrix(1 0 0 1 0 0)" id="5882" x1="30.15662" y1="2452.466" x2="30.156622452.466" y2="30.15662955.328"><stop stop-color="#FFD800" offset="0%" /><stop stop-color="#FF387D" offset="100%" /></linearGradient><clipPath id="14"><path d="M508.148 284.757L507.417 283.973L507.417 283.973L-181.292 -404.079L-181.292 -404.079L-179.783 -405.61L-179.783 -405.61L508.178 281.667L508.178 281.667L1355.522 -582.302L1355.522 -582.302L1357.003 -580.7429z" /></clipPath><linearGradient transform="matrix(1 0 0 1 0 0)" id="6479" x1="38.44757" y1="2443.929" x2="38.447572443.929" y2="38.44757954.8461"><stop stop-color="#FFD800" offset="0%" /><stop stop-color="#FF387D" offset="100%" /></linearGradient><clipPath id="15"><path d="M507.841 316.832L507.108 316.049L507.108 316.049L-196.88 -388.194L-196.88 -388.194L-195.37 -389.724L-195.37 -389.724L507.87 313.7419L507.87 313.7419L1370.802 -566.1201L1370.802 -566.1201L1372.283 -564.561z" /></clipPath><linearGradient transform="matrix(1 0 0 1 0 0)" id="7076" x1="46.72363" y1="2435.389" x2="46.723632435.389" y2="46.72363954.3707"><stop stop-color="#FFD800" offset="0%" /><stop stop-color="#FF387D" offset="100%" /></linearGradient><clipPath id="16"><path d="M507.533 348.891L506.793 348.115L506.793 348.115L-212.459 -372.308L-212.459 -372.308L-210.951 -373.84L-210.951 -373.84L507.562 345.8L507.562 345.8L1386.075 -549.938L1386.075 -549.938L1387.554 -548.3799z" /></clipPath><linearGradient transform="matrix(1 0 0 1 0 0)" id="7670" x1="54.97504" y1="2426.852" x2="54.975042426.852" y2="54.97504953.9189"><stop stop-color="#FFD800" offset="0%" /><stop stop-color="#FF387D" offset="100%" /></linearGradient><clipPath id="17"><path d="M507.224 380.957L506.485 380.182L506.485 380.182L-228.039 -356.424L-228.039 -356.424L-226.53 -357.954L-226.53 -357.954L507.255 377.8669L507.255 377.8669L1401.345 -533.7581L1401.345 -533.7581L1402.826 -532.198z" /></clipPath><linearGradient transform="matrix(1 0 0 1 0 0)" id="8271" x1="63.20776" y1="2418.313" x2="63.207762418.313" y2="63.20776953.4873"><stop stop-color="#FFD800" offset="0%" /><stop stop-color="#FF387D" offset="100%" /></linearGradient><clipPath id="18"><path d="M506.917 413.032L506.177 412.257L506.177 412.257L-243.619 -340.5291L-243.619 -340.5291L-242.11 -342.0601L-242.11 -342.0601L506.946 409.943L506.946 409.943L1416.618 -517.5669L1416.618 -517.5669L1418.098 -516.0081z" /></clipPath><linearGradient transform="matrix(1 0 0 1 0 0)" id="8875" x1="71.4306" y1="2409.772" x2="71.43062409.772" y2="71.4306953.0706"><stop stop-color="#FFD800" offset="0%" /><stop stop-color="#FF387D" offset="100%" /></linearGradient><clipPath id="19"><path d="M506.608 445.1L505.869 444.316L505.869 444.316L-259.2 -324.644L-259.2 -324.644L-257.698 -326.176L-257.698 -326.176L506.638 442.009L506.638 442.009L1431.898 -501.385L1431.898 -501.385L1433.37 -499.8269z" /></clipPath><linearGradient transform="matrix(1 0 0 1 0 0)" id="9465" x1="79.62946" y1="2401.239" x2="79.629462401.239" y2="79.62946952.6741"><stop stop-color="#FFD800" offset="0%" /><stop stop-color="#FF387D" offset="100%" /></linearGradient><clipPath id="20"><path d="M0 -0.3869629L1176.341 -0.3869629L1176.341 -0.3869629L1176.341 1552L1176.341 1552L0 1552z" /></clipPath><clipPath id="21"><path d="M1019.3 1459.436L1176.49 1459.436L1176.49 1459.436L1176.49 1501.436L1176.49 1501.436L1019.3 1501.436z" /></clipPath><clipPath id="22"><path d="M1176.492 1501.436L1019.302 1501.436L1019.302 1501.436L1019.302 1459.436L1019.302 1459.436L1176.492 1459.436z" /></clipPath><linearGradient transform="matrix(1 0 0 1 0 0)" id="10376" x1="1019.302" y1="150.1597" x2="1019.302150.1597" y2="1019.302157.1904"><stop stop-color="#4C216D" offset="0%" /><stop stop-color="#B83F54" offset="100%" /></linearGradient><clipPath id="23"><path d="M823.607 1470.587L1003.04 1470.587L1003.04 1470.587L1003.04 1492.981L1003.04 1492.981L823.607 1492.981z" /></clipPath><clipPath id="24"><path d="M752.653 1496.313L802.294 1496.313L802.294 1496.313L802.294 1466.534L802.294 1466.534L752.653 1466.534z" /></clipPath><clipPath id="25"><path d="M0 -0.3869629L1176.341 -0.3869629L1176.341 -0.3869629L1176.341 1552L1176.341 1552L0 1552z" /></clipPath><clipPath id="26"><path d="M-183.103 1575.223L-1408.285 1575.223L-1408.285 1575.223L-1408.285 -34.58899L-1408.285 -34.58899L-183.103 -34.58899z" /></clipPath><clipPath id="27"><path d="M128.208 592.254L-331.526 1918.434L-331.526 1918.434L-1585.574 1550.51L-1585.574 1550.51L-1962.485 299.905L-1962.485 299.905L-703.079 -710.0249L-703.079 -710.0249L5.432 232.162z" /></clipPath><clipPath id="28"><path d="M-1967.98 295.6801L331.55 295.6801L331.55 295.6801L331.55 1633.31L331.55 1633.31L-1967.98 1633.31z" /></clipPath><clipPath id="29"><path d="M-1406.162 1633.31L245.276 1629.774L245.276 1629.774L331.55 295.677L331.55 295.677L-1967.982 300.62z" /></clipPath><linearGradient transform="matrix(1 0 0 1 0 0)" id="12275" x1="-1639.539" y1="1531.493" x2="-1639.5391531.493" y2="-1639.5391721.157"><stop stop-color="#4C216D" offset="0%" /><stop stop-color="#B83F54" offset="100%" /></linearGradient><clipPath id="30"><path d="M-1708.76 -291.7L251.632 -291.7L251.632 -291.7L251.632 1104.442L251.632 1104.442L-1708.76 1104.442z" /></clipPath><clipPath id="31"><path d="M-816.784 584.44L-817.64 583.541L-817.64 583.541L-1456.115 -44.70801L-1456.115 -44.70801L-1454.366 -46.47998L-1454.366 -46.47998L-816.749 580.861L-816.749 580.861L2.262 -254.22L2.262 -254.22L3.976 -252.4139z" /></clipPath><linearGradient transform="matrix(1 0 0 1 0 0)" id="13147" x1="-1451.354" y1="2085.139" x2="-1451.3542085.139" y2="-1451.3541111.89"><stop stop-color="#FFD800" offset="0%" /><stop stop-color="#FF387D" offset="100%" /></linearGradient><clipPath id="32"><path d="M-817.14 621.581L-817.996 620.683L-817.996 620.683L-1474.159 -26.30798L-1474.159 -26.30798L-1472.411 -28.08105L-1472.411 -28.08105L-817.106 618.001L-817.106 618.001L19.951 -235.479L19.951 -235.479L21.665 -233.672z" /></clipPath><linearGradient transform="matrix(1 0 0 1 0 0)" id="13779" x1="-1441.529" y1="2075.255" x2="-1441.5292075.255" y2="-1441.5291111.112"><stop stop-color="#FFD800" offset="0%" /><stop stop-color="#FF387D" offset="100%" /></linearGradient><clipPath id="33"><path d="M-817.497 658.721L-818.353 657.814L-818.353 657.814L-1492.205 -7.910034L-1492.205 -7.910034L-1490.456 -9.682983L-1490.456 -9.682983L-817.462 655.142L-817.462 655.142L37.639 -216.7371L37.639 -216.7371L39.353 -214.929z" /></clipPath><linearGradient transform="matrix(1 0 0 1 0 0)" id="14415" x1="-1431.747" y1="2065.37" x2="-1431.7472065.37" y2="-1431.7471110.375"><stop stop-color="#FFD800" offset="0%" /><stop stop-color="#FF387D" offset="100%" /></linearGradient><clipPath id="34"><path d="M-817.854 695.872L-818.71 694.964L-818.71 694.964L-1510.26 10.49902L-1510.26 10.49902L-1508.51 8.725952L-1508.51 8.725952L-817.819 692.293L-817.819 692.293L55.337 -197.984L55.337 -197.984L57.05 -196.178z" /></clipPath><linearGradient transform="matrix(1 0 0 1 0 0)" id="15036" x1="-1421.991" y1="2055.481" x2="-1421.9912055.481" y2="-1421.9911109.665"><stop stop-color="#FFD800" offset="0%" /><stop stop-color="#FF387D" offset="100%" /></linearGradient><clipPath id="35"><path d="M-818.21 733.014L-819.067 732.106L-819.067 732.106L-1528.305 28.88794L-1528.305 28.88794L-1526.555 27.11499L-1526.555 27.11499L-818.176 729.434L-818.176 729.434L73.025 -179.2531L73.025 -179.2531L74.739 -177.446z" /></clipPath><linearGradient transform="matrix(1 0 0 1 0 0)" id="15667" x1="-1412.267" y1="2045.599" x2="-1412.2672045.599" y2="-1412.2671108.984"><stop stop-color="#FFD800" offset="0%" /><stop stop-color="#FF387D" offset="100%" /></linearGradient><clipPath id="36"><path d="M-818.567 770.144L-819.424 769.246L-819.424 769.246L-1546.349 47.28601L-1546.349 47.28601L-1544.6 45.51404L-1544.6 45.51404L-818.533 766.565L-818.533 766.565L90.714 -160.51L90.714 -160.51L92.427 -158.704z" /></clipPath><linearGradient transform="matrix(1 0 0 1 0 0)" id="16291" x1="-1402.569" y1="2035.715" x2="-1402.5692035.715" y2="-1402.5691108.324"><stop stop-color="#FFD800" offset="0%" /><stop stop-color="#FF387D" offset="100%" /></linearGradient><clipPath id="37"><path d="M-818.924 807.295L-819.78 806.397L-819.78 806.397L-1564.394 65.69604L-1564.394 65.69604L-1562.646 63.92297L-1562.646 63.92297L-818.889 803.716L-818.889 803.716L108.402 -141.759L108.402 -141.759L110.116 -139.952z" /></clipPath><linearGradient transform="matrix(1 0 0 1 0 0)" id="16922" x1="-1392.89" y1="2025.818" x2="-1392.892025.818" y2="-1392.891107.687"><stop stop-color="#FFD800" offset="0%" /><stop stop-color="#FF387D" offset="100%" /></linearGradient><clipPath id="38"><path d="M-819.281 844.446L-820.137 843.547L-820.137 843.547L-1582.439 84.09497L-1582.439 84.09497L-1580.691 82.32104L-1580.691 82.32104L-819.246 840.866L-819.246 840.866L126.091 -123.016L126.091 -123.016L127.804 -121.21z" /></clipPath><linearGradient transform="matrix(1 0 0 1 0 0)" id="17551" x1="-1383.239" y1="2015.932" x2="-1383.2392015.932" y2="-1383.2391107.081"><stop stop-color="#FFD800" offset="0%" /><stop stop-color="#FF387D" offset="100%" /></linearGradient><clipPath id="39"><path d="M-819.637 881.576L-820.493 880.669L-820.493 880.669L-1600.485 102.493L-1600.485 102.493L-1598.736 100.72L-1598.736 100.72L-819.603 877.997L-819.603 877.997L143.778 -104.274L143.778 -104.274L145.493 -102.468z" /></clipPath><linearGradient transform="matrix(1 0 0 1 0 0)" id="18178" x1="-1373.622" y1="2006.041" x2="-1373.6222006.041" y2="-1373.6221106.496"><stop stop-color="#FFD800" offset="0%" /><stop stop-color="#FF387D" offset="100%" /></linearGradient><clipPath id="40"><path d="M-819.994 918.728L-820.842 917.82L-820.842 917.82L-1618.53 120.8929L-1618.53 120.8929L-1616.781 119.119L-1616.781 119.119L-819.959 915.149L-819.959 915.149L161.466 -85.53198L161.466 -85.53198L163.181 -83.72595z" /></clipPath><linearGradient transform="matrix(1 0 0 1 0 0)" id="18808" x1="-1364.019" y1="1996.154" x2="-1364.0191996.154" y2="-1364.0191105.938"><stop stop-color="#FFD800" offset="0%" /><stop stop-color="#FF387D" offset="100%" /></linearGradient><clipPath id="41"><path d="M-820.351 955.878L-821.199 954.971L-821.199 954.971L-1636.584 139.29L-1636.584 139.29L-1634.835 137.5179L-1634.835 137.5179L-820.316 952.299L-820.316 952.299L179.164 -66.79004L179.164 -66.79004L180.879 -64.98401z" /></clipPath><linearGradient transform="matrix(1 0 0 1 0 0)" id="19440" x1="-1354.433" y1="1986.262" x2="-1354.4331986.262" y2="-1354.4331105.387"><stop stop-color="#FFD800" offset="0%" /><stop stop-color="#FF387D" offset="100%" /></linearGradient><clipPath id="42"><path d="M-820.707 993.009L-821.564 992.111L-821.564 992.111L-1654.629 157.6899L-1654.629 157.6899L-1652.88 155.917L-1652.88 155.917L-820.673 989.43L-820.673 989.43L196.852 -48.04797L196.852 -48.04797L198.567 -46.24194z" /></clipPath><linearGradient transform="matrix(1 0 0 1 0 0)" id="20070" x1="-1344.876" y1="1976.375" x2="-1344.8761976.375" y2="-1344.8761104.864"><stop stop-color="#FFD800" offset="0%" /><stop stop-color="#FF387D" offset="100%" /></linearGradient><clipPath id="43"><path d="M-821.064 1030.151L-821.921 1029.252L-821.921 1029.252L-1672.674 176.088L-1672.674 176.088L-1670.926 174.316L-1670.926 174.316L-821.03 1026.572L-821.03 1026.572L214.54 -29.30603L214.54 -29.30603L216.256 -27.5z" /></clipPath><linearGradient transform="matrix(1 0 0 1 0 0)" id="20699" x1="-1335.341" y1="1966.485" x2="-1335.3411966.485" y2="-1335.3411104.364"><stop stop-color="#FFD800" offset="0%" /><stop stop-color="#FF387D" offset="100%" /></linearGradient><clipPath id="44"><path d="M-821.421 1067.301L-822.277 1066.403L-822.277 1066.403L-1690.719 194.4969L-1690.719 194.4969L-1688.971 192.724L-1688.971 192.724L-821.387 1063.722L-821.387 1063.722L232.228 -10.55396L232.228 -10.55396L233.943 -8.748047z" /></clipPath><linearGradient transform="matrix(1 0 0 1 0 0)" id="21338" x1="-1325.817" y1="1956.592" x2="-1325.8171956.592" y2="-1325.8171103.881"><stop stop-color="#FFD800" offset="0%" /><stop stop-color="#FF387D" offset="100%" /></linearGradient><clipPath id="45"><path d="M-821.778 1104.443L-822.634 1103.533L-822.634 1103.533L-1708.764 212.897L-1708.764 212.897L-1707.025 211.123L-1707.025 211.123L-821.743 1100.863L-821.743 1100.863L249.926 8.187988L249.926 8.187988L251.632 9.993042z" /></clipPath><linearGradient transform="matrix(1 0 0 1 0 0)" id="21972" x1="-1316.32" y1="1946.708" x2="-1316.321946.708" y2="-1316.321103.422"><stop stop-color="#FFD800" offset="0%" /><stop stop-color="#FF387D" offset="100%" /></linearGradient><clipPath id="46"><path d="M540.02 158.1899L1057.9 158.1899L1057.9 158.1899L1057.9 486.4399L1057.9 486.4399L540.02 486.4399z" /></clipPath><clipPath id="47"><path d="M549.178 476.037L1047.694 476.037L1047.694 476.037L1047.694 167.088L1047.694 167.088L549.178 167.088z" /></clipPath><clipPath id="48"><path d="M0.23 935.576L1058.029 935.576L1058.029 935.576L1058.029 835.828L1058.029 835.828L0.23 835.828z" /></clipPath><clipPath id="49"><path d="M-483.003 512.87L1502.37 512.87L1502.37 512.87L1502.37 1667.761L1502.37 1667.761L-483.003 1667.761z" /></clipPath><clipPath id="50"><path d="M2.062 1667.761L1427.883 1664.708L1427.883 1664.708L1502.37 512.873L1502.37 512.873L-483.003 517.142z" /></clipPath><linearGradient transform="matrix(1 0 0 1 0 0)" id="23298" x1="-199.4315" y1="1276.703" x2="-199.43151276.703" y2="-199.43151486.015"><stop stop-color="#4C216D" offset="0%" /><stop stop-color="#B83F54" offset="100%" /></linearGradient><clipPath id="51"><path d="M-259.199 5.73999L1433.37 5.73999L1433.37 5.73999L1433.37 1211.146L1433.37 1211.146L-259.199 1211.146z" /></clipPath><clipPath id="52"><path d="M511.536 698.053L510.797 697.269L510.797 697.269L-9.908 187.222L-9.908 187.222L-8.397 185.691L-8.397 185.691L511.566 694.962L511.566 694.962L1187.525 5.73999L1187.525 5.73999L1189.005 7.29895z" /></clipPath><linearGradient transform="matrix(1 0 0 1 0 0)" id="24110" x1="-54.01117" y1="1771.776" x2="-54.011171771.776" y2="-54.01117961.4152"><stop stop-color="#FFD800" offset="0%" /><stop stop-color="#FF387D" offset="100%" /></linearGradient><clipPath id="53"><path d="M511.228 730.112L510.489 729.336L510.489 729.336L-25.487 203.1071L-25.487 203.1071L-23.977 201.576L-23.977 201.576L511.258 727.02L511.258 727.02L1202.797 21.92102L1202.797 21.92102L1204.277 23.48096z" /></clipPath><linearGradient transform="matrix(1 0 0 1 0 0)" id="24705" x1="-45.46924" y1="1763.246" x2="-45.469241763.246" y2="-45.46924960.6844"><stop stop-color="#FFD800" offset="0%" /><stop stop-color="#FF387D" offset="100%" /></linearGradient><clipPath id="54"><path d="M510.921 762.186L510.18 761.41L510.18 761.41L-41.067 218.9919L-41.067 218.9919L-39.557 217.462L-39.557 217.462L510.95 759.096L510.95 759.096L1218.069 38.10303L1218.069 38.10303L1219.549 39.66199z" /></clipPath><linearGradient transform="matrix(1 0 0 1 0 0)" id="25296" x1="-36.95581" y1="1754.71" x2="-36.955811754.71" y2="-36.95581959.985"><stop stop-color="#FFD800" offset="0%" /><stop stop-color="#FF387D" offset="100%" /></linearGradient><clipPath id="55"><path d="M510.612 794.253L509.873 793.478L509.873 793.478L-56.646 234.877L-56.646 234.877L-55.136 233.347L-55.136 233.347L510.642 791.163L510.642 791.163L1233.341 54.28296L1233.341 54.28296L1234.821 55.84399z" /></clipPath><linearGradient transform="matrix(1 0 0 1 0 0)" id="25888" x1="-28.47308" y1="1746.177" x2="-28.473081746.177" y2="-28.47308959.3137"><stop stop-color="#FFD800" offset="0%" /><stop stop-color="#FF387D" offset="100%" /></linearGradient><clipPath id="56"><path d="M510.304 826.32L509.565 825.536L509.565 825.536L-72.226 250.7629L-72.226 250.7629L-70.716 249.2321L-70.716 249.2321L510.334 823.229L510.334 823.229L1248.613 70.46497L1248.613 70.46497L1250.093 72.026z" /></clipPath><linearGradient transform="matrix(1 0 0 1 0 0)" id="26484" x1="-20.02753" y1="1737.642" x2="-20.027531737.642" y2="-20.02753958.6768"><stop stop-color="#FFD800" offset="0%" /><stop stop-color="#FF387D" offset="100%" /></linearGradient><clipPath id="57"><path d="M509.997 858.395L509.257 857.611L509.257 857.611L-87.814 266.656L-87.814 266.656L-86.304 265.125L-86.304 265.125L510.026 855.305L510.026 855.305L1263.892 86.65601L1263.892 86.65601L1265.372 88.21497z" /></clipPath><linearGradient transform="matrix(1 0 0 1 0 0)" id="27079" x1="-11.60455" y1="1729.104" x2="-11.604551729.104" y2="-11.60455958.0641"><stop stop-color="#FFD800" offset="0%" /><stop stop-color="#FF387D" offset="100%" /></linearGradient><clipPath id="58"><path d="M509.688 890.462L508.949 889.678L508.949 889.678L-103.394 282.533L-103.394 282.533L-101.883 281.002L-101.883 281.002L509.718 887.371L509.718 887.371L1279.164 102.828L1279.164 102.828L1280.644 104.3879z" /></clipPath><linearGradient transform="matrix(1 0 0 1 0 0)" id="27676" x1="-3.208984" y1="1720.572" x2="-3.2089841720.572" y2="-3.208984957.4756"><stop stop-color="#FFD800" offset="0%" /><stop stop-color="#FF387D" offset="100%" /></linearGradient><clipPath id="59"><path d="M509.381 922.52L508.641 921.745L508.641 921.745L-118.973 298.418L-118.973 298.418L-117.463 296.8879L-117.463 296.8879L509.41 919.429L509.41 919.429L1294.436 119.01L1294.436 119.01L1295.916 120.5699z" /></clipPath><linearGradient transform="matrix(1 0 0 1 0 0)" id="28270" x1="5.164185" y1="1712.038" x2="5.1641851712.038" y2="5.164185956.9063"><stop stop-color="#FFD800" offset="0%" /><stop stop-color="#FF387D" offset="100%" /></linearGradient><clipPath id="60"><path d="M509.072 954.595L508.333 953.82L508.333 953.82L-134.553 314.312L-134.553 314.312L-133.043 312.781L-133.043 312.781L509.102 951.505L509.102 951.505L1309.708 135.2L1309.708 135.2L1311.187 136.76z" /></clipPath><linearGradient transform="matrix(1 0 0 1 0 0)" id="28856" x1="13.52069" y1="1703.494" x2="13.520691703.494" y2="13.52069956.3563"><stop stop-color="#FFD800" offset="0%" /><stop stop-color="#FF387D" offset="100%" /></linearGradient><clipPath id="61"><path d="M508.764 986.67L508.025 985.895L508.025 985.895L-150.133 330.198L-150.133 330.198L-148.623 328.666L-148.623 328.666L508.794 983.58L508.794 983.58L1324.979 151.382L1324.979 151.382L1326.46 152.942z" /></clipPath><linearGradient transform="matrix(1 0 0 1 0 0)" id="29445" x1="21.8537" y1="1694.958" x2="21.85371694.958" y2="21.8537955.8331"><stop stop-color="#FFD800" offset="0%" /><stop stop-color="#FF387D" offset="100%" /></linearGradient><clipPath id="62"><path d="M508.457 1018.729L507.717 1017.946L507.717 1017.946L-165.712 346.083L-165.712 346.083L-164.203 344.552L-164.203 344.552L508.486 1015.638L508.486 1015.638L1340.251 167.564L1340.251 167.564L1341.731 169.123z" /></clipPath><linearGradient transform="matrix(1 0 0 1 0 0)" id="30040" x1="30.15662" y1="1686.419" x2="30.156621686.419" y2="30.15662955.3279"><stop stop-color="#FFD800" offset="0%" /><stop stop-color="#FF387D" offset="100%" /></linearGradient><clipPath id="63"><path d="M508.148 1050.804L507.417 1050.02L507.417 1050.02L-181.292 361.968L-181.292 361.968L-179.783 360.437L-179.783 360.437L508.178 1047.714L508.178 1047.714L1355.522 183.745L1355.522 183.745L1357.003 185.304z" /></clipPath><linearGradient transform="matrix(1 0 0 1 0 0)" id="30636" x1="38.44757" y1="1677.882" x2="38.447571677.882" y2="38.44757954.8461"><stop stop-color="#FFD800" offset="0%" /><stop stop-color="#FF387D" offset="100%" /></linearGradient><clipPath id="64"><path d="M507.841 1082.879L507.108 1082.096L507.108 1082.096L-196.88 377.853L-196.88 377.853L-195.37 376.323L-195.37 376.323L507.87 1079.788L507.87 1079.788L1370.802 199.927L1370.802 199.927L1372.283 201.486z" /></clipPath><linearGradient transform="matrix(1 0 0 1 0 0)" id="31228" x1="46.72363" y1="1669.342" x2="46.723631669.342" y2="46.72363954.3707"><stop stop-color="#FFD800" offset="0%" /><stop stop-color="#FF387D" offset="100%" /></linearGradient><clipPath id="65"><path d="M507.533 1114.938L506.793 1114.162L506.793 1114.162L-212.459 393.738L-212.459 393.738L-210.951 392.207L-210.951 392.207L507.562 1111.847L507.562 1111.847L1386.075 216.109L1386.075 216.109L1387.554 217.667z" /></clipPath><linearGradient transform="matrix(1 0 0 1 0 0)" id="31826" x1="54.97504" y1="1660.806" x2="54.975041660.806" y2="54.97504953.9189"><stop stop-color="#FFD800" offset="0%" /><stop stop-color="#FF387D" offset="100%" /></linearGradient><clipPath id="66"><path d="M507.224 1147.004L506.485 1146.229L506.485 1146.229L-228.039 409.623L-228.039 409.623L-226.53 408.093L-226.53 408.093L507.255 1143.914L507.255 1143.914L1401.345 232.2889L1401.345 232.2889L1402.826 233.849z" /></clipPath><linearGradient transform="matrix(1 0 0 1 0 0)" id="32424" x1="63.20776" y1="1652.267" x2="63.207761652.267" y2="63.20776953.4873"><stop stop-color="#FFD800" offset="0%" /><stop stop-color="#FF387D" offset="100%" /></linearGradient><clipPath id="67"><path d="M506.917 1179.079L506.177 1178.304L506.177 1178.304L-243.619 425.5179L-243.619 425.5179L-242.11 423.9871L-242.11 423.9871L506.946 1175.989L506.946 1175.989L1416.618 248.48L1416.618 248.48L1418.098 250.0389z" /></clipPath><linearGradient transform="matrix(1 0 0 1 0 0)" id="33023" x1="71.4306" y1="1643.725" x2="71.43061643.725" y2="71.4306953.0705"><stop stop-color="#FFD800" offset="0%" /><stop stop-color="#FF387D" offset="100%" /></linearGradient><clipPath id="68"><path d="M506.608 1211.147L505.869 1210.363L505.869 1210.363L-259.2 441.403L-259.2 441.403L-257.698 439.871L-257.698 439.871L506.638 1208.056L506.638 1208.056L1431.898 264.661L1431.898 264.661L1433.37 266.22z" /></clipPath><linearGradient transform="matrix(1 0 0 1 0 0)" id="33612" x1="79.62946" y1="1635.192" x2="79.629461635.192" y2="79.62946952.674"><stop stop-color="#FFD800" offset="0%" /><stop stop-color="#FF387D" offset="100%" /></linearGradient><clipPath id="69"><path d="M73.0686 -495.27L957.815 -495.27L957.815 -495.27L957.815 433.0699L957.815 433.0699L73.0686 433.0699z" /></clipPath><clipPath id="70"><path d="M956.157 244.478L255.656 -493.562L255.656 -493.562L257.314 -495.266L257.314 -495.266L957.815 242.7729z" /></clipPath><linearGradient transform="matrix(1 0 0 1 0 0)" id="34328" x1="253.8355" y1="1679.148" x2="253.83551679.148" y2="253.83553.50647"><stop stop-color="#560099" offset="0%" /><stop stop-color="#FF0A35" offset="100%" /></linearGradient><clipPath id="71"><path d="M944.745 256.2629L244.245 -481.775L244.245 -481.775L245.903 -483.479L245.903 -483.479L946.404 254.5601z" /></clipPath><linearGradient transform="matrix(1 0 0 1 0 0)" id="34823" x1="242.4243" y1="1667.361" x2="242.42431667.361" y2="242.42433.50647"><stop stop-color="#560099" offset="0%" /><stop stop-color="#FF0A35" offset="100%" /></linearGradient><clipPath id="72"><path d="M933.334 268.05L232.833 -469.989L232.833 -469.989L234.491 -471.692L234.491 -471.692L934.992 266.3459z" /></clipPath><linearGradient transform="matrix(1 0 0 1 0 0)" id="35316" x1="231.0122" y1="1655.574" x2="231.01221655.574" y2="231.01223.50647"><stop stop-color="#560099" offset="0%" /><stop stop-color="#FF0A35" offset="100%" /></linearGradient><clipPath id="73"><path d="M921.922 279.837L221.421 -458.202L221.421 -458.202L223.08 -459.907L223.08 -459.907L923.581 278.1331z" /></clipPath><linearGradient transform="matrix(1 0 0 1 0 0)" id="35808" x1="219.6001" y1="1643.788" x2="219.60011643.788" y2="219.60013.506592"><stop stop-color="#560099" offset="0%" /><stop stop-color="#FF0A35" offset="100%" /></linearGradient><clipPath id="74"><path d="M910.51 291.623L210.009 -446.417L210.009 -446.417L211.668 -448.12L211.668 -448.12L912.169 289.9189z" /></clipPath><linearGradient transform="matrix(1 0 0 1 0 0)" id="36300" x1="208.1889" y1="1632.002" x2="208.18891632.002" y2="208.18893.50647"><stop stop-color="#560099" offset="0%" /><stop stop-color="#FF0A35" offset="100%" /></linearGradient><clipPath id="75"><path d="M899.098 303.4091L198.597 -434.62L198.597 -434.62L200.257 -436.324L200.257 -436.324L900.757 301.705z" /></clipPath><linearGradient transform="matrix(1 0 0 1 0 0)" id="36792" x1="196.7768" y1="1620.21" x2="196.77681620.21" y2="196.77683.50647"><stop stop-color="#560099" offset="0%" /><stop stop-color="#FF0A35" offset="100%" /></linearGradient><clipPath id="76"><path d="M887.686 315.196L187.186 -422.834L187.186 -422.834L188.844 -424.537L188.844 -424.537L889.345 313.4919z" /></clipPath><linearGradient transform="matrix(1 0 0 1 0 0)" id="37284" x1="185.3656" y1="1608.424" x2="185.36561608.424" y2="185.36563.50647"><stop stop-color="#560099" offset="0%" /><stop stop-color="#FF0A35" offset="100%" /></linearGradient><clipPath id="77"><path d="M876.274 326.983L175.774 -411.056L175.774 -411.056L177.432 -412.76L177.432 -412.76L877.933 325.2791z" /></clipPath><linearGradient transform="matrix(1 0 0 1 0 0)" id="37776" x1="173.9535" y1="1596.642" x2="173.95351596.642" y2="173.95353.50647"><stop stop-color="#560099" offset="0%" /><stop stop-color="#FF0A35" offset="100%" /></linearGradient><clipPath id="78"><path d="M864.862 338.769L164.363 -399.261L164.363 -399.261L166.021 -400.965L166.021 -400.965L866.522 337.0649z" /></clipPath><linearGradient transform="matrix(1 0 0 1 0 0)" id="38270" x1="162.5423" y1="1584.851" x2="162.54231584.851" y2="162.54233.50647"><stop stop-color="#560099" offset="0%" /><stop stop-color="#FF0A35" offset="100%" /></linearGradient><clipPath id="79"><path d="M853.451 350.5649L152.951 -387.474L152.951 -387.474L154.609 -389.178L154.609 -389.178L855.11 348.861z" /></clipPath><linearGradient transform="matrix(1 0 0 1 0 0)" id="38763" x1="151.1302" y1="1573.06" x2="151.13021573.06" y2="151.13023.50647"><stop stop-color="#560099" offset="0%" /><stop stop-color="#FF0A35" offset="100%" /></linearGradient><clipPath id="80"><path d="M842.039 362.3409L141.539 -375.688L141.539 -375.688L143.198 -377.391L143.198 -377.391L843.699 360.6379z" /></clipPath><linearGradient transform="matrix(1 0 0 1 0 0)" id="39256" x1="139.7181" y1="1561.278" x2="139.71811561.278" y2="139.71813.506592"><stop stop-color="#560099" offset="0%" /><stop stop-color="#FF0A35" offset="100%" /></linearGradient><clipPath id="81"><path d="M830.628 374.1281L130.128 -363.901L130.128 -363.901L131.786 -365.606L131.786 -365.606L832.287 372.424z" /></clipPath><linearGradient transform="matrix(1 0 0 1 0 0)" id="39751" x1="128.3069" y1="1549.492" x2="128.30691549.492" y2="128.30693.50647"><stop stop-color="#560099" offset="0%" /><stop stop-color="#FF0A35" offset="100%" /></linearGradient><clipPath id="82"><path d="M819.216 385.924L118.716 -352.115L118.716 -352.115L120.375 -353.819L120.375 -353.819L820.876 384.22z" /></clipPath><linearGradient transform="matrix(1 0 0 1 0 0)" id="40243" x1="116.8948" y1="1537.701" x2="116.89481537.701" y2="116.89483.506592"><stop stop-color="#560099" offset="0%" /><stop stop-color="#FF0A35" offset="100%" /></linearGradient><clipPath id="83"><path d="M807.804 397.71L107.304 -340.329L107.304 -340.329L108.963 -342.033L108.963 -342.033L809.464 396.006z" /></clipPath><linearGradient transform="matrix(1 0 0 1 0 0)" id="40736" x1="105.4836" y1="1525.914" x2="105.48361525.914" y2="105.48363.50647"><stop stop-color="#560099" offset="0%" /><stop stop-color="#FF0A35" offset="100%" /></linearGradient><clipPath id="84"><path d="M796.392 409.496L95.892 -328.542L95.892 -328.542L97.551 -330.246L97.551 -330.246L798.051 407.793z" /></clipPath><linearGradient transform="matrix(1 0 0 1 0 0)" id="41225" x1="94.07149" y1="1514.128" x2="94.071491514.128" y2="94.071493.50647"><stop stop-color="#560099" offset="0%" /><stop stop-color="#FF0A35" offset="100%" /></linearGradient><clipPath id="85"><path d="M784.98 421.283L84.481 -316.756L84.481 -316.756L86.139 -318.459L86.139 -318.459L786.64 419.579z" /></clipPath><linearGradient transform="matrix(1 0 0 1 0 0)" id="41712" x1="82.6603" y1="1502.341" x2="82.66031502.341" y2="82.66033.50647"><stop stop-color="#560099" offset="0%" /><stop stop-color="#FF0A35" offset="100%" /></linearGradient><clipPath id="86"><path d="M773.569 433.071L73.069 -304.969L73.069 -304.969L74.727 -306.674L74.727 -306.674L775.228 431.365z" /></clipPath><linearGradient transform="matrix(1 0 0 1 0 0)" id="42198" x1="71.24819" y1="1490.555" x2="71.248191490.555" y2="71.248193.50647"><stop stop-color="#560099" offset="0%" /><stop stop-color="#FF0A35" offset="100%" /></linearGradient><clipPath id="87"><path d="M0 -0.3869629L1176.341 -0.3869629L1176.341 -0.3869629L1176.341 1552L1176.341 1552L0 1552z" /></clipPath><clipPath id="88"><path d="M612.187 949.307L1052.08 949.307L1052.08 949.307L1052.08 1249.627L1052.08 1249.627L612.187 1249.627z" /></clipPath><clipPath id="89"><path d="M621.868 1239.292L1042.024 1239.292L1042.024 1239.292L1042.024 958.933L1042.024 958.933L621.868 958.933z" /></clipPath></defs></svg>