<svg xmlns="http://www.w3.org/2000/svg" xmlns:xlink="http://www.w3.org/1999/xlink" id="body_13" preserveAspectRatio="xMinYMin meet" viewBox="0 0 1568 2069"><g transform="matrix(1.333333 0 0 1.333333 0 0)"><g><g clip-path="url(#1)"><g clip-path="url(#2)"><g clip-path="url(#3)"><g clip-path="url(#4)"><g clip-path="url(#5)"><g><g clip-path="url(#6)"><g clip-path="url(#7)"><g><path transform="matrix(1 0 0 -1 0 1552)" d="M0 140L1176 -1058L1176 -1058L1176 -3002L1176 -3002L0 -1803" stroke="none" fill="url(#1795)" /><path transform="matrix(1 0 0 -1 0 1552)" d="M0 139.416L1176 -1059.391L1176 -1059.391L1176 1552L1176 1552L0 1552" stroke="none" fill="#FFD800" fill-rule="evenodd" fill-opacity="0.1960784" /><path transform="matrix(1 0 0 -1 0 1552)" d="M0 -1802.052L1176 -3000.859L1176 -3000.859L1176 0L1176 0L0 0" stroke="none" fill="#FF387D" fill-rule="evenodd" fill-opacity="0.1960784" /></g></g><g clip-path="url(#8)"><g><path transform="matrix(1 0 0 -1 0 1552)" d="M0 140L1176 -1059L1176 -1059L1176 -3002L1176 -3002L0 -1803" stroke="none" fill="url(#2435)" /><path transform="matrix(1 0 0 -1 0 1552)" d="M0 138.8286L1176 -1059.979L1176 -1059.979L1176 1552L1176 1552L0 1552" stroke="none" fill="#FFD800" fill-rule="evenodd" fill-opacity="0.1960784" /><path transform="matrix(1 0 0 -1 0 1552)" d="M0 -1801.83L1176 -3000.638L1176 -3000.638L1176 0L1176 0L0 0" stroke="none" fill="#FF387D" fill-rule="evenodd" fill-opacity="0.1960784" /></g></g></g></g></g></g></g><g clip-path="url(#9)"><g><g clip-path="url(#10)"><g clip-path="url(#11)"><g><path transform="matrix(1 0 0 -1 0 1552)" d="M0 1172L1176 1238L1176 1238L1176 3550L1176 3550L0 3484" stroke="none" fill="url(#3406)" /><path transform="matrix(1 0 0 -1 0 1552)" d="M0 1173.181L1176 1238.775L1176 1238.775L1176 0L1176 0L0 0" stroke="none" fill="#4C216D" fill-rule="evenodd" fill-opacity="0.8980392" /><path transform="matrix(1 0 0 -1 0 1552)" d="M0 3483.392L1176 3548.986L1176 3548.986L1176 1552L1176 1552L0 1552" stroke="none" fill="#B83F54" fill-rule="evenodd" fill-opacity="0.8980392" /></g></g></g></g><g><g clip-path="url(#12)"><g clip-path="url(#13)"><g><path transform="matrix(1 0 0 -1 0 1552)" d="M0 2794L1176 1618L1176 1618L1176 -713L1176 -713L0 463" stroke="none" fill="url(#4269)" /><path transform="matrix(1 0 0 -1 0 1552)" d="M0 2793.273L1176 1617.273L1176 1617.273L1176 1552L1176 1552L0 1552" stroke="none" fill="#FFD800" fill-rule="evenodd" fill-opacity="0.2980392" /><path transform="matrix(1 0 0 -1 0 1552)" d="M0 464.0673L1176 -711.9327L1176 -711.9327L1176 0L1176 0L0 0" stroke="none" fill="#FF387D" fill-rule="evenodd" fill-opacity="0.2980392" /></g></g><g clip-path="url(#14)"><g><path transform="matrix(1 0 0 -1 0 1552)" d="M0 2794L1176 1618L1176 1618L1176 -714L1176 -714L0 462" stroke="none" fill="url(#4901)" /><path transform="matrix(1 0 0 -1 0 1552)" d="M0 2792.543L1176 1616.543L1176 1616.543L1176 1552L1176 1552L0 1552" stroke="none" fill="#FFD800" fill-rule="evenodd" fill-opacity="0.2980392" /><path transform="matrix(1 0 0 -1 0 1552)" d="M0 463.3131L1176 -712.6869L1176 -712.6869L1176 0L1176 0L0 0" stroke="none" fill="#FF387D" fill-rule="evenodd" fill-opacity="0.2980392" /></g></g></g></g></g><g clip-path="url(#15)"><g clip-path="url(#16)"><g clip-path="url(#17)"><g><g clip-path="url(#18)"><g clip-path="url(#19)"><g><path transform="matrix(1 0 0 -1 0 1552)" d="M0 -50980L1176 185731L1176 185731L1176 43661L1176 43661L0 -193050" stroke="none" fill="url(#6451)" /><path transform="matrix(1 0 0 -1 0 1552)" d="M0 -51098.06L1176 185613.1L1176 185613.1L1176 1552L1176 1552L0 1552" stroke="none" fill="#560099" fill-rule="evenodd" fill-opacity="0.04705882" /><path transform="matrix(1 0 0 -1 0 1552)" d="M0 -192931.8L1176 43779.39L1176 43779.39L1176 0L1176 0L0 0" stroke="none" fill="#FF0A35" fill-rule="evenodd" fill-opacity="0.04705882" /></g></g><g clip-path="url(#20)"><g><path transform="matrix(1 0 0 -1 0 1552)" d="M0 -48695L1176 188017L1176 188017L1176 45946L1176 45946L0 -190765" stroke="none" fill="url(#6981)" /><path transform="matrix(1 0 0 -1 0 1552)" d="M0 -48812.95L1176 187898.3L1176 187898.3L1176 1552L1176 1552L0 1552" stroke="none" fill="#560099" fill-rule="evenodd" fill-opacity="0.04705882" /><path transform="matrix(1 0 0 -1 0 1552)" d="M0 -190646.7L1176 46064.5L1176 46064.5L1176 0L1176 0L0 0" stroke="none" fill="#FF0A35" fill-rule="evenodd" fill-opacity="0.04705882" /></g></g><g clip-path="url(#21)"><g><path transform="matrix(1 0 0 -1 0 1552)" d="M0 -46409L1176 190302L1176 190302L1176 48231L1176 48231L0 -188480" stroke="none" fill="url(#7509)" /><path transform="matrix(1 0 0 -1 0 1552)" d="M0 -46527.65L1176 190183.6L1176 190183.6L1176 1552L1176 1552L0 1552" stroke="none" fill="#560099" fill-rule="evenodd" fill-opacity="0.04705882" /><path transform="matrix(1 0 0 -1 0 1552)" d="M0 -188361.4L1176 48349.8L1176 48349.8L1176 0L1176 0L0 0" stroke="none" fill="#FF0A35" fill-rule="evenodd" fill-opacity="0.04705882" /></g></g><g clip-path="url(#22)"><g><path transform="matrix(1 0 0 -1 0 1552)" d="M0 -44124L1176 192587L1176 192587L1176 50517L1176 50517L0 -186194" stroke="none" fill="url(#8037)" /><path transform="matrix(1 0 0 -1 0 1552)" d="M0 -44242.31L1176 192468.7L1176 192468.7L1176 1552L1176 1552L0 1552" stroke="none" fill="#560099" fill-rule="evenodd" fill-opacity="0.04705882" /><path transform="matrix(1 0 0 -1 0 1552)" d="M0 -186076.1L1176 50634.87L1176 50634.87L1176 0L1176 0L0 0" stroke="none" fill="#FF0A35" fill-rule="evenodd" fill-opacity="0.04705882" /></g></g><g clip-path="url(#23)"><g><path transform="matrix(1 0 0 -1 0 1552)" d="M0 -41839L1176 194872L1176 194872L1176 52802L1176 52802L0 -183909" stroke="none" fill="url(#8565)" /><path transform="matrix(1 0 0 -1 0 1552)" d="M0 -41957.24L1176 194754L1176 194754L1176 1552L1176 1552L0 1552" stroke="none" fill="#560099" fill-rule="evenodd" fill-opacity="0.04705882" /><path transform="matrix(1 0 0 -1 0 1552)" d="M0 -183791L1176 52920.21L1176 52920.21L1176 0L1176 0L0 0" stroke="none" fill="#FF0A35" fill-rule="evenodd" fill-opacity="0.04705882" /></g></g><g clip-path="url(#24)"><g><path transform="matrix(1 0 0 -1 0 1552)" d="M0 -39554L1176 197158L1176 197158L1176 55087L1176 55087L0 -181624" stroke="none" fill="url(#9095)" /><path transform="matrix(1 0 0 -1 0 1552)" d="M0 -39671.93L1176 197039.3L1176 197039.3L1176 1552L1176 1552L0 1552" stroke="none" fill="#560099" fill-rule="evenodd" fill-opacity="0.04705882" /><path transform="matrix(1 0 0 -1 0 1552)" d="M0 -181505.7L1176 55205.52L1176 55205.52L1176 0L1176 0L0 0" stroke="none" fill="#FF0A35" fill-rule="evenodd" fill-opacity="0.04705882" /></g></g><g clip-path="url(#25)"><g><path transform="matrix(1 0 0 -1 0 1552)" d="M0 -37268L1176 199443L1176 199443L1176 57372L1176 57372L0 -179339" stroke="none" fill="url(#9625)" /><path transform="matrix(1 0 0 -1 0 1552)" d="M0 -37386.82L1176 199324.4L1176 199324.4L1176 1552L1176 1552L0 1552" stroke="none" fill="#560099" fill-rule="evenodd" fill-opacity="0.04705882" /><path transform="matrix(1 0 0 -1 0 1552)" d="M0 -179220.6L1176 57490.63L1176 57490.63L1176 0L1176 0L0 0" stroke="none" fill="#FF0A35" fill-rule="evenodd" fill-opacity="0.04705882" /></g></g><g clip-path="url(#26)"><g><path transform="matrix(1 0 0 -1 0 1552)" d="M0 -34983L1176 201728L1176 201728L1176 59658L1176 59658L0 -177054" stroke="none" fill="url(#10153)" /><path transform="matrix(1 0 0 -1 0 1552)" d="M0 -35101.54L1176 201609.8L1176 201609.8L1176 1552L1176 1552L0 1552" stroke="none" fill="#560099" fill-rule="evenodd" fill-opacity="0.04705882" /><path transform="matrix(1 0 0 -1 0 1552)" d="M0 -176935.4L1176 59775.96L1176 59775.96L1176 0L1176 0L0 0" stroke="none" fill="#FF0A35" fill-rule="evenodd" fill-opacity="0.04705882" /></g></g><g clip-path="url(#27)"><g><path transform="matrix(1 0 0 -1 0 1552)" d="M0 -32698L1176 204013L1176 204013L1176 61943L1176 61943L0 -174769" stroke="none" fill="url(#10685)" /><path transform="matrix(1 0 0 -1 0 1552)" d="M0 -32816.43L1176 203895L1176 203895L1176 1552L1176 1552L0 1552" stroke="none" fill="#560099" fill-rule="evenodd" fill-opacity="0.04705882" /><path transform="matrix(1 0 0 -1 0 1552)" d="M0 -174650.3L1176 62061.09L1176 62061.09L1176 0L1176 0L0 0" stroke="none" fill="#FF0A35" fill-rule="evenodd" fill-opacity="0.04705882" /></g></g><g clip-path="url(#28)"><g><path transform="matrix(1 0 0 -1 0 1552)" d="M0 -30413L1176 206299L1176 206299L1176 64228L1176 64228L0 -172483" stroke="none" fill="url(#11216)" /><path transform="matrix(1 0 0 -1 0 1552)" d="M0 -30531.13L1176 206180.3L1176 206180.3L1176 1552L1176 1552L0 1552" stroke="none" fill="#560099" fill-rule="evenodd" fill-opacity="0.04705882" /><path transform="matrix(1 0 0 -1 0 1552)" d="M0 -172365L1176 64346.41L1176 64346.41L1176 0L1176 0L0 0" stroke="none" fill="#FF0A35" fill-rule="evenodd" fill-opacity="0.04705882" /></g></g><g clip-path="url(#29)"><g><path transform="matrix(1 0 0 -1 0 1552)" d="M0 -28127L1176 208584L1176 208584L1176 66513L1176 66513L0 -170198" stroke="none" fill="url(#11748)" /><path transform="matrix(1 0 0 -1 0 1552)" d="M0 -28245.83L1176 208465.6L1176 208465.6L1176 1552L1176 1552L0 1552" stroke="none" fill="#560099" fill-rule="evenodd" fill-opacity="0.04705882" /><path transform="matrix(1 0 0 -1 0 1552)" d="M0 -170079.9L1176 66631.52L1176 66631.52L1176 0L1176 0L0 0" stroke="none" fill="#FF0A35" fill-rule="evenodd" fill-opacity="0.04705882" /></g></g><g clip-path="url(#30)"><g><path transform="matrix(1 0 0 -1 0 1552)" d="M0 -25842L1176 210869L1176 210869L1176 68798L1176 68798L0 -167913" stroke="none" fill="url(#12280)" /><path transform="matrix(1 0 0 -1 0 1552)" d="M0 -25960.71L1176 210750.6L1176 210750.6L1176 1552L1176 1552L0 1552" stroke="none" fill="#560099" fill-rule="evenodd" fill-opacity="0.04705882" /><path transform="matrix(1 0 0 -1 0 1552)" d="M0 -167794.5L1176 68916.8L1176 68916.8L1176 0L1176 0L0 0" stroke="none" fill="#FF0A35" fill-rule="evenodd" fill-opacity="0.04705882" /></g></g><g clip-path="url(#31)"><g><path transform="matrix(1 0 0 -1 0 1552)" d="M0 -23557L1176 213154L1176 213154L1176 71084L1176 71084L0 -165628" stroke="none" fill="url(#12813)" /><path transform="matrix(1 0 0 -1 0 1552)" d="M0 -23675.41L1176 213036L1176 213036L1176 1552L1176 1552L0 1552" stroke="none" fill="#560099" fill-rule="evenodd" fill-opacity="0.04705882" /><path transform="matrix(1 0 0 -1 0 1552)" d="M0 -165509.5L1176 71201.93L1176 71201.93L1176 0L1176 0L0 0" stroke="none" fill="#FF0A35" fill-rule="evenodd" fill-opacity="0.04705882" /></g></g><g clip-path="url(#32)"><g><path transform="matrix(1 0 0 -1 0 1552)" d="M0 -21272L1176 215439L1176 215439L1176 73369L1176 73369L0 -163342" stroke="none" fill="url(#13347)" /><path transform="matrix(1 0 0 -1 0 1552)" d="M0 -21390.28L1176 215320.9L1176 215320.9L1176 1552L1176 1552L0 1552" stroke="none" fill="#560099" fill-rule="evenodd" fill-opacity="0.04705882" /><path transform="matrix(1 0 0 -1 0 1552)" d="M0 -163224L1176 73487.18L1176 73487.18L1176 0L1176 0L0 0" stroke="none" fill="#FF0A35" fill-rule="evenodd" fill-opacity="0.04705882" /></g></g><g clip-path="url(#33)"><g><path transform="matrix(1 0 0 -1 0 1552)" d="M0 -18987L1176 217725L1176 217725L1176 75654L1176 75654L0 -161057" stroke="none" fill="url(#13875)" /><path transform="matrix(1 0 0 -1 0 1552)" d="M0 -19104.98L1176 217606.2L1176 217606.2L1176 1552L1176 1552L0 1552" stroke="none" fill="#560099" fill-rule="evenodd" fill-opacity="0.04705882" /><path transform="matrix(1 0 0 -1 0 1552)" d="M0 -160938.7L1176 75772.48L1176 75772.48L1176 0L1176 0L0 0" stroke="none" fill="#FF0A35" fill-rule="evenodd" fill-opacity="0.04705882" /></g></g><g clip-path="url(#34)"><g><path transform="matrix(1 0 0 -1 0 1552)" d="M0 -16702L1176 220010L1176 220010L1176 77939L1176 77939L0 -158772" stroke="none" fill="url(#14401)" /><path transform="matrix(1 0 0 -1 0 1552)" d="M0 -16819.86L1176 219891.3L1176 219891.3L1176 1552L1176 1552L0 1552" stroke="none" fill="#560099" fill-rule="evenodd" fill-opacity="0.04705882" /><path transform="matrix(1 0 0 -1 0 1552)" d="M0 -158653.6L1176 78057.59L1176 78057.59L1176 0L1176 0L0 0" stroke="none" fill="#FF0A35" fill-rule="evenodd" fill-opacity="0.04705882" /></g></g><g clip-path="url(#35)"><g><path transform="matrix(1 0 0 -1 0 1552)" d="M0 -14416L1176 222295L1176 222295L1176 80225L1176 80225L0 -156487" stroke="none" fill="url(#14927)" /><path transform="matrix(1 0 0 -1 0 1552)" d="M0 -14534.56L1176 222176.7L1176 222176.7L1176 1552L1176 1552L0 1552" stroke="none" fill="#560099" fill-rule="evenodd" fill-opacity="0.04705882" /><path transform="matrix(1 0 0 -1 0 1552)" d="M0 -156368.3L1176 80342.9L1176 80342.9L1176 0L1176 0L0 0" stroke="none" fill="#FF0A35" fill-rule="evenodd" fill-opacity="0.04705882" /></g></g></g></g></g></g></g><g clip-path="url(#36)"><g clip-path="url(#37)"><g clip-path="url(#38)"><g><g clip-path="url(#39)"><g clip-path="url(#40)"><g><path transform="matrix(1 0 0 -1 0 1552)" d="M0 3024L1176 1825L1176 1825L1176 -118L1176 -118L0 1081" stroke="none" fill="url(#16573)" /><path transform="matrix(1 0 0 -1 0 1552)" d="M0 3022.903L1176 1824.095L1176 1824.095L1176 1552L1176 1552L0 1552" stroke="none" fill="#FFD800" fill-rule="evenodd" fill-opacity="0.1960784" /><path transform="matrix(1 0 0 -1 0 1552)" d="M0 1082.244L1176 -116.5636L1176 -116.5636L1176 0L1176 0L0 0" stroke="none" fill="#FF387D" fill-rule="evenodd" fill-opacity="0.1960784" /></g></g></g></g></g></g></g><g clip-path="url(#41)"><g clip-path="url(#42)"><g><g clip-path="url(#43)"><g clip-path="url(#44)"><g><path transform="matrix(1 0 0 -1 0 1552)" d="M0 -639L1176 734L1176 734L1176 4802L1176 4802L0 3429" stroke="none" fill="url(#17857)" /><path transform="matrix(1 0 0 -1 0 1552)" d="M0 -638.0659L1176 735.0756L1176 735.0756L1176 0L1176 0L0 0" stroke="none" fill="#4C216D" fill-rule="evenodd" fill-opacity="0.8980392" /><path transform="matrix(1 0 0 -1 0 1552)" d="M0 3427.677L1176 4800.819L1176 4800.819L1176 1552L1176 1552L0 1552" stroke="none" fill="#B83F54" fill-rule="evenodd" fill-opacity="0.8980392" /></g></g></g></g><g><g clip-path="url(#45)"><g clip-path="url(#46)"><g><path transform="matrix(1 0 0 -1 0 1552)" d="M0 1744L1176 545L1176 545L1176 -1722L1176 -1722L0 -523" stroke="none" fill="url(#18731)" /><path transform="matrix(1 0 0 -1 0 1552)" d="M0 1742.872L1176 544.0642L1176 544.0642L1176 1552L1176 1552L0 1552" stroke="none" fill="#FFD800" fill-rule="evenodd" fill-opacity="0.1960784" /><path transform="matrix(1 0 0 -1 0 1552)" d="M0 -522.455L1176 -1721.262L1176 -1721.262L1176 0L1176 0L0 0" stroke="none" fill="#FF387D" fill-rule="evenodd" fill-opacity="0.1960784" /></g></g><g clip-path="url(#47)"><g><path transform="matrix(1 0 0 -1 0 1552)" d="M0 1743L1176 544L1176 544L1176 -1721L1176 -1721L0 -523" stroke="none" fill="url(#19363)" /><path transform="matrix(1 0 0 -1 0 1552)" d="M0 1742.195L1176 543.3876L1176 543.3876L1176 1552L1176 1552L0 1552" stroke="none" fill="#FFD800" fill-rule="evenodd" fill-opacity="0.1960784" /><path transform="matrix(1 0 0 -1 0 1552)" d="M0 -521.5459L1176 -1720.354L1176 -1720.354L1176 0L1176 0L0 0" stroke="none" fill="#FF387D" fill-rule="evenodd" fill-opacity="0.1960784" /></g></g><g clip-path="url(#48)"><g><path transform="matrix(1 0 0 -1 0 1552)" d="M0 1743L1176 544L1176 544L1176 -1721L1176 -1721L0 -522" stroke="none" fill="url(#19996)" /><path transform="matrix(1 0 0 -1 0 1552)" d="M0 1741.516L1176 542.7079L1176 542.7079L1176 1552L1176 1552L0 1552" stroke="none" fill="#FFD800" fill-rule="evenodd" fill-opacity="0.1960784" /><path transform="matrix(1 0 0 -1 0 1552)" d="M0 -520.7215L1176 -1719.529L1176 -1719.529L1176 0L1176 0L0 0" stroke="none" fill="#FF387D" fill-rule="evenodd" fill-opacity="0.1960784" /></g></g><g clip-path="url(#49)"><g><path transform="matrix(1 0 0 -1 0 1552)" d="M0 1742L1176 543L1176 543L1176 -1720L1176 -1720L0 -521" stroke="none" fill="url(#20619)" /><path transform="matrix(1 0 0 -1 0 1552)" d="M0 1740.834L1176 542.0263L1176 542.0263L1176 1552L1176 1552L0 1552" stroke="none" fill="#FFD800" fill-rule="evenodd" fill-opacity="0.1960784" /><path transform="matrix(1 0 0 -1 0 1552)" d="M0 -519.9562L1176 -1718.764L1176 -1718.764L1176 0L1176 0L0 0" stroke="none" fill="#FF387D" fill-rule="evenodd" fill-opacity="0.1960784" /></g></g><g clip-path="url(#50)"><g><path transform="matrix(1 0 0 -1 0 1552)" d="M0 1741L1176 542L1176 542L1176 -1719L1176 -1719L0 -520" stroke="none" fill="url(#21246)" /><path transform="matrix(1 0 0 -1 0 1552)" d="M0 1740.156L1176 541.3487L1176 541.3487L1176 1552L1176 1552L0 1552" stroke="none" fill="#FFD800" fill-rule="evenodd" fill-opacity="0.1960784" /><path transform="matrix(1 0 0 -1 0 1552)" d="M0 -519.2437L1176 -1718.051L1176 -1718.051L1176 0L1176 0L0 0" stroke="none" fill="#FF387D" fill-rule="evenodd" fill-opacity="0.1960784" /></g></g><g clip-path="url(#51)"><g><path transform="matrix(1 0 0 -1 0 1552)" d="M0 1740L1176 542L1176 542L1176 -1718L1176 -1718L0 -520" stroke="none" fill="url(#21872)" /><path transform="matrix(1 0 0 -1 0 1552)" d="M0 1739.473L1176 540.6652L1176 540.6652L1176 1552L1176 1552L0 1552" stroke="none" fill="#FFD800" fill-rule="evenodd" fill-opacity="0.1960784" /><path transform="matrix(1 0 0 -1 0 1552)" d="M0 -518.5826L1176 -1717.39L1176 -1717.39L1176 0L1176 0L0 0" stroke="none" fill="#FF387D" fill-rule="evenodd" fill-opacity="0.1960784" /></g></g><g clip-path="url(#52)"><g><path transform="matrix(1 0 0 -1 0 1552)" d="M0 1740L1176 541L1176 541L1176 -1718L1176 -1718L0 -519" stroke="none" fill="url(#22498)" /><path transform="matrix(1 0 0 -1 0 1552)" d="M0 1738.781L1176 539.973L1176 539.973L1176 1552L1176 1552L0 1552" stroke="none" fill="#FFD800" fill-rule="evenodd" fill-opacity="0.1960784" /><path transform="matrix(1 0 0 -1 0 1552)" d="M0 -517.9755L1176 -1716.783L1176 -1716.783L1176 0L1176 0L0 0" stroke="none" fill="#FF387D" fill-rule="evenodd" fill-opacity="0.1960784" /></g></g><g clip-path="url(#53)"><g><path transform="matrix(1 0 0 -1 0 1552)" d="M0 1739L1176 540L1176 540L1176 -1717L1176 -1717L0 -518" stroke="none" fill="url(#23127)" /><path transform="matrix(1 0 0 -1 0 1552)" d="M0 1738.104L1176 539.2958L1176 539.2958L1176 1552L1176 1552L0 1552" stroke="none" fill="#FFD800" fill-rule="evenodd" fill-opacity="0.1960784" /><path transform="matrix(1 0 0 -1 0 1552)" d="M0 -517.4174L1176 -1716.225L1176 -1716.225L1176 0L1176 0L0 0" stroke="none" fill="#FF387D" fill-rule="evenodd" fill-opacity="0.1960784" /></g></g><g clip-path="url(#54)"><g><path transform="matrix(1 0 0 -1 0 1552)" d="M0 1738L1176 540L1176 540L1176 -1717L1176 -1717L0 -518" stroke="none" fill="url(#23759)" /><path transform="matrix(1 0 0 -1 0 1552)" d="M0 1737.408L1176 538.6009L1176 538.6009L1176 1552L1176 1552L0 1552" stroke="none" fill="#FFD800" fill-rule="evenodd" fill-opacity="0.1960784" /><path transform="matrix(1 0 0 -1 0 1552)" d="M0 -516.9193L1176 -1715.727L1176 -1715.727L1176 0L1176 0L0 0" stroke="none" fill="#FF387D" fill-rule="evenodd" fill-opacity="0.1960784" /></g></g><g clip-path="url(#55)"><g><path transform="matrix(1 0 0 -1 0 1552)" d="M0 1738L1176 539L1176 539L1176 -1716L1176 -1716L0 -517" stroke="none" fill="url(#24388)" /><path transform="matrix(1 0 0 -1 0 1552)" d="M0 1736.73L1176 537.9227L1176 537.9227L1176 1552L1176 1552L0 1552" stroke="none" fill="#FFD800" fill-rule="evenodd" fill-opacity="0.1960784" /><path transform="matrix(1 0 0 -1 0 1552)" d="M0 -516.4592L1176 -1715.267L1176 -1715.267L1176 0L1176 0L0 0" stroke="none" fill="#FF387D" fill-rule="evenodd" fill-opacity="0.1960784" /></g></g><g clip-path="url(#56)"><g><path transform="matrix(1 0 0 -1 0 1552)" d="M0 1737L1176 538L1176 538L1176 -1716L1176 -1716L0 -517" stroke="none" fill="url(#25019)" /><path transform="matrix(1 0 0 -1 0 1552)" d="M0 1736.038L1176 537.2301L1176 537.2301L1176 1552L1176 1552L0 1552" stroke="none" fill="#FFD800" fill-rule="evenodd" fill-opacity="0.1960784" /><path transform="matrix(1 0 0 -1 0 1552)" d="M0 -516.0291L1176 -1714.837L1176 -1714.837L1176 0L1176 0L0 0" stroke="none" fill="#FF387D" fill-rule="evenodd" fill-opacity="0.1960784" /></g></g><g clip-path="url(#57)"><g><path transform="matrix(1 0 0 -1 0 1552)" d="M0 1736L1176 538L1176 538L1176 -1715L1176 -1715L0 -517" stroke="none" fill="url(#25652)" /><path transform="matrix(1 0 0 -1 0 1552)" d="M0 1735.349L1176 536.5418L1176 536.5418L1176 1552L1176 1552L0 1552" stroke="none" fill="#FFD800" fill-rule="evenodd" fill-opacity="0.1960784" /><path transform="matrix(1 0 0 -1 0 1552)" d="M0 -515.6503L1176 -1714.458L1176 -1714.458L1176 0L1176 0L0 0" stroke="none" fill="#FF387D" fill-rule="evenodd" fill-opacity="0.1960784" /></g></g><g clip-path="url(#58)"><g><path transform="matrix(1 0 0 -1 0 1552)" d="M0 1736L1176 537L1176 537L1176 -1715L1176 -1715L0 -516" stroke="none" fill="url(#26281)" /><path transform="matrix(1 0 0 -1 0 1552)" d="M0 1734.66L1176 535.8527L1176 535.8527L1176 1552L1176 1552L0 1552" stroke="none" fill="#FFD800" fill-rule="evenodd" fill-opacity="0.1960784" /><path transform="matrix(1 0 0 -1 0 1552)" d="M0 -515.3201L1176 -1714.128L1176 -1714.128L1176 0L1176 0L0 0" stroke="none" fill="#FF387D" fill-rule="evenodd" fill-opacity="0.1960784" /></g></g><g clip-path="url(#59)"><g><path transform="matrix(1 0 0 -1 0 1552)" d="M0 1735L1176 536L1176 536L1176 -1715L1176 -1715L0 -516" stroke="none" fill="url(#26911)" /><path transform="matrix(1 0 0 -1 0 1552)" d="M0 1733.974L1176 535.1664L1176 535.1664L1176 1552L1176 1552L0 1552" stroke="none" fill="#FFD800" fill-rule="evenodd" fill-opacity="0.1960784" /><path transform="matrix(1 0 0 -1 0 1552)" d="M0 -515.0219L1176 -1713.829L1176 -1713.829L1176 0L1176 0L0 0" stroke="none" fill="#FF387D" fill-rule="evenodd" fill-opacity="0.1960784" /></g></g><g clip-path="url(#60)"><g><path transform="matrix(1 0 0 -1 0 1552)" d="M0 1734L1176 535L1176 535L1176 -1715L1176 -1715L0 -516" stroke="none" fill="url(#27545)" /><path transform="matrix(1 0 0 -1 0 1552)" d="M0 1733.294L1176 534.486L1176 534.486L1176 1552L1176 1552L0 1552" stroke="none" fill="#FFD800" fill-rule="evenodd" fill-opacity="0.1960784" /><path transform="matrix(1 0 0 -1 0 1552)" d="M0 -514.7658L1176 -1713.573L1176 -1713.573L1176 0L1176 0L0 0" stroke="none" fill="#FF387D" fill-rule="evenodd" fill-opacity="0.1960784" /></g></g></g></g></g></g></g><g clip-path="url(#61)"><g><g clip-path="url(#62)"><g clip-path="url(#63)"><g><path transform="matrix(1 0 0 -1 0 1552)" d="M0 -2277L1176 -904L1176 -904L1176 3163L1176 3163L0 1790" stroke="none" fill="url(#28442)" /><path transform="matrix(1 0 0 -1 0 1552)" d="M0 -2276.434L1176 -903.2927L1176 -903.2927L1176 0L1176 0L0 0" stroke="none" fill="#4C216D" fill-rule="evenodd" fill-opacity="0.8980392" /><path transform="matrix(1 0 0 -1 0 1552)" d="M0 1789.309L1176 3162.45L1176 3162.45L1176 1552L1176 1552L0 1552" stroke="none" fill="#B83F54" fill-rule="evenodd" fill-opacity="0.8980392" /></g></g></g></g><g><g clip-path="url(#64)"><g clip-path="url(#65)"><g><path transform="matrix(1 0 0 -1 0 1552)" d="M0 3176L1176 1977L1176 1977L1176 -294L1176 -294L0 905" stroke="none" fill="url(#29262)" /><path transform="matrix(1 0 0 -1 0 1552)" d="M0 3174.583L1176 1975.776L1176 1975.776L1176 1552L1176 1552L0 1552" stroke="none" fill="#FFD800" fill-rule="evenodd" fill-opacity="0.1960784" /><path transform="matrix(1 0 0 -1 0 1552)" d="M0 905.8785L1176 -292.929L1176 -292.929L1176 0L1176 0L0 0" stroke="none" fill="#FF387D" fill-rule="evenodd" fill-opacity="0.1960784" /></g></g><g clip-path="url(#66)"><g><path transform="matrix(1 0 0 -1 0 1552)" d="M0 3175L1176 1976L1176 1976L1176 -293L1176 -293L0 906" stroke="none" fill="url(#29859)" /><path transform="matrix(1 0 0 -1 0 1552)" d="M0 3173.909L1176 1975.101L1176 1975.101L1176 1552L1176 1552L0 1552" stroke="none" fill="#FFD800" fill-rule="evenodd" fill-opacity="0.1960784" /><path transform="matrix(1 0 0 -1 0 1552)" d="M0 906.9301L1176 -291.8775L1176 -291.8775L1176 0L1176 0L0 0" stroke="none" fill="#FF387D" fill-rule="evenodd" fill-opacity="0.1960784" /></g></g><g clip-path="url(#67)"><g><path transform="matrix(1 0 0 -1 0 1552)" d="M0 3174L1176 1975L1176 1975L1176 -292L1176 -292L0 907" stroke="none" fill="url(#30460)" /><path transform="matrix(1 0 0 -1 0 1552)" d="M0 3173.233L1176 1974.425L1176 1974.425L1176 1552L1176 1552L0 1552" stroke="none" fill="#FFD800" fill-rule="evenodd" fill-opacity="0.1960784" /><path transform="matrix(1 0 0 -1 0 1552)" d="M0 907.9061L1176 -290.9014L1176 -290.9014L1176 0L1176 0L0 0" stroke="none" fill="#FF387D" fill-rule="evenodd" fill-opacity="0.1960784" /></g></g><g clip-path="url(#68)"><g><path transform="matrix(1 0 0 -1 0 1552)" d="M0 3174L1176 1975L1176 1975L1176 -291L1176 -291L0 908" stroke="none" fill="url(#31062)" /><path transform="matrix(1 0 0 -1 0 1552)" d="M0 3172.556L1176 1973.749L1176 1973.749L1176 1552L1176 1552L0 1552" stroke="none" fill="#FFD800" fill-rule="evenodd" fill-opacity="0.1960784" /><path transform="matrix(1 0 0 -1 0 1552)" d="M0 908.8156L1176 -289.9919L1176 -289.9919L1176 0L1176 0L0 0" stroke="none" fill="#FF387D" fill-rule="evenodd" fill-opacity="0.1960784" /></g></g><g clip-path="url(#69)"><g><path transform="matrix(1 0 0 -1 0 1552)" d="M0 3173L1176 1974L1176 1974L1176 -290L1176 -290L0 909" stroke="none" fill="url(#31664)" /><path transform="matrix(1 0 0 -1 0 1552)" d="M0 3171.876L1176 1973.069L1176 1973.069L1176 1552L1176 1552L0 1552" stroke="none" fill="#FFD800" fill-rule="evenodd" fill-opacity="0.1960784" /><path transform="matrix(1 0 0 -1 0 1552)" d="M0 909.6398L1176 -289.1676L1176 -289.1676L1176 0L1176 0L0 0" stroke="none" fill="#FF387D" fill-rule="evenodd" fill-opacity="0.1960784" /></g></g><g clip-path="url(#70)"><g><path transform="matrix(1 0 0 -1 0 1552)" d="M0 3172L1176 1973L1176 1973L1176 -289L1176 -289L0 909" stroke="none" fill="url(#32267)" /><path transform="matrix(1 0 0 -1 0 1552)" d="M0 3171.195L1176 1972.387L1176 1972.387L1176 1552L1176 1552L0 1552" stroke="none" fill="#FFD800" fill-rule="evenodd" fill-opacity="0.1960784" /><path transform="matrix(1 0 0 -1 0 1552)" d="M0 910.4051L1176 -288.4024L1176 -288.4024L1176 0L1176 0L0 0" stroke="none" fill="#FF387D" fill-rule="evenodd" fill-opacity="0.1960784" /></g></g><g clip-path="url(#71)"><g><path transform="matrix(1 0 0 -1 0 1552)" d="M0 3172L1176 1973L1176 1973L1176 -289L1176 -289L0 910" stroke="none" fill="url(#32868)" /><path transform="matrix(1 0 0 -1 0 1552)" d="M0 3170.517L1176 1971.71L1176 1971.71L1176 1552L1176 1552L0 1552" stroke="none" fill="#FFD800" fill-rule="evenodd" fill-opacity="0.1960784" /><path transform="matrix(1 0 0 -1 0 1552)" d="M0 911.1176L1176 -287.6898L1176 -287.6898L1176 0L1176 0L0 0" stroke="none" fill="#FF387D" fill-rule="evenodd" fill-opacity="0.1960784" /></g></g><g clip-path="url(#72)"><g><path transform="matrix(1 0 0 -1 0 1552)" d="M0 3171L1176 1972L1176 1972L1176 -288L1176 -288L0 911" stroke="none" fill="url(#33468)" /><path transform="matrix(1 0 0 -1 0 1552)" d="M0 3169.834L1176 1971.026L1176 1971.026L1176 1552L1176 1552L0 1552" stroke="none" fill="#FFD800" fill-rule="evenodd" fill-opacity="0.1960784" /><path transform="matrix(1 0 0 -1 0 1552)" d="M0 911.7787L1176 -287.0288L1176 -287.0288L1176 0L1176 0L0 0" stroke="none" fill="#FF387D" fill-rule="evenodd" fill-opacity="0.1960784" /></g></g><g clip-path="url(#73)"><g><path transform="matrix(1 0 0 -1 0 1552)" d="M0 3170L1176 1971L1176 1971L1176 -287L1176 -287L0 911" stroke="none" fill="url(#34064)" /><path transform="matrix(1 0 0 -1 0 1552)" d="M0 3169.142L1176 1970.334L1176 1970.334L1176 1552L1176 1552L0 1552" stroke="none" fill="#FFD800" fill-rule="evenodd" fill-opacity="0.1960784" /><path transform="matrix(1 0 0 -1 0 1552)" d="M0 912.3857L1176 -286.4218L1176 -286.4218L1176 0L1176 0L0 0" stroke="none" fill="#FF387D" fill-rule="evenodd" fill-opacity="0.1960784" /></g></g><g clip-path="url(#74)"><g><path transform="matrix(1 0 0 -1 0 1552)" d="M0 3169L1176 1971L1176 1971L1176 -287L1176 -287L0 912" stroke="none" fill="url(#34660)" /><path transform="matrix(1 0 0 -1 0 1552)" d="M0 3168.465L1176 1969.657L1176 1969.657L1176 1552L1176 1552L0 1552" stroke="none" fill="#FFD800" fill-rule="evenodd" fill-opacity="0.1960784" /><path transform="matrix(1 0 0 -1 0 1552)" d="M0 912.9441L1176 -285.8635L1176 -285.8635L1176 0L1176 0L0 0" stroke="none" fill="#FF387D" fill-rule="evenodd" fill-opacity="0.1960784" /></g></g><g clip-path="url(#75)"><g><path transform="matrix(1 0 0 -1 0 1552)" d="M0 3169L1176 1970L1176 1970L1176 -286L1176 -286L0 912" stroke="none" fill="url(#35258)" /><path transform="matrix(1 0 0 -1 0 1552)" d="M0 3167.769L1176 1968.962L1176 1968.962L1176 1552L1176 1552L0 1552" stroke="none" fill="#FFD800" fill-rule="evenodd" fill-opacity="0.1960784" /><path transform="matrix(1 0 0 -1 0 1552)" d="M0 913.4418L1176 -285.3657L1176 -285.3657L1176 0L1176 0L0 0" stroke="none" fill="#FF387D" fill-rule="evenodd" fill-opacity="0.1960784" /></g></g><g clip-path="url(#76)"><g><path transform="matrix(1 0 0 -1 0 1552)" d="M0 3168L1176 1969L1176 1969L1176 -286L1176 -286L0 913" stroke="none" fill="url(#35856)" /><path transform="matrix(1 0 0 -1 0 1552)" d="M0 3167.091L1176 1968.284L1176 1968.284L1176 1552L1176 1552L0 1552" stroke="none" fill="#FFD800" fill-rule="evenodd" fill-opacity="0.1960784" /><path transform="matrix(1 0 0 -1 0 1552)" d="M0 913.902L1176 -284.9056L1176 -284.9056L1176 0L1176 0L0 0" stroke="none" fill="#FF387D" fill-rule="evenodd" fill-opacity="0.1960784" /></g></g><g clip-path="url(#77)"><g><path transform="matrix(1 0 0 -1 0 1552)" d="M0 3167L1176 1969L1176 1969L1176 -285L1176 -285L0 913" stroke="none" fill="url(#36452)" /><path transform="matrix(1 0 0 -1 0 1552)" d="M0 3166.399L1176 1967.592L1176 1967.592L1176 1552L1176 1552L0 1552" stroke="none" fill="#FFD800" fill-rule="evenodd" fill-opacity="0.1960784" /><path transform="matrix(1 0 0 -1 0 1552)" d="M0 914.3325L1176 -284.4751L1176 -284.4751L1176 0L1176 0L0 0" stroke="none" fill="#FF387D" fill-rule="evenodd" fill-opacity="0.1960784" /></g></g><g clip-path="url(#78)"><g><path transform="matrix(1 0 0 -1 0 1552)" d="M0 3167L1176 1968L1176 1968L1176 -285L1176 -285L0 914" stroke="none" fill="url(#37054)" /><path transform="matrix(1 0 0 -1 0 1552)" d="M0 3165.71L1176 1966.903L1176 1966.903L1176 1552L1176 1552L0 1552" stroke="none" fill="#FFD800" fill-rule="evenodd" fill-opacity="0.1960784" /><path transform="matrix(1 0 0 -1 0 1552)" d="M0 914.7108L1176 -284.0966L1176 -284.0966L1176 0L1176 0L0 0" stroke="none" fill="#FF387D" fill-rule="evenodd" fill-opacity="0.1960784" /></g></g><g clip-path="url(#79)"><g><path transform="matrix(1 0 0 -1 0 1552)" d="M0 3166L1176 1967L1176 1967L1176 -285L1176 -285L0 914" stroke="none" fill="url(#37654)" /><path transform="matrix(1 0 0 -1 0 1552)" d="M0 3165.021L1176 1966.214L1176 1966.214L1176 1552L1176 1552L0 1552" stroke="none" fill="#FFD800" fill-rule="evenodd" fill-opacity="0.1960784" /><path transform="matrix(1 0 0 -1 0 1552)" d="M0 915.0411L1176 -283.7663L1176 -283.7663L1176 0L1176 0L0 0" stroke="none" fill="#FF387D" fill-rule="evenodd" fill-opacity="0.1960784" /></g></g><g clip-path="url(#80)"><g><path transform="matrix(1 0 0 -1 0 1552)" d="M0 3165L1176 1967L1176 1967L1176 -284L1176 -284L0 914" stroke="none" fill="url(#38251)" /><path transform="matrix(1 0 0 -1 0 1552)" d="M0 3164.335L1176 1965.528L1176 1965.528L1176 1552L1176 1552L0 1552" stroke="none" fill="#FFD800" fill-rule="evenodd" fill-opacity="0.1960784" /><path transform="matrix(1 0 0 -1 0 1552)" d="M0 915.3392L1176 -283.4682L1176 -283.4682L1176 0L1176 0L0 0" stroke="none" fill="#FF387D" fill-rule="evenodd" fill-opacity="0.1960784" /></g></g><g clip-path="url(#81)"><g><path transform="matrix(1 0 0 -1 0 1552)" d="M0 3165L1176 1966L1176 1966L1176 -284L1176 -284L0 915" stroke="none" fill="url(#38851)" /><path transform="matrix(1 0 0 -1 0 1552)" d="M0 3163.655L1176 1964.847L1176 1964.847L1176 1552L1176 1552L0 1552" stroke="none" fill="#FFD800" fill-rule="evenodd" fill-opacity="0.1960784" /><path transform="matrix(1 0 0 -1 0 1552)" d="M0 915.5953L1176 -283.2122L1176 -283.2122L1176 0L1176 0L0 0" stroke="none" fill="#FF387D" fill-rule="evenodd" fill-opacity="0.1960784" /></g></g></g></g><g><g clip-path="url(#82)"><g clip-path="url(#83)"><g><path transform="matrix(1 0 0 -1 0 1552)" d="M0 -56109L1176 180597L1176 180597L1176 16049L1176 16049L0 -220657" stroke="none" fill="url(#39567)" /><path transform="matrix(1 0 0 -1 0 1552)" d="M0 -56227.64L1176 180479L1176 180479L1176 1552L1176 1552L0 1552" stroke="none" fill="#560099" fill-rule="evenodd" fill-opacity="0.04705882" /><path transform="matrix(1 0 0 -1 0 1552)" d="M0 -220539L1176 16167.61L1176 16167.61L1176 0L1176 0L0 0" stroke="none" fill="#FF0A35" fill-rule="evenodd" fill-opacity="0.04705882" /></g></g><g clip-path="url(#84)"><g><path transform="matrix(1 0 0 -1 0 1552)" d="M0 -53463L1176 183244L1176 183244L1176 18696L1176 18696L0 -218011" stroke="none" fill="url(#40067)" /><path transform="matrix(1 0 0 -1 0 1552)" d="M0 -53580.99L1176 183125.6L1176 183125.6L1176 1552L1176 1552L0 1552" stroke="none" fill="#560099" fill-rule="evenodd" fill-opacity="0.04705882" /><path transform="matrix(1 0 0 -1 0 1552)" d="M0 -217892.4L1176 18814.27L1176 18814.27L1176 0L1176 0L0 0" stroke="none" fill="#FF0A35" fill-rule="evenodd" fill-opacity="0.04705882" /></g></g><g clip-path="url(#85)"><g><path transform="matrix(1 0 0 -1 0 1552)" d="M0 -50816L1176 185891L1176 185891L1176 21343L1176 21343L0 -215364" stroke="none" fill="url(#40561)" /><path transform="matrix(1 0 0 -1 0 1552)" d="M0 -50934.12L1176 185772.5L1176 185772.5L1176 1552L1176 1552L0 1552" stroke="none" fill="#560099" fill-rule="evenodd" fill-opacity="0.04705882" /><path transform="matrix(1 0 0 -1 0 1552)" d="M0 -215245.5L1176 21461.13L1176 21461.13L1176 0L1176 0L0 0" stroke="none" fill="#FF0A35" fill-rule="evenodd" fill-opacity="0.04705882" /></g></g><g clip-path="url(#86)"><g><path transform="matrix(1 0 0 -1 0 1552)" d="M0 -48169L1176 188538L1176 188538L1176 23989L1176 23989L0 -212717" stroke="none" fill="url(#41060)" /><path transform="matrix(1 0 0 -1 0 1552)" d="M0 -48287.31L1176 188419.6L1176 188419.6L1176 1552L1176 1552L0 1552" stroke="none" fill="#560099" fill-rule="evenodd" fill-opacity="0.04705882" /><path transform="matrix(1 0 0 -1 0 1552)" d="M0 -212599.1L1176 24107.83L1176 24107.83L1176 0L1176 0L0 0" stroke="none" fill="#FF0A35" fill-rule="evenodd" fill-opacity="0.04705882" /></g></g><g clip-path="url(#87)"><g><path transform="matrix(1 0 0 -1 0 1552)" d="M0 -45522L1176 191184L1176 191184L1176 26636L1176 26636L0 -210070" stroke="none" fill="url(#41558)" /><path transform="matrix(1 0 0 -1 0 1552)" d="M0 -45640.6L1176 191066L1176 191066L1176 1552L1176 1552L0 1552" stroke="none" fill="#560099" fill-rule="evenodd" fill-opacity="0.04705882" /><path transform="matrix(1 0 0 -1 0 1552)" d="M0 -209952L1176 26754.66L1176 26754.66L1176 0L1176 0L0 0" stroke="none" fill="#FF0A35" fill-rule="evenodd" fill-opacity="0.04705882" /></g></g><g clip-path="url(#88)"><g><path transform="matrix(1 0 0 -1 0 1552)" d="M0 -42875L1176 193831L1176 193831L1176 29283L1176 29283L0 -207423" stroke="none" fill="url(#42056)" /><path transform="matrix(1 0 0 -1 0 1552)" d="M0 -42993.73L1176 193712.9L1176 193712.9L1176 1552L1176 1552L0 1552" stroke="none" fill="#560099" fill-rule="evenodd" fill-opacity="0.04705882" /><path transform="matrix(1 0 0 -1 0 1552)" d="M0 -207305.1L1176 29401.52L1176 29401.52L1176 0L1176 0L0 0" stroke="none" fill="#FF0A35" fill-rule="evenodd" fill-opacity="0.04705882" /></g></g><g clip-path="url(#89)"><g><path transform="matrix(1 0 0 -1 0 1552)" d="M0 -40229L1176 196478L1176 196478L1176 31930L1176 31930L0 -204777" stroke="none" fill="url(#42553)" /><path transform="matrix(1 0 0 -1 0 1552)" d="M0 -40347.08L1176 196359.5L1176 196359.5L1176 1552L1176 1552L0 1552" stroke="none" fill="#560099" fill-rule="evenodd" fill-opacity="0.04705882" /><path transform="matrix(1 0 0 -1 0 1552)" d="M0 -204658.4L1176 32048.18L1176 32048.18L1176 0L1176 0L0 0" stroke="none" fill="#FF0A35" fill-rule="evenodd" fill-opacity="0.04705882" /></g></g><g clip-path="url(#90)"><g><path transform="matrix(1 0 0 -1 0 1552)" d="M0 -37582L1176 199125L1176 199125L1176 34577L1176 34577L0 -202130" stroke="none" fill="url(#43049)" /><path transform="matrix(1 0 0 -1 0 1552)" d="M0 -37700.21L1176 199006.4L1176 199006.4L1176 1552L1176 1552L0 1552" stroke="none" fill="#560099" fill-rule="evenodd" fill-opacity="0.04705882" /><path transform="matrix(1 0 0 -1 0 1552)" d="M0 -202011.6L1176 34695.04L1176 34695.04L1176 0L1176 0L0 0" stroke="none" fill="#FF0A35" fill-rule="evenodd" fill-opacity="0.04705882" /></g></g><g clip-path="url(#91)"><g><path transform="matrix(1 0 0 -1 0 1552)" d="M0 -34935L1176 201771L1176 201771L1176 37223L1176 37223L0 -199483" stroke="none" fill="url(#43543)" /><path transform="matrix(1 0 0 -1 0 1552)" d="M0 -35053.56L1176 201653.1L1176 201653.1L1176 1552L1176 1552L0 1552" stroke="none" fill="#560099" fill-rule="evenodd" fill-opacity="0.04705882" /><path transform="matrix(1 0 0 -1 0 1552)" d="M0 -199365L1176 37341.68L1176 37341.68L1176 0L1176 0L0 0" stroke="none" fill="#FF0A35" fill-rule="evenodd" fill-opacity="0.04705882" /></g></g><g clip-path="url(#92)"><g><path transform="matrix(1 0 0 -1 0 1552)" d="M0 -32288L1176 204418L1176 204418L1176 39870L1176 39870L0 -196836" stroke="none" fill="url(#44039)" /><path transform="matrix(1 0 0 -1 0 1552)" d="M0 -32406.69L1176 204300L1176 204300L1176 1552L1176 1552L0 1552" stroke="none" fill="#560099" fill-rule="evenodd" fill-opacity="0.04705882" /><path transform="matrix(1 0 0 -1 0 1552)" d="M0 -196718.1L1176 39988.55L1176 39988.55L1176 0L1176 0L0 0" stroke="none" fill="#FF0A35" fill-rule="evenodd" fill-opacity="0.04705882" /></g></g><g clip-path="url(#93)"><g><path transform="matrix(1 0 0 -1 0 1552)" d="M0 -29642L1176 207065L1176 207065L1176 42517L1176 42517L0 -194190" stroke="none" fill="url(#44535)" /><path transform="matrix(1 0 0 -1 0 1552)" d="M0 -29759.87L1176 206947.1L1176 206947.1L1176 1552L1176 1552L0 1552" stroke="none" fill="#560099" fill-rule="evenodd" fill-opacity="0.04705882" /><path transform="matrix(1 0 0 -1 0 1552)" d="M0 -194071.7L1176 42635.27L1176 42635.27L1176 0L1176 0L0 0" stroke="none" fill="#FF0A35" fill-rule="evenodd" fill-opacity="0.04705882" /></g></g><g clip-path="url(#94)"><g><path transform="matrix(1 0 0 -1 0 1552)" d="M0 -26995L1176 209712L1176 209712L1176 45164L1176 45164L0 -191543" stroke="none" fill="url(#45031)" /><path transform="matrix(1 0 0 -1 0 1552)" d="M0 -27113.17L1176 209593.5L1176 209593.5L1176 1552L1176 1552L0 1552" stroke="none" fill="#560099" fill-rule="evenodd" fill-opacity="0.04705882" /><path transform="matrix(1 0 0 -1 0 1552)" d="M0 -191424.5L1176 45282.07L1176 45282.07L1176 0L1176 0L0 0" stroke="none" fill="#FF0A35" fill-rule="evenodd" fill-opacity="0.04705882" /></g></g><g clip-path="url(#95)"><g><path transform="matrix(1 0 0 -1 0 1552)" d="M0 -24348L1176 212359L1176 212359L1176 47810L1176 47810L0 -188897" stroke="none" fill="url(#45525)" /><path transform="matrix(1 0 0 -1 0 1552)" d="M0 -24466.34L1176 212240.6L1176 212240.6L1176 1552L1176 1552L0 1552" stroke="none" fill="#560099" fill-rule="evenodd" fill-opacity="0.04705882" /><path transform="matrix(1 0 0 -1 0 1552)" d="M0 -188778.2L1176 47928.79L1176 47928.79L1176 0L1176 0L0 0" stroke="none" fill="#FF0A35" fill-rule="evenodd" fill-opacity="0.04705882" /></g></g><g clip-path="url(#96)"><g><path transform="matrix(1 0 0 -1 0 1552)" d="M0 -21701L1176 215005L1176 215005L1176 50457L1176 50457L0 -186249" stroke="none" fill="url(#46017)" /><path transform="matrix(1 0 0 -1 0 1552)" d="M0 -21819.65L1176 214887L1176 214887L1176 1552L1176 1552L0 1552" stroke="none" fill="#560099" fill-rule="evenodd" fill-opacity="0.04705882" /><path transform="matrix(1 0 0 -1 0 1552)" d="M0 -186131L1176 50575.59L1176 50575.59L1176 0L1176 0L0 0" stroke="none" fill="#FF0A35" fill-rule="evenodd" fill-opacity="0.04705882" /></g></g><g clip-path="url(#97)"><g><path transform="matrix(1 0 0 -1 0 1552)" d="M0 -19054L1176 217652L1176 217652L1176 53104L1176 53104L0 -183603" stroke="none" fill="url(#46512)" /><path transform="matrix(1 0 0 -1 0 1552)" d="M0 -19172.79L1176 217533.8L1176 217533.8L1176 1552L1176 1552L0 1552" stroke="none" fill="#560099" fill-rule="evenodd" fill-opacity="0.04705882" /><path transform="matrix(1 0 0 -1 0 1552)" d="M0 -183484.2L1176 53222.46L1176 53222.46L1176 0L1176 0L0 0" stroke="none" fill="#FF0A35" fill-rule="evenodd" fill-opacity="0.04705882" /></g></g><g clip-path="url(#98)"><g><path transform="matrix(1 0 0 -1 0 1552)" d="M0 -16408L1176 220299L1176 220299L1176 55751L1176 55751L0 -180956" stroke="none" fill="url(#47004)" /><path transform="matrix(1 0 0 -1 0 1552)" d="M0 -16526.13L1176 220180.5L1176 220180.5L1176 1552L1176 1552L0 1552" stroke="none" fill="#560099" fill-rule="evenodd" fill-opacity="0.04705882" /><path transform="matrix(1 0 0 -1 0 1552)" d="M0 -180837.5L1176 55869.11L1176 55869.11L1176 0L1176 0L0 0" stroke="none" fill="#FF0A35" fill-rule="evenodd" fill-opacity="0.04705882" /></g></g><g clip-path="url(#99)"><g><path transform="matrix(1 0 0 -1 0 1552)" d="M0 -13761L1176 222946L1176 222946L1176 58398L1176 58398L0 -178309" stroke="none" fill="url(#47494)" /><path transform="matrix(1 0 0 -1 0 1552)" d="M0 -13879.27L1176 222827.4L1176 222827.4L1176 1552L1176 1552L0 1552" stroke="none" fill="#560099" fill-rule="evenodd" fill-opacity="0.04705882" /><path transform="matrix(1 0 0 -1 0 1552)" d="M0 -178190.6L1176 58515.98L1176 58515.98L1176 0L1176 0L0 0" stroke="none" fill="#FF0A35" fill-rule="evenodd" fill-opacity="0.04705882" /></g></g></g></g></g><g clip-path="url(#100)"><g><path transform="matrix(1 0 0 -1 0 1552)" d="M0 1376L1176 1390L1176 1390L1176 1200L1176 1200L0 1186" stroke="none" fill="url(#48953)" /><path transform="matrix(1 0 0 -1 0 1552)" d="M0 1374.999L1176 1388.834L1176 1388.834L1176 1552L1176 1552L0 1552" stroke="none" fill="#4C216D" fill-rule="evenodd" /><path transform="matrix(1 0 0 -1 0 1552)" d="M0 1187.189L1176 1201.024L1176 1201.024L1176 0L1176 0L0 0" stroke="none" fill="#B83F54" fill-rule="evenodd" /></g></g><g clip-path="url(#101)"><g><path transform="matrix(1 0 0 -1 0 1552)" d="M0 1376L1176 1390L1176 1390L1176 1200L1176 1200L0 1186" stroke="none" fill="url(#49613)" /><path transform="matrix(1 0 0 -1 0 1552)" d="M0 1374.999L1176 1388.834L1176 1388.834L1176 1552L1176 1552L0 1552" stroke="none" fill="#4C216D" fill-rule="evenodd" /><path transform="matrix(1 0 0 -1 0 1552)" d="M0 1187.189L1176 1201.024L1176 1201.024L1176 0L1176 0L0 0" stroke="none" fill="#B83F54" fill-rule="evenodd" /></g></g><g clip-path="url(#102)"><g><path transform="matrix(1 0 0 -1 0 1552)" d="M0 1376L1176 1390L1176 1390L1176 1200L1176 1200L0 1186" stroke="none" fill="url(#51618)" /><path transform="matrix(1 0 0 -1 0 1552)" d="M0 1374.999L1176 1388.834L1176 1388.834L1176 1552L1176 1552L0 1552" stroke="none" fill="#4C216D" fill-rule="evenodd" /><path transform="matrix(1 0 0 -1 0 1552)" d="M0 1187.189L1176 1201.024L1176 1201.024L1176 0L1176 0L0 0" stroke="none" fill="#B83F54" fill-rule="evenodd" /></g></g><g clip-path="url(#103)"><g><path transform="matrix(1 0 0 -1 0 1552)" d="M0 1376L1176 1390L1176 1390L1176 1200L1176 1200L0 1186" stroke="none" fill="url(#52205)" /><path transform="matrix(1 0 0 -1 0 1552)" d="M0 1374.999L1176 1388.834L1176 1388.834L1176 1552L1176 1552L0 1552" stroke="none" fill="#4C216D" fill-rule="evenodd" /><path transform="matrix(1 0 0 -1 0 1552)" d="M0 1187.189L1176 1201.024L1176 1201.024L1176 0L1176 0L0 0" stroke="none" fill="#B83F54" fill-rule="evenodd" /></g></g><g clip-path="url(#104)"><g><g clip-path="url(#105)"><path transform="matrix(1 0 0 -1 0 1552)" d="M508.0974 866.8689C 474.7504 866.8689 449.6174 875.6309 431.2614 893.6549C 411.6144 912.9489 402.0624 940.6029 402.0624 978.1989L402.0624 978.1989L402.0624 1105.674C 402.0624 1143.32 411.6664 1170.95 431.4244 1190.142C 449.7734 1207.964 474.9764 1216.627 508.4754 1216.627C 541.8194 1216.627 566.9284 1207.951 585.2334 1190.104C 604.9344 1170.901 614.5114 1143.283 614.5114 1105.674L614.5114 1105.674L614.5114 978.1989C 614.5114 940.5669 604.9314 912.8999 585.2264 893.6179C 566.8304 875.6179 541.6014 866.8689 508.0974 866.8689z" stroke="#F1F1F2" stroke-width="1" fill="none" stroke-opacity="0.09803922" /><path transform="matrix(1 0 0 -1 0 1552)" d="M672.6423 866.8689C 638.3293 866.8689 611.3373 876.7099 592.4203 896.1169C 572.9113 916.1349 563.8483 943.5989 564.7153 980.0799L564.7153 980.0799L564.7153 1025.982L564.7153 1025.982L618.8063 1025.982L618.8063 1025.982L618.8063 1073.399L618.8063 1073.399L569.7753 1073.399L569.7753 1073.399L568.1693 1101.324C 566.0603 1137.953 574.7433 1166.855 593.9783 1187.228C 612.3943 1206.736 638.7333 1216.627 672.2643 1216.627C 706.2583 1216.627 733.0173 1207.105 751.7972 1188.327C 769.8853 1170.237 779.0563 1145.229 779.0563 1113.995C 779.0563 1092.562 773.7353 1072.786 763.9413 1057.362C 765.3503 1055.609 766.6953 1053.784 767.9643 1051.893C 779.5182 1034.705 785.1593 1012.37 784.7303 985.5079C 784.6403 910.1139 743.7893 866.8689 672.6423 866.8689z" stroke="#F1F1F2" stroke-width="1" fill="none" stroke-opacity="0.09803922" /></g></g><g><g clip-path="url(#106)"><path transform="matrix(1 0 0 -1 0 1552)" d="M508.0973 876.7434C 477.4663 876.7434 454.5973 884.5794 438.1813 900.7004C 420.5223 918.0414 411.9383 943.3914 411.9383 978.1994L411.9383 978.1994L411.9383 1105.673C 411.9383 1140.51 420.5623 1165.823 438.3063 1183.058C 454.7193 1199 477.6713 1206.75 508.4753 1206.75C 539.1163 1206.75 561.9683 1198.992 578.3393 1183.033C 596.0343 1165.785 604.6353 1140.48 604.6353 1105.673L604.6353 1105.673L604.6353 978.1994C 604.6353 943.3624 596.0273 918.0034 578.3203 900.6754C 561.8613 884.5724 538.8913 876.7434 508.0973 876.7434zM506.4763 957.9294C 506.7483 957.8904 507.1553 957.8554 507.7193 957.8554C 508.8763 957.8554 509.5223 957.9824 509.8073 958.0604C 510.3573 958.8864 512.8563 963.4644 512.2003 977.2614L512.2003 977.2614L512.1773 977.7214L512.1773 977.7214L512.1773 1106.152L512.1773 1106.152L512.2003 1106.629C 512.7843 1118.732 510.7603 1124.205 509.8683 1125.421C 509.5933 1125.499 508.9373 1125.64 507.7193 1125.64C 507.1223 1125.64 506.7013 1125.6 506.4253 1125.559C 505.7623 1124.325 503.7543 1119.468 504.3723 1106.624L504.3723 1106.624L504.3963 1106.152L504.3963 1106.152L504.3963 977.7214L504.3963 977.7214L504.3723 977.2434C 503.7533 964.2514 505.7533 959.2784 506.4763 957.9294z" stroke="#F1F1F2" stroke-width="1.5" fill="none" stroke-opacity="0.1568628" /><path transform="matrix(1 0 0 -1 0 1552)" d="M672.6425 876.7438C 641.0925 876.7438 616.4805 885.5807 599.4915 903.0098C 581.9155 921.0447 573.7695 946.2158 574.5915 979.9608L574.5915 979.9608L574.5915 1016.107L574.5915 1016.107L628.6825 1016.107L628.6825 1016.107L628.6825 1083.274L628.6825 1083.274L579.0995 1083.274L579.0995 1083.274L578.0285 1101.892C 576.0805 1135.7 583.8635 1162.131 601.1585 1180.449C 617.6355 1197.902 641.5595 1206.751 672.2645 1206.751C 703.5445 1206.751 727.9535 1198.203 744.8145 1181.344C 760.9825 1165.175 769.1815 1142.516 769.1815 1113.995C 769.1815 1091.435 762.6505 1070.85 751.3265 1056.646C 754.4165 1053.576 757.2385 1050.147 759.7695 1046.384C 770.1875 1030.885 775.2615 1010.432 774.8545 985.5917C 774.7985 915.3958 738.5005 876.7438 672.6425 876.7438zM663.6225 997.3098C 663.7965 993.7288 663.8385 990.1877 663.8845 986.4398C 664.0065 976.4028 664.4455 965.4797 666.7605 960.5867C 667.4535 959.1207 668.0525 957.8547 673.7775 957.8547C 678.8975 957.8547 679.1925 958.6627 680.0685 961.0618C 682.4125 967.4808 682.4035 979.3597 682.3965 989.8387L682.3965 989.8387L682.3955 991.8127C 682.3955 1003.843 681.1205 1008.155 680.7035 1009.244C 679.9925 1009.792 677.3335 1011.412 669.7645 1012.42C 667.4945 1012.723 665.1535 1012.921 662.8625 1013.051L662.8625 1013.051L663.6225 997.3098zM667.0495 1095.292C 669.5275 1095.578 671.7305 1096.031 673.4995 1096.78C 675.6535 1097.823 678.2355 1099.435 678.2355 1113.617C 678.2355 1123.21 676.3475 1125.272 676.3285 1125.29C 676.2105 1125.35 675.4775 1125.641 672.6425 1125.641C 668.9605 1125.641 667.5975 1124.942 667.3155 1124.768C 667.1405 1124.323 667.0765 1123.245 667.0495 1122.65L667.0495 1122.65L667.0495 1095.292z" stroke="#F1F1F2" stroke-width="1.5" fill="none" stroke-opacity="0.1568628" /></g></g><g><g clip-path="url(#107)"><path transform="matrix(1 0 0 -1 0 1552)" d="M508.0974 886.6194C 480.1844 886.6194 459.5774 893.5314 445.1014 907.7464C 429.4304 923.1354 421.8134 946.1804 421.8134 978.1994L421.8134 978.1994L421.8134 1105.673C 421.8134 1137.702 429.4594 1160.697 445.1874 1175.974C 459.6654 1190.038 480.3674 1196.875 508.4754 1196.875C 536.4124 1196.875 557.0104 1190.035 571.4464 1175.962C 587.1344 1160.669 594.7604 1137.677 594.7604 1105.673L594.7604 1105.673L594.7604 978.1994C 594.7604 946.1573 587.1224 923.1074 571.4124 907.7344C 556.8924 893.5273 536.1814 886.6194 508.0974 886.6194zM507.7194 1135.515C 502.7284 1135.515 500.6284 1133.917 499.4824 1132.715C 497.2594 1130.382 493.6574 1123.829 494.5094 1106.149L494.5094 1106.149L494.5204 1105.911L494.5204 1105.911L494.5204 977.9644L494.5204 977.9644L494.5094 977.7303C 493.6534 959.7444 497.2874 953.1124 499.5304 950.7594C 500.6674 949.5664 502.7544 947.9794 507.7194 947.9794C 513.2374 947.9794 515.5794 949.7674 516.8624 951.1134C 520.8354 955.2794 522.6824 964.7324 522.0644 977.7303L522.0644 977.7303L522.0524 977.9644L522.0524 977.9644L522.0524 1105.911L522.0524 1105.911L522.0644 1106.149C 522.6794 1118.92 520.8504 1128.23 516.9134 1132.362C 515.6224 1133.715 513.2674 1135.515 507.7194 1135.515z" stroke="#F1F1F2" stroke-width="2" fill="none" stroke-opacity="0.2470588" /><path transform="matrix(1 0 0 -1 0 1552)" d="M672.6423 886.6199C 643.8553 886.6199 621.6233 894.4539 606.5643 909.9029C 590.9203 925.9539 583.6923 948.8289 584.4662 979.8379L584.4662 979.8379L584.4662 1006.231L584.4662 1006.231L653.3043 1006.231L653.3043 1006.231L653.7583 996.8329C 653.9223 993.4429 653.9653 989.9819 654.0093 986.3209C 654.3613 957.5529 657.2673 947.9789 673.7773 947.9789C 683.7593 947.9789 687.2203 951.8549 689.3443 957.6739C 692.2883 965.7369 692.2813 977.9939 692.2723 989.8469L692.2723 989.8469L692.2713 991.8169C 692.2713 1007.558 690.2242 1013.317 688.5073 1015.378C 681.9693 1023.173 661.1883 1023.173 651.2013 1023.173L651.2013 1023.173L638.5583 1023.172L638.5583 1023.172L638.5583 1083.874L638.5583 1083.874L647.7543 1084.509C 650.7263 1084.714 653.7213 1084.789 656.6203 1084.861C 664.4083 1085.056 671.7673 1085.24 677.6003 1087.794C 685.3583 1091.517 688.1103 1098.296 688.1103 1113.617C 688.1103 1133.841 680.7933 1135.516 672.6423 1135.516C 657.9423 1135.516 657.3542 1127.111 657.1733 1122.866L657.1733 1122.866L657.1733 1093.15L657.1733 1093.15L588.4222 1093.15L588.4222 1093.15L587.8873 1102.459C 586.1033 1133.446 592.9843 1157.405 608.3393 1173.669C 622.8773 1189.067 644.3843 1196.876 672.2643 1196.876C 700.8303 1196.876 722.8913 1189.3 737.8303 1174.36C 752.0803 1160.111 759.3053 1139.802 759.3053 1113.995C 759.3053 1093.432 753.0583 1069.429 736.8593 1055.835C 742.5153 1052.001 747.4643 1046.986 751.5743 1040.874C 760.8533 1027.067 765.3643 1008.499 764.9792 985.6789C 764.9523 920.8708 733.0233 886.6199 672.6423 886.6199z" stroke="#F1F1F2" stroke-width="2" fill="none" stroke-opacity="0.2470588" /></g></g><path transform="matrix(1 0 0 -1 0 1552)" d="M431.6892 1105.674C 431.6892 1165.816 460.4362 1187 508.4762 1187C 556.1372 1187 584.8842 1165.816 584.8842 1105.674L584.8842 1105.674L584.8842 978.199C 584.8842 918.055 556.1372 896.495 508.0982 896.495C 460.4362 896.495 431.6892 918.055 431.6892 978.199L431.6892 978.199L431.6892 1105.674zM484.6452 978.199C 483.1322 946.426 494.1022 938.104 507.7192 938.104C 521.7152 938.104 533.4422 946.426 531.9282 978.199L531.9282 978.199L531.9282 1105.674C 533.4422 1137.069 521.7152 1145.391 507.7192 1145.391C 494.1022 1145.391 483.1322 1137.069 484.6452 1105.674L484.6452 1105.674L484.6452 978.199z" stroke="#F1F1F2" stroke-width="2" fill="none" /><path transform="matrix(1 0 0 -1 0 1552)" d="M648.4333 1074.656C 659.4033 1075.413 671.5073 1074.278 681.7203 1078.817C 696.0953 1085.626 697.9863 1099.621 697.9863 1113.617C 697.9863 1135.178 690.0423 1145.391 672.6423 1145.391C 661.6733 1145.391 648.0553 1141.23 647.2983 1123.074L647.2983 1123.074L647.2983 1103.025L647.2983 1103.025L597.7463 1103.025C 594.7203 1155.604 618.1733 1187 672.2643 1187C 725.5993 1187 749.4303 1159.009 749.4303 1113.995C 749.4303 1089.408 739.9733 1059.525 712.3603 1055.365L712.3603 1055.365L712.3603 1054.608C 737.3263 1051.582 755.8603 1029.265 755.1033 985.764C 755.1033 930.16 730.8953 896.495 672.6423 896.495C 599.2603 896.495 593.5853 950.209 594.3423 979.713L594.3423 979.713L594.3423 996.355L594.3423 996.355L643.8953 996.355C 645.0293 972.904 640.1123 938.104 673.7783 938.104C 702.9043 938.104 702.1473 965.339 702.1473 991.817C 702.1473 1000.517 701.7683 1014.89 696.0953 1021.699C 686.2593 1033.426 663.1863 1033.048 648.4333 1033.048L648.4333 1033.048L648.4333 1074.656z" stroke="#F1F1F2" stroke-width="2" fill="none" /></g></g></g></g><defs><clipPath id="1"><path d="M0 1552L0 -0.3900146L0 -0.3900146L1176.34 -0.3900146L1176.34 -0.3900146L1176.34 1552L1176.34 1552L0 1552z" /></clipPath><clipPath id="2"><path d="M0 -0.3869629L1176.341 -0.3869629L1176.341 -0.3869629L1176.341 1552L1176.341 1552L0 1552z" /></clipPath><clipPath id="3"><path d="M-347.486 2037.468L-1405.285 2037.468L-1405.285 2037.468L-1405.285 1962.79L-1405.285 1962.79L-347.486 1962.79z" /></clipPath><clipPath id="4"><path d="M-347.486 2751.359L-1405.285 2751.359L-1405.285 2751.359L-1405.285 1361.478L-1405.285 1361.478L-347.486 1361.478z" /></clipPath><clipPath id="5"><path d="M-78.706 1902.682L-475.631 3047.681L-475.631 3047.681L-1558.353 2730.022L-1558.353 2730.022L-1883.771 1650.274L-1883.771 1650.274L-796.424 778.319L-796.424 778.319L-184.708 1591.786z" /></clipPath><clipPath id="6"><path d="M-1664.71 1139.489L27.85608 1139.489L27.85608 1139.489L27.85608 2344.896L27.85608 2344.896L-1664.71 2344.896z" /></clipPath><clipPath id="7"><path d="M-898.597 2312.828L-899.337 2312.053L-899.337 2312.053L-1649.134 1559.267L-1649.134 1559.267L-1647.624 1557.736L-1647.624 1557.736L-898.568 2309.739L-898.568 2309.739L11.103 1382.229L11.103 1382.229L12.584 1383.788z" /></clipPath><linearGradient transform="matrix(1 0 0 1 0 0)" id="1795" x1="-1334.083" y1="509.9758" x2="-1334.083509.9758" y2="-1334.083953.0705"><stop stop-color="#FFD800" offset="0%" /><stop stop-color="#FF387D" offset="100%" /></linearGradient><clipPath id="8"><path d="M-898.906 2344.896L-899.645 2344.112L-899.645 2344.112L-1664.713 1575.152L-1664.713 1575.152L-1663.211 1573.62L-1663.211 1573.62L-898.876 2341.805L-898.876 2341.805L26.383 1398.41L26.383 1398.41L27.856 1399.97z" /></clipPath><linearGradient transform="matrix(1 0 0 1 0 0)" id="2435" x1="-1325.885" y1="501.4425" x2="-1325.885501.4425" y2="-1325.885952.674"><stop stop-color="#FFD800" offset="0%" /><stop stop-color="#FF387D" offset="100%" /></linearGradient><clipPath id="9"><path d="M-218.978 -110.785L-1404.115 -110.785L-1404.115 -110.785L-1404.115 -1753.413L-1404.115 -1753.413L-218.978 -1753.413z" /></clipPath><clipPath id="10"><path d="M-1540.12 -1912.35L116.816 -1912.35L116.816 -1912.35L116.816 257.97L116.816 257.97L-1540.12 257.97z" /></clipPath><clipPath id="11"><path d="M-1540.121 -883.9231L-441.53 257.965L-441.53 257.965L116.816 -322.353L116.816 -322.353L-1412.924 -1912.352z" /></clipPath><linearGradient transform="matrix(1 0 0 1 0 0)" id="3406" x1="-783.358" y1="3440.698" x2="-783.3583440.698" y2="-783.3582305.04"><stop stop-color="#4C216D" offset="0%" /><stop stop-color="#B83F54" offset="100%" /></linearGradient><clipPath id="12"><path d="M-1854.77 -1423.22L181.597 -1423.22L181.597 -1423.22L181.597 53.71997L181.597 53.71997L-1854.77 53.71997z" /></clipPath><clipPath id="13"><path d="M-936.747 14.64001L-937.658 13.703L-937.658 13.703L-1835.973 -919.9971L-1835.973 -919.9971L-1834.151 -921.8811L-1834.151 -921.8811L-936.747 10.87305L-936.747 10.87305L160.973 -1130.089L160.973 -1130.089L162.797 -1128.205z" /></clipPath><linearGradient transform="matrix(1 0 0 1 0 0)" id="4269" x1="-1464.001" y1="3092.671" x2="-1464.0013092.671" y2="-1464.0011165.603"><stop stop-color="#FFD800" offset="0%" /><stop stop-color="#FF387D" offset="100%" /></linearGradient><clipPath id="14"><path d="M-936.747 53.72205L-937.658 52.77502L-937.658 52.77502L-1854.773 -900.4561L-1854.773 -900.4561L-1852.961 -902.3401L-1852.961 -902.3401L-936.747 49.95496L-936.747 49.95496L179.785 -1110.548L179.785 -1110.548L181.596 -1108.665z" /></clipPath><linearGradient transform="matrix(1 0 0 1 0 0)" id="4901" x1="-1454.425" y1="3082.353" x2="-1454.4253082.353" y2="-1454.4251165.615"><stop stop-color="#FFD800" offset="0%" /><stop stop-color="#FF387D" offset="100%" /></linearGradient><clipPath id="15"><path d="M1058.028 2469.285L0.2290039 2469.285L0.2290039 2469.285L0.2290039 2394.607L0.2290039 2394.607L1058.028 2394.607z" /></clipPath><clipPath id="16"><path d="M1058.028 3183.176L0.2290039 3183.176L0.2290039 3183.176L0.2290039 1793.294L0.2290039 1793.294L1058.028 1793.294z" /></clipPath><clipPath id="17"><path d="M1326.807 2334.499L929.883 3479.497L929.883 3479.497L-152.839 3161.839L-152.839 3161.839L-478.257 2082.09L-478.257 2082.09L609.09 1210.136L609.09 1210.136L1220.806 2023.603z" /></clipPath><clipPath id="18"><path d="M73.0686 1070.3L957.815 1070.3L957.815 1070.3L957.815 1998.637L957.815 1998.637L73.0686 1998.637z" /></clipPath><clipPath id="19"><path d="M956.157 1810.043L255.656 1072.004L255.656 1072.004L257.314 1070.3L257.314 1070.3L957.815 1808.339z" /></clipPath><linearGradient transform="matrix(1 0 0 1 0 0)" id="6451" x1="253.8355" y1="113.5814" x2="253.8355113.5814" y2="253.83553.50647"><stop stop-color="#560099" offset="0%" /><stop stop-color="#FF0A35" offset="100%" /></linearGradient><clipPath id="20"><path d="M944.745 1821.829L244.245 1083.791L244.245 1083.791L245.903 1082.087L245.903 1082.087L946.404 1820.126z" /></clipPath><linearGradient transform="matrix(1 0 0 1 0 0)" id="6981" x1="242.4243" y1="101.795" x2="242.4243101.795" y2="242.42433.50647"><stop stop-color="#560099" offset="0%" /><stop stop-color="#FF0A35" offset="100%" /></linearGradient><clipPath id="21"><path d="M933.334 1833.616L232.833 1095.577L232.833 1095.577L234.491 1093.874L234.491 1093.874L934.992 1831.912z" /></clipPath><linearGradient transform="matrix(1 0 0 1 0 0)" id="7509" x1="231.0122" y1="90.00816" x2="231.012290.00816" y2="231.01223.50647"><stop stop-color="#560099" offset="0%" /><stop stop-color="#FF0A35" offset="100%" /></linearGradient><clipPath id="22"><path d="M921.922 1845.404L221.421 1107.364L221.421 1107.364L223.08 1105.659L223.08 1105.659L923.581 1843.699z" /></clipPath><linearGradient transform="matrix(1 0 0 1 0 0)" id="8037" x1="219.6001" y1="78.22176" x2="219.600178.22176" y2="219.60013.506477"><stop stop-color="#560099" offset="0%" /><stop stop-color="#FF0A35" offset="100%" /></linearGradient><clipPath id="23"><path d="M910.51 1857.189L210.009 1119.15L210.009 1119.15L211.668 1117.447L211.668 1117.447L912.169 1855.486z" /></clipPath><linearGradient transform="matrix(1 0 0 1 0 0)" id="8565" x1="208.1889" y1="66.43537" x2="208.188966.43537" y2="208.18893.50647"><stop stop-color="#560099" offset="0%" /><stop stop-color="#FF0A35" offset="100%" /></linearGradient><clipPath id="24"><path d="M899.098 1868.976L198.597 1130.947L198.597 1130.947L200.257 1129.242L200.257 1129.242L900.757 1867.272z" /></clipPath><linearGradient transform="matrix(1 0 0 1 0 0)" id="9095" x1="196.7768" y1="54.64413" x2="196.776854.64413" y2="196.77683.50647"><stop stop-color="#560099" offset="0%" /><stop stop-color="#FF0A35" offset="100%" /></linearGradient><clipPath id="25"><path d="M887.686 1880.762L187.186 1142.733L187.186 1142.733L188.844 1141.029L188.844 1141.029L889.345 1879.059z" /></clipPath><linearGradient transform="matrix(1 0 0 1 0 0)" id="9625" x1="185.3656" y1="42.85774" x2="185.365642.85774" y2="185.36563.50647"><stop stop-color="#560099" offset="0%" /><stop stop-color="#FF0A35" offset="100%" /></linearGradient><clipPath id="26"><path d="M876.274 1892.549L175.774 1154.51L175.774 1154.51L177.432 1152.805L177.432 1152.805L877.933 1890.844z" /></clipPath><linearGradient transform="matrix(1 0 0 1 0 0)" id="10153" x1="173.9535" y1="31.07619" x2="173.953531.07619" y2="173.95353.506468"><stop stop-color="#560099" offset="0%" /><stop stop-color="#FF0A35" offset="100%" /></linearGradient><clipPath id="27"><path d="M864.862 1904.334L164.363 1166.305L164.363 1166.305L166.021 1164.602L166.021 1164.602L866.522 1902.631z" /></clipPath><linearGradient transform="matrix(1 0 0 1 0 0)" id="10685" x1="162.5423" y1="19.28495" x2="162.542319.28495" y2="162.54233.506467"><stop stop-color="#560099" offset="0%" /><stop stop-color="#FF0A35" offset="100%" /></linearGradient><clipPath id="28"><path d="M853.451 1916.131L152.951 1178.092L152.951 1178.092L154.609 1176.388L154.609 1176.388L855.11 1914.427z" /></clipPath><linearGradient transform="matrix(1 0 0 1 0 0)" id="11216" x1="151.1302" y1="7.493721" x2="151.13027.493721" y2="151.13023.506466"><stop stop-color="#560099" offset="0%" /><stop stop-color="#FF0A35" offset="100%" /></linearGradient><clipPath id="29"><path d="M842.039 1927.908L141.539 1189.878L141.539 1189.878L143.198 1188.175L143.198 1188.175L843.699 1926.204z" /></clipPath><linearGradient transform="matrix(1 0 0 1 0 0)" id="11748" x1="139.7181" y1="-4.287827" x2="139.7181-4.287827" y2="139.71813.506471"><stop stop-color="#560099" offset="0%" /><stop stop-color="#FF0A35" offset="100%" /></linearGradient><clipPath id="30"><path d="M830.628 1939.695L130.128 1201.665L130.128 1201.665L131.786 1199.96L131.786 1199.96L832.287 1937.991z" /></clipPath><linearGradient transform="matrix(1 0 0 1 0 0)" id="12280" x1="128.3069" y1="-16.07422" x2="128.3069-16.07422" y2="128.30693.506468"><stop stop-color="#560099" offset="0%" /><stop stop-color="#FF0A35" offset="100%" /></linearGradient><clipPath id="31"><path d="M819.216 1951.49L118.716 1213.451L118.716 1213.451L120.375 1211.747L120.375 1211.747L820.876 1949.786z" /></clipPath><linearGradient transform="matrix(1 0 0 1 0 0)" id="12813" x1="116.8948" y1="-27.86546" x2="116.8948-27.86546" y2="116.89483.506472"><stop stop-color="#560099" offset="0%" /><stop stop-color="#FF0A35" offset="100%" /></linearGradient><clipPath id="32"><path d="M807.804 1963.277L107.304 1225.238L107.304 1225.238L108.963 1223.533L108.963 1223.533L809.464 1961.573z" /></clipPath><linearGradient transform="matrix(1 0 0 1 0 0)" id="13347" x1="105.4836" y1="-39.65185" x2="105.4836-39.65185" y2="105.48363.50647"><stop stop-color="#560099" offset="0%" /><stop stop-color="#FF0A35" offset="100%" /></linearGradient><clipPath id="33"><path d="M796.392 1975.063L95.892 1237.025L95.892 1237.025L97.551 1235.321L97.551 1235.321L798.051 1973.36z" /></clipPath><linearGradient transform="matrix(1 0 0 1 0 0)" id="13875" x1="94.07149" y1="-51.43824" x2="94.07149-51.43824" y2="94.071493.50647"><stop stop-color="#560099" offset="0%" /><stop stop-color="#FF0A35" offset="100%" /></linearGradient><clipPath id="34"><path d="M784.98 1986.85L84.481 1248.811L84.481 1248.811L86.139 1247.107L86.139 1247.107L786.64 1985.146z" /></clipPath><linearGradient transform="matrix(1 0 0 1 0 0)" id="14401" x1="82.6603" y1="-63.22512" x2="82.6603-63.22512" y2="82.66033.50647"><stop stop-color="#560099" offset="0%" /><stop stop-color="#FF0A35" offset="100%" /></linearGradient><clipPath id="35"><path d="M773.569 1998.637L73.069 1260.597L73.069 1260.597L74.727 1258.893L74.727 1258.893L775.228 1996.932z" /></clipPath><linearGradient transform="matrix(1 0 0 1 0 0)" id="14927" x1="71.24819" y1="-75.01151" x2="71.24819-75.01151" y2="71.248193.50647"><stop stop-color="#560099" offset="0%" /><stop stop-color="#FF0A35" offset="100%" /></linearGradient><clipPath id="36"><path d="M2481.07 2036.807L1423.27 2036.807L1423.27 2036.807L1423.27 1962.129L1423.27 1962.129L2481.07 1962.129z" /></clipPath><clipPath id="37"><path d="M2481.07 2750.698L1423.27 2750.698L1423.27 2750.698L1423.27 1360.817L1423.27 1360.817L2481.07 1360.817z" /></clipPath><clipPath id="38"><path d="M2749.849 1902.021L2352.925 3047.02L2352.925 3047.02L1270.203 2729.361L1270.203 2729.361L944.785 1649.613L944.785 1649.613L2032.132 777.657L2032.132 777.657L2643.848 1591.125z" /></clipPath><clipPath id="39"><path d="M1163.84 1138.828L2856.41 1138.828L2856.41 1138.828L2856.41 2344.234L2856.41 2344.234L1163.84 2344.234z" /></clipPath><clipPath id="40"><path d="M1929.65 2344.235L1928.911 2343.45L1928.911 2343.45L1163.843 1574.49L1163.843 1574.49L1165.344 1572.959L1165.344 1572.959L1929.68 2341.144L1929.68 2341.144L2854.94 1397.749L2854.94 1397.749L2856.412 1399.308z" /></clipPath><linearGradient transform="matrix(1 0 0 1 0 0)" id="16573" x1="1502.671" y1="502.1037" x2="1502.671502.1037" y2="1502.671952.674"><stop stop-color="#FFD800" offset="0%" /><stop stop-color="#FF387D" offset="100%" /></linearGradient><clipPath id="41"><path d="M-183.103 1592.425L-1408.285 1592.425L-1408.285 1592.425L-1408.285 -17.38696L-1408.285 -17.38696L-183.103 -17.38696z" /></clipPath><clipPath id="42"><path d="M128.208 609.456L-331.526 1935.636L-331.526 1935.636L-1585.574 1567.712L-1585.574 1567.712L-1962.485 317.108L-1962.485 317.108L-703.079 -692.823L-703.079 -692.823L5.432 249.365z" /></clipPath><clipPath id="43"><path d="M-1967.98 312.88L331.55 312.88L331.55 312.88L331.55 1650.512L331.55 1650.512L-1967.98 1650.512z" /></clipPath><clipPath id="44"><path d="M-1406.162 1650.512L245.276 1646.976L245.276 1646.976L331.55 312.879L331.55 312.879L-1967.982 317.823z" /></clipPath><linearGradient transform="matrix(1 0 0 1 0 0)" id="17857" x1="-1639.539" y1="1514.291" x2="-1639.5391514.291" y2="-1639.5391721.157"><stop stop-color="#4C216D" offset="0%" /><stop stop-color="#B83F54" offset="100%" /></linearGradient><clipPath id="45"><path d="M-1708.76 -274.5L251.632 -274.5L251.632 -274.5L251.632 1121.645L251.632 1121.645L-1708.76 1121.645z" /></clipPath><clipPath id="46"><path d="M-816.784 601.642L-817.64 600.743L-817.64 600.743L-1456.115 -27.50598L-1456.115 -27.50598L-1454.366 -29.27795L-1454.366 -29.27795L-816.749 598.063L-816.749 598.063L2.262 -237.017L2.262 -237.017L3.976 -235.212z" /></clipPath><linearGradient transform="matrix(1 0 0 1 0 0)" id="18731" x1="-1451.354" y1="2067.937" x2="-1451.3542067.937" y2="-1451.3541111.89"><stop stop-color="#FFD800" offset="0%" /><stop stop-color="#FF387D" offset="100%" /></linearGradient><clipPath id="47"><path d="M-817.14 638.783L-817.996 637.885L-817.996 637.885L-1474.159 -9.105957L-1474.159 -9.105957L-1472.411 -10.87903L-1472.411 -10.87903L-817.106 635.204L-817.106 635.204L19.951 -218.276L19.951 -218.276L21.665 -216.469z" /></clipPath><linearGradient transform="matrix(1 0 0 1 0 0)" id="19363" x1="-1441.529" y1="2058.053" x2="-1441.5292058.053" y2="-1441.5291111.112"><stop stop-color="#FFD800" offset="0%" /><stop stop-color="#FF387D" offset="100%" /></linearGradient><clipPath id="48"><path d="M-817.497 675.924L-818.353 675.016L-818.353 675.016L-1492.205 9.292969L-1492.205 9.292969L-1490.456 7.519043L-1490.456 7.519043L-817.462 672.344L-817.462 672.344L37.639 -199.5341L37.639 -199.5341L39.353 -197.7271z" /></clipPath><linearGradient transform="matrix(1 0 0 1 0 0)" id="19996" x1="-1431.747" y1="2048.168" x2="-1431.7472048.168" y2="-1431.7471110.375"><stop stop-color="#FFD800" offset="0%" /><stop stop-color="#FF387D" offset="100%" /></linearGradient><clipPath id="49"><path d="M-817.854 713.075L-818.71 712.166L-818.71 712.166L-1510.26 27.70105L-1510.26 27.70105L-1508.51 25.92798L-1508.51 25.92798L-817.819 709.495L-817.819 709.495L55.337 -180.782L55.337 -180.782L57.05 -178.976z" /></clipPath><linearGradient transform="matrix(1 0 0 1 0 0)" id="20619" x1="-1421.991" y1="2038.278" x2="-1421.9912038.278" y2="-1421.9911109.665"><stop stop-color="#FFD800" offset="0%" /><stop stop-color="#FF387D" offset="100%" /></linearGradient><clipPath id="50"><path d="M-818.21 750.216L-819.067 749.308L-819.067 749.308L-1528.305 46.09094L-1528.305 46.09094L-1526.555 44.31799L-1526.555 44.31799L-818.176 746.636L-818.176 746.636L73.025 -162.05L73.025 -162.05L74.739 -160.244z" /></clipPath><linearGradient transform="matrix(1 0 0 1 0 0)" id="21246" x1="-1412.267" y1="2028.397" x2="-1412.2672028.397" y2="-1412.2671108.984"><stop stop-color="#FFD800" offset="0%" /><stop stop-color="#FF387D" offset="100%" /></linearGradient><clipPath id="51"><path d="M-818.567 787.346L-819.424 786.448L-819.424 786.448L-1546.349 64.48901L-1546.349 64.48901L-1544.6 62.71594L-1544.6 62.71594L-818.533 783.767L-818.533 783.767L90.714 -143.307L90.714 -143.307L92.427 -141.502z" /></clipPath><linearGradient transform="matrix(1 0 0 1 0 0)" id="21872" x1="-1402.569" y1="2018.512" x2="-1402.5692018.512" y2="-1402.5691108.324"><stop stop-color="#FFD800" offset="0%" /><stop stop-color="#FF387D" offset="100%" /></linearGradient><clipPath id="52"><path d="M-818.924 824.497L-819.78 823.599L-819.78 823.599L-1564.394 82.89795L-1564.394 82.89795L-1562.646 81.125L-1562.646 81.125L-818.889 820.918L-818.889 820.918L108.402 -124.556L108.402 -124.556L110.116 -122.75z" /></clipPath><linearGradient transform="matrix(1 0 0 1 0 0)" id="22498" x1="-1392.89" y1="2008.615" x2="-1392.892008.615" y2="-1392.891107.687"><stop stop-color="#FFD800" offset="0%" /><stop stop-color="#FF387D" offset="100%" /></linearGradient><clipPath id="53"><path d="M-819.281 861.648L-820.137 860.749L-820.137 860.749L-1582.439 101.297L-1582.439 101.297L-1580.691 99.52405L-1580.691 99.52405L-819.246 858.069L-819.246 858.069L126.091 -105.814L126.091 -105.814L127.804 -104.0081z" /></clipPath><linearGradient transform="matrix(1 0 0 1 0 0)" id="23127" x1="-1383.239" y1="1998.729" x2="-1383.2391998.729" y2="-1383.2391107.081"><stop stop-color="#FFD800" offset="0%" /><stop stop-color="#FF387D" offset="100%" /></linearGradient><clipPath id="54"><path d="M-819.637 898.779L-820.493 897.871L-820.493 897.871L-1600.485 119.696L-1600.485 119.696L-1598.736 117.922L-1598.736 117.922L-819.603 895.199L-819.603 895.199L143.778 -87.07202L143.778 -87.07202L145.493 -85.26501z" /></clipPath><linearGradient transform="matrix(1 0 0 1 0 0)" id="23759" x1="-1373.622" y1="1988.839" x2="-1373.6221988.839" y2="-1373.6221106.496"><stop stop-color="#FFD800" offset="0%" /><stop stop-color="#FF387D" offset="100%" /></linearGradient><clipPath id="55"><path d="M-819.994 935.93L-820.842 935.022L-820.842 935.022L-1618.53 138.095L-1618.53 138.095L-1616.781 136.322L-1616.781 136.322L-819.959 932.351L-819.959 932.351L161.466 -68.32996L161.466 -68.32996L163.181 -66.52405z" /></clipPath><linearGradient transform="matrix(1 0 0 1 0 0)" id="24388" x1="-1364.019" y1="1978.952" x2="-1364.0191978.952" y2="-1364.0191105.938"><stop stop-color="#FFD800" offset="0%" /><stop stop-color="#FF387D" offset="100%" /></linearGradient><clipPath id="56"><path d="M-820.351 973.08L-821.199 972.173L-821.199 972.173L-1636.584 156.4919L-1636.584 156.4919L-1634.835 154.72L-1634.835 154.72L-820.316 969.501L-820.316 969.501L179.164 -49.58801L179.164 -49.58801L180.879 -47.78198z" /></clipPath><linearGradient transform="matrix(1 0 0 1 0 0)" id="25019" x1="-1354.433" y1="1969.06" x2="-1354.4331969.06" y2="-1354.4331105.387"><stop stop-color="#FFD800" offset="0%" /><stop stop-color="#FF387D" offset="100%" /></linearGradient><clipPath id="57"><path d="M-820.707 1010.212L-821.564 1009.314L-821.564 1009.314L-1654.629 174.892L-1654.629 174.892L-1652.88 173.119L-1652.88 173.119L-820.673 1006.632L-820.673 1006.632L196.852 -30.84497L196.852 -30.84497L198.567 -29.04004z" /></clipPath><linearGradient transform="matrix(1 0 0 1 0 0)" id="25652" x1="-1344.876" y1="1959.173" x2="-1344.8761959.173" y2="-1344.8761104.864"><stop stop-color="#FFD800" offset="0%" /><stop stop-color="#FF387D" offset="100%" /></linearGradient><clipPath id="58"><path d="M-821.064 1047.353L-821.921 1046.454L-821.921 1046.454L-1672.674 193.291L-1672.674 193.291L-1670.926 191.519L-1670.926 191.519L-821.03 1043.774L-821.03 1043.774L214.54 -12.104L214.54 -12.104L216.256 -10.29797z" /></clipPath><linearGradient transform="matrix(1 0 0 1 0 0)" id="26281" x1="-1335.341" y1="1949.283" x2="-1335.3411949.283" y2="-1335.3411104.364"><stop stop-color="#FFD800" offset="0%" /><stop stop-color="#FF387D" offset="100%" /></linearGradient><clipPath id="59"><path d="M-821.421 1084.503L-822.277 1083.605L-822.277 1083.605L-1690.719 211.7L-1690.719 211.7L-1688.971 209.926L-1688.971 209.926L-821.387 1080.924L-821.387 1080.924L232.228 6.647949L232.228 6.647949L233.943 8.454956z" /></clipPath><linearGradient transform="matrix(1 0 0 1 0 0)" id="26911" x1="-1325.817" y1="1939.389" x2="-1325.8171939.389" y2="-1325.8171103.881"><stop stop-color="#FFD800" offset="0%" /><stop stop-color="#FF387D" offset="100%" /></linearGradient><clipPath id="60"><path d="M-821.778 1121.645L-822.634 1120.736L-822.634 1120.736L-1708.764 230.099L-1708.764 230.099L-1707.025 228.325L-1707.025 228.325L-821.743 1118.065L-821.743 1118.065L249.926 25.39099L249.926 25.39099L251.632 27.19702z" /></clipPath><linearGradient transform="matrix(1 0 0 1 0 0)" id="27545" x1="-1316.32" y1="1929.506" x2="-1316.321929.506" y2="-1316.321103.422"><stop stop-color="#FFD800" offset="0%" /><stop stop-color="#FF387D" offset="100%" /></linearGradient><clipPath id="61"><path d="M0 1552L1176.34 1552L1176.34 1552L1176.34 -0.3869629L1176.34 -0.3869629L0 -0.3869629z" /></clipPath><clipPath id="62"><path d="M-564.834 312.88L1734.7 312.88L1734.7 312.88L1734.7 1650.512L1734.7 1650.512L-564.834 1650.512z" /></clipPath><clipPath id="63"><path d="M-3.014 1650.512L1648.425 1646.976L1648.425 1646.976L1734.698 312.879L1734.698 312.879L-564.834 317.823z" /></clipPath><linearGradient transform="matrix(1 0 0 1 0 0)" id="28442" x1="-236.3907" y1="1514.291" x2="-236.39071514.291" y2="-236.39071721.157"><stop stop-color="#4C216D" offset="0%" /><stop stop-color="#B83F54" offset="100%" /></linearGradient><clipPath id="64"><path d="M-305.616 -274.5L1654.78 -274.5L1654.78 -274.5L1654.78 1121.645L1654.78 1121.645L-305.616 1121.645z" /></clipPath><clipPath id="65"><path d="M587.079 527.361L586.222 526.452L586.222 526.452L-16.876 -64.302L-16.876 -64.302L-15.127 -66.07605L-15.127 -66.07605L587.113 523.781L587.113 523.781L1370.034 -274.502L1370.034 -274.502L1371.748 -272.696z" /></clipPath><linearGradient transform="matrix(1 0 0 1 0 0)" id="29262" x1="-67.95959" y1="2087.703" x2="-67.959592087.703" y2="-67.959591113.547"><stop stop-color="#FFD800" offset="0%" /><stop stop-color="#FF387D" offset="100%" /></linearGradient><clipPath id="66"><path d="M586.721 564.491L585.865 563.594L585.865 563.594L-34.922 -45.90405L-34.922 -45.90405L-33.172 -47.677L-33.172 -47.677L586.757 560.911L586.757 560.911L1387.722 -255.76L1387.722 -255.76L1389.436 -253.954z" /></clipPath><linearGradient transform="matrix(1 0 0 1 0 0)" id="29859" x1="-58.06604" y1="2077.823" x2="-58.066042077.823" y2="-58.066041112.7"><stop stop-color="#FFD800" offset="0%" /><stop stop-color="#FF387D" offset="100%" /></linearGradient><clipPath id="67"><path d="M586.365 601.642L585.508 600.743L585.508 600.743L-52.967 -27.50598L-52.967 -27.50598L-51.218 -29.27795L-51.218 -29.27795L586.399 598.063L586.399 598.063L1405.411 -237.017L1405.411 -237.017L1407.125 -235.212z" /></clipPath><linearGradient transform="matrix(1 0 0 1 0 0)" id="30460" x1="-48.20544" y1="2067.937" x2="-48.205442067.937" y2="-48.205441111.89"><stop stop-color="#FFD800" offset="0%" /><stop stop-color="#FF387D" offset="100%" /></linearGradient><clipPath id="68"><path d="M586.008 638.783L585.152 637.885L585.152 637.885L-71.011 -9.105957L-71.011 -9.105957L-69.263 -10.87903L-69.263 -10.87903L586.043 635.204L586.043 635.204L1423.099 -218.276L1423.099 -218.276L1424.813 -216.469z" /></clipPath><linearGradient transform="matrix(1 0 0 1 0 0)" id="31062" x1="-38.38037" y1="2058.053" x2="-38.380372058.053" y2="-38.380371111.112"><stop stop-color="#FFD800" offset="0%" /><stop stop-color="#FF387D" offset="100%" /></linearGradient><clipPath id="69"><path d="M585.651 675.924L584.795 675.016L584.795 675.016L-89.056 9.292969L-89.056 9.292969L-87.308 7.519043L-87.308 7.519043L585.686 672.344L585.686 672.344L1440.788 -199.5341L1440.788 -199.5341L1442.502 -197.7271z" /></clipPath><linearGradient transform="matrix(1 0 0 1 0 0)" id="31664" x1="-28.59839" y1="2048.168" x2="-28.598392048.168" y2="-28.598391110.375"><stop stop-color="#FFD800" offset="0%" /><stop stop-color="#FF387D" offset="100%" /></linearGradient><clipPath id="70"><path d="M585.295 713.075L584.438 712.166L584.438 712.166L-107.112 27.70105L-107.112 27.70105L-105.362 25.92798L-105.362 25.92798L585.329 709.495L585.329 709.495L1458.484 -180.782L1458.484 -180.782L1460.199 -178.976z" /></clipPath><linearGradient transform="matrix(1 0 0 1 0 0)" id="32267" x1="-18.84265" y1="2038.278" x2="-18.842652038.278" y2="-18.842651109.665"><stop stop-color="#FFD800" offset="0%" /><stop stop-color="#FF387D" offset="100%" /></linearGradient><clipPath id="71"><path d="M584.938 750.216L584.082 749.308L584.082 749.308L-125.157 46.09094L-125.157 46.09094L-123.408 44.31799L-123.408 44.31799L584.972 746.636L584.972 746.636L1476.174 -162.05L1476.174 -162.05L1477.887 -160.244z" /></clipPath><linearGradient transform="matrix(1 0 0 1 0 0)" id="32868" x1="-9.11853" y1="2028.397" x2="-9.118532028.397" y2="-9.118531108.984"><stop stop-color="#FFD800" offset="0%" /><stop stop-color="#FF387D" offset="100%" /></linearGradient><clipPath id="72"><path d="M584.582 787.346L583.725 786.448L583.725 786.448L-143.201 64.48901L-143.201 64.48901L-141.452 62.71594L-141.452 62.71594L584.616 783.767L584.616 783.767L1493.862 -143.307L1493.862 -143.307L1495.576 -141.502z" /></clipPath><linearGradient transform="matrix(1 0 0 1 0 0)" id="33468" x1="0.5794678" y1="2018.512" x2="0.57946782018.512" y2="0.57946781108.324"><stop stop-color="#FFD800" offset="0%" /><stop stop-color="#FF387D" offset="100%" /></linearGradient><clipPath id="73"><path d="M584.224 824.497L583.368 823.599L583.368 823.599L-161.245 82.89795L-161.245 82.89795L-159.497 81.125L-159.497 81.125L584.259 820.918L584.259 820.918L1511.55 -124.556L1511.55 -124.556L1513.264 -122.75z" /></clipPath><linearGradient transform="matrix(1 0 0 1 0 0)" id="34064" x1="10.2583" y1="2008.615" x2="10.25832008.615" y2="10.25831107.687"><stop stop-color="#FFD800" offset="0%" /><stop stop-color="#FF387D" offset="100%" /></linearGradient><clipPath id="74"><path d="M583.868 861.648L583.011 860.749L583.011 860.749L-179.291 101.297L-179.291 101.297L-177.542 99.52405L-177.542 99.52405L583.902 858.069L583.902 858.069L1529.238 -105.814L1529.238 -105.814L1530.953 -104.0081z" /></clipPath><linearGradient transform="matrix(1 0 0 1 0 0)" id="34660" x1="19.90991" y1="1998.729" x2="19.909911998.729" y2="19.909911107.081"><stop stop-color="#FFD800" offset="0%" /><stop stop-color="#FF387D" offset="100%" /></linearGradient><clipPath id="75"><path d="M583.511 898.779L582.655 897.871L582.655 897.871L-197.336 119.696L-197.336 119.696L-195.588 117.922L-195.588 117.922L583.546 895.199L583.546 895.199L1546.926 -87.07202L1546.926 -87.07202L1548.64 -85.26501z" /></clipPath><linearGradient transform="matrix(1 0 0 1 0 0)" id="35258" x1="29.52661" y1="1988.839" x2="29.526611988.839" y2="29.526611106.496"><stop stop-color="#FFD800" offset="0%" /><stop stop-color="#FF387D" offset="100%" /></linearGradient><clipPath id="76"><path d="M583.154 935.93L582.306 935.022L582.306 935.022L-215.381 138.095L-215.381 138.095L-213.633 136.322L-213.633 136.322L583.189 932.351L583.189 932.351L1564.614 -68.32996L1564.614 -68.32996L1566.329 -66.52405z" /></clipPath><linearGradient transform="matrix(1 0 0 1 0 0)" id="35856" x1="39.12952" y1="1978.952" x2="39.129521978.952" y2="39.129521105.938"><stop stop-color="#FFD800" offset="0%" /><stop stop-color="#FF387D" offset="100%" /></linearGradient><clipPath id="77"><path d="M582.798 973.08L581.95 972.173L581.95 972.173L-233.435 156.4919L-233.435 156.4919L-231.687 154.72L-231.687 154.72L582.832 969.501L582.832 969.501L1582.312 -49.58801L1582.312 -49.58801L1584.026 -47.78198z" /></clipPath><linearGradient transform="matrix(1 0 0 1 0 0)" id="36452" x1="48.71521" y1="1969.06" x2="48.715211969.06" y2="48.715211105.387"><stop stop-color="#FFD800" offset="0%" /><stop stop-color="#FF387D" offset="100%" /></linearGradient><clipPath id="78"><path d="M582.441 1010.212L581.585 1009.314L581.585 1009.314L-251.481 174.892L-251.481 174.892L-249.732 173.119L-249.732 173.119L582.475 1006.632L582.475 1006.632L1600.001 -30.84497L1600.001 -30.84497L1601.715 -29.04004z" /></clipPath><linearGradient transform="matrix(1 0 0 1 0 0)" id="37054" x1="58.27222" y1="1959.173" x2="58.272221959.173" y2="58.272221104.864"><stop stop-color="#FFD800" offset="0%" /><stop stop-color="#FF387D" offset="100%" /></linearGradient><clipPath id="79"><path d="M582.085 1047.353L581.228 1046.454L581.228 1046.454L-269.526 193.291L-269.526 193.291L-267.778 191.519L-267.778 191.519L582.119 1043.774L582.119 1043.774L1617.688 -12.104L1617.688 -12.104L1619.403 -10.29797z" /></clipPath><linearGradient transform="matrix(1 0 0 1 0 0)" id="37654" x1="67.80774" y1="1949.283" x2="67.807741949.283" y2="67.807741104.364"><stop stop-color="#FFD800" offset="0%" /><stop stop-color="#FF387D" offset="100%" /></linearGradient><clipPath id="80"><path d="M581.727 1084.503L580.871 1083.605L580.871 1083.605L-287.571 211.7L-287.571 211.7L-285.823 209.926L-285.823 209.926L581.762 1080.924L581.762 1080.924L1635.377 6.647949L1635.377 6.647949L1637.092 8.454956z" /></clipPath><linearGradient transform="matrix(1 0 0 1 0 0)" id="38251" x1="77.33167" y1="1939.389" x2="77.331671939.389" y2="77.331671103.881"><stop stop-color="#FFD800" offset="0%" /><stop stop-color="#FF387D" offset="100%" /></linearGradient><clipPath id="81"><path d="M581.371 1121.645L580.514 1120.736L580.514 1120.736L-305.616 230.099L-305.616 230.099L-303.876 228.325L-303.876 228.325L581.405 1118.065L581.405 1118.065L1653.075 25.39099L1653.075 25.39099L1654.78 27.19702z" /></clipPath><linearGradient transform="matrix(1 0 0 1 0 0)" id="38851" x1="86.82788" y1="1929.506" x2="86.827881929.506" y2="86.827881103.422"><stop stop-color="#FFD800" offset="0%" /><stop stop-color="#FF387D" offset="100%" /></linearGradient><clipPath id="82"><path d="M79.2289 -854.79L1103.97 -854.79L1103.97 -854.79L1103.97 220.45L1103.97 220.45L79.2289 220.45z" /></clipPath><clipPath id="83"><path d="M1102.054 2.012939L290.709 -852.811L290.709 -852.811L292.63 -854.7859L292.63 -854.7859L1103.975 0.03796387z" /></clipPath><linearGradient transform="matrix(1 0 0 1 0 0)" id="39567" x1="288.5998" y1="1980.417" x2="288.59981980.417" y2="288.59984.061401"><stop stop-color="#560099" offset="0%" /><stop stop-color="#FF0A35" offset="100%" /></linearGradient><clipPath id="84"><path d="M1088.836 15.66296L277.491 -839.1599L277.491 -839.1599L279.413 -841.134L279.413 -841.134L1090.759 13.69104z" /></clipPath><linearGradient transform="matrix(1 0 0 1 0 0)" id="40067" x1="275.383" y1="1966.766" x2="275.3831966.766" y2="275.3834.061401"><stop stop-color="#560099" offset="0%" /><stop stop-color="#FF0A35" offset="100%" /></linearGradient><clipPath id="85"><path d="M1075.619 29.31604L264.273 -825.509L264.273 -825.509L266.194 -827.481L266.194 -827.481L1077.54 27.34094z" /></clipPath><linearGradient transform="matrix(1 0 0 1 0 0)" id="40561" x1="262.165" y1="1953.114" x2="262.1651953.114" y2="262.1654.061401"><stop stop-color="#560099" offset="0%" /><stop stop-color="#FF0A35" offset="100%" /></linearGradient><clipPath id="86"><path d="M1062.401 42.96704L251.055 -811.8569L251.055 -811.8569L252.977 -813.8311L252.977 -813.8311L1064.323 40.99304z" /></clipPath><linearGradient transform="matrix(1 0 0 1 0 0)" id="41060" x1="248.9471" y1="1939.462" x2="248.94711939.462" y2="248.94714.061401"><stop stop-color="#560099" offset="0%" /><stop stop-color="#FF0A35" offset="100%" /></linearGradient><clipPath id="87"><path d="M1049.184 56.61804L237.839 -798.2061L237.839 -798.2061L239.759 -800.178L239.759 -800.178L1051.105 54.646z" /></clipPath><linearGradient transform="matrix(1 0 0 1 0 0)" id="41558" x1="235.7303" y1="1925.811" x2="235.73031925.811" y2="235.73034.061401"><stop stop-color="#560099" offset="0%" /><stop stop-color="#FF0A35" offset="100%" /></linearGradient><clipPath id="88"><path d="M1035.967 70.271L224.621 -784.543L224.621 -784.543L226.543 -786.5161L226.543 -786.5161L1037.887 68.29602z" /></clipPath><linearGradient transform="matrix(1 0 0 1 0 0)" id="42056" x1="222.5123" y1="1912.154" x2="222.51231912.154" y2="222.51234.061401"><stop stop-color="#560099" offset="0%" /><stop stop-color="#FF0A35" offset="100%" /></linearGradient><clipPath id="89"><path d="M1022.75 83.92102L211.404 -770.8911L211.404 -770.8911L213.325 -772.865L213.325 -772.865L1024.671 81.948z" /></clipPath><linearGradient transform="matrix(1 0 0 1 0 0)" id="42553" x1="209.2955" y1="1898.502" x2="209.29551898.502" y2="209.29554.061401"><stop stop-color="#560099" offset="0%" /><stop stop-color="#FF0A35" offset="100%" /></linearGradient><clipPath id="90"><path d="M1009.532 97.573L198.186 -757.251L198.186 -757.251L200.107 -759.2251L200.107 -759.2251L1011.453 95.599z" /></clipPath><linearGradient transform="matrix(1 0 0 1 0 0)" id="43049" x1="196.0776" y1="1884.857" x2="196.07761884.857" y2="196.07764.061401"><stop stop-color="#560099" offset="0%" /><stop stop-color="#FF0A35" offset="100%" /></linearGradient><clipPath id="91"><path d="M996.314 111.224L184.969 -743.5891L184.969 -743.5891L186.89 -745.562L186.89 -745.562L998.236 109.251z" /></clipPath><linearGradient transform="matrix(1 0 0 1 0 0)" id="43543" x1="182.8607" y1="1871.199" x2="182.86071871.199" y2="182.86074.061401"><stop stop-color="#560099" offset="0%" /><stop stop-color="#FF0A35" offset="100%" /></linearGradient><clipPath id="92"><path d="M983.097 124.887L171.751 -729.937L171.751 -729.937L173.673 -731.9109L173.673 -731.9109L985.018 122.913z" /></clipPath><linearGradient transform="matrix(1 0 0 1 0 0)" id="44039" x1="169.6427" y1="1857.542" x2="169.64271857.542" y2="169.64274.061401"><stop stop-color="#560099" offset="0%" /><stop stop-color="#FF0A35" offset="100%" /></linearGradient><clipPath id="93"><path d="M969.879 138.527L158.533 -716.2859L158.533 -716.2859L160.455 -718.259L160.455 -718.259L971.801 136.554z" /></clipPath><linearGradient transform="matrix(1 0 0 1 0 0)" id="44535" x1="156.4248" y1="1843.897" x2="156.42481843.897" y2="156.42484.061401"><stop stop-color="#560099" offset="0%" /><stop stop-color="#FF0A35" offset="100%" /></linearGradient><clipPath id="94"><path d="M956.662 152.179L145.316 -702.635L145.316 -702.635L147.237 -704.6079L147.237 -704.6079L958.583 150.205z" /></clipPath><linearGradient transform="matrix(1 0 0 1 0 0)" id="45031" x1="143.208" y1="1830.245" x2="143.2081830.245" y2="143.2084.061401"><stop stop-color="#560099" offset="0%" /><stop stop-color="#FF0A35" offset="100%" /></linearGradient><clipPath id="95"><path d="M943.444 165.8409L132.098 -688.9819L132.098 -688.9819L134.02 -690.9561L134.02 -690.9561L945.366 163.868z" /></clipPath><linearGradient transform="matrix(1 0 0 1 0 0)" id="45525" x1="129.99" y1="1816.588" x2="129.991816.588" y2="129.994.061401"><stop stop-color="#560099" offset="0%" /><stop stop-color="#FF0A35" offset="100%" /></linearGradient><clipPath id="96"><path d="M930.227 179.493L118.882 -675.3311L118.882 -675.3311L120.802 -677.3049L120.802 -677.3049L932.148 177.519z" /></clipPath><linearGradient transform="matrix(1 0 0 1 0 0)" id="46017" x1="116.7732" y1="1802.937" x2="116.77321802.937" y2="116.77324.061401"><stop stop-color="#560099" offset="0%" /><stop stop-color="#FF0A35" offset="100%" /></linearGradient><clipPath id="97"><path d="M917.009 193.144L105.664 -661.679L105.664 -661.679L107.586 -663.6531L107.586 -663.6531L918.93 191.171z" /></clipPath><linearGradient transform="matrix(1 0 0 1 0 0)" id="46512" x1="103.5552" y1="1789.285" x2="103.55521789.285" y2="103.55524.061401"><stop stop-color="#560099" offset="0%" /><stop stop-color="#FF0A35" offset="100%" /></linearGradient><clipPath id="98"><path d="M903.792 206.796L92.447 -648.0281L92.447 -648.0281L94.368 -650.001L94.368 -650.001L905.714 204.822z" /></clipPath><linearGradient transform="matrix(1 0 0 1 0 0)" id="47004" x1="90.33839" y1="1775.633" x2="90.338391775.633" y2="90.338394.061401"><stop stop-color="#560099" offset="0%" /><stop stop-color="#FF0A35" offset="100%" /></linearGradient><clipPath id="99"><path d="M890.575 220.448L79.229 -634.377L79.229 -634.377L81.15 -636.3501L81.15 -636.3501L892.496 218.474z" /></clipPath><linearGradient transform="matrix(1 0 0 1 0 0)" id="47494" x1="77.12046" y1="1761.982" x2="77.120461761.982" y2="77.120464.061401"><stop stop-color="#560099" offset="0%" /><stop stop-color="#FF0A35" offset="100%" /></linearGradient><clipPath id="100"><path d="M447.239 247.631L450.88 247.631C 453.915 247.631 456.364 248.239 458.23 249.453L458.23 249.453L458.23 249.453C 460.094 250.667 461.026 252.792 461.026 255.826L461.026 255.826L461.026 255.826C 461.026 260.5081 460.331 263.999 458.945 266.296L458.945 266.296L458.945 266.296C 457.556 268.595 453.654 269.743 447.239 269.743L447.239 269.743L447.239 269.743zM426.297 232.282L426.297 318.9091L426.297 318.9091L447.239 318.9091L447.239 318.9091L447.239 285.093C 447.758 285.093 448.279 285.114 448.799 285.156L448.799 285.156L448.799 285.156C 449.32 285.201 449.84 285.2209 450.36 285.2209L450.36 285.2209L450.36 285.2209C 450.793 285.2209 451.27 285.245 451.791 285.286L451.791 285.286L451.791 285.286C 452.311 285.3311 452.831 285.3521 453.353 285.3521L453.353 285.3521L453.353 285.3521C 461.155 285.3521 467.92 283.707 473.643 280.41L473.643 280.41L473.643 280.41C 479.366 277.115 482.227 269.83 482.227 258.557L482.227 258.557L482.227 258.557C 482.227 249.8879 480.102 243.339 475.854 238.917L475.854 238.917L475.854 238.917C 471.605 234.494 463.367 232.282 451.14 232.282L451.14 232.282L451.14 232.282z" /></clipPath><linearGradient transform="matrix(1 0 0 1 0 0)" id="48953" x1="452.8751" y1="1381.327" x2="452.87511381.327" y2="452.8751189.7841"><stop stop-color="#4C216D" offset="0%" /><stop stop-color="#B83F54" offset="100%" /></linearGradient><clipPath id="101"><path d="M543.622 247.631L548.954 286.002L548.954 286.002L537.898 286.002zM532.435 232.282L512.534 318.9091L512.534 318.9091L533.345 318.9091L533.345 318.9091L536.077 301.7419L536.077 301.7419L551.686 301.7419L551.686 301.7419L554.417 318.9091L554.417 318.9091L575.618 318.9091L575.618 318.9091L556.238 232.282z" /></clipPath><linearGradient transform="matrix(1 0 0 1 0 0)" id="49613" x1="542.3201" y1="1382.379" x2="542.32011382.379" y2="542.3201189.7841"><stop stop-color="#4C216D" offset="0%" /><stop stop-color="#B83F54" offset="100%" /></linearGradient><clipPath id="102"><path d="M629.468 246.7209C 632.762 246.7209 635.516 247.134 637.728 247.957L637.728 247.957L637.728 247.957C 639.939 248.78 641.477 251.708 642.345 256.736L642.345 256.736L642.345 256.736L642.345 256.736L642.345 259.208C 642.345 262.938 641.499 265.626 639.809 267.272L639.809 267.272L639.809 267.272C 638.118 268.92 636.274 269.743 634.281 269.743L634.281 269.743L634.281 269.743L634.281 269.743L629.468 269.743zM608.526 232.282L608.526 318.9091L608.526 318.9091L629.468 318.9091L629.468 318.9091L629.468 285.093L629.468 285.093L634.281 285.093C 637.402 285.093 639.526 285.787 640.654 287.173L640.654 287.173L640.654 287.173C 641.78 288.561 642.345 290.6851 642.345 293.546L642.345 293.546L642.345 293.546L642.345 293.546L642.345 311.626C 642.345 314.837 642.735 316.8521 643.515 317.675L643.515 317.675L643.515 317.675C 644.297 318.5 646.03 318.9091 648.718 318.9091L648.718 318.9091L648.718 318.9091L648.718 318.9091L667.189 318.9091L667.189 318.9091L667.189 316.179C 666.321 316.179 665.498 315.6169 664.717 314.4871L664.717 314.4871L664.717 314.4871C 663.937 313.3621 663.547 311.193 663.547 307.984L663.547 307.984L663.547 307.984L663.547 307.984L662.637 286.912C 662.637 284.139 661.726 281.839 659.905 280.019L659.905 280.019L659.905 280.019C 658.084 278.198 655.568 276.855 652.361 275.9871L652.361 275.9871L652.361 275.9871C 656.437 274.166 659.319 271.4351 661.01 267.793L661.01 267.793L661.01 267.793C 662.701 264.15 663.547 259.5551 663.547 254.004L663.547 254.004L663.547 254.004C 663.112 246.287 660.685 240.738 656.264 237.356L656.264 237.356L656.264 237.356C 651.84 233.974 646.03 232.282 638.833 232.282L638.833 232.282L638.833 232.282z" /></clipPath><linearGradient transform="matrix(1 0 0 1 0 0)" id="51618" x1="636.1046" y1="1383.482" x2="636.10461383.482" y2="636.1046189.7841"><stop stop-color="#4C216D" offset="0%" /><stop stop-color="#B83F54" offset="100%" /></linearGradient><clipPath id="103"><path d="M697.235 232.282L697.235 249.453L697.235 249.453L713.494 249.453L713.494 249.453L713.494 318.9091L713.494 318.9091L734.696 318.9091L734.696 318.9091L734.696 249.453L734.696 249.453L750.044 249.453L750.044 249.453L750.044 232.282z" /></clipPath><linearGradient transform="matrix(1 0 0 1 0 0)" id="52205" x1="722.7766" y1="1384.502" x2="722.77661384.502" y2="722.7766189.7841"><stop stop-color="#4C216D" offset="0%" /><stop stop-color="#B83F54" offset="100%" /></linearGradient><clipPath id="104"><path d="M0 -0.3869629L1176.341 -0.3869629L1176.341 -0.3869629L1176.341 1552L1176.341 1552L0 1552z" /></clipPath><clipPath id="105"><path d="M401.562 334.87L785.253 334.87L785.253 334.87L785.253 685.632L785.253 685.632L401.562 685.632z" /></clipPath><clipPath id="106"><path d="M411.188 344.5L775.627 344.5L775.627 344.5L775.627 676.006L775.627 676.006L411.188 676.006z" /></clipPath><clipPath id="107"><path d="M420.814 354.12L766.002 354.12L766.002 354.12L766.002 666.38L766.002 666.38L420.814 666.38z" /></clipPath></defs></svg>