<svg xmlns="http://www.w3.org/2000/svg" xmlns:xlink="http://www.w3.org/1999/xlink" id="body_16" preserveAspectRatio="xMinYMin meet" viewBox="0 0 1568 2069"><g transform="matrix(1.333333 0 0 1.333333 0 0)"><g><g clip-path="url(#1)"><g clip-path="url(#2)"><g clip-path="url(#3)"><g clip-path="url(#4)"><g clip-path="url(#5)"><g><g clip-path="url(#6)"><g clip-path="url(#7)"><g><path transform="matrix(1 0 0 -1 0 1552)" d="M0 116L1176 -1083L1176 -1083L1176 -3026L1176 -3026L0 -1827" stroke="none" fill="url(#1788)" /><path transform="matrix(1 0 0 -1 0 1552)" d="M0 114.5069L1176 -1084.301L1176 -1084.301L1176 1552L1176 1552L0 1552" stroke="none" fill="#FFD800" fill-rule="evenodd" fill-opacity="0.1960784" /><path transform="matrix(1 0 0 -1 0 1552)" d="M0 -1826.152L1176 -3024.96L1176 -3024.96L1176 0L1176 0L0 0" stroke="none" fill="#FF387D" fill-rule="evenodd" fill-opacity="0.1960784" /></g></g></g></g></g></g></g><path transform="matrix(1 0 0 -1 0 1552)" d="M1176.218 0L-0.1229248 0L-0.1229248 0L-0.1229248 1552.387L-0.1229248 1552.387L1176.218 1552.387z" stroke="#E6E7E8" stroke-width="1" fill="none" /><g><g clip-path="url(#8)"><g clip-path="url(#9)"><g><path transform="matrix(1 0 0 -1 0 1552)" d="M1019.027 0L1019.027 1552L1019.027 1552L1176.218 1552L1176.218 1552L1176.218 0" stroke="none" fill="url(#2514)" /><path transform="matrix(1 0 0 -1 0 1552)" d="M1019.027 0L1019.027 1552L1019.027 1552L0 1552L0 1552L0 0" stroke="none" fill="#4C216D" fill-rule="evenodd" fill-opacity="0.4980392" /><path transform="matrix(1 0 0 -1 0 1552)" d="M1176.218 0L1176.218 1552L1176.218 1552L1176 1552L1176 1552L1176 0" stroke="none" fill="#B83F54" fill-rule="evenodd" fill-opacity="0.4980392" /></g></g></g></g><g><g clip-path="url(#10)"></g></g></g><g clip-path="url(#11)"><g transform="matrix(0.2398164 0 0 0.2382367 752.3779 1467.023)"><g transform="matrix(1 0 0 1 0 0)"><image x="0" y="0" xlink:href="img_07.png" width="207" height="125" /></g></g></g><path transform="matrix(1 0 0 -1 0 1552)" d="M813.8086 79.7256L813.8086 63.6426" stroke="#797A7C" stroke-width="1" fill="none" /><g clip-path="url(#12)"><g clip-path="url(#13)"><g clip-path="url(#14)"><g clip-path="url(#15)"><g><g clip-path="url(#16)"><g clip-path="url(#17)"><g><path transform="matrix(1 0 0 -1 0 1552)" d="M0 261L1176 1634L1176 1634L1176 5146L1176 5146L0 3773" stroke="none" fill="url(#4693)" /><path transform="matrix(1 0 0 -1 0 1552)" d="M0 262.2091L1176 1635.35L1176 1635.35L1176 0L1176 0L0 0" stroke="none" fill="#4C216D" fill-rule="evenodd" fill-opacity="0.8980392" /><path transform="matrix(1 0 0 -1 0 1552)" d="M0 3772.222L1176 5145.363L1176 5145.363L1176 1552L1176 1552L0 1552" stroke="none" fill="#B83F54" fill-rule="evenodd" fill-opacity="0.8980392" /></g></g></g></g><g><g clip-path="url(#18)"><g clip-path="url(#19)"><g><path transform="matrix(1 0 0 -1 0 1552)" d="M0 1841L1176 642L1176 642L1176 -1300L1176 -1300L0 -101" stroke="none" fill="url(#5589)" /><path transform="matrix(1 0 0 -1 0 1552)" d="M0 1840.179L1176 641.3715L1176 641.3715L1176 1552L1176 1552L0 1552" stroke="none" fill="#FFD800" fill-rule="evenodd" fill-opacity="0.1960784" /><path transform="matrix(1 0 0 -1 0 1552)" d="M0 -100.4802L1176 -1299.288L1176 -1299.288L1176 0L1176 0L0 0" stroke="none" fill="#FF387D" fill-rule="evenodd" fill-opacity="0.1960784" /></g></g></g></g></g></g></g></g><g clip-path="url(#20)"><g><g clip-path="url(#21)"><g clip-path="url(#22)"><g><path transform="matrix(1 0 0 -1 0 1552)" d="M0 -1328L1176 45L1176 45L1176 3557L1176 3557L0 2184" stroke="none" fill="url(#6493)" /><path transform="matrix(1 0 0 -1 0 1552)" d="M0 -1327.218L1176 45.92391L1176 45.92391L1176 0L1176 0L0 0" stroke="none" fill="#4C216D" fill-rule="evenodd" fill-opacity="0.8980392" /><path transform="matrix(1 0 0 -1 0 1552)" d="M0 2182.795L1176 3555.937L1176 3555.937L1176 1552L1176 1552L0 1552" stroke="none" fill="#B83F54" fill-rule="evenodd" fill-opacity="0.8980392" /></g></g></g></g><g><g clip-path="url(#23)"><g clip-path="url(#24)"><g><path transform="matrix(1 0 0 -1 0 1552)" d="M0 3391L1176 2192L1176 2192L1176 232L1176 232L0 1431" stroke="none" fill="url(#7318)" /><path transform="matrix(1 0 0 -1 0 1552)" d="M0 3390.215L1176 2191.407L1176 2191.407L1176 1552L1176 1552L0 1552" stroke="none" fill="#FFD800" fill-rule="evenodd" fill-opacity="0.1960784" /><path transform="matrix(1 0 0 -1 0 1552)" d="M0 1431.732L1176 232.924L1176 232.924L1176 0L1176 0L0 0" stroke="none" fill="#FF387D" fill-rule="evenodd" fill-opacity="0.1960784" /></g></g><g clip-path="url(#25)"><g><path transform="matrix(1 0 0 -1 0 1552)" d="M0 3391L1176 2192L1176 2192L1176 233L1176 233L0 1432" stroke="none" fill="url(#7926)" /><path transform="matrix(1 0 0 -1 0 1552)" d="M0 3389.633L1176 2190.825L1176 2190.825L1176 1552L1176 1552L0 1552" stroke="none" fill="#FFD800" fill-rule="evenodd" fill-opacity="0.1960784" /><path transform="matrix(1 0 0 -1 0 1552)" d="M0 1432.639L1176 233.8318L1176 233.8318L1176 0L1176 0L0 0" stroke="none" fill="#FF387D" fill-rule="evenodd" fill-opacity="0.1960784" /></g></g><g clip-path="url(#26)"><g><path transform="matrix(1 0 0 -1 0 1552)" d="M0 3390L1176 2191L1176 2191L1176 234L1176 234L0 1432" stroke="none" fill="url(#8531)" /><path transform="matrix(1 0 0 -1 0 1552)" d="M0 3389.049L1176 2190.242L1176 2190.242L1176 1552L1176 1552L0 1552" stroke="none" fill="#FFD800" fill-rule="evenodd" fill-opacity="0.1960784" /><path transform="matrix(1 0 0 -1 0 1552)" d="M0 1433.482L1176 234.6747L1176 234.6747L1176 0L1176 0L0 0" stroke="none" fill="#FF387D" fill-rule="evenodd" fill-opacity="0.1960784" /></g></g><g clip-path="url(#27)"><g><path transform="matrix(1 0 0 -1 0 1552)" d="M0 3389L1176 2191L1176 2191L1176 234L1176 234L0 1433" stroke="none" fill="url(#9131)" /><path transform="matrix(1 0 0 -1 0 1552)" d="M0 3388.465L1176 2189.658L1176 2189.658L1176 1552L1176 1552L0 1552" stroke="none" fill="#FFD800" fill-rule="evenodd" fill-opacity="0.1960784" /><path transform="matrix(1 0 0 -1 0 1552)" d="M0 1434.267L1176 235.4595L1176 235.4595L1176 0L1176 0L0 0" stroke="none" fill="#FF387D" fill-rule="evenodd" fill-opacity="0.1960784" /></g></g><g clip-path="url(#28)"><g><path transform="matrix(1 0 0 -1 0 1552)" d="M0 3389L1176 2190L1176 2190L1176 235L1176 235L0 1434" stroke="none" fill="url(#9735)" /><path transform="matrix(1 0 0 -1 0 1552)" d="M0 3387.878L1176 2189.071L1176 2189.071L1176 1552L1176 1552L0 1552" stroke="none" fill="#FFD800" fill-rule="evenodd" fill-opacity="0.1960784" /><path transform="matrix(1 0 0 -1 0 1552)" d="M0 1434.979L1176 236.1713L1176 236.1713L1176 0L1176 0L0 0" stroke="none" fill="#FF387D" fill-rule="evenodd" fill-opacity="0.1960784" /></g></g><g clip-path="url(#29)"><g><path transform="matrix(1 0 0 -1 0 1552)" d="M0 3388L1176 2189L1176 2189L1176 236L1176 236L0 1435" stroke="none" fill="url(#10334)" /><path transform="matrix(1 0 0 -1 0 1552)" d="M0 3387.29L1176 2188.482L1176 2188.482L1176 1552L1176 1552L0 1552" stroke="none" fill="#FFD800" fill-rule="evenodd" fill-opacity="0.1960784" /><path transform="matrix(1 0 0 -1 0 1552)" d="M0 1435.639L1176 236.8319L1176 236.8319L1176 0L1176 0L0 0" stroke="none" fill="#FF387D" fill-rule="evenodd" fill-opacity="0.1960784" /></g></g><g clip-path="url(#30)"><g><path transform="matrix(1 0 0 -1 0 1552)" d="M0 3388L1176 2189L1176 2189L1176 236L1176 236L0 1435" stroke="none" fill="url(#10938)" /><path transform="matrix(1 0 0 -1 0 1552)" d="M0 3386.705L1176 2187.897L1176 2187.897L1176 1552L1176 1552L0 1552" stroke="none" fill="#FFD800" fill-rule="evenodd" fill-opacity="0.1960784" /><path transform="matrix(1 0 0 -1 0 1552)" d="M0 1436.255L1176 237.4472L1176 237.4472L1176 0L1176 0L0 0" stroke="none" fill="#FF387D" fill-rule="evenodd" fill-opacity="0.1960784" /></g></g><g clip-path="url(#31)"><g><path transform="matrix(1 0 0 -1 0 1552)" d="M0 3387L1176 2188L1176 2188L1176 237L1176 237L0 1436" stroke="none" fill="url(#11542)" /><path transform="matrix(1 0 0 -1 0 1552)" d="M0 3386.115L1176 2187.307L1176 2187.307L1176 1552L1176 1552L0 1552" stroke="none" fill="#FFD800" fill-rule="evenodd" fill-opacity="0.1960784" /><path transform="matrix(1 0 0 -1 0 1552)" d="M0 1436.825L1176 238.018L1176 238.018L1176 0L1176 0L0 0" stroke="none" fill="#FF387D" fill-rule="evenodd" fill-opacity="0.1960784" /></g></g><g clip-path="url(#32)"><g><path transform="matrix(1 0 0 -1 0 1552)" d="M0 3387L1176 2188L1176 2188L1176 238L1176 238L0 1436" stroke="none" fill="url(#12142)" /><path transform="matrix(1 0 0 -1 0 1552)" d="M0 3385.517L1176 2186.709L1176 2186.709L1176 1552L1176 1552L0 1552" stroke="none" fill="#FFD800" fill-rule="evenodd" fill-opacity="0.1960784" /><path transform="matrix(1 0 0 -1 0 1552)" d="M0 1437.349L1176 238.542L1176 238.542L1176 0L1176 0L0 0" stroke="none" fill="#FF387D" fill-rule="evenodd" fill-opacity="0.1960784" /></g></g><g clip-path="url(#33)"><g><path transform="matrix(1 0 0 -1 0 1552)" d="M0 3386L1176 2187L1176 2187L1176 238L1176 238L0 1437" stroke="none" fill="url(#12738)" /><path transform="matrix(1 0 0 -1 0 1552)" d="M0 3384.932L1176 2186.125L1176 2186.125L1176 1552L1176 1552L0 1552" stroke="none" fill="#FFD800" fill-rule="evenodd" fill-opacity="0.1960784" /><path transform="matrix(1 0 0 -1 0 1552)" d="M0 1437.832L1176 239.0242L1176 239.0242L1176 0L1176 0L0 0" stroke="none" fill="#FF387D" fill-rule="evenodd" fill-opacity="0.1960784" /></g></g><g clip-path="url(#34)"><g><path transform="matrix(1 0 0 -1 0 1552)" d="M0 3385L1176 2187L1176 2187L1176 238L1176 238L0 1437" stroke="none" fill="url(#13339)" /><path transform="matrix(1 0 0 -1 0 1552)" d="M0 3384.332L1176 2185.525L1176 2185.525L1176 1552L1176 1552L0 1552" stroke="none" fill="#FFD800" fill-rule="evenodd" fill-opacity="0.1960784" /><path transform="matrix(1 0 0 -1 0 1552)" d="M0 1438.261L1176 239.4539L1176 239.4539L1176 0L1176 0L0 0" stroke="none" fill="#FF387D" fill-rule="evenodd" fill-opacity="0.1960784" /></g></g><g clip-path="url(#35)"><g><path transform="matrix(1 0 0 -1 0 1552)" d="M0 3385L1176 2186L1176 2186L1176 239L1176 239L0 1438" stroke="none" fill="url(#13937)" /><path transform="matrix(1 0 0 -1 0 1552)" d="M0 3383.747L1176 2184.939L1176 2184.939L1176 1552L1176 1552L0 1552" stroke="none" fill="#FFD800" fill-rule="evenodd" fill-opacity="0.1960784" /><path transform="matrix(1 0 0 -1 0 1552)" d="M0 1438.659L1176 239.8511L1176 239.8511L1176 0L1176 0L0 0" stroke="none" fill="#FF387D" fill-rule="evenodd" fill-opacity="0.1960784" /></g></g><g clip-path="url(#36)"><g><path transform="matrix(1 0 0 -1 0 1552)" d="M0 3384L1176 2185L1176 2185L1176 239L1176 239L0 1438" stroke="none" fill="url(#14539)" /><path transform="matrix(1 0 0 -1 0 1552)" d="M0 3383.149L1176 2184.342L1176 2184.342L1176 1552L1176 1552L0 1552" stroke="none" fill="#FFD800" fill-rule="evenodd" fill-opacity="0.1960784" /><path transform="matrix(1 0 0 -1 0 1552)" d="M0 1439.03L1176 240.2229L1176 240.2229L1176 0L1176 0L0 0" stroke="none" fill="#FF387D" fill-rule="evenodd" fill-opacity="0.1960784" /></g></g><g clip-path="url(#37)"><g><path transform="matrix(1 0 0 -1 0 1552)" d="M0 3384L1176 2185L1176 2185L1176 240L1176 240L0 1438" stroke="none" fill="url(#15141)" /><path transform="matrix(1 0 0 -1 0 1552)" d="M0 3382.555L1176 2183.747L1176 2183.747L1176 1552L1176 1552L0 1552" stroke="none" fill="#FFD800" fill-rule="evenodd" fill-opacity="0.1960784" /><path transform="matrix(1 0 0 -1 0 1552)" d="M0 1439.357L1176 240.5495L1176 240.5495L1176 0L1176 0L0 0" stroke="none" fill="#FF387D" fill-rule="evenodd" fill-opacity="0.1960784" /></g></g><g clip-path="url(#38)"><g><path transform="matrix(1 0 0 -1 0 1552)" d="M0 3383L1176 2184L1176 2184L1176 240L1176 240L0 1439" stroke="none" fill="url(#15747)" /><path transform="matrix(1 0 0 -1 0 1552)" d="M0 3381.959L1176 2183.152L1176 2183.152L1176 1552L1176 1552L0 1552" stroke="none" fill="#FFD800" fill-rule="evenodd" fill-opacity="0.1960784" /><path transform="matrix(1 0 0 -1 0 1552)" d="M0 1439.642L1176 240.8346L1176 240.8346L1176 0L1176 0L0 0" stroke="none" fill="#FF387D" fill-rule="evenodd" fill-opacity="0.1960784" /></g></g><g clip-path="url(#39)"><g><path transform="matrix(1 0 0 -1 0 1552)" d="M0 3382L1176 2184L1176 2184L1176 240L1176 240L0 1439" stroke="none" fill="url(#16348)" /><path transform="matrix(1 0 0 -1 0 1552)" d="M0 3381.367L1176 2182.56L1176 2182.56L1176 1552L1176 1552L0 1552" stroke="none" fill="#FFD800" fill-rule="evenodd" fill-opacity="0.1960784" /><path transform="matrix(1 0 0 -1 0 1552)" d="M0 1439.9L1176 241.0922L1176 241.0922L1176 0L1176 0L0 0" stroke="none" fill="#FF387D" fill-rule="evenodd" fill-opacity="0.1960784" /></g></g><g clip-path="url(#40)"><g><path transform="matrix(1 0 0 -1 0 1552)" d="M0 3382L1176 2183L1176 2183L1176 240L1176 240L0 1439" stroke="none" fill="url(#16948)" /><path transform="matrix(1 0 0 -1 0 1552)" d="M0 3380.78L1176 2181.972L1176 2181.972L1176 1552L1176 1552L0 1552" stroke="none" fill="#FFD800" fill-rule="evenodd" fill-opacity="0.1960784" /><path transform="matrix(1 0 0 -1 0 1552)" d="M0 1440.12L1176 241.313L1176 241.313L1176 0L1176 0L0 0" stroke="none" fill="#FF387D" fill-rule="evenodd" fill-opacity="0.1960784" /></g></g></g></g></g><g clip-path="url(#41)"><g><g clip-path="url(#42)"><g clip-path="url(#43)"><g><path transform="matrix(1 0 0 -1 0 1552)" d="M0 -1721L1176 -348L1176 -348L1176 3164L1176 3164L0 1791" stroke="none" fill="url(#17861)" /><path transform="matrix(1 0 0 -1 0 1552)" d="M0 -1720.432L1176 -347.291L1176 -347.291L1176 0L1176 0L0 0" stroke="none" fill="#4C216D" fill-rule="evenodd" fill-opacity="0.8980392" /><path transform="matrix(1 0 0 -1 0 1552)" d="M0 1789.581L1176 3162.722L1176 3162.722L1176 1552L1176 1552L0 1552" stroke="none" fill="#B83F54" fill-rule="evenodd" fill-opacity="0.8980392" /></g></g></g></g><g><g clip-path="url(#44)"><g clip-path="url(#45)"><g><path transform="matrix(1 0 0 -1 0 1552)" d="M0 2998L1176 1799L1176 1799L1176 -161L1176 -161L0 1038" stroke="none" fill="url(#18685)" /><path transform="matrix(1 0 0 -1 0 1552)" d="M0 2997L1176 1798.193L1176 1798.193L1176 1552L1176 1552L0 1552" stroke="none" fill="#FFD800" fill-rule="evenodd" fill-opacity="0.1960784" /><path transform="matrix(1 0 0 -1 0 1552)" d="M0 1038.516L1176 -160.2911L1176 -160.2911L1176 0L1176 0L0 0" stroke="none" fill="#FF387D" fill-rule="evenodd" fill-opacity="0.1960784" /></g></g><g clip-path="url(#46)"><g><path transform="matrix(1 0 0 -1 0 1552)" d="M0 2997L1176 1799L1176 1799L1176 -160L1176 -160L0 1038" stroke="none" fill="url(#19289)" /><path transform="matrix(1 0 0 -1 0 1552)" d="M0 2996.418L1176 1797.61L1176 1797.61L1176 1552L1176 1552L0 1552" stroke="none" fill="#FFD800" fill-rule="evenodd" fill-opacity="0.1960784" /><path transform="matrix(1 0 0 -1 0 1552)" d="M0 1039.424L1176 -159.3831L1176 -159.3831L1176 0L1176 0L0 0" stroke="none" fill="#FF387D" fill-rule="evenodd" fill-opacity="0.1960784" /></g></g><g clip-path="url(#47)"><g><path transform="matrix(1 0 0 -1 0 1552)" d="M0 2997L1176 1798L1176 1798L1176 -160L1176 -160L0 1039" stroke="none" fill="url(#19890)" /><path transform="matrix(1 0 0 -1 0 1552)" d="M0 2995.834L1176 1797.027L1176 1797.027L1176 1552L1176 1552L0 1552" stroke="none" fill="#FFD800" fill-rule="evenodd" fill-opacity="0.1960784" /><path transform="matrix(1 0 0 -1 0 1552)" d="M0 1040.267L1176 -158.5403L1176 -158.5403L1176 0L1176 0L0 0" stroke="none" fill="#FF387D" fill-rule="evenodd" fill-opacity="0.1960784" /></g></g><g clip-path="url(#48)"><g><path transform="matrix(1 0 0 -1 0 1552)" d="M0 2996L1176 1797L1176 1797L1176 -159L1176 -159L0 1040" stroke="none" fill="url(#20491)" /><path transform="matrix(1 0 0 -1 0 1552)" d="M0 2995.25L1176 1796.443L1176 1796.443L1176 1552L1176 1552L0 1552" stroke="none" fill="#FFD800" fill-rule="evenodd" fill-opacity="0.1960784" /><path transform="matrix(1 0 0 -1 0 1552)" d="M0 1041.052L1176 -157.7553L1176 -157.7553L1176 0L1176 0L0 0" stroke="none" fill="#FF387D" fill-rule="evenodd" fill-opacity="0.1960784" /></g></g><g clip-path="url(#49)"><g><path transform="matrix(1 0 0 -1 0 1552)" d="M0 2996L1176 1797L1176 1797L1176 -158L1176 -158L0 1041" stroke="none" fill="url(#21093)" /><path transform="matrix(1 0 0 -1 0 1552)" d="M0 2994.664L1176 1795.856L1176 1795.856L1176 1552L1176 1552L0 1552" stroke="none" fill="#FFD800" fill-rule="evenodd" fill-opacity="0.1960784" /><path transform="matrix(1 0 0 -1 0 1552)" d="M0 1041.764L1176 -157.0435L1176 -157.0435L1176 0L1176 0L0 0" stroke="none" fill="#FF387D" fill-rule="evenodd" fill-opacity="0.1960784" /></g></g><g clip-path="url(#50)"><g><path transform="matrix(1 0 0 -1 0 1552)" d="M0 2995L1176 1796L1176 1796L1176 -157L1176 -157L0 1041" stroke="none" fill="url(#21693)" /><path transform="matrix(1 0 0 -1 0 1552)" d="M0 2994.075L1176 1795.267L1176 1795.267L1176 1552L1176 1552L0 1552" stroke="none" fill="#FFD800" fill-rule="evenodd" fill-opacity="0.1960784" /><path transform="matrix(1 0 0 -1 0 1552)" d="M0 1042.424L1176 -156.3829L1176 -156.3829L1176 0L1176 0L0 0" stroke="none" fill="#FF387D" fill-rule="evenodd" fill-opacity="0.1960784" /></g></g><g clip-path="url(#51)"><g><path transform="matrix(1 0 0 -1 0 1552)" d="M0 2994L1176 1796L1176 1796L1176 -157L1176 -157L0 1042" stroke="none" fill="url(#22302)" /><path transform="matrix(1 0 0 -1 0 1552)" d="M0 2993.49L1176 1794.682L1176 1794.682L1176 1552L1176 1552L0 1552" stroke="none" fill="#FFD800" fill-rule="evenodd" fill-opacity="0.1960784" /><path transform="matrix(1 0 0 -1 0 1552)" d="M0 1043.04L1176 -155.7677L1176 -155.7677L1176 0L1176 0L0 0" stroke="none" fill="#FF387D" fill-rule="evenodd" fill-opacity="0.1960784" /></g></g><g clip-path="url(#52)"><g><path transform="matrix(1 0 0 -1 0 1552)" d="M0 2994L1176 1795L1176 1795L1176 -156L1176 -156L0 1043" stroke="none" fill="url(#22902)" /><path transform="matrix(1 0 0 -1 0 1552)" d="M0 2992.9L1176 1794.092L1176 1794.092L1176 1552L1176 1552L0 1552" stroke="none" fill="#FFD800" fill-rule="evenodd" fill-opacity="0.1960784" /><path transform="matrix(1 0 0 -1 0 1552)" d="M0 1043.61L1176 -155.197L1176 -155.197L1176 0L1176 0L0 0" stroke="none" fill="#FF387D" fill-rule="evenodd" fill-opacity="0.1960784" /></g></g><g clip-path="url(#53)"><g><path transform="matrix(1 0 0 -1 0 1552)" d="M0 2993L1176 1794L1176 1794L1176 -156L1176 -156L0 1043" stroke="none" fill="url(#23497)" /><path transform="matrix(1 0 0 -1 0 1552)" d="M0 2992.302L1176 1793.495L1176 1793.495L1176 1552L1176 1552L0 1552" stroke="none" fill="#FFD800" fill-rule="evenodd" fill-opacity="0.1960784" /><path transform="matrix(1 0 0 -1 0 1552)" d="M0 1044.134L1176 -154.673L1176 -154.673L1176 0L1176 0L0 0" stroke="none" fill="#FF387D" fill-rule="evenodd" fill-opacity="0.1960784" /></g></g><g clip-path="url(#54)"><g><path transform="matrix(1 0 0 -1 0 1552)" d="M0 2993L1176 1794L1176 1794L1176 -155L1176 -155L0 1044" stroke="none" fill="url(#24097)" /><path transform="matrix(1 0 0 -1 0 1552)" d="M0 2991.718L1176 1792.91L1176 1792.91L1176 1552L1176 1552L0 1552" stroke="none" fill="#FFD800" fill-rule="evenodd" fill-opacity="0.1960784" /><path transform="matrix(1 0 0 -1 0 1552)" d="M0 1044.617L1176 -154.1907L1176 -154.1907L1176 0L1176 0L0 0" stroke="none" fill="#FF387D" fill-rule="evenodd" fill-opacity="0.1960784" /></g></g><g clip-path="url(#55)"><g><path transform="matrix(1 0 0 -1 0 1552)" d="M0 2992L1176 1793L1176 1793L1176 -155L1176 -155L0 1044" stroke="none" fill="url(#24691)" /><path transform="matrix(1 0 0 -1 0 1552)" d="M0 2991.117L1176 1792.31L1176 1792.31L1176 1552L1176 1552L0 1552" stroke="none" fill="#FFD800" fill-rule="evenodd" fill-opacity="0.1960784" /><path transform="matrix(1 0 0 -1 0 1552)" d="M0 1045.047L1176 -153.7609L1176 -153.7609L1176 0L1176 0L0 0" stroke="none" fill="#FF387D" fill-rule="evenodd" fill-opacity="0.1960784" /></g></g><g clip-path="url(#56)"><g><path transform="matrix(1 0 0 -1 0 1552)" d="M0 2992L1176 1793L1176 1793L1176 -154L1176 -154L0 1044" stroke="none" fill="url(#25293)" /><path transform="matrix(1 0 0 -1 0 1552)" d="M0 2990.532L1176 1791.724L1176 1791.724L1176 1552L1176 1552L0 1552" stroke="none" fill="#FFD800" fill-rule="evenodd" fill-opacity="0.1960784" /><path transform="matrix(1 0 0 -1 0 1552)" d="M0 1045.444L1176 -153.3637L1176 -153.3637L1176 0L1176 0L0 0" stroke="none" fill="#FF387D" fill-rule="evenodd" fill-opacity="0.1960784" /></g></g><g clip-path="url(#57)"><g><path transform="matrix(1 0 0 -1 0 1552)" d="M0 2991L1176 1792L1176 1792L1176 -154L1176 -154L0 1045" stroke="none" fill="url(#25892)" /><path transform="matrix(1 0 0 -1 0 1552)" d="M0 2989.934L1176 1791.127L1176 1791.127L1176 1552L1176 1552L0 1552" stroke="none" fill="#FFD800" fill-rule="evenodd" fill-opacity="0.1960784" /><path transform="matrix(1 0 0 -1 0 1552)" d="M0 1045.815L1176 -152.992L1176 -152.992L1176 0L1176 0L0 0" stroke="none" fill="#FF387D" fill-rule="evenodd" fill-opacity="0.1960784" /></g></g><g clip-path="url(#58)"><g><path transform="matrix(1 0 0 -1 0 1552)" d="M0 2990L1176 1792L1176 1792L1176 -154L1176 -154L0 1045" stroke="none" fill="url(#26487)" /><path transform="matrix(1 0 0 -1 0 1552)" d="M0 2989.34L1176 1790.532L1176 1790.532L1176 1552L1176 1552L0 1552" stroke="none" fill="#FFD800" fill-rule="evenodd" fill-opacity="0.1960784" /><path transform="matrix(1 0 0 -1 0 1552)" d="M0 1046.142L1176 -152.6654L1176 -152.6654L1176 0L1176 0L0 0" stroke="none" fill="#FF387D" fill-rule="evenodd" fill-opacity="0.1960784" /></g></g><g clip-path="url(#59)"><g><path transform="matrix(1 0 0 -1 0 1552)" d="M0 2990L1176 1791L1176 1791L1176 -153L1176 -153L0 1045" stroke="none" fill="url(#27085)" /><path transform="matrix(1 0 0 -1 0 1552)" d="M0 2988.745L1176 1789.937L1176 1789.937L1176 1552L1176 1552L0 1552" stroke="none" fill="#FFD800" fill-rule="evenodd" fill-opacity="0.1960784" /><path transform="matrix(1 0 0 -1 0 1552)" d="M0 1046.427L1176 -152.3802L1176 -152.3802L1176 0L1176 0L0 0" stroke="none" fill="#FF387D" fill-rule="evenodd" fill-opacity="0.1960784" /></g></g><g clip-path="url(#60)"><g><path transform="matrix(1 0 0 -1 0 1552)" d="M0 2989L1176 1790L1176 1790L1176 -153L1176 -153L0 1046" stroke="none" fill="url(#27686)" /><path transform="matrix(1 0 0 -1 0 1552)" d="M0 2988.152L1176 1789.345L1176 1789.345L1176 1552L1176 1552L0 1552" stroke="none" fill="#FFD800" fill-rule="evenodd" fill-opacity="0.1960784" /><path transform="matrix(1 0 0 -1 0 1552)" d="M0 1046.685L1176 -152.1227L1176 -152.1227L1176 0L1176 0L0 0" stroke="none" fill="#FF387D" fill-rule="evenodd" fill-opacity="0.1960784" /></g></g><g clip-path="url(#61)"><g><path transform="matrix(1 0 0 -1 0 1552)" d="M0 2989L1176 1790L1176 1790L1176 -153L1176 -153L0 1046" stroke="none" fill="url(#28285)" /><path transform="matrix(1 0 0 -1 0 1552)" d="M0 2987.565L1176 1788.757L1176 1788.757L1176 1552L1176 1552L0 1552" stroke="none" fill="#FFD800" fill-rule="evenodd" fill-opacity="0.1960784" /><path transform="matrix(1 0 0 -1 0 1552)" d="M0 1046.906L1176 -151.9018L1176 -151.9018L1176 0L1176 0L0 0" stroke="none" fill="#FF387D" fill-rule="evenodd" fill-opacity="0.1960784" /></g></g></g></g><g><g clip-path="url(#62)"><g clip-path="url(#63)"><g><path transform="matrix(1 0 0 -1 0 1552)" d="M0 -40102L1176 196609L1176 196609L1176 54539L1176 54539L0 -182173" stroke="none" fill="url(#29004)" /><path transform="matrix(1 0 0 -1 0 1552)" d="M0 -40220.45L1176 196490.7L1176 196490.7L1176 1552L1176 1552L0 1552" stroke="none" fill="#560099" fill-rule="evenodd" fill-opacity="0.04705882" /><path transform="matrix(1 0 0 -1 0 1552)" d="M0 -182054.2L1176 54657L1176 54657L1176 0L1176 0L0 0" stroke="none" fill="#FF0A35" fill-rule="evenodd" fill-opacity="0.04705882" /></g></g><g clip-path="url(#64)"><g><path transform="matrix(1 0 0 -1 0 1552)" d="M0 -37817L1176 198894L1176 198894L1176 56824L1176 56824L0 -179887" stroke="none" fill="url(#29499)" /><path transform="matrix(1 0 0 -1 0 1552)" d="M0 -37935.16L1176 198776.1L1176 198776.1L1176 1552L1176 1552L0 1552" stroke="none" fill="#560099" fill-rule="evenodd" fill-opacity="0.04705882" /><path transform="matrix(1 0 0 -1 0 1552)" d="M0 -179768.9L1176 56942.3L1176 56942.3L1176 0L1176 0L0 0" stroke="none" fill="#FF0A35" fill-rule="evenodd" fill-opacity="0.04705882" /></g></g><g clip-path="url(#65)"><g><path transform="matrix(1 0 0 -1 0 1552)" d="M0 -35532L1176 201180L1176 201180L1176 59109L1176 59109L0 -177602" stroke="none" fill="url(#29996)" /><path transform="matrix(1 0 0 -1 0 1552)" d="M0 -35650.04L1176 201061.2L1176 201061.2L1176 1552L1176 1552L0 1552" stroke="none" fill="#560099" fill-rule="evenodd" fill-opacity="0.04705882" /><path transform="matrix(1 0 0 -1 0 1552)" d="M0 -177483.8L1176 59227.41L1176 59227.41L1176 0L1176 0L0 0" stroke="none" fill="#FF0A35" fill-rule="evenodd" fill-opacity="0.04705882" /></g></g><g clip-path="url(#66)"><g><path transform="matrix(1 0 0 -1 0 1552)" d="M0 -33246L1176 203465L1176 203465L1176 61394L1176 61394L0 -175317" stroke="none" fill="url(#30493)" /><path transform="matrix(1 0 0 -1 0 1552)" d="M0 -33364.74L1176 203346.5L1176 203346.5L1176 1552L1176 1552L0 1552" stroke="none" fill="#560099" fill-rule="evenodd" fill-opacity="0.04705882" /><path transform="matrix(1 0 0 -1 0 1552)" d="M0 -175198.5L1176 61512.71L1176 61512.71L1176 0L1176 0L0 0" stroke="none" fill="#FF0A35" fill-rule="evenodd" fill-opacity="0.04705882" /></g></g><g clip-path="url(#67)"><g><path transform="matrix(1 0 0 -1 0 1552)" d="M0 -30961L1176 205750L1176 205750L1176 63679L1176 63679L0 -173032" stroke="none" fill="url(#30988)" /><path transform="matrix(1 0 0 -1 0 1552)" d="M0 -31079.62L1176 205631.6L1176 205631.6L1176 1552L1176 1552L0 1552" stroke="none" fill="#560099" fill-rule="evenodd" fill-opacity="0.04705882" /><path transform="matrix(1 0 0 -1 0 1552)" d="M0 -172913.4L1176 63797.82L1176 63797.82L1176 0L1176 0L0 0" stroke="none" fill="#FF0A35" fill-rule="evenodd" fill-opacity="0.04705882" /></g></g><g clip-path="url(#68)"><g><path transform="matrix(1 0 0 -1 0 1552)" d="M0 -28676L1176 208035L1176 208035L1176 65965L1176 65965L0 -170746" stroke="none" fill="url(#31478)" /><path transform="matrix(1 0 0 -1 0 1552)" d="M0 -28794.33L1176 207916.9L1176 207916.9L1176 1552L1176 1552L0 1552" stroke="none" fill="#560099" fill-rule="evenodd" fill-opacity="0.04705882" /><path transform="matrix(1 0 0 -1 0 1552)" d="M0 -170628.1L1176 66083.13L1176 66083.13L1176 0L1176 0L0 0" stroke="none" fill="#FF0A35" fill-rule="evenodd" fill-opacity="0.04705882" /></g></g><g clip-path="url(#69)"><g><path transform="matrix(1 0 0 -1 0 1552)" d="M0 -26390L1176 210314L1176 210314L1176 68248L1176 68248L0 -168456" stroke="none" fill="url(#31975)" /><path transform="matrix(1 0 0 -1 0 1552)" d="M0 -26508.07L1176 210195.2L1176 210195.2L1176 1552L1176 1552L0 1552" stroke="none" fill="#560099" fill-rule="evenodd" fill-opacity="0.04705882" /><path transform="matrix(1 0 0 -1 0 1552)" d="M0 -168337.3L1176 68366.02L1176 68366.02L1176 0L1176 0L0 0" stroke="none" fill="#FF0A35" fill-rule="evenodd" fill-opacity="0.04705882" /></g></g><g clip-path="url(#70)"><g><path transform="matrix(1 0 0 -1 0 1552)" d="M0 -24106L1176 212606L1176 212606L1176 70535L1176 70535L0 -166176" stroke="none" fill="url(#32471)" /><path transform="matrix(1 0 0 -1 0 1552)" d="M0 -24223.91L1176 212487.3L1176 212487.3L1176 1552L1176 1552L0 1552" stroke="none" fill="#560099" fill-rule="evenodd" fill-opacity="0.04705882" /><path transform="matrix(1 0 0 -1 0 1552)" d="M0 -166057.7L1176 70653.54L1176 70653.54L1176 0L1176 0L0 0" stroke="none" fill="#FF0A35" fill-rule="evenodd" fill-opacity="0.04705882" /></g></g><g clip-path="url(#71)"><g><path transform="matrix(1 0 0 -1 0 1552)" d="M0 -21819L1176 214884L1176 214884L1176 72818L1176 72818L0 -163885" stroke="none" fill="url(#32966)" /><path transform="matrix(1 0 0 -1 0 1552)" d="M0 -21937.81L1176 214765.5L1176 214765.5L1176 1552L1176 1552L0 1552" stroke="none" fill="#560099" fill-rule="evenodd" fill-opacity="0.04705882" /><path transform="matrix(1 0 0 -1 0 1552)" d="M0 -163767L1176 72936.27L1176 72936.27L1176 0L1176 0L0 0" stroke="none" fill="#FF0A35" fill-rule="evenodd" fill-opacity="0.04705882" /></g></g><g clip-path="url(#72)"><g><path transform="matrix(1 0 0 -1 0 1552)" d="M0 -19535L1176 217176L1176 217176L1176 75106L1176 75106L0 -161606" stroke="none" fill="url(#33462)" /><path transform="matrix(1 0 0 -1 0 1552)" d="M0 -19653.5L1176 217057.7L1176 217057.7L1176 1552L1176 1552L0 1552" stroke="none" fill="#560099" fill-rule="evenodd" fill-opacity="0.04705882" /><path transform="matrix(1 0 0 -1 0 1552)" d="M0 -161487.2L1176 75223.96L1176 75223.96L1176 0L1176 0L0 0" stroke="none" fill="#FF0A35" fill-rule="evenodd" fill-opacity="0.04705882" /></g></g><g clip-path="url(#73)"><g><path transform="matrix(1 0 0 -1 0 1552)" d="M0 -17250L1176 219461L1176 219461L1176 77391L1176 77391L0 -159320" stroke="none" fill="url(#33949)" /><path transform="matrix(1 0 0 -1 0 1552)" d="M0 -17368.2L1176 219343L1176 219343L1176 1552L1176 1552L0 1552" stroke="none" fill="#560099" fill-rule="evenodd" fill-opacity="0.04705882" /><path transform="matrix(1 0 0 -1 0 1552)" d="M0 -159201.9L1176 77509.26L1176 77509.26L1176 0L1176 0L0 0" stroke="none" fill="#FF0A35" fill-rule="evenodd" fill-opacity="0.04705882" /></g></g><g clip-path="url(#74)"><g><path transform="matrix(1 0 0 -1 0 1552)" d="M0 -14965L1176 221746L1176 221746L1176 79676L1176 79676L0 -157035" stroke="none" fill="url(#34439)" /><path transform="matrix(1 0 0 -1 0 1552)" d="M0 -15083.08L1176 221628.1L1176 221628.1L1176 1552L1176 1552L0 1552" stroke="none" fill="#560099" fill-rule="evenodd" fill-opacity="0.04705882" /><path transform="matrix(1 0 0 -1 0 1552)" d="M0 -156916.8L1176 79794.37L1176 79794.37L1176 0L1176 0L0 0" stroke="none" fill="#FF0A35" fill-rule="evenodd" fill-opacity="0.04705882" /></g></g><g clip-path="url(#75)"><g><path transform="matrix(1 0 0 -1 0 1552)" d="M0 -12679L1176 224032L1176 224032L1176 81961L1176 81961L0 -154750" stroke="none" fill="url(#34931)" /><path transform="matrix(1 0 0 -1 0 1552)" d="M0 -12797.78L1176 223913.4L1176 223913.4L1176 1552L1176 1552L0 1552" stroke="none" fill="#560099" fill-rule="evenodd" fill-opacity="0.04705882" /><path transform="matrix(1 0 0 -1 0 1552)" d="M0 -154631.5L1176 82079.67L1176 82079.67L1176 0L1176 0L0 0" stroke="none" fill="#FF0A35" fill-rule="evenodd" fill-opacity="0.04705882" /></g></g></g></g></g><g clip-path="url(#76)"><g clip-path="url(#77)"><g clip-path="url(#78)"><g clip-path="url(#79)"><g><g clip-path="url(#80)"><g clip-path="url(#81)"><g><path transform="matrix(1 0 0 -1 0 1552)" d="M0 -72L1176 1301L1176 1301L1176 4813L1176 4813L0 3440" stroke="none" fill="url(#36674)" /><path transform="matrix(1 0 0 -1 0 1552)" d="M0 -70.72832L1176 1302.413L1176 1302.413L1176 0L1176 0L0 0" stroke="none" fill="#4C216D" fill-rule="evenodd" fill-opacity="0.8980392" /><path transform="matrix(1 0 0 -1 0 1552)" d="M0 3439.285L1176 4812.426L1176 4812.426L1176 1552L1176 1552L0 1552" stroke="none" fill="#B83F54" fill-rule="evenodd" fill-opacity="0.8980392" /></g></g></g></g><g><g clip-path="url(#82)"><g clip-path="url(#83)"><g><path transform="matrix(1 0 0 -1 0 1552)" d="M0 1508L1176 309L1176 309L1176 -1633L1176 -1633L0 -434" stroke="none" fill="url(#37575)" /><path transform="matrix(1 0 0 -1 0 1552)" d="M0 1507.242L1176 308.434L1176 308.434L1176 1552L1176 1552L0 1552" stroke="none" fill="#FFD800" fill-rule="evenodd" fill-opacity="0.1960784" /><path transform="matrix(1 0 0 -1 0 1552)" d="M0 -433.4176L1176 -1632.225L1176 -1632.225L1176 0L1176 0L0 0" stroke="none" fill="#FF387D" fill-rule="evenodd" fill-opacity="0.1960784" /></g></g></g></g></g></g></g><g><g clip-path="url(#84)"><path transform="matrix(1 0 0 -1 0 1552)" d="M1073.074 1049.734L605.569 1049.734L605.569 1049.734L605.569 1433.218L605.569 1433.218L1073.074 1433.218z" stroke="#000000" stroke-width="2" fill="none" stroke-opacity="0.4980392" /></g></g><g><g clip-path="url(#85)"><path transform="matrix(1 0 0 -1 0 1552)" d="M1052.313 225.208L150.401 225.208L150.401 225.208L150.401 750.42L150.401 750.42L1052.313 750.42z" stroke="#000000" stroke-width="2" fill="none" stroke-opacity="0.4980392" /></g></g><g clip-path="url(#86)"><g clip-path="url(#87)"><g clip-path="url(#88)"><g><g clip-path="url(#89)"><g clip-path="url(#90)"><g><path transform="matrix(1 0 0 -1 0 1552)" d="M0 -473L1176 900L1176 900L1176 4412L1176 4412L0 3039" stroke="none" fill="url(#39562)" /><path transform="matrix(1 0 0 -1 0 1552)" d="M0 -472.1632L1176 900.9782L1176 900.9782L1176 0L1176 0L0 0" stroke="none" fill="#4C216D" fill-rule="evenodd" fill-opacity="0.8980392" /><path transform="matrix(1 0 0 -1 0 1552)" d="M0 3037.85L1176 4410.991L1176 4410.991L1176 1552L1176 1552L0 1552" stroke="none" fill="#B83F54" fill-rule="evenodd" fill-opacity="0.8980392" /></g></g></g></g><g><g clip-path="url(#91)"><g clip-path="url(#92)"><g><path transform="matrix(1 0 0 -1 0 1552)" d="M0 1107L1176 -92L1176 -92L1176 -2035L1176 -2035L0 -836" stroke="none" fill="url(#40460)" /><path transform="matrix(1 0 0 -1 0 1552)" d="M0 1105.807L1176 -93.00085L1176 -93.00085L1176 1552L1176 1552L0 1552" stroke="none" fill="#FFD800" fill-rule="evenodd" fill-opacity="0.1960784" /><path transform="matrix(1 0 0 -1 0 1552)" d="M0 -834.8524L1176 -2033.66L1176 -2033.66L1176 0L1176 0L0 0" stroke="none" fill="#FF387D" fill-rule="evenodd" fill-opacity="0.1960784" /></g></g></g></g></g></g></g></g><g transform="matrix(0.9785391 0 0 0.9785391 165.2151 817.5438)"><g transform="matrix(1 0 0 1 0 0)"><image x="0" y="0" xlink:href="img_28.png" width="891" height="503" /></g></g><g clip-path="url(#93)"><g transform="matrix(1.060963 0 0 1.060963 526.2581 123.0566)"><g transform="matrix(1 0 0 1 0 0)"><image x="0" y="0" xlink:href="img_29.png" width="610" height="344" /></g></g></g></g></g></g><defs><clipPath id="1"><path d="M0 1552L0 -0.3900146L0 -0.3900146L1176.34 -0.3900146L1176.34 -0.3900146L1176.34 1552L1176.34 1552L0 1552z" /></clipPath><clipPath id="2"><path d="M0 -0.3869629L1176.341 -0.3869629L1176.341 -0.3869629L1176.341 1552L1176.341 1552L0 1552z" /></clipPath><clipPath id="3"><path d="M-371.993 2036.807L-1429.793 2036.807L-1429.793 2036.807L-1429.793 1962.129L-1429.793 1962.129L-371.993 1962.129z" /></clipPath><clipPath id="4"><path d="M-371.993 2750.698L-1429.793 2750.698L-1429.793 2750.698L-1429.793 1360.817L-1429.793 1360.817L-371.993 1360.817z" /></clipPath><clipPath id="5"><path d="M-103.213 1902.021L-500.138 3047.02L-500.138 3047.02L-1582.861 2729.361L-1582.861 2729.361L-1908.279 1649.613L-1908.279 1649.613L-820.931 777.657L-820.931 777.657L-209.215 1591.125z" /></clipPath><clipPath id="6"><path d="M-1689.22 1138.828L3.348633 1138.828L3.348633 1138.828L3.348633 2344.234L3.348633 2344.234L-1689.22 2344.234z" /></clipPath><clipPath id="7"><path d="M-923.413 2344.235L-924.152 2343.45L-924.152 2343.45L-1689.22 1574.49L-1689.22 1574.49L-1687.718 1572.959L-1687.718 1572.959L-923.383 2341.144L-923.383 2341.144L1.876 1397.749L1.876 1397.749L3.349 1399.308z" /></clipPath><linearGradient transform="matrix(1 0 0 1 0 0)" id="1788" x1="-1350.392" y1="502.1037" x2="-1350.392502.1037" y2="-1350.392952.674"><stop stop-color="#FFD800" offset="0%" /><stop stop-color="#FF387D" offset="100%" /></linearGradient><clipPath id="8"><path d="M1019.03 1459.925L1176.22 1459.925L1176.22 1459.925L1176.22 1501.925L1176.22 1501.925L1019.03 1501.925z" /></clipPath><clipPath id="9"><path d="M1176.218 1501.925L1019.028 1501.925L1019.028 1501.925L1019.028 1459.925L1019.028 1459.925L1176.218 1459.925z" /></clipPath><linearGradient transform="matrix(1 0 0 1 0 0)" id="2514" x1="1019.027" y1="149.6704" x2="1019.027149.6704" y2="1019.027157.1904"><stop stop-color="#4C216D" offset="0%" /><stop stop-color="#B83F54" offset="100%" /></linearGradient><clipPath id="10"><path d="M823.332 1471.077L1002.76 1471.077L1002.76 1471.077L1002.76 1493.472L1002.76 1493.472L823.332 1493.472z" /></clipPath><clipPath id="11"><path d="M752.378 1496.803L802.02 1496.803L802.02 1496.803L802.02 1467.024L802.02 1467.024L752.378 1467.024z" /></clipPath><clipPath id="12"><path d="M0 -0.3869629L1176.341 -0.3869629L1176.341 -0.3869629L1176.341 1552L1176.341 1552L0 1552z" /></clipPath><clipPath id="13"><path d="M-372.599 393.468L-1430.399 393.468L-1430.399 393.468L-1430.399 235.839L-1430.399 235.839L-372.599 235.839z" /></clipPath><clipPath id="14"><path d="M-372.599 1024.407L-1430.399 1024.407L-1430.399 1024.407L-1430.399 -365.474L-1430.399 -365.474L-372.599 -365.474z" /></clipPath><clipPath id="15"><path d="M-103.82 175.731L-500.745 1320.73L-500.745 1320.73L-1583.466 1003.071L-1583.466 1003.071L-1908.884 -76.677L-1908.884 -76.677L-821.538 -948.6331L-821.538 -948.6331L-209.822 -135.165z" /></clipPath><clipPath id="16"><path d="M-1913.63 -80.32996L71.74231 -80.32996L71.74231 -80.32996L71.74231 1074.559L71.74231 1074.559L-1913.63 1074.559z" /></clipPath><clipPath id="17"><path d="M-1428.566 1074.559L-2.745 1071.506L-2.745 1071.506L71.743 -80.32898L71.743 -80.32898L-1913.63 -76.06006z" /></clipPath><linearGradient transform="matrix(1 0 0 1 0 0)" id="4693" x1="-1630.059" y1="1869.905" x2="-1630.0591869.905" y2="-1630.0591486.015"><stop stop-color="#4C216D" offset="0%" /><stop stop-color="#B83F54" offset="100%" /></linearGradient><clipPath id="18"><path d="M-1689.83 -587.46L2.742554 -587.46L2.742554 -587.46L2.742554 617.9451L2.742554 617.9451L-1689.83 617.9451z" /></clipPath><clipPath id="19"><path d="M-924.019 617.945L-924.758 617.16L-924.758 617.16L-1689.827 -151.8L-1689.827 -151.8L-1688.325 -153.3311L-1688.325 -153.3311L-923.989 614.854L-923.989 614.854L1.27 -328.541L1.27 -328.541L2.743 -326.981z" /></clipPath><linearGradient transform="matrix(1 0 0 1 0 0)" id="5589" x1="-1350.998" y1="2228.394" x2="-1350.9982228.394" y2="-1350.998952.6741"><stop stop-color="#FFD800" offset="0%" /><stop stop-color="#FF387D" offset="100%" /></linearGradient><clipPath id="20"><path d="M0.778 265.97L1058.577 265.97L1058.577 265.97L1058.577 154.171L1058.577 154.171L0.778 154.171z" /></clipPath><clipPath id="21"><path d="M-482.454 -162L1502.92 -162L1502.92 -162L1502.92 992.891L1502.92 992.891L-482.454 992.891z" /></clipPath><clipPath id="22"><path d="M2.611 992.891L1428.431 989.838L1428.431 989.838L1502.918 -161.9969L1502.918 -161.9969L-482.455 -157.728z" /></clipPath><linearGradient transform="matrix(1 0 0 1 0 0)" id="6493" x1="-198.8828" y1="1951.573" x2="-198.88281951.573" y2="-198.88281486.015"><stop stop-color="#4C216D" offset="0%" /><stop stop-color="#B83F54" offset="100%" /></linearGradient><clipPath id="23"><path d="M-258.651 -669.1299L1433.92 -669.1299L1433.92 -669.1299L1433.92 536.28L1433.92 536.28L-258.651 536.28z" /></clipPath><clipPath id="24"><path d="M512.085 23.18298L511.345 22.39905L511.345 22.39905L-9.359 -487.647L-9.359 -487.647L-7.848 -489.178L-7.848 -489.178L512.115 20.09204L512.115 20.09204L1188.074 -669.1311L1188.074 -669.1311L1189.553 -667.571z" /></clipPath><linearGradient transform="matrix(1 0 0 1 0 0)" id="7318" x1="-53.46246" y1="2446.646" x2="-53.462462446.646" y2="-53.46246961.4152"><stop stop-color="#FFD800" offset="0%" /><stop stop-color="#FF387D" offset="100%" /></linearGradient><clipPath id="25"><path d="M511.777 55.24097L511.038 54.46594L511.038 54.46594L-24.938 -471.7629L-24.938 -471.7629L-23.428 -473.2939L-23.428 -473.2939L511.807 52.15002L511.807 52.15002L1203.346 -652.949L1203.346 -652.949L1204.826 -651.3889z" /></clipPath><linearGradient transform="matrix(1 0 0 1 0 0)" id="7926" x1="-44.92053" y1="2438.115" x2="-44.920532438.115" y2="-44.92053960.6844"><stop stop-color="#FFD800" offset="0%" /><stop stop-color="#FF387D" offset="100%" /></linearGradient><clipPath id="26"><path d="M511.469 87.31702L510.73 86.54004L510.73 86.54004L-40.518 -455.8781L-40.518 -455.8781L-39.008 -457.408L-39.008 -457.408L511.498 84.22595L511.498 84.22595L1218.618 -636.7671L1218.618 -636.7671L1220.097 -635.208z" /></clipPath><linearGradient transform="matrix(1 0 0 1 0 0)" id="8531" x1="-36.4071" y1="2429.58" x2="-36.40712429.58" y2="-36.4071959.9851"><stop stop-color="#FFD800" offset="0%" /><stop stop-color="#FF387D" offset="100%" /></linearGradient><clipPath id="27"><path d="M511.161 119.3831L510.421 118.608L510.421 118.608L-56.097 -439.9919L-56.097 -439.9919L-54.587 -441.5229L-54.587 -441.5229L511.191 116.293L511.191 116.293L1233.889 -620.5869L1233.889 -620.5869L1235.37 -619.0259z" /></clipPath><linearGradient transform="matrix(1 0 0 1 0 0)" id="9131" x1="-27.92444" y1="2421.047" x2="-27.924442421.047" y2="-27.92444959.3137"><stop stop-color="#FFD800" offset="0%" /><stop stop-color="#FF387D" offset="100%" /></linearGradient><clipPath id="28"><path d="M510.853 151.449L510.114 150.666L510.114 150.666L-71.677 -424.1071L-71.677 -424.1071L-70.168 -425.6379L-70.168 -425.6379L510.883 148.359L510.883 148.359L1249.161 -604.4041L1249.161 -604.4041L1250.641 -602.844z" /></clipPath><linearGradient transform="matrix(1 0 0 1 0 0)" id="9735" x1="-19.47882" y1="2412.512" x2="-19.478822412.512" y2="-19.47882958.6768"><stop stop-color="#FFD800" offset="0%" /><stop stop-color="#FF387D" offset="100%" /></linearGradient><clipPath id="29"><path d="M510.545 183.526L509.805 182.74L509.805 182.74L-87.265 -408.213L-87.265 -408.213L-85.755 -409.744L-85.755 -409.744L510.575 180.4351L510.575 180.4351L1264.441 -588.2141L1264.441 -588.2141L1265.92 -586.655z" /></clipPath><linearGradient transform="matrix(1 0 0 1 0 0)" id="10334" x1="-11.05591" y1="2403.974" x2="-11.055912403.974" y2="-11.05591958.0642"><stop stop-color="#FFD800" offset="0%" /><stop stop-color="#FF387D" offset="100%" /></linearGradient><clipPath id="30"><path d="M510.237 215.592L509.497 214.808L509.497 214.808L-102.845 -392.337L-102.845 -392.337L-101.335 -393.868L-101.335 -393.868L510.267 212.501L510.267 212.501L1279.712 -572.041L1279.712 -572.041L1281.193 -570.4819z" /></clipPath><linearGradient transform="matrix(1 0 0 1 0 0)" id="10938" x1="-2.660278" y1="2395.442" x2="-2.6602782395.442" y2="-2.660278957.4756"><stop stop-color="#FFD800" offset="0%" /><stop stop-color="#FF387D" offset="100%" /></linearGradient><clipPath id="31"><path d="M509.929 247.65L509.19 246.875L509.19 246.875L-118.424 -376.452L-118.424 -376.452L-116.915 -377.9821L-116.915 -377.9821L509.958 244.559L509.958 244.559L1294.985 -555.8589L1294.985 -555.8589L1296.464 -554.301z" /></clipPath><linearGradient transform="matrix(1 0 0 1 0 0)" id="11542" x1="5.71283" y1="2386.908" x2="5.712832386.908" y2="5.71283956.9064"><stop stop-color="#FFD800" offset="0%" /><stop stop-color="#FF387D" offset="100%" /></linearGradient><clipPath id="32"><path d="M509.621 279.726L508.881 278.949L508.881 278.949L-134.004 -360.557L-134.004 -360.557L-132.495 -362.089L-132.495 -362.089L509.651 276.635L509.651 276.635L1310.256 -539.6699L1310.256 -539.6699L1311.736 -538.1101z" /></clipPath><linearGradient transform="matrix(1 0 0 1 0 0)" id="12142" x1="14.06934" y1="2378.364" x2="14.069342378.364" y2="14.06934956.3563"><stop stop-color="#FFD800" offset="0%" /><stop stop-color="#FF387D" offset="100%" /></linearGradient><clipPath id="33"><path d="M509.313 311.8L508.574 311.025L508.574 311.025L-149.584 -344.673L-149.584 -344.673L-148.075 -346.204L-148.075 -346.204L509.343 308.71L509.343 308.71L1325.528 -523.488L1325.528 -523.488L1327.008 -521.928z" /></clipPath><linearGradient transform="matrix(1 0 0 1 0 0)" id="12738" x1="22.4024" y1="2369.828" x2="22.40242369.828" y2="22.4024955.8331"><stop stop-color="#FFD800" offset="0%" /><stop stop-color="#FF387D" offset="100%" /></linearGradient><clipPath id="34"><path d="M509.005 343.859L508.266 343.075L508.266 343.075L-165.164 -328.787L-165.164 -328.787L-163.654 -330.318L-163.654 -330.318L509.035 340.7679L509.035 340.7679L1340.799 -507.3059L1340.799 -507.3059L1342.28 -505.7471z" /></clipPath><linearGradient transform="matrix(1 0 0 1 0 0)" id="13339" x1="30.70532" y1="2361.289" x2="30.705322361.289" y2="30.70532955.328"><stop stop-color="#FFD800" offset="0%" /><stop stop-color="#FF387D" offset="100%" /></linearGradient><clipPath id="35"><path d="M508.697 375.9351L507.965 375.15L507.965 375.15L-180.744 -312.902L-180.744 -312.902L-179.234 -314.433L-179.234 -314.433L508.727 372.844L508.727 372.844L1356.071 -491.125L1356.071 -491.125L1357.552 -489.566z" /></clipPath><linearGradient transform="matrix(1 0 0 1 0 0)" id="13937" x1="38.99622" y1="2352.752" x2="38.996222352.752" y2="38.99622954.8461"><stop stop-color="#FFD800" offset="0%" /><stop stop-color="#FF387D" offset="100%" /></linearGradient><clipPath id="36"><path d="M508.389 408.009L507.658 407.226L507.658 407.226L-196.331 -297.017L-196.331 -297.017L-194.822 -298.548L-194.822 -298.548L508.418 404.9189L508.418 404.9189L1371.351 -474.943L1371.351 -474.943L1372.831 -473.385z" /></clipPath><linearGradient transform="matrix(1 0 0 1 0 0)" id="14539" x1="47.27234" y1="2344.212" x2="47.272342344.212" y2="47.27234954.3707"><stop stop-color="#FFD800" offset="0%" /><stop stop-color="#FF387D" offset="100%" /></linearGradient><clipPath id="37"><path d="M508.081 440.068L507.341 439.292L507.341 439.292L-211.911 -281.132L-211.911 -281.132L-210.402 -282.662L-210.402 -282.662L508.111 436.9771L508.111 436.9771L1386.623 -458.761L1386.623 -458.761L1388.103 -457.203z" /></clipPath><linearGradient transform="matrix(1 0 0 1 0 0)" id="15141" x1="55.52362" y1="2335.676" x2="55.523622335.676" y2="55.52362953.9189"><stop stop-color="#FFD800" offset="0%" /><stop stop-color="#FF387D" offset="100%" /></linearGradient><clipPath id="38"><path d="M507.773 472.135L507.034 471.359L507.034 471.359L-227.491 -265.2469L-227.491 -265.2469L-225.981 -266.777L-225.981 -266.777L507.803 469.0439L507.803 469.0439L1401.894 -442.5811L1401.894 -442.5811L1403.375 -441.021z" /></clipPath><linearGradient transform="matrix(1 0 0 1 0 0)" id="15747" x1="63.75647" y1="2327.136" x2="63.756472327.136" y2="63.75647953.4873"><stop stop-color="#FFD800" offset="0%" /><stop stop-color="#FF387D" offset="100%" /></linearGradient><clipPath id="39"><path d="M507.465 504.209L506.726 503.434L506.726 503.434L-243.071 -249.3521L-243.071 -249.3521L-241.561 -250.884L-241.561 -250.884L507.495 501.119L507.495 501.119L1417.166 -426.39L1417.166 -426.39L1418.647 -424.8311z" /></clipPath><linearGradient transform="matrix(1 0 0 1 0 0)" id="16348" x1="71.97931" y1="2318.595" x2="71.979312318.595" y2="71.97931953.0706"><stop stop-color="#FFD800" offset="0%" /><stop stop-color="#FF387D" offset="100%" /></linearGradient><clipPath id="40"><path d="M507.158 536.277L506.417 535.492L506.417 535.492L-258.651 -233.468L-258.651 -233.468L-257.149 -234.999L-257.149 -234.999L507.187 533.186L507.187 533.186L1432.447 -410.209L1432.447 -410.209L1433.918 -408.649z" /></clipPath><linearGradient transform="matrix(1 0 0 1 0 0)" id="16948" x1="80.17804" y1="2310.062" x2="80.178042310.062" y2="80.17804952.6741"><stop stop-color="#FFD800" offset="0%" /><stop stop-color="#FF387D" offset="100%" /></linearGradient><clipPath id="41"><path d="M0.778 622.063L1058.577 622.063L1058.577 622.063L1058.577 547.386L1058.577 547.386L0.778 547.386z" /></clipPath><clipPath id="42"><path d="M-482.454 231.22L1502.92 231.22L1502.92 231.22L1502.92 1386.106L1502.92 1386.106L-482.454 1386.106z" /></clipPath><clipPath id="43"><path d="M2.611 1386.106L1428.431 1383.053L1428.431 1383.053L1502.918 231.218L1502.918 231.218L-482.455 235.4871z" /></clipPath><linearGradient transform="matrix(1 0 0 1 0 0)" id="17861" x1="-198.8828" y1="1558.358" x2="-198.88281558.358" y2="-198.88281486.015"><stop stop-color="#4C216D" offset="0%" /><stop stop-color="#B83F54" offset="100%" /></linearGradient><clipPath id="44"><path d="M-258.651 -275.92L1433.92 -275.92L1433.92 -275.92L1433.92 929.4911L1433.92 929.4911L-258.651 929.4911z" /></clipPath><clipPath id="45"><path d="M512.085 416.3979L511.345 415.614L511.345 415.614L-9.359 -94.43201L-9.359 -94.43201L-7.848 -95.96399L-7.848 -95.96399L512.115 413.307L512.115 413.307L1188.074 -275.916L1188.074 -275.916L1189.553 -274.356z" /></clipPath><linearGradient transform="matrix(1 0 0 1 0 0)" id="18685" x1="-53.46246" y1="2053.431" x2="-53.462462053.431" y2="-53.46246961.4152"><stop stop-color="#FFD800" offset="0%" /><stop stop-color="#FF387D" offset="100%" /></linearGradient><clipPath id="46"><path d="M511.777 448.4561L511.038 447.681L511.038 447.681L-24.938 -78.54895L-24.938 -78.54895L-23.428 -80.07898L-23.428 -80.07898L511.807 445.365L511.807 445.365L1203.346 -259.734L1203.346 -259.734L1204.826 -258.175z" /></clipPath><linearGradient transform="matrix(1 0 0 1 0 0)" id="19289" x1="-44.92053" y1="2044.901" x2="-44.920532044.901" y2="-44.92053960.6844"><stop stop-color="#FFD800" offset="0%" /><stop stop-color="#FF387D" offset="100%" /></linearGradient><clipPath id="47"><path d="M511.469 480.531L510.73 479.755L510.73 479.755L-40.518 -62.66296L-40.518 -62.66296L-39.008 -64.19299L-39.008 -64.19299L511.498 477.441L511.498 477.441L1218.618 -243.552L1218.618 -243.552L1220.097 -241.993z" /></clipPath><linearGradient transform="matrix(1 0 0 1 0 0)" id="19890" x1="-36.4071" y1="2036.365" x2="-36.40712036.365" y2="-36.4071959.9851"><stop stop-color="#FFD800" offset="0%" /><stop stop-color="#FF387D" offset="100%" /></linearGradient><clipPath id="48"><path d="M511.161 512.598L510.421 511.823L510.421 511.823L-56.097 -46.77698L-56.097 -46.77698L-54.587 -48.30798L-54.587 -48.30798L511.191 509.5081L511.191 509.5081L1233.889 -227.371L1233.889 -227.371L1235.37 -225.811z" /></clipPath><linearGradient transform="matrix(1 0 0 1 0 0)" id="20491" x1="-27.92444" y1="2027.832" x2="-27.924442027.832" y2="-27.92444959.3137"><stop stop-color="#FFD800" offset="0%" /><stop stop-color="#FF387D" offset="100%" /></linearGradient><clipPath id="49"><path d="M510.853 544.664L510.114 543.881L510.114 543.881L-71.677 -30.89197L-71.677 -30.89197L-70.168 -32.42395L-70.168 -32.42395L510.883 541.573L510.883 541.573L1249.161 -211.189L1249.161 -211.189L1250.641 -209.63z" /></clipPath><linearGradient transform="matrix(1 0 0 1 0 0)" id="21093" x1="-19.47882" y1="2019.297" x2="-19.478822019.297" y2="-19.47882958.6768"><stop stop-color="#FFD800" offset="0%" /><stop stop-color="#FF387D" offset="100%" /></linearGradient><clipPath id="50"><path d="M510.545 576.74L509.805 575.955L509.805 575.955L-87.265 -14.99805L-87.265 -14.99805L-85.755 -16.52905L-85.755 -16.52905L510.575 573.65L510.575 573.65L1264.441 -194.999L1264.441 -194.999L1265.92 -193.4399z" /></clipPath><linearGradient transform="matrix(1 0 0 1 0 0)" id="21693" x1="-11.05591" y1="2010.759" x2="-11.055912010.759" y2="-11.05591958.0642"><stop stop-color="#FFD800" offset="0%" /><stop stop-color="#FF387D" offset="100%" /></linearGradient><clipPath id="51"><path d="M510.237 608.807L509.497 608.023L509.497 608.023L-102.845 0.8780518L-102.845 0.8780518L-101.335 -0.6529541L-101.335 -0.6529541L510.267 605.716L510.267 605.716L1279.712 -178.826L1279.712 -178.826L1281.193 -177.267z" /></clipPath><linearGradient transform="matrix(1 0 0 1 0 0)" id="22302" x1="-2.660278" y1="2002.227" x2="-2.6602782002.227" y2="-2.660278957.4756"><stop stop-color="#FFD800" offset="0%" /><stop stop-color="#FF387D" offset="100%" /></linearGradient><clipPath id="52"><path d="M509.929 640.865L509.19 640.09L509.19 640.09L-118.424 16.76294L-118.424 16.76294L-116.915 15.23303L-116.915 15.23303L509.958 637.774L509.958 637.774L1294.985 -162.644L1294.985 -162.644L1296.464 -161.0861z" /></clipPath><linearGradient transform="matrix(1 0 0 1 0 0)" id="22902" x1="5.71283" y1="1993.693" x2="5.712831993.693" y2="5.71283956.9064"><stop stop-color="#FFD800" offset="0%" /><stop stop-color="#FF387D" offset="100%" /></linearGradient><clipPath id="53"><path d="M509.621 672.941L508.881 672.164L508.881 672.164L-134.004 32.65698L-134.004 32.65698L-132.495 31.12598L-132.495 31.12598L509.651 669.85L509.651 669.85L1310.256 -146.455L1310.256 -146.455L1311.736 -144.895z" /></clipPath><linearGradient transform="matrix(1 0 0 1 0 0)" id="23497" x1="14.06934" y1="1985.149" x2="14.069341985.149" y2="14.06934956.3563"><stop stop-color="#FFD800" offset="0%" /><stop stop-color="#FF387D" offset="100%" /></linearGradient><clipPath id="54"><path d="M509.313 705.015L508.574 704.24L508.574 704.24L-149.584 48.54199L-149.584 48.54199L-148.075 47.01099L-148.075 47.01099L509.343 701.925L509.343 701.925L1325.528 -130.2729L1325.528 -130.2729L1327.008 -128.714z" /></clipPath><linearGradient transform="matrix(1 0 0 1 0 0)" id="24097" x1="22.4024" y1="1976.613" x2="22.40241976.613" y2="22.4024955.8331"><stop stop-color="#FFD800" offset="0%" /><stop stop-color="#FF387D" offset="100%" /></linearGradient><clipPath id="55"><path d="M509.005 737.073L508.266 736.29L508.266 736.29L-165.164 64.42798L-165.164 64.42798L-163.654 62.89697L-163.654 62.89697L509.035 733.983L509.035 733.983L1340.799 -114.092L1340.799 -114.092L1342.28 -112.532z" /></clipPath><linearGradient transform="matrix(1 0 0 1 0 0)" id="24691" x1="30.70532" y1="1968.074" x2="30.705321968.074" y2="30.70532955.3279"><stop stop-color="#FFD800" offset="0%" /><stop stop-color="#FF387D" offset="100%" /></linearGradient><clipPath id="56"><path d="M508.697 769.15L507.965 768.365L507.965 768.365L-180.744 80.31299L-180.744 80.31299L-179.234 78.78101L-179.234 78.78101L508.727 766.059L508.727 766.059L1356.071 -97.91003L1356.071 -97.91003L1357.552 -96.35095z" /></clipPath><linearGradient transform="matrix(1 0 0 1 0 0)" id="25293" x1="38.99622" y1="1959.537" x2="38.996221959.537" y2="38.99622954.8461"><stop stop-color="#FFD800" offset="0%" /><stop stop-color="#FF387D" offset="100%" /></linearGradient><clipPath id="57"><path d="M508.389 801.224L507.658 800.441L507.658 800.441L-196.331 96.198L-196.331 96.198L-194.822 94.66699L-194.822 94.66699L508.418 798.134L508.418 798.134L1371.351 -81.72803L1371.351 -81.72803L1372.831 -80.17004z" /></clipPath><linearGradient transform="matrix(1 0 0 1 0 0)" id="25892" x1="47.27234" y1="1950.997" x2="47.272341950.997" y2="47.27234954.3707"><stop stop-color="#FFD800" offset="0%" /><stop stop-color="#FF387D" offset="100%" /></linearGradient><clipPath id="58"><path d="M508.081 833.282L507.341 832.507L507.341 832.507L-211.911 112.083L-211.911 112.083L-210.402 110.553L-210.402 110.553L508.111 830.192L508.111 830.192L1386.623 -65.547L1386.623 -65.547L1388.103 -63.98706z" /></clipPath><linearGradient transform="matrix(1 0 0 1 0 0)" id="26487" x1="55.52362" y1="1942.461" x2="55.523621942.461" y2="55.52362953.9189"><stop stop-color="#FFD800" offset="0%" /><stop stop-color="#FF387D" offset="100%" /></linearGradient><clipPath id="59"><path d="M507.773 865.35L507.034 864.573L507.034 864.573L-227.491 127.968L-227.491 127.968L-225.981 126.438L-225.981 126.438L507.803 862.259L507.803 862.259L1401.894 -49.36597L1401.894 -49.36597L1403.375 -47.80505z" /></clipPath><linearGradient transform="matrix(1 0 0 1 0 0)" id="27085" x1="63.75647" y1="1933.922" x2="63.756471933.922" y2="63.75647953.4873"><stop stop-color="#FFD800" offset="0%" /><stop stop-color="#FF387D" offset="100%" /></linearGradient><clipPath id="60"><path d="M507.465 897.424L506.726 896.649L506.726 896.649L-243.071 143.863L-243.071 143.863L-241.561 142.3311L-241.561 142.3311L507.495 894.334L507.495 894.334L1417.166 -33.17603L1417.166 -33.17603L1418.647 -31.61597z" /></clipPath><linearGradient transform="matrix(1 0 0 1 0 0)" id="27686" x1="71.97931" y1="1925.38" x2="71.979311925.38" y2="71.97931953.0705"><stop stop-color="#FFD800" offset="0%" /><stop stop-color="#FF387D" offset="100%" /></linearGradient><clipPath id="61"><path d="M507.158 929.491L506.417 928.707L506.417 928.707L-258.651 159.748L-258.651 159.748L-257.149 158.2159L-257.149 158.2159L507.187 926.401L507.187 926.401L1432.447 -16.99402L1432.447 -16.99402L1433.918 -15.43396z" /></clipPath><linearGradient transform="matrix(1 0 0 1 0 0)" id="28285" x1="80.17804" y1="1916.847" x2="80.178041916.847" y2="80.17804952.674"><stop stop-color="#FFD800" offset="0%" /><stop stop-color="#FF387D" offset="100%" /></linearGradient><clipPath id="62"><path d="M73.6172 -776.9199L958.364 -776.9199L958.364 -776.9199L958.364 151.42L958.364 151.42L73.6172 151.42z" /></clipPath><clipPath id="63"><path d="M911.059 9.968018L210.558 -728.071L210.558 -728.071L212.216 -729.7749L212.216 -729.7749L912.717 8.265015z" /></clipPath><linearGradient transform="matrix(1 0 0 1 0 0)" id="29004" x1="208.7376" y1="1913.657" x2="208.73761913.657" y2="208.73763.50647"><stop stop-color="#560099" offset="0%" /><stop stop-color="#FF0A35" offset="100%" /></linearGradient><clipPath id="64"><path d="M899.647 21.755L199.146 -716.2749L199.146 -716.2749L200.805 -717.979L200.805 -717.979L901.305 20.05005z" /></clipPath><linearGradient transform="matrix(1 0 0 1 0 0)" id="29499" x1="197.3255" y1="1901.865" x2="197.32551901.865" y2="197.32553.50647"><stop stop-color="#560099" offset="0%" /><stop stop-color="#FF0A35" offset="100%" /></linearGradient><clipPath id="65"><path d="M888.236 33.54004L187.735 -704.489L187.735 -704.489L189.393 -706.1919L189.393 -706.1919L889.894 31.83704z" /></clipPath><linearGradient transform="matrix(1 0 0 1 0 0)" id="29996" x1="185.9143" y1="1890.079" x2="185.91431890.079" y2="185.91433.50647"><stop stop-color="#560099" offset="0%" /><stop stop-color="#FF0A35" offset="100%" /></linearGradient><clipPath id="66"><path d="M876.824 45.32703L176.323 -692.7119L176.323 -692.7119L177.981 -694.416L177.981 -694.416L878.482 43.62305z" /></clipPath><linearGradient transform="matrix(1 0 0 1 0 0)" id="30493" x1="174.5022" y1="1878.297" x2="174.50221878.297" y2="174.50223.50647"><stop stop-color="#560099" offset="0%" /><stop stop-color="#FF0A35" offset="100%" /></linearGradient><clipPath id="67"><path d="M865.412 57.11401L164.912 -680.916L164.912 -680.916L166.57 -682.6201L166.57 -682.6201L867.071 55.41003z" /></clipPath><linearGradient transform="matrix(1 0 0 1 0 0)" id="30988" x1="163.091" y1="1866.506" x2="163.0911866.506" y2="163.0913.50647"><stop stop-color="#560099" offset="0%" /><stop stop-color="#FF0A35" offset="100%" /></linearGradient><clipPath id="68"><path d="M854 68.91003L153.499 -669.1299L153.499 -669.1299L155.158 -670.834L155.158 -670.834L855.659 67.20496z" /></clipPath><linearGradient transform="matrix(1 0 0 1 0 0)" id="31478" x1="151.6789" y1="1854.715" x2="151.67891854.715" y2="151.67893.50647"><stop stop-color="#560099" offset="0%" /><stop stop-color="#FF0A35" offset="100%" /></linearGradient><clipPath id="69"><path d="M842.588 80.68604L142.087 -657.344L142.087 -657.344L143.747 -659.0471L143.747 -659.0471L844.247 78.98303z" /></clipPath><linearGradient transform="matrix(1 0 0 1 0 0)" id="31975" x1="140.2668" y1="1842.933" x2="140.26681842.933" y2="140.26683.506592"><stop stop-color="#560099" offset="0%" /><stop stop-color="#FF0A35" offset="100%" /></linearGradient><clipPath id="70"><path d="M831.177 92.47302L130.676 -645.5559L130.676 -645.5559L132.334 -647.26L132.334 -647.26L832.835 90.76904z" /></clipPath><linearGradient transform="matrix(1 0 0 1 0 0)" id="32471" x1="128.8556" y1="1831.147" x2="128.85561831.147" y2="128.85563.50647"><stop stop-color="#560099" offset="0%" /><stop stop-color="#FF0A35" offset="100%" /></linearGradient><clipPath id="71"><path d="M819.764 104.269L119.264 -633.769L119.264 -633.769L120.923 -635.4729L120.923 -635.4729L821.424 102.566z" /></clipPath><linearGradient transform="matrix(1 0 0 1 0 0)" id="32966" x1="117.4435" y1="1819.356" x2="117.44351819.356" y2="117.44353.506592"><stop stop-color="#560099" offset="0%" /><stop stop-color="#FF0A35" offset="100%" /></linearGradient><clipPath id="72"><path d="M808.353 116.056L107.853 -621.9839L107.853 -621.9839L109.511 -623.688L109.511 -623.688L810.012 114.351z" /></clipPath><linearGradient transform="matrix(1 0 0 1 0 0)" id="33462" x1="106.0323" y1="1807.569" x2="106.03231807.569" y2="106.03233.50647"><stop stop-color="#560099" offset="0%" /><stop stop-color="#FF0A35" offset="100%" /></linearGradient><clipPath id="73"><path d="M796.941 127.8409L96.441 -610.197L96.441 -610.197L98.1 -611.9009L98.1 -611.9009L798.6 126.1379z" /></clipPath><linearGradient transform="matrix(1 0 0 1 0 0)" id="33949" x1="94.62017" y1="1795.783" x2="94.620171795.783" y2="94.620173.50647"><stop stop-color="#560099" offset="0%" /><stop stop-color="#FF0A35" offset="100%" /></linearGradient><clipPath id="74"><path d="M785.529 139.6281L85.03 -598.4109L85.03 -598.4109L86.688 -600.114L86.688 -600.114L787.189 137.924z" /></clipPath><linearGradient transform="matrix(1 0 0 1 0 0)" id="34439" x1="83.20898" y1="1783.996" x2="83.208981783.996" y2="83.208983.50647"><stop stop-color="#560099" offset="0%" /><stop stop-color="#FF0A35" offset="100%" /></linearGradient><clipPath id="75"><path d="M774.118 151.415L73.618 -586.624L73.618 -586.624L75.276 -588.3279L75.276 -588.3279L775.777 149.7111z" /></clipPath><linearGradient transform="matrix(1 0 0 1 0 0)" id="34931" x1="71.79688" y1="1772.21" x2="71.796881772.21" y2="71.796883.50647"><stop stop-color="#560099" offset="0%" /><stop stop-color="#FF0A35" offset="100%" /></linearGradient><clipPath id="76"><path d="M0 -0.3869629L1176.341 -0.3869629L1176.341 -0.3869629L1176.341 1552L1176.341 1552L0 1552z" /></clipPath><clipPath id="77"><path d="M-372.599 643.454L-1430.399 643.454L-1430.399 643.454L-1430.399 568.776L-1430.399 568.776L-372.599 568.776z" /></clipPath><clipPath id="78"><path d="M-372.599 1357.345L-1430.399 1357.345L-1430.399 1357.345L-1430.399 -32.53601L-1430.399 -32.53601L-372.599 -32.53601z" /></clipPath><clipPath id="79"><path d="M-103.82 508.668L-500.745 1653.667L-500.745 1653.667L-1583.466 1336.008L-1583.466 1336.008L-1908.884 256.26L-1908.884 256.26L-821.538 -615.6951L-821.538 -615.6951L-209.822 197.7729z" /></clipPath><clipPath id="80"><path d="M-1913.63 252.61L71.74231 252.61L71.74231 252.61L71.74231 1407.496L71.74231 1407.496L-1913.63 1407.496z" /></clipPath><clipPath id="81"><path d="M-1428.566 1407.496L-2.745 1404.444L-2.745 1404.444L71.743 252.609L71.743 252.609L-1913.63 256.877z" /></clipPath><linearGradient transform="matrix(1 0 0 1 0 0)" id="36674" x1="-1630.059" y1="1536.967" x2="-1630.0591536.967" y2="-1630.0591486.015"><stop stop-color="#4C216D" offset="0%" /><stop stop-color="#B83F54" offset="100%" /></linearGradient><clipPath id="82"><path d="M-1689.83 -254.52L2.742554 -254.52L2.742554 -254.52L2.742554 950.8821L2.742554 950.8821L-1689.83 950.8821z" /></clipPath><clipPath id="83"><path d="M-924.019 950.882L-924.758 950.098L-924.758 950.098L-1689.827 181.1379L-1689.827 181.1379L-1688.325 179.6071L-1688.325 179.6071L-923.989 947.791L-923.989 947.791L1.27 4.396973L1.27 4.396973L2.743 5.954956z" /></clipPath><linearGradient transform="matrix(1 0 0 1 0 0)" id="37575" x1="-1350.998" y1="1895.456" x2="-1350.9981895.456" y2="-1350.998952.674"><stop stop-color="#FFD800" offset="0%" /><stop stop-color="#FF387D" offset="100%" /></linearGradient><clipPath id="84"><path d="M604.568 117.78L1074.07 117.78L1074.07 117.78L1074.07 503.27L1074.07 503.27L604.568 503.27z" /></clipPath><clipPath id="85"><path d="M149.401 800.58L1053.31 800.58L1053.31 800.58L1053.31 1327.792L1053.31 1327.792L149.401 1327.792z" /></clipPath><clipPath id="86"><path d="M-372.599 1044.89L-1430.399 1044.89L-1430.399 1044.89L-1430.399 970.212L-1430.399 970.212L-372.599 970.212z" /></clipPath><clipPath id="87"><path d="M-372.599 1758.781L-1430.399 1758.781L-1430.399 1758.781L-1430.399 368.899L-1430.399 368.899L-372.599 368.899z" /></clipPath><clipPath id="88"><path d="M-103.82 910.103L-500.745 2055.102L-500.745 2055.102L-1583.466 1737.444L-1583.466 1737.444L-1908.884 657.695L-1908.884 657.695L-821.538 -214.26L-821.538 -214.26L-209.822 599.207z" /></clipPath><clipPath id="89"><path d="M-1913.63 654.044L71.74231 654.044L71.74231 654.044L71.74231 1808.931L71.74231 1808.931L-1913.63 1808.931z" /></clipPath><clipPath id="90"><path d="M-1428.566 1808.931L-2.745 1805.878L-2.745 1805.878L71.743 654.044L71.743 654.044L-1913.63 658.312z" /></clipPath><linearGradient transform="matrix(1 0 0 1 0 0)" id="39562" x1="-1630.059" y1="1135.532" x2="-1630.0591135.532" y2="-1630.0591486.015"><stop stop-color="#4C216D" offset="0%" /><stop stop-color="#B83F54" offset="100%" /></linearGradient><clipPath id="91"><path d="M-1689.83 146.91L2.742554 146.91L2.742554 146.91L2.742554 1352.317L2.742554 1352.317L-1689.83 1352.317z" /></clipPath><clipPath id="92"><path d="M-924.019 1352.317L-924.758 1351.532L-924.758 1351.532L-1689.827 582.573L-1689.827 582.573L-1688.325 581.042L-1688.325 581.042L-923.989 1349.227L-923.989 1349.227L1.27 405.8311L1.27 405.8311L2.743 407.391z" /></clipPath><linearGradient transform="matrix(1 0 0 1 0 0)" id="40460" x1="-1350.998" y1="1494.021" x2="-1350.9981494.021" y2="-1350.998952.674"><stop stop-color="#FFD800" offset="0%" /><stop stop-color="#FF387D" offset="100%" /></linearGradient><clipPath id="93"><path d="M619.469 488.027L1059.313 488.027L1059.313 488.027L1059.313 130.974L1059.313 130.974L619.469 130.974z" /></clipPath></defs></svg>