<svg xmlns="http://www.w3.org/2000/svg" xmlns:xlink="http://www.w3.org/1999/xlink" id="body_8" preserveAspectRatio="xMinYMin meet" viewBox="0 0 1568 2069"><g transform="matrix(1.333333 0 0 1.333333 0 0)"><g><g clip-path="url(#1)"><g clip-path="url(#2)"><g clip-path="url(#3)"><g clip-path="url(#4)"><g clip-path="url(#5)"><g><g clip-path="url(#6)"><g clip-path="url(#7)"><g><path transform="matrix(1 0 0 -1 0 1552)" d="M0 378L1176 1751L1176 1751L1176 5263L1176 5263L0 3890" stroke="none" fill="url(#1672)" /><path transform="matrix(1 0 0 -1 0 1552)" d="M0 379.3056L1176 1752.447L1176 1752.447L1176 0L1176 0L0 0" stroke="none" fill="#4C216D" fill-rule="evenodd" fill-opacity="0.8980392" /><path transform="matrix(1 0 0 -1 0 1552)" d="M0 3889.319L1176 5262.46L1176 5262.46L1176 1552L1176 1552L0 1552" stroke="none" fill="#B83F54" fill-rule="evenodd" fill-opacity="0.8980392" /></g></g></g></g><g><g clip-path="url(#8)"><g clip-path="url(#9)"><g><path transform="matrix(1 0 0 -1 0 1552)" d="M0 1960L1176 761L1176 761L1176 -1182L1176 -1182L0 17" stroke="none" fill="url(#2562)" /><path transform="matrix(1 0 0 -1 0 1552)" d="M0 1958.601L1176 759.7935L1176 759.7935L1176 1552L1176 1552L0 1552" stroke="none" fill="#FFD800" fill-rule="evenodd" fill-opacity="0.1960784" /><path transform="matrix(1 0 0 -1 0 1552)" d="M0 17.94186L1176 -1180.866L1176 -1180.866L1176 0L1176 0L0 0" stroke="none" fill="#FF387D" fill-rule="evenodd" fill-opacity="0.1960784" /></g></g></g></g></g></g></g></g><g clip-path="url(#10)"><g><g clip-path="url(#11)"><g clip-path="url(#12)"><g><path transform="matrix(1 0 0 -1 0 1552)" d="M0 -2268L1176 -894L1176 -894L1176 2618L1176 2618L0 1244" stroke="none" fill="url(#3471)" /><path transform="matrix(1 0 0 -1 0 1552)" d="M0 -2266.561L1176 -893.4193L1176 -893.4193L1176 0L1176 0L0 0" stroke="none" fill="#4C216D" fill-rule="evenodd" fill-opacity="0.8980392" /><path transform="matrix(1 0 0 -1 0 1552)" d="M0 1243.452L1176 2616.594L1176 2616.594L1176 1552L1176 1552L0 1552" stroke="none" fill="#B83F54" fill-rule="evenodd" fill-opacity="0.8980392" /></g></g></g></g><g><g clip-path="url(#13)"><g clip-path="url(#14)"><g><path transform="matrix(1 0 0 -1 0 1552)" d="M0 2450L1176 1251L1176 1251L1176 -709L1176 -709L0 490" stroke="none" fill="url(#4280)" /><path transform="matrix(1 0 0 -1 0 1552)" d="M0 2449.171L1176 1250.364L1176 1250.364L1176 1552L1176 1552L0 1552" stroke="none" fill="#FFD800" fill-rule="evenodd" fill-opacity="0.1960784" /><path transform="matrix(1 0 0 -1 0 1552)" d="M0 490.6879L1176 -708.1196L1176 -708.1196L1176 0L1176 0L0 0" stroke="none" fill="#FF387D" fill-rule="evenodd" fill-opacity="0.1960784" /></g></g><g clip-path="url(#15)"><g><path transform="matrix(1 0 0 -1 0 1552)" d="M0 2450L1176 1251L1176 1251L1176 -708L1176 -708L0 491" stroke="none" fill="url(#4867)" /><path transform="matrix(1 0 0 -1 0 1552)" d="M0 2448.589L1176 1249.782L1176 1249.782L1176 1552L1176 1552L0 1552" stroke="none" fill="#FFD800" fill-rule="evenodd" fill-opacity="0.1960784" /><path transform="matrix(1 0 0 -1 0 1552)" d="M0 491.5958L1176 -707.2117L1176 -707.2117L1176 0L1176 0L0 0" stroke="none" fill="#FF387D" fill-rule="evenodd" fill-opacity="0.1960784" /></g></g><g clip-path="url(#16)"><g><path transform="matrix(1 0 0 -1 0 1552)" d="M0 2449L1176 1250L1176 1250L1176 -707L1176 -707L0 491" stroke="none" fill="url(#5454)" /><path transform="matrix(1 0 0 -1 0 1552)" d="M0 2448.006L1176 1249.198L1176 1249.198L1176 1552L1176 1552L0 1552" stroke="none" fill="#FFD800" fill-rule="evenodd" fill-opacity="0.1960784" /><path transform="matrix(1 0 0 -1 0 1552)" d="M0 492.4384L1176 -706.369L1176 -706.369L1176 0L1176 0L0 0" stroke="none" fill="#FF387D" fill-rule="evenodd" fill-opacity="0.1960784" /></g></g><g clip-path="url(#17)"><g><path transform="matrix(1 0 0 -1 0 1552)" d="M0 2448L1176 1250L1176 1250L1176 -707L1176 -707L0 492" stroke="none" fill="url(#6049)" /><path transform="matrix(1 0 0 -1 0 1552)" d="M0 2447.422L1176 1248.614L1176 1248.614L1176 1552L1176 1552L0 1552" stroke="none" fill="#FFD800" fill-rule="evenodd" fill-opacity="0.1960784" /><path transform="matrix(1 0 0 -1 0 1552)" d="M0 493.2236L1176 -705.5839L1176 -705.5839L1176 0L1176 0L0 0" stroke="none" fill="#FF387D" fill-rule="evenodd" fill-opacity="0.1960784" /></g></g><g clip-path="url(#18)"><g><path transform="matrix(1 0 0 -1 0 1552)" d="M0 2448L1176 1249L1176 1249L1176 -706L1176 -706L0 493" stroke="none" fill="url(#6638)" /><path transform="matrix(1 0 0 -1 0 1552)" d="M0 2446.835L1176 1248.027L1176 1248.027L1176 1552L1176 1552L0 1552" stroke="none" fill="#FFD800" fill-rule="evenodd" fill-opacity="0.1960784" /><path transform="matrix(1 0 0 -1 0 1552)" d="M0 493.9353L1176 -704.8722L1176 -704.8722L1176 0L1176 0L0 0" stroke="none" fill="#FF387D" fill-rule="evenodd" fill-opacity="0.1960784" /></g></g><g clip-path="url(#19)"><g><path transform="matrix(1 0 0 -1 0 1552)" d="M0 2447L1176 1248L1176 1248L1176 -705L1176 -705L0 494" stroke="none" fill="url(#7234)" /><path transform="matrix(1 0 0 -1 0 1552)" d="M0 2446.246L1176 1247.439L1176 1247.439L1176 1552L1176 1552L0 1552" stroke="none" fill="#FFD800" fill-rule="evenodd" fill-opacity="0.1960784" /><path transform="matrix(1 0 0 -1 0 1552)" d="M0 494.5961L1176 -704.2114L1176 -704.2114L1176 0L1176 0L0 0" stroke="none" fill="#FF387D" fill-rule="evenodd" fill-opacity="0.1960784" /></g></g><g clip-path="url(#20)"><g><path transform="matrix(1 0 0 -1 0 1552)" d="M0 2447L1176 1248L1176 1248L1176 -705L1176 -705L0 494" stroke="none" fill="url(#7828)" /><path transform="matrix(1 0 0 -1 0 1552)" d="M0 2445.661L1176 1246.854L1176 1246.854L1176 1552L1176 1552L0 1552" stroke="none" fill="#FFD800" fill-rule="evenodd" fill-opacity="0.1960784" /><path transform="matrix(1 0 0 -1 0 1552)" d="M0 495.2113L1176 -703.5962L1176 -703.5962L1176 0L1176 0L0 0" stroke="none" fill="#FF387D" fill-rule="evenodd" fill-opacity="0.1960784" /></g></g><g clip-path="url(#21)"><g><path transform="matrix(1 0 0 -1 0 1552)" d="M0 2446L1176 1247L1176 1247L1176 -704L1176 -704L0 495" stroke="none" fill="url(#8424)" /><path transform="matrix(1 0 0 -1 0 1552)" d="M0 2445.071L1176 1246.264L1176 1246.264L1176 1552L1176 1552L0 1552" stroke="none" fill="#FFD800" fill-rule="evenodd" fill-opacity="0.1960784" /><path transform="matrix(1 0 0 -1 0 1552)" d="M0 495.782L1176 -703.0256L1176 -703.0256L1176 0L1176 0L0 0" stroke="none" fill="#FF387D" fill-rule="evenodd" fill-opacity="0.1960784" /></g></g><g clip-path="url(#22)"><g><path transform="matrix(1 0 0 -1 0 1552)" d="M0 2445L1176 1247L1176 1247L1176 -704L1176 -704L0 495" stroke="none" fill="url(#9023)" /><path transform="matrix(1 0 0 -1 0 1552)" d="M0 2444.474L1176 1245.666L1176 1245.666L1176 1552L1176 1552L0 1552" stroke="none" fill="#FFD800" fill-rule="evenodd" fill-opacity="0.1960784" /><path transform="matrix(1 0 0 -1 0 1552)" d="M0 496.306L1176 -702.5015L1176 -702.5015L1176 0L1176 0L0 0" stroke="none" fill="#FF387D" fill-rule="evenodd" fill-opacity="0.1960784" /></g></g><g clip-path="url(#23)"><g><path transform="matrix(1 0 0 -1 0 1552)" d="M0 2445L1176 1246L1176 1246L1176 -703L1176 -703L0 496" stroke="none" fill="url(#9620)" /><path transform="matrix(1 0 0 -1 0 1552)" d="M0 2443.889L1176 1245.082L1176 1245.082L1176 1552L1176 1552L0 1552" stroke="none" fill="#FFD800" fill-rule="evenodd" fill-opacity="0.1960784" /><path transform="matrix(1 0 0 -1 0 1552)" d="M0 496.7883L1176 -702.0193L1176 -702.0193L1176 0L1176 0L0 0" stroke="none" fill="#FF387D" fill-rule="evenodd" fill-opacity="0.1960784" /></g></g><g clip-path="url(#24)"><g><path transform="matrix(1 0 0 -1 0 1552)" d="M0 2444L1176 1245L1176 1245L1176 -703L1176 -703L0 496" stroke="none" fill="url(#10217)" /><path transform="matrix(1 0 0 -1 0 1552)" d="M0 2443.289L1176 1244.481L1176 1244.481L1176 1552L1176 1552L0 1552" stroke="none" fill="#FFD800" fill-rule="evenodd" fill-opacity="0.1960784" /><path transform="matrix(1 0 0 -1 0 1552)" d="M0 497.218L1176 -701.5895L1176 -701.5895L1176 0L1176 0L0 0" stroke="none" fill="#FF387D" fill-rule="evenodd" fill-opacity="0.1960784" /></g></g><g clip-path="url(#25)"><g><path transform="matrix(1 0 0 -1 0 1552)" d="M0 2444L1176 1245L1176 1245L1176 -702L1176 -702L0 497" stroke="none" fill="url(#10814)" /><path transform="matrix(1 0 0 -1 0 1552)" d="M0 2442.703L1176 1243.896L1176 1243.896L1176 1552L1176 1552L0 1552" stroke="none" fill="#FFD800" fill-rule="evenodd" fill-opacity="0.1960784" /><path transform="matrix(1 0 0 -1 0 1552)" d="M0 497.6153L1176 -701.1922L1176 -701.1922L1176 0L1176 0L0 0" stroke="none" fill="#FF387D" fill-rule="evenodd" fill-opacity="0.1960784" /></g></g><g clip-path="url(#26)"><g><path transform="matrix(1 0 0 -1 0 1552)" d="M0 2443L1176 1244L1176 1244L1176 -702L1176 -702L0 497" stroke="none" fill="url(#11411)" /><path transform="matrix(1 0 0 -1 0 1552)" d="M0 2442.105L1176 1243.298L1176 1243.298L1176 1552L1176 1552L0 1552" stroke="none" fill="#FFD800" fill-rule="evenodd" fill-opacity="0.1960784" /><path transform="matrix(1 0 0 -1 0 1552)" d="M0 497.9868L1176 -700.8206L1176 -700.8206L1176 0L1176 0L0 0" stroke="none" fill="#FF387D" fill-rule="evenodd" fill-opacity="0.1960784" /></g></g><g clip-path="url(#27)"><g><path transform="matrix(1 0 0 -1 0 1552)" d="M0 2443L1176 1244L1176 1244L1176 -701L1176 -701L0 497" stroke="none" fill="url(#12009)" /><path transform="matrix(1 0 0 -1 0 1552)" d="M0 2441.511L1176 1242.704L1176 1242.704L1176 1552L1176 1552L0 1552" stroke="none" fill="#FFD800" fill-rule="evenodd" fill-opacity="0.1960784" /><path transform="matrix(1 0 0 -1 0 1552)" d="M0 498.3135L1176 -700.494L1176 -700.494L1176 0L1176 0L0 0" stroke="none" fill="#FF387D" fill-rule="evenodd" fill-opacity="0.1960784" /></g></g><g clip-path="url(#28)"><g><path transform="matrix(1 0 0 -1 0 1552)" d="M0 2442L1176 1243L1176 1243L1176 -701L1176 -701L0 498" stroke="none" fill="url(#12602)" /><path transform="matrix(1 0 0 -1 0 1552)" d="M0 2440.916L1176 1242.109L1176 1242.109L1176 1552L1176 1552L0 1552" stroke="none" fill="#FFD800" fill-rule="evenodd" fill-opacity="0.1960784" /><path transform="matrix(1 0 0 -1 0 1552)" d="M0 498.5988L1176 -700.2087L1176 -700.2087L1176 0L1176 0L0 0" stroke="none" fill="#FF387D" fill-rule="evenodd" fill-opacity="0.1960784" /></g></g><g clip-path="url(#29)"><g><path transform="matrix(1 0 0 -1 0 1552)" d="M0 2441L1176 1243L1176 1243L1176 -701L1176 -701L0 498" stroke="none" fill="url(#13189)" /><path transform="matrix(1 0 0 -1 0 1552)" d="M0 2440.324L1176 1241.516L1176 1241.516L1176 1552L1176 1552L0 1552" stroke="none" fill="#FFD800" fill-rule="evenodd" fill-opacity="0.1960784" /><path transform="matrix(1 0 0 -1 0 1552)" d="M0 498.8562L1176 -699.9513L1176 -699.9513L1176 0L1176 0L0 0" stroke="none" fill="#FF387D" fill-rule="evenodd" fill-opacity="0.1960784" /></g></g><g clip-path="url(#30)"><g><path transform="matrix(1 0 0 -1 0 1552)" d="M0 2441L1176 1242L1176 1242L1176 -701L1176 -701L0 498" stroke="none" fill="url(#13783)" /><path transform="matrix(1 0 0 -1 0 1552)" d="M0 2439.736L1176 1240.929L1176 1240.929L1176 1552L1176 1552L0 1552" stroke="none" fill="#FFD800" fill-rule="evenodd" fill-opacity="0.1960784" /><path transform="matrix(1 0 0 -1 0 1552)" d="M0 499.0773L1176 -699.7303L1176 -699.7303L1176 0L1176 0L0 0" stroke="none" fill="#FF387D" fill-rule="evenodd" fill-opacity="0.1960784" /></g></g></g></g><g><g clip-path="url(#31)"><g clip-path="url(#32)"><g><path transform="matrix(1 0 0 -1 0 1552)" d="M0 -49633L1176 187078L1176 187078L1176 45007L1176 45007L0 -191704" stroke="none" fill="url(#14493)" /><path transform="matrix(1 0 0 -1 0 1552)" d="M0 -49751.83L1176 186959.4L1176 186959.4L1176 1552L1176 1552L0 1552" stroke="none" fill="#560099" fill-rule="evenodd" fill-opacity="0.04705882" /><path transform="matrix(1 0 0 -1 0 1552)" d="M0 -191585.6L1176 45125.62L1176 45125.62L1176 0L1176 0L0 0" stroke="none" fill="#FF0A35" fill-rule="evenodd" fill-opacity="0.04705882" /></g></g><g clip-path="url(#33)"><g><path transform="matrix(1 0 0 -1 0 1552)" d="M0 -47348L1176 189363L1176 189363L1176 47292L1176 47292L0 -189419" stroke="none" fill="url(#14986)" /><path transform="matrix(1 0 0 -1 0 1552)" d="M0 -47466.71L1176 189244.5L1176 189244.5L1176 1552L1176 1552L0 1552" stroke="none" fill="#560099" fill-rule="evenodd" fill-opacity="0.04705882" /><path transform="matrix(1 0 0 -1 0 1552)" d="M0 -189300.5L1176 47410.74L1176 47410.74L1176 0L1176 0L0 0" stroke="none" fill="#FF0A35" fill-rule="evenodd" fill-opacity="0.04705882" /></g></g><g clip-path="url(#34)"><g><path transform="matrix(1 0 0 -1 0 1552)" d="M0 -45063L1176 191648L1176 191648L1176 49578L1176 49578L0 -187134" stroke="none" fill="url(#15477)" /><path transform="matrix(1 0 0 -1 0 1552)" d="M0 -45181.41L1176 191529.8L1176 191529.8L1176 1552L1176 1552L0 1552" stroke="none" fill="#560099" fill-rule="evenodd" fill-opacity="0.04705882" /><path transform="matrix(1 0 0 -1 0 1552)" d="M0 -187015.2L1176 49696.04L1176 49696.04L1176 0L1176 0L0 0" stroke="none" fill="#FF0A35" fill-rule="evenodd" fill-opacity="0.04705882" /></g></g><g clip-path="url(#35)"><g><path transform="matrix(1 0 0 -1 0 1552)" d="M0 -42776L1176 193927L1176 193927L1176 51861L1176 51861L0 -184842" stroke="none" fill="url(#15970)" /><path transform="matrix(1 0 0 -1 0 1552)" d="M0 -42894.63L1176 193808.6L1176 193808.6L1176 1552L1176 1552L0 1552" stroke="none" fill="#560099" fill-rule="evenodd" fill-opacity="0.04705882" /><path transform="matrix(1 0 0 -1 0 1552)" d="M0 -184723.8L1176 51979.46L1176 51979.46L1176 0L1176 0L0 0" stroke="none" fill="#FF0A35" fill-rule="evenodd" fill-opacity="0.04705882" /></g></g><g clip-path="url(#36)"><g><path transform="matrix(1 0 0 -1 0 1552)" d="M0 -40493L1176 196219L1176 196219L1176 54148L1176 54148L0 -182563" stroke="none" fill="url(#16463)" /><path transform="matrix(1 0 0 -1 0 1552)" d="M0 -40611L1176 196100.2L1176 196100.2L1176 1552L1176 1552L0 1552" stroke="none" fill="#560099" fill-rule="evenodd" fill-opacity="0.04705882" /><path transform="matrix(1 0 0 -1 0 1552)" d="M0 -182444.8L1176 54266.45L1176 54266.45L1176 0L1176 0L0 0" stroke="none" fill="#FF0A35" fill-rule="evenodd" fill-opacity="0.04705882" /></g></g><g clip-path="url(#37)"><g><path transform="matrix(1 0 0 -1 0 1552)" d="M0 -38207L1176 198504L1176 198504L1176 56433L1176 56433L0 -180278" stroke="none" fill="url(#16955)" /><path transform="matrix(1 0 0 -1 0 1552)" d="M0 -38325.7L1176 198385.5L1176 198385.5L1176 1552L1176 1552L0 1552" stroke="none" fill="#560099" fill-rule="evenodd" fill-opacity="0.04705882" /><path transform="matrix(1 0 0 -1 0 1552)" d="M0 -180159.5L1176 56551.75L1176 56551.75L1176 0L1176 0L0 0" stroke="none" fill="#FF0A35" fill-rule="evenodd" fill-opacity="0.04705882" /></g></g><g clip-path="url(#38)"><g><path transform="matrix(1 0 0 -1 0 1552)" d="M0 -35922L1176 200789L1176 200789L1176 58719L1176 58719L0 -177993" stroke="none" fill="url(#17445)" /><path transform="matrix(1 0 0 -1 0 1552)" d="M0 -36040.59L1176 200670.6L1176 200670.6L1176 1552L1176 1552L0 1552" stroke="none" fill="#560099" fill-rule="evenodd" fill-opacity="0.04705882" /><path transform="matrix(1 0 0 -1 0 1552)" d="M0 -177874.3L1176 58836.87L1176 58836.87L1176 0L1176 0L0 0" stroke="none" fill="#FF0A35" fill-rule="evenodd" fill-opacity="0.04705882" /></g></g><g clip-path="url(#39)"><g><path transform="matrix(1 0 0 -1 0 1552)" d="M0 -33637L1176 203074L1176 203074L1176 61004L1176 61004L0 -175707" stroke="none" fill="url(#17936)" /><path transform="matrix(1 0 0 -1 0 1552)" d="M0 -33755.29L1176 202955.9L1176 202955.9L1176 1552L1176 1552L0 1552" stroke="none" fill="#560099" fill-rule="evenodd" fill-opacity="0.04705882" /><path transform="matrix(1 0 0 -1 0 1552)" d="M0 -175589L1176 61122.16L1176 61122.16L1176 0L1176 0L0 0" stroke="none" fill="#FF0A35" fill-rule="evenodd" fill-opacity="0.04705882" /></g></g><g clip-path="url(#40)"><g><path transform="matrix(1 0 0 -1 0 1552)" d="M0 -31352L1176 205359L1176 205359L1176 63289L1176 63289L0 -173422" stroke="none" fill="url(#18427)" /><path transform="matrix(1 0 0 -1 0 1552)" d="M0 -31470.17L1176 205241L1176 205241L1176 1552L1176 1552L0 1552" stroke="none" fill="#560099" fill-rule="evenodd" fill-opacity="0.04705882" /><path transform="matrix(1 0 0 -1 0 1552)" d="M0 -173303.9L1176 63407.27L1176 63407.27L1176 0L1176 0L0 0" stroke="none" fill="#FF0A35" fill-rule="evenodd" fill-opacity="0.04705882" /></g></g><g clip-path="url(#41)"><g><path transform="matrix(1 0 0 -1 0 1552)" d="M0 -29067L1176 207645L1176 207645L1176 65574L1176 65574L0 -171137" stroke="none" fill="url(#18916)" /><path transform="matrix(1 0 0 -1 0 1552)" d="M0 -29184.87L1176 207526.3L1176 207526.3L1176 1552L1176 1552L0 1552" stroke="none" fill="#560099" fill-rule="evenodd" fill-opacity="0.04705882" /><path transform="matrix(1 0 0 -1 0 1552)" d="M0 -171018.6L1176 65692.58L1176 65692.58L1176 0L1176 0L0 0" stroke="none" fill="#FF0A35" fill-rule="evenodd" fill-opacity="0.04705882" /></g></g><g clip-path="url(#42)"><g><path transform="matrix(1 0 0 -1 0 1552)" d="M0 -26780L1176 209923L1176 209923L1176 67857L1176 67857L0 -168846" stroke="none" fill="url(#19405)" /><path transform="matrix(1 0 0 -1 0 1552)" d="M0 -26898.63L1176 209804.7L1176 209804.7L1176 1552L1176 1552L0 1552" stroke="none" fill="#560099" fill-rule="evenodd" fill-opacity="0.04705882" /><path transform="matrix(1 0 0 -1 0 1552)" d="M0 -168727.8L1176 67975.46L1176 67975.46L1176 0L1176 0L0 0" stroke="none" fill="#FF0A35" fill-rule="evenodd" fill-opacity="0.04705882" /></g></g><g clip-path="url(#43)"><g><path transform="matrix(1 0 0 -1 0 1552)" d="M0 -24496L1176 212215L1176 212215L1176 70145L1176 70145L0 -166567" stroke="none" fill="url(#19896)" /><path transform="matrix(1 0 0 -1 0 1552)" d="M0 -24614.46L1176 212096.8L1176 212096.8L1176 1552L1176 1552L0 1552" stroke="none" fill="#560099" fill-rule="evenodd" fill-opacity="0.04705882" /><path transform="matrix(1 0 0 -1 0 1552)" d="M0 -166448.2L1176 70263L1176 70263L1176 0L1176 0L0 0" stroke="none" fill="#FF0A35" fill-rule="evenodd" fill-opacity="0.04705882" /></g></g><g clip-path="url(#44)"><g><path transform="matrix(1 0 0 -1 0 1552)" d="M0 -22210L1176 214493L1176 214493L1176 72427L1176 72427L0 -164276" stroke="none" fill="url(#20393)" /><path transform="matrix(1 0 0 -1 0 1552)" d="M0 -22328.37L1176 214374.9L1176 214374.9L1176 1552L1176 1552L0 1552" stroke="none" fill="#560099" fill-rule="evenodd" fill-opacity="0.04705882" /><path transform="matrix(1 0 0 -1 0 1552)" d="M0 -164157.5L1176 72545.72L1176 72545.72L1176 0L1176 0L0 0" stroke="none" fill="#FF0A35" fill-rule="evenodd" fill-opacity="0.04705882" /></g></g><g clip-path="url(#45)"><g><path transform="matrix(1 0 0 -1 0 1552)" d="M0 -19926L1176 216786L1176 216786L1176 74715L1176 74715L0 -161996" stroke="none" fill="url(#20882)" /><path transform="matrix(1 0 0 -1 0 1552)" d="M0 -20044.05L1176 216667.2L1176 216667.2L1176 1552L1176 1552L0 1552" stroke="none" fill="#560099" fill-rule="evenodd" fill-opacity="0.04705882" /><path transform="matrix(1 0 0 -1 0 1552)" d="M0 -161877.8L1176 74833.41L1176 74833.41L1176 0L1176 0L0 0" stroke="none" fill="#FF0A35" fill-rule="evenodd" fill-opacity="0.04705882" /></g></g><g clip-path="url(#46)"><g><path transform="matrix(1 0 0 -1 0 1552)" d="M0 -17640L1176 219071L1176 219071L1176 77000L1176 77000L0 -159711" stroke="none" fill="url(#21375)" /><path transform="matrix(1 0 0 -1 0 1552)" d="M0 -17758.74L1176 218952.5L1176 218952.5L1176 1552L1176 1552L0 1552" stroke="none" fill="#560099" fill-rule="evenodd" fill-opacity="0.04705882" /><path transform="matrix(1 0 0 -1 0 1552)" d="M0 -159592.5L1176 77118.71L1176 77118.71L1176 0L1176 0L0 0" stroke="none" fill="#FF0A35" fill-rule="evenodd" fill-opacity="0.04705882" /></g></g><g clip-path="url(#47)"><g><path transform="matrix(1 0 0 -1 0 1552)" d="M0 -15355L1176 221356L1176 221356L1176 79285L1176 79285L0 -157426" stroke="none" fill="url(#21859)" /><path transform="matrix(1 0 0 -1 0 1552)" d="M0 -15473.63L1176 221237.6L1176 221237.6L1176 1552L1176 1552L0 1552" stroke="none" fill="#560099" fill-rule="evenodd" fill-opacity="0.04705882" /><path transform="matrix(1 0 0 -1 0 1552)" d="M0 -157307.4L1176 79403.83L1176 79403.83L1176 0L1176 0L0 0" stroke="none" fill="#FF0A35" fill-rule="evenodd" fill-opacity="0.04705882" /></g></g><g clip-path="url(#48)"><g><path transform="matrix(1 0 0 -1 0 1552)" d="M0 -13070L1176 223641L1176 223641L1176 81571L1176 81571L0 -155140" stroke="none" fill="url(#22347)" /><path transform="matrix(1 0 0 -1 0 1552)" d="M0 -13188.33L1176 223522.9L1176 223522.9L1176 1552L1176 1552L0 1552" stroke="none" fill="#560099" fill-rule="evenodd" fill-opacity="0.04705882" /><path transform="matrix(1 0 0 -1 0 1552)" d="M0 -155022.1L1176 81689.13L1176 81689.13L1176 0L1176 0L0 0" stroke="none" fill="#FF0A35" fill-rule="evenodd" fill-opacity="0.04705882" /></g></g></g></g></g><g clip-path="url(#49)"><g><g clip-path="url(#50)"><g clip-path="url(#51)"><g><path transform="matrix(1 0 0 -1 0 1552)" d="M0 759L1176 1020L1176 1020L1176 869L1176 869L0 607" stroke="none" fill="url(#23498)" /><path transform="matrix(1 0 0 -1 0 1552)" d="M0 757.5447L1176 1018.878L1176 1018.878L1176 1552L1176 1552L0 1552" stroke="none" fill="#4C216D" fill-rule="evenodd" fill-opacity="0.8980392" /><path transform="matrix(1 0 0 -1 0 1552)" d="M0 608.4336L1176 869.7669L1176 869.7669L1176 0L1176 0L0 0" stroke="none" fill="#B83F54" fill-rule="evenodd" fill-opacity="0.8980392" /></g></g><g clip-path="url(#52)"><g><path transform="matrix(1 0 0 -1 0 1552)" d="M0 759L1176 1020L1176 1020L1176 869L1176 869L0 607" stroke="none" fill="url(#24452)" /><path transform="matrix(1 0 0 -1 0 1552)" d="M0 757.5447L1176 1018.878L1176 1018.878L1176 1552L1176 1552L0 1552" stroke="none" fill="#4C216D" fill-rule="evenodd" fill-opacity="0.8980392" /><path transform="matrix(1 0 0 -1 0 1552)" d="M0 608.4336L1176 869.7669L1176 869.7669L1176 0L1176 0L0 0" stroke="none" fill="#B83F54" fill-rule="evenodd" fill-opacity="0.8980392" /></g></g><g clip-path="url(#53)"><g><path transform="matrix(1 0 0 -1 0 1552)" d="M0 759L1176 1020L1176 1020L1176 869L1176 869L0 607" stroke="none" fill="url(#25259)" /><path transform="matrix(1 0 0 -1 0 1552)" d="M0 757.5447L1176 1018.878L1176 1018.878L1176 1552L1176 1552L0 1552" stroke="none" fill="#4C216D" fill-rule="evenodd" fill-opacity="0.8980392" /><path transform="matrix(1 0 0 -1 0 1552)" d="M0 608.4336L1176 869.767L1176 869.767L1176 0L1176 0L0 0" stroke="none" fill="#B83F54" fill-rule="evenodd" fill-opacity="0.8980392" /></g></g><g clip-path="url(#54)"><g><path transform="matrix(1 0 0 -1 0 1552)" d="M0 759L1176 1020L1176 1020L1176 869L1176 869L0 607" stroke="none" fill="url(#26806)" /><path transform="matrix(1 0 0 -1 0 1552)" d="M0 757.5447L1176 1018.878L1176 1018.878L1176 1552L1176 1552L0 1552" stroke="none" fill="#4C216D" fill-rule="evenodd" fill-opacity="0.8980392" /><path transform="matrix(1 0 0 -1 0 1552)" d="M0 608.4336L1176 869.767L1176 869.767L1176 0L1176 0L0 0" stroke="none" fill="#B83F54" fill-rule="evenodd" fill-opacity="0.8980392" /></g></g><g clip-path="url(#55)"><g><path transform="matrix(1 0 0 -1 0 1552)" d="M0 759L1176 1020L1176 1020L1176 869L1176 869L0 607" stroke="none" fill="url(#27629)" /><path transform="matrix(1 0 0 -1 0 1552)" d="M0 757.5447L1176 1018.878L1176 1018.878L1176 1552L1176 1552L0 1552" stroke="none" fill="#4C216D" fill-rule="evenodd" fill-opacity="0.8980392" /><path transform="matrix(1 0 0 -1 0 1552)" d="M0 608.4336L1176 869.767L1176 869.767L1176 0L1176 0L0 0" stroke="none" fill="#B83F54" fill-rule="evenodd" fill-opacity="0.8980392" /></g></g><g clip-path="url(#56)"><g><path transform="matrix(1 0 0 -1 0 1552)" d="M0 759L1176 1020L1176 1020L1176 869L1176 869L0 607" stroke="none" fill="url(#28319)" /><path transform="matrix(1 0 0 -1 0 1552)" d="M0 757.5447L1176 1018.878L1176 1018.878L1176 1552L1176 1552L0 1552" stroke="none" fill="#4C216D" fill-rule="evenodd" fill-opacity="0.8980392" /><path transform="matrix(1 0 0 -1 0 1552)" d="M0 608.4336L1176 869.767L1176 869.767L1176 0L1176 0L0 0" stroke="none" fill="#B83F54" fill-rule="evenodd" fill-opacity="0.8980392" /></g></g><g clip-path="url(#57)"><g><path transform="matrix(1 0 0 -1 0 1552)" d="M0 759L1176 1020L1176 1020L1176 869L1176 869L0 607" stroke="none" fill="url(#29452)" /><path transform="matrix(1 0 0 -1 0 1552)" d="M0 757.5447L1176 1018.878L1176 1018.878L1176 1552L1176 1552L0 1552" stroke="none" fill="#4C216D" fill-rule="evenodd" fill-opacity="0.8980392" /><path transform="matrix(1 0 0 -1 0 1552)" d="M0 608.4336L1176 869.7669L1176 869.7669L1176 0L1176 0L0 0" stroke="none" fill="#B83F54" fill-rule="evenodd" fill-opacity="0.8980392" /></g></g><g clip-path="url(#58)"><g><path transform="matrix(1 0 0 -1 0 1552)" d="M0 759L1176 1020L1176 1020L1176 869L1176 869L0 607" stroke="none" fill="url(#29933)" /><path transform="matrix(1 0 0 -1 0 1552)" d="M0 757.5447L1176 1018.878L1176 1018.878L1176 1552L1176 1552L0 1552" stroke="none" fill="#4C216D" fill-rule="evenodd" fill-opacity="0.8980392" /><path transform="matrix(1 0 0 -1 0 1552)" d="M0 608.4336L1176 869.767L1176 869.767L1176 0L1176 0L0 0" stroke="none" fill="#B83F54" fill-rule="evenodd" fill-opacity="0.8980392" /></g></g><g clip-path="url(#59)"><g><path transform="matrix(1 0 0 -1 0 1552)" d="M0 759L1176 1020L1176 1020L1176 869L1176 869L0 607" stroke="none" fill="url(#30944)" /><path transform="matrix(1 0 0 -1 0 1552)" d="M0 757.5447L1176 1018.878L1176 1018.878L1176 1552L1176 1552L0 1552" stroke="none" fill="#4C216D" fill-rule="evenodd" fill-opacity="0.8980392" /><path transform="matrix(1 0 0 -1 0 1552)" d="M0 608.4336L1176 869.7669L1176 869.7669L1176 0L1176 0L0 0" stroke="none" fill="#B83F54" fill-rule="evenodd" fill-opacity="0.8980392" /></g></g><g clip-path="url(#60)"><g><path transform="matrix(1 0 0 -1 0 1552)" d="M0 759L1176 1020L1176 1020L1176 869L1176 869L0 607" stroke="none" fill="url(#31830)" /><path transform="matrix(1 0 0 -1 0 1552)" d="M0 757.5447L1176 1018.878L1176 1018.878L1176 1552L1176 1552L0 1552" stroke="none" fill="#4C216D" fill-rule="evenodd" fill-opacity="0.8980392" /><path transform="matrix(1 0 0 -1 0 1552)" d="M0 608.4336L1176 869.7669L1176 869.7669L1176 0L1176 0L0 0" stroke="none" fill="#B83F54" fill-rule="evenodd" fill-opacity="0.8980392" /></g></g><g clip-path="url(#61)"><g><path transform="matrix(1 0 0 -1 0 1552)" d="M0 759L1176 1020L1176 1020L1176 869L1176 869L0 607" stroke="none" fill="url(#32719)" /><path transform="matrix(1 0 0 -1 0 1552)" d="M0 757.5447L1176 1018.878L1176 1018.878L1176 1552L1176 1552L0 1552" stroke="none" fill="#4C216D" fill-rule="evenodd" fill-opacity="0.8980392" /><path transform="matrix(1 0 0 -1 0 1552)" d="M0 608.4336L1176 869.7669L1176 869.7669L1176 0L1176 0L0 0" stroke="none" fill="#B83F54" fill-rule="evenodd" fill-opacity="0.8980392" /></g></g><g clip-path="url(#62)"><g><path transform="matrix(1 0 0 -1 0 1552)" d="M0 759L1176 1020L1176 1020L1176 869L1176 869L0 607" stroke="none" fill="url(#33426)" /><path transform="matrix(1 0 0 -1 0 1552)" d="M0 757.5447L1176 1018.878L1176 1018.878L1176 1552L1176 1552L0 1552" stroke="none" fill="#4C216D" fill-rule="evenodd" fill-opacity="0.8980392" /><path transform="matrix(1 0 0 -1 0 1552)" d="M0 608.4336L1176 869.7669L1176 869.7669L1176 0L1176 0L0 0" stroke="none" fill="#B83F54" fill-rule="evenodd" fill-opacity="0.8980392" /></g></g><g clip-path="url(#63)"><g><path transform="matrix(1 0 0 -1 0 1552)" d="M0 759L1176 1020L1176 1020L1176 869L1176 869L0 607" stroke="none" fill="url(#34123)" /><path transform="matrix(1 0 0 -1 0 1552)" d="M0 757.5447L1176 1018.878L1176 1018.878L1176 1552L1176 1552L0 1552" stroke="none" fill="#4C216D" fill-rule="evenodd" fill-opacity="0.8980392" /><path transform="matrix(1 0 0 -1 0 1552)" d="M0 608.4336L1176 869.767L1176 869.767L1176 0L1176 0L0 0" stroke="none" fill="#B83F54" fill-rule="evenodd" fill-opacity="0.8980392" /></g></g><g clip-path="url(#64)"><g><path transform="matrix(1 0 0 -1 0 1552)" d="M0 759L1176 1020L1176 1020L1176 869L1176 869L0 607" stroke="none" fill="url(#34941)" /><path transform="matrix(1 0 0 -1 0 1552)" d="M0 757.5447L1176 1018.878L1176 1018.878L1176 1552L1176 1552L0 1552" stroke="none" fill="#4C216D" fill-rule="evenodd" fill-opacity="0.8980392" /><path transform="matrix(1 0 0 -1 0 1552)" d="M0 608.4336L1176 869.7669L1176 869.7669L1176 0L1176 0L0 0" stroke="none" fill="#B83F54" fill-rule="evenodd" fill-opacity="0.8980392" /></g></g><g clip-path="url(#65)"><g><path transform="matrix(1 0 0 -1 0 1552)" d="M0 759L1176 1020L1176 1020L1176 869L1176 869L0 607" stroke="none" fill="url(#35831)" /><path transform="matrix(1 0 0 -1 0 1552)" d="M0 757.5447L1176 1018.878L1176 1018.878L1176 1552L1176 1552L0 1552" stroke="none" fill="#4C216D" fill-rule="evenodd" fill-opacity="0.8980392" /><path transform="matrix(1 0 0 -1 0 1552)" d="M0 608.4336L1176 869.767L1176 869.767L1176 0L1176 0L0 0" stroke="none" fill="#B83F54" fill-rule="evenodd" fill-opacity="0.8980392" /></g></g><g clip-path="url(#66)"><g><path transform="matrix(1 0 0 -1 0 1552)" d="M0 759L1176 1020L1176 1020L1176 869L1176 869L0 607" stroke="none" fill="url(#36634)" /><path transform="matrix(1 0 0 -1 0 1552)" d="M0 757.5447L1176 1018.878L1176 1018.878L1176 1552L1176 1552L0 1552" stroke="none" fill="#4C216D" fill-rule="evenodd" fill-opacity="0.8980392" /><path transform="matrix(1 0 0 -1 0 1552)" d="M0 608.4336L1176 869.7669L1176 869.7669L1176 0L1176 0L0 0" stroke="none" fill="#B83F54" fill-rule="evenodd" fill-opacity="0.8980392" /></g></g></g></g></g><path transform="matrix(1 0 0 -1 0 1552)" d="M212.369 1344.297L151.399 1344.297L151.399 1344.297L151.399 1431.62L151.399 1431.62L212.369 1431.62z" stroke="none" fill="#E2D7E2" fill-rule="winding" /><path transform="matrix(1 0 0 -1 0 1552)" d="M212.369 1208.151L151.399 1208.151L151.399 1208.151L151.399 1341.737L151.399 1341.737L212.369 1341.737z" stroke="none" fill="#F2F2F2" fill-rule="winding" /><path transform="matrix(1 0 0 -1 0 1552)" d="M437.743 1344.297L215.368 1344.297L215.368 1344.297L215.368 1431.62L215.368 1431.62L437.743 1431.62z" stroke="none" fill="#E2D7E2" fill-rule="winding" /><path transform="matrix(1 0 0 -1 0 1552)" d="M437.743 1208.151L215.368 1208.151L215.368 1208.151L215.368 1341.737L215.368 1341.737L437.743 1341.737z" stroke="none" fill="#E8E8E8" fill-rule="winding" /><path transform="matrix(1 0 0 -1 0 1552)" d="M566.62 1344.297L440.806 1344.297L440.806 1344.297L440.806 1431.62L440.806 1431.62L566.62 1431.62z" stroke="none" fill="#E2D7E2" fill-rule="winding" /><path transform="matrix(1 0 0 -1 0 1552)" d="M566.62 1208.151L440.806 1208.151L440.806 1208.151L440.806 1341.737L440.806 1341.737L566.62 1341.737z" stroke="none" fill="#F2F2F2" fill-rule="winding" /><path transform="matrix(1 0 0 -1 0 1552)" d="M669.097 1344.297L569.511 1344.297L569.511 1344.297L569.511 1431.62L569.511 1431.62L669.097 1431.62z" stroke="none" fill="#E2D7E2" fill-rule="winding" /><path transform="matrix(1 0 0 -1 0 1552)" d="M669.097 1208.151L569.511 1208.151L569.511 1208.151L569.511 1341.737L569.511 1341.737L669.097 1341.737z" stroke="none" fill="#E8E8E8" fill-rule="winding" /><path transform="matrix(1 0 0 -1 0 1552)" d="M792.372 1344.297L672.261 1344.297L672.261 1344.297L672.261 1431.62L672.261 1431.62L792.372 1431.62z" stroke="none" fill="#E2D7E2" fill-rule="winding" /><path transform="matrix(1 0 0 -1 0 1552)" d="M792.372 1208.151L672.261 1208.151L672.261 1208.151L672.261 1341.737L672.261 1341.737L792.372 1341.737z" stroke="none" fill="#F2F2F2" fill-rule="winding" /><path transform="matrix(1 0 0 -1 0 1552)" d="M915.546 1344.297L795.434 1344.297L795.434 1344.297L795.434 1431.62L795.434 1431.62L915.546 1431.62z" stroke="none" fill="#E2D7E2" fill-rule="winding" /><path transform="matrix(1 0 0 -1 0 1552)" d="M915.546 1208.151L795.434 1208.151L795.434 1208.151L795.434 1341.737L795.434 1341.737L915.546 1341.737z" stroke="none" fill="#E8E8E8" fill-rule="winding" /><path transform="matrix(1 0 0 -1 0 1552)" d="M1056.72 1344.297L918.131 1344.297L918.131 1344.297L918.131 1431.62L918.131 1431.62L1056.72 1431.62z" stroke="none" fill="#E2D7E2" fill-rule="winding" /><path transform="matrix(1 0 0 -1 0 1552)" d="M1056.72 1208.151L918.131 1208.151L918.131 1208.151L918.131 1341.737L918.131 1341.737L1056.72 1341.737z" stroke="none" fill="#F2F2F2" fill-rule="winding" /><path transform="matrix(1 0 0 -1 0 1552)" d="M233.5498 1299.226L233.5498 1299.226L233.5498 1299.226L406.9718 1299.226z" stroke="#5BA5EF" stroke-width="1.1" fill="none" /><path transform="matrix(1 0 0 -1 0 1552)" d="M212.369 1126.978L151.399 1126.978L151.399 1126.978L151.399 1205.225L151.399 1205.225L212.369 1205.225z" stroke="none" fill="#F2F2F2" fill-rule="winding" /><path transform="matrix(1 0 0 -1 0 1552)" d="M437.743 1126.978L215.368 1126.978L215.368 1126.978L215.368 1205.225L215.368 1205.225L437.743 1205.225z" stroke="none" fill="#E8E8E8" fill-rule="winding" /><path transform="matrix(1 0 0 -1 0 1552)" d="M566.62 1126.978L440.806 1126.978L440.806 1126.978L440.806 1205.225L440.806 1205.225L566.62 1205.225z" stroke="none" fill="#F2F2F2" fill-rule="winding" /><path transform="matrix(1 0 0 -1 0 1552)" d="M669.097 1126.978L569.511 1126.978L569.511 1126.978L569.511 1205.225L569.511 1205.225L669.097 1205.225z" stroke="none" fill="#E8E8E8" fill-rule="winding" /><path transform="matrix(1 0 0 -1 0 1552)" d="M792.372 1126.978L672.261 1126.978L672.261 1126.978L672.261 1205.225L672.261 1205.225L792.372 1205.225z" stroke="none" fill="#F2F2F2" fill-rule="winding" /><path transform="matrix(1 0 0 -1 0 1552)" d="M915.546 1126.978L795.434 1126.978L795.434 1126.978L795.434 1205.225L795.434 1205.225L915.546 1205.225z" stroke="none" fill="#E8E8E8" fill-rule="winding" /><path transform="matrix(1 0 0 -1 0 1552)" d="M1056.72 1126.978L918.131 1126.978L918.131 1126.978L918.131 1205.225L918.131 1205.225L1056.72 1205.225z" stroke="none" fill="#F2F2F2" fill-rule="winding" /><path transform="matrix(1 0 0 -1 0 1552)" d="M233.5498 1166.386L233.5498 1166.386L233.5498 1166.386L409.9428 1166.386z" stroke="#5BA5EF" stroke-width="1.1" fill="none" /><path transform="matrix(1 0 0 -1 0 1552)" d="M212.369 1030.272L151.399 1030.272L151.399 1030.272L151.399 1124.225L151.399 1124.225L212.369 1124.225z" stroke="none" fill="#F2F2F2" fill-rule="winding" /><path transform="matrix(1 0 0 -1 0 1552)" d="M437.743 1030.272L215.368 1030.272L215.368 1030.272L215.368 1124.225L215.368 1124.225L437.743 1124.225z" stroke="none" fill="#E8E8E8" fill-rule="winding" /><path transform="matrix(1 0 0 -1 0 1552)" d="M566.62 1030.272L440.806 1030.272L440.806 1030.272L440.806 1124.225L440.806 1124.225L566.62 1124.225z" stroke="none" fill="#F2F2F2" fill-rule="winding" /><path transform="matrix(1 0 0 -1 0 1552)" d="M669.097 1030.272L569.511 1030.272L569.511 1030.272L569.511 1124.225L569.511 1124.225L669.097 1124.225z" stroke="none" fill="#E8E8E8" fill-rule="winding" /><path transform="matrix(1 0 0 -1 0 1552)" d="M792.372 1030.272L672.261 1030.272L672.261 1030.272L672.261 1124.225L672.261 1124.225L792.372 1124.225z" stroke="none" fill="#F2F2F2" fill-rule="winding" /><path transform="matrix(1 0 0 -1 0 1552)" d="M915.546 1030.272L795.434 1030.272L795.434 1030.272L795.434 1124.225L795.434 1124.225L915.546 1124.225z" stroke="none" fill="#E8E8E8" fill-rule="winding" /><path transform="matrix(1 0 0 -1 0 1552)" d="M1056.72 1030.272L918.131 1030.272L918.131 1030.272L918.131 1124.225L918.131 1124.225L1056.72 1124.225z" stroke="none" fill="#F2F2F2" fill-rule="winding" /><path transform="matrix(1 0 0 -1 0 1552)" d="M233.5498 1081.713L233.5498 1081.713L233.5498 1081.713L395.7748 1081.713z" stroke="#5BA5EF" stroke-width="1.1" fill="none" /><path transform="matrix(1 0 0 -1 0 1552)" d="M212.369 933.272L151.399 933.272L151.399 933.272L151.399 1027.225L151.399 1027.225L212.369 1027.225z" stroke="none" fill="#F2F2F2" fill-rule="winding" /><path transform="matrix(1 0 0 -1 0 1552)" d="M437.743 933.272L215.368 933.272L215.368 933.272L215.368 1027.225L215.368 1027.225L437.743 1027.225z" stroke="none" fill="#E8E8E8" fill-rule="winding" /><path transform="matrix(1 0 0 -1 0 1552)" d="M566.62 933.272L440.806 933.272L440.806 933.272L440.806 1027.225L440.806 1027.225L566.62 1027.225z" stroke="none" fill="#F2F2F2" fill-rule="winding" /><path transform="matrix(1 0 0 -1 0 1552)" d="M669.097 933.272L569.511 933.272L569.511 933.272L569.511 1027.225L569.511 1027.225L669.097 1027.225z" stroke="none" fill="#E8E8E8" fill-rule="winding" /><path transform="matrix(1 0 0 -1 0 1552)" d="M792.372 933.272L672.261 933.272L672.261 933.272L672.261 1027.225L672.261 1027.225L792.372 1027.225z" stroke="none" fill="#F2F2F2" fill-rule="winding" /><path transform="matrix(1 0 0 -1 0 1552)" d="M915.546 933.272L795.434 933.272L795.434 933.272L795.434 1027.225L795.434 1027.225L915.546 1027.225z" stroke="none" fill="#E8E8E8" fill-rule="winding" /><path transform="matrix(1 0 0 -1 0 1552)" d="M1056.72 933.272L918.131 933.272L918.131 933.272L918.131 1027.225L918.131 1027.225L1056.72 1027.225z" stroke="none" fill="#F2F2F2" fill-rule="winding" /><path transform="matrix(1 0 0 -1 0 1552)" d="M233.5498 984.7129L233.5498 984.7129L233.5498 984.7129L375.0718 984.7129z" stroke="#5BA5EF" stroke-width="1.1" fill="none" /><path transform="matrix(1 0 0 -1 0 1552)" d="M212.369 801.049L151.399 801.049L151.399 801.049L151.399 930.225L151.399 930.225L212.369 930.225z" stroke="none" fill="#F2F2F2" fill-rule="winding" /><path transform="matrix(1 0 0 -1 0 1552)" d="M437.743 801.049L215.368 801.049L215.368 801.049L215.368 930.225L215.368 930.225L437.743 930.225z" stroke="none" fill="#E8E8E8" fill-rule="winding" /><path transform="matrix(1 0 0 -1 0 1552)" d="M566.62 801.049L440.806 801.049L440.806 801.049L440.806 930.225L440.806 930.225L566.62 930.225z" stroke="none" fill="#F2F2F2" fill-rule="winding" /><path transform="matrix(1 0 0 -1 0 1552)" d="M669.097 801.049L569.511 801.049L569.511 801.049L569.511 930.225L569.511 930.225L669.097 930.225z" stroke="none" fill="#E8E8E8" fill-rule="winding" /><path transform="matrix(1 0 0 -1 0 1552)" d="M792.372 801.049L672.261 801.049L672.261 801.049L672.261 930.225L672.261 930.225L792.372 930.225z" stroke="none" fill="#F2F2F2" fill-rule="winding" /><path transform="matrix(1 0 0 -1 0 1552)" d="M915.546 801.049L795.434 801.049L795.434 801.049L795.434 930.225L795.434 930.225L915.546 930.225z" stroke="none" fill="#E8E8E8" fill-rule="winding" /><path transform="matrix(1 0 0 -1 0 1552)" d="M1056.72 801.049L918.131 801.049L918.131 801.049L918.131 930.225L918.131 930.225L1056.72 930.225z" stroke="none" fill="#F2F2F2" fill-rule="winding" /><path transform="matrix(1 0 0 -1 0 1552)" d="M233.5498 887.7129L233.5498 887.7129L233.5498 887.7129L425.8698 887.7129z" stroke="#5BA5EF" stroke-width="1.1" fill="none" /><g clip-path="url(#67)"><path transform="matrix(1 0 0 -1 0 1552)" d="M1176.34 0L0 0L0 0L0 1552.387L0 1552.387L1176.34 1552.387z" stroke="#E6E7E8" stroke-width="1" fill="none" /><g><g clip-path="url(#68)"><g clip-path="url(#69)"><g><path transform="matrix(1 0 0 -1 0 1552)" d="M1019.149 0L1019.149 1552L1019.149 1552L1176.34 1552L1176.34 1552L1176.34 0" stroke="none" fill="url(#37537)" /><path transform="matrix(1 0 0 -1 0 1552)" d="M1019.149 0L1019.149 1552L1019.149 1552L0 1552L0 1552L0 0" stroke="none" fill="#4C216D" fill-rule="evenodd" fill-opacity="0.4980392" /><path transform="matrix(1 0 0 -1 0 1552)" d="M1176.34 0L1176.34 1552L1176.34 1552L1176 1552L1176 1552L1176 0" stroke="none" fill="#B83F54" fill-rule="evenodd" fill-opacity="0.4980392" /></g></g></g></g><g><g clip-path="url(#70)"></g></g></g><g clip-path="url(#71)"><g transform="matrix(0.2398164 0 0 0.2382367 752.501 1467.024)"><g transform="matrix(1 0 0 1 0 0)"><image x="0" y="0" xlink:href="img_07.png" width="207" height="125" /></g></g></g><path transform="matrix(1 0 0 -1 0 1552)" d="M813.9316 79.7246L813.9316 63.6426" stroke="#797A7C" stroke-width="1" fill="none" /><g clip-path="url(#72)"><g><path transform="matrix(1 0 0 -1 0 1552)" d="M0 698L1176 -478L1176 -478L1176 -464L1176 -464L0 712" stroke="none" fill="url(#38841)" /><path transform="matrix(1 0 0 -1 0 1552)" d="M0 698.7953L1176 -477.2097L1176 -477.2097L1176 0L1176 0L0 0" stroke="none" fill="#4C216D" fill-rule="evenodd" /><path transform="matrix(1 0 0 -1 0 1552)" d="M0 710.902L1176 -465.1031L1176 -465.1031L1176 1552L1176 1552L0 1552" stroke="none" fill="#B83F54" fill-rule="evenodd" /></g></g><g clip-path="url(#73)"><g><path transform="matrix(1 0 0 -1 0 1552)" d="M0 673L1176 -503L1176 -503L1176 -489L1176 -489L0 687" stroke="none" fill="url(#39725)" /><path transform="matrix(1 0 0 -1 0 1552)" d="M0 673.6287L1176 -502.3764L1176 -502.3764L1176 0L1176 0L0 0" stroke="none" fill="#4C216D" fill-rule="evenodd" /><path transform="matrix(1 0 0 -1 0 1552)" d="M0 685.7353L1176 -490.2698L1176 -490.2698L1176 1552L1176 1552L0 1552" stroke="none" fill="#B83F54" fill-rule="evenodd" /></g></g><g clip-path="url(#74)"><g><path transform="matrix(1 0 0 -1 0 1552)" d="M0 647L1176 -529L1176 -529L1176 -515L1176 -515L0 661" stroke="none" fill="url(#40607)" /><path transform="matrix(1 0 0 -1 0 1552)" d="M0 647.6281L1176 -528.3719L1176 -528.3719L1176 0L1176 0L0 0" stroke="none" fill="#4C216D" fill-rule="evenodd" /><path transform="matrix(1 0 0 -1 0 1552)" d="M0 659.7347L1176 -516.2653L1176 -516.2653L1176 1552L1176 1552L0 1552" stroke="none" fill="#B83F54" fill-rule="evenodd" /></g></g></g></g></g><defs><clipPath id="1"><path d="M0 1552L0 -0.3900146L0 -0.3900146L1176.34 -0.3900146L1176.34 -0.3900146L1176.34 1552L1176.34 1552L0 1552z" /></clipPath><clipPath id="2"><path d="M0 -0.3869629L1176.341 -0.3869629L1176.341 -0.3869629L1176.341 1552L1176.341 1552L0 1552z" /></clipPath><clipPath id="3"><path d="M-371.993 192.713L-1429.793 192.713L-1429.793 192.713L-1429.793 118.035L-1429.793 118.035L-371.993 118.035z" /></clipPath><clipPath id="4"><path d="M-371.993 906.603L-1429.793 906.603L-1429.793 906.603L-1429.793 -483.278L-1429.793 -483.278L-371.993 -483.278z" /></clipPath><clipPath id="5"><path d="M-103.213 57.927L-500.138 1202.926L-500.138 1202.926L-1582.861 885.266L-1582.861 885.266L-1908.279 -194.4821L-1908.279 -194.4821L-820.931 -1066.437L-820.931 -1066.437L-209.215 -252.969z" /></clipPath><clipPath id="6"><path d="M-1913.02 -198.13L72.34839 -198.13L72.34839 -198.13L72.34839 956.755L72.34839 956.755L-1913.02 956.755z" /></clipPath><clipPath id="7"><path d="M-1427.96 956.755L-2.139 953.702L-2.139 953.702L72.348 -198.1331L72.348 -198.1331L-1913.025 -193.864z" /></clipPath><linearGradient transform="matrix(1 0 0 1 0 0)" id="1672" x1="-1629.453" y1="1987.709" x2="-1629.4531987.709" y2="-1629.4531486.015"><stop stop-color="#4C216D" offset="0%" /><stop stop-color="#B83F54" offset="100%" /></linearGradient><clipPath id="8"><path d="M-1689.22 -705.27L3.348633 -705.27L3.348633 -705.27L3.348633 500.14L3.348633 500.14L-1689.22 500.14z" /></clipPath><clipPath id="9"><path d="M-923.413 500.141L-924.152 499.356L-924.152 499.356L-1689.22 -269.604L-1689.22 -269.604L-1687.718 -271.135L-1687.718 -271.135L-923.383 497.05L-923.383 497.05L1.876 -446.345L1.876 -446.345L3.349 -444.786z" /></clipPath><linearGradient transform="matrix(1 0 0 1 0 0)" id="2562" x1="-1350.392" y1="2346.198" x2="-1350.3922346.198" y2="-1350.392952.6741"><stop stop-color="#FFD800" offset="0%" /><stop stop-color="#FF387D" offset="100%" /></linearGradient><clipPath id="10"><path d="M0 1169.1L1057.799 1169.1L1057.799 1169.1L1057.799 1094.423L1057.799 1094.423L0 1094.423z" /></clipPath><clipPath id="11"><path d="M-483.232 778.254L1502.14 778.254L1502.14 778.254L1502.14 1933.142L1502.14 1933.142L-483.232 1933.142z" /></clipPath><clipPath id="12"><path d="M1.833 1933.141L1427.654 1930.089L1427.654 1930.089L1502.141 778.255L1502.141 778.255L-483.232 782.523z" /></clipPath><linearGradient transform="matrix(1 0 0 1 0 0)" id="3471" x1="-199.6603" y1="1011.322" x2="-199.66031011.322" y2="-199.66031486.015"><stop stop-color="#4C216D" offset="0%" /><stop stop-color="#B83F54" offset="100%" /></linearGradient><clipPath id="13"><path d="M-259.428 271.12L1433.14 271.12L1433.14 271.12L1433.14 1476.527L1433.14 1476.527L-259.428 1476.527z" /></clipPath><clipPath id="14"><path d="M511.307 963.434L510.568 962.65L510.568 962.65L-10.136 452.603L-10.136 452.603L-8.626 451.072L-8.626 451.072L511.337 960.343L511.337 960.343L1187.296 271.121L1187.296 271.121L1188.776 272.6801z" /></clipPath><linearGradient transform="matrix(1 0 0 1 0 0)" id="4280" x1="-54.23993" y1="1506.395" x2="-54.239931506.395" y2="-54.23993961.4152"><stop stop-color="#FFD800" offset="0%" /><stop stop-color="#FF387D" offset="100%" /></linearGradient><clipPath id="15"><path d="M510.999 995.492L510.26 994.717L510.26 994.717L-25.715 468.488L-25.715 468.488L-24.206 466.958L-24.206 466.958L511.03 992.401L511.03 992.401L1202.568 287.303L1202.568 287.303L1204.048 288.861z" /></clipPath><linearGradient transform="matrix(1 0 0 1 0 0)" id="4867" x1="-45.698" y1="1497.865" x2="-45.6981497.865" y2="-45.698960.6844"><stop stop-color="#FFD800" offset="0%" /><stop stop-color="#FF387D" offset="100%" /></linearGradient><clipPath id="16"><path d="M510.692 1027.567L509.952 1026.792L509.952 1026.792L-41.295 484.373L-41.295 484.373L-39.786 482.843L-39.786 482.843L510.721 1024.476L510.721 1024.476L1217.84 303.484L1217.84 303.484L1219.32 305.043z" /></clipPath><linearGradient transform="matrix(1 0 0 1 0 0)" id="5454" x1="-37.18457" y1="1489.329" x2="-37.184571489.329" y2="-37.18457959.985"><stop stop-color="#FFD800" offset="0%" /><stop stop-color="#FF387D" offset="100%" /></linearGradient><clipPath id="17"><path d="M510.383 1059.635L509.644 1058.858L509.644 1058.858L-56.875 500.259L-56.875 500.259L-55.365 498.728L-55.365 498.728L510.413 1056.544L510.413 1056.544L1233.112 319.665L1233.112 319.665L1234.592 321.224z" /></clipPath><linearGradient transform="matrix(1 0 0 1 0 0)" id="6049" x1="-28.7019" y1="1480.796" x2="-28.70191480.796" y2="-28.7019959.3137"><stop stop-color="#FFD800" offset="0%" /><stop stop-color="#FF387D" offset="100%" /></linearGradient><clipPath id="18"><path d="M510.076 1091.7L509.336 1090.917L509.336 1090.917L-72.455 516.144L-72.455 516.144L-70.945 514.613L-70.945 514.613L510.105 1088.61L510.105 1088.61L1248.384 335.847L1248.384 335.847L1249.864 337.406z" /></clipPath><linearGradient transform="matrix(1 0 0 1 0 0)" id="6638" x1="-20.25629" y1="1472.261" x2="-20.256291472.261" y2="-20.25629958.6768"><stop stop-color="#FFD800" offset="0%" /><stop stop-color="#FF387D" offset="100%" /></linearGradient><clipPath id="19"><path d="M509.768 1123.776L509.028 1122.992L509.028 1122.992L-88.043 532.038L-88.043 532.038L-86.533 530.507L-86.533 530.507L509.797 1120.685L509.797 1120.685L1263.663 352.037L1263.663 352.037L1265.143 353.597z" /></clipPath><linearGradient transform="matrix(1 0 0 1 0 0)" id="7234" x1="-11.83331" y1="1463.723" x2="-11.833311463.723" y2="-11.83331958.0641"><stop stop-color="#FFD800" offset="0%" /><stop stop-color="#FF387D" offset="100%" /></linearGradient><clipPath id="20"><path d="M509.459 1155.844L508.72 1155.058L508.72 1155.058L-103.623 547.915L-103.623 547.915L-102.112 546.384L-102.112 546.384L509.49 1152.752L509.49 1152.752L1278.935 368.21L1278.935 368.21L1280.415 369.769z" /></clipPath><linearGradient transform="matrix(1 0 0 1 0 0)" id="7828" x1="-3.437744" y1="1455.191" x2="-3.4377441455.191" y2="-3.437744957.4756"><stop stop-color="#FFD800" offset="0%" /><stop stop-color="#FF387D" offset="100%" /></linearGradient><clipPath id="21"><path d="M509.152 1187.9L508.413 1187.126L508.413 1187.126L-119.202 563.799L-119.202 563.799L-117.692 562.268L-117.692 562.268L509.181 1184.81L509.181 1184.81L1294.207 384.391L1294.207 384.391L1295.687 385.951z" /></clipPath><linearGradient transform="matrix(1 0 0 1 0 0)" id="8424" x1="4.935364" y1="1446.657" x2="4.9353641446.657" y2="4.935364956.9063"><stop stop-color="#FFD800" offset="0%" /><stop stop-color="#FF387D" offset="100%" /></linearGradient><clipPath id="22"><path d="M508.843 1219.976L508.104 1219.201L508.104 1219.201L-134.782 579.693L-134.782 579.693L-133.272 578.163L-133.272 578.163L508.873 1216.886L508.873 1216.886L1309.479 400.5811L1309.479 400.5811L1310.958 402.141z" /></clipPath><linearGradient transform="matrix(1 0 0 1 0 0)" id="9023" x1="13.29193" y1="1438.113" x2="13.291931438.113" y2="13.29193956.3563"><stop stop-color="#FFD800" offset="0%" /><stop stop-color="#FF387D" offset="100%" /></linearGradient><clipPath id="23"><path d="M508.536 1252.052L507.796 1251.275L507.796 1251.275L-150.362 595.579L-150.362 595.579L-148.852 594.048L-148.852 594.048L508.565 1248.961L508.565 1248.961L1324.75 416.7629L1324.75 416.7629L1326.231 418.323z" /></clipPath><linearGradient transform="matrix(1 0 0 1 0 0)" id="9620" x1="21.62494" y1="1429.577" x2="21.624941429.577" y2="21.62494955.8331"><stop stop-color="#FFD800" offset="0%" /><stop stop-color="#FF387D" offset="100%" /></linearGradient><clipPath id="24"><path d="M508.228 1284.109L507.489 1283.326L507.489 1283.326L-165.941 611.464L-165.941 611.464L-164.432 609.932L-164.432 609.932L508.257 1281.019L508.257 1281.019L1340.022 432.944L1340.022 432.944L1341.502 434.505z" /></clipPath><linearGradient transform="matrix(1 0 0 1 0 0)" id="10217" x1="29.92786" y1="1421.038" x2="29.927861421.038" y2="29.92786955.3279"><stop stop-color="#FFD800" offset="0%" /><stop stop-color="#FF387D" offset="100%" /></linearGradient><clipPath id="25"><path d="M507.919 1316.185L507.188 1315.401L507.188 1315.401L-181.521 627.349L-181.521 627.349L-180.011 625.818L-180.011 625.818L507.95 1313.095L507.95 1313.095L1355.293 449.126L1355.293 449.126L1356.775 450.6851z" /></clipPath><linearGradient transform="matrix(1 0 0 1 0 0)" id="10814" x1="38.21881" y1="1412.501" x2="38.218811412.501" y2="38.21881954.8461"><stop stop-color="#FFD800" offset="0%" /><stop stop-color="#FF387D" offset="100%" /></linearGradient><clipPath id="26"><path d="M507.612 1348.261L506.879 1347.476L506.879 1347.476L-197.109 643.233L-197.109 643.233L-195.599 641.703L-195.599 641.703L507.641 1345.17L507.641 1345.17L1370.574 465.307L1370.574 465.307L1372.054 466.8669z" /></clipPath><linearGradient transform="matrix(1 0 0 1 0 0)" id="11411" x1="46.49487" y1="1403.961" x2="46.494871403.961" y2="46.49487954.3707"><stop stop-color="#FFD800" offset="0%" /><stop stop-color="#FF387D" offset="100%" /></linearGradient><clipPath id="27"><path d="M507.304 1380.318L506.564 1379.543L506.564 1379.543L-212.688 659.119L-212.688 659.119L-211.179 657.589L-211.179 657.589L507.333 1377.228L507.333 1377.228L1385.846 481.489L1385.846 481.489L1387.326 483.049z" /></clipPath><linearGradient transform="matrix(1 0 0 1 0 0)" id="12009" x1="54.74628" y1="1395.424" x2="54.746281395.424" y2="54.74628953.9189"><stop stop-color="#FFD800" offset="0%" /><stop stop-color="#FF387D" offset="100%" /></linearGradient><clipPath id="28"><path d="M506.996 1412.386L506.256 1411.61L506.256 1411.61L-228.268 675.005L-228.268 675.005L-226.758 673.474L-226.758 673.474L507.026 1409.295L507.026 1409.295L1401.117 497.67L1401.117 497.67L1402.597 499.23z" /></clipPath><linearGradient transform="matrix(1 0 0 1 0 0)" id="12602" x1="62.979" y1="1386.886" x2="62.9791386.886" y2="62.979953.4873"><stop stop-color="#FFD800" offset="0%" /><stop stop-color="#FF387D" offset="100%" /></linearGradient><clipPath id="29"><path d="M506.688 1444.461L505.949 1443.684L505.949 1443.684L-243.848 690.898L-243.848 690.898L-242.338 689.367L-242.338 689.367L506.717 1441.37L506.717 1441.37L1416.389 513.86L1416.389 513.86L1417.87 515.421z" /></clipPath><linearGradient transform="matrix(1 0 0 1 0 0)" id="13189" x1="71.20184" y1="1378.344" x2="71.201841378.344" y2="71.20184953.0705"><stop stop-color="#FFD800" offset="0%" /><stop stop-color="#FF387D" offset="100%" /></linearGradient><clipPath id="30"><path d="M506.379 1476.527L505.64 1475.743L505.64 1475.743L-259.428 706.784L-259.428 706.784L-257.926 705.253L-257.926 705.253L506.41 1473.437L506.41 1473.437L1431.669 530.043L1431.669 530.043L1433.141 531.601z" /></clipPath><linearGradient transform="matrix(1 0 0 1 0 0)" id="13783" x1="79.4007" y1="1369.811" x2="79.40071369.811" y2="79.4007952.674"><stop stop-color="#FFD800" offset="0%" /><stop stop-color="#FF387D" offset="100%" /></linearGradient><clipPath id="31"><path d="M72.8398 -229.89L957.586 -229.89L957.586 -229.89L957.586 698.451L957.586 698.451L72.8398 698.451z" /></clipPath><clipPath id="32"><path d="M955.928 509.858L255.427 -228.181L255.427 -228.181L257.085 -229.885L257.085 -229.885L957.586 508.1541z" /></clipPath><linearGradient transform="matrix(1 0 0 1 0 0)" id="14493" x1="253.6067" y1="1413.767" x2="253.60671413.767" y2="253.60673.50647"><stop stop-color="#560099" offset="0%" /><stop stop-color="#FF0A35" offset="100%" /></linearGradient><clipPath id="33"><path d="M944.516 521.644L244.016 -216.394L244.016 -216.394L245.674 -218.098L245.674 -218.098L946.175 519.941z" /></clipPath><linearGradient transform="matrix(1 0 0 1 0 0)" id="14986" x1="242.1955" y1="1401.98" x2="242.19551401.98" y2="242.19553.50647"><stop stop-color="#560099" offset="0%" /><stop stop-color="#FF0A35" offset="100%" /></linearGradient><clipPath id="34"><path d="M933.105 533.431L232.604 -204.608L232.604 -204.608L234.262 -206.312L234.262 -206.312L934.763 531.726z" /></clipPath><linearGradient transform="matrix(1 0 0 1 0 0)" id="15477" x1="230.7834" y1="1390.193" x2="230.78341390.193" y2="230.78343.50647"><stop stop-color="#560099" offset="0%" /><stop stop-color="#FF0A35" offset="100%" /></linearGradient><clipPath id="35"><path d="M921.693 545.218L221.192 -192.821L221.192 -192.821L222.851 -194.526L222.851 -194.526L923.352 543.513z" /></clipPath><linearGradient transform="matrix(1 0 0 1 0 0)" id="15970" x1="219.3713" y1="1378.407" x2="219.37131378.407" y2="219.37133.506592"><stop stop-color="#560099" offset="0%" /><stop stop-color="#FF0A35" offset="100%" /></linearGradient><clipPath id="36"><path d="M910.282 557.004L209.781 -181.035L209.781 -181.035L211.439 -182.738L211.439 -182.738L911.94 555.301z" /></clipPath><linearGradient transform="matrix(1 0 0 1 0 0)" id="16463" x1="207.9601" y1="1366.621" x2="207.96011366.621" y2="207.96013.50647"><stop stop-color="#560099" offset="0%" /><stop stop-color="#FF0A35" offset="100%" /></linearGradient><clipPath id="37"><path d="M898.87 568.791L198.369 -169.238L198.369 -169.238L200.028 -170.943L200.028 -170.943L900.528 567.087z" /></clipPath><linearGradient transform="matrix(1 0 0 1 0 0)" id="16955" x1="196.548" y1="1354.829" x2="196.5481354.829" y2="196.5483.50647"><stop stop-color="#560099" offset="0%" /><stop stop-color="#FF0A35" offset="100%" /></linearGradient><clipPath id="38"><path d="M887.457 580.577L186.957 -157.453L186.957 -157.453L188.616 -159.156L188.616 -159.156L889.117 578.873z" /></clipPath><linearGradient transform="matrix(1 0 0 1 0 0)" id="17445" x1="185.1368" y1="1343.043" x2="185.13681343.043" y2="185.13683.50647"><stop stop-color="#560099" offset="0%" /><stop stop-color="#FF0A35" offset="100%" /></linearGradient><clipPath id="39"><path d="M876.045 592.363L175.545 -145.676L175.545 -145.676L177.204 -147.38L177.204 -147.38L877.705 590.659z" /></clipPath><linearGradient transform="matrix(1 0 0 1 0 0)" id="17936" x1="173.7247" y1="1331.261" x2="173.72471331.261" y2="173.72473.50647"><stop stop-color="#560099" offset="0%" /><stop stop-color="#FF0A35" offset="100%" /></linearGradient><clipPath id="40"><path d="M864.633 604.149L164.134 -133.88L164.134 -133.88L165.792 -135.583L165.792 -135.583L866.293 602.446z" /></clipPath><linearGradient transform="matrix(1 0 0 1 0 0)" id="18427" x1="162.3135" y1="1319.47" x2="162.31351319.47" y2="162.31353.50647"><stop stop-color="#560099" offset="0%" /><stop stop-color="#FF0A35" offset="100%" /></linearGradient><clipPath id="41"><path d="M853.222 615.946L152.722 -122.093L152.722 -122.093L154.38 -123.797L154.38 -123.797L854.881 614.242z" /></clipPath><linearGradient transform="matrix(1 0 0 1 0 0)" id="18916" x1="150.9014" y1="1307.679" x2="150.90141307.679" y2="150.90143.50647"><stop stop-color="#560099" offset="0%" /><stop stop-color="#FF0A35" offset="100%" /></linearGradient><clipPath id="42"><path d="M841.81 627.722L141.31 -110.307L141.31 -110.307L142.969 -112.011L142.969 -112.011L843.47 626.019z" /></clipPath><linearGradient transform="matrix(1 0 0 1 0 0)" id="19405" x1="139.4893" y1="1295.897" x2="139.48931295.897" y2="139.48933.506592"><stop stop-color="#560099" offset="0%" /><stop stop-color="#FF0A35" offset="100%" /></linearGradient><clipPath id="43"><path d="M830.399 639.51L129.899 -98.521L129.899 -98.521L131.557 -100.225L131.557 -100.225L832.058 637.805z" /></clipPath><linearGradient transform="matrix(1 0 0 1 0 0)" id="19896" x1="128.0781" y1="1284.111" x2="128.07811284.111" y2="128.07813.50647"><stop stop-color="#560099" offset="0%" /><stop stop-color="#FF0A35" offset="100%" /></linearGradient><clipPath id="44"><path d="M818.987 651.305L118.487 -86.73401L118.487 -86.73401L120.146 -88.43799L120.146 -88.43799L820.647 649.601z" /></clipPath><linearGradient transform="matrix(1 0 0 1 0 0)" id="20393" x1="116.666" y1="1272.32" x2="116.6661272.32" y2="116.6663.506592"><stop stop-color="#560099" offset="0%" /><stop stop-color="#FF0A35" offset="100%" /></linearGradient><clipPath id="45"><path d="M807.576 663.092L107.076 -74.94702L107.076 -74.94702L108.734 -76.651L108.734 -76.651L809.235 661.388z" /></clipPath><linearGradient transform="matrix(1 0 0 1 0 0)" id="20882" x1="105.2548" y1="1260.533" x2="105.25481260.533" y2="105.25483.50647"><stop stop-color="#560099" offset="0%" /><stop stop-color="#FF0A35" offset="100%" /></linearGradient><clipPath id="46"><path d="M796.164 674.878L95.663 -63.16003L95.663 -63.16003L97.323 -64.86499L97.323 -64.86499L797.823 673.175z" /></clipPath><linearGradient transform="matrix(1 0 0 1 0 0)" id="21375" x1="93.84272" y1="1248.747" x2="93.842721248.747" y2="93.842723.50647"><stop stop-color="#560099" offset="0%" /><stop stop-color="#FF0A35" offset="100%" /></linearGradient><clipPath id="47"><path d="M784.751 686.665L84.252 -51.375L84.252 -51.375L85.911 -53.078L85.911 -53.078L786.412 684.96z" /></clipPath><linearGradient transform="matrix(1 0 0 1 0 0)" id="21859" x1="82.43153" y1="1236.96" x2="82.431531236.96" y2="82.431533.50647"><stop stop-color="#560099" offset="0%" /><stop stop-color="#FF0A35" offset="100%" /></linearGradient><clipPath id="48"><path d="M773.34 698.451L72.84 -39.58801L72.84 -39.58801L74.498 -41.29199L74.498 -41.29199L774.999 696.747z" /></clipPath><linearGradient transform="matrix(1 0 0 1 0 0)" id="22347" x1="71.01942" y1="1225.174" x2="71.019421225.174" y2="71.019423.50647"><stop stop-color="#560099" offset="0%" /><stop stop-color="#FF0A35" offset="100%" /></linearGradient><clipPath id="49"><path d="M0 -0.3869629L1176.341 -0.3869629L1176.341 -0.3869629L1176.341 1552L1176.341 1552L0 1552z" /></clipPath><clipPath id="50"><path d="M152.126 785.901L371.65 785.901L371.65 785.901L371.65 811.386L371.65 811.386L152.126 811.386z" /></clipPath><clipPath id="51"><path d="M156.841 786.838L156.841 802.603C 156.841 806.167 157.921 807.247 159.145 807.247C 160.513 807.247 161.485 806.275 161.485 802.603L161.485 802.603L161.485 786.838L161.485 786.838L166.201 786.838L166.201 786.838L166.201 801.775C 166.201 808.003 163.861 811.387 159.181 811.387C 154.105 811.387 152.126 807.895 152.126 801.811L152.126 801.811L152.126 786.838z" /></clipPath><linearGradient transform="matrix(1 0 0 1 0 0)" id="23498" x1="151.2444" y1="792.1545" x2="151.2444792.1545" y2="151.2444144"><stop stop-color="#4C216D" offset="0%" /><stop stop-color="#B83F54" offset="100%" /></linearGradient><clipPath id="52"><path d="M169.837 798.788C 169.837 796.845 169.73 795.152 169.694 793.497L169.694 793.497L173.761 793.497L173.761 793.497L173.978 795.513L173.978 795.513L174.049 795.513C 174.986 794.108 176.497 793.209 178.333 793.209C 181.681 793.209 183.012 795.872 183.012 799.796L183.012 799.796L183.012 811.098L183.012 811.098L178.296 811.098L178.296 811.098L178.296 800.084C 178.296 798.572 177.937 797.168 176.569 797.168C 175.777 797.168 175.129 797.708 174.805 798.752C 174.662 799.112 174.553 799.688 174.553 800.372L174.553 800.372L174.553 811.098L174.553 811.098L169.837 811.098z" /></clipPath><linearGradient transform="matrix(1 0 0 1 0 0)" id="24452" x1="165.7433" y1="795.3765" x2="165.7433795.3765" y2="165.7433144"><stop stop-color="#4C216D" offset="0%" /><stop stop-color="#B83F54" offset="100%" /></linearGradient><clipPath id="53"><path d="M199.176 802.244C 199.176 809.587 195.109 811.387 192.445 811.387C 188.234 811.387 185.714 808.075 185.714 802.351C 185.714 796.016 189.025 793.209 192.517 793.209C 196.656 793.209 199.176 796.7 199.176 802.244M190.393 802.244C 190.393 805.267 190.861 807.787 192.552 807.787C 194.065 807.787 194.46 804.835 194.46 802.244C 194.46 799.832 194.065 796.772 192.481 796.772C 190.753 796.772 190.393 799.832 190.393 802.244" /></clipPath><linearGradient transform="matrix(1 0 0 1 0 0)" id="25259" x1="181.5093" y1="798.8801" x2="181.5093798.8801" y2="181.5093144"><stop stop-color="#4C216D" offset="0%" /><stop stop-color="#B83F54" offset="100%" /></linearGradient><clipPath id="54"><path d="M223.223 790.329C 222.395 790.041 221.316 789.753 219.912 789.753C 217.32 789.753 216.6 791.193 216.6 792.848L216.6 792.848L216.6 793.497L216.6 793.497L225.382 793.497L225.382 793.497L225.382 811.098L225.382 811.098L220.667 811.098L220.667 811.098L220.667 796.845L220.667 796.845L216.6 796.845L216.6 796.845L216.6 811.098L216.6 811.098L211.884 811.098L211.884 811.098L211.884 796.845L211.884 796.845L207.385 796.845L207.385 796.845L207.385 811.098L207.385 811.098L202.669 811.098L202.669 811.098L202.669 796.845L202.669 796.845L200.294 796.845L200.294 796.845L200.294 793.497L200.294 793.497L202.669 793.497L202.669 793.497L202.669 793.029C 202.669 790.581 203.497 788.565 205.226 787.342C 206.269 786.586 207.601 786.189 209.113 786.189C 210.229 786.189 211.201 786.441 211.777 786.657L211.777 786.657L210.589 790.149C 210.265 790.005 209.905 789.897 209.365 789.897C 208.825 789.897 208.321 790.149 208.033 790.509C 207.494 791.085 207.385 792.021 207.385 792.885L207.385 792.885L207.385 793.497L207.385 793.497L211.884 793.497L211.884 793.497L211.884 792.56C 211.884 790.293 213.324 785.901 219.696 785.901C 221.387 785.901 222.935 786.189 223.871 786.622z" /></clipPath><linearGradient transform="matrix(1 0 0 1 0 0)" id="26806" x1="202.0892" y1="803.4534" x2="202.0892803.4534" y2="202.0892144"><stop stop-color="#4C216D" offset="0%" /><stop stop-color="#B83F54" offset="100%" /></linearGradient><clipPath id="55"><path d="M238.416 810.81C 237.949 811.026 236.761 811.314 235.429 811.314C 230.965 811.314 228.05 808.219 228.05 802.46C 228.05 797.024 231.253 793.245 236.113 793.245C 237.228 793.245 238.236 793.497 238.705 793.713L238.705 793.713L238.092 797.42C 237.697 797.276 237.121 797.096 236.329 797.096C 234.061 797.096 232.729 799.256 232.729 802.315C 232.729 805.519 234.061 807.463 236.257 807.463C 236.941 807.463 237.517 807.355 238.021 807.103z" /></clipPath><linearGradient transform="matrix(1 0 0 1 0 0)" id="27629" x1="221.2435" y1="807.71" x2="221.2435807.71" y2="221.2435144"><stop stop-color="#4C216D" offset="0%" /><stop stop-color="#B83F54" offset="100%" /></linearGradient><clipPath id="56"><path d="M245.005 788.817C 245.04 790.329 243.96 791.373 242.521 791.373C 241.226 791.373 240.146 790.329 240.181 788.817C 240.146 787.233 241.297 786.262 242.593 786.262C 243.96 786.262 245.005 787.233 245.005 788.817M240.289 793.497L245.005 793.497L245.005 793.497L245.005 811.099L245.005 811.099L240.289 811.099z" /></clipPath><linearGradient transform="matrix(1 0 0 1 0 0)" id="28319" x1="229.8903" y1="809.6315" x2="229.8903809.6315" y2="229.8903144"><stop stop-color="#4C216D" offset="0%" /><stop stop-color="#B83F54" offset="100%" /></linearGradient><clipPath id="57"><path d="M256.2 811.098L255.948 809.371L255.948 809.371L255.876 809.371C 254.904 810.738 253.537 811.387 251.988 811.387C 249.325 811.387 247.345 809.155 247.345 806.023C 247.345 801.416 251.413 799.508 255.408 799.471L255.408 799.471L255.408 799.076C 255.408 797.708 254.58 796.7 252.924 796.7C 251.521 796.7 250.369 797.06 249.325 797.708L249.325 797.708L248.46 794.541C 249.433 793.965 251.484 793.209 253.932 793.209C 259.295 793.209 260.16 796.952 260.16 800.515L260.16 800.515L260.16 807.067C 260.16 808.471 260.232 809.911 260.447 811.098zM255.552 802.531C 253.968 802.567 251.808 803.071 251.808 805.519C 251.808 807.283 252.781 807.93 253.5 807.93C 254.256 807.93 255.121 807.463 255.444 806.419C 255.516 806.167 255.552 805.879 255.552 805.592z" /></clipPath><linearGradient transform="matrix(1 0 0 1 0 0)" id="29452" x1="239.8289" y1="811.84" x2="239.8289811.84" y2="239.8289144"><stop stop-color="#4C216D" offset="0%" /><stop stop-color="#B83F54" offset="100%" /></linearGradient><clipPath id="58"><path d="M263.509 786.189L268.224 786.189L268.224 786.189L268.224 811.098L268.224 811.098L263.509 811.098z" /></clipPath><linearGradient transform="matrix(1 0 0 1 0 0)" id="29933" x1="252.2566" y1="814.6017" x2="252.2566814.6017" y2="252.2566144"><stop stop-color="#4C216D" offset="0%" /><stop stop-color="#B83F54" offset="100%" /></linearGradient><clipPath id="59"><path d="M277.224 806.275C 278.197 806.815 279.852 807.211 281.22 807.211C 283.452 807.211 284.532 806.059 284.532 804.475C 284.532 802.712 283.452 801.847 281.4 800.515C 278.088 798.5 276.829 795.944 276.829 793.749C 276.829 789.861 279.42 786.622 284.496 786.622C 286.079 786.622 287.591 787.054 288.311 787.485L288.311 787.485L287.555 791.553C 286.871 791.121 285.828 790.725 284.459 790.725C 282.444 790.725 281.472 791.949 281.472 793.245C 281.472 794.684 282.192 795.44 284.82 797.024C 288.023 798.968 289.21 801.416 289.21 803.971C 289.21 808.399 285.935 811.314 281.184 811.314C 279.24 811.314 277.332 810.81 276.54 810.343z" /></clipPath><linearGradient transform="matrix(1 0 0 1 0 0)" id="30944" x1="267.9792" y1="818.0956" x2="267.9792818.0956" y2="267.9792144"><stop stop-color="#4C216D" offset="0%" /><stop stop-color="#B83F54" offset="100%" /></linearGradient><clipPath id="60"><path d="M295.44 803.971C 295.512 806.707 297.095 807.715 299.183 807.715C 300.515 807.715 301.703 807.427 302.531 807.138L302.531 807.138L303.179 810.522C 301.955 810.99 300.12 811.314 298.32 811.314C 293.533 811.314 290.905 808.147 290.905 802.639C 290.905 796.736 293.964 793.209 297.96 793.209C 301.74 793.209 303.935 796.196 303.935 801.523C 303.935 802.783 303.899 803.468 303.79 803.971zM299.652 800.66C 299.652 798.392 299.076 796.629 297.671 796.629C 296.124 796.629 295.512 798.896 295.476 800.66z" /></clipPath><linearGradient transform="matrix(1 0 0 1 0 0)" id="31830" x1="281.6127" y1="821.1253" x2="281.6127821.1253" y2="281.6127144"><stop stop-color="#4C216D" offset="0%" /><stop stop-color="#B83F54" offset="100%" /></linearGradient><clipPath id="61"><path d="M306.564 798.788C 306.564 797.024 306.492 795.116 306.419 793.497L306.419 793.497L310.523 793.497L310.523 793.497L310.775 796.053L310.775 796.053L310.884 796.053C 311.675 794.18 313.079 793.209 314.374 793.209C 314.843 793.209 315.095 793.209 315.382 793.281L315.382 793.281L315.382 797.96C 315.095 797.888 314.771 797.888 314.374 797.888C 313.367 797.888 312.036 798.572 311.496 800.408C 311.388 800.804 311.316 801.416 311.316 802.172L311.316 802.172L311.316 811.098L311.316 811.098L306.564 811.098z" /></clipPath><linearGradient transform="matrix(1 0 0 1 0 0)" id="32719" x1="294.4895" y1="823.9868" x2="294.4895823.9868" y2="294.4895144"><stop stop-color="#4C216D" offset="0%" /><stop stop-color="#B83F54" offset="100%" /></linearGradient><clipPath id="62"><path d="M320.711 793.497L322.042 801.344C 322.294 802.928 322.546 804.512 322.798 806.275L322.798 806.275L322.871 806.275C 323.087 804.475 323.302 803 323.554 801.344L323.554 801.344L324.923 793.497L324.923 793.497L329.566 793.497L329.566 793.497L324.851 811.098L324.851 811.098L320.496 811.098L320.496 811.098L315.708 793.497z" /></clipPath><linearGradient transform="matrix(1 0 0 1 0 0)" id="33426" x1="307.4455" y1="826.8659" x2="307.4455826.8659" y2="307.4455144"><stop stop-color="#4C216D" offset="0%" /><stop stop-color="#B83F54" offset="100%" /></linearGradient><clipPath id="63"><path d="M336.119 788.817C 336.155 790.329 335.075 791.373 333.635 791.373C 332.339 791.373 331.259 790.329 331.295 788.817C 331.259 787.233 332.412 786.262 333.706 786.262C 335.075 786.262 336.119 787.233 336.119 788.817M331.404 793.497L336.119 793.497L336.119 793.497L336.119 811.099L336.119 811.099L331.404 811.099z" /></clipPath><linearGradient transform="matrix(1 0 0 1 0 0)" id="34123" x1="316.7164" y1="828.9261" x2="316.7164828.9261" y2="316.7164144"><stop stop-color="#4C216D" offset="0%" /><stop stop-color="#B83F54" offset="100%" /></linearGradient><clipPath id="64"><path d="M349.186 810.81C 348.718 811.026 347.531 811.314 346.199 811.314C 341.735 811.314 338.82 808.219 338.82 802.46C 338.82 797.024 342.023 793.245 346.882 793.245C 347.997 793.245 349.005 793.497 349.474 793.713L349.474 793.713L348.862 797.42C 348.466 797.276 347.89 797.096 347.098 797.096C 344.83 797.096 343.498 799.256 343.498 802.315C 343.498 805.519 344.83 807.463 347.027 807.463C 347.71 807.463 348.287 807.355 348.79 807.103z" /></clipPath><linearGradient transform="matrix(1 0 0 1 0 0)" id="34941" x1="326.8004" y1="831.167" x2="326.8004831.167" y2="326.8004144"><stop stop-color="#4C216D" offset="0%" /><stop stop-color="#B83F54" offset="100%" /></linearGradient><clipPath id="65"><path d="M354.982 803.971C 355.054 806.707 356.638 807.715 358.726 807.715C 360.058 807.715 361.246 807.427 362.074 807.138L362.074 807.138L362.722 810.522C 361.497 810.99 359.662 811.314 357.863 811.314C 353.075 811.314 350.447 808.147 350.447 802.639C 350.447 796.736 353.507 793.209 357.502 793.209C 361.282 793.209 363.478 796.196 363.478 801.523C 363.478 802.783 363.441 803.468 363.333 803.971zM359.194 800.66C 359.194 798.392 358.619 796.629 357.214 796.629C 355.666 796.629 355.054 798.896 355.019 800.66z" /></clipPath><linearGradient transform="matrix(1 0 0 1 0 0)" id="35831" x1="338.3532" y1="833.7343" x2="338.3532833.7343" y2="338.3532144"><stop stop-color="#4C216D" offset="0%" /><stop stop-color="#B83F54" offset="100%" /></linearGradient><clipPath id="66"><path d="M366.323 796.629C 366.323 794.936 367.546 793.604 368.986 793.604C 370.497 793.604 371.65 794.793 371.65 796.629C 371.65 798.356 370.606 799.58 368.951 799.58C 367.474 799.58 366.323 798.356 366.323 796.629M366.323 808.399C 366.323 806.743 367.546 805.411 368.986 805.411C 370.497 805.411 371.65 806.599 371.65 808.399C 371.65 810.163 370.606 811.387 368.951 811.387C 367.474 811.387 366.323 810.163 366.323 808.399" /></clipPath><linearGradient transform="matrix(1 0 0 1 0 0)" id="36634" x1="349.7068" y1="836.2573" x2="349.7068836.2573" y2="349.7068144"><stop stop-color="#4C216D" offset="0%" /><stop stop-color="#B83F54" offset="100%" /></linearGradient><clipPath id="67"><path d="M0 -0.3869629L1176.341 -0.3869629L1176.341 -0.3869629L1176.341 1552L1176.341 1552L0 1552z" /></clipPath><clipPath id="68"><path d="M1019.15 1459.926L1176.34 1459.926L1176.34 1459.926L1176.34 1501.926L1176.34 1501.926L1019.15 1501.926z" /></clipPath><clipPath id="69"><path d="M1176.34 1501.926L1019.15 1501.926L1019.15 1501.926L1019.15 1459.926L1019.15 1459.926L1176.34 1459.926z" /></clipPath><linearGradient transform="matrix(1 0 0 1 0 0)" id="37537" x1="1019.149" y1="149.6694" x2="1019.149149.6694" y2="1019.149157.1904"><stop stop-color="#4C216D" offset="0%" /><stop stop-color="#B83F54" offset="100%" /></linearGradient><clipPath id="70"><path d="M823.455 1471.077L1002.88 1471.077L1002.88 1471.077L1002.88 1493.472L1002.88 1493.472L823.455 1493.472z" /></clipPath><clipPath id="71"><path d="M752.501 1496.804L802.1429 1496.804L802.1429 1496.804L802.1429 1467.025L802.1429 1467.025L752.501 1467.025z" /></clipPath><clipPath id="72"><path d="M155.713 998.005L150.853 1002.865C 150.248 1003.471 150.248 1004.452 150.853 1005.058L150.853 1005.058L150.853 1005.058L150.853 1005.058L155.713 1009.917C 156.319 1010.523 157.3 1010.523 157.906 1009.917L157.906 1009.917L157.906 1009.917L157.906 1009.917L162.766 1005.058C 163.372 1004.452 163.372 1003.471 162.766 1002.865L162.766 1002.865L162.766 1002.865L162.766 1002.865L157.906 998.005C 157.603 997.702 157.206 997.551 156.81 997.551L156.81 997.551L156.81 997.551C 156.413 997.551 156.016 997.702 155.713 998.005" /></clipPath><linearGradient transform="matrix(1 0 0 1 0 0)" id="38841" x1="153.2827" y1="551.5652" x2="153.2827551.5652" y2="153.28277.053284"><stop stop-color="#4C216D" offset="0%" /><stop stop-color="#B83F54" offset="100%" /></linearGradient><clipPath id="73"><path d="M155.713 1023.172L150.853 1028.031C 150.248 1028.637 150.248 1029.619 150.853 1030.224L150.853 1030.224L150.853 1030.224L150.853 1030.224L155.713 1035.085C 156.319 1035.691 157.3 1035.691 157.906 1035.085L157.906 1035.085L157.906 1035.085L157.906 1035.085L162.766 1030.224C 163.372 1029.619 163.372 1028.637 162.766 1028.031L162.766 1028.031L162.766 1028.031L162.766 1028.031L157.906 1023.172C 157.603 1022.868 157.206 1022.717 156.81 1022.717L156.81 1022.717L156.81 1022.717C 156.413 1022.717 156.016 1022.868 155.713 1023.172" /></clipPath><linearGradient transform="matrix(1 0 0 1 0 0)" id="39725" x1="153.2827" y1="526.3986" x2="153.2827526.3986" y2="153.28277.053284"><stop stop-color="#4C216D" offset="0%" /><stop stop-color="#B83F54" offset="100%" /></linearGradient><clipPath id="74"><path d="M155.713 1049.172L150.853 1054.031C 150.248 1054.637 150.248 1055.619 150.853 1056.224L150.853 1056.224L150.853 1056.224L150.853 1056.224L155.713 1061.085C 156.319 1061.69 157.3 1061.69 157.906 1061.085L157.906 1061.085L157.906 1061.085L157.906 1061.085L162.766 1056.224C 163.372 1055.619 163.372 1054.637 162.766 1054.031L162.766 1054.031L162.766 1054.031L162.766 1054.031L157.906 1049.172C 157.603 1048.868 157.206 1048.717 156.81 1048.717L156.81 1048.717L156.81 1048.717C 156.413 1048.717 156.016 1048.868 155.713 1049.172" /></clipPath><linearGradient transform="matrix(1 0 0 1 0 0)" id="40607" x1="153.2827" y1="500.3986" x2="153.2827500.3986" y2="153.28277.053314"><stop stop-color="#4C216D" offset="0%" /><stop stop-color="#B83F54" offset="100%" /></linearGradient></defs></svg>