<svg xmlns="http://www.w3.org/2000/svg" xmlns:xlink="http://www.w3.org/1999/xlink" id="body_14" preserveAspectRatio="xMinYMin meet" viewBox="0 0 1568 2069"><g transform="matrix(1.333333 0 0 1.333333 0 0)"><g><g clip-path="url(#1)"><g clip-path="url(#2)"><g clip-path="url(#3)"><g clip-path="url(#4)"><g clip-path="url(#5)"><g><g clip-path="url(#6)"><g clip-path="url(#7)"><g><path transform="matrix(1 0 0 -1 0 1552)" d="M0 -1541L1176 -168L1176 -168L1176 3344L1176 3344L0 1971" stroke="none" fill="url(#1678)" /><path transform="matrix(1 0 0 -1 0 1552)" d="M0 -1540.492L1176 -167.3511L1176 -167.3511L1176 0L1176 0L0 0" stroke="none" fill="#4C216D" fill-rule="evenodd" fill-opacity="0.8980392" /><path transform="matrix(1 0 0 -1 0 1552)" d="M0 1969.521L1176 3342.662L1176 3342.662L1176 1552L1176 1552L0 1552" stroke="none" fill="#B83F54" fill-rule="evenodd" fill-opacity="0.8980392" /></g></g></g></g><g><g clip-path="url(#8)"><g clip-path="url(#9)"><g><path transform="matrix(1 0 0 -1 0 1552)" d="M0 390L1176 -809L1176 -809L1176 -2761L1176 -2761L0 -1563" stroke="none" fill="url(#2579)" /><path transform="matrix(1 0 0 -1 0 1552)" d="M0 388.813L1176 -809.9944L1176 -809.9944L1176 1552L1176 1552L0 1552" stroke="none" fill="#FFD800" fill-rule="evenodd" fill-opacity="0.1960784" /><path transform="matrix(1 0 0 -1 0 1552)" d="M0 -1561.637L1176 -2760.445L1176 -2760.445L1176 0L1176 0L0 0" stroke="none" fill="#FF387D" fill-rule="evenodd" fill-opacity="0.1960784" /></g></g><g clip-path="url(#10)"><g><path transform="matrix(1 0 0 -1 0 1552)" d="M0 389L1176 -810L1176 -810L1176 -2761L1176 -2761L0 -1562" stroke="none" fill="url(#3223)" /><path transform="matrix(1 0 0 -1 0 1552)" d="M0 388.2229L1176 -810.5848L1176 -810.5848L1176 1552L1176 1552L0 1552" stroke="none" fill="#FFD800" fill-rule="evenodd" fill-opacity="0.1960784" /><path transform="matrix(1 0 0 -1 0 1552)" d="M0 -1561.067L1176 -2759.874L1176 -2759.874L1176 0L1176 0L0 0" stroke="none" fill="#FF387D" fill-rule="evenodd" fill-opacity="0.1960784" /></g></g><g clip-path="url(#11)"><g><path transform="matrix(1 0 0 -1 0 1552)" d="M0 389L1176 -810L1176 -810L1176 -2760L1176 -2760L0 -1562" stroke="none" fill="url(#3868)" /><path transform="matrix(1 0 0 -1 0 1552)" d="M0 387.6252L1176 -811.1823L1176 -811.1823L1176 1552L1176 1552L0 1552" stroke="none" fill="#FFD800" fill-rule="evenodd" fill-opacity="0.1960784" /><path transform="matrix(1 0 0 -1 0 1552)" d="M0 -1560.542L1176 -2759.35L1176 -2759.35L1176 0L1176 0L0 0" stroke="none" fill="#FF387D" fill-rule="evenodd" fill-opacity="0.1960784" /></g></g><g clip-path="url(#12)"><g><path transform="matrix(1 0 0 -1 0 1552)" d="M0 388L1176 -811L1176 -811L1176 -2760L1176 -2760L0 -1561" stroke="none" fill="url(#4511)" /><path transform="matrix(1 0 0 -1 0 1552)" d="M0 387.0408L1176 -811.7668L1176 -811.7668L1176 1552L1176 1552L0 1552" stroke="none" fill="#FFD800" fill-rule="evenodd" fill-opacity="0.1960784" /><path transform="matrix(1 0 0 -1 0 1552)" d="M0 -1560.06L1176 -2758.868L1176 -2758.868L1176 0L1176 0L0 0" stroke="none" fill="#FF387D" fill-rule="evenodd" fill-opacity="0.1960784" /></g></g><g clip-path="url(#13)"><g><path transform="matrix(1 0 0 -1 0 1552)" d="M0 387L1176 -811L1176 -811L1176 -2759L1176 -2759L0 -1561" stroke="none" fill="url(#5154)" /><path transform="matrix(1 0 0 -1 0 1552)" d="M0 386.4405L1176 -812.367L1176 -812.367L1176 1552L1176 1552L0 1552" stroke="none" fill="#FFD800" fill-rule="evenodd" fill-opacity="0.1960784" /><path transform="matrix(1 0 0 -1 0 1552)" d="M0 -1559.63L1176 -2758.438L1176 -2758.438L1176 0L1176 0L0 0" stroke="none" fill="#FF387D" fill-rule="evenodd" fill-opacity="0.1960784" /></g></g><g clip-path="url(#14)"><g><path transform="matrix(1 0 0 -1 0 1552)" d="M0 387L1176 -812L1176 -812L1176 -2759L1176 -2759L0 -1560" stroke="none" fill="url(#5800)" /><path transform="matrix(1 0 0 -1 0 1552)" d="M0 385.855L1176 -812.9525L1176 -812.9525L1176 1552L1176 1552L0 1552" stroke="none" fill="#FFD800" fill-rule="evenodd" fill-opacity="0.1960784" /><path transform="matrix(1 0 0 -1 0 1552)" d="M0 -1559.233L1176 -2758.041L1176 -2758.041L1176 0L1176 0L0 0" stroke="none" fill="#FF387D" fill-rule="evenodd" fill-opacity="0.1960784" /></g></g><g clip-path="url(#15)"><g><path transform="matrix(1 0 0 -1 0 1552)" d="M0 386L1176 -813L1176 -813L1176 -2759L1176 -2759L0 -1560" stroke="none" fill="url(#6444)" /><path transform="matrix(1 0 0 -1 0 1552)" d="M0 385.2574L1176 -813.5501L1176 -813.5501L1176 1552L1176 1552L0 1552" stroke="none" fill="#FFD800" fill-rule="evenodd" fill-opacity="0.1960784" /><path transform="matrix(1 0 0 -1 0 1552)" d="M0 -1558.861L1176 -2757.669L1176 -2757.669L1176 0L1176 0L0 0" stroke="none" fill="#FF387D" fill-rule="evenodd" fill-opacity="0.1960784" /></g></g><g clip-path="url(#16)"><g><path transform="matrix(1 0 0 -1 0 1552)" d="M0 386L1176 -813L1176 -813L1176 -2758L1176 -2758L0 -1560" stroke="none" fill="url(#7088)" /><path transform="matrix(1 0 0 -1 0 1552)" d="M0 384.6628L1176 -814.1447L1176 -814.1447L1176 1552L1176 1552L0 1552" stroke="none" fill="#FFD800" fill-rule="evenodd" fill-opacity="0.1960784" /><path transform="matrix(1 0 0 -1 0 1552)" d="M0 -1558.535L1176 -2757.342L1176 -2757.342L1176 0L1176 0L0 0" stroke="none" fill="#FF387D" fill-rule="evenodd" fill-opacity="0.1960784" /></g></g><g clip-path="url(#17)"><g><path transform="matrix(1 0 0 -1 0 1552)" d="M0 385L1176 -814L1176 -814L1176 -2758L1176 -2758L0 -1559" stroke="none" fill="url(#7737)" /><path transform="matrix(1 0 0 -1 0 1552)" d="M0 384.0678L1176 -814.7397L1176 -814.7397L1176 1552L1176 1552L0 1552" stroke="none" fill="#FFD800" fill-rule="evenodd" fill-opacity="0.1960784" /><path transform="matrix(1 0 0 -1 0 1552)" d="M0 -1558.25L1176 -2757.057L1176 -2757.057L1176 0L1176 0L0 0" stroke="none" fill="#FF387D" fill-rule="evenodd" fill-opacity="0.1960784" /></g></g><g clip-path="url(#18)"><g><path transform="matrix(1 0 0 -1 0 1552)" d="M0 384L1176 -814L1176 -814L1176 -2758L1176 -2758L0 -1559" stroke="none" fill="url(#8386)" /><path transform="matrix(1 0 0 -1 0 1552)" d="M0 383.4753L1176 -815.3323L1176 -815.3323L1176 1552L1176 1552L0 1552" stroke="none" fill="#FFD800" fill-rule="evenodd" fill-opacity="0.1960784" /><path transform="matrix(1 0 0 -1 0 1552)" d="M0 -1557.992L1176 -2756.8L1176 -2756.8L1176 0L1176 0L0 0" stroke="none" fill="#FF387D" fill-rule="evenodd" fill-opacity="0.1960784" /></g></g><g clip-path="url(#19)"><g><path transform="matrix(1 0 0 -1 0 1552)" d="M0 384L1176 -815L1176 -815L1176 -2758L1176 -2758L0 -1559" stroke="none" fill="url(#9029)" /><path transform="matrix(1 0 0 -1 0 1552)" d="M0 382.8879L1176 -815.9197L1176 -815.9197L1176 1552L1176 1552L0 1552" stroke="none" fill="#FFD800" fill-rule="evenodd" fill-opacity="0.1960784" /><path transform="matrix(1 0 0 -1 0 1552)" d="M0 -1557.771L1176 -2756.579L1176 -2756.579L1176 0L1176 0L0 0" stroke="none" fill="#FF387D" fill-rule="evenodd" fill-opacity="0.1960784" /></g></g></g></g></g></g></g><g><g clip-path="url(#20)"><path transform="matrix(1 0 0 -1 0 1552)" d="M1052.948 695.724L144.778 695.724L144.778 695.724L144.778 1173.724L144.778 1173.724L1052.948 1173.724z" stroke="#000000" stroke-width="2" fill="none" stroke-opacity="0.4980392" /></g></g><g><g clip-path="url(#21)"><path transform="matrix(1 0 0 -1 0 1552)" d="M1053.886 108.324L510.663 108.324L510.663 108.324L510.663 564.019L510.663 564.019L1053.886 564.019z" stroke="#000000" stroke-width="2" fill="none" stroke-opacity="0.4980392" /></g></g></g><g clip-path="url(#22)"><g><g clip-path="url(#23)"><g clip-path="url(#24)"><g><path transform="matrix(1 0 0 -1 0 1552)" d="M0 -1286L1176 87L1176 87L1176 3599L1176 3599L0 2226" stroke="none" fill="url(#10372)" /><path transform="matrix(1 0 0 -1 0 1552)" d="M0 -1284.919L1176 88.22222L1176 88.22222L1176 0L1176 0L0 0" stroke="none" fill="#4C216D" fill-rule="evenodd" fill-opacity="0.8980392" /><path transform="matrix(1 0 0 -1 0 1552)" d="M0 2225.094L1176 3598.235L1176 3598.235L1176 1552L1176 1552L0 1552" stroke="none" fill="#B83F54" fill-rule="evenodd" fill-opacity="0.8980392" /></g></g></g></g><g><g clip-path="url(#25)"><g clip-path="url(#26)"><g><path transform="matrix(1 0 0 -1 0 1552)" d="M0 3426L1176 2227L1176 2227L1176 268L1176 268L0 1467" stroke="none" fill="url(#11197)" /><path transform="matrix(1 0 0 -1 0 1552)" d="M0 3424.985L1176 2226.177L1176 2226.177L1176 1552L1176 1552L0 1552" stroke="none" fill="#FFD800" fill-rule="evenodd" fill-opacity="0.1960784" /><path transform="matrix(1 0 0 -1 0 1552)" d="M0 1467.991L1176 269.1838L1176 269.1838L1176 0L1176 0L0 0" stroke="none" fill="#FF387D" fill-rule="evenodd" fill-opacity="0.1960784" /></g></g><g clip-path="url(#27)"><g><path transform="matrix(1 0 0 -1 0 1552)" d="M0 3425L1176 2227L1176 2227L1176 269L1176 269L0 1468" stroke="none" fill="url(#11804)" /><path transform="matrix(1 0 0 -1 0 1552)" d="M0 3424.401L1176 2225.594L1176 2225.594L1176 1552L1176 1552L0 1552" stroke="none" fill="#FFD800" fill-rule="evenodd" fill-opacity="0.1960784" /><path transform="matrix(1 0 0 -1 0 1552)" d="M0 1468.834L1176 270.0264L1176 270.0264L1176 0L1176 0L0 0" stroke="none" fill="#FF387D" fill-rule="evenodd" fill-opacity="0.1960784" /></g></g><g clip-path="url(#28)"><g><path transform="matrix(1 0 0 -1 0 1552)" d="M0 3425L1176 2226L1176 2226L1176 270L1176 270L0 1469" stroke="none" fill="url(#12404)" /><path transform="matrix(1 0 0 -1 0 1552)" d="M0 3423.817L1176 2225.01L1176 2225.01L1176 1552L1176 1552L0 1552" stroke="none" fill="#FFD800" fill-rule="evenodd" fill-opacity="0.1960784" /><path transform="matrix(1 0 0 -1 0 1552)" d="M0 1469.619L1176 270.8116L1176 270.8116L1176 0L1176 0L0 0" stroke="none" fill="#FF387D" fill-rule="evenodd" fill-opacity="0.1960784" /></g></g><g clip-path="url(#29)"><g><path transform="matrix(1 0 0 -1 0 1552)" d="M0 3424L1176 2225L1176 2225L1176 271L1176 271L0 1469" stroke="none" fill="url(#13003)" /><path transform="matrix(1 0 0 -1 0 1552)" d="M0 3423.23L1176 2224.423L1176 2224.423L1176 1552L1176 1552L0 1552" stroke="none" fill="#FFD800" fill-rule="evenodd" fill-opacity="0.1960784" /><path transform="matrix(1 0 0 -1 0 1552)" d="M0 1470.331L1176 271.5234L1176 271.5234L1176 0L1176 0L0 0" stroke="none" fill="#FF387D" fill-rule="evenodd" fill-opacity="0.1960784" /></g></g><g clip-path="url(#30)"><g><path transform="matrix(1 0 0 -1 0 1552)" d="M0 3424L1176 2225L1176 2225L1176 271L1176 271L0 1470" stroke="none" fill="url(#13603)" /><path transform="matrix(1 0 0 -1 0 1552)" d="M0 3422.642L1176 2223.834L1176 2223.834L1176 1552L1176 1552L0 1552" stroke="none" fill="#FFD800" fill-rule="evenodd" fill-opacity="0.1960784" /><path transform="matrix(1 0 0 -1 0 1552)" d="M0 1470.991L1176 272.184L1176 272.184L1176 0L1176 0L0 0" stroke="none" fill="#FF387D" fill-rule="evenodd" fill-opacity="0.1960784" /></g></g><g clip-path="url(#31)"><g><path transform="matrix(1 0 0 -1 0 1552)" d="M0 3423L1176 2224L1176 2224L1176 272L1176 272L0 1471" stroke="none" fill="url(#14206)" /><path transform="matrix(1 0 0 -1 0 1552)" d="M0 3422.057L1176 2223.25L1176 2223.25L1176 1552L1176 1552L0 1552" stroke="none" fill="#FFD800" fill-rule="evenodd" fill-opacity="0.1960784" /><path transform="matrix(1 0 0 -1 0 1552)" d="M0 1471.607L1176 272.7993L1176 272.7993L1176 0L1176 0L0 0" stroke="none" fill="#FF387D" fill-rule="evenodd" fill-opacity="0.1960784" /></g></g><g clip-path="url(#32)"><g><path transform="matrix(1 0 0 -1 0 1552)" d="M0 3422L1176 2224L1176 2224L1176 272L1176 272L0 1471" stroke="none" fill="url(#14805)" /><path transform="matrix(1 0 0 -1 0 1552)" d="M0 3421.467L1176 2222.659L1176 2222.659L1176 1552L1176 1552L0 1552" stroke="none" fill="#FFD800" fill-rule="evenodd" fill-opacity="0.1960784" /><path transform="matrix(1 0 0 -1 0 1552)" d="M0 1472.177L1176 273.3698L1176 273.3698L1176 0L1176 0L0 0" stroke="none" fill="#FF387D" fill-rule="evenodd" fill-opacity="0.1960784" /></g></g><g clip-path="url(#33)"><g><path transform="matrix(1 0 0 -1 0 1552)" d="M0 3422L1176 2223L1176 2223L1176 273L1176 273L0 1472" stroke="none" fill="url(#15394)" /><path transform="matrix(1 0 0 -1 0 1552)" d="M0 3420.869L1176 2222.062L1176 2222.062L1176 1552L1176 1552L0 1552" stroke="none" fill="#FFD800" fill-rule="evenodd" fill-opacity="0.1960784" /><path transform="matrix(1 0 0 -1 0 1552)" d="M0 1472.701L1176 273.8939L1176 273.8939L1176 0L1176 0L0 0" stroke="none" fill="#FF387D" fill-rule="evenodd" fill-opacity="0.1960784" /></g></g><g clip-path="url(#34)"><g><path transform="matrix(1 0 0 -1 0 1552)" d="M0 3421L1176 2222L1176 2222L1176 273L1176 273L0 1472" stroke="none" fill="url(#15996)" /><path transform="matrix(1 0 0 -1 0 1552)" d="M0 3420.284L1176 2221.477L1176 2221.477L1176 1552L1176 1552L0 1552" stroke="none" fill="#FFD800" fill-rule="evenodd" fill-opacity="0.1960784" /><path transform="matrix(1 0 0 -1 0 1552)" d="M0 1473.184L1176 274.3762L1176 274.3762L1176 0L1176 0L0 0" stroke="none" fill="#FF387D" fill-rule="evenodd" fill-opacity="0.1960784" /></g></g><g clip-path="url(#35)"><g><path transform="matrix(1 0 0 -1 0 1552)" d="M0 3421L1176 2222L1176 2222L1176 274L1176 274L0 1473" stroke="none" fill="url(#16592)" /><path transform="matrix(1 0 0 -1 0 1552)" d="M0 3419.684L1176 2220.877L1176 2220.877L1176 1552L1176 1552L0 1552" stroke="none" fill="#FFD800" fill-rule="evenodd" fill-opacity="0.1960784" /><path transform="matrix(1 0 0 -1 0 1552)" d="M0 1473.614L1176 274.8061L1176 274.8061L1176 0L1176 0L0 0" stroke="none" fill="#FF387D" fill-rule="evenodd" fill-opacity="0.1960784" /></g></g><g clip-path="url(#36)"><g><path transform="matrix(1 0 0 -1 0 1552)" d="M0 3420L1176 2221L1176 2221L1176 274L1176 274L0 1473" stroke="none" fill="url(#17193)" /><path transform="matrix(1 0 0 -1 0 1552)" d="M0 3419.099L1176 2220.291L1176 2220.291L1176 1552L1176 1552L0 1552" stroke="none" fill="#FFD800" fill-rule="evenodd" fill-opacity="0.1960784" /><path transform="matrix(1 0 0 -1 0 1552)" d="M0 1474.011L1176 275.2032L1176 275.2032L1176 0L1176 0L0 0" stroke="none" fill="#FF387D" fill-rule="evenodd" fill-opacity="0.1960784" /></g></g><g clip-path="url(#37)"><g><path transform="matrix(1 0 0 -1 0 1552)" d="M0 3420L1176 2221L1176 2221L1176 275L1176 275L0 1473" stroke="none" fill="url(#17797)" /><path transform="matrix(1 0 0 -1 0 1552)" d="M0 3418.501L1176 2219.694L1176 2219.694L1176 1552L1176 1552L0 1552" stroke="none" fill="#FFD800" fill-rule="evenodd" fill-opacity="0.1960784" /><path transform="matrix(1 0 0 -1 0 1552)" d="M0 1474.382L1176 275.575L1176 275.575L1176 0L1176 0L0 0" stroke="none" fill="#FF387D" fill-rule="evenodd" fill-opacity="0.1960784" /></g></g><g clip-path="url(#38)"><g><path transform="matrix(1 0 0 -1 0 1552)" d="M0 3419L1176 2220L1176 2220L1176 275L1176 275L0 1474" stroke="none" fill="url(#18401)" /><path transform="matrix(1 0 0 -1 0 1552)" d="M0 3417.906L1176 2219.099L1176 2219.099L1176 1552L1176 1552L0 1552" stroke="none" fill="#FFD800" fill-rule="evenodd" fill-opacity="0.1960784" /><path transform="matrix(1 0 0 -1 0 1552)" d="M0 1474.709L1176 275.9014L1176 275.9014L1176 0L1176 0L0 0" stroke="none" fill="#FF387D" fill-rule="evenodd" fill-opacity="0.1960784" /></g></g><g clip-path="url(#39)"><g><path transform="matrix(1 0 0 -1 0 1552)" d="M0 3418L1176 2220L1176 2220L1176 275L1176 275L0 1474" stroke="none" fill="url(#19002)" /><path transform="matrix(1 0 0 -1 0 1552)" d="M0 3417.312L1176 2218.504L1176 2218.504L1176 1552L1176 1552L0 1552" stroke="none" fill="#FFD800" fill-rule="evenodd" fill-opacity="0.1960784" /><path transform="matrix(1 0 0 -1 0 1552)" d="M0 1474.994L1176 276.1867L1176 276.1867L1176 0L1176 0L0 0" stroke="none" fill="#FF387D" fill-rule="evenodd" fill-opacity="0.1960784" /></g></g><g clip-path="url(#40)"><g><path transform="matrix(1 0 0 -1 0 1552)" d="M0 3418L1176 2219L1176 2219L1176 275L1176 275L0 1474" stroke="none" fill="url(#19594)" /><path transform="matrix(1 0 0 -1 0 1552)" d="M0 3416.719L1176 2217.911L1176 2217.911L1176 1552L1176 1552L0 1552" stroke="none" fill="#FFD800" fill-rule="evenodd" fill-opacity="0.1960784" /><path transform="matrix(1 0 0 -1 0 1552)" d="M0 1475.251L1176 276.444L1176 276.444L1176 0L1176 0L0 0" stroke="none" fill="#FF387D" fill-rule="evenodd" fill-opacity="0.1960784" /></g></g><g clip-path="url(#41)"><g><path transform="matrix(1 0 0 -1 0 1552)" d="M0 3417L1176 2218L1176 2218L1176 276L1176 276L0 1474" stroke="none" fill="url(#20194)" /><path transform="matrix(1 0 0 -1 0 1552)" d="M0 3416.132L1176 2217.324L1176 2217.324L1176 1552L1176 1552L0 1552" stroke="none" fill="#FFD800" fill-rule="evenodd" fill-opacity="0.1960784" /><path transform="matrix(1 0 0 -1 0 1552)" d="M0 1475.473L1176 276.6651L1176 276.6651L1176 0L1176 0L0 0" stroke="none" fill="#FF387D" fill-rule="evenodd" fill-opacity="0.1960784" /></g></g></g></g></g><g clip-path="url(#42)"><path transform="matrix(1 0 0 -1 0 1552)" d="M1176.34 0.49L0 0.49L0 0.49L0 1552.877L0 1552.877L1176.34 1552.877z" stroke="#E6E7E8" stroke-width="1" fill="none" /><g><g clip-path="url(#43)"><g clip-path="url(#44)"><g><path transform="matrix(1 0 0 -1 0 1552)" d="M1019.149 0L1019.149 1552L1019.149 1552L1176.34 1552L1176.34 1552L1176.34 0" stroke="none" fill="url(#21102)" /><path transform="matrix(1 0 0 -1 0 1552)" d="M1019.149 0L1019.149 1552L1019.149 1552L0 1552L0 1552L0 0" stroke="none" fill="#4C216D" fill-rule="evenodd" fill-opacity="0.4980392" /><path transform="matrix(1 0 0 -1 0 1552)" d="M1176.34 0L1176.34 1552L1176.34 1552L1176 1552L1176 1552L1176 0" stroke="none" fill="#B83F54" fill-rule="evenodd" fill-opacity="0.4980392" /></g></g></g></g><g><g clip-path="url(#45)"></g></g></g><g clip-path="url(#46)"><g transform="matrix(0.2398164 0 0 0.2382367 752.501 1466.534)"><g transform="matrix(1 0 0 1 0 0)"><image x="0" y="0" xlink:href="img_07.png" width="207" height="125" /></g></g></g><path transform="matrix(1 0 0 -1 0 1552)" d="M813.9316 80.2148L813.9316 64.1328" stroke="#797A7C" stroke-width="1" fill="none" /><g clip-path="url(#47)"><g><g clip-path="url(#48)"><g clip-path="url(#49)"><g><path transform="matrix(1 0 0 -1 0 1552)" d="M0 -2059L1176 -685L1176 -685L1176 2827L1176 2827L0 1454" stroke="none" fill="url(#22438)" /><path transform="matrix(1 0 0 -1 0 1552)" d="M0 -2057.507L1176 -684.3655L1176 -684.3655L1176 0L1176 0L0 0" stroke="none" fill="#4C216D" fill-rule="evenodd" fill-opacity="0.8980392" /><path transform="matrix(1 0 0 -1 0 1552)" d="M0 1452.506L1176 2825.647L1176 2825.647L1176 1552L1176 1552L0 1552" stroke="none" fill="#B83F54" fill-rule="evenodd" fill-opacity="0.8980392" /></g></g></g></g><g><g clip-path="url(#50)"><g clip-path="url(#51)"><g><path transform="matrix(1 0 0 -1 0 1552)" d="M0 2654L1176 1455L1176 1455L1176 -505L1176 -505L0 693" stroke="none" fill="url(#23244)" /><path transform="matrix(1 0 0 -1 0 1552)" d="M0 2652.979L1176 1454.172L1176 1454.172L1176 1552L1176 1552L0 1552" stroke="none" fill="#FFD800" fill-rule="evenodd" fill-opacity="0.1960784" /><path transform="matrix(1 0 0 -1 0 1552)" d="M0 694.4957L1176 -504.3118L1176 -504.3118L1176 0L1176 0L0 0" stroke="none" fill="#FF387D" fill-rule="evenodd" fill-opacity="0.1960784" /></g></g><g clip-path="url(#52)"><g><path transform="matrix(1 0 0 -1 0 1552)" d="M0 2653L1176 1455L1176 1455L1176 -504L1176 -504L0 694" stroke="none" fill="url(#23836)" /><path transform="matrix(1 0 0 -1 0 1552)" d="M0 2652.397L1176 1453.59L1176 1453.59L1176 1552L1176 1552L0 1552" stroke="none" fill="#FFD800" fill-rule="evenodd" fill-opacity="0.1960784" /><path transform="matrix(1 0 0 -1 0 1552)" d="M0 695.4036L1176 -503.4039L1176 -503.4039L1176 0L1176 0L0 0" stroke="none" fill="#FF387D" fill-rule="evenodd" fill-opacity="0.1960784" /></g></g><g clip-path="url(#53)"><g><path transform="matrix(1 0 0 -1 0 1552)" d="M0 2653L1176 1454L1176 1454L1176 -504L1176 -504L0 695" stroke="none" fill="url(#24427)" /><path transform="matrix(1 0 0 -1 0 1552)" d="M0 2651.813L1176 1453.006L1176 1453.006L1176 1552L1176 1552L0 1552" stroke="none" fill="#FFD800" fill-rule="evenodd" fill-opacity="0.1960784" /><path transform="matrix(1 0 0 -1 0 1552)" d="M0 696.2462L1176 -502.5612L1176 -502.5612L1176 0L1176 0L0 0" stroke="none" fill="#FF387D" fill-rule="evenodd" fill-opacity="0.1960784" /></g></g><g clip-path="url(#54)"><g><path transform="matrix(1 0 0 -1 0 1552)" d="M0 2652L1176 1453L1176 1453L1176 -503L1176 -503L0 696" stroke="none" fill="url(#25018)" /><path transform="matrix(1 0 0 -1 0 1552)" d="M0 2651.23L1176 1452.422L1176 1452.422L1176 1552L1176 1552L0 1552" stroke="none" fill="#FFD800" fill-rule="evenodd" fill-opacity="0.1960784" /><path transform="matrix(1 0 0 -1 0 1552)" d="M0 697.0314L1176 -501.7761L1176 -501.7761L1176 0L1176 0L0 0" stroke="none" fill="#FF387D" fill-rule="evenodd" fill-opacity="0.1960784" /></g></g><g clip-path="url(#55)"><g><path transform="matrix(1 0 0 -1 0 1552)" d="M0 2652L1176 1453L1176 1453L1176 -502L1176 -502L0 697" stroke="none" fill="url(#25609)" /><path transform="matrix(1 0 0 -1 0 1552)" d="M0 2650.643L1176 1451.835L1176 1451.835L1176 1552L1176 1552L0 1552" stroke="none" fill="#FFD800" fill-rule="evenodd" fill-opacity="0.1960784" /><path transform="matrix(1 0 0 -1 0 1552)" d="M0 697.7431L1176 -501.0644L1176 -501.0644L1176 0L1176 0L0 0" stroke="none" fill="#FF387D" fill-rule="evenodd" fill-opacity="0.1960784" /></g></g><g clip-path="url(#56)"><g><path transform="matrix(1 0 0 -1 0 1552)" d="M0 2651L1176 1452L1176 1452L1176 -501L1176 -501L0 697" stroke="none" fill="url(#26201)" /><path transform="matrix(1 0 0 -1 0 1552)" d="M0 2650.054L1176 1451.247L1176 1451.247L1176 1552L1176 1552L0 1552" stroke="none" fill="#FFD800" fill-rule="evenodd" fill-opacity="0.1960784" /><path transform="matrix(1 0 0 -1 0 1552)" d="M0 698.4037L1176 -500.4037L1176 -500.4037L1176 0L1176 0L0 0" stroke="none" fill="#FF387D" fill-rule="evenodd" fill-opacity="0.1960784" /></g></g><g clip-path="url(#57)"><g><path transform="matrix(1 0 0 -1 0 1552)" d="M0 2650L1176 1452L1176 1452L1176 -501L1176 -501L0 698" stroke="none" fill="url(#26792)" /><path transform="matrix(1 0 0 -1 0 1552)" d="M0 2649.469L1176 1450.662L1176 1450.662L1176 1552L1176 1552L0 1552" stroke="none" fill="#FFD800" fill-rule="evenodd" fill-opacity="0.1960784" /><path transform="matrix(1 0 0 -1 0 1552)" d="M0 699.019L1176 -499.7885L1176 -499.7885L1176 0L1176 0L0 0" stroke="none" fill="#FF387D" fill-rule="evenodd" fill-opacity="0.1960784" /></g></g><g clip-path="url(#58)"><g><path transform="matrix(1 0 0 -1 0 1552)" d="M0 2650L1176 1451L1176 1451L1176 -500L1176 -500L0 699" stroke="none" fill="url(#27384)" /><path transform="matrix(1 0 0 -1 0 1552)" d="M0 2648.879L1176 1450.072L1176 1450.072L1176 1552L1176 1552L0 1552" stroke="none" fill="#FFD800" fill-rule="evenodd" fill-opacity="0.1960784" /><path transform="matrix(1 0 0 -1 0 1552)" d="M0 699.5897L1176 -499.2178L1176 -499.2178L1176 0L1176 0L0 0" stroke="none" fill="#FF387D" fill-rule="evenodd" fill-opacity="0.1960784" /></g></g><g clip-path="url(#59)"><g><path transform="matrix(1 0 0 -1 0 1552)" d="M0 2649L1176 1450L1176 1450L1176 -500L1176 -500L0 699" stroke="none" fill="url(#27978)" /><path transform="matrix(1 0 0 -1 0 1552)" d="M0 2648.281L1176 1449.474L1176 1449.474L1176 1552L1176 1552L0 1552" stroke="none" fill="#FFD800" fill-rule="evenodd" fill-opacity="0.1960784" /><path transform="matrix(1 0 0 -1 0 1552)" d="M0 700.1136L1176 -498.6938L1176 -498.6938L1176 0L1176 0L0 0" stroke="none" fill="#FF387D" fill-rule="evenodd" fill-opacity="0.1960784" /></g></g><g clip-path="url(#60)"><g><path transform="matrix(1 0 0 -1 0 1552)" d="M0 2649L1176 1450L1176 1450L1176 -499L1176 -499L0 700" stroke="none" fill="url(#28575)" /><path transform="matrix(1 0 0 -1 0 1552)" d="M0 2647.697L1176 1448.889L1176 1448.889L1176 1552L1176 1552L0 1552" stroke="none" fill="#FFD800" fill-rule="evenodd" fill-opacity="0.1960784" /><path transform="matrix(1 0 0 -1 0 1552)" d="M0 700.5959L1176 -498.2116L1176 -498.2116L1176 0L1176 0L0 0" stroke="none" fill="#FF387D" fill-rule="evenodd" fill-opacity="0.1960784" /></g></g><g clip-path="url(#61)"><g><path transform="matrix(1 0 0 -1 0 1552)" d="M0 2648L1176 1449L1176 1449L1176 -499L1176 -499L0 700" stroke="none" fill="url(#29170)" /><path transform="matrix(1 0 0 -1 0 1552)" d="M0 2647.097L1176 1448.289L1176 1448.289L1176 1552L1176 1552L0 1552" stroke="none" fill="#FFD800" fill-rule="evenodd" fill-opacity="0.1960784" /><path transform="matrix(1 0 0 -1 0 1552)" d="M0 701.0259L1176 -497.7816L1176 -497.7816L1176 0L1176 0L0 0" stroke="none" fill="#FF387D" fill-rule="evenodd" fill-opacity="0.1960784" /></g></g><g clip-path="url(#62)"><g><path transform="matrix(1 0 0 -1 0 1552)" d="M0 2648L1176 1449L1176 1449L1176 -498L1176 -498L0 700" stroke="none" fill="url(#29770)" /><path transform="matrix(1 0 0 -1 0 1552)" d="M0 2646.511L1176 1447.704L1176 1447.704L1176 1552L1176 1552L0 1552" stroke="none" fill="#FFD800" fill-rule="evenodd" fill-opacity="0.1960784" /><path transform="matrix(1 0 0 -1 0 1552)" d="M0 701.423L1176 -497.3846L1176 -497.3846L1176 0L1176 0L0 0" stroke="none" fill="#FF387D" fill-rule="evenodd" fill-opacity="0.1960784" /></g></g><g clip-path="url(#63)"><g><path transform="matrix(1 0 0 -1 0 1552)" d="M0 2647L1176 1448L1176 1448L1176 -498L1176 -498L0 701" stroke="none" fill="url(#30368)" /><path transform="matrix(1 0 0 -1 0 1552)" d="M0 2645.913L1176 1447.106L1176 1447.106L1176 1552L1176 1552L0 1552" stroke="none" fill="#FFD800" fill-rule="evenodd" fill-opacity="0.1960784" /><path transform="matrix(1 0 0 -1 0 1552)" d="M0 701.7947L1176 -497.0128L1176 -497.0128L1176 0L1176 0L0 0" stroke="none" fill="#FF387D" fill-rule="evenodd" fill-opacity="0.1960784" /></g></g><g clip-path="url(#64)"><g><path transform="matrix(1 0 0 -1 0 1552)" d="M0 2646L1176 1448L1176 1448L1176 -498L1176 -498L0 701" stroke="none" fill="url(#30966)" /><path transform="matrix(1 0 0 -1 0 1552)" d="M0 2645.319L1176 1446.511L1176 1446.511L1176 1552L1176 1552L0 1552" stroke="none" fill="#FFD800" fill-rule="evenodd" fill-opacity="0.1960784" /><path transform="matrix(1 0 0 -1 0 1552)" d="M0 702.1213L1176 -496.6862L1176 -496.6862L1176 0L1176 0L0 0" stroke="none" fill="#FF387D" fill-rule="evenodd" fill-opacity="0.1960784" /></g></g><g clip-path="url(#65)"><g><path transform="matrix(1 0 0 -1 0 1552)" d="M0 2646L1176 1447L1176 1447L1176 -497L1176 -497L0 701" stroke="none" fill="url(#31567)" /><path transform="matrix(1 0 0 -1 0 1552)" d="M0 2644.724L1176 1445.916L1176 1445.916L1176 1552L1176 1552L0 1552" stroke="none" fill="#FFD800" fill-rule="evenodd" fill-opacity="0.1960784" /><path transform="matrix(1 0 0 -1 0 1552)" d="M0 702.4065L1176 -496.401L1176 -496.401L1176 0L1176 0L0 0" stroke="none" fill="#FF387D" fill-rule="evenodd" fill-opacity="0.1960784" /></g></g><g clip-path="url(#66)"><g><path transform="matrix(1 0 0 -1 0 1552)" d="M0 2645L1176 1446L1176 1446L1176 -497L1176 -497L0 702" stroke="none" fill="url(#32162)" /><path transform="matrix(1 0 0 -1 0 1552)" d="M0 2644.131L1176 1445.324L1176 1445.324L1176 1552L1176 1552L0 1552" stroke="none" fill="#FFD800" fill-rule="evenodd" fill-opacity="0.1960784" /><path transform="matrix(1 0 0 -1 0 1552)" d="M0 702.6638L1176 -496.1437L1176 -496.1437L1176 0L1176 0L0 0" stroke="none" fill="#FF387D" fill-rule="evenodd" fill-opacity="0.1960784" /></g></g><g clip-path="url(#67)"><g><path transform="matrix(1 0 0 -1 0 1552)" d="M0 2645L1176 1446L1176 1446L1176 -497L1176 -497L0 702" stroke="none" fill="url(#32760)" /><path transform="matrix(1 0 0 -1 0 1552)" d="M0 2643.544L1176 1444.736L1176 1444.736L1176 1552L1176 1552L0 1552" stroke="none" fill="#FFD800" fill-rule="evenodd" fill-opacity="0.1960784" /><path transform="matrix(1 0 0 -1 0 1552)" d="M0 702.8849L1176 -495.9227L1176 -495.9227L1176 0L1176 0L0 0" stroke="none" fill="#FF387D" fill-rule="evenodd" fill-opacity="0.1960784" /></g></g></g></g><g><g clip-path="url(#68)"><g clip-path="url(#69)"><g><path transform="matrix(1 0 0 -1 0 1552)" d="M0 -48944L1176 187767L1176 187767L1176 45696L1176 45696L0 -191015" stroke="none" fill="url(#33468)" /><path transform="matrix(1 0 0 -1 0 1552)" d="M0 -49062.75L1176 187648.5L1176 187648.5L1176 1552L1176 1552L0 1552" stroke="none" fill="#560099" fill-rule="evenodd" fill-opacity="0.04705882" /><path transform="matrix(1 0 0 -1 0 1552)" d="M0 -190896.5L1176 45814.7L1176 45814.7L1176 0L1176 0L0 0" stroke="none" fill="#FF0A35" fill-rule="evenodd" fill-opacity="0.04705882" /></g></g><g clip-path="url(#70)"><g><path transform="matrix(1 0 0 -1 0 1552)" d="M0 -46659L1176 190052L1176 190052L1176 47981L1176 47981L0 -188730" stroke="none" fill="url(#33956)" /><path transform="matrix(1 0 0 -1 0 1552)" d="M0 -46777.64L1176 189933.6L1176 189933.6L1176 1552L1176 1552L0 1552" stroke="none" fill="#560099" fill-rule="evenodd" fill-opacity="0.04705882" /><path transform="matrix(1 0 0 -1 0 1552)" d="M0 -188611.4L1176 48099.81L1176 48099.81L1176 0L1176 0L0 0" stroke="none" fill="#FF0A35" fill-rule="evenodd" fill-opacity="0.04705882" /></g></g><g clip-path="url(#71)"><g><path transform="matrix(1 0 0 -1 0 1552)" d="M0 -44374L1176 192337L1176 192337L1176 50267L1176 50267L0 -186444" stroke="none" fill="url(#34449)" /><path transform="matrix(1 0 0 -1 0 1552)" d="M0 -44492.34L1176 192218.9L1176 192218.9L1176 1552L1176 1552L0 1552" stroke="none" fill="#560099" fill-rule="evenodd" fill-opacity="0.04705882" /><path transform="matrix(1 0 0 -1 0 1552)" d="M0 -186326.1L1176 50385.11L1176 50385.11L1176 0L1176 0L0 0" stroke="none" fill="#FF0A35" fill-rule="evenodd" fill-opacity="0.04705882" /></g></g><g clip-path="url(#72)"><g><path transform="matrix(1 0 0 -1 0 1552)" d="M0 -42087L1176 194616L1176 194616L1176 52550L1176 52550L0 -184153" stroke="none" fill="url(#34942)" /><path transform="matrix(1 0 0 -1 0 1552)" d="M0 -42205.57L1176 194497.7L1176 194497.7L1176 1552L1176 1552L0 1552" stroke="none" fill="#560099" fill-rule="evenodd" fill-opacity="0.04705882" /><path transform="matrix(1 0 0 -1 0 1552)" d="M0 -184034.8L1176 52668.52L1176 52668.52L1176 0L1176 0L0 0" stroke="none" fill="#FF0A35" fill-rule="evenodd" fill-opacity="0.04705882" /></g></g><g clip-path="url(#73)"><g><path transform="matrix(1 0 0 -1 0 1552)" d="M0 -39804L1176 196908L1176 196908L1176 54837L1176 54837L0 -181874" stroke="none" fill="url(#35434)" /><path transform="matrix(1 0 0 -1 0 1552)" d="M0 -39921.93L1176 196789.3L1176 196789.3L1176 1552L1176 1552L0 1552" stroke="none" fill="#560099" fill-rule="evenodd" fill-opacity="0.04705882" /><path transform="matrix(1 0 0 -1 0 1552)" d="M0 -181755.7L1176 54955.53L1176 54955.53L1176 0L1176 0L0 0" stroke="none" fill="#FF0A35" fill-rule="evenodd" fill-opacity="0.04705882" /></g></g><g clip-path="url(#74)"><g><path transform="matrix(1 0 0 -1 0 1552)" d="M0 -37518L1176 199193L1176 199193L1176 57122L1176 57122L0 -179589" stroke="none" fill="url(#35928)" /><path transform="matrix(1 0 0 -1 0 1552)" d="M0 -37636.62L1176 199074.6L1176 199074.6L1176 1552L1176 1552L0 1552" stroke="none" fill="#560099" fill-rule="evenodd" fill-opacity="0.04705882" /><path transform="matrix(1 0 0 -1 0 1552)" d="M0 -179470.4L1176 57240.82L1176 57240.82L1176 0L1176 0L0 0" stroke="none" fill="#FF0A35" fill-rule="evenodd" fill-opacity="0.04705882" /></g></g><g clip-path="url(#75)"><g><path transform="matrix(1 0 0 -1 0 1552)" d="M0 -35233L1176 201478L1176 201478L1176 59408L1176 59408L0 -177304" stroke="none" fill="url(#36424)" /><path transform="matrix(1 0 0 -1 0 1552)" d="M0 -35351.51L1176 201359.7L1176 201359.7L1176 1552L1176 1552L0 1552" stroke="none" fill="#560099" fill-rule="evenodd" fill-opacity="0.04705882" /><path transform="matrix(1 0 0 -1 0 1552)" d="M0 -177185.3L1176 59525.94L1176 59525.94L1176 0L1176 0L0 0" stroke="none" fill="#FF0A35" fill-rule="evenodd" fill-opacity="0.04705882" /></g></g><g clip-path="url(#76)"><g><path transform="matrix(1 0 0 -1 0 1552)" d="M0 -32948L1176 203763L1176 203763L1176 61693L1176 61693L0 -175018" stroke="none" fill="url(#36919)" /><path transform="matrix(1 0 0 -1 0 1552)" d="M0 -33066.21L1176 203645L1176 203645L1176 1552L1176 1552L0 1552" stroke="none" fill="#560099" fill-rule="evenodd" fill-opacity="0.04705882" /><path transform="matrix(1 0 0 -1 0 1552)" d="M0 -174900L1176 61811.24L1176 61811.24L1176 0L1176 0L0 0" stroke="none" fill="#FF0A35" fill-rule="evenodd" fill-opacity="0.04705882" /></g></g><g clip-path="url(#77)"><g><path transform="matrix(1 0 0 -1 0 1552)" d="M0 -30663L1176 206048L1176 206048L1176 63978L1176 63978L0 -172733" stroke="none" fill="url(#37411)" /><path transform="matrix(1 0 0 -1 0 1552)" d="M0 -30781.1L1176 205930.1L1176 205930.1L1176 1552L1176 1552L0 1552" stroke="none" fill="#560099" fill-rule="evenodd" fill-opacity="0.04705882" /><path transform="matrix(1 0 0 -1 0 1552)" d="M0 -172614.9L1176 64096.36L1176 64096.36L1176 0L1176 0L0 0" stroke="none" fill="#FF0A35" fill-rule="evenodd" fill-opacity="0.04705882" /></g></g><g clip-path="url(#78)"><g><path transform="matrix(1 0 0 -1 0 1552)" d="M0 -28377L1176 208334L1176 208334L1176 66263L1176 66263L0 -170448" stroke="none" fill="url(#37906)" /><path transform="matrix(1 0 0 -1 0 1552)" d="M0 -28495.8L1176 208215.4L1176 208215.4L1176 1552L1176 1552L0 1552" stroke="none" fill="#560099" fill-rule="evenodd" fill-opacity="0.04705882" /><path transform="matrix(1 0 0 -1 0 1552)" d="M0 -170329.6L1176 66381.66L1176 66381.66L1176 0L1176 0L0 0" stroke="none" fill="#FF0A35" fill-rule="evenodd" fill-opacity="0.04705882" /></g></g><g clip-path="url(#79)"><g><path transform="matrix(1 0 0 -1 0 1552)" d="M0 -26091L1176 210612L1176 210612L1176 68546L1176 68546L0 -168157" stroke="none" fill="url(#38403)" /><path transform="matrix(1 0 0 -1 0 1552)" d="M0 -26209.56L1176 210493.7L1176 210493.7L1176 1552L1176 1552L0 1552" stroke="none" fill="#560099" fill-rule="evenodd" fill-opacity="0.04705882" /><path transform="matrix(1 0 0 -1 0 1552)" d="M0 -168038.8L1176 68664.52L1176 68664.52L1176 0L1176 0L0 0" stroke="none" fill="#FF0A35" fill-rule="evenodd" fill-opacity="0.04705882" /></g></g><g clip-path="url(#80)"><g><path transform="matrix(1 0 0 -1 0 1552)" d="M0 -23807L1176 212904L1176 212904L1176 70834L1176 70834L0 -165877" stroke="none" fill="url(#38895)" /><path transform="matrix(1 0 0 -1 0 1552)" d="M0 -23925.38L1176 212785.8L1176 212785.8L1176 1552L1176 1552L0 1552" stroke="none" fill="#560099" fill-rule="evenodd" fill-opacity="0.04705882" /><path transform="matrix(1 0 0 -1 0 1552)" d="M0 -165759.1L1176 70952.08L1176 70952.08L1176 0L1176 0L0 0" stroke="none" fill="#FF0A35" fill-rule="evenodd" fill-opacity="0.04705882" /></g></g><g clip-path="url(#81)"><g><path transform="matrix(1 0 0 -1 0 1552)" d="M0 -21521L1176 215182L1176 215182L1176 73116L1176 73116L0 -163587" stroke="none" fill="url(#39388)" /><path transform="matrix(1 0 0 -1 0 1552)" d="M0 -21639.31L1176 215064L1176 215064L1176 1552L1176 1552L0 1552" stroke="none" fill="#560099" fill-rule="evenodd" fill-opacity="0.04705882" /><path transform="matrix(1 0 0 -1 0 1552)" d="M0 -163468.5L1176 73234.78L1176 73234.78L1176 0L1176 0L0 0" stroke="none" fill="#FF0A35" fill-rule="evenodd" fill-opacity="0.04705882" /></g></g><g clip-path="url(#82)"><g><path transform="matrix(1 0 0 -1 0 1552)" d="M0 -19237L1176 217475L1176 217475L1176 75404L1176 75404L0 -161307" stroke="none" fill="url(#39882)" /><path transform="matrix(1 0 0 -1 0 1552)" d="M0 -19354.97L1176 217356.2L1176 217356.2L1176 1552L1176 1552L0 1552" stroke="none" fill="#560099" fill-rule="evenodd" fill-opacity="0.04705882" /><path transform="matrix(1 0 0 -1 0 1552)" d="M0 -161188.7L1176 75522.48L1176 75522.48L1176 0L1176 0L0 0" stroke="none" fill="#FF0A35" fill-rule="evenodd" fill-opacity="0.04705882" /></g></g><g clip-path="url(#83)"><g><path transform="matrix(1 0 0 -1 0 1552)" d="M0 -16951L1176 219760L1176 219760L1176 77689L1176 77689L0 -159022" stroke="none" fill="url(#40373)" /><path transform="matrix(1 0 0 -1 0 1552)" d="M0 -17069.67L1176 219641.5L1176 219641.5L1176 1552L1176 1552L0 1552" stroke="none" fill="#560099" fill-rule="evenodd" fill-opacity="0.04705882" /><path transform="matrix(1 0 0 -1 0 1552)" d="M0 -158903.4L1176 77807.79L1176 77807.79L1176 0L1176 0L0 0" stroke="none" fill="#FF0A35" fill-rule="evenodd" fill-opacity="0.04705882" /></g></g><g clip-path="url(#84)"><g><path transform="matrix(1 0 0 -1 0 1552)" d="M0 -14666L1176 222045L1176 222045L1176 79975L1176 79975L0 -156737" stroke="none" fill="url(#40858)" /><path transform="matrix(1 0 0 -1 0 1552)" d="M0 -14784.55L1176 221926.6L1176 221926.6L1176 1552L1176 1552L0 1552" stroke="none" fill="#560099" fill-rule="evenodd" fill-opacity="0.04705882" /><path transform="matrix(1 0 0 -1 0 1552)" d="M0 -156618.3L1176 80092.91L1176 80092.91L1176 0L1176 0L0 0" stroke="none" fill="#FF0A35" fill-rule="evenodd" fill-opacity="0.04705882" /></g></g><g clip-path="url(#85)"><g><path transform="matrix(1 0 0 -1 0 1552)" d="M0 -12381L1176 224330L1176 224330L1176 82260L1176 82260L0 -154451" stroke="none" fill="url(#41343)" /><path transform="matrix(1 0 0 -1 0 1552)" d="M0 -12499.25L1176 224211.9L1176 224211.9L1176 1552L1176 1552L0 1552" stroke="none" fill="#560099" fill-rule="evenodd" fill-opacity="0.04705882" /><path transform="matrix(1 0 0 -1 0 1552)" d="M0 -154333L1176 82378.2L1176 82378.2L1176 0L1176 0L0 0" stroke="none" fill="#FF0A35" fill-rule="evenodd" fill-opacity="0.04705882" /></g></g></g></g></g><g clip-path="url(#86)"><g transform="matrix(0.8540693 0 0 -0.8540692 160.1346 840.2756)"><g transform="matrix(1 0 0 -1 0 521)"><image x="0" y="0" xlink:href="img_21.png" width="1027" height="521" /></g></g></g><g clip-path="url(#87)"><g transform="matrix(0.1886316 0 0 -0.1886315 483.9861 1428.653)"><g transform="matrix(1 0 0 -1 0 2268)"><image x="0" y="0" xlink:href="img_22.png" width="4032" height="2268" /></g></g></g><g clip-path="url(#88)"><g><path transform="matrix(1 0 0 -1 0 1552)" d="M0 522L1176 -654L1176 -654L1176 -640L1176 -640L0 536" stroke="none" fill="url(#42614)" /><path transform="matrix(1 0 0 -1 0 1552)" d="M0 522.6406L1176 -653.3594L1176 -653.3594L1176 0L1176 0L0 0" stroke="none" fill="#4C216D" fill-rule="evenodd" /><path transform="matrix(1 0 0 -1 0 1552)" d="M0 534.7472L1176 -641.2528L1176 -641.2528L1176 1552L1176 1552L0 1552" stroke="none" fill="#B83F54" fill-rule="evenodd" /></g></g><g clip-path="url(#89)"><g><path transform="matrix(1 0 0 -1 0 1552)" d="M0 460L1176 -716L1176 -716L1176 -702L1176 -702L0 474" stroke="none" fill="url(#43499)" /><path transform="matrix(1 0 0 -1 0 1552)" d="M0 460.8685L1176 -715.1315L1176 -715.1315L1176 0L1176 0L0 0" stroke="none" fill="#4C216D" fill-rule="evenodd" /><path transform="matrix(1 0 0 -1 0 1552)" d="M0 472.9752L1176 -703.0248L1176 -703.0248L1176 1552L1176 1552L0 1552" stroke="none" fill="#B83F54" fill-rule="evenodd" /></g></g></g></g></g><defs><clipPath id="1"><path d="M0 1552L0 -0.3900146L0 -0.3900146L1176.34 -0.3900146L1176.34 -0.3900146L1176.34 1552L1176.34 1552L0 1552z" /></clipPath><clipPath id="2"><path d="M0 -0.3869629L1176.341 -0.3869629L1176.341 -0.3869629L1176.341 1552L1176.341 1552L0 1552z" /></clipPath><clipPath id="3"><path d="M-214.664 1928.807L-1272.464 1928.807L-1272.464 1928.807L-1272.464 1854.129L-1272.464 1854.129L-214.664 1854.129z" /></clipPath><clipPath id="4"><path d="M-214.664 2642.698L-1272.464 2642.698L-1272.464 2642.698L-1272.464 1252.817L-1272.464 1252.817L-214.664 1252.817z" /></clipPath><clipPath id="5"><path d="M54.116 1794.021L-342.809 2939.02L-342.809 2939.02L-1425.531 2621.361L-1425.531 2621.361L-1750.949 1541.613L-1750.949 1541.613L-663.602 669.657L-663.602 669.657L-51.885 1483.125z" /></clipPath><clipPath id="6"><path d="M-1755.69 1537.961L229.678 1537.961L229.678 1537.961L229.678 2692.85L229.678 2692.85L-1755.69 2692.85z" /></clipPath><clipPath id="7"><path d="M-1270.629 2692.849L155.191 2689.796L155.191 2689.796L229.678 1537.961L229.678 1537.961L-1755.695 1542.23z" /></clipPath><linearGradient transform="matrix(1 0 0 1 0 0)" id="1678" x1="-1472.123" y1="251.6146" x2="-1472.123251.6146" y2="-1472.1231486.015"><stop stop-color="#4C216D" offset="0%" /><stop stop-color="#B83F54" offset="100%" /></linearGradient><clipPath id="8"><path d="M-1531.89 1030.828L160.678 1030.828L160.678 1030.828L160.678 2236.234L160.678 2236.234L-1531.89 2236.234z" /></clipPath><clipPath id="9"><path d="M-763.003 1915.55L-763.743 1914.766L-763.743 1914.766L-1376.085 1307.621L-1376.085 1307.621L-1374.576 1306.09L-1374.576 1306.09L-762.974 1912.459L-762.974 1912.459L6.472 1127.917L6.472 1127.917L7.952 1129.476z" /></clipPath><linearGradient transform="matrix(1 0 0 1 0 0)" id="2579" x1="-1275.901" y1="695.4843" x2="-1275.901695.4843" y2="-1275.901957.4756"><stop stop-color="#FFD800" offset="0%" /><stop stop-color="#FF387D" offset="100%" /></linearGradient><clipPath id="10"><path d="M-763.311 1947.608L-764.05 1946.833L-764.05 1946.833L-1391.665 1323.506L-1391.665 1323.506L-1390.155 1321.976L-1390.155 1321.976L-763.282 1944.517L-763.282 1944.517L21.744 1144.099L21.744 1144.099L23.224 1145.658z" /></clipPath><linearGradient transform="matrix(1 0 0 1 0 0)" id="3223" x1="-1267.528" y1="686.9502" x2="-1267.528686.9502" y2="-1267.528956.9063"><stop stop-color="#FFD800" offset="0%" /><stop stop-color="#FF387D" offset="100%" /></linearGradient><clipPath id="11"><path d="M-763.62 1979.684L-764.359 1978.908L-764.359 1978.908L-1407.245 1339.401L-1407.245 1339.401L-1405.735 1337.869L-1405.735 1337.869L-763.589 1976.593L-763.589 1976.593L37.016 1160.288L37.016 1160.288L38.496 1161.848z" /></clipPath><linearGradient transform="matrix(1 0 0 1 0 0)" id="3868" x1="-1259.171" y1="678.4055" x2="-1259.171678.4055" y2="-1259.171956.3563"><stop stop-color="#FFD800" offset="0%" /><stop stop-color="#FF387D" offset="100%" /></linearGradient><clipPath id="12"><path d="M-763.927 2011.758L-764.667 2010.983L-764.667 2010.983L-1422.825 1355.285L-1422.825 1355.285L-1421.315 1353.754L-1421.315 1353.754L-763.898 2008.668L-763.898 2008.668L52.288 1176.47L52.288 1176.47L53.768 1178.03z" /></clipPath><linearGradient transform="matrix(1 0 0 1 0 0)" id="4511" x1="-1250.838" y1="669.8701" x2="-1250.838669.8701" y2="-1250.838955.8331"><stop stop-color="#FFD800" offset="0%" /><stop stop-color="#FF387D" offset="100%" /></linearGradient><clipPath id="13"><path d="M-764.235 2043.817L-764.975 2043.033L-764.975 2043.033L-1438.404 1371.171L-1438.404 1371.171L-1436.895 1369.64L-1436.895 1369.64L-764.206 2040.726L-764.206 2040.726L67.559 1192.652L67.559 1192.652L69.04 1194.211z" /></clipPath><linearGradient transform="matrix(1 0 0 1 0 0)" id="5154" x1="-1242.535" y1="661.3307" x2="-1242.535661.3307" y2="-1242.535955.3279"><stop stop-color="#FFD800" offset="0%" /><stop stop-color="#FF387D" offset="100%" /></linearGradient><clipPath id="14"><path d="M-764.544 2075.893L-765.275 2075.108L-765.275 2075.108L-1453.984 1387.056L-1453.984 1387.056L-1452.474 1385.525L-1452.474 1385.525L-764.513 2072.802L-764.513 2072.802L82.831 1208.833L82.831 1208.833L84.311 1210.392z" /></clipPath><linearGradient transform="matrix(1 0 0 1 0 0)" id="5800" x1="-1234.244" y1="652.7943" x2="-1234.244652.7943" y2="-1234.244954.8461"><stop stop-color="#FFD800" offset="0%" /><stop stop-color="#FF387D" offset="100%" /></linearGradient><clipPath id="15"><path d="M-764.851 2107.967L-765.584 2107.184L-765.584 2107.184L-1469.572 1402.941L-1469.572 1402.941L-1468.062 1401.41L-1468.062 1401.41L-764.822 2104.877L-764.822 2104.877L98.111 1225.015L98.111 1225.015L99.591 1226.574z" /></clipPath><linearGradient transform="matrix(1 0 0 1 0 0)" id="6444" x1="-1225.968" y1="644.254" x2="-1225.968644.254" y2="-1225.968954.3707"><stop stop-color="#FFD800" offset="0%" /><stop stop-color="#FF387D" offset="100%" /></linearGradient><clipPath id="16"><path d="M-765.16 2140.026L-765.899 2139.25L-765.899 2139.25L-1485.151 1418.826L-1485.151 1418.826L-1483.642 1417.295L-1483.642 1417.295L-765.129 2136.935L-765.129 2136.935L113.383 1241.197L113.383 1241.197L114.863 1242.755z" /></clipPath><linearGradient transform="matrix(1 0 0 1 0 0)" id="7088" x1="-1217.717" y1="635.7175" x2="-1217.717635.7175" y2="-1217.717953.9189"><stop stop-color="#FFD800" offset="0%" /><stop stop-color="#FF387D" offset="100%" /></linearGradient><clipPath id="17"><path d="M-765.467 2172.093L-766.207 2171.317L-766.207 2171.317L-1500.731 1434.711L-1500.731 1434.711L-1499.222 1433.181L-1499.222 1433.181L-765.437 2169.002L-765.437 2169.002L128.654 1257.377L128.654 1257.377L130.134 1258.937z" /></clipPath><linearGradient transform="matrix(1 0 0 1 0 0)" id="7737" x1="-1209.484" y1="627.1786" x2="-1209.484627.1786" y2="-1209.484953.4873"><stop stop-color="#FFD800" offset="0%" /><stop stop-color="#FF387D" offset="100%" /></linearGradient><clipPath id="18"><path d="M-765.775 2204.167L-766.515 2203.392L-766.515 2203.392L-1516.311 1450.606L-1516.311 1450.606L-1514.801 1449.074L-1514.801 1449.074L-765.746 2201.077L-765.746 2201.077L143.925 1273.568L143.925 1273.568L145.407 1275.127z" /></clipPath><linearGradient transform="matrix(1 0 0 1 0 0)" id="8386" x1="-1201.261" y1="618.637" x2="-1201.261618.637" y2="-1201.261953.0705"><stop stop-color="#FFD800" offset="0%" /><stop stop-color="#FF387D" offset="100%" /></linearGradient><clipPath id="19"><path d="M-766.084 2236.235L-766.823 2235.45L-766.823 2235.45L-1531.891 1466.49L-1531.891 1466.49L-1530.389 1464.959L-1530.389 1464.959L-766.053 2233.144L-766.053 2233.144L159.206 1289.749L159.206 1289.749L160.678 1291.308z" /></clipPath><linearGradient transform="matrix(1 0 0 1 0 0)" id="9029" x1="-1193.062" y1="610.1037" x2="-1193.062610.1037" y2="-1193.062952.674"><stop stop-color="#FFD800" offset="0%" /><stop stop-color="#FF387D" offset="100%" /></linearGradient><clipPath id="20"><path d="M143.778 377.28L1053.95 377.28L1053.95 377.28L1053.95 857.276L1053.95 857.276L143.778 857.276z" /></clipPath><clipPath id="21"><path d="M509.664 986.981L1054.89 986.981L1054.89 986.981L1054.89 1444.676L1054.89 1444.676L509.664 1444.676z" /></clipPath><clipPath id="22"><path d="M0 234.775L1055.401 234.775L1055.401 234.775L1055.401 115.582L1055.401 115.582L0 115.582z" /></clipPath><clipPath id="23"><path d="M-485.631 -200.59L1499.74 -200.59L1499.74 -200.59L1499.74 954.301L1499.74 954.301L-485.631 954.301z" /></clipPath><clipPath id="24"><path d="M-0.566 954.301L1425.255 951.248L1425.255 951.248L1499.743 -200.587L1499.743 -200.587L-485.63 -196.318z" /></clipPath><linearGradient transform="matrix(1 0 0 1 0 0)" id="10372" x1="-202.059" y1="1990.162" x2="-202.0591990.162" y2="-202.0591486.015"><stop stop-color="#4C216D" offset="0%" /><stop stop-color="#B83F54" offset="100%" /></linearGradient><clipPath id="25"><path d="M-261.827 -707.72L1430.74 -707.72L1430.74 -707.72L1430.74 497.6899L1430.74 497.6899L-261.827 497.6899z" /></clipPath><clipPath id="26"><path d="M508.601 16.65198L507.862 15.87598L507.862 15.87598L-28.115 -510.353L-28.115 -510.353L-26.604 -511.884L-26.604 -511.884L508.63 13.56104L508.63 13.56104L1200.169 -691.5391L1200.169 -691.5391L1201.649 -689.979z" /></clipPath><linearGradient transform="matrix(1 0 0 1 0 0)" id="11197" x1="-48.09674" y1="2476.705" x2="-48.096742476.705" y2="-48.09674960.6844"><stop stop-color="#FFD800" offset="0%" /><stop stop-color="#FF387D" offset="100%" /></linearGradient><clipPath id="27"><path d="M508.292 48.72705L507.553 47.95105L507.553 47.95105L-43.694 -494.468L-43.694 -494.468L-42.184 -495.998L-42.184 -495.998L508.323 45.63599L508.323 45.63599L1215.442 -675.3569L1215.442 -675.3569L1216.921 -673.7981z" /></clipPath><linearGradient transform="matrix(1 0 0 1 0 0)" id="11804" x1="-39.58331" y1="2468.17" x2="-39.583312468.17" y2="-39.58331959.9851"><stop stop-color="#FFD800" offset="0%" /><stop stop-color="#FF387D" offset="100%" /></linearGradient><clipPath id="28"><path d="M507.985 80.79297L507.246 80.01794L507.246 80.01794L-59.273 -478.582L-59.273 -478.582L-57.764 -480.1121L-57.764 -480.1121L508.014 77.703L508.014 77.703L1230.713 -659.176L1230.713 -659.176L1232.193 -657.616z" /></clipPath><linearGradient transform="matrix(1 0 0 1 0 0)" id="12404" x1="-31.10059" y1="2459.636" x2="-31.100592459.636" y2="-31.10059959.3137"><stop stop-color="#FFD800" offset="0%" /><stop stop-color="#FF387D" offset="100%" /></linearGradient><clipPath id="29"><path d="M507.677 112.86L506.938 112.076L506.938 112.076L-74.853 -462.697L-74.853 -462.697L-73.343 -464.228L-73.343 -464.228L507.706 109.77L507.706 109.77L1245.985 -642.9939L1245.985 -642.9939L1247.465 -641.4341z" /></clipPath><linearGradient transform="matrix(1 0 0 1 0 0)" id="13003" x1="-22.65503" y1="2451.102" x2="-22.655032451.102" y2="-22.65503958.6768"><stop stop-color="#FFD800" offset="0%" /><stop stop-color="#FF387D" offset="100%" /></linearGradient><clipPath id="30"><path d="M507.369 144.936L506.629 144.152L506.629 144.152L-90.442 -446.802L-90.442 -446.802L-88.931 -448.334L-88.931 -448.334L507.399 141.845L507.399 141.845L1261.264 -626.803L1261.264 -626.803L1262.745 -625.2451z" /></clipPath><linearGradient transform="matrix(1 0 0 1 0 0)" id="13603" x1="-14.23206" y1="2442.564" x2="-14.232062442.564" y2="-14.23206958.0642"><stop stop-color="#FFD800" offset="0%" /><stop stop-color="#FF387D" offset="100%" /></linearGradient><clipPath id="31"><path d="M507.061 177.002L506.322 176.218L506.322 176.218L-106.021 -430.927L-106.021 -430.927L-104.511 -432.458L-104.511 -432.458L507.09 173.911L507.09 173.911L1276.537 -610.6311L1276.537 -610.6311L1278.016 -609.072z" /></clipPath><linearGradient transform="matrix(1 0 0 1 0 0)" id="14206" x1="-5.836426" y1="2434.032" x2="-5.8364262434.032" y2="-5.836426957.4756"><stop stop-color="#FFD800" offset="0%" /><stop stop-color="#FF387D" offset="100%" /></linearGradient><clipPath id="32"><path d="M506.753 209.0601L506.013 208.285L506.013 208.285L-121.6 -415.042L-121.6 -415.042L-120.091 -416.572L-120.091 -416.572L506.783 205.97L506.783 205.97L1291.808 -594.449L1291.808 -594.449L1293.289 -592.8899z" /></clipPath><linearGradient transform="matrix(1 0 0 1 0 0)" id="14805" x1="2.536682" y1="2425.498" x2="2.5366822425.498" y2="2.536682956.9064"><stop stop-color="#FFD800" offset="0%" /><stop stop-color="#FF387D" offset="100%" /></linearGradient><clipPath id="33"><path d="M506.445 241.136L505.706 240.36L505.706 240.36L-137.18 -399.147L-137.18 -399.147L-135.67 -400.677L-135.67 -400.677L506.475 238.045L506.475 238.045L1307.081 -578.26L1307.081 -578.26L1308.56 -576.7z" /></clipPath><linearGradient transform="matrix(1 0 0 1 0 0)" id="15394" x1="10.89319" y1="2416.953" x2="10.893192416.953" y2="10.89319956.3563"><stop stop-color="#FFD800" offset="0%" /><stop stop-color="#FF387D" offset="100%" /></linearGradient><clipPath id="34"><path d="M506.137 273.21L505.397 272.4351L505.397 272.4351L-152.76 -383.262L-152.76 -383.262L-151.251 -384.7939L-151.251 -384.7939L506.166 270.12L506.166 270.12L1322.352 -562.0779L1322.352 -562.0779L1323.832 -560.5181z" /></clipPath><linearGradient transform="matrix(1 0 0 1 0 0)" id="15996" x1="19.2262" y1="2408.418" x2="19.22622408.418" y2="19.2262955.8331"><stop stop-color="#FFD800" offset="0%" /><stop stop-color="#FF387D" offset="100%" /></linearGradient><clipPath id="35"><path d="M505.829 305.269L505.089 304.486L505.089 304.486L-168.34 -367.377L-168.34 -367.377L-166.831 -368.908L-166.831 -368.908L505.859 302.179L505.859 302.179L1337.624 -545.896L1337.624 -545.896L1339.104 -544.3369z" /></clipPath><linearGradient transform="matrix(1 0 0 1 0 0)" id="16592" x1="27.52917" y1="2399.878" x2="27.529172399.878" y2="27.52917955.328"><stop stop-color="#FFD800" offset="0%" /><stop stop-color="#FF387D" offset="100%" /></linearGradient><clipPath id="36"><path d="M505.521 337.345L504.789 336.561L504.789 336.561L-183.919 -351.491L-183.919 -351.491L-182.411 -353.0229L-182.411 -353.0229L505.55 334.254L505.55 334.254L1352.895 -529.7151L1352.895 -529.7151L1354.375 -528.156z" /></clipPath><linearGradient transform="matrix(1 0 0 1 0 0)" id="17193" x1="35.82007" y1="2391.342" x2="35.820072391.342" y2="35.82007954.8461"><stop stop-color="#FFD800" offset="0%" /><stop stop-color="#FF387D" offset="100%" /></linearGradient><clipPath id="37"><path d="M505.213 369.4189L504.481 368.636L504.481 368.636L-199.507 -335.6071L-199.507 -335.6071L-197.998 -337.137L-197.998 -337.137L505.243 366.329L505.243 366.329L1368.175 -513.533L1368.175 -513.533L1369.655 -511.9729z" /></clipPath><linearGradient transform="matrix(1 0 0 1 0 0)" id="17797" x1="44.09619" y1="2382.802" x2="44.096192382.802" y2="44.09619954.3707"><stop stop-color="#FFD800" offset="0%" /><stop stop-color="#FF387D" offset="100%" /></linearGradient><clipPath id="38"><path d="M504.905 401.478L504.165 400.702L504.165 400.702L-215.087 -319.7209L-215.087 -319.7209L-213.578 -321.252L-213.578 -321.252L504.935 398.387L504.935 398.387L1383.447 -497.3511L1383.447 -497.3511L1384.927 -495.792z" /></clipPath><linearGradient transform="matrix(1 0 0 1 0 0)" id="18401" x1="52.34747" y1="2374.265" x2="52.347472374.265" y2="52.34747953.9189"><stop stop-color="#FFD800" offset="0%" /><stop stop-color="#FF387D" offset="100%" /></linearGradient><clipPath id="39"><path d="M504.597 433.545L503.858 432.769L503.858 432.769L-230.667 -303.837L-230.667 -303.837L-229.158 -305.3669L-229.158 -305.3669L504.626 430.454L504.626 430.454L1398.718 -481.171L1398.718 -481.171L1400.199 -479.61z" /></clipPath><linearGradient transform="matrix(1 0 0 1 0 0)" id="19002" x1="60.58032" y1="2365.726" x2="60.580322365.726" y2="60.58032953.4873"><stop stop-color="#FFD800" offset="0%" /><stop stop-color="#FF387D" offset="100%" /></linearGradient><clipPath id="40"><path d="M504.289 465.619L503.549 464.844L503.549 464.844L-246.247 -287.942L-246.247 -287.942L-244.738 -289.473L-244.738 -289.473L504.319 462.53L504.319 462.53L1413.99 -464.98L1413.99 -464.98L1415.47 -463.42z" /></clipPath><linearGradient transform="matrix(1 0 0 1 0 0)" id="19594" x1="68.80304" y1="2357.185" x2="68.803042357.185" y2="68.80304953.0706"><stop stop-color="#FFD800" offset="0%" /><stop stop-color="#FF387D" offset="100%" /></linearGradient><clipPath id="41"><path d="M503.981 497.687L503.242 496.903L503.242 496.903L-261.827 -272.056L-261.827 -272.056L-260.325 -273.589L-260.325 -273.589L504.011 494.5959L504.011 494.5959L1429.27 -448.799L1429.27 -448.799L1430.743 -447.239z" /></clipPath><linearGradient transform="matrix(1 0 0 1 0 0)" id="20194" x1="77.00189" y1="2348.651" x2="77.001892348.651" y2="77.00189952.6741"><stop stop-color="#FFD800" offset="0%" /><stop stop-color="#FF387D" offset="100%" /></linearGradient><clipPath id="42"><path d="M0 -0.3869629L1176.341 -0.3869629L1176.341 -0.3869629L1176.341 1552L1176.341 1552L0 1552z" /></clipPath><clipPath id="43"><path d="M1019.15 1459.436L1176.34 1459.436L1176.34 1459.436L1176.34 1501.436L1176.34 1501.436L1019.15 1501.436z" /></clipPath><clipPath id="44"><path d="M1176.34 1501.436L1019.15 1501.436L1019.15 1501.436L1019.15 1459.436L1019.15 1459.436L1176.34 1459.436z" /></clipPath><linearGradient transform="matrix(1 0 0 1 0 0)" id="21102" x1="1019.149" y1="150.1597" x2="1019.149150.1597" y2="1019.149157.1904"><stop stop-color="#4C216D" offset="0%" /><stop stop-color="#B83F54" offset="100%" /></linearGradient><clipPath id="45"><path d="M823.455 1470.587L1002.88 1470.587L1002.88 1470.587L1002.88 1492.981L1002.88 1492.981L823.455 1492.981z" /></clipPath><clipPath id="46"><path d="M752.501 1496.313L802.1429 1496.313L802.1429 1496.313L802.1429 1466.534L802.1429 1466.534L752.501 1466.534z" /></clipPath><clipPath id="47"><path d="M0 962.846L1055.401 962.846L1055.401 962.846L1055.401 888.169L1055.401 888.169L0 888.169z" /></clipPath><clipPath id="48"><path d="M-485.631 572.001L1499.74 572.001L1499.74 572.001L1499.74 1726.889L1499.74 1726.889L-485.631 1726.889z" /></clipPath><clipPath id="49"><path d="M-0.566 1726.889L1425.255 1723.836L1425.255 1723.836L1499.743 572.001L1499.743 572.001L-485.63 576.27z" /></clipPath><linearGradient transform="matrix(1 0 0 1 0 0)" id="22438" x1="-202.059" y1="1217.575" x2="-202.0591217.575" y2="-202.0591486.015"><stop stop-color="#4C216D" offset="0%" /><stop stop-color="#B83F54" offset="100%" /></linearGradient><clipPath id="50"><path d="M-261.827 64.87L1430.74 64.87L1430.74 64.87L1430.74 1270.275L1430.74 1270.275L-261.827 1270.275z" /></clipPath><clipPath id="51"><path d="M508.909 757.181L508.169 756.397L508.169 756.397L-12.535 246.351L-12.535 246.351L-11.024 244.819L-11.024 244.819L508.939 754.09L508.939 754.09L1184.898 64.86694L1184.898 64.86694L1186.377 66.427z" /></clipPath><linearGradient transform="matrix(1 0 0 1 0 0)" id="23244" x1="-56.63861" y1="1712.648" x2="-56.638611712.648" y2="-56.63861961.4152"><stop stop-color="#FFD800" offset="0%" /><stop stop-color="#FF387D" offset="100%" /></linearGradient><clipPath id="52"><path d="M508.601 789.24L507.862 788.464L507.862 788.464L-28.115 262.235L-28.115 262.235L-26.604 260.704L-26.604 260.704L508.63 786.148L508.63 786.148L1200.169 81.04895L1200.169 81.04895L1201.649 82.60901z" /></clipPath><linearGradient transform="matrix(1 0 0 1 0 0)" id="23836" x1="-48.09674" y1="1704.118" x2="-48.096741704.118" y2="-48.09674960.6844"><stop stop-color="#FFD800" offset="0%" /><stop stop-color="#FF387D" offset="100%" /></linearGradient><clipPath id="53"><path d="M508.292 821.315L507.553 820.538L507.553 820.538L-43.694 278.12L-43.694 278.12L-42.184 276.59L-42.184 276.59L508.323 818.224L508.323 818.224L1215.442 97.23096L1215.442 97.23096L1216.921 98.79004z" /></clipPath><linearGradient transform="matrix(1 0 0 1 0 0)" id="24427" x1="-39.58331" y1="1695.582" x2="-39.583311695.582" y2="-39.58331959.985"><stop stop-color="#FFD800" offset="0%" /><stop stop-color="#FF387D" offset="100%" /></linearGradient><clipPath id="54"><path d="M507.985 853.381L507.246 852.606L507.246 852.606L-59.273 294.005L-59.273 294.005L-57.764 292.475L-57.764 292.475L508.014 850.291L508.014 850.291L1230.713 113.411L1230.713 113.411L1232.193 114.972z" /></clipPath><linearGradient transform="matrix(1 0 0 1 0 0)" id="25018" x1="-31.10059" y1="1687.049" x2="-31.100591687.049" y2="-31.10059959.3137"><stop stop-color="#FFD800" offset="0%" /><stop stop-color="#FF387D" offset="100%" /></linearGradient><clipPath id="55"><path d="M507.677 885.448L506.938 884.664L506.938 884.664L-74.853 309.891L-74.853 309.891L-73.343 308.36L-73.343 308.36L507.706 882.357L507.706 882.357L1245.985 129.593L1245.985 129.593L1247.465 131.1541z" /></clipPath><linearGradient transform="matrix(1 0 0 1 0 0)" id="25609" x1="-22.65503" y1="1678.514" x2="-22.655031678.514" y2="-22.65503958.6768"><stop stop-color="#FFD800" offset="0%" /><stop stop-color="#FF387D" offset="100%" /></linearGradient><clipPath id="56"><path d="M507.369 917.524L506.629 916.739L506.629 916.739L-90.442 325.785L-90.442 325.785L-88.931 324.254L-88.931 324.254L507.399 914.433L507.399 914.433L1261.264 145.783L1261.264 145.783L1262.745 147.343z" /></clipPath><linearGradient transform="matrix(1 0 0 1 0 0)" id="26201" x1="-14.23206" y1="1669.976" x2="-14.232061669.976" y2="-14.23206958.0641"><stop stop-color="#FFD800" offset="0%" /><stop stop-color="#FF387D" offset="100%" /></linearGradient><clipPath id="57"><path d="M507.061 949.59L506.322 948.806L506.322 948.806L-106.021 341.661L-106.021 341.661L-104.511 340.13L-104.511 340.13L507.09 946.499L507.09 946.499L1276.537 161.957L1276.537 161.957L1278.016 163.516z" /></clipPath><linearGradient transform="matrix(1 0 0 1 0 0)" id="26792" x1="-5.836426" y1="1661.444" x2="-5.8364261661.444" y2="-5.836426957.4756"><stop stop-color="#FFD800" offset="0%" /><stop stop-color="#FF387D" offset="100%" /></linearGradient><clipPath id="58"><path d="M506.753 981.648L506.013 980.873L506.013 980.873L-121.6 357.546L-121.6 357.546L-120.091 356.016L-120.091 356.016L506.783 978.557L506.783 978.557L1291.808 178.139L1291.808 178.139L1293.289 179.698z" /></clipPath><linearGradient transform="matrix(1 0 0 1 0 0)" id="27384" x1="2.536682" y1="1652.91" x2="2.5366821652.91" y2="2.536682956.9063"><stop stop-color="#FFD800" offset="0%" /><stop stop-color="#FF387D" offset="100%" /></linearGradient><clipPath id="59"><path d="M506.445 1013.724L505.706 1012.948L505.706 1012.948L-137.18 373.441L-137.18 373.441L-135.67 371.9091L-135.67 371.9091L506.475 1010.633L506.475 1010.633L1307.081 194.328L1307.081 194.328L1308.56 195.8879z" /></clipPath><linearGradient transform="matrix(1 0 0 1 0 0)" id="27978" x1="10.89319" y1="1644.365" x2="10.893191644.365" y2="10.89319956.3563"><stop stop-color="#FFD800" offset="0%" /><stop stop-color="#FF387D" offset="100%" /></linearGradient><clipPath id="60"><path d="M506.137 1045.798L505.397 1045.023L505.397 1045.023L-152.76 389.325L-152.76 389.325L-151.251 387.7939L-151.251 387.7939L506.166 1042.708L506.166 1042.708L1322.352 210.51L1322.352 210.51L1323.832 212.0699z" /></clipPath><linearGradient transform="matrix(1 0 0 1 0 0)" id="28575" x1="19.2262" y1="1635.83" x2="19.22621635.83" y2="19.2262955.8331"><stop stop-color="#FFD800" offset="0%" /><stop stop-color="#FF387D" offset="100%" /></linearGradient><clipPath id="61"><path d="M505.829 1077.857L505.089 1077.074L505.089 1077.074L-168.34 405.2111L-168.34 405.2111L-166.831 403.6801L-166.831 403.6801L505.859 1074.766L505.859 1074.766L1337.624 226.692L1337.624 226.692L1339.104 228.251z" /></clipPath><linearGradient transform="matrix(1 0 0 1 0 0)" id="29170" x1="27.52917" y1="1627.291" x2="27.529171627.291" y2="27.52917955.3279"><stop stop-color="#FFD800" offset="0%" /><stop stop-color="#FF387D" offset="100%" /></linearGradient><clipPath id="62"><path d="M505.521 1109.932L504.789 1109.148L504.789 1109.148L-183.919 421.0959L-183.919 421.0959L-182.411 419.5649L-182.411 419.5649L505.55 1106.842L505.55 1106.842L1352.895 242.873L1352.895 242.873L1354.375 244.432z" /></clipPath><linearGradient transform="matrix(1 0 0 1 0 0)" id="29770" x1="35.82007" y1="1618.754" x2="35.820071618.754" y2="35.82007954.8461"><stop stop-color="#FFD800" offset="0%" /><stop stop-color="#FF387D" offset="100%" /></linearGradient><clipPath id="63"><path d="M505.213 1142.007L504.481 1141.224L504.481 1141.224L-199.507 436.981L-199.507 436.981L-197.998 435.45L-197.998 435.45L505.243 1138.917L505.243 1138.917L1368.175 259.0551L1368.175 259.0551L1369.655 260.614z" /></clipPath><linearGradient transform="matrix(1 0 0 1 0 0)" id="30368" x1="44.09619" y1="1610.214" x2="44.096191610.214" y2="44.09619954.3707"><stop stop-color="#FFD800" offset="0%" /><stop stop-color="#FF387D" offset="100%" /></linearGradient><clipPath id="64"><path d="M504.905 1174.066L504.165 1173.29L504.165 1173.29L-215.087 452.866L-215.087 452.866L-213.578 451.335L-213.578 451.335L504.935 1170.975L504.935 1170.975L1383.447 275.2371L1383.447 275.2371L1384.927 276.795z" /></clipPath><linearGradient transform="matrix(1 0 0 1 0 0)" id="30966" x1="52.34747" y1="1601.677" x2="52.347471601.677" y2="52.34747953.9189"><stop stop-color="#FFD800" offset="0%" /><stop stop-color="#FF387D" offset="100%" /></linearGradient><clipPath id="65"><path d="M504.597 1206.133L503.858 1205.357L503.858 1205.357L-230.667 468.751L-230.667 468.751L-229.158 467.2209L-229.158 467.2209L504.626 1203.042L504.626 1203.042L1398.718 291.417L1398.718 291.417L1400.199 292.9771z" /></clipPath><linearGradient transform="matrix(1 0 0 1 0 0)" id="31567" x1="60.58032" y1="1593.139" x2="60.580321593.139" y2="60.58032953.4873"><stop stop-color="#FFD800" offset="0%" /><stop stop-color="#FF387D" offset="100%" /></linearGradient><clipPath id="66"><path d="M504.289 1238.207L503.549 1237.432L503.549 1237.432L-246.247 484.646L-246.247 484.646L-244.738 483.115L-244.738 483.115L504.319 1235.117L504.319 1235.117L1413.99 307.608L1413.99 307.608L1415.47 309.167z" /></clipPath><linearGradient transform="matrix(1 0 0 1 0 0)" id="32162" x1="68.80304" y1="1584.597" x2="68.803041584.597" y2="68.80304953.0705"><stop stop-color="#FFD800" offset="0%" /><stop stop-color="#FF387D" offset="100%" /></linearGradient><clipPath id="67"><path d="M503.981 1270.275L503.242 1269.491L503.242 1269.491L-261.827 500.531L-261.827 500.531L-260.325 498.999L-260.325 498.999L504.011 1267.184L504.011 1267.184L1429.27 323.7889L1429.27 323.7889L1430.743 325.348z" /></clipPath><linearGradient transform="matrix(1 0 0 1 0 0)" id="32760" x1="77.00189" y1="1576.064" x2="77.001891576.064" y2="77.00189952.674"><stop stop-color="#FFD800" offset="0%" /><stop stop-color="#FF387D" offset="100%" /></linearGradient><clipPath id="68"><path d="M70.4411 -436.14L955.188 -436.14L955.188 -436.14L955.188 492.2L955.188 492.2L70.4411 492.2z" /></clipPath><clipPath id="69"><path d="M953.529 303.606L253.029 -434.434L253.029 -434.434L254.687 -436.1379L254.687 -436.1379L955.188 301.901z" /></clipPath><linearGradient transform="matrix(1 0 0 1 0 0)" id="33468" x1="251.208" y1="1620.02" x2="251.2081620.02" y2="251.2083.50647"><stop stop-color="#560099" offset="0%" /><stop stop-color="#FF0A35" offset="100%" /></linearGradient><clipPath id="70"><path d="M942.117 315.391L241.618 -422.647L241.618 -422.647L243.276 -424.351L243.276 -424.351L943.777 313.688z" /></clipPath><linearGradient transform="matrix(1 0 0 1 0 0)" id="33956" x1="239.7968" y1="1608.233" x2="239.79681608.233" y2="239.79683.50647"><stop stop-color="#560099" offset="0%" /><stop stop-color="#FF0A35" offset="100%" /></linearGradient><clipPath id="71"><path d="M930.706 327.178L230.206 -410.861L230.206 -410.861L231.864 -412.564L231.864 -412.564L932.365 325.474z" /></clipPath><linearGradient transform="matrix(1 0 0 1 0 0)" id="34449" x1="228.3847" y1="1596.446" x2="228.38471596.446" y2="228.38473.50647"><stop stop-color="#560099" offset="0%" /><stop stop-color="#FF0A35" offset="100%" /></linearGradient><clipPath id="72"><path d="M919.293 338.965L218.793 -399.074L218.793 -399.074L220.453 -400.778L220.453 -400.778L920.954 337.261z" /></clipPath><linearGradient transform="matrix(1 0 0 1 0 0)" id="34942" x1="216.9726" y1="1584.66" x2="216.97261584.66" y2="216.97263.506592"><stop stop-color="#560099" offset="0%" /><stop stop-color="#FF0A35" offset="100%" /></linearGradient><clipPath id="73"><path d="M907.882 350.751L207.382 -387.288L207.382 -387.288L209.04 -388.9919L209.04 -388.9919L909.541 349.047z" /></clipPath><linearGradient transform="matrix(1 0 0 1 0 0)" id="35434" x1="205.5614" y1="1572.874" x2="205.56141572.874" y2="205.56143.50647"><stop stop-color="#560099" offset="0%" /><stop stop-color="#FF0A35" offset="100%" /></linearGradient><clipPath id="74"><path d="M896.47 362.537L195.969 -375.4919L195.969 -375.4919L197.629 -377.196L197.629 -377.196L898.129 360.833z" /></clipPath><linearGradient transform="matrix(1 0 0 1 0 0)" id="35928" x1="194.1493" y1="1561.082" x2="194.14931561.082" y2="194.14933.50647"><stop stop-color="#560099" offset="0%" /><stop stop-color="#FF0A35" offset="100%" /></linearGradient><clipPath id="75"><path d="M885.059 374.323L184.558 -363.7061L184.558 -363.7061L186.217 -365.4091L186.217 -365.4091L886.718 372.62z" /></clipPath><linearGradient transform="matrix(1 0 0 1 0 0)" id="36424" x1="182.7381" y1="1549.296" x2="182.73811549.296" y2="182.73813.50647"><stop stop-color="#560099" offset="0%" /><stop stop-color="#FF0A35" offset="100%" /></linearGradient><clipPath id="76"><path d="M873.647 386.111L173.146 -351.928L173.146 -351.928L174.805 -353.6331L174.805 -353.6331L875.306 384.406z" /></clipPath><linearGradient transform="matrix(1 0 0 1 0 0)" id="36919" x1="171.326" y1="1537.514" x2="171.3261537.514" y2="171.3263.50647"><stop stop-color="#560099" offset="0%" /><stop stop-color="#FF0A35" offset="100%" /></linearGradient><clipPath id="77"><path d="M862.235 397.897L161.735 -340.1331L161.735 -340.1331L163.394 -341.837L163.394 -341.837L863.894 396.194z" /></clipPath><linearGradient transform="matrix(1 0 0 1 0 0)" id="37411" x1="159.9148" y1="1525.723" x2="159.91481525.723" y2="159.91483.50647"><stop stop-color="#560099" offset="0%" /><stop stop-color="#FF0A35" offset="100%" /></linearGradient><clipPath id="78"><path d="M850.824 409.693L150.323 -328.3459L150.323 -328.3459L151.982 -330.051L151.982 -330.051L852.482 407.989z" /></clipPath><linearGradient transform="matrix(1 0 0 1 0 0)" id="37906" x1="148.5027" y1="1513.932" x2="148.50271513.932" y2="148.50273.50647"><stop stop-color="#560099" offset="0%" /><stop stop-color="#FF0A35" offset="100%" /></linearGradient><clipPath id="79"><path d="M839.412 421.469L138.911 -316.5601L138.911 -316.5601L140.571 -318.2629L140.571 -318.2629L841.071 419.766z" /></clipPath><linearGradient transform="matrix(1 0 0 1 0 0)" id="38403" x1="137.0906" y1="1502.15" x2="137.09061502.15" y2="137.09063.506592"><stop stop-color="#560099" offset="0%" /><stop stop-color="#FF0A35" offset="100%" /></linearGradient><clipPath id="80"><path d="M828 433.256L127.499 -304.7729L127.499 -304.7729L129.159 -306.4771L129.159 -306.4771L829.659 431.552z" /></clipPath><linearGradient transform="matrix(1 0 0 1 0 0)" id="38895" x1="125.6794" y1="1490.364" x2="125.67941490.364" y2="125.67943.50647"><stop stop-color="#560099" offset="0%" /><stop stop-color="#FF0A35" offset="100%" /></linearGradient><clipPath id="81"><path d="M816.588 445.052L116.087 -292.986L116.087 -292.986L117.748 -294.691L117.748 -294.691L818.247 443.349z" /></clipPath><linearGradient transform="matrix(1 0 0 1 0 0)" id="39388" x1="114.2673" y1="1478.573" x2="114.26731478.573" y2="114.26733.506592"><stop stop-color="#560099" offset="0%" /><stop stop-color="#FF0A35" offset="100%" /></linearGradient><clipPath id="82"><path d="M805.177 456.838L104.676 -281.201L104.676 -281.201L106.335 -282.905L106.335 -282.905L806.835 455.134z" /></clipPath><linearGradient transform="matrix(1 0 0 1 0 0)" id="39882" x1="102.8561" y1="1466.786" x2="102.85611466.786" y2="102.85613.50647"><stop stop-color="#560099" offset="0%" /><stop stop-color="#FF0A35" offset="100%" /></linearGradient><clipPath id="83"><path d="M793.765 468.624L93.264 -269.4139L93.264 -269.4139L94.924 -271.118L94.924 -271.118L795.423 466.921z" /></clipPath><linearGradient transform="matrix(1 0 0 1 0 0)" id="40373" x1="91.44401" y1="1455" x2="91.444011455" y2="91.444013.50647"><stop stop-color="#560099" offset="0%" /><stop stop-color="#FF0A35" offset="100%" /></linearGradient><clipPath id="84"><path d="M782.353 480.411L81.853 -257.6281L81.853 -257.6281L83.512 -259.3311L83.512 -259.3311L784.012 478.707z" /></clipPath><linearGradient transform="matrix(1 0 0 1 0 0)" id="40858" x1="80.03282" y1="1443.213" x2="80.032821443.213" y2="80.032823.50647"><stop stop-color="#560099" offset="0%" /><stop stop-color="#FF0A35" offset="100%" /></linearGradient><clipPath id="85"><path d="M770.942 492.198L70.441 -245.8409L70.441 -245.8409L72.1 -247.546L72.1 -247.546L772.6 490.494z" /></clipPath><linearGradient transform="matrix(1 0 0 1 0 0)" id="41343" x1="68.62071" y1="1431.427" x2="68.620711431.427" y2="68.620713.50647"><stop stop-color="#560099" offset="0%" /><stop stop-color="#FF0A35" offset="100%" /></linearGradient><clipPath id="86"><path d="M160.134 840.276L1037.263 840.276L1037.263 840.276L1037.263 395.306L1037.263 395.306L160.134 395.306z" /></clipPath><clipPath id="87"><path d="M525.207 1428.653L1040.03 1428.653L1040.03 1428.653L1040.03 1000.837L1040.03 1000.837L525.207 1000.837z" /></clipPath><clipPath id="88"><path d="M150.101 1168.547L145.241 1173.407C 144.635 1174.013 144.635 1174.995 145.241 1175.6L145.241 1175.6L145.241 1175.6L145.241 1175.6L150.101 1180.46C 150.707 1181.066 151.689 1181.066 152.294 1180.46L152.294 1180.46L152.294 1180.46L152.294 1180.46L157.154 1175.6C 157.76 1174.995 157.76 1174.013 157.154 1173.407L157.154 1173.407L157.154 1173.407L157.154 1173.407L152.294 1168.547C 151.992 1168.245 151.595 1168.093 151.198 1168.093L151.198 1168.093L151.198 1168.093C 150.801 1168.093 150.404 1168.245 150.101 1168.547" /></clipPath><linearGradient transform="matrix(1 0 0 1 0 0)" id="42614" x1="147.6708" y1="381.023" x2="147.6708381.023" y2="147.67087.053314"><stop stop-color="#4C216D" offset="0%" /><stop stop-color="#B83F54" offset="100%" /></linearGradient><clipPath id="89"><path d="M150.101 1230.318L145.241 1235.179C 144.635 1235.784 144.635 1236.767 145.241 1237.373L145.241 1237.373L145.241 1237.373L145.241 1237.373L150.101 1242.233C 150.707 1242.838 151.689 1242.838 152.294 1242.233L152.294 1242.233L152.294 1242.233L152.294 1242.233L157.154 1237.373C 157.76 1236.767 157.76 1235.784 157.154 1235.179L157.154 1235.179L157.154 1235.179L157.154 1235.179L152.294 1230.318C 151.992 1230.016 151.595 1229.865 151.198 1229.865L151.198 1229.865L151.198 1229.865C 150.801 1229.865 150.404 1230.016 150.101 1230.318" /></clipPath><linearGradient transform="matrix(1 0 0 1 0 0)" id="43499" x1="147.6708" y1="319.251" x2="147.6708319.251" y2="147.67087.053314"><stop stop-color="#4C216D" offset="0%" /><stop stop-color="#B83F54" offset="100%" /></linearGradient></defs></svg>