<svg xmlns="http://www.w3.org/2000/svg" xmlns:xlink="http://www.w3.org/1999/xlink" id="body_5" preserveAspectRatio="xMinYMin meet" viewBox="0 0 1568 2069"><g transform="matrix(1.333333 0 0 1.333333 0 0)"><g><g clip-path="url(#1)"><g clip-path="url(#2)"><g clip-path="url(#3)"><g clip-path="url(#4)"><g clip-path="url(#5)"><g><g clip-path="url(#6)"><g clip-path="url(#7)"><g><path transform="matrix(1 0 0 -1 0 1552)" d="M0 -61L1176 1312L1176 1312L1176 4824L1176 4824L0 3451" stroke="none" fill="url(#1662)" /><path transform="matrix(1 0 0 -1 0 1552)" d="M0 -60.20344L1176 1312.938L1176 1312.938L1176 0L1176 0L0 0" stroke="none" fill="#4C216D" fill-rule="evenodd" fill-opacity="0.8980392" /><path transform="matrix(1 0 0 -1 0 1552)" d="M0 3449.81L1176 4822.951L1176 4822.951L1176 1552L1176 1552L0 1552" stroke="none" fill="#B83F54" fill-rule="evenodd" fill-opacity="0.8980392" /></g></g></g></g><g><g clip-path="url(#8)"><g clip-path="url(#9)"><g><path transform="matrix(1 0 0 -1 0 1552)" d="M0 1533L1176 334L1176 334L1176 -1608L1176 -1608L0 -409" stroke="none" fill="url(#2555)" /><path transform="matrix(1 0 0 -1 0 1552)" d="M0 1532.261L1176 333.4534L1176 333.4534L1176 1552L1176 1552L0 1552" stroke="none" fill="#FFD800" fill-rule="evenodd" fill-opacity="0.1960784" /><path transform="matrix(1 0 0 -1 0 1552)" d="M0 -408.398L1176 -1607.206L1176 -1607.206L1176 0L1176 0L0 0" stroke="none" fill="#FF387D" fill-rule="evenodd" fill-opacity="0.1960784" /></g></g></g></g></g></g></g><g clip-path="url(#10)"><g clip-path="url(#11)"><g clip-path="url(#12)"><g><g clip-path="url(#13)"><g clip-path="url(#14)"><g><path transform="matrix(1 0 0 -1 0 1552)" d="M0 -1322L1176 52L1176 52L1176 3564L1176 3564L0 2190" stroke="none" fill="url(#4105)" /><path transform="matrix(1 0 0 -1 0 1552)" d="M0 -1320.59L1176 52.55104L1176 52.55104L1176 0L1176 0L0 0" stroke="none" fill="#4C216D" fill-rule="evenodd" fill-opacity="0.8980392" /><path transform="matrix(1 0 0 -1 0 1552)" d="M0 2189.423L1176 3562.564L1176 3562.564L1176 1552L1176 1552L0 1552" stroke="none" fill="#B83F54" fill-rule="evenodd" fill-opacity="0.8980392" /></g></g></g></g><g><g clip-path="url(#15)"><g clip-path="url(#16)"><g><path transform="matrix(1 0 0 -1 0 1552)" d="M0 273L1176 -926L1176 -926L1176 -2869L1176 -2869L0 -1670" stroke="none" fill="url(#5005)" /><path transform="matrix(1 0 0 -1 0 1552)" d="M0 271.8741L1176 -926.9335L1176 -926.9335L1176 1552L1176 1552L0 1552" stroke="none" fill="#FFD800" fill-rule="evenodd" fill-opacity="0.1960784" /><path transform="matrix(1 0 0 -1 0 1552)" d="M0 -1668.785L1176 -2867.593L1176 -2867.593L1176 0L1176 0L0 0" stroke="none" fill="#FF387D" fill-rule="evenodd" fill-opacity="0.1960784" /></g></g></g></g></g></g></g></g><g clip-path="url(#17)"><g><g clip-path="url(#18)"><g clip-path="url(#19)"><g><path transform="matrix(1 0 0 -1 0 1552)" d="M0 -1290L1176 83L1176 83L1176 3595L1176 3595L0 2222" stroke="none" fill="url(#5908)" /><path transform="matrix(1 0 0 -1 0 1552)" d="M0 -1289.322L1176 83.81958L1176 83.81958L1176 0L1176 0L0 0" stroke="none" fill="#4C216D" fill-rule="evenodd" fill-opacity="0.8980392" /><path transform="matrix(1 0 0 -1 0 1552)" d="M0 2220.691L1176 3593.833L1176 3593.833L1176 1552L1176 1552L0 1552" stroke="none" fill="#B83F54" fill-rule="evenodd" fill-opacity="0.8980392" /></g></g></g></g><g><g clip-path="url(#20)"><g clip-path="url(#21)"><g><path transform="matrix(1 0 0 -1 0 1552)" d="M0 3425L1176 2226L1176 2226L1176 267L1176 267L0 1466" stroke="none" fill="url(#6733)" /><path transform="matrix(1 0 0 -1 0 1552)" d="M0 3424.233L1176 2225.426L1176 2225.426L1176 1552L1176 1552L0 1552" stroke="none" fill="#FFD800" fill-rule="evenodd" fill-opacity="0.1960784" /><path transform="matrix(1 0 0 -1 0 1552)" d="M0 1467.24L1176 268.4319L1176 268.4319L1176 0L1176 0L0 0" stroke="none" fill="#FF387D" fill-rule="evenodd" fill-opacity="0.1960784" /></g></g><g clip-path="url(#22)"><g><path transform="matrix(1 0 0 -1 0 1552)" d="M0 3425L1176 2226L1176 2226L1176 268L1176 268L0 1467" stroke="none" fill="url(#7340)" /><path transform="matrix(1 0 0 -1 0 1552)" d="M0 3423.649L1176 2224.842L1176 2224.842L1176 1552L1176 1552L0 1552" stroke="none" fill="#FFD800" fill-rule="evenodd" fill-opacity="0.1960784" /><path transform="matrix(1 0 0 -1 0 1552)" d="M0 1468.082L1176 269.2748L1176 269.2748L1176 0L1176 0L0 0" stroke="none" fill="#FF387D" fill-rule="evenodd" fill-opacity="0.1960784" /></g></g><g clip-path="url(#23)"><g><path transform="matrix(1 0 0 -1 0 1552)" d="M0 3424L1176 2225L1176 2225L1176 269L1176 269L0 1468" stroke="none" fill="url(#7948)" /><path transform="matrix(1 0 0 -1 0 1552)" d="M0 3423.065L1176 2224.258L1176 2224.258L1176 1552L1176 1552L0 1552" stroke="none" fill="#FFD800" fill-rule="evenodd" fill-opacity="0.1960784" /><path transform="matrix(1 0 0 -1 0 1552)" d="M0 1468.867L1176 270.0597L1176 270.0597L1176 0L1176 0L0 0" stroke="none" fill="#FF387D" fill-rule="evenodd" fill-opacity="0.1960784" /></g></g><g clip-path="url(#24)"><g><path transform="matrix(1 0 0 -1 0 1552)" d="M0 3423L1176 2225L1176 2225L1176 270L1176 270L0 1469" stroke="none" fill="url(#8544)" /><path transform="matrix(1 0 0 -1 0 1552)" d="M0 3422.479L1176 2223.671L1176 2223.671L1176 1552L1176 1552L0 1552" stroke="none" fill="#FFD800" fill-rule="evenodd" fill-opacity="0.1960784" /><path transform="matrix(1 0 0 -1 0 1552)" d="M0 1469.579L1176 270.7715L1176 270.7715L1176 0L1176 0L0 0" stroke="none" fill="#FF387D" fill-rule="evenodd" fill-opacity="0.1960784" /></g></g><g clip-path="url(#25)"><g><path transform="matrix(1 0 0 -1 0 1552)" d="M0 3423L1176 2224L1176 2224L1176 270L1176 270L0 1469" stroke="none" fill="url(#9141)" /><path transform="matrix(1 0 0 -1 0 1552)" d="M0 3421.89L1176 2223.083L1176 2223.083L1176 1552L1176 1552L0 1552" stroke="none" fill="#FFD800" fill-rule="evenodd" fill-opacity="0.1960784" /><path transform="matrix(1 0 0 -1 0 1552)" d="M0 1470.24L1176 271.4322L1176 271.4322L1176 0L1176 0L0 0" stroke="none" fill="#FF387D" fill-rule="evenodd" fill-opacity="0.1960784" /></g></g><g clip-path="url(#26)"><g><path transform="matrix(1 0 0 -1 0 1552)" d="M0 3422L1176 2223L1176 2223L1176 271L1176 271L0 1470" stroke="none" fill="url(#9742)" /><path transform="matrix(1 0 0 -1 0 1552)" d="M0 3421.305L1176 2222.498L1176 2222.498L1176 1552L1176 1552L0 1552" stroke="none" fill="#FFD800" fill-rule="evenodd" fill-opacity="0.1960784" /><path transform="matrix(1 0 0 -1 0 1552)" d="M0 1470.855L1176 272.0474L1176 272.0474L1176 0L1176 0L0 0" stroke="none" fill="#FF387D" fill-rule="evenodd" fill-opacity="0.1960784" /></g></g><g clip-path="url(#27)"><g><path transform="matrix(1 0 0 -1 0 1552)" d="M0 3422L1176 2223L1176 2223L1176 272L1176 272L0 1470" stroke="none" fill="url(#10346)" /><path transform="matrix(1 0 0 -1 0 1552)" d="M0 3420.715L1176 2221.907L1176 2221.907L1176 1552L1176 1552L0 1552" stroke="none" fill="#FFD800" fill-rule="evenodd" fill-opacity="0.1960784" /><path transform="matrix(1 0 0 -1 0 1552)" d="M0 1471.426L1176 272.6182L1176 272.6182L1176 0L1176 0L0 0" stroke="none" fill="#FF387D" fill-rule="evenodd" fill-opacity="0.1960784" /></g></g><g clip-path="url(#28)"><g><path transform="matrix(1 0 0 -1 0 1552)" d="M0 3421L1176 2222L1176 2222L1176 272L1176 272L0 1471" stroke="none" fill="url(#10946)" /><path transform="matrix(1 0 0 -1 0 1552)" d="M0 3420.117L1176 2221.31L1176 2221.31L1176 1552L1176 1552L0 1552" stroke="none" fill="#FFD800" fill-rule="evenodd" fill-opacity="0.1960784" /><path transform="matrix(1 0 0 -1 0 1552)" d="M0 1471.95L1176 273.1422L1176 273.1422L1176 0L1176 0L0 0" stroke="none" fill="#FF387D" fill-rule="evenodd" fill-opacity="0.1960784" /></g></g><g clip-path="url(#29)"><g><path transform="matrix(1 0 0 -1 0 1552)" d="M0 3421L1176 2222L1176 2222L1176 273L1176 273L0 1471" stroke="none" fill="url(#11542)" /><path transform="matrix(1 0 0 -1 0 1552)" d="M0 3419.533L1176 2220.725L1176 2220.725L1176 1552L1176 1552L0 1552" stroke="none" fill="#FFD800" fill-rule="evenodd" fill-opacity="0.1960784" /><path transform="matrix(1 0 0 -1 0 1552)" d="M0 1472.432L1176 273.6243L1176 273.6243L1176 0L1176 0L0 0" stroke="none" fill="#FF387D" fill-rule="evenodd" fill-opacity="0.1960784" /></g></g><g clip-path="url(#30)"><g><path transform="matrix(1 0 0 -1 0 1552)" d="M0 3420L1176 2221L1176 2221L1176 273L1176 273L0 1472" stroke="none" fill="url(#12143)" /><path transform="matrix(1 0 0 -1 0 1552)" d="M0 3418.932L1176 2220.125L1176 2220.125L1176 1552L1176 1552L0 1552" stroke="none" fill="#FFD800" fill-rule="evenodd" fill-opacity="0.1960784" /><path transform="matrix(1 0 0 -1 0 1552)" d="M0 1472.862L1176 274.0541L1176 274.0541L1176 0L1176 0L0 0" stroke="none" fill="#FF387D" fill-rule="evenodd" fill-opacity="0.1960784" /></g></g><g clip-path="url(#31)"><g><path transform="matrix(1 0 0 -1 0 1552)" d="M0 3419L1176 2221L1176 2221L1176 273L1176 273L0 1472" stroke="none" fill="url(#12738)" /><path transform="matrix(1 0 0 -1 0 1552)" d="M0 3418.347L1176 2219.54L1176 2219.54L1176 1552L1176 1552L0 1552" stroke="none" fill="#FFD800" fill-rule="evenodd" fill-opacity="0.1960784" /><path transform="matrix(1 0 0 -1 0 1552)" d="M0 1473.259L1176 274.4514L1176 274.4514L1176 0L1176 0L0 0" stroke="none" fill="#FF387D" fill-rule="evenodd" fill-opacity="0.1960784" /></g></g><g clip-path="url(#32)"><g><path transform="matrix(1 0 0 -1 0 1552)" d="M0 3419L1176 2220L1176 2220L1176 274L1176 274L0 1473" stroke="none" fill="url(#13336)" /><path transform="matrix(1 0 0 -1 0 1552)" d="M0 3417.749L1176 2218.942L1176 2218.942L1176 1552L1176 1552L0 1552" stroke="none" fill="#FFD800" fill-rule="evenodd" fill-opacity="0.1960784" /><path transform="matrix(1 0 0 -1 0 1552)" d="M0 1473.63L1176 274.8231L1176 274.8231L1176 0L1176 0L0 0" stroke="none" fill="#FF387D" fill-rule="evenodd" fill-opacity="0.1960784" /></g></g><g clip-path="url(#33)"><g><path transform="matrix(1 0 0 -1 0 1552)" d="M0 3418L1176 2219L1176 2219L1176 274L1176 274L0 1473" stroke="none" fill="url(#13939)" /><path transform="matrix(1 0 0 -1 0 1552)" d="M0 3417.155L1176 2218.347L1176 2218.347L1176 1552L1176 1552L0 1552" stroke="none" fill="#FFD800" fill-rule="evenodd" fill-opacity="0.1960784" /><path transform="matrix(1 0 0 -1 0 1552)" d="M0 1473.957L1176 275.1498L1176 275.1498L1176 0L1176 0L0 0" stroke="none" fill="#FF387D" fill-rule="evenodd" fill-opacity="0.1960784" /></g></g><g clip-path="url(#34)"><g><path transform="matrix(1 0 0 -1 0 1552)" d="M0 3418L1176 2219L1176 2219L1176 274L1176 274L0 1473" stroke="none" fill="url(#14541)" /><path transform="matrix(1 0 0 -1 0 1552)" d="M0 3416.56L1176 2217.752L1176 2217.752L1176 1552L1176 1552L0 1552" stroke="none" fill="#FFD800" fill-rule="evenodd" fill-opacity="0.1960784" /><path transform="matrix(1 0 0 -1 0 1552)" d="M0 1474.242L1176 275.4348L1176 275.4348L1176 0L1176 0L0 0" stroke="none" fill="#FF387D" fill-rule="evenodd" fill-opacity="0.1960784" /></g></g><g clip-path="url(#35)"><g><path transform="matrix(1 0 0 -1 0 1552)" d="M0 3417L1176 2218L1176 2218L1176 275L1176 275L0 1473" stroke="none" fill="url(#15138)" /><path transform="matrix(1 0 0 -1 0 1552)" d="M0 3415.967L1176 2217.16L1176 2217.16L1176 1552L1176 1552L0 1552" stroke="none" fill="#FFD800" fill-rule="evenodd" fill-opacity="0.1960784" /><path transform="matrix(1 0 0 -1 0 1552)" d="M0 1474.5L1176 275.6924L1176 275.6924L1176 0L1176 0L0 0" stroke="none" fill="#FF387D" fill-rule="evenodd" fill-opacity="0.1960784" /></g></g><g clip-path="url(#36)"><g><path transform="matrix(1 0 0 -1 0 1552)" d="M0 3416L1176 2218L1176 2218L1176 275L1176 275L0 1474" stroke="none" fill="url(#15731)" /><path transform="matrix(1 0 0 -1 0 1552)" d="M0 3415.38L1176 2216.572L1176 2216.572L1176 1552L1176 1552L0 1552" stroke="none" fill="#FFD800" fill-rule="evenodd" fill-opacity="0.1960784" /><path transform="matrix(1 0 0 -1 0 1552)" d="M0 1474.721L1176 275.9133L1176 275.9133L1176 0L1176 0L0 0" stroke="none" fill="#FF387D" fill-rule="evenodd" fill-opacity="0.1960784" /></g></g></g></g></g><g clip-path="url(#37)"><g><g clip-path="url(#38)"><g clip-path="url(#39)"><g><path transform="matrix(1 0 0 -1 0 1552)" d="M0 -1836L1176 -463L1176 -463L1176 3049L1176 3049L0 1676" stroke="none" fill="url(#16633)" /><path transform="matrix(1 0 0 -1 0 1552)" d="M0 -1834.974L1176 -461.8319L1176 -461.8319L1176 0L1176 0L0 0" stroke="none" fill="#4C216D" fill-rule="evenodd" fill-opacity="0.8980392" /><path transform="matrix(1 0 0 -1 0 1552)" d="M0 1675.04L1176 3048.181L1176 3048.181L1176 1552L1176 1552L0 1552" stroke="none" fill="#B83F54" fill-rule="evenodd" fill-opacity="0.8980392" /></g></g></g></g><g><g clip-path="url(#40)"><g clip-path="url(#41)"><g><path transform="matrix(1 0 0 -1 0 1552)" d="M0 2880L1176 1681L1176 1681L1176 -279L1176 -279L0 920" stroke="none" fill="url(#17454)" /><path transform="matrix(1 0 0 -1 0 1552)" d="M0 2879.164L1176 1680.356L1176 1680.356L1176 1552L1176 1552L0 1552" stroke="none" fill="#FFD800" fill-rule="evenodd" fill-opacity="0.1960784" /><path transform="matrix(1 0 0 -1 0 1552)" d="M0 920.6801L1176 -278.1274L1176 -278.1274L1176 0L1176 0L0 0" stroke="none" fill="#FF387D" fill-rule="evenodd" fill-opacity="0.1960784" /></g></g><g clip-path="url(#42)"><g><path transform="matrix(1 0 0 -1 0 1552)" d="M0 2880L1176 1681L1176 1681L1176 -278L1176 -278L0 921" stroke="none" fill="url(#18049)" /><path transform="matrix(1 0 0 -1 0 1552)" d="M0 2878.582L1176 1679.774L1176 1679.774L1176 1552L1176 1552L0 1552" stroke="none" fill="#FFD800" fill-rule="evenodd" fill-opacity="0.1960784" /><path transform="matrix(1 0 0 -1 0 1552)" d="M0 921.5881L1176 -277.2194L1176 -277.2194L1176 0L1176 0L0 0" stroke="none" fill="#FF387D" fill-rule="evenodd" fill-opacity="0.1960784" /></g></g><g clip-path="url(#43)"><g><path transform="matrix(1 0 0 -1 0 1552)" d="M0 2879L1176 1680L1176 1680L1176 -277L1176 -277L0 921" stroke="none" fill="url(#18644)" /><path transform="matrix(1 0 0 -1 0 1552)" d="M0 2877.998L1176 1679.19L1176 1679.19L1176 1552L1176 1552L0 1552" stroke="none" fill="#FFD800" fill-rule="evenodd" fill-opacity="0.1960784" /><path transform="matrix(1 0 0 -1 0 1552)" d="M0 922.4307L1176 -276.3768L1176 -276.3768L1176 0L1176 0L0 0" stroke="none" fill="#FF387D" fill-rule="evenodd" fill-opacity="0.1960784" /></g></g><g clip-path="url(#44)"><g><path transform="matrix(1 0 0 -1 0 1552)" d="M0 2878L1176 1680L1176 1680L1176 -277L1176 -277L0 922" stroke="none" fill="url(#19244)" /><path transform="matrix(1 0 0 -1 0 1552)" d="M0 2877.414L1176 1678.607L1176 1678.607L1176 1552L1176 1552L0 1552" stroke="none" fill="#FFD800" fill-rule="evenodd" fill-opacity="0.1960784" /><path transform="matrix(1 0 0 -1 0 1552)" d="M0 923.2158L1176 -275.5916L1176 -275.5916L1176 0L1176 0L0 0" stroke="none" fill="#FF387D" fill-rule="evenodd" fill-opacity="0.1960784" /></g></g><g clip-path="url(#45)"><g><path transform="matrix(1 0 0 -1 0 1552)" d="M0 2878L1176 1679L1176 1679L1176 -276L1176 -276L0 923" stroke="none" fill="url(#19846)" /><path transform="matrix(1 0 0 -1 0 1552)" d="M0 2876.827L1176 1678.02L1176 1678.02L1176 1552L1176 1552L0 1552" stroke="none" fill="#FFD800" fill-rule="evenodd" fill-opacity="0.1960784" /><path transform="matrix(1 0 0 -1 0 1552)" d="M0 923.9276L1176 -274.88L1176 -274.88L1176 0L1176 0L0 0" stroke="none" fill="#FF387D" fill-rule="evenodd" fill-opacity="0.1960784" /></g></g><g clip-path="url(#46)"><g><path transform="matrix(1 0 0 -1 0 1552)" d="M0 2877L1176 1678L1176 1678L1176 -275L1176 -275L0 924" stroke="none" fill="url(#20436)" /><path transform="matrix(1 0 0 -1 0 1552)" d="M0 2876.239L1176 1677.431L1176 1677.431L1176 1552L1176 1552L0 1552" stroke="none" fill="#FFD800" fill-rule="evenodd" fill-opacity="0.1960784" /><path transform="matrix(1 0 0 -1 0 1552)" d="M0 924.5883L1176 -274.2192L1176 -274.2192L1176 0L1176 0L0 0" stroke="none" fill="#FF387D" fill-rule="evenodd" fill-opacity="0.1960784" /></g></g><g clip-path="url(#47)"><g><path transform="matrix(1 0 0 -1 0 1552)" d="M0 2877L1176 1678L1176 1678L1176 -275L1176 -275L0 924" stroke="none" fill="url(#21033)" /><path transform="matrix(1 0 0 -1 0 1552)" d="M0 2875.654L1176 1676.846L1176 1676.846L1176 1552L1176 1552L0 1552" stroke="none" fill="#FFD800" fill-rule="evenodd" fill-opacity="0.1960784" /><path transform="matrix(1 0 0 -1 0 1552)" d="M0 925.2035L1176 -273.604L1176 -273.604L1176 0L1176 0L0 0" stroke="none" fill="#FF387D" fill-rule="evenodd" fill-opacity="0.1960784" /></g></g><g clip-path="url(#48)"><g><path transform="matrix(1 0 0 -1 0 1552)" d="M0 2876L1176 1677L1176 1677L1176 -274L1176 -274L0 925" stroke="none" fill="url(#21633)" /><path transform="matrix(1 0 0 -1 0 1552)" d="M0 2875.064L1176 1676.256L1176 1676.256L1176 1552L1176 1552L0 1552" stroke="none" fill="#FFD800" fill-rule="evenodd" fill-opacity="0.1960784" /><path transform="matrix(1 0 0 -1 0 1552)" d="M0 925.7742L1176 -273.0333L1176 -273.0333L1176 0L1176 0L0 0" stroke="none" fill="#FF387D" fill-rule="evenodd" fill-opacity="0.1960784" /></g></g><g clip-path="url(#49)"><g><path transform="matrix(1 0 0 -1 0 1552)" d="M0 2875L1176 1677L1176 1677L1176 -274L1176 -274L0 925" stroke="none" fill="url(#22228)" /><path transform="matrix(1 0 0 -1 0 1552)" d="M0 2874.466L1176 1675.658L1176 1675.658L1176 1552L1176 1552L0 1552" stroke="none" fill="#FFD800" fill-rule="evenodd" fill-opacity="0.1960784" /><path transform="matrix(1 0 0 -1 0 1552)" d="M0 926.2982L1176 -272.5092L1176 -272.5092L1176 0L1176 0L0 0" stroke="none" fill="#FF387D" fill-rule="evenodd" fill-opacity="0.1960784" /></g></g><g clip-path="url(#50)"><g><path transform="matrix(1 0 0 -1 0 1552)" d="M0 2875L1176 1676L1176 1676L1176 -273L1176 -273L0 926" stroke="none" fill="url(#22825)" /><path transform="matrix(1 0 0 -1 0 1552)" d="M0 2873.881L1176 1675.074L1176 1675.074L1176 1552L1176 1552L0 1552" stroke="none" fill="#FFD800" fill-rule="evenodd" fill-opacity="0.1960784" /><path transform="matrix(1 0 0 -1 0 1552)" d="M0 926.7805L1176 -272.0271L1176 -272.0271L1176 0L1176 0L0 0" stroke="none" fill="#FF387D" fill-rule="evenodd" fill-opacity="0.1960784" /></g></g><g clip-path="url(#51)"><g><path transform="matrix(1 0 0 -1 0 1552)" d="M0 2874L1176 1675L1176 1675L1176 -273L1176 -273L0 926" stroke="none" fill="url(#23419)" /><path transform="matrix(1 0 0 -1 0 1552)" d="M0 2873.281L1176 1674.474L1176 1674.474L1176 1552L1176 1552L0 1552" stroke="none" fill="#FFD800" fill-rule="evenodd" fill-opacity="0.1960784" /><path transform="matrix(1 0 0 -1 0 1552)" d="M0 927.2103L1176 -271.5973L1176 -271.5973L1176 0L1176 0L0 0" stroke="none" fill="#FF387D" fill-rule="evenodd" fill-opacity="0.1960784" /></g></g><g clip-path="url(#52)"><g><path transform="matrix(1 0 0 -1 0 1552)" d="M0 2874L1176 1675L1176 1675L1176 -272L1176 -272L0 927" stroke="none" fill="url(#24009)" /><path transform="matrix(1 0 0 -1 0 1552)" d="M0 2872.696L1176 1673.888L1176 1673.888L1176 1552L1176 1552L0 1552" stroke="none" fill="#FFD800" fill-rule="evenodd" fill-opacity="0.1960784" /><path transform="matrix(1 0 0 -1 0 1552)" d="M0 927.6075L1176 -271.2L1176 -271.2L1176 0L1176 0L0 0" stroke="none" fill="#FF387D" fill-rule="evenodd" fill-opacity="0.1960784" /></g></g><g clip-path="url(#53)"><g><path transform="matrix(1 0 0 -1 0 1552)" d="M0 2873L1176 1674L1176 1674L1176 -272L1176 -272L0 927" stroke="none" fill="url(#24603)" /><path transform="matrix(1 0 0 -1 0 1552)" d="M0 2872.098L1176 1673.29L1176 1673.29L1176 1552L1176 1552L0 1552" stroke="none" fill="#FFD800" fill-rule="evenodd" fill-opacity="0.1960784" /><path transform="matrix(1 0 0 -1 0 1552)" d="M0 927.979L1176 -270.8284L1176 -270.8284L1176 0L1176 0L0 0" stroke="none" fill="#FF387D" fill-rule="evenodd" fill-opacity="0.1960784" /></g></g><g clip-path="url(#54)"><g><path transform="matrix(1 0 0 -1 0 1552)" d="M0 2873L1176 1674L1176 1674L1176 -272L1176 -272L0 927" stroke="none" fill="url(#25196)" /><path transform="matrix(1 0 0 -1 0 1552)" d="M0 2871.503L1176 1672.696L1176 1672.696L1176 1552L1176 1552L0 1552" stroke="none" fill="#FFD800" fill-rule="evenodd" fill-opacity="0.1960784" /><path transform="matrix(1 0 0 -1 0 1552)" d="M0 928.3057L1176 -270.5018L1176 -270.5018L1176 0L1176 0L0 0" stroke="none" fill="#FF387D" fill-rule="evenodd" fill-opacity="0.1960784" /></g></g><g clip-path="url(#55)"><g><path transform="matrix(1 0 0 -1 0 1552)" d="M0 2872L1176 1673L1176 1673L1176 -271L1176 -271L0 928" stroke="none" fill="url(#25789)" /><path transform="matrix(1 0 0 -1 0 1552)" d="M0 2870.908L1176 1672.101L1176 1672.101L1176 1552L1176 1552L0 1552" stroke="none" fill="#FFD800" fill-rule="evenodd" fill-opacity="0.1960784" /><path transform="matrix(1 0 0 -1 0 1552)" d="M0 928.5909L1176 -270.2166L1176 -270.2166L1176 0L1176 0L0 0" stroke="none" fill="#FF387D" fill-rule="evenodd" fill-opacity="0.1960784" /></g></g><g clip-path="url(#56)"><g><path transform="matrix(1 0 0 -1 0 1552)" d="M0 2871L1176 1673L1176 1673L1176 -271L1176 -271L0 928" stroke="none" fill="url(#26385)" /><path transform="matrix(1 0 0 -1 0 1552)" d="M0 2870.316L1176 1671.508L1176 1671.508L1176 1552L1176 1552L0 1552" stroke="none" fill="#FFD800" fill-rule="evenodd" fill-opacity="0.1960784" /><path transform="matrix(1 0 0 -1 0 1552)" d="M0 928.8484L1176 -269.9591L1176 -269.9591L1176 0L1176 0L0 0" stroke="none" fill="#FF387D" fill-rule="evenodd" fill-opacity="0.1960784" /></g></g><g clip-path="url(#57)"><g><path transform="matrix(1 0 0 -1 0 1552)" d="M0 2871L1176 1672L1176 1672L1176 -271L1176 -271L0 928" stroke="none" fill="url(#26978)" /><path transform="matrix(1 0 0 -1 0 1552)" d="M0 2869.729L1176 1670.921L1176 1670.921L1176 1552L1176 1552L0 1552" stroke="none" fill="#FFD800" fill-rule="evenodd" fill-opacity="0.1960784" /><path transform="matrix(1 0 0 -1 0 1552)" d="M0 929.0695L1176 -269.7381L1176 -269.7381L1176 0L1176 0L0 0" stroke="none" fill="#FF387D" fill-rule="evenodd" fill-opacity="0.1960784" /></g></g></g></g><g><g clip-path="url(#58)"><g clip-path="url(#59)"><g><path transform="matrix(1 0 0 -1 0 1552)" d="M0 -49056L1176 187655L1176 187655L1176 45585L1176 45585L0 -191126" stroke="none" fill="url(#27697)" /><path transform="matrix(1 0 0 -1 0 1552)" d="M0 -49174.28L1176 187536.9L1176 187536.9L1176 1552L1176 1552L0 1552" stroke="none" fill="#560099" fill-rule="evenodd" fill-opacity="0.04705882" /><path transform="matrix(1 0 0 -1 0 1552)" d="M0 -191008L1176 45703.17L1176 45703.17L1176 0L1176 0L0 0" stroke="none" fill="#FF0A35" fill-rule="evenodd" fill-opacity="0.04705882" /></g></g><g clip-path="url(#60)"><g><path transform="matrix(1 0 0 -1 0 1552)" d="M0 -46771L1176 189940L1176 189940L1176 47870L1176 47870L0 -188841" stroke="none" fill="url(#28194)" /><path transform="matrix(1 0 0 -1 0 1552)" d="M0 -46889.17L1176 189822L1176 189822L1176 1552L1176 1552L0 1552" stroke="none" fill="#560099" fill-rule="evenodd" fill-opacity="0.04705882" /><path transform="matrix(1 0 0 -1 0 1552)" d="M0 -188722.9L1176 47988.28L1176 47988.28L1176 0L1176 0L0 0" stroke="none" fill="#FF0A35" fill-rule="evenodd" fill-opacity="0.04705882" /></g></g><g clip-path="url(#61)"><g><path transform="matrix(1 0 0 -1 0 1552)" d="M0 -44486L1176 192226L1176 192226L1176 50155L1176 50155L0 -186556" stroke="none" fill="url(#28690)" /><path transform="matrix(1 0 0 -1 0 1552)" d="M0 -44603.87L1176 192107.3L1176 192107.3L1176 1552L1176 1552L0 1552" stroke="none" fill="#560099" fill-rule="evenodd" fill-opacity="0.04705882" /><path transform="matrix(1 0 0 -1 0 1552)" d="M0 -186437.6L1176 50273.58L1176 50273.58L1176 0L1176 0L0 0" stroke="none" fill="#FF0A35" fill-rule="evenodd" fill-opacity="0.04705882" /></g></g><g clip-path="url(#62)"><g><path transform="matrix(1 0 0 -1 0 1552)" d="M0 -42199L1176 194505L1176 194505L1176 52439L1176 52439L0 -184265" stroke="none" fill="url(#29186)" /><path transform="matrix(1 0 0 -1 0 1552)" d="M0 -42317.09L1176 194386.2L1176 194386.2L1176 1552L1176 1552L0 1552" stroke="none" fill="#560099" fill-rule="evenodd" fill-opacity="0.04705882" /><path transform="matrix(1 0 0 -1 0 1552)" d="M0 -184146.3L1176 52556.99L1176 52556.99L1176 0L1176 0L0 0" stroke="none" fill="#FF0A35" fill-rule="evenodd" fill-opacity="0.04705882" /></g></g><g clip-path="url(#63)"><g><path transform="matrix(1 0 0 -1 0 1552)" d="M0 -39915L1176 196796L1176 196796L1176 54726L1176 54726L0 -181986" stroke="none" fill="url(#29679)" /><path transform="matrix(1 0 0 -1 0 1552)" d="M0 -40033.46L1176 196677.8L1176 196677.8L1176 1552L1176 1552L0 1552" stroke="none" fill="#560099" fill-rule="evenodd" fill-opacity="0.04705882" /><path transform="matrix(1 0 0 -1 0 1552)" d="M0 -181867.2L1176 54843.99L1176 54843.99L1176 0L1176 0L0 0" stroke="none" fill="#FF0A35" fill-rule="evenodd" fill-opacity="0.04705882" /></g></g><g clip-path="url(#64)"><g><path transform="matrix(1 0 0 -1 0 1552)" d="M0 -37630L1176 199081L1176 199081L1176 57011L1176 57011L0 -179700" stroke="none" fill="url(#30173)" /><path transform="matrix(1 0 0 -1 0 1552)" d="M0 -37748.15L1176 198963L1176 198963L1176 1552L1176 1552L0 1552" stroke="none" fill="#560099" fill-rule="evenodd" fill-opacity="0.04705882" /><path transform="matrix(1 0 0 -1 0 1552)" d="M0 -179581.9L1176 57129.3L1176 57129.3L1176 0L1176 0L0 0" stroke="none" fill="#FF0A35" fill-rule="evenodd" fill-opacity="0.04705882" /></g></g><g clip-path="url(#65)"><g><path transform="matrix(1 0 0 -1 0 1552)" d="M0 -35345L1176 201367L1176 201367L1176 59296L1176 59296L0 -177415" stroke="none" fill="url(#30670)" /><path transform="matrix(1 0 0 -1 0 1552)" d="M0 -35463.04L1176 201248.2L1176 201248.2L1176 1552L1176 1552L0 1552" stroke="none" fill="#560099" fill-rule="evenodd" fill-opacity="0.04705882" /><path transform="matrix(1 0 0 -1 0 1552)" d="M0 -177296.8L1176 59414.41L1176 59414.41L1176 0L1176 0L0 0" stroke="none" fill="#FF0A35" fill-rule="evenodd" fill-opacity="0.04705882" /></g></g><g clip-path="url(#66)"><g><path transform="matrix(1 0 0 -1 0 1552)" d="M0 -33059L1176 203652L1176 203652L1176 61581L1176 61581L0 -175130" stroke="none" fill="url(#31166)" /><path transform="matrix(1 0 0 -1 0 1552)" d="M0 -33177.75L1176 203533.5L1176 203533.5L1176 1552L1176 1552L0 1552" stroke="none" fill="#560099" fill-rule="evenodd" fill-opacity="0.04705882" /><path transform="matrix(1 0 0 -1 0 1552)" d="M0 -175011.5L1176 61699.71L1176 61699.71L1176 0L1176 0L0 0" stroke="none" fill="#FF0A35" fill-rule="evenodd" fill-opacity="0.04705882" /></g></g><g clip-path="url(#67)"><g><path transform="matrix(1 0 0 -1 0 1552)" d="M0 -30774L1176 205937L1176 205937L1176 63866L1176 63866L0 -172845" stroke="none" fill="url(#31663)" /><path transform="matrix(1 0 0 -1 0 1552)" d="M0 -30892.63L1176 205818.6L1176 205818.6L1176 1552L1176 1552L0 1552" stroke="none" fill="#560099" fill-rule="evenodd" fill-opacity="0.04705882" /><path transform="matrix(1 0 0 -1 0 1552)" d="M0 -172726.4L1176 63984.82L1176 63984.82L1176 0L1176 0L0 0" stroke="none" fill="#FF0A35" fill-rule="evenodd" fill-opacity="0.04705882" /></g></g><g clip-path="url(#68)"><g><path transform="matrix(1 0 0 -1 0 1552)" d="M0 -28489L1176 208222L1176 208222L1176 66152L1176 66152L0 -170559" stroke="none" fill="url(#32159)" /><path transform="matrix(1 0 0 -1 0 1552)" d="M0 -28607.32L1176 208103.9L1176 208103.9L1176 1552L1176 1552L0 1552" stroke="none" fill="#560099" fill-rule="evenodd" fill-opacity="0.04705882" /><path transform="matrix(1 0 0 -1 0 1552)" d="M0 -170441.1L1176 66270.13L1176 66270.13L1176 0L1176 0L0 0" stroke="none" fill="#FF0A35" fill-rule="evenodd" fill-opacity="0.04705882" /></g></g><g clip-path="url(#69)"><g><path transform="matrix(1 0 0 -1 0 1552)" d="M0 -26203L1176 210501L1176 210501L1176 68435L1176 68435L0 -168269" stroke="none" fill="url(#32649)" /><path transform="matrix(1 0 0 -1 0 1552)" d="M0 -26321.09L1176 210382.2L1176 210382.2L1176 1552L1176 1552L0 1552" stroke="none" fill="#560099" fill-rule="evenodd" fill-opacity="0.04705882" /><path transform="matrix(1 0 0 -1 0 1552)" d="M0 -168150.3L1176 68553L1176 68553L1176 0L1176 0L0 0" stroke="none" fill="#FF0A35" fill-rule="evenodd" fill-opacity="0.04705882" /></g></g><g clip-path="url(#70)"><g><path transform="matrix(1 0 0 -1 0 1552)" d="M0 -23919L1176 212793L1176 212793L1176 70722L1176 70722L0 -165989" stroke="none" fill="url(#33137)" /><path transform="matrix(1 0 0 -1 0 1552)" d="M0 -24036.92L1176 212674.3L1176 212674.3L1176 1552L1176 1552L0 1552" stroke="none" fill="#560099" fill-rule="evenodd" fill-opacity="0.04705882" /><path transform="matrix(1 0 0 -1 0 1552)" d="M0 -165870.7L1176 70840.55L1176 70840.55L1176 0L1176 0L0 0" stroke="none" fill="#FF0A35" fill-rule="evenodd" fill-opacity="0.04705882" /></g></g><g clip-path="url(#71)"><g><path transform="matrix(1 0 0 -1 0 1552)" d="M0 -21632L1176 215071L1176 215071L1176 73005L1176 73005L0 -163698" stroke="none" fill="url(#33632)" /><path transform="matrix(1 0 0 -1 0 1552)" d="M0 -21750.83L1176 214952.5L1176 214952.5L1176 1552L1176 1552L0 1552" stroke="none" fill="#560099" fill-rule="evenodd" fill-opacity="0.04705882" /><path transform="matrix(1 0 0 -1 0 1552)" d="M0 -163580L1176 73123.26L1176 73123.26L1176 0L1176 0L0 0" stroke="none" fill="#FF0A35" fill-rule="evenodd" fill-opacity="0.04705882" /></g></g><g clip-path="url(#72)"><g><path transform="matrix(1 0 0 -1 0 1552)" d="M0 -19348L1176 217363L1176 217363L1176 75293L1176 75293L0 -161419" stroke="none" fill="url(#34130)" /><path transform="matrix(1 0 0 -1 0 1552)" d="M0 -19466.5L1176 217244.7L1176 217244.7L1176 1552L1176 1552L0 1552" stroke="none" fill="#560099" fill-rule="evenodd" fill-opacity="0.04705882" /><path transform="matrix(1 0 0 -1 0 1552)" d="M0 -161300.3L1176 75410.95L1176 75410.95L1176 0L1176 0L0 0" stroke="none" fill="#FF0A35" fill-rule="evenodd" fill-opacity="0.04705882" /></g></g><g clip-path="url(#73)"><g><path transform="matrix(1 0 0 -1 0 1552)" d="M0 -17063L1176 219648L1176 219648L1176 77578L1176 77578L0 -159133" stroke="none" fill="url(#34619)" /><path transform="matrix(1 0 0 -1 0 1552)" d="M0 -17181.2L1176 219530L1176 219530L1176 1552L1176 1552L0 1552" stroke="none" fill="#560099" fill-rule="evenodd" fill-opacity="0.04705882" /><path transform="matrix(1 0 0 -1 0 1552)" d="M0 -159015L1176 77696.26L1176 77696.26L1176 0L1176 0L0 0" stroke="none" fill="#FF0A35" fill-rule="evenodd" fill-opacity="0.04705882" /></g></g><g clip-path="url(#74)"><g><path transform="matrix(1 0 0 -1 0 1552)" d="M0 -14778L1176 221933L1176 221933L1176 79863L1176 79863L0 -156848" stroke="none" fill="url(#35106)" /><path transform="matrix(1 0 0 -1 0 1552)" d="M0 -14896.09L1176 221815.1L1176 221815.1L1176 1552L1176 1552L0 1552" stroke="none" fill="#560099" fill-rule="evenodd" fill-opacity="0.04705882" /><path transform="matrix(1 0 0 -1 0 1552)" d="M0 -156729.8L1176 79981.38L1176 79981.38L1176 0L1176 0L0 0" stroke="none" fill="#FF0A35" fill-rule="evenodd" fill-opacity="0.04705882" /></g></g><g clip-path="url(#75)"><g><path transform="matrix(1 0 0 -1 0 1552)" d="M0 -12492L1176 224219L1176 224219L1176 82148L1176 82148L0 -154563" stroke="none" fill="url(#35594)" /><path transform="matrix(1 0 0 -1 0 1552)" d="M0 -12610.79L1176 224100.4L1176 224100.4L1176 1552L1176 1552L0 1552" stroke="none" fill="#560099" fill-rule="evenodd" fill-opacity="0.04705882" /><path transform="matrix(1 0 0 -1 0 1552)" d="M0 -154444.5L1176 82266.67L1176 82266.67L1176 0L1176 0L0 0" stroke="none" fill="#FF0A35" fill-rule="evenodd" fill-opacity="0.04705882" /></g></g></g></g></g><g clip-path="url(#76)"><path transform="matrix(1 0 0 -1 0 1552)" d="M1176.089 0L-0.2519531 0L-0.2519531 0L-0.2519531 1552.387L-0.2519531 1552.387L1176.089 1552.387z" stroke="#E6E7E8" stroke-width="1" fill="none" /><g><g clip-path="url(#77)"><g clip-path="url(#78)"><g><path transform="matrix(1 0 0 -1 0 1552)" d="M1018.898 0L1018.898 1552L1018.898 1552L1176.089 1552L1176.089 1552L1176.089 0" stroke="none" fill="url(#36505)" /><path transform="matrix(1 0 0 -1 0 1552)" d="M1018.898 0L1018.898 1552L1018.898 1552L0 1552L0 1552L0 0" stroke="none" fill="#4C216D" fill-rule="evenodd" fill-opacity="0.4980392" /><path transform="matrix(1 0 0 -1 0 1552)" d="M1176.089 0L1176.089 1552L1176.089 1552L1176 1552L1176 1552L1176 0" stroke="none" fill="#B83F54" fill-rule="evenodd" fill-opacity="0.4980392" /></g></g></g></g><g><g clip-path="url(#79)"></g></g></g><g clip-path="url(#80)"><g transform="matrix(0.2398164 0 0 0.2382367 752.249 1467.024)"><g transform="matrix(1 0 0 1 0 0)"><image x="0" y="0" xlink:href="img_07.png" width="207" height="125" /></g></g></g><path transform="matrix(1 0 0 -1 0 1552)" d="M813.6807 79.7246L813.6807 63.6426" stroke="#797A7C" stroke-width="1" fill="none" /><g clip-path="url(#81)"><g clip-path="url(#82)"><g clip-path="url(#83)"><g clip-path="url(#84)"><g><g clip-path="url(#85)"><g clip-path="url(#86)"><g><path transform="matrix(1 0 0 -1 0 1552)" d="M0 -4519L1176 -3146L1176 -3146L1176 366L1176 366L0 -1007" stroke="none" fill="url(#38671)" /><path transform="matrix(1 0 0 -1 0 1552)" d="M0 -4517.749L1176 -3144.607L1176 -3144.607L1176 0L1176 0L0 0" stroke="none" fill="#4C216D" fill-rule="evenodd" fill-opacity="0.8980392" /><path transform="matrix(1 0 0 -1 0 1552)" d="M0 -1007.736L1176 365.4059L1176 365.4059L1176 1552L1176 1552L0 1552" stroke="none" fill="#B83F54" fill-rule="evenodd" fill-opacity="0.8980392" /></g></g></g></g><g><g clip-path="url(#87)"><g clip-path="url(#88)"><g><path transform="matrix(1 0 0 -1 0 1552)" d="M0 2972L1176 1773L1176 1773L1176 -180L1176 -180L0 1019" stroke="none" fill="url(#39575)" /><path transform="matrix(1 0 0 -1 0 1552)" d="M0 2970.549L1176 1771.741L1176 1771.741L1176 1552L1176 1552L0 1552" stroke="none" fill="#FFD800" fill-rule="evenodd" fill-opacity="0.1960784" /><path transform="matrix(1 0 0 -1 0 1552)" d="M0 1020.099L1176 -178.7089L1176 -178.7089L1176 0L1176 0L0 0" stroke="none" fill="#FF387D" fill-rule="evenodd" fill-opacity="0.1960784" /></g></g><g clip-path="url(#89)"><g><path transform="matrix(1 0 0 -1 0 1552)" d="M0 2971L1176 1772L1176 1772L1176 -179L1176 -179L0 1020" stroke="none" fill="url(#40221)" /><path transform="matrix(1 0 0 -1 0 1552)" d="M0 2969.959L1176 1771.151L1176 1771.151L1176 1552L1176 1552L0 1552" stroke="none" fill="#FFD800" fill-rule="evenodd" fill-opacity="0.1960784" /><path transform="matrix(1 0 0 -1 0 1552)" d="M0 1020.67L1176 -178.138L1176 -178.138L1176 0L1176 0L0 0" stroke="none" fill="#FF387D" fill-rule="evenodd" fill-opacity="0.1960784" /></g></g><g clip-path="url(#90)"><g><path transform="matrix(1 0 0 -1 0 1552)" d="M0 2970L1176 1772L1176 1772L1176 -179L1176 -179L0 1020" stroke="none" fill="url(#40862)" /><path transform="matrix(1 0 0 -1 0 1552)" d="M0 2969.361L1176 1770.553L1176 1770.553L1176 1552L1176 1552L0 1552" stroke="none" fill="#FFD800" fill-rule="evenodd" fill-opacity="0.1960784" /><path transform="matrix(1 0 0 -1 0 1552)" d="M0 1021.193L1176 -177.6141L1176 -177.6141L1176 0L1176 0L0 0" stroke="none" fill="#FF387D" fill-rule="evenodd" fill-opacity="0.1960784" /></g></g><g clip-path="url(#91)"><g><path transform="matrix(1 0 0 -1 0 1552)" d="M0 2970L1176 1771L1176 1771L1176 -178L1176 -178L0 1021" stroke="none" fill="url(#41504)" /><path transform="matrix(1 0 0 -1 0 1552)" d="M0 2968.777L1176 1769.969L1176 1769.969L1176 1552L1176 1552L0 1552" stroke="none" fill="#FFD800" fill-rule="evenodd" fill-opacity="0.1960784" /><path transform="matrix(1 0 0 -1 0 1552)" d="M0 1021.676L1176 -177.1318L1176 -177.1318L1176 0L1176 0L0 0" stroke="none" fill="#FF387D" fill-rule="evenodd" fill-opacity="0.1960784" /></g></g><g clip-path="url(#92)"><g><path transform="matrix(1 0 0 -1 0 1552)" d="M0 2969L1176 1770L1176 1770L1176 -178L1176 -178L0 1021" stroke="none" fill="url(#42145)" /><path transform="matrix(1 0 0 -1 0 1552)" d="M0 2968.176L1176 1769.369L1176 1769.369L1176 1552L1176 1552L0 1552" stroke="none" fill="#FFD800" fill-rule="evenodd" fill-opacity="0.1960784" /><path transform="matrix(1 0 0 -1 0 1552)" d="M0 1022.105L1176 -176.7021L1176 -176.7021L1176 0L1176 0L0 0" stroke="none" fill="#FF387D" fill-rule="evenodd" fill-opacity="0.1960784" /></g></g><g clip-path="url(#93)"><g><path transform="matrix(1 0 0 -1 0 1552)" d="M0 2969L1176 1770L1176 1770L1176 -177L1176 -177L0 1022" stroke="none" fill="url(#42788)" /><path transform="matrix(1 0 0 -1 0 1552)" d="M0 2967.591L1176 1768.783L1176 1768.783L1176 1552L1176 1552L0 1552" stroke="none" fill="#FFD800" fill-rule="evenodd" fill-opacity="0.1960784" /><path transform="matrix(1 0 0 -1 0 1552)" d="M0 1022.503L1176 -176.3048L1176 -176.3048L1176 0L1176 0L0 0" stroke="none" fill="#FF387D" fill-rule="evenodd" fill-opacity="0.1960784" /></g></g><g clip-path="url(#94)"><g><path transform="matrix(1 0 0 -1 0 1552)" d="M0 2968L1176 1769L1176 1769L1176 -177L1176 -177L0 1022" stroke="none" fill="url(#43434)" /><path transform="matrix(1 0 0 -1 0 1552)" d="M0 2966.993L1176 1768.186L1176 1768.186L1176 1552L1176 1552L0 1552" stroke="none" fill="#FFD800" fill-rule="evenodd" fill-opacity="0.1960784" /><path transform="matrix(1 0 0 -1 0 1552)" d="M0 1022.874L1176 -175.9332L1176 -175.9332L1176 0L1176 0L0 0" stroke="none" fill="#FF387D" fill-rule="evenodd" fill-opacity="0.1960784" /></g></g><g clip-path="url(#95)"><g><path transform="matrix(1 0 0 -1 0 1552)" d="M0 2967L1176 1769L1176 1769L1176 -177L1176 -177L0 1022" stroke="none" fill="url(#44075)" /><path transform="matrix(1 0 0 -1 0 1552)" d="M0 2966.399L1176 1767.591L1176 1767.591L1176 1552L1176 1552L0 1552" stroke="none" fill="#FFD800" fill-rule="evenodd" fill-opacity="0.1960784" /><path transform="matrix(1 0 0 -1 0 1552)" d="M0 1023.201L1176 -175.6066L1176 -175.6066L1176 0L1176 0L0 0" stroke="none" fill="#FF387D" fill-rule="evenodd" fill-opacity="0.1960784" /></g></g><g clip-path="url(#96)"><g><path transform="matrix(1 0 0 -1 0 1552)" d="M0 2967L1176 1768L1176 1768L1176 -176L1176 -176L0 1022" stroke="none" fill="url(#44717)" /><path transform="matrix(1 0 0 -1 0 1552)" d="M0 2965.803L1176 1766.996L1176 1766.996L1176 1552L1176 1552L0 1552" stroke="none" fill="#FFD800" fill-rule="evenodd" fill-opacity="0.1960784" /><path transform="matrix(1 0 0 -1 0 1552)" d="M0 1023.486L1176 -175.3214L1176 -175.3214L1176 0L1176 0L0 0" stroke="none" fill="#FF387D" fill-rule="evenodd" fill-opacity="0.1960784" /></g></g><g clip-path="url(#97)"><g><path transform="matrix(1 0 0 -1 0 1552)" d="M0 2966L1176 1767L1176 1767L1176 -176L1176 -176L0 1023" stroke="none" fill="url(#45361)" /><path transform="matrix(1 0 0 -1 0 1552)" d="M0 2965.211L1176 1766.404L1176 1766.404L1176 1552L1176 1552L0 1552" stroke="none" fill="#FFD800" fill-rule="evenodd" fill-opacity="0.1960784" /><path transform="matrix(1 0 0 -1 0 1552)" d="M0 1023.744L1176 -175.0639L1176 -175.0639L1176 0L1176 0L0 0" stroke="none" fill="#FF387D" fill-rule="evenodd" fill-opacity="0.1960784" /></g></g><g clip-path="url(#98)"><g><path transform="matrix(1 0 0 -1 0 1552)" d="M0 2966L1176 1767L1176 1767L1176 -176L1176 -176L0 1023" stroke="none" fill="url(#46007)" /><path transform="matrix(1 0 0 -1 0 1552)" d="M0 2964.624L1176 1765.816L1176 1765.816L1176 1552L1176 1552L0 1552" stroke="none" fill="#FFD800" fill-rule="evenodd" fill-opacity="0.1960784" /><path transform="matrix(1 0 0 -1 0 1552)" d="M0 1023.965L1176 -174.8428L1176 -174.8428L1176 0L1176 0L0 0" stroke="none" fill="#FF387D" fill-rule="evenodd" fill-opacity="0.1960784" /></g></g></g></g></g></g></g><g clip-path="url(#99)"><g clip-path="url(#100)"><g clip-path="url(#101)"><g><g clip-path="url(#102)"></g></g></g></g></g></g></g></g></g><defs><clipPath id="1"><path d="M0 1552L0 -0.3900146L0 -0.3900146L1176.34 -0.3900146L1176.34 -0.3900146L1176.34 1552L1176.34 1552L0 1552z" /></clipPath><clipPath id="2"><path d="M0 -0.3869629L1176.341 -0.3869629L1176.341 -0.3869629L1176.341 1552L1176.341 1552L0 1552z" /></clipPath><clipPath id="3"><path d="M-365.972 625.191L-1423.771 625.191L-1423.771 625.191L-1423.771 550.513L-1423.771 550.513L-365.972 550.513z" /></clipPath><clipPath id="4"><path d="M-365.972 1339.082L-1423.771 1339.082L-1423.771 1339.082L-1423.771 -50.79993L-1423.771 -50.79993L-365.972 -50.79993z" /></clipPath><clipPath id="5"><path d="M-97.193 490.405L-494.117 1635.403L-494.117 1635.403L-1576.839 1317.745L-1576.839 1317.745L-1902.257 237.996L-1902.257 237.996L-814.91 -633.958L-814.91 -633.958L-203.194 179.509z" /></clipPath><clipPath id="6"><path d="M-1907 234.35L78.36975 234.35L78.36975 234.35L78.36975 1389.233L78.36975 1389.233L-1907 1389.233z" /></clipPath><clipPath id="7"><path d="M-1421.938 1389.232L3.883 1386.181L3.883 1386.181L78.37 234.3459L78.37 234.3459L-1907.003 238.614z" /></clipPath><linearGradient transform="matrix(1 0 0 1 0 0)" id="1662" x1="-1623.432" y1="1555.231" x2="-1623.4321555.231" y2="-1623.4321486.015"><stop stop-color="#4C216D" offset="0%" /><stop stop-color="#B83F54" offset="100%" /></linearGradient><clipPath id="8"><path d="M-1683.2 -272.79L9.369995 -272.79L9.369995 -272.79L9.369995 932.619L9.369995 932.619L-1683.2 932.619z" /></clipPath><clipPath id="9"><path d="M-917.392 932.619L-918.131 931.834L-918.131 931.834L-1683.199 162.875L-1683.199 162.875L-1681.698 161.344L-1681.698 161.344L-917.362 929.528L-917.362 929.528L7.898 -13.86597L7.898 -13.86597L9.37 -12.30798z" /></clipPath><linearGradient transform="matrix(1 0 0 1 0 0)" id="2555" x1="-1344.371" y1="1913.72" x2="-1344.3711913.72" y2="-1344.371952.674"><stop stop-color="#FFD800" offset="0%" /><stop stop-color="#FF387D" offset="100%" /></linearGradient><clipPath id="10"><path d="M-365.972 1885.578L-1423.771 1885.578L-1423.771 1885.578L-1423.771 1810.9L-1423.771 1810.9L-365.972 1810.9z" /></clipPath><clipPath id="11"><path d="M-365.972 2599.469L-1423.771 2599.469L-1423.771 2599.469L-1423.771 1209.588L-1423.771 1209.588L-365.972 1209.588z" /></clipPath><clipPath id="12"><path d="M-97.193 1750.792L-494.117 2895.791L-494.117 2895.791L-1576.839 2578.132L-1576.839 2578.132L-1902.257 1498.383L-1902.257 1498.383L-814.91 626.429L-814.91 626.429L-203.194 1439.896z" /></clipPath><clipPath id="13"><path d="M-1907 1494.733L78.36975 1494.733L78.36975 1494.733L78.36975 2649.62L78.36975 2649.62L-1907 2649.62z" /></clipPath><clipPath id="14"><path d="M-1421.938 2649.62L3.883 2646.567L3.883 2646.567L78.37 1494.732L78.37 1494.732L-1907.003 1499.001z" /></clipPath><linearGradient transform="matrix(1 0 0 1 0 0)" id="4105" x1="-1623.432" y1="294.8436" x2="-1623.432294.8436" y2="-1623.4321486.015"><stop stop-color="#4C216D" offset="0%" /><stop stop-color="#B83F54" offset="100%" /></linearGradient><clipPath id="15"><path d="M-1683.2 987.599L9.369995 987.599L9.369995 987.599L9.369995 2193.005L9.369995 2193.005L-1683.2 2193.005z" /></clipPath><clipPath id="16"><path d="M-917.392 2193.006L-918.131 2192.221L-918.131 2192.221L-1683.199 1423.262L-1683.199 1423.262L-1681.698 1421.73L-1681.698 1421.73L-917.362 2189.915L-917.362 2189.915L7.898 1246.52L7.898 1246.52L9.37 1248.079z" /></clipPath><linearGradient transform="matrix(1 0 0 1 0 0)" id="5005" x1="-1344.371" y1="653.3326" x2="-1344.371653.3326" y2="-1344.371952.674"><stop stop-color="#FFD800" offset="0%" /><stop stop-color="#FF387D" offset="100%" /></linearGradient><clipPath id="17"><path d="M0 192.713L1057.07 192.713L1057.07 192.713L1057.07 118.036L1057.07 118.036L0 118.036z" /></clipPath><clipPath id="18"><path d="M-483.961 -198.13L1501.41 -198.13L1501.41 -198.13L1501.41 956.755L1501.41 956.755L-483.961 956.755z" /></clipPath><clipPath id="19"><path d="M1.104 956.755L1426.925 953.702L1426.925 953.702L1501.412 -198.1331L1501.412 -198.1331L-483.961 -193.864z" /></clipPath><linearGradient transform="matrix(1 0 0 1 0 0)" id="5908" x1="-200.3896" y1="1987.709" x2="-200.38961987.709" y2="-200.38961486.015"><stop stop-color="#4C216D" offset="0%" /><stop stop-color="#B83F54" offset="100%" /></linearGradient><clipPath id="20"><path d="M-260.157 -705.27L1432.41 -705.27L1432.41 -705.27L1432.41 500.14L1432.41 500.14L-260.157 500.14z" /></clipPath><clipPath id="21"><path d="M510.27 19.10498L509.531 18.32996L509.531 18.32996L-26.446 -507.8999L-26.446 -507.8999L-24.935 -509.4299L-24.935 -509.4299L510.299 16.01404L510.299 16.01404L1201.839 -689.085L1201.839 -689.085L1203.319 -687.5259z" /></clipPath><linearGradient transform="matrix(1 0 0 1 0 0)" id="6733" x1="-46.42737" y1="2474.252" x2="-46.427372474.252" y2="-46.42737960.6844"><stop stop-color="#FFD800" offset="0%" /><stop stop-color="#FF387D" offset="100%" /></linearGradient><clipPath id="22"><path d="M509.963 51.18103L509.222 50.40405L509.222 50.40405L-42.025 -492.014L-42.025 -492.014L-40.515 -493.5439L-40.515 -493.5439L509.992 48.08997L509.992 48.08997L1217.111 -672.9041L1217.111 -672.9041L1218.591 -671.344z" /></clipPath><linearGradient transform="matrix(1 0 0 1 0 0)" id="7340" x1="-37.91394" y1="2465.717" x2="-37.913942465.717" y2="-37.91394959.9851"><stop stop-color="#FFD800" offset="0%" /><stop stop-color="#FF387D" offset="100%" /></linearGradient><clipPath id="23"><path d="M509.654 83.24695L508.915 82.47205L508.915 82.47205L-57.604 -476.129L-57.604 -476.129L-56.095 -477.6591L-56.095 -477.6591L509.684 80.15698L509.684 80.15698L1232.383 -656.7229L1232.383 -656.7229L1233.862 -655.1621z" /></clipPath><linearGradient transform="matrix(1 0 0 1 0 0)" id="7948" x1="-29.43121" y1="2457.183" x2="-29.431212457.183" y2="-29.43121959.3137"><stop stop-color="#FFD800" offset="0%" /><stop stop-color="#FF387D" offset="100%" /></linearGradient><clipPath id="24"><path d="M509.346 115.313L508.607 114.53L508.607 114.53L-73.184 -460.243L-73.184 -460.243L-71.674 -461.775L-71.674 -461.775L509.376 112.223L509.376 112.223L1247.655 -640.541L1247.655 -640.541L1249.135 -638.981z" /></clipPath><linearGradient transform="matrix(1 0 0 1 0 0)" id="8544" x1="-20.98566" y1="2448.648" x2="-20.985662448.648" y2="-20.98566958.6768"><stop stop-color="#FFD800" offset="0%" /><stop stop-color="#FF387D" offset="100%" /></linearGradient><clipPath id="25"><path d="M509.038 147.39L508.299 146.604L508.299 146.604L-88.772 -444.349L-88.772 -444.349L-87.262 -445.88L-87.262 -445.88L509.068 144.299L509.068 144.299L1262.934 -624.3511L1262.934 -624.3511L1264.414 -622.791z" /></clipPath><linearGradient transform="matrix(1 0 0 1 0 0)" id="9141" x1="-12.56268" y1="2440.11" x2="-12.562682440.11" y2="-12.56268958.0642"><stop stop-color="#FFD800" offset="0%" /><stop stop-color="#FF387D" offset="100%" /></linearGradient><clipPath id="26"><path d="M508.73 179.4561L507.991 178.672L507.991 178.672L-104.352 -428.473L-104.352 -428.473L-102.842 -430.004L-102.842 -430.004L508.759 176.365L508.759 176.365L1278.206 -608.177L1278.206 -608.177L1279.685 -606.6179z" /></clipPath><linearGradient transform="matrix(1 0 0 1 0 0)" id="9742" x1="-4.167114" y1="2431.578" x2="-4.1671142431.578" y2="-4.167114957.4756"><stop stop-color="#FFD800" offset="0%" /><stop stop-color="#FF387D" offset="100%" /></linearGradient><clipPath id="27"><path d="M508.423 211.514L507.683 210.739L507.683 210.739L-119.931 -412.588L-119.931 -412.588L-118.421 -414.118L-118.421 -414.118L508.452 208.423L508.452 208.423L1293.477 -591.9951L1293.477 -591.9951L1294.958 -590.437z" /></clipPath><linearGradient transform="matrix(1 0 0 1 0 0)" id="10346" x1="4.206055" y1="2423.044" x2="4.2060552423.044" y2="4.206055956.9064"><stop stop-color="#FFD800" offset="0%" /><stop stop-color="#FF387D" offset="100%" /></linearGradient><clipPath id="28"><path d="M508.114 243.59L507.375 242.813L507.375 242.813L-135.511 -396.693L-135.511 -396.693L-134.001 -398.225L-134.001 -398.225L508.144 240.499L508.144 240.499L1308.75 -575.8059L1308.75 -575.8059L1310.229 -574.2461z" /></clipPath><linearGradient transform="matrix(1 0 0 1 0 0)" id="10946" x1="12.56256" y1="2414.5" x2="12.562562414.5" y2="12.56256956.3563"><stop stop-color="#FFD800" offset="0%" /><stop stop-color="#FF387D" offset="100%" /></linearGradient><clipPath id="29"><path d="M507.806 275.6639L507.067 274.889L507.067 274.889L-151.091 -380.809L-151.091 -380.809L-149.581 -382.34L-149.581 -382.34L507.836 272.574L507.836 272.574L1324.021 -559.624L1324.021 -559.624L1325.502 -558.0649z" /></clipPath><linearGradient transform="matrix(1 0 0 1 0 0)" id="11542" x1="20.89557" y1="2405.964" x2="20.895572405.964" y2="20.89557955.8331"><stop stop-color="#FFD800" offset="0%" /><stop stop-color="#FF387D" offset="100%" /></linearGradient><clipPath id="30"><path d="M507.499 307.723L506.758 306.939L506.758 306.939L-166.67 -364.923L-166.67 -364.923L-165.161 -366.454L-165.161 -366.454L507.528 304.632L507.528 304.632L1339.293 -543.4431L1339.293 -543.4431L1340.773 -541.8831z" /></clipPath><linearGradient transform="matrix(1 0 0 1 0 0)" id="12143" x1="29.19849" y1="2397.425" x2="29.198492397.425" y2="29.19849955.328"><stop stop-color="#FFD800" offset="0%" /><stop stop-color="#FF387D" offset="100%" /></linearGradient><clipPath id="31"><path d="M507.19 339.799L506.459 339.014L506.459 339.014L-182.25 -349.038L-182.25 -349.038L-180.741 -350.569L-180.741 -350.569L507.22 336.708L507.22 336.708L1354.564 -527.261L1354.564 -527.261L1356.045 -525.7019z" /></clipPath><linearGradient transform="matrix(1 0 0 1 0 0)" id="12738" x1="37.48944" y1="2388.888" x2="37.489442388.888" y2="37.48944954.8461"><stop stop-color="#FFD800" offset="0%" /><stop stop-color="#FF387D" offset="100%" /></linearGradient><clipPath id="32"><path d="M506.883 371.873L506.15 371.09L506.15 371.09L-197.838 -333.153L-197.838 -333.153L-196.328 -334.684L-196.328 -334.684L506.912 368.783L506.912 368.783L1369.844 -511.0791L1369.844 -511.0791L1371.325 -509.521z" /></clipPath><linearGradient transform="matrix(1 0 0 1 0 0)" id="13336" x1="45.7655" y1="2380.348" x2="45.76552380.348" y2="45.7655954.3707"><stop stop-color="#FFD800" offset="0%" /><stop stop-color="#FF387D" offset="100%" /></linearGradient><clipPath id="33"><path d="M506.574 403.932L505.835 403.156L505.835 403.156L-213.417 -317.2679L-213.417 -317.2679L-211.909 -318.799L-211.909 -318.799L506.604 400.8409L506.604 400.8409L1385.117 -494.8979L1385.117 -494.8979L1386.596 -493.339z" /></clipPath><linearGradient transform="matrix(1 0 0 1 0 0)" id="13939" x1="54.01691" y1="2371.812" x2="54.016912371.812" y2="54.01691953.9189"><stop stop-color="#FFD800" offset="0%" /><stop stop-color="#FF387D" offset="100%" /></linearGradient><clipPath id="34"><path d="M506.266 435.999L505.527 435.223L505.527 435.223L-228.997 -301.3831L-228.997 -301.3831L-227.489 -302.913L-227.489 -302.913L506.297 432.908L506.297 432.908L1400.387 -478.717L1400.387 -478.717L1401.868 -477.157z" /></clipPath><linearGradient transform="matrix(1 0 0 1 0 0)" id="14541" x1="62.24963" y1="2363.273" x2="62.249632363.273" y2="62.24963953.4873"><stop stop-color="#FFD800" offset="0%" /><stop stop-color="#FF387D" offset="100%" /></linearGradient><clipPath id="35"><path d="M505.959 468.073L505.218 467.298L505.218 467.298L-244.577 -285.488L-244.577 -285.488L-243.068 -287.02L-243.068 -287.02L505.988 464.983L505.988 464.983L1415.659 -462.526L1415.659 -462.526L1417.14 -460.967z" /></clipPath><linearGradient transform="matrix(1 0 0 1 0 0)" id="15138" x1="70.47247" y1="2354.731" x2="70.472472354.731" y2="70.47247953.0706"><stop stop-color="#FFD800" offset="0%" /><stop stop-color="#FF387D" offset="100%" /></linearGradient><clipPath id="36"><path d="M505.65 500.141L504.911 499.356L504.911 499.356L-260.158 -269.604L-260.158 -269.604L-258.656 -271.135L-258.656 -271.135L505.68 497.05L505.68 497.05L1430.94 -446.345L1430.94 -446.345L1432.412 -444.786z" /></clipPath><linearGradient transform="matrix(1 0 0 1 0 0)" id="15731" x1="78.67133" y1="2346.198" x2="78.671332346.198" y2="78.67133952.6741"><stop stop-color="#FFD800" offset="0%" /><stop stop-color="#FF387D" offset="100%" /></linearGradient><clipPath id="37"><path d="M0 738.364L1057.07 738.364L1057.07 738.364L1057.07 663.687L1057.07 663.687L0 663.687z" /></clipPath><clipPath id="38"><path d="M-483.961 347.52L1501.41 347.52L1501.41 347.52L1501.41 1502.406L1501.41 1502.406L-483.961 1502.406z" /></clipPath><clipPath id="39"><path d="M1.104 1502.406L1426.925 1499.353L1426.925 1499.353L1501.412 347.5179L1501.412 347.5179L-483.961 351.787z" /></clipPath><linearGradient transform="matrix(1 0 0 1 0 0)" id="16633" x1="-200.3896" y1="1442.057" x2="-200.38961442.057" y2="-200.38961486.015"><stop stop-color="#4C216D" offset="0%" /><stop stop-color="#B83F54" offset="100%" /></linearGradient><clipPath id="40"><path d="M-260.157 -159.62L1432.41 -159.62L1432.41 -159.62L1432.41 1045.792L1432.41 1045.792L-260.157 1045.792z" /></clipPath><clipPath id="41"><path d="M510.578 532.698L509.839 531.914L509.839 531.914L-10.866 21.86804L-10.866 21.86804L-9.355 20.33704L-9.355 20.33704L510.608 529.607L510.608 529.607L1186.567 -159.615L1186.567 -159.615L1188.047 -158.056z" /></clipPath><linearGradient transform="matrix(1 0 0 1 0 0)" id="17454" x1="-54.9693" y1="1937.131" x2="-54.96931937.131" y2="-54.9693961.4152"><stop stop-color="#FFD800" offset="0%" /><stop stop-color="#FF387D" offset="100%" /></linearGradient><clipPath id="42"><path d="M510.27 564.757L509.531 563.981L509.531 563.981L-26.446 37.75195L-26.446 37.75195L-24.935 36.22205L-24.935 36.22205L510.299 561.666L510.299 561.666L1201.839 -143.434L1201.839 -143.434L1203.319 -141.874z" /></clipPath><linearGradient transform="matrix(1 0 0 1 0 0)" id="18049" x1="-46.42737" y1="1928.6" x2="-46.427371928.6" y2="-46.42737960.6844"><stop stop-color="#FFD800" offset="0%" /><stop stop-color="#FF387D" offset="100%" /></linearGradient><clipPath id="43"><path d="M509.963 596.832L509.222 596.055L509.222 596.055L-42.025 53.63794L-42.025 53.63794L-40.515 52.10706L-40.515 52.10706L509.992 593.741L509.992 593.741L1217.111 -127.252L1217.111 -127.252L1218.591 -125.693z" /></clipPath><linearGradient transform="matrix(1 0 0 1 0 0)" id="18644" x1="-37.91394" y1="1920.065" x2="-37.913941920.065" y2="-37.91394959.985"><stop stop-color="#FFD800" offset="0%" /><stop stop-color="#FF387D" offset="100%" /></linearGradient><clipPath id="44"><path d="M509.654 628.898L508.915 628.123L508.915 628.123L-57.604 69.52295L-57.604 69.52295L-56.095 67.99194L-56.095 67.99194L509.684 625.808L509.684 625.808L1232.383 -111.0699L1232.383 -111.0699L1233.862 -109.511z" /></clipPath><linearGradient transform="matrix(1 0 0 1 0 0)" id="19244" x1="-29.43121" y1="1911.531" x2="-29.431211911.531" y2="-29.43121959.3137"><stop stop-color="#FFD800" offset="0%" /><stop stop-color="#FF387D" offset="100%" /></linearGradient><clipPath id="45"><path d="M509.346 660.965L508.607 660.181L508.607 660.181L-73.184 85.40796L-73.184 85.40796L-71.674 83.87695L-71.674 83.87695L509.376 657.874L509.376 657.874L1247.655 -94.88904L1247.655 -94.88904L1249.135 -93.32898z" /></clipPath><linearGradient transform="matrix(1 0 0 1 0 0)" id="19846" x1="-20.98566" y1="1902.997" x2="-20.985661902.997" y2="-20.98566958.6768"><stop stop-color="#FFD800" offset="0%" /><stop stop-color="#FF387D" offset="100%" /></linearGradient><clipPath id="46"><path d="M509.038 693.041L508.299 692.256L508.299 692.256L-88.772 101.303L-88.772 101.303L-87.262 99.771L-87.262 99.771L509.068 689.95L509.068 689.95L1262.934 -78.698L1262.934 -78.698L1264.414 -77.14001z" /></clipPath><linearGradient transform="matrix(1 0 0 1 0 0)" id="20436" x1="-12.56268" y1="1894.459" x2="-12.562681894.459" y2="-12.56268958.0641"><stop stop-color="#FFD800" offset="0%" /><stop stop-color="#FF387D" offset="100%" /></linearGradient><clipPath id="47"><path d="M508.73 725.107L507.991 724.323L507.991 724.323L-104.352 117.179L-104.352 117.179L-102.842 115.647L-102.842 115.647L508.759 722.016L508.759 722.016L1278.206 -62.526L1278.206 -62.526L1279.685 -60.96704z" /></clipPath><linearGradient transform="matrix(1 0 0 1 0 0)" id="21033" x1="-4.167114" y1="1885.927" x2="-4.1671141885.927" y2="-4.167114957.4756"><stop stop-color="#FFD800" offset="0%" /><stop stop-color="#FF387D" offset="100%" /></linearGradient><clipPath id="48"><path d="M508.423 757.165L507.683 756.39L507.683 756.39L-119.931 133.063L-119.931 133.063L-118.421 131.533L-118.421 131.533L508.452 754.074L508.452 754.074L1293.477 -46.34399L1293.477 -46.34399L1294.958 -44.78503z" /></clipPath><linearGradient transform="matrix(1 0 0 1 0 0)" id="21633" x1="4.206055" y1="1877.393" x2="4.2060551877.393" y2="4.206055956.9063"><stop stop-color="#FFD800" offset="0%" /><stop stop-color="#FF387D" offset="100%" /></linearGradient><clipPath id="49"><path d="M508.114 789.241L507.375 788.465L507.375 788.465L-135.511 148.958L-135.511 148.958L-134.001 147.427L-134.001 147.427L508.144 786.15L508.144 786.15L1308.75 -30.15405L1308.75 -30.15405L1310.229 -28.59497z" /></clipPath><linearGradient transform="matrix(1 0 0 1 0 0)" id="22228" x1="12.56256" y1="1868.848" x2="12.562561868.848" y2="12.56256956.3563"><stop stop-color="#FFD800" offset="0%" /><stop stop-color="#FF387D" offset="100%" /></linearGradient><clipPath id="50"><path d="M507.806 821.315L507.067 820.54L507.067 820.54L-151.091 164.843L-151.091 164.843L-149.581 163.311L-149.581 163.311L507.836 818.225L507.836 818.225L1324.021 -13.97302L1324.021 -13.97302L1325.502 -12.41296z" /></clipPath><linearGradient transform="matrix(1 0 0 1 0 0)" id="22825" x1="20.89557" y1="1860.313" x2="20.895571860.313" y2="20.89557955.8331"><stop stop-color="#FFD800" offset="0%" /><stop stop-color="#FF387D" offset="100%" /></linearGradient><clipPath id="51"><path d="M507.499 853.374L506.758 852.591L506.758 852.591L-166.67 180.728L-166.67 180.728L-165.161 179.197L-165.161 179.197L507.528 850.283L507.528 850.283L1339.293 2.208984L1339.293 2.208984L1340.773 3.767944z" /></clipPath><linearGradient transform="matrix(1 0 0 1 0 0)" id="23419" x1="29.19849" y1="1851.773" x2="29.198491851.773" y2="29.19849955.3279"><stop stop-color="#FFD800" offset="0%" /><stop stop-color="#FF387D" offset="100%" /></linearGradient><clipPath id="52"><path d="M507.19 885.45L506.459 884.665L506.459 884.665L-182.25 196.613L-182.25 196.613L-180.741 195.082L-180.741 195.082L507.22 882.359L507.22 882.359L1354.564 18.39099L1354.564 18.39099L1356.045 19.94897z" /></clipPath><linearGradient transform="matrix(1 0 0 1 0 0)" id="24009" x1="37.48944" y1="1843.237" x2="37.489441843.237" y2="37.48944954.8461"><stop stop-color="#FFD800" offset="0%" /><stop stop-color="#FF387D" offset="100%" /></linearGradient><clipPath id="53"><path d="M506.883 917.524L506.15 916.741L506.15 916.741L-197.838 212.498L-197.838 212.498L-196.328 210.968L-196.328 210.968L506.912 914.434L506.912 914.434L1369.844 34.57202L1369.844 34.57202L1371.325 36.13098z" /></clipPath><linearGradient transform="matrix(1 0 0 1 0 0)" id="24603" x1="45.7655" y1="1834.697" x2="45.76551834.697" y2="45.7655954.3707"><stop stop-color="#FFD800" offset="0%" /><stop stop-color="#FF387D" offset="100%" /></linearGradient><clipPath id="54"><path d="M506.574 949.583L505.835 948.807L505.835 948.807L-213.417 228.384L-213.417 228.384L-211.909 226.853L-211.909 226.853L506.604 946.492L506.604 946.492L1385.117 50.75403L1385.117 50.75403L1386.596 52.31201z" /></clipPath><linearGradient transform="matrix(1 0 0 1 0 0)" id="25196" x1="54.01691" y1="1826.16" x2="54.016911826.16" y2="54.01691953.9189"><stop stop-color="#FFD800" offset="0%" /><stop stop-color="#FF387D" offset="100%" /></linearGradient><clipPath id="55"><path d="M506.266 981.65L505.527 980.874L505.527 980.874L-228.997 244.2679L-228.997 244.2679L-227.489 242.738L-227.489 242.738L506.297 978.559L506.297 978.559L1400.387 66.93396L1400.387 66.93396L1401.868 68.495z" /></clipPath><linearGradient transform="matrix(1 0 0 1 0 0)" id="25789" x1="62.24963" y1="1817.621" x2="62.249631817.621" y2="62.24963953.4873"><stop stop-color="#FFD800" offset="0%" /><stop stop-color="#FF387D" offset="100%" /></linearGradient><clipPath id="56"><path d="M505.959 1013.724L505.218 1012.949L505.218 1012.949L-244.577 260.163L-244.577 260.163L-243.068 258.632L-243.068 258.632L505.988 1010.635L505.988 1010.635L1415.659 83.125L1415.659 83.125L1417.14 84.68396z" /></clipPath><linearGradient transform="matrix(1 0 0 1 0 0)" id="26385" x1="70.47247" y1="1809.08" x2="70.472471809.08" y2="70.47247953.0705"><stop stop-color="#FFD800" offset="0%" /><stop stop-color="#FF387D" offset="100%" /></linearGradient><clipPath id="57"><path d="M505.65 1045.792L504.911 1045.008L504.911 1045.008L-260.158 276.048L-260.158 276.048L-258.656 274.516L-258.656 274.516L505.68 1042.701L505.68 1042.701L1430.94 99.30701L1430.94 99.30701L1432.412 100.866z" /></clipPath><linearGradient transform="matrix(1 0 0 1 0 0)" id="26978" x1="78.67133" y1="1800.546" x2="78.671331800.546" y2="78.67133952.674"><stop stop-color="#FFD800" offset="0%" /><stop stop-color="#FF387D" offset="100%" /></linearGradient><clipPath id="58"><path d="M72.1104 -660.6201L956.857 -660.6201L956.857 -660.6201L956.857 267.72L956.857 267.72L72.1104 267.72z" /></clipPath><clipPath id="59"><path d="M955.198 79.12305L254.698 -658.916L254.698 -658.916L256.356 -660.6211L256.356 -660.6211L956.857 77.41895z" /></clipPath><linearGradient transform="matrix(1 0 0 1 0 0)" id="27697" x1="252.8774" y1="1844.502" x2="252.87741844.502" y2="252.87743.50647"><stop stop-color="#560099" offset="0%" /><stop stop-color="#FF0A35" offset="100%" /></linearGradient><clipPath id="60"><path d="M943.786 90.90906L243.287 -647.1299L243.287 -647.1299L244.945 -648.834L244.945 -648.834L945.446 89.20496z" /></clipPath><linearGradient transform="matrix(1 0 0 1 0 0)" id="28194" x1="241.4662" y1="1832.716" x2="241.46621832.716" y2="241.46623.50647"><stop stop-color="#560099" offset="0%" /><stop stop-color="#FF0A35" offset="100%" /></linearGradient><clipPath id="61"><path d="M932.375 102.6949L231.875 -635.344L231.875 -635.344L233.533 -637.0471L233.533 -637.0471L934.034 100.991z" /></clipPath><linearGradient transform="matrix(1 0 0 1 0 0)" id="28690" x1="230.0541" y1="1820.929" x2="230.05411820.929" y2="230.05413.50647"><stop stop-color="#560099" offset="0%" /><stop stop-color="#FF0A35" offset="100%" /></linearGradient><clipPath id="62"><path d="M920.963 114.4821L220.463 -623.5569L220.463 -623.5569L222.122 -625.261L222.122 -625.261L922.623 112.778z" /></clipPath><linearGradient transform="matrix(1 0 0 1 0 0)" id="29186" x1="218.642" y1="1809.143" x2="218.6421809.143" y2="218.6423.506592"><stop stop-color="#560099" offset="0%" /><stop stop-color="#FF0A35" offset="100%" /></linearGradient><clipPath id="63"><path d="M909.551 126.2679L209.051 -611.771L209.051 -611.771L210.71 -613.4751L210.71 -613.4751L911.211 124.5649z" /></clipPath><linearGradient transform="matrix(1 0 0 1 0 0)" id="29679" x1="207.2308" y1="1797.356" x2="207.23081797.356" y2="207.23083.50647"><stop stop-color="#560099" offset="0%" /><stop stop-color="#FF0A35" offset="100%" /></linearGradient><clipPath id="64"><path d="M898.139 138.056L197.639 -599.9751L197.639 -599.9751L199.299 -601.679L199.299 -601.679L899.799 136.35z" /></clipPath><linearGradient transform="matrix(1 0 0 1 0 0)" id="30173" x1="195.8186" y1="1785.565" x2="195.81861785.565" y2="195.81863.50647"><stop stop-color="#560099" offset="0%" /><stop stop-color="#FF0A35" offset="100%" /></linearGradient><clipPath id="65"><path d="M886.728 149.8409L186.228 -588.189L186.228 -588.189L187.886 -589.8921L187.886 -589.8921L888.387 148.1379z" /></clipPath><linearGradient transform="matrix(1 0 0 1 0 0)" id="30670" x1="184.4075" y1="1773.779" x2="184.40751773.779" y2="184.40753.50647"><stop stop-color="#560099" offset="0%" /><stop stop-color="#FF0A35" offset="100%" /></linearGradient><clipPath id="66"><path d="M875.316 161.6281L174.816 -576.4109L174.816 -576.4109L176.474 -578.115L176.474 -578.115L876.975 159.924z" /></clipPath><linearGradient transform="matrix(1 0 0 1 0 0)" id="31166" x1="172.9954" y1="1761.997" x2="172.99541761.997" y2="172.99543.50647"><stop stop-color="#560099" offset="0%" /><stop stop-color="#FF0A35" offset="100%" /></linearGradient><clipPath id="67"><path d="M863.904 173.4139L163.405 -564.615L163.405 -564.615L165.063 -566.3201L165.063 -566.3201L865.564 171.7111z" /></clipPath><linearGradient transform="matrix(1 0 0 1 0 0)" id="31663" x1="161.5842" y1="1750.206" x2="161.58421750.206" y2="161.58423.50647"><stop stop-color="#560099" offset="0%" /><stop stop-color="#FF0A35" offset="100%" /></linearGradient><clipPath id="68"><path d="M852.493 185.2111L151.993 -552.8291L151.993 -552.8291L153.651 -554.533L153.651 -554.533L854.152 183.506z" /></clipPath><linearGradient transform="matrix(1 0 0 1 0 0)" id="32159" x1="150.172" y1="1738.415" x2="150.1721738.415" y2="150.1723.50647"><stop stop-color="#560099" offset="0%" /><stop stop-color="#FF0A35" offset="100%" /></linearGradient><clipPath id="69"><path d="M841.081 196.986L140.581 -541.043L140.581 -541.043L142.24 -542.7461L142.24 -542.7461L842.741 195.283z" /></clipPath><linearGradient transform="matrix(1 0 0 1 0 0)" id="32649" x1="138.76" y1="1726.633" x2="138.761726.633" y2="138.763.506592"><stop stop-color="#560099" offset="0%" /><stop stop-color="#FF0A35" offset="100%" /></linearGradient><clipPath id="70"><path d="M829.67 208.7729L129.169 -529.2561L129.169 -529.2561L130.828 -530.96L130.828 -530.96L831.329 207.069z" /></clipPath><linearGradient transform="matrix(1 0 0 1 0 0)" id="33137" x1="127.3488" y1="1714.847" x2="127.34881714.847" y2="127.34883.50647"><stop stop-color="#560099" offset="0%" /><stop stop-color="#FF0A35" offset="100%" /></linearGradient><clipPath id="71"><path d="M818.258 220.569L117.757 -517.469L117.757 -517.469L119.417 -519.1741L119.417 -519.1741L819.917 218.866z" /></clipPath><linearGradient transform="matrix(1 0 0 1 0 0)" id="33632" x1="115.9366" y1="1703.055" x2="115.93661703.055" y2="115.93663.506592"><stop stop-color="#560099" offset="0%" /><stop stop-color="#FF0A35" offset="100%" /></linearGradient><clipPath id="72"><path d="M806.846 232.356L106.345 -505.6841L106.345 -505.6841L108.005 -507.3879L108.005 -507.3879L808.505 230.651z" /></clipPath><linearGradient transform="matrix(1 0 0 1 0 0)" id="34130" x1="104.5255" y1="1691.269" x2="104.52551691.269" y2="104.52553.50647"><stop stop-color="#560099" offset="0%" /><stop stop-color="#FF0A35" offset="100%" /></linearGradient><clipPath id="73"><path d="M795.434 244.141L94.933 -493.897L94.933 -493.897L96.593 -495.601L96.593 -495.601L797.092 242.438z" /></clipPath><linearGradient transform="matrix(1 0 0 1 0 0)" id="34619" x1="93.11336" y1="1679.483" x2="93.113361679.483" y2="93.113363.50647"><stop stop-color="#560099" offset="0%" /><stop stop-color="#FF0A35" offset="100%" /></linearGradient><clipPath id="74"><path d="M784.022 255.929L83.522 -482.11L83.522 -482.11L85.181 -483.814L85.181 -483.814L785.681 254.224z" /></clipPath><linearGradient transform="matrix(1 0 0 1 0 0)" id="35106" x1="81.70218" y1="1667.696" x2="81.702181667.696" y2="81.702183.50647"><stop stop-color="#560099" offset="0%" /><stop stop-color="#FF0A35" offset="100%" /></linearGradient><clipPath id="75"><path d="M772.611 267.7159L72.11 -470.323L72.11 -470.323L73.769 -472.027L73.769 -472.027L774.269 266.012z" /></clipPath><linearGradient transform="matrix(1 0 0 1 0 0)" id="35594" x1="70.29007" y1="1655.909" x2="70.290071655.909" y2="70.290073.50647"><stop stop-color="#560099" offset="0%" /><stop stop-color="#FF0A35" offset="100%" /></linearGradient><clipPath id="76"><path d="M0 -0.3869629L1176.341 -0.3869629L1176.341 -0.3869629L1176.341 1552L1176.341 1552L0 1552z" /></clipPath><clipPath id="77"><path d="M1018.9 1459.926L1176.09 1459.926L1176.09 1459.926L1176.09 1501.926L1176.09 1501.926L1018.9 1501.926z" /></clipPath><clipPath id="78"><path d="M1176.089 1501.926L1018.899 1501.926L1018.899 1501.926L1018.899 1459.926L1018.899 1459.926L1176.089 1459.926z" /></clipPath><linearGradient transform="matrix(1 0 0 1 0 0)" id="36505" x1="1018.898" y1="149.6694" x2="1018.898149.6694" y2="1018.898157.1904"><stop stop-color="#4C216D" offset="0%" /><stop stop-color="#B83F54" offset="100%" /></linearGradient><clipPath id="79"><path d="M823.203 1471.077L1002.63 1471.077L1002.63 1471.077L1002.63 1493.472L1002.63 1493.472L823.203 1493.472z" /></clipPath><clipPath id="80"><path d="M752.249 1496.804L801.891 1496.804L801.891 1496.804L801.891 1467.025L801.891 1467.025L752.249 1467.025z" /></clipPath><clipPath id="81"><path d="M0 -0.3869629L1176.341 -0.3869629L1176.341 -0.3869629L1176.341 1552L1176.341 1552L0 1552z" /></clipPath><clipPath id="82"><path d="M2327.135 1938.166L1269.335 1938.166L1269.335 1938.166L1269.335 1863.488L1269.335 1863.488L2327.135 1863.488z" /></clipPath><clipPath id="83"><path d="M2327.135 2652.056L1269.335 2652.056L1269.335 2652.056L1269.335 1262.175L1269.335 1262.175L2327.135 1262.175z" /></clipPath><clipPath id="84"><path d="M2595.914 1803.379L2198.989 2948.378L2198.989 2948.378L1116.267 2630.719L1116.267 2630.719L790.849 1550.971L790.849 1550.971L1878.196 679.015L1878.196 679.015L2489.912 1492.483z" /></clipPath><clipPath id="85"><path d="M786.103 1547.32L2771.48 1547.32L2771.48 1547.32L2771.48 2702.21L2771.48 2702.21L786.103 2702.21z" /></clipPath><clipPath id="86"><path d="M1271.168 2702.207L2696.989 2699.154L2696.989 2699.154L2771.476 1547.319L2771.476 1547.319L786.103 1551.588z" /></clipPath><linearGradient transform="matrix(1 0 0 1 0 0)" id="38671" x1="1069.675" y1="242.2565" x2="1069.675242.2565" y2="1069.6751486.015"><stop stop-color="#4C216D" offset="0%" /><stop stop-color="#B83F54" offset="100%" /></linearGradient><clipPath id="87"><path d="M1009.91 1040.186L2702.48 1040.186L2702.48 1040.186L2702.48 2245.593L2702.48 2245.593L1009.91 2245.593z" /></clipPath><clipPath id="88"><path d="M1778.795 1924.908L1778.055 1924.124L1778.055 1924.124L1165.713 1316.979L1165.713 1316.979L1167.222 1315.448L1167.222 1315.448L1778.824 1921.817L1778.824 1921.817L2548.27 1137.275L2548.27 1137.275L2549.75 1138.834z" /></clipPath><linearGradient transform="matrix(1 0 0 1 0 0)" id="39575" x1="1265.897" y1="686.1261" x2="1265.897686.1261" y2="1265.897957.4756"><stop stop-color="#FFD800" offset="0%" /><stop stop-color="#FF387D" offset="100%" /></linearGradient><clipPath id="89"><path d="M1778.487 1956.966L1777.747 1956.191L1777.747 1956.191L1150.134 1332.864L1150.134 1332.864L1151.642 1331.334L1151.642 1331.334L1778.516 1953.876L1778.516 1953.876L2563.542 1153.457L2563.542 1153.457L2565.022 1155.015z" /></clipPath><linearGradient transform="matrix(1 0 0 1 0 0)" id="40221" x1="1274.27" y1="677.592" x2="1274.27677.592" y2="1274.27956.9063"><stop stop-color="#FFD800" offset="0%" /><stop stop-color="#FF387D" offset="100%" /></linearGradient><clipPath id="90"><path d="M1778.178 1989.042L1777.439 1988.265L1777.439 1988.265L1134.553 1348.759L1134.553 1348.759L1136.063 1347.228L1136.063 1347.228L1778.209 1985.951L1778.209 1985.951L2578.814 1169.646L2578.814 1169.646L2580.294 1171.206z" /></clipPath><linearGradient transform="matrix(1 0 0 1 0 0)" id="40862" x1="1282.627" y1="669.0474" x2="1282.627669.0474" y2="1282.627956.3563"><stop stop-color="#FFD800" offset="0%" /><stop stop-color="#FF387D" offset="100%" /></linearGradient><clipPath id="91"><path d="M1777.871 2021.116L1777.131 2020.341L1777.131 2020.341L1118.973 1364.643L1118.973 1364.643L1120.483 1363.112L1120.483 1363.112L1777.9 2018.026L1777.9 2018.026L2594.086 1185.828L2594.086 1185.828L2595.565 1187.388z" /></clipPath><linearGradient transform="matrix(1 0 0 1 0 0)" id="41504" x1="1290.96" y1="660.5118" x2="1290.96660.5118" y2="1290.96955.8331"><stop stop-color="#FFD800" offset="0%" /><stop stop-color="#FF387D" offset="100%" /></linearGradient><clipPath id="92"><path d="M1777.562 2053.175L1776.823 2052.391L1776.823 2052.391L1103.393 1380.529L1103.393 1380.529L1104.903 1378.998L1104.903 1378.998L1777.593 2050.085L1777.593 2050.085L2609.357 1202.01L2609.357 1202.01L2610.838 1203.569z" /></clipPath><linearGradient transform="matrix(1 0 0 1 0 0)" id="42145" x1="1299.263" y1="651.9726" x2="1299.263651.9726" y2="1299.263955.3279"><stop stop-color="#FFD800" offset="0%" /><stop stop-color="#FF387D" offset="100%" /></linearGradient><clipPath id="93"><path d="M1777.255 2085.251L1776.523 2084.467L1776.523 2084.467L1087.814 1396.415L1087.814 1396.415L1089.323 1394.883L1089.323 1394.883L1777.284 2082.16L1777.284 2082.16L2624.629 1218.191L2624.629 1218.191L2626.109 1219.75z" /></clipPath><linearGradient transform="matrix(1 0 0 1 0 0)" id="42788" x1="1307.554" y1="643.4362" x2="1307.554643.4362" y2="1307.554954.8461"><stop stop-color="#FFD800" offset="0%" /><stop stop-color="#FF387D" offset="100%" /></linearGradient><clipPath id="94"><path d="M1776.947 2117.325L1776.215 2116.542L1776.215 2116.542L1072.226 1412.299L1072.226 1412.299L1073.736 1410.768L1073.736 1410.768L1776.976 2114.235L1776.976 2114.235L2639.909 1234.373L2639.909 1234.373L2641.388 1235.932z" /></clipPath><linearGradient transform="matrix(1 0 0 1 0 0)" id="43434" x1="1315.83" y1="634.8958" x2="1315.83634.8958" y2="1315.83954.3707"><stop stop-color="#FFD800" offset="0%" /><stop stop-color="#FF387D" offset="100%" /></linearGradient><clipPath id="95"><path d="M1776.638 2149.384L1775.899 2148.608L1775.899 2148.608L1056.646 1428.184L1056.646 1428.184L1058.156 1426.654L1058.156 1426.654L1776.669 2146.293L1776.669 2146.293L2655.18 1250.555L2655.18 1250.555L2656.661 1252.114z" /></clipPath><linearGradient transform="matrix(1 0 0 1 0 0)" id="44075" x1="1324.081" y1="626.3594" x2="1324.081626.3594" y2="1324.081953.9189"><stop stop-color="#FFD800" offset="0%" /><stop stop-color="#FF387D" offset="100%" /></linearGradient><clipPath id="96"><path d="M1776.331 2181.451L1775.592 2180.675L1775.592 2180.675L1041.067 1444.069L1041.067 1444.069L1042.576 1442.539L1042.576 1442.539L1776.36 2178.36L1776.36 2178.36L2670.452 1266.735L2670.452 1266.735L2671.932 1268.296z" /></clipPath><linearGradient transform="matrix(1 0 0 1 0 0)" id="44717" x1="1332.314" y1="617.8205" x2="1332.314617.8205" y2="1332.314953.4873"><stop stop-color="#FFD800" offset="0%" /><stop stop-color="#FF387D" offset="100%" /></linearGradient><clipPath id="97"><path d="M1776.023 2213.525L1775.283 2212.75L1775.283 2212.75L1025.487 1459.964L1025.487 1459.964L1026.996 1458.432L1026.996 1458.432L1776.052 2210.435L1776.052 2210.435L2685.723 1282.926L2685.723 1282.926L2687.204 1284.486z" /></clipPath><linearGradient transform="matrix(1 0 0 1 0 0)" id="45361" x1="1340.537" y1="609.2788" x2="1340.537609.2788" y2="1340.537953.0705"><stop stop-color="#FFD800" offset="0%" /><stop stop-color="#FF387D" offset="100%" /></linearGradient><clipPath id="98"><path d="M1775.715 2245.593L1774.975 2244.808L1774.975 2244.808L1009.907 1475.849L1009.907 1475.849L1011.409 1474.317L1011.409 1474.317L1775.745 2242.502L1775.745 2242.502L2701.004 1299.107L2701.004 1299.107L2702.476 1300.667z" /></clipPath><linearGradient transform="matrix(1 0 0 1 0 0)" id="46007" x1="1348.736" y1="600.7455" x2="1348.736600.7455" y2="1348.736952.674"><stop stop-color="#FFD800" offset="0%" /><stop stop-color="#FF387D" offset="100%" /></linearGradient><clipPath id="99"><path d="M2327.135 2443.422L1269.335 2443.422L1269.335 2443.422L1269.335 2368.744L1269.335 2368.744L2327.135 2368.744z" /></clipPath><clipPath id="100"><path d="M2327.135 3157.311L1269.335 3157.311L1269.335 3157.311L1269.335 1767.43L1269.335 1767.43L2327.135 1767.43z" /></clipPath><clipPath id="101"><path d="M2595.914 2308.635L2198.989 3453.634L2198.989 3453.634L1116.267 3135.974L1116.267 3135.974L790.849 2056.226L790.849 2056.226L1878.196 1184.271L1878.196 1184.271L2489.912 1997.739z" /></clipPath><clipPath id="102"><path d="M1009.91 1545.442L2702.48 1545.442L2702.48 1545.442L2702.48 2750.85L2702.48 2750.85L1009.91 2750.85z" /></clipPath></defs></svg>