<svg xmlns="http://www.w3.org/2000/svg" xmlns:xlink="http://www.w3.org/1999/xlink" id="body_12" preserveAspectRatio="xMinYMin meet" viewBox="0 0 1568 2069"><g transform="matrix(1.333333 0 0 1.333333 0 0)"><g><g clip-path="url(#1)"><g clip-path="url(#2)"><g><g clip-path="url(#3)"><g clip-path="url(#4)"><g><path transform="matrix(1 0 0 -1 0 1552)" d="M0 2477L1176 1301L1176 1301L1176 -1031L1176 -1031L0 145" stroke="none" fill="url(#933)" /><path transform="matrix(1 0 0 -1 0 1552)" d="M0 2475.532L1176 1299.532L1176 1299.532L1176 1552L1176 1552L0 1552" stroke="none" fill="#FFD800" fill-rule="evenodd" fill-opacity="0.2980392" /><path transform="matrix(1 0 0 -1 0 1552)" d="M0 146.298L1176 -1029.702L1176 -1029.702L1176 0L1176 0L0 0" stroke="none" fill="#FF387D" fill-rule="evenodd" fill-opacity="0.2980392" /></g></g><g clip-path="url(#5)"><g><path transform="matrix(1 0 0 -1 0 1552)" d="M0 2476L1176 1300L1176 1300L1176 -1031L1176 -1031L0 145" stroke="none" fill="url(#1530)" /><path transform="matrix(1 0 0 -1 0 1552)" d="M0 2474.792L1176 1298.792L1176 1298.792L1176 1552L1176 1552L0 1552" stroke="none" fill="#FFD800" fill-rule="evenodd" fill-opacity="0.2980392" /><path transform="matrix(1 0 0 -1 0 1552)" d="M0 145.571L1176 -1030.429L1176 -1030.429L1176 0L1176 0L0 0" stroke="none" fill="#FF387D" fill-rule="evenodd" fill-opacity="0.2980392" /></g></g><g clip-path="url(#6)"><g><path transform="matrix(1 0 0 -1 0 1552)" d="M0 2475L1176 1299L1176 1299L1176 -1032L1176 -1032L0 144" stroke="none" fill="url(#2125)" /><path transform="matrix(1 0 0 -1 0 1552)" d="M0 2474.051L1176 1298.051L1176 1298.051L1176 1552L1176 1552L0 1552" stroke="none" fill="#FFD800" fill-rule="evenodd" fill-opacity="0.2980392" /><path transform="matrix(1 0 0 -1 0 1552)" d="M0 144.8192L1176 -1031.181L1176 -1031.181L1176 0L1176 0L0 0" stroke="none" fill="#FF387D" fill-rule="evenodd" fill-opacity="0.2980392" /></g></g><g clip-path="url(#7)"><g><path transform="matrix(1 0 0 -1 0 1552)" d="M0 2474L1176 1298L1176 1298L1176 -1033L1176 -1033L0 143" stroke="none" fill="url(#2723)" /><path transform="matrix(1 0 0 -1 0 1552)" d="M0 2473.312L1176 1297.312L1176 1297.312L1176 1552L1176 1552L0 1552" stroke="none" fill="#FFD800" fill-rule="evenodd" fill-opacity="0.2980392" /><path transform="matrix(1 0 0 -1 0 1552)" d="M0 144.0858L1176 -1031.914L1176 -1031.914L1176 0L1176 0L0 0" stroke="none" fill="#FF387D" fill-rule="evenodd" fill-opacity="0.2980392" /></g></g><g clip-path="url(#8)"><g><path transform="matrix(1 0 0 -1 0 1552)" d="M0 2474L1176 1298L1176 1298L1176 -1034L1176 -1034L0 142" stroke="none" fill="url(#3318)" /><path transform="matrix(1 0 0 -1 0 1552)" d="M0 2472.571L1176 1296.571L1176 1296.571L1176 1552L1176 1552L0 1552" stroke="none" fill="#FFD800" fill-rule="evenodd" fill-opacity="0.2980392" /><path transform="matrix(1 0 0 -1 0 1552)" d="M0 143.337L1176 -1032.663L1176 -1032.663L1176 0L1176 0L0 0" stroke="none" fill="#FF387D" fill-rule="evenodd" fill-opacity="0.2980392" /></g></g><g clip-path="url(#9)"><g><path transform="matrix(1 0 0 -1 0 1552)" d="M0 2473L1176 1297L1176 1297L1176 -1034L1176 -1034L0 142" stroke="none" fill="url(#3916)" /><path transform="matrix(1 0 0 -1 0 1552)" d="M0 2471.829L1176 1295.829L1176 1295.829L1176 1552L1176 1552L0 1552" stroke="none" fill="#FFD800" fill-rule="evenodd" fill-opacity="0.2980392" /><path transform="matrix(1 0 0 -1 0 1552)" d="M0 142.6049L1176 -1033.395L1176 -1033.395L1176 0L1176 0L0 0" stroke="none" fill="#FF387D" fill-rule="evenodd" fill-opacity="0.2980392" /></g></g><g clip-path="url(#10)"><g><path transform="matrix(1 0 0 -1 0 1552)" d="M0 2472L1176 1296L1176 1296L1176 -1035L1176 -1035L0 141" stroke="none" fill="url(#4514)" /><path transform="matrix(1 0 0 -1 0 1552)" d="M0 2471.092L1176 1295.092L1176 1295.092L1176 1552L1176 1552L0 1552" stroke="none" fill="#FFD800" fill-rule="evenodd" fill-opacity="0.2980392" /><path transform="matrix(1 0 0 -1 0 1552)" d="M0 141.8533L1176 -1034.147L1176 -1034.147L1176 0L1176 0L0 0" stroke="none" fill="#FF387D" fill-rule="evenodd" fill-opacity="0.2980392" /></g></g><g clip-path="url(#11)"><g><path transform="matrix(1 0 0 -1 0 1552)" d="M0 2471L1176 1295L1176 1295L1176 -1036L1176 -1036L0 140" stroke="none" fill="url(#5107)" /><path transform="matrix(1 0 0 -1 0 1552)" d="M0 2470.351L1176 1294.351L1176 1294.351L1176 1552L1176 1552L0 1552" stroke="none" fill="#FFD800" fill-rule="evenodd" fill-opacity="0.2980392" /><path transform="matrix(1 0 0 -1 0 1552)" d="M0 141.1321L1176 -1034.868L1176 -1034.868L1176 0L1176 0L0 0" stroke="none" fill="#FF387D" fill-rule="evenodd" fill-opacity="0.2980392" /></g></g><g clip-path="url(#12)"><g><path transform="matrix(1 0 0 -1 0 1552)" d="M0 2471L1176 1295L1176 1295L1176 -1037L1176 -1037L0 139" stroke="none" fill="url(#5708)" /><path transform="matrix(1 0 0 -1 0 1552)" d="M0 2469.602L1176 1293.602L1176 1293.602L1176 1552L1176 1552L0 1552" stroke="none" fill="#FFD800" fill-rule="evenodd" fill-opacity="0.2980392" /><path transform="matrix(1 0 0 -1 0 1552)" d="M0 140.3979L1176 -1035.602L1176 -1035.602L1176 0L1176 0L0 0" stroke="none" fill="#FF387D" fill-rule="evenodd" fill-opacity="0.2980392" /></g></g><g clip-path="url(#13)"><g><path transform="matrix(1 0 0 -1 0 1552)" d="M0 2470L1176 1294L1176 1294L1176 -1037L1176 -1037L0 139" stroke="none" fill="url(#6306)" /><path transform="matrix(1 0 0 -1 0 1552)" d="M0 2468.869L1176 1292.869L1176 1292.869L1176 1552L1176 1552L0 1552" stroke="none" fill="#FFD800" fill-rule="evenodd" fill-opacity="0.2980392" /><path transform="matrix(1 0 0 -1 0 1552)" d="M0 139.6541L1176 -1036.346L1176 -1036.346L1176 0L1176 0L0 0" stroke="none" fill="#FF387D" fill-rule="evenodd" fill-opacity="0.2980392" /></g></g><g clip-path="url(#14)"><g><path transform="matrix(1 0 0 -1 0 1552)" d="M0 2469L1176 1293L1176 1293L1176 -1038L1176 -1038L0 138" stroke="none" fill="url(#6902)" /><path transform="matrix(1 0 0 -1 0 1552)" d="M0 2468.119L1176 1292.119L1176 1292.119L1176 1552L1176 1552L0 1552" stroke="none" fill="#FFD800" fill-rule="evenodd" fill-opacity="0.2980392" /><path transform="matrix(1 0 0 -1 0 1552)" d="M0 138.9198L1176 -1037.08L1176 -1037.08L1176 0L1176 0L0 0" stroke="none" fill="#FF387D" fill-rule="evenodd" fill-opacity="0.2980392" /></g></g><g clip-path="url(#15)"><g><path transform="matrix(1 0 0 -1 0 1552)" d="M0 2468L1176 1292L1176 1292L1176 -1039L1176 -1039L0 137" stroke="none" fill="url(#7500)" /><path transform="matrix(1 0 0 -1 0 1552)" d="M0 2467.387L1176 1291.387L1176 1291.387L1176 1552L1176 1552L0 1552" stroke="none" fill="#FFD800" fill-rule="evenodd" fill-opacity="0.2980392" /><path transform="matrix(1 0 0 -1 0 1552)" d="M0 138.1682L1176 -1037.832L1176 -1037.832L1176 0L1176 0L0 0" stroke="none" fill="#FF387D" fill-rule="evenodd" fill-opacity="0.2980392" /></g></g><g clip-path="url(#16)"><g><path transform="matrix(1 0 0 -1 0 1552)" d="M0 2468L1176 1292L1176 1292L1176 -1040L1176 -1040L0 136" stroke="none" fill="url(#8095)" /><path transform="matrix(1 0 0 -1 0 1552)" d="M0 2466.642L1176 1290.642L1176 1290.642L1176 1552L1176 1552L0 1552" stroke="none" fill="#FFD800" fill-rule="evenodd" fill-opacity="0.2980392" /><path transform="matrix(1 0 0 -1 0 1552)" d="M0 137.4399L1176 -1038.56L1176 -1038.56L1176 0L1176 0L0 0" stroke="none" fill="#FF387D" fill-rule="evenodd" fill-opacity="0.2980392" /></g></g><g clip-path="url(#17)"><g><path transform="matrix(1 0 0 -1 0 1552)" d="M0 2467L1176 1291L1176 1291L1176 -1040L1176 -1040L0 136" stroke="none" fill="url(#8695)" /><path transform="matrix(1 0 0 -1 0 1552)" d="M0 2465.901L1176 1289.901L1176 1289.901L1176 1552L1176 1552L0 1552" stroke="none" fill="#FFD800" fill-rule="evenodd" fill-opacity="0.2980392" /><path transform="matrix(1 0 0 -1 0 1552)" d="M0 136.7128L1176 -1039.287L1176 -1039.287L1176 0L1176 0L0 0" stroke="none" fill="#FF387D" fill-rule="evenodd" fill-opacity="0.2980392" /></g></g><g clip-path="url(#18)"><g><path transform="matrix(1 0 0 -1 0 1552)" d="M0 2466L1176 1290L1176 1290L1176 -1041L1176 -1041L0 135" stroke="none" fill="url(#9289)" /><path transform="matrix(1 0 0 -1 0 1552)" d="M0 2465.161L1176 1289.161L1176 1289.161L1176 1552L1176 1552L0 1552" stroke="none" fill="#FFD800" fill-rule="evenodd" fill-opacity="0.2980392" /><path transform="matrix(1 0 0 -1 0 1552)" d="M0 135.963L1176 -1040.037L1176 -1040.037L1176 0L1176 0L0 0" stroke="none" fill="#FF387D" fill-rule="evenodd" fill-opacity="0.2980392" /></g></g><g clip-path="url(#19)"><g><path transform="matrix(1 0 0 -1 0 1552)" d="M0 2465L1176 1289L1176 1289L1176 -1042L1176 -1042L0 134" stroke="none" fill="url(#9887)" /><path transform="matrix(1 0 0 -1 0 1552)" d="M0 2464.424L1176 1288.424L1176 1288.424L1176 1552L1176 1552L0 1552" stroke="none" fill="#FFD800" fill-rule="evenodd" fill-opacity="0.2980392" /><path transform="matrix(1 0 0 -1 0 1552)" d="M0 135.2181L1176 -1040.782L1176 -1040.782L1176 0L1176 0L0 0" stroke="none" fill="#FF387D" fill-rule="evenodd" fill-opacity="0.2980392" /></g></g><g clip-path="url(#20)"><g><path transform="matrix(1 0 0 -1 0 1552)" d="M0 2465L1176 1289L1176 1289L1176 -1043L1176 -1043L0 133" stroke="none" fill="url(#10484)" /><path transform="matrix(1 0 0 -1 0 1552)" d="M0 2463.694L1176 1287.694L1176 1287.694L1176 1552L1176 1552L0 1552" stroke="none" fill="#FFD800" fill-rule="evenodd" fill-opacity="0.2980392" /><path transform="matrix(1 0 0 -1 0 1552)" d="M0 134.464L1176 -1041.536L1176 -1041.536L1176 0L1176 0L0 0" stroke="none" fill="#FF387D" fill-rule="evenodd" fill-opacity="0.2980392" /></g></g></g></g></g><g clip-path="url(#21)"><path transform="matrix(1 0 0 -1 0 1552)" d="M1176.34 0.49L0 0.49L0 0.49L0 1552.877L0 1552.877L1176.34 1552.877z" stroke="#E6E7E8" stroke-width="1" fill="none" /><g><g clip-path="url(#22)"><g clip-path="url(#23)"><g><path transform="matrix(1 0 0 -1 0 1552)" d="M1019.149 0L1019.149 1552L1019.149 1552L1176.34 1552L1176.34 1552L1176.34 0" stroke="none" fill="url(#11392)" /><path transform="matrix(1 0 0 -1 0 1552)" d="M1019.149 0L1019.149 1552L1019.149 1552L0 1552L0 1552L0 0" stroke="none" fill="#4C216D" fill-rule="evenodd" fill-opacity="0.4980392" /><path transform="matrix(1 0 0 -1 0 1552)" d="M1176.34 0L1176.34 1552L1176.34 1552L1176 1552L1176 1552L1176 0" stroke="none" fill="#B83F54" fill-rule="evenodd" fill-opacity="0.4980392" /></g></g></g></g><g><g clip-path="url(#24)"></g></g></g><g clip-path="url(#25)"><g transform="matrix(0.2398164 0 0 0.2382367 752.501 1466.534)"><g transform="matrix(1 0 0 1 0 0)"><image x="0" y="0" xlink:href="img_07.png" width="207" height="125" /></g></g></g><path transform="matrix(1 0 0 -1 0 1552)" d="M813.9316 80.2148L813.9316 64.1328" stroke="#797A7C" stroke-width="1" fill="none" /><g clip-path="url(#26)"><g clip-path="url(#27)"><g clip-path="url(#28)"><g clip-path="url(#29)"><g><g clip-path="url(#30)"><g clip-path="url(#31)"><g><path transform="matrix(1 0 0 -1 0 1552)" d="M0 -2187L1176 -814L1176 -814L1176 2698L1176 2698L0 1325" stroke="none" fill="url(#13540)" /><path transform="matrix(1 0 0 -1 0 1552)" d="M0 -2186.041L1176 -812.8996L1176 -812.8996L1176 0L1176 0L0 0" stroke="none" fill="#4C216D" fill-rule="evenodd" fill-opacity="0.8980392" /><path transform="matrix(1 0 0 -1 0 1552)" d="M0 1323.972L1176 2697.114L1176 2697.114L1176 1552L1176 1552L0 1552" stroke="none" fill="#B83F54" fill-rule="evenodd" fill-opacity="0.8980392" /></g></g></g></g></g></g></g></g><path transform="matrix(1 0 0 -1 0 1552)" d="M207.757 1349.094L146.786 1349.094L146.786 1349.094L146.786 1436.417L146.786 1436.417L207.757 1436.417z" stroke="none" fill="#E2D7E2" fill-rule="winding" /><path transform="matrix(1 0 0 -1 0 1552)" d="M393.163 1349.094L209.996 1349.094L209.996 1349.094L209.996 1436.417L209.996 1436.417L393.163 1436.417z" stroke="none" fill="#E2D7E2" fill-rule="winding" /><path transform="matrix(1 0 0 -1 0 1552)" d="M207.757 1150.598L146.786 1150.598L146.786 1150.598L146.786 1346.401L146.786 1346.401L207.757 1346.401z" stroke="none" fill="#F2F2F2" fill-rule="winding" /><path transform="matrix(1 0 0 -1 0 1552)" d="M393.163 1150.598L209.996 1150.598L209.996 1150.598L209.996 1346.401L209.996 1346.401L393.163 1346.401z" stroke="none" fill="#E8E8E8" fill-rule="winding" /><path transform="matrix(1 0 0 -1 0 1552)" d="M725.164 1349.094L552.164 1349.094L552.164 1349.094L552.164 1436.417L552.164 1436.417L725.164 1436.417z" stroke="none" fill="#E2D7E2" fill-rule="winding" /><path transform="matrix(1 0 0 -1 0 1552)" d="M835.327 1349.094L727.761 1349.094L727.761 1349.094L727.761 1436.417L727.761 1436.417L835.327 1436.417z" stroke="none" fill="#E2D7E2" fill-rule="winding" /><path transform="matrix(1 0 0 -1 0 1552)" d="M835.327 564.937L727.761 564.937L727.761 564.937L727.761 1346.535L727.761 1346.535L835.327 1346.535z" stroke="none" fill="#E8E8E8" fill-rule="winding" /><path transform="matrix(1 0 0 -1 0 1552)" d="M945.892 1349.094L838.327 1349.094L838.327 1349.094L838.327 1436.417L838.327 1436.417L945.892 1436.417z" stroke="none" fill="#E2D7E2" fill-rule="winding" /><path transform="matrix(1 0 0 -1 0 1552)" d="M945.892 564.937L838.327 564.937L838.327 564.937L838.327 1346.535L838.327 1346.535L945.892 1346.535z" stroke="none" fill="#F2F2F2" fill-rule="winding" /><path transform="matrix(1 0 0 -1 0 1552)" d="M1056.401 1349.094L948.835 1349.094L948.835 1349.094L948.835 1436.417L948.835 1436.417L1056.401 1436.417z" stroke="none" fill="#E2D7E2" fill-rule="winding" /><path transform="matrix(1 0 0 -1 0 1552)" d="M1056.401 564.937L948.835 564.937L948.835 564.937L948.835 1346.535L948.835 1346.535L1056.401 1346.535z" stroke="none" fill="#E8E8E8" fill-rule="winding" /><path transform="matrix(1 0 0 -1 0 1552)" d="M471.163 1349.094L396.163 1349.094L396.163 1349.094L396.163 1436.417L396.163 1436.417L471.163 1436.417z" stroke="none" fill="#E2D7E2" fill-rule="winding" /><path transform="matrix(1 0 0 -1 0 1552)" d="M549.164 1349.094L474.164 1349.094L474.164 1349.094L474.164 1436.417L474.164 1436.417L549.164 1436.417z" stroke="none" fill="#E2D7E2" fill-rule="winding" /><path transform="matrix(1 0 0 -1 0 1552)" d="M725.164 1309.289L552.164 1309.289L552.164 1309.289L552.164 1346.401L552.164 1346.401L725.164 1346.401z" stroke="none" fill="#F2F2F2" fill-rule="winding" /><path transform="matrix(1 0 0 -1 0 1552)" d="M471.163 1309.289L396.163 1309.289L396.163 1309.289L396.163 1346.401L396.163 1346.401L471.163 1346.401z" stroke="none" fill="#F2F2F2" fill-rule="winding" /><path transform="matrix(1 0 0 -1 0 1552)" d="M549.164 1309.289L474.164 1309.289L474.164 1309.289L474.164 1346.401L474.164 1346.401L549.164 1346.401z" stroke="none" fill="#E8E8E8" fill-rule="winding" /><path transform="matrix(1 0 0 -1 0 1552)" d="M725.164 1269.616L552.164 1269.616L552.164 1269.616L552.164 1306.728L552.164 1306.728L725.164 1306.728z" stroke="none" fill="#F2F2F2" fill-rule="winding" /><path transform="matrix(1 0 0 -1 0 1552)" d="M471.163 1269.616L396.163 1269.616L396.163 1269.616L396.163 1306.728L396.163 1306.728L471.163 1306.728z" stroke="none" fill="#F2F2F2" fill-rule="winding" /><path transform="matrix(1 0 0 -1 0 1552)" d="M549.164 1269.616L474.164 1269.616L474.164 1269.616L474.164 1306.728L474.164 1306.728L549.164 1306.728z" stroke="none" fill="#E8E8E8" fill-rule="winding" /><path transform="matrix(1 0 0 -1 0 1552)" d="M725.164 1229.943L552.164 1229.943L552.164 1229.943L552.164 1267.056L552.164 1267.056L725.164 1267.056z" stroke="none" fill="#F2F2F2" fill-rule="winding" /><path transform="matrix(1 0 0 -1 0 1552)" d="M471.163 1229.943L396.163 1229.943L396.163 1229.943L396.163 1267.056L396.163 1267.056L471.163 1267.056z" stroke="none" fill="#F2F2F2" fill-rule="winding" /><path transform="matrix(1 0 0 -1 0 1552)" d="M549.164 1229.943L474.164 1229.943L474.164 1229.943L474.164 1267.056L474.164 1267.056L549.164 1267.056z" stroke="none" fill="#E8E8E8" fill-rule="winding" /><path transform="matrix(1 0 0 -1 0 1552)" d="M725.164 1190.271L552.164 1190.271L552.164 1190.271L552.164 1227.383L552.164 1227.383L725.164 1227.383z" stroke="none" fill="#F2F2F2" fill-rule="winding" /><path transform="matrix(1 0 0 -1 0 1552)" d="M471.163 1190.271L396.163 1190.271L396.163 1190.271L396.163 1227.383L396.163 1227.383L471.163 1227.383z" stroke="none" fill="#F2F2F2" fill-rule="winding" /><path transform="matrix(1 0 0 -1 0 1552)" d="M549.164 1190.271L474.164 1190.271L474.164 1190.271L474.164 1227.383L474.164 1227.383L549.164 1227.383z" stroke="none" fill="#E8E8E8" fill-rule="winding" /><path transform="matrix(1 0 0 -1 0 1552)" d="M725.164 1150.598L552.164 1150.598L552.164 1150.598L552.164 1187.711L552.164 1187.711L725.164 1187.711z" stroke="none" fill="#F2F2F2" fill-rule="winding" /><path transform="matrix(1 0 0 -1 0 1552)" d="M471.163 1150.598L396.163 1150.598L396.163 1150.598L396.163 1187.711L396.163 1187.711L471.163 1187.711z" stroke="none" fill="#F2F2F2" fill-rule="winding" /><path transform="matrix(1 0 0 -1 0 1552)" d="M549.164 1150.598L474.164 1150.598L474.164 1150.598L474.164 1187.711L474.164 1187.711L549.164 1187.711z" stroke="none" fill="#E8E8E8" fill-rule="winding" /><path transform="matrix(1 0 0 -1 0 1552)" d="M207.757 784.56L146.786 784.56L146.786 784.56L146.786 1148.039L146.786 1148.039L207.757 1148.039z" stroke="none" fill="#F2F2F2" fill-rule="winding" /><path transform="matrix(1 0 0 -1 0 1552)" d="M393.163 784.56L209.996 784.56L209.996 784.56L209.996 1148.039L209.996 1148.039L393.163 1148.039z" stroke="none" fill="#E8E8E8" fill-rule="winding" /><path transform="matrix(1 0 0 -1 0 1552)" d="M725.164 1077.391L552.164 1077.391L552.164 1077.391L552.164 1148.038L552.164 1148.038L725.164 1148.038z" stroke="none" fill="#F2F2F2" fill-rule="winding" /><path transform="matrix(1 0 0 -1 0 1552)" d="M471.163 1077.391L396.163 1077.391L396.163 1077.391L396.163 1148.038L396.163 1148.038L471.163 1148.038z" stroke="none" fill="#F2F2F2" fill-rule="winding" /><path transform="matrix(1 0 0 -1 0 1552)" d="M549.164 1077.391L474.164 1077.391L474.164 1077.391L474.164 1148.038L474.164 1148.038L549.164 1148.038z" stroke="none" fill="#E8E8E8" fill-rule="winding" /><path transform="matrix(1 0 0 -1 0 1552)" d="M725.164 1004.183L552.164 1004.183L552.164 1004.183L552.164 1074.83L552.164 1074.83L725.164 1074.83z" stroke="none" fill="#F2F2F2" fill-rule="winding" /><path transform="matrix(1 0 0 -1 0 1552)" d="M471.163 1004.183L396.163 1004.183L396.163 1004.183L396.163 1074.83L396.163 1074.83L471.163 1074.83z" stroke="none" fill="#F2F2F2" fill-rule="winding" /><path transform="matrix(1 0 0 -1 0 1552)" d="M549.164 1004.183L474.164 1004.183L474.164 1004.183L474.164 1074.83L474.164 1074.83L549.164 1074.83z" stroke="none" fill="#E8E8E8" fill-rule="winding" /><path transform="matrix(1 0 0 -1 0 1552)" d="M725.164 930.975L552.164 930.975L552.164 930.975L552.164 1001.623L552.164 1001.623L725.164 1001.623z" stroke="none" fill="#F2F2F2" fill-rule="winding" /><path transform="matrix(1 0 0 -1 0 1552)" d="M471.163 930.975L396.163 930.975L396.163 930.975L396.163 1001.623L396.163 1001.623L471.163 1001.623z" stroke="none" fill="#F2F2F2" fill-rule="winding" /><path transform="matrix(1 0 0 -1 0 1552)" d="M549.164 930.975L474.164 930.975L474.164 930.975L474.164 1001.623L474.164 1001.623L549.164 1001.623z" stroke="none" fill="#E8E8E8" fill-rule="winding" /><path transform="matrix(1 0 0 -1 0 1552)" d="M725.164 857.768L552.164 857.768L552.164 857.768L552.164 928.415L552.164 928.415L725.164 928.415z" stroke="none" fill="#F2F2F2" fill-rule="winding" /><path transform="matrix(1 0 0 -1 0 1552)" d="M471.163 857.768L396.163 857.768L396.163 857.768L396.163 928.415L396.163 928.415L471.163 928.415z" stroke="none" fill="#F2F2F2" fill-rule="winding" /><path transform="matrix(1 0 0 -1 0 1552)" d="M549.164 857.768L474.164 857.768L474.164 857.768L474.164 928.415L474.164 928.415L549.164 928.415z" stroke="none" fill="#E8E8E8" fill-rule="winding" /><path transform="matrix(1 0 0 -1 0 1552)" d="M725.164 784.56L552.164 784.56L552.164 784.56L552.164 855.207L552.164 855.207L725.164 855.207z" stroke="none" fill="#F2F2F2" fill-rule="winding" /><path transform="matrix(1 0 0 -1 0 1552)" d="M471.163 784.56L396.163 784.56L396.163 784.56L396.163 855.207L396.163 855.207L471.163 855.207z" stroke="none" fill="#F2F2F2" fill-rule="winding" /><path transform="matrix(1 0 0 -1 0 1552)" d="M549.164 784.56L474.164 784.56L474.164 784.56L474.164 855.207L474.164 855.207L549.164 855.207z" stroke="none" fill="#E8E8E8" fill-rule="winding" /><path transform="matrix(1 0 0 -1 0 1552)" d="M207.757 638.145L146.786 638.145L146.786 638.145L146.786 782L146.786 782L207.757 782z" stroke="none" fill="#F2F2F2" fill-rule="winding" /><path transform="matrix(1 0 0 -1 0 1552)" d="M393.163 638.145L209.996 638.145L209.996 638.145L209.996 782L209.996 782L393.163 782z" stroke="none" fill="#E8E8E8" fill-rule="winding" /><path transform="matrix(1 0 0 -1 0 1552)" d="M207.757 563.657L146.786 563.657L146.786 563.657L146.786 635.585L146.786 635.585L207.757 635.585z" stroke="none" fill="#F2F2F2" fill-rule="winding" /><path transform="matrix(1 0 0 -1 0 1552)" d="M393.163 563.657L209.996 563.657L209.996 563.657L209.996 635.585L209.996 635.585L393.163 635.585z" stroke="none" fill="#E8E8E8" fill-rule="winding" /><path transform="matrix(1 0 0 -1 0 1552)" d="M725.164 711.352L552.164 711.352L552.164 711.352L552.164 782L552.164 782L725.164 782z" stroke="none" fill="#F2F2F2" fill-rule="winding" /><path transform="matrix(1 0 0 -1 0 1552)" d="M471.163 711.352L396.163 711.352L396.163 711.352L396.163 782L396.163 782L471.163 782z" stroke="none" fill="#F2F2F2" fill-rule="winding" /><path transform="matrix(1 0 0 -1 0 1552)" d="M549.164 711.352L474.164 711.352L474.164 711.352L474.164 782L474.164 782L549.164 782z" stroke="none" fill="#E8E8E8" fill-rule="winding" /><path transform="matrix(1 0 0 -1 0 1552)" d="M725.164 638.145L552.164 638.145L552.164 638.145L552.164 708.792L552.164 708.792L725.164 708.792z" stroke="none" fill="#F2F2F2" fill-rule="winding" /><path transform="matrix(1 0 0 -1 0 1552)" d="M471.163 638.145L396.163 638.145L396.163 638.145L396.163 708.792L396.163 708.792L471.163 708.792z" stroke="none" fill="#F2F2F2" fill-rule="winding" /><path transform="matrix(1 0 0 -1 0 1552)" d="M549.164 638.145L474.164 638.145L474.164 638.145L474.164 708.792L474.164 708.792L549.164 708.792z" stroke="none" fill="#E8E8E8" fill-rule="winding" /><path transform="matrix(1 0 0 -1 0 1552)" d="M725.164 564.937L552.164 564.937L552.164 564.937L552.164 635.584L552.164 635.584L725.164 635.584z" stroke="none" fill="#F2F2F2" fill-rule="winding" /><path transform="matrix(1 0 0 -1 0 1552)" d="M471.163 564.937L396.163 564.937L396.163 564.937L396.163 635.584L396.163 635.584L471.163 635.584z" stroke="none" fill="#F2F2F2" fill-rule="winding" /><path transform="matrix(1 0 0 -1 0 1552)" d="M549.164 564.937L474.164 564.937L474.164 564.937L474.164 635.584L474.164 635.584L549.164 635.584z" stroke="none" fill="#E8E8E8" fill-rule="winding" /></g></g></g><defs><clipPath id="1"><path d="M0 1552L0 -0.3900146L0 -0.3900146L1176.34 -0.3900146L1176.34 -0.3900146L1176.34 1552L1176.34 1552L0 1552z" /></clipPath><clipPath id="2"><path d="M0 1552L1176.34 1552L1176.34 1552L1176.34 -0.3869629L1176.34 -0.3869629L0 -0.3869629z" /></clipPath><clipPath id="3"><path d="M-451.364 309.03L1585.01 309.03L1585.01 309.03L1585.01 1785.981L1585.01 1785.981L-451.364 1785.981z" /></clipPath><clipPath id="4"><path d="M466.662 1160.639L465.751 1159.692L465.751 1159.692L-150.538 519.126L-150.538 519.126L-148.715 517.2419L-148.715 517.2419L466.662 1156.871L466.662 1156.871L1282.357 309.035L1282.357 309.035L1284.179 310.917z" /></clipPath><linearGradient transform="matrix(1 0 0 1 0 0)" id="933" x1="-204.3939" y1="1515.309" x2="-204.39391515.309" y2="-204.39391165.617"><stop stop-color="#FFD800" offset="0%" /><stop stop-color="#FF387D" offset="100%" /></linearGradient><clipPath id="5"><path d="M466.662 1199.71L465.751 1198.774L465.751 1198.774L-169.338 538.667L-169.338 538.667L-167.516 536.784L-167.516 536.784L466.662 1195.943L466.662 1195.943L1301.158 328.576L1301.158 328.576L1302.979 330.459z" /></clipPath><linearGradient transform="matrix(1 0 0 1 0 0)" id="1530" x1="-194.8044" y1="1504.986" x2="-194.80441504.986" y2="-194.80441165.61"><stop stop-color="#FFD800" offset="0%" /><stop stop-color="#FF387D" offset="100%" /></linearGradient><clipPath id="6"><path d="M466.662 1238.802L465.751 1237.866L465.751 1237.866L-188.139 558.208L-188.139 558.208L-186.316 556.325L-186.316 556.325L466.662 1235.035L466.662 1235.035L1319.958 348.1169L1319.958 348.1169L1321.78 350z" /></clipPath><linearGradient transform="matrix(1 0 0 1 0 0)" id="2125" x1="-185.2222" y1="1494.657" x2="-185.22221494.657" y2="-185.22221165.616"><stop stop-color="#FFD800" offset="0%" /><stop stop-color="#FF387D" offset="100%" /></linearGradient><clipPath id="7"><path d="M466.662 1277.884L465.751 1276.948L465.751 1276.948L-206.938 577.749L-206.938 577.749L-205.117 575.866L-205.117 575.866L466.662 1274.118L466.662 1274.118L1338.758 367.657L1338.758 367.657L1340.58 369.541z" /></clipPath><linearGradient transform="matrix(1 0 0 1 0 0)" id="2723" x1="-175.6332" y1="1484.332" x2="-175.63321484.332" y2="-175.63321165.613"><stop stop-color="#FFD800" offset="0%" /><stop stop-color="#FF387D" offset="100%" /></linearGradient><clipPath id="8"><path d="M466.662 1316.966L465.751 1316.02L465.751 1316.02L-225.739 597.29L-225.739 597.29L-223.918 595.406L-223.918 595.406L466.662 1313.199L466.662 1313.199L1357.559 387.198L1357.559 387.198L1359.381 389.082z" /></clipPath><linearGradient transform="matrix(1 0 0 1 0 0)" id="3318" x1="-166.0524" y1="1474.006" x2="-166.05241474.006" y2="-166.05241165.617"><stop stop-color="#FFD800" offset="0%" /><stop stop-color="#FF387D" offset="100%" /></linearGradient><clipPath id="9"><path d="M466.662 1356.059L465.751 1355.112L465.751 1355.112L-244.549 616.842L-244.549 616.842L-242.727 614.958L-242.727 614.958L466.662 1352.292L466.662 1352.292L1376.369 406.75L1376.369 406.75L1378.191 408.6331z" /></clipPath><linearGradient transform="matrix(1 0 0 1 0 0)" id="3916" x1="-156.4597" y1="1463.677" x2="-156.45971463.677" y2="-156.45971165.612"><stop stop-color="#FFD800" offset="0%" /><stop stop-color="#FF387D" offset="100%" /></linearGradient><clipPath id="10"><path d="M466.662 1395.141L465.751 1394.194L465.751 1394.194L-263.35 636.372L-263.35 636.372L-261.528 634.489L-261.528 634.489L466.662 1391.373L466.662 1391.373L1395.169 426.281L1395.169 426.281L1396.992 428.163z" /></clipPath><linearGradient transform="matrix(1 0 0 1 0 0)" id="4514" x1="-146.8824" y1="1453.355" x2="-146.88241453.355" y2="-146.88241165.62"><stop stop-color="#FFD800" offset="0%" /><stop stop-color="#FF387D" offset="100%" /></linearGradient><clipPath id="11"><path d="M466.662 1434.211L465.751 1433.276L465.751 1433.276L-282.15 655.912L-282.15 655.912L-280.329 654.03L-280.329 654.03L466.662 1430.445L466.662 1430.445L1413.97 445.822L1413.97 445.822L1415.791 447.704z" /></clipPath><linearGradient transform="matrix(1 0 0 1 0 0)" id="5107" x1="-137.2903" y1="1443.032" x2="-137.29031443.032" y2="-137.29031165.61"><stop stop-color="#FFD800" offset="0%" /><stop stop-color="#FF387D" offset="100%" /></linearGradient><clipPath id="12"><path d="M466.662 1473.304L465.751 1472.367L465.751 1472.367L-300.951 675.464L-300.951 675.464L-299.129 673.581L-299.129 673.581L466.662 1469.538L466.662 1469.538L1432.771 465.3719L1432.771 465.3719L1434.592 467.256z" /></clipPath><linearGradient transform="matrix(1 0 0 1 0 0)" id="5708" x1="-127.6963" y1="1432.696" x2="-127.69631432.696" y2="-127.69631165.602"><stop stop-color="#FFD800" offset="0%" /><stop stop-color="#FF387D" offset="100%" /></linearGradient><clipPath id="13"><path d="M466.662 1512.396L465.751 1511.459L465.751 1511.459L-319.752 695.005L-319.752 695.005L-317.929 693.121L-317.929 693.121L466.662 1508.63L466.662 1508.63L1451.572 484.913L1451.572 484.913L1453.393 486.797z" /></clipPath><linearGradient transform="matrix(1 0 0 1 0 0)" id="6306" x1="-118.1104" y1="1422.372" x2="-118.11041422.372" y2="-118.11041165.608"><stop stop-color="#FFD800" offset="0%" /><stop stop-color="#FF387D" offset="100%" /></linearGradient><clipPath id="14"><path d="M466.662 1551.468L465.751 1550.522L465.751 1550.522L-338.551 714.546L-338.551 714.546L-336.73 712.662L-336.73 712.662L466.662 1547.701L466.662 1547.701L1470.37 504.455L1470.37 504.455L1472.194 506.339z" /></clipPath><linearGradient transform="matrix(1 0 0 1 0 0)" id="6902" x1="-108.5244" y1="1412.044" x2="-108.52441412.044" y2="-108.52441165.6"><stop stop-color="#FFD800" offset="0%" /><stop stop-color="#FF387D" offset="100%" /></linearGradient><clipPath id="15"><path d="M466.662 1590.561L465.761 1589.614L465.761 1589.614L-357.352 734.088L-357.352 734.088L-355.531 732.204L-355.531 732.204L466.662 1586.794L466.662 1586.794L1489.171 523.996L1489.171 523.996L1490.994 525.879z" /></clipPath><linearGradient transform="matrix(1 0 0 1 0 0)" id="7500" x1="-98.94189" y1="1401.72" x2="-98.941891401.72" y2="-98.941891165.609"><stop stop-color="#FFD800" offset="0%" /><stop stop-color="#FF387D" offset="100%" /></linearGradient><clipPath id="16"><path d="M466.662 1629.653L465.761 1628.706L465.761 1628.706L-376.162 753.628L-376.162 753.628L-374.34 751.745L-374.34 751.745L466.662 1625.886L466.662 1625.886L1507.982 543.537L1507.982 543.537L1509.804 545.42z" /></clipPath><linearGradient transform="matrix(1 0 0 1 0 0)" id="8095" x1="-89.35022" y1="1391.391" x2="-89.350221391.391" y2="-89.350221165.601"><stop stop-color="#FFD800" offset="0%" /><stop stop-color="#FF387D" offset="100%" /></linearGradient><clipPath id="17"><path d="M466.662 1668.724L465.751 1667.787L465.751 1667.787L-394.962 773.169L-394.962 773.169L-393.141 771.286L-393.141 771.286L466.662 1664.958L466.662 1664.958L1526.783 563.078L1526.783 563.078L1528.604 564.961z" /></clipPath><linearGradient transform="matrix(1 0 0 1 0 0)" id="8695" x1="-79.76074" y1="1381.068" x2="-79.760741381.068" y2="-79.760741165.594"><stop stop-color="#FFD800" offset="0%" /><stop stop-color="#FF387D" offset="100%" /></linearGradient><clipPath id="18"><path d="M466.662 1707.807L465.751 1706.87L465.751 1706.87L-413.763 792.71L-413.763 792.71L-411.941 790.827L-411.941 790.827L466.662 1704.04L466.662 1704.04L1545.582 582.618L1545.582 582.618L1547.405 584.502z" /></clipPath><linearGradient transform="matrix(1 0 0 1 0 0)" id="9289" x1="-70.17993" y1="1370.742" x2="-70.179931370.742" y2="-70.179931165.599"><stop stop-color="#FFD800" offset="0%" /><stop stop-color="#FF387D" offset="100%" /></linearGradient><clipPath id="19"><path d="M466.662 1746.899L465.751 1745.962L465.751 1745.962L-432.564 812.262L-432.564 812.262L-430.742 810.378L-430.742 810.378L466.662 1743.132L466.662 1743.132L1564.383 602.17L1564.383 602.17L1566.205 604.054z" /></clipPath><linearGradient transform="matrix(1 0 0 1 0 0)" id="9887" x1="-60.5918" y1="1360.413" x2="-60.59181360.413" y2="-60.59181165.603"><stop stop-color="#FFD800" offset="0%" /><stop stop-color="#FF387D" offset="100%" /></linearGradient><clipPath id="20"><path d="M466.662 1785.981L465.751 1785.033L465.751 1785.033L-451.364 831.803L-451.364 831.803L-449.551 829.919L-449.551 829.919L466.662 1782.214L466.662 1782.214L1583.194 621.711L1583.194 621.711L1585.006 623.594z" /></clipPath><linearGradient transform="matrix(1 0 0 1 0 0)" id="10484" x1="-51.0155" y1="1350.094" x2="-51.01551350.094" y2="-51.01551165.615"><stop stop-color="#FFD800" offset="0%" /><stop stop-color="#FF387D" offset="100%" /></linearGradient><clipPath id="21"><path d="M0 -0.3869629L1176.341 -0.3869629L1176.341 -0.3869629L1176.341 1552L1176.341 1552L0 1552z" /></clipPath><clipPath id="22"><path d="M1019.15 1459.436L1176.34 1459.436L1176.34 1459.436L1176.34 1501.436L1176.34 1501.436L1019.15 1501.436z" /></clipPath><clipPath id="23"><path d="M1176.34 1501.436L1019.15 1501.436L1019.15 1501.436L1019.15 1459.436L1019.15 1459.436L1176.34 1459.436z" /></clipPath><linearGradient transform="matrix(1 0 0 1 0 0)" id="11392" x1="1019.149" y1="150.1597" x2="1019.149150.1597" y2="1019.149157.1904"><stop stop-color="#4C216D" offset="0%" /><stop stop-color="#B83F54" offset="100%" /></linearGradient><clipPath id="24"><path d="M823.456 1470.587L1002.89 1470.587L1002.89 1470.587L1002.89 1492.981L1002.89 1492.981L823.456 1492.981z" /></clipPath><clipPath id="25"><path d="M752.501 1496.313L802.1429 1496.313L802.1429 1496.313L802.1429 1466.534L802.1429 1466.534L752.501 1466.534z" /></clipPath><clipPath id="26"><path d="M0 -0.3869629L1176.341 -0.3869629L1176.341 -0.3869629L1176.341 1552L1176.341 1552L0 1552z" /></clipPath><clipPath id="27"><path d="M2485.799 -578.8049L1428 -578.8049L1428 -578.8049L1428 -653.4829L1428 -653.4829L2485.799 -653.4829z" /></clipPath><clipPath id="28"><path d="M2485.799 135.085L1428 135.085L1428 135.085L1428 -1254.797L1428 -1254.797L2485.799 -1254.797z" /></clipPath><clipPath id="29"><path d="M2754.579 -713.593L2357.655 431.406L2357.655 431.406L1274.932 113.748L1274.932 113.748L949.514 -966.001L949.514 -966.001L2036.861 -1837.956L2036.861 -1837.956L2648.578 -1024.488z" /></clipPath><clipPath id="30"><path d="M944.768 -969.6499L2930.14 -969.6499L2930.14 -969.6499L2930.14 185.24L2930.14 185.24L944.768 185.24z" /></clipPath><clipPath id="31"><path d="M1429.833 185.236L2855.654 182.183L2855.654 182.183L2930.141 -969.6509L2930.141 -969.6509L944.768 -965.3831z" /></clipPath><linearGradient transform="matrix(1 0 0 1 0 0)" id="13540" x1="1228.34" y1="2759.227" x2="1228.342759.227" y2="1228.341486.015"><stop stop-color="#4C216D" offset="0%" /><stop stop-color="#B83F54" offset="100%" /></linearGradient></defs></svg>