<svg xmlns="http://www.w3.org/2000/svg" xmlns:xlink="http://www.w3.org/1999/xlink" id="body_3" preserveAspectRatio="xMinYMin meet" viewBox="0 0 1568 2069"><g transform="matrix(1.333333 0 0 1.333333 0 0)"><g><g clip-path="url(#1)"><g clip-path="url(#2)"><g><g clip-path="url(#3)"><g clip-path="url(#4)"><g><path transform="matrix(1 0 0 -1 0 1552)" d="M0 -1289L1176 84L1176 84L1176 3596L1176 3596L0 2223" stroke="none" fill="url(#822)" /><path transform="matrix(1 0 0 -1 0 1552)" d="M0 -1288.34L1176 84.80183L1176 84.80183L1176 0L1176 0L0 0" stroke="none" fill="#4C216D" fill-rule="evenodd" fill-opacity="0.8980392" /><path transform="matrix(1 0 0 -1 0 1552)" d="M0 2221.673L1176 3594.815L1176 3594.815L1176 1552L1176 1552L0 1552" stroke="none" fill="#B83F54" fill-rule="evenodd" fill-opacity="0.8980392" /></g></g></g></g><g><g clip-path="url(#5)"><g clip-path="url(#6)"><g><path transform="matrix(1 0 0 -1 0 1552)" d="M0 3423L1176 2224L1176 2224L1176 265L1176 265L0 1464" stroke="none" fill="url(#1633)" /><path transform="matrix(1 0 0 -1 0 1552)" d="M0 3422.137L1176 2223.33L1176 2223.33L1176 1552L1176 1552L0 1552" stroke="none" fill="#FFD800" fill-rule="evenodd" fill-opacity="0.1960784" /><path transform="matrix(1 0 0 -1 0 1552)" d="M0 1465.144L1176 266.3361L1176 266.3361L1176 0L1176 0L0 0" stroke="none" fill="#FF387D" fill-rule="evenodd" fill-opacity="0.1960784" /></g></g><g clip-path="url(#7)"><g><path transform="matrix(1 0 0 -1 0 1552)" d="M0 3423L1176 2224L1176 2224L1176 266L1176 266L0 1465" stroke="none" fill="url(#2240)" /><path transform="matrix(1 0 0 -1 0 1552)" d="M0 3421.553L1176 2222.746L1176 2222.746L1176 1552L1176 1552L0 1552" stroke="none" fill="#FFD800" fill-rule="evenodd" fill-opacity="0.1960784" /><path transform="matrix(1 0 0 -1 0 1552)" d="M0 1465.986L1176 267.1789L1176 267.1789L1176 0L1176 0L0 0" stroke="none" fill="#FF387D" fill-rule="evenodd" fill-opacity="0.1960784" /></g></g><g clip-path="url(#8)"><g><path transform="matrix(1 0 0 -1 0 1552)" d="M0 3422L1176 2223L1176 2223L1176 267L1176 267L0 1466" stroke="none" fill="url(#2842)" /><path transform="matrix(1 0 0 -1 0 1552)" d="M0 3420.969L1176 2222.162L1176 2222.162L1176 1552L1176 1552L0 1552" stroke="none" fill="#FFD800" fill-rule="evenodd" fill-opacity="0.1960784" /><path transform="matrix(1 0 0 -1 0 1552)" d="M0 1466.771L1176 267.9638L1176 267.9638L1176 0L1176 0L0 0" stroke="none" fill="#FF387D" fill-rule="evenodd" fill-opacity="0.1960784" /></g></g><g clip-path="url(#9)"><g><path transform="matrix(1 0 0 -1 0 1552)" d="M0 3421L1176 2223L1176 2223L1176 268L1176 268L0 1466" stroke="none" fill="url(#3442)" /><path transform="matrix(1 0 0 -1 0 1552)" d="M0 3420.383L1176 2221.575L1176 2221.575L1176 1552L1176 1552L0 1552" stroke="none" fill="#FFD800" fill-rule="evenodd" fill-opacity="0.1960784" /><path transform="matrix(1 0 0 -1 0 1552)" d="M0 1467.483L1176 268.6755L1176 268.6755L1176 0L1176 0L0 0" stroke="none" fill="#FF387D" fill-rule="evenodd" fill-opacity="0.1960784" /></g></g><g clip-path="url(#10)"><g><path transform="matrix(1 0 0 -1 0 1552)" d="M0 3421L1176 2222L1176 2222L1176 268L1176 268L0 1467" stroke="none" fill="url(#4037)" /><path transform="matrix(1 0 0 -1 0 1552)" d="M0 3419.794L1176 2220.987L1176 2220.987L1176 1552L1176 1552L0 1552" stroke="none" fill="#FFD800" fill-rule="evenodd" fill-opacity="0.1960784" /><path transform="matrix(1 0 0 -1 0 1552)" d="M0 1468.144L1176 269.3362L1176 269.3362L1176 0L1176 0L0 0" stroke="none" fill="#FF387D" fill-rule="evenodd" fill-opacity="0.1960784" /></g></g><g clip-path="url(#11)"><g><path transform="matrix(1 0 0 -1 0 1552)" d="M0 3420L1176 2221L1176 2221L1176 269L1176 269L0 1468" stroke="none" fill="url(#4640)" /><path transform="matrix(1 0 0 -1 0 1552)" d="M0 3419.209L1176 2220.402L1176 2220.402L1176 1552L1176 1552L0 1552" stroke="none" fill="#FFD800" fill-rule="evenodd" fill-opacity="0.1960784" /><path transform="matrix(1 0 0 -1 0 1552)" d="M0 1468.759L1176 269.9515L1176 269.9515L1176 0L1176 0L0 0" stroke="none" fill="#FF387D" fill-rule="evenodd" fill-opacity="0.1960784" /></g></g><g clip-path="url(#12)"><g><path transform="matrix(1 0 0 -1 0 1552)" d="M0 3420L1176 2221L1176 2221L1176 270L1176 270L0 1468" stroke="none" fill="url(#5236)" /><path transform="matrix(1 0 0 -1 0 1552)" d="M0 3418.619L1176 2219.812L1176 2219.812L1176 1552L1176 1552L0 1552" stroke="none" fill="#FFD800" fill-rule="evenodd" fill-opacity="0.1960784" /><path transform="matrix(1 0 0 -1 0 1552)" d="M0 1469.33L1176 270.5222L1176 270.5222L1176 0L1176 0L0 0" stroke="none" fill="#FF387D" fill-rule="evenodd" fill-opacity="0.1960784" /></g></g><g clip-path="url(#13)"><g><path transform="matrix(1 0 0 -1 0 1552)" d="M0 3419L1176 2220L1176 2220L1176 270L1176 270L0 1469" stroke="none" fill="url(#5833)" /><path transform="matrix(1 0 0 -1 0 1552)" d="M0 3418.021L1176 2219.214L1176 2219.214L1176 1552L1176 1552L0 1552" stroke="none" fill="#FFD800" fill-rule="evenodd" fill-opacity="0.1960784" /><path transform="matrix(1 0 0 -1 0 1552)" d="M0 1469.854L1176 271.0463L1176 271.0463L1176 0L1176 0L0 0" stroke="none" fill="#FF387D" fill-rule="evenodd" fill-opacity="0.1960784" /></g></g><g clip-path="url(#14)"><g><path transform="matrix(1 0 0 -1 0 1552)" d="M0 3418L1176 2220L1176 2220L1176 271L1176 271L0 1469" stroke="none" fill="url(#6435)" /><path transform="matrix(1 0 0 -1 0 1552)" d="M0 3417.437L1176 2218.629L1176 2218.629L1176 1552L1176 1552L0 1552" stroke="none" fill="#FFD800" fill-rule="evenodd" fill-opacity="0.1960784" /><path transform="matrix(1 0 0 -1 0 1552)" d="M0 1470.336L1176 271.5284L1176 271.5284L1176 0L1176 0L0 0" stroke="none" fill="#FF387D" fill-rule="evenodd" fill-opacity="0.1960784" /></g></g><g clip-path="url(#15)"><g><path transform="matrix(1 0 0 -1 0 1552)" d="M0 3418L1176 2219L1176 2219L1176 271L1176 271L0 1470" stroke="none" fill="url(#7028)" /><path transform="matrix(1 0 0 -1 0 1552)" d="M0 3416.836L1176 2218.029L1176 2218.029L1176 1552L1176 1552L0 1552" stroke="none" fill="#FFD800" fill-rule="evenodd" fill-opacity="0.1960784" /><path transform="matrix(1 0 0 -1 0 1552)" d="M0 1470.766L1176 271.9582L1176 271.9582L1176 0L1176 0L0 0" stroke="none" fill="#FF387D" fill-rule="evenodd" fill-opacity="0.1960784" /></g></g><g clip-path="url(#16)"><g><path transform="matrix(1 0 0 -1 0 1552)" d="M0 3417L1176 2218L1176 2218L1176 271L1176 271L0 1470" stroke="none" fill="url(#7627)" /><path transform="matrix(1 0 0 -1 0 1552)" d="M0 3416.251L1176 2217.444L1176 2217.444L1176 1552L1176 1552L0 1552" stroke="none" fill="#FFD800" fill-rule="evenodd" fill-opacity="0.1960784" /><path transform="matrix(1 0 0 -1 0 1552)" d="M0 1471.163L1176 272.3554L1176 272.3554L1176 0L1176 0L0 0" stroke="none" fill="#FF387D" fill-rule="evenodd" fill-opacity="0.1960784" /></g></g><g clip-path="url(#17)"><g><path transform="matrix(1 0 0 -1 0 1552)" d="M0 3417L1176 2218L1176 2218L1176 272L1176 272L0 1471" stroke="none" fill="url(#8232)" /><path transform="matrix(1 0 0 -1 0 1552)" d="M0 3415.653L1176 2216.846L1176 2216.846L1176 1552L1176 1552L0 1552" stroke="none" fill="#FFD800" fill-rule="evenodd" fill-opacity="0.1960784" /><path transform="matrix(1 0 0 -1 0 1552)" d="M0 1471.535L1176 272.7271L1176 272.7271L1176 0L1176 0L0 0" stroke="none" fill="#FF387D" fill-rule="evenodd" fill-opacity="0.1960784" /></g></g><g clip-path="url(#18)"><g><path transform="matrix(1 0 0 -1 0 1552)" d="M0 3416L1176 2217L1176 2217L1176 272L1176 272L0 1471" stroke="none" fill="url(#8835)" /><path transform="matrix(1 0 0 -1 0 1552)" d="M0 3415.059L1176 2216.251L1176 2216.251L1176 1552L1176 1552L0 1552" stroke="none" fill="#FFD800" fill-rule="evenodd" fill-opacity="0.1960784" /><path transform="matrix(1 0 0 -1 0 1552)" d="M0 1471.861L1176 273.0538L1176 273.0538L1176 0L1176 0L0 0" stroke="none" fill="#FF387D" fill-rule="evenodd" fill-opacity="0.1960784" /></g></g><g clip-path="url(#19)"><g><path transform="matrix(1 0 0 -1 0 1552)" d="M0 3415L1176 2217L1176 2217L1176 272L1176 272L0 1471" stroke="none" fill="url(#9431)" /><path transform="matrix(1 0 0 -1 0 1552)" d="M0 3414.464L1176 2215.656L1176 2215.656L1176 1552L1176 1552L0 1552" stroke="none" fill="#FFD800" fill-rule="evenodd" fill-opacity="0.1960784" /><path transform="matrix(1 0 0 -1 0 1552)" d="M0 1472.146L1176 273.3389L1176 273.3389L1176 0L1176 0L0 0" stroke="none" fill="#FF387D" fill-rule="evenodd" fill-opacity="0.1960784" /></g></g><g clip-path="url(#20)"><g><path transform="matrix(1 0 0 -1 0 1552)" d="M0 3415L1176 2216L1176 2216L1176 273L1176 273L0 1471" stroke="none" fill="url(#10030)" /><path transform="matrix(1 0 0 -1 0 1552)" d="M0 3413.871L1176 2215.064L1176 2215.064L1176 1552L1176 1552L0 1552" stroke="none" fill="#FFD800" fill-rule="evenodd" fill-opacity="0.1960784" /><path transform="matrix(1 0 0 -1 0 1552)" d="M0 1472.404L1176 273.5965L1176 273.5965L1176 0L1176 0L0 0" stroke="none" fill="#FF387D" fill-rule="evenodd" fill-opacity="0.1960784" /></g></g><g clip-path="url(#21)"><g><path transform="matrix(1 0 0 -1 0 1552)" d="M0 3414L1176 2215L1176 2215L1176 273L1176 273L0 1472" stroke="none" fill="url(#10624)" /><path transform="matrix(1 0 0 -1 0 1552)" d="M0 3413.284L1176 2214.476L1176 2214.476L1176 1552L1176 1552L0 1552" stroke="none" fill="#FFD800" fill-rule="evenodd" fill-opacity="0.1960784" /><path transform="matrix(1 0 0 -1 0 1552)" d="M0 1472.625L1176 273.8173L1176 273.8173L1176 0L1176 0L0 0" stroke="none" fill="#FF387D" fill-rule="evenodd" fill-opacity="0.1960784" /></g></g></g></g></g><g clip-path="url(#22)"><g clip-path="url(#23)"><g clip-path="url(#24)"><g clip-path="url(#25)"><g><g clip-path="url(#26)"><g clip-path="url(#27)"><g><path transform="matrix(1 0 0 -1 0 1552)" d="M0 -3362L1176 -1989L1176 -1989L1176 1523L1176 1523L0 150" stroke="none" fill="url(#12358)" /><path transform="matrix(1 0 0 -1 0 1552)" d="M0 -3361.288L1176 -1988.146L1176 -1988.146L1176 0L1176 0L0 0" stroke="none" fill="#4C216D" fill-rule="evenodd" fill-opacity="0.8980392" /><path transform="matrix(1 0 0 -1 0 1552)" d="M0 148.7256L1176 1521.867L1176 1521.867L1176 1552L1176 1552L0 1552" stroke="none" fill="#B83F54" fill-rule="evenodd" fill-opacity="0.8980392" /></g></g></g></g><g><g clip-path="url(#28)"><g clip-path="url(#29)"><g><path transform="matrix(1 0 0 -1 0 1552)" d="M0 4416L1176 3218L1176 3218L1176 1273L1176 1273L0 2472" stroke="none" fill="url(#13257)" /><path transform="matrix(1 0 0 -1 0 1552)" d="M0 4415.419L1176 3216.612L1176 3216.612L1176 1552L1176 1552L0 1552" stroke="none" fill="#FFD800" fill-rule="evenodd" fill-opacity="0.1960784" /><path transform="matrix(1 0 0 -1 0 1552)" d="M0 2473.102L1176 1274.295L1176 1274.295L1176 0L1176 0L0 0" stroke="none" fill="#FF387D" fill-rule="evenodd" fill-opacity="0.1960784" /></g></g><g clip-path="url(#30)"><g><path transform="matrix(1 0 0 -1 0 1552)" d="M0 4416L1176 3217L1176 3217L1176 1274L1176 1274L0 2472" stroke="none" fill="url(#13897)" /><path transform="matrix(1 0 0 -1 0 1552)" d="M0 4414.827L1176 3216.02L1176 3216.02L1176 1552L1176 1552L0 1552" stroke="none" fill="#FFD800" fill-rule="evenodd" fill-opacity="0.1960784" /><path transform="matrix(1 0 0 -1 0 1552)" d="M0 2473.359L1176 1274.552L1176 1274.552L1176 0L1176 0L0 0" stroke="none" fill="#FF387D" fill-rule="evenodd" fill-opacity="0.1960784" /></g></g><g clip-path="url(#31)"><g><path transform="matrix(1 0 0 -1 0 1552)" d="M0 4415L1176 3216L1176 3216L1176 1274L1176 1274L0 2473" stroke="none" fill="url(#14537)" /><path transform="matrix(1 0 0 -1 0 1552)" d="M0 4414.24L1176 3215.432L1176 3215.432L1176 1552L1176 1552L0 1552" stroke="none" fill="#FFD800" fill-rule="evenodd" fill-opacity="0.1960784" /><path transform="matrix(1 0 0 -1 0 1552)" d="M0 2473.581L1176 1274.773L1176 1274.773L1176 0L1176 0L0 0" stroke="none" fill="#FF387D" fill-rule="evenodd" fill-opacity="0.1960784" /></g></g></g></g></g></g></g><g clip-path="url(#32)"><g clip-path="url(#33)"><g clip-path="url(#34)"><g><g clip-path="url(#35)"><g clip-path="url(#36)"><g><path transform="matrix(1 0 0 -1 0 1552)" d="M0 -4623L1176 -3250L1176 -3250L1176 262L1176 262L0 -1111" stroke="none" fill="url(#16083)" /><path transform="matrix(1 0 0 -1 0 1552)" d="M0 -4621.674L1176 -3248.533L1176 -3248.533L1176 0L1176 0L0 0" stroke="none" fill="#4C216D" fill-rule="evenodd" fill-opacity="0.8980392" /><path transform="matrix(1 0 0 -1 0 1552)" d="M0 -1111.661L1176 261.4803L1176 261.4803L1176 1552L1176 1552L0 1552" stroke="none" fill="#B83F54" fill-rule="evenodd" fill-opacity="0.8980392" /></g></g></g></g><g><g clip-path="url(#37)"><g clip-path="url(#38)"><g><path transform="matrix(1 0 0 -1 0 1552)" d="M0 3156L1176 1957L1176 1957L1176 13L1176 13L0 1212" stroke="none" fill="url(#16987)" /><path transform="matrix(1 0 0 -1 0 1552)" d="M0 3155.032L1176 1956.225L1176 1956.225L1176 1552L1176 1552L0 1552" stroke="none" fill="#FFD800" fill-rule="evenodd" fill-opacity="0.1960784" /><path transform="matrix(1 0 0 -1 0 1552)" d="M0 1212.715L1176 13.90757L1176 13.90757L1176 0L1176 0L0 0" stroke="none" fill="#FF387D" fill-rule="evenodd" fill-opacity="0.1960784" /></g></g><g clip-path="url(#39)"><g><path transform="matrix(1 0 0 -1 0 1552)" d="M0 3155L1176 1957L1176 1957L1176 13L1176 13L0 1212" stroke="none" fill="url(#17633)" /><path transform="matrix(1 0 0 -1 0 1552)" d="M0 3154.44L1176 1955.633L1176 1955.633L1176 1552L1176 1552L0 1552" stroke="none" fill="#FFD800" fill-rule="evenodd" fill-opacity="0.1960784" /><path transform="matrix(1 0 0 -1 0 1552)" d="M0 1212.973L1176 14.16491L1176 14.16491L1176 0L1176 0L0 0" stroke="none" fill="#FF387D" fill-rule="evenodd" fill-opacity="0.1960784" /></g></g><g clip-path="url(#40)"><g><path transform="matrix(1 0 0 -1 0 1552)" d="M0 3155L1176 1956L1176 1956L1176 13L1176 13L0 1212" stroke="none" fill="url(#18273)" /><path transform="matrix(1 0 0 -1 0 1552)" d="M0 3153.853L1176 1955.045L1176 1955.045L1176 1552L1176 1552L0 1552" stroke="none" fill="#FFD800" fill-rule="evenodd" fill-opacity="0.1960784" /><path transform="matrix(1 0 0 -1 0 1552)" d="M0 1213.194L1176 14.38593L1176 14.38593L1176 0L1176 0L0 0" stroke="none" fill="#FF387D" fill-rule="evenodd" fill-opacity="0.1960784" /></g></g></g></g></g></g></g></g><g clip-path="url(#41)"><g clip-path="url(#42)"><g clip-path="url(#43)"><g><g clip-path="url(#44)"><g clip-path="url(#45)"><g><path transform="matrix(1 0 0 -1 0 1552)" d="M0 1445L1176 246L1176 246L1176 -2025L1176 -2025L0 -826" stroke="none" fill="url(#19851)" /><path transform="matrix(1 0 0 -1 0 1552)" d="M0 1443.88L1176 245.072L1176 245.072L1176 1552L1176 1552L0 1552" stroke="none" fill="#FFD800" fill-rule="evenodd" fill-opacity="0.1960784" /><path transform="matrix(1 0 0 -1 0 1552)" d="M0 -824.8249L1176 -2023.632L1176 -2023.632L1176 0L1176 0L0 0" stroke="none" fill="#FF387D" fill-rule="evenodd" fill-opacity="0.1960784" /></g></g><g clip-path="url(#46)"><g><path transform="matrix(1 0 0 -1 0 1552)" d="M0 1444L1176 245L1176 245L1176 -2024L1176 -2024L0 -825" stroke="none" fill="url(#20475)" /><path transform="matrix(1 0 0 -1 0 1552)" d="M0 1443.205L1176 244.3978L1176 244.3978L1176 1552L1176 1552L0 1552" stroke="none" fill="#FFD800" fill-rule="evenodd" fill-opacity="0.1960784" /><path transform="matrix(1 0 0 -1 0 1552)" d="M0 -823.7734L1176 -2022.581L1176 -2022.581L1176 0L1176 0L0 0" stroke="none" fill="#FF387D" fill-rule="evenodd" fill-opacity="0.1960784" /></g></g><g clip-path="url(#47)"><g><path transform="matrix(1 0 0 -1 0 1552)" d="M0 1444L1176 245L1176 245L1176 -2023L1176 -2023L0 -824" stroke="none" fill="url(#21099)" /><path transform="matrix(1 0 0 -1 0 1552)" d="M0 1442.529L1176 243.7218L1176 243.7218L1176 1552L1176 1552L0 1552" stroke="none" fill="#FFD800" fill-rule="evenodd" fill-opacity="0.1960784" /><path transform="matrix(1 0 0 -1 0 1552)" d="M0 -822.7974L1176 -2021.605L1176 -2021.605L1176 0L1176 0L0 0" stroke="none" fill="#FF387D" fill-rule="evenodd" fill-opacity="0.1960784" /></g></g><g clip-path="url(#48)"><g><path transform="matrix(1 0 0 -1 0 1552)" d="M0 1443L1176 244L1176 244L1176 -2022L1176 -2022L0 -823" stroke="none" fill="url(#21726)" /><path transform="matrix(1 0 0 -1 0 1552)" d="M0 1441.853L1176 243.0456L1176 243.0456L1176 1552L1176 1552L0 1552" stroke="none" fill="#FFD800" fill-rule="evenodd" fill-opacity="0.1960784" /><path transform="matrix(1 0 0 -1 0 1552)" d="M0 -821.8879L1176 -2020.695L1176 -2020.695L1176 0L1176 0L0 0" stroke="none" fill="#FF387D" fill-rule="evenodd" fill-opacity="0.1960784" /></g></g><g clip-path="url(#49)"><g><path transform="matrix(1 0 0 -1 0 1552)" d="M0 1442L1176 243L1176 243L1176 -2021L1176 -2021L0 -822" stroke="none" fill="url(#22352)" /><path transform="matrix(1 0 0 -1 0 1552)" d="M0 1441.173L1176 242.3657L1176 242.3657L1176 1552L1176 1552L0 1552" stroke="none" fill="#FFD800" fill-rule="evenodd" fill-opacity="0.1960784" /><path transform="matrix(1 0 0 -1 0 1552)" d="M0 -821.0636L1176 -2019.871L1176 -2019.871L1176 0L1176 0L0 0" stroke="none" fill="#FF387D" fill-rule="evenodd" fill-opacity="0.1960784" /></g></g><g clip-path="url(#50)"><g><path transform="matrix(1 0 0 -1 0 1552)" d="M0 1441L1176 243L1176 243L1176 -2020L1176 -2020L0 -821" stroke="none" fill="url(#22982)" /><path transform="matrix(1 0 0 -1 0 1552)" d="M0 1440.492L1176 241.6841L1176 241.6841L1176 1552L1176 1552L0 1552" stroke="none" fill="#FFD800" fill-rule="evenodd" fill-opacity="0.1960784" /><path transform="matrix(1 0 0 -1 0 1552)" d="M0 -820.2984L1176 -2019.106L1176 -2019.106L1176 0L1176 0L0 0" stroke="none" fill="#FF387D" fill-rule="evenodd" fill-opacity="0.1960784" /></g></g></g></g><g><g clip-path="url(#51)"><g clip-path="url(#52)"><g><path transform="matrix(1 0 0 -1 0 1552)" d="M0 -57841L1176 178870L1176 178870L1176 14319L1176 14319L0 -222392" stroke="none" fill="url(#23747)" /><path transform="matrix(1 0 0 -1 0 1552)" d="M0 -57959.44L1176 178751.6L1176 178751.6L1176 1552L1176 1552L0 1552" stroke="none" fill="#560099" fill-rule="evenodd" fill-opacity="0.04705882" /><path transform="matrix(1 0 0 -1 0 1552)" d="M0 -222273.9L1176 14437.17L1176 14437.17L1176 0L1176 0L0 0" stroke="none" fill="#FF0A35" fill-rule="evenodd" fill-opacity="0.04705882" /></g></g><g clip-path="url(#53)"><g><path transform="matrix(1 0 0 -1 0 1552)" d="M0 -55194L1176 181517L1176 181517L1176 16966L1176 16966L0 -219746" stroke="none" fill="url(#24263)" /><path transform="matrix(1 0 0 -1 0 1552)" d="M0 -55312.73L1176 181398.3L1176 181398.3L1176 1552L1176 1552L0 1552" stroke="none" fill="#560099" fill-rule="evenodd" fill-opacity="0.04705882" /><path transform="matrix(1 0 0 -1 0 1552)" d="M0 -219627.2L1176 17083.89L1176 17083.89L1176 0L1176 0L0 0" stroke="none" fill="#FF0A35" fill-rule="evenodd" fill-opacity="0.04705882" /></g></g><g clip-path="url(#54)"><g><path transform="matrix(1 0 0 -1 0 1552)" d="M0 -52547L1176 184164L1176 184164L1176 19612L1176 19612L0 -217099" stroke="none" fill="url(#24777)" /><path transform="matrix(1 0 0 -1 0 1552)" d="M0 -52665.82L1176 184045.3L1176 184045.3L1176 1552L1176 1552L0 1552" stroke="none" fill="#560099" fill-rule="evenodd" fill-opacity="0.04705882" /><path transform="matrix(1 0 0 -1 0 1552)" d="M0 -216980.3L1176 19730.8L1176 19730.8L1176 0L1176 0L0 0" stroke="none" fill="#FF0A35" fill-rule="evenodd" fill-opacity="0.04705882" /></g></g><g clip-path="url(#55)"><g><path transform="matrix(1 0 0 -1 0 1552)" d="M0 -49901L1176 186811L1176 186811L1176 22259L1176 22259L0 -214452" stroke="none" fill="url(#25292)" /><path transform="matrix(1 0 0 -1 0 1552)" d="M0 -50018.96L1176 186692.4L1176 186692.4L1176 1552L1176 1552L0 1552" stroke="none" fill="#560099" fill-rule="evenodd" fill-opacity="0.04705882" /><path transform="matrix(1 0 0 -1 0 1552)" d="M0 -214333.8L1176 22377.54L1176 22377.54L1176 0L1176 0L0 0" stroke="none" fill="#FF0A35" fill-rule="evenodd" fill-opacity="0.04705882" /></g></g><g clip-path="url(#56)"><g><path transform="matrix(1 0 0 -1 0 1552)" d="M0 -47254L1176 189457L1176 189457L1176 24906L1176 24906L0 -211805" stroke="none" fill="url(#25808)" /><path transform="matrix(1 0 0 -1 0 1552)" d="M0 -47372.2L1176 189338.9L1176 189338.9L1176 1552L1176 1552L0 1552" stroke="none" fill="#560099" fill-rule="evenodd" fill-opacity="0.04705882" /><path transform="matrix(1 0 0 -1 0 1552)" d="M0 -211686.7L1176 25024.42L1176 25024.42L1176 0L1176 0L0 0" stroke="none" fill="#FF0A35" fill-rule="evenodd" fill-opacity="0.04705882" /></g></g><g clip-path="url(#57)"><g><path transform="matrix(1 0 0 -1 0 1552)" d="M0 -44607L1176 192104L1176 192104L1176 27553L1176 27553L0 -209158" stroke="none" fill="url(#26322)" /><path transform="matrix(1 0 0 -1 0 1552)" d="M0 -44725.28L1176 191985.8L1176 191985.8L1176 1552L1176 1552L0 1552" stroke="none" fill="#560099" fill-rule="evenodd" fill-opacity="0.04705882" /><path transform="matrix(1 0 0 -1 0 1552)" d="M0 -209039.8L1176 27671.33L1176 27671.33L1176 0L1176 0L0 0" stroke="none" fill="#FF0A35" fill-rule="evenodd" fill-opacity="0.04705882" /></g></g><g clip-path="url(#58)"><g><path transform="matrix(1 0 0 -1 0 1552)" d="M0 -41960L1176 194751L1176 194751L1176 30200L1176 30200L0 -206511" stroke="none" fill="url(#26839)" /><path transform="matrix(1 0 0 -1 0 1552)" d="M0 -42078.57L1176 194632.5L1176 194632.5L1176 1552L1176 1552L0 1552" stroke="none" fill="#560099" fill-rule="evenodd" fill-opacity="0.04705882" /><path transform="matrix(1 0 0 -1 0 1552)" d="M0 -206393L1176 30318.04L1176 30318.04L1176 0L1176 0L0 0" stroke="none" fill="#FF0A35" fill-rule="evenodd" fill-opacity="0.04705882" /></g></g><g clip-path="url(#59)"><g><path transform="matrix(1 0 0 -1 0 1552)" d="M0 -39313L1176 197398L1176 197398L1176 32847L1176 32847L0 -203864" stroke="none" fill="url(#27357)" /><path transform="matrix(1 0 0 -1 0 1552)" d="M0 -39431.66L1176 197279.4L1176 197279.4L1176 1552L1176 1552L0 1552" stroke="none" fill="#560099" fill-rule="evenodd" fill-opacity="0.04705882" /><path transform="matrix(1 0 0 -1 0 1552)" d="M0 -203746.1L1176 32964.95L1176 32964.95L1176 0L1176 0L0 0" stroke="none" fill="#FF0A35" fill-rule="evenodd" fill-opacity="0.04705882" /></g></g><g clip-path="url(#60)"><g><path transform="matrix(1 0 0 -1 0 1552)" d="M0 -36667L1176 200044L1176 200044L1176 35493L1176 35493L0 -201218" stroke="none" fill="url(#27871)" /><path transform="matrix(1 0 0 -1 0 1552)" d="M0 -36784.96L1176 199926.1L1176 199926.1L1176 1552L1176 1552L0 1552" stroke="none" fill="#560099" fill-rule="evenodd" fill-opacity="0.04705882" /><path transform="matrix(1 0 0 -1 0 1552)" d="M0 -201099.4L1176 35611.65L1176 35611.65L1176 0L1176 0L0 0" stroke="none" fill="#FF0A35" fill-rule="evenodd" fill-opacity="0.04705882" /></g></g><g clip-path="url(#61)"><g><path transform="matrix(1 0 0 -1 0 1552)" d="M0 -34020L1176 202691L1176 202691L1176 38140L1176 38140L0 -198571" stroke="none" fill="url(#28387)" /><path transform="matrix(1 0 0 -1 0 1552)" d="M0 -34138.04L1176 202573L1176 202573L1176 1552L1176 1552L0 1552" stroke="none" fill="#560099" fill-rule="evenodd" fill-opacity="0.04705882" /><path transform="matrix(1 0 0 -1 0 1552)" d="M0 -198452.5L1176 38258.57L1176 38258.57L1176 0L1176 0L0 0" stroke="none" fill="#FF0A35" fill-rule="evenodd" fill-opacity="0.04705882" /></g></g><g clip-path="url(#62)"><g><path transform="matrix(1 0 0 -1 0 1552)" d="M0 -31373L1176 205339L1176 205339L1176 40787L1176 40787L0 -195924" stroke="none" fill="url(#28904)" /><path transform="matrix(1 0 0 -1 0 1552)" d="M0 -31491.16L1176 205220.2L1176 205220.2L1176 1552L1176 1552L0 1552" stroke="none" fill="#560099" fill-rule="evenodd" fill-opacity="0.04705882" /><path transform="matrix(1 0 0 -1 0 1552)" d="M0 -195806.1L1176 40905.33L1176 40905.33L1176 0L1176 0L0 0" stroke="none" fill="#FF0A35" fill-rule="evenodd" fill-opacity="0.04705882" /></g></g><g clip-path="url(#63)"><g><path transform="matrix(1 0 0 -1 0 1552)" d="M0 -28726L1176 207985L1176 207985L1176 43434L1176 43434L0 -193277" stroke="none" fill="url(#29424)" /><path transform="matrix(1 0 0 -1 0 1552)" d="M0 -28844.42L1176 207866.7L1176 207866.7L1176 1552L1176 1552L0 1552" stroke="none" fill="#560099" fill-rule="evenodd" fill-opacity="0.04705882" /><path transform="matrix(1 0 0 -1 0 1552)" d="M0 -193158.9L1176 43552.19L1176 43552.19L1176 0L1176 0L0 0" stroke="none" fill="#FF0A35" fill-rule="evenodd" fill-opacity="0.04705882" /></g></g><g clip-path="url(#64)"><g><path transform="matrix(1 0 0 -1 0 1552)" d="M0 -26079L1176 210632L1176 210632L1176 46081L1176 46081L0 -190631" stroke="none" fill="url(#29941)" /><path transform="matrix(1 0 0 -1 0 1552)" d="M0 -26197.54L1176 210513.8L1176 210513.8L1176 1552L1176 1552L0 1552" stroke="none" fill="#560099" fill-rule="evenodd" fill-opacity="0.04705882" /><path transform="matrix(1 0 0 -1 0 1552)" d="M0 -190512.4L1176 46198.96L1176 46198.96L1176 0L1176 0L0 0" stroke="none" fill="#FF0A35" fill-rule="evenodd" fill-opacity="0.04705882" /></g></g><g clip-path="url(#65)"><g><path transform="matrix(1 0 0 -1 0 1552)" d="M0 -23432L1176 213279L1176 213279L1176 48727L1176 48727L0 -187984" stroke="none" fill="url(#30455)" /><path transform="matrix(1 0 0 -1 0 1552)" d="M0 -23550.8L1176 213160.3L1176 213160.3L1176 1552L1176 1552L0 1552" stroke="none" fill="#560099" fill-rule="evenodd" fill-opacity="0.04705882" /><path transform="matrix(1 0 0 -1 0 1552)" d="M0 -187865.3L1176 48845.81L1176 48845.81L1176 0L1176 0L0 0" stroke="none" fill="#FF0A35" fill-rule="evenodd" fill-opacity="0.04705882" /></g></g><g clip-path="url(#66)"><g><path transform="matrix(1 0 0 -1 0 1552)" d="M0 -20786L1176 215926L1176 215926L1176 51374L1176 51374L0 -185337" stroke="none" fill="url(#30974)" /><path transform="matrix(1 0 0 -1 0 1552)" d="M0 -20903.9L1176 215807.4L1176 215807.4L1176 1552L1176 1552L0 1552" stroke="none" fill="#560099" fill-rule="evenodd" fill-opacity="0.04705882" /><path transform="matrix(1 0 0 -1 0 1552)" d="M0 -185218.5L1176 51492.77L1176 51492.77L1176 0L1176 0L0 0" stroke="none" fill="#FF0A35" fill-rule="evenodd" fill-opacity="0.04705882" /></g></g><g clip-path="url(#67)"><g><path transform="matrix(1 0 0 -1 0 1552)" d="M0 -18139L1176 218572L1176 218572L1176 54021L1176 54021L0 -182690" stroke="none" fill="url(#31486)" /><path transform="matrix(1 0 0 -1 0 1552)" d="M0 -18257.2L1176 218454.1L1176 218454.1L1176 1552L1176 1552L0 1552" stroke="none" fill="#560099" fill-rule="evenodd" fill-opacity="0.04705882" /><path transform="matrix(1 0 0 -1 0 1552)" d="M0 -182571.8L1176 54139.48L1176 54139.48L1176 0L1176 0L0 0" stroke="none" fill="#FF0A35" fill-rule="evenodd" fill-opacity="0.04705882" /></g></g><g clip-path="url(#68)"><g><path transform="matrix(1 0 0 -1 0 1552)" d="M0 -15492L1176 221219L1176 221219L1176 56668L1176 56668L0 -180043" stroke="none" fill="url(#31998)" /><path transform="matrix(1 0 0 -1 0 1552)" d="M0 -15610.29L1176 221101.1L1176 221101.1L1176 1552L1176 1552L0 1552" stroke="none" fill="#560099" fill-rule="evenodd" fill-opacity="0.04705882" /><path transform="matrix(1 0 0 -1 0 1552)" d="M0 -179925L1176 56786.43L1176 56786.43L1176 0L1176 0L0 0" stroke="none" fill="#FF0A35" fill-rule="evenodd" fill-opacity="0.04705882" /></g></g></g></g></g></g></g><g clip-path="url(#69)"><g transform="matrix(0.5908665 0 0 -0.5908665 156.7668 830.3705)"><g transform="matrix(1 0 0 -1 0 708)"><image x="0" y="0" xlink:href="img_05.png" width="1497" height="708" /></g></g></g><g clip-path="url(#70)"><g><g clip-path="url(#71)"><path transform="matrix(1 0 0 -1 0 1552)" d="M1055.663 709.181L142.046 709.181L142.046 709.181L142.046 1153.182L142.046 1153.182L1055.663 1153.182z" stroke="#000000" stroke-width="2" fill="none" stroke-opacity="0.4980392" /></g></g><g><g clip-path="url(#72)"><path transform="matrix(1 0 0 -1 0 1552)" d="M1055.663 170.819L142.046 170.819L142.046 170.819L142.046 618.191L142.046 618.191L1055.663 618.191z" stroke="#000000" stroke-width="2" fill="none" stroke-opacity="0.4980392" /></g></g></g><g clip-path="url(#73)"><g transform="matrix(0.6076502 0 0 -0.6076503 202.3668 1372.533)"><g transform="matrix(1 0 0 -1 0 722)"><image x="0" y="0" xlink:href="img_06.png" width="1269" height="722" /></g></g></g><g clip-path="url(#74)"><path transform="matrix(1 0 0 -1 0 1552)" d="M1176.589 0L0.2490234 0L0.2490234 0L0.2490234 1552.387L0.2490234 1552.387L1176.589 1552.387z" stroke="#E6E7E8" stroke-width="1" fill="none" /><g><g clip-path="url(#75)"><g clip-path="url(#76)"><g><path transform="matrix(1 0 0 -1 0 1552)" d="M1019.399 0L1019.399 1552L1019.399 1552L1176.589 1552L1176.589 1552L1176.589 0" stroke="none" fill="url(#33935)" /><path transform="matrix(1 0 0 -1 0 1552)" d="M1019.399 0L1019.399 1552L1019.399 1552L0 1552L0 1552L0 0" stroke="none" fill="#4C216D" fill-rule="evenodd" fill-opacity="0.4980392" /><path transform="matrix(1 0 0 -1 0 1552)" d="M1176.589 0L1176.589 1552L1176.589 1552L1176 1552L1176 1552L1176 0" stroke="none" fill="#B83F54" fill-rule="evenodd" fill-opacity="0.4980392" /></g></g></g></g><g><g clip-path="url(#77)"></g></g></g><g clip-path="url(#78)"><g transform="matrix(0.2398164 0 0 0.2382367 752.7495 1467.024)"><g transform="matrix(1 0 0 1 0 0)"><image x="0" y="0" xlink:href="img_07.png" width="207" height="125" /></g></g></g><path transform="matrix(1 0 0 -1 0 1552)" d="M814.1812 79.7246L814.1812 63.6426" stroke="#797A7C" stroke-width="1" fill="none" /></g></g></g><defs><clipPath id="1"><path d="M0 1552L0 -0.3900146L0 -0.3900146L1176.34 -0.3900146L1176.34 -0.3900146L1176.34 1552L1176.34 1552L0 1552z" /></clipPath><clipPath id="2"><path d="M0 193.374L1055.663 193.374L1055.663 193.374L1055.663 118.697L1055.663 118.697L0 118.697z" /></clipPath><clipPath id="3"><path d="M-485.369 -197.47L1500 -197.47L1500 -197.47L1500 957.416L1500 957.416L-485.369 957.416z" /></clipPath><clipPath id="4"><path d="M-0.304 957.416L1425.517 954.363L1425.517 954.363L1500.005 -197.472L1500.005 -197.472L-485.369 -193.203z" /></clipPath><linearGradient transform="matrix(1 0 0 1 0 0)" id="822" x1="-201.7971" y1="1987.048" x2="-201.79711987.048" y2="-201.79711486.015"><stop stop-color="#4C216D" offset="0%" /><stop stop-color="#B83F54" offset="100%" /></linearGradient><clipPath id="5"><path d="M-261.565 -704.6101L1431 -704.6101L1431 -704.6101L1431 500.8L1431 500.8L-261.565 500.8z" /></clipPath><clipPath id="6"><path d="M508.863 19.76599L508.123 18.99097L508.123 18.99097L-27.852 -507.239L-27.852 -507.239L-26.342 -508.769L-26.342 -508.769L508.893 16.67505L508.893 16.67505L1200.431 -688.4241L1200.431 -688.4241L1201.911 -686.865z" /></clipPath><linearGradient transform="matrix(1 0 0 1 0 0)" id="1633" x1="-47.83484" y1="2473.591" x2="-47.834842473.591" y2="-47.83484960.6844"><stop stop-color="#FFD800" offset="0%" /><stop stop-color="#FF387D" offset="100%" /></linearGradient><clipPath id="7"><path d="M508.555 51.84204L507.815 51.06494L507.815 51.06494L-43.433 -491.353L-43.433 -491.353L-41.922 -492.8831L-41.922 -492.8831L508.585 48.75098L508.585 48.75098L1215.704 -672.2419L1215.704 -672.2419L1217.183 -670.6831z" /></clipPath><linearGradient transform="matrix(1 0 0 1 0 0)" id="2240" x1="-39.32141" y1="2465.055" x2="-39.321412465.055" y2="-39.32141959.9851"><stop stop-color="#FFD800" offset="0%" /><stop stop-color="#FF387D" offset="100%" /></linearGradient><clipPath id="8"><path d="M508.247 83.90796L507.507 83.13306L507.507 83.13306L-59.012 -475.468L-59.012 -475.468L-57.502 -476.998L-57.502 -476.998L508.276 80.81799L508.276 80.81799L1230.975 -656.062L1230.975 -656.062L1232.455 -654.501z" /></clipPath><linearGradient transform="matrix(1 0 0 1 0 0)" id="2842" x1="-30.83875" y1="2456.522" x2="-30.838752456.522" y2="-30.83875959.3137"><stop stop-color="#FFD800" offset="0%" /><stop stop-color="#FF387D" offset="100%" /></linearGradient><clipPath id="9"><path d="M507.939 115.974L507.199 115.191L507.199 115.191L-74.591 -459.582L-74.591 -459.582L-73.082 -461.113L-73.082 -461.113L507.968 112.884L507.968 112.884L1246.247 -639.8799L1246.247 -639.8799L1247.727 -638.3201z" /></clipPath><linearGradient transform="matrix(1 0 0 1 0 0)" id="3442" x1="-22.39319" y1="2447.987" x2="-22.393192447.987" y2="-22.39319958.6768"><stop stop-color="#FFD800" offset="0%" /><stop stop-color="#FF387D" offset="100%" /></linearGradient><clipPath id="10"><path d="M507.631 148.051L506.891 147.266L506.891 147.266L-90.18 -443.688L-90.18 -443.688L-88.669 -445.219L-88.669 -445.219L507.66 144.96L507.66 144.96L1261.526 -623.6899L1261.526 -623.6899L1263.006 -622.1299z" /></clipPath><linearGradient transform="matrix(1 0 0 1 0 0)" id="4037" x1="-13.97021" y1="2439.449" x2="-13.970212439.449" y2="-13.97021958.0642"><stop stop-color="#FFD800" offset="0%" /><stop stop-color="#FF387D" offset="100%" /></linearGradient><clipPath id="11"><path d="M507.323 180.1169L506.583 179.333L506.583 179.333L-105.76 -427.812L-105.76 -427.812L-104.249 -429.343L-104.249 -429.343L507.353 177.026L507.353 177.026L1276.798 -607.5161L1276.798 -607.5161L1278.278 -605.957z" /></clipPath><linearGradient transform="matrix(1 0 0 1 0 0)" id="4640" x1="-5.574585" y1="2430.917" x2="-5.5745852430.917" y2="-5.574585957.4756"><stop stop-color="#FFD800" offset="0%" /><stop stop-color="#FF387D" offset="100%" /></linearGradient><clipPath id="12"><path d="M507.015 212.175L506.275 211.4L506.275 211.4L-121.338 -411.927L-121.338 -411.927L-119.829 -413.457L-119.829 -413.457L507.045 209.084L507.045 209.084L1292.07 -591.334L1292.07 -591.334L1293.55 -589.7759z" /></clipPath><linearGradient transform="matrix(1 0 0 1 0 0)" id="5236" x1="2.798523" y1="2422.383" x2="2.7985232422.383" y2="2.798523956.9064"><stop stop-color="#FFD800" offset="0%" /><stop stop-color="#FF387D" offset="100%" /></linearGradient><clipPath id="13"><path d="M506.707 244.251L505.967 243.474L505.967 243.474L-136.918 -396.032L-136.918 -396.032L-135.409 -397.564L-135.409 -397.564L506.736 241.16L506.736 241.16L1307.342 -575.145L1307.342 -575.145L1308.822 -573.585z" /></clipPath><linearGradient transform="matrix(1 0 0 1 0 0)" id="5833" x1="11.15503" y1="2413.839" x2="11.155032413.839" y2="11.15503956.3563"><stop stop-color="#FFD800" offset="0%" /><stop stop-color="#FF387D" offset="100%" /></linearGradient><clipPath id="14"><path d="M506.399 276.325L505.659 275.55L505.659 275.55L-152.498 -380.1479L-152.498 -380.1479L-150.989 -381.679L-150.989 -381.679L506.428 273.235L506.428 273.235L1322.614 -558.9629L1322.614 -558.9629L1324.093 -557.4041z" /></clipPath><linearGradient transform="matrix(1 0 0 1 0 0)" id="6435" x1="19.4881" y1="2405.303" x2="19.48812405.303" y2="19.4881955.8331"><stop stop-color="#FFD800" offset="0%" /><stop stop-color="#FF387D" offset="100%" /></linearGradient><clipPath id="15"><path d="M506.091 308.384L505.352 307.6L505.352 307.6L-168.078 -364.262L-168.078 -364.262L-166.569 -365.793L-166.569 -365.793L506.121 305.293L506.121 305.293L1337.885 -542.781L1337.885 -542.781L1339.366 -541.2219z" /></clipPath><linearGradient transform="matrix(1 0 0 1 0 0)" id="7028" x1="27.79102" y1="2396.764" x2="27.791022396.764" y2="27.79102955.328"><stop stop-color="#FFD800" offset="0%" /><stop stop-color="#FF387D" offset="100%" /></linearGradient><clipPath id="16"><path d="M505.783 340.46L505.051 339.675L505.051 339.675L-183.658 -348.377L-183.658 -348.377L-182.148 -349.908L-182.148 -349.908L505.813 337.369L505.813 337.369L1353.157 -526.6001L1353.157 -526.6001L1354.637 -525.041z" /></clipPath><linearGradient transform="matrix(1 0 0 1 0 0)" id="7627" x1="36.08191" y1="2388.227" x2="36.081912388.227" y2="36.08191954.8461"><stop stop-color="#FFD800" offset="0%" /><stop stop-color="#FF387D" offset="100%" /></linearGradient><clipPath id="17"><path d="M505.475 372.5341L504.743 371.751L504.743 371.751L-199.246 -332.4919L-199.246 -332.4919L-197.736 -334.0229L-197.736 -334.0229L505.504 369.444L505.504 369.444L1368.437 -510.418L1368.437 -510.418L1369.917 -508.8601z" /></clipPath><linearGradient transform="matrix(1 0 0 1 0 0)" id="8232" x1="44.35803" y1="2379.687" x2="44.358032379.687" y2="44.35803954.3707"><stop stop-color="#FFD800" offset="0%" /><stop stop-color="#FF387D" offset="100%" /></linearGradient><clipPath id="18"><path d="M505.167 404.593L504.427 403.817L504.427 403.817L-214.825 -316.6071L-214.825 -316.6071L-213.316 -318.1379L-213.316 -318.1379L505.196 401.502L505.196 401.502L1383.709 -494.236L1383.709 -494.236L1385.189 -492.678z" /></clipPath><linearGradient transform="matrix(1 0 0 1 0 0)" id="8835" x1="52.60931" y1="2371.151" x2="52.609312371.151" y2="52.60931953.9189"><stop stop-color="#FFD800" offset="0%" /><stop stop-color="#FF387D" offset="100%" /></linearGradient><clipPath id="19"><path d="M504.859 436.66L504.119 435.884L504.119 435.884L-230.405 -300.722L-230.405 -300.722L-228.895 -302.252L-228.895 -302.252L504.889 433.569L504.889 433.569L1398.98 -478.056L1398.98 -478.056L1400.461 -476.496z" /></clipPath><linearGradient transform="matrix(1 0 0 1 0 0)" id="9431" x1="60.84216" y1="2362.612" x2="60.842162362.612" y2="60.84216953.4873"><stop stop-color="#FFD800" offset="0%" /><stop stop-color="#FF387D" offset="100%" /></linearGradient><clipPath id="20"><path d="M504.551 468.734L503.811 467.959L503.811 467.959L-245.985 -284.827L-245.985 -284.827L-244.476 -286.359L-244.476 -286.359L504.581 465.644L504.581 465.644L1414.252 -461.865L1414.252 -461.865L1415.732 -460.306z" /></clipPath><linearGradient transform="matrix(1 0 0 1 0 0)" id="10030" x1="69.065" y1="2354.07" x2="69.0652354.07" y2="69.065953.0706"><stop stop-color="#FFD800" offset="0%" /><stop stop-color="#FF387D" offset="100%" /></linearGradient><clipPath id="21"><path d="M504.243 500.802L503.504 500.017L503.504 500.017L-261.565 -268.943L-261.565 -268.943L-260.063 -270.474L-260.063 -270.474L504.273 497.7111L504.273 497.7111L1429.532 -445.684L1429.532 -445.684L1431.005 -444.124z" /></clipPath><linearGradient transform="matrix(1 0 0 1 0 0)" id="10624" x1="77.26373" y1="2345.537" x2="77.263732345.537" y2="77.26373952.6741"><stop stop-color="#FFD800" offset="0%" /><stop stop-color="#FF387D" offset="100%" /></linearGradient><clipPath id="22"><path d="M0 -0.3869629L1176.341 -0.3869629L1176.341 -0.3869629L1176.341 1552L1176.341 1552L0 1552z" /></clipPath><clipPath id="23"><path d="M2461.176 625.191L1403.377 625.191L1403.377 625.191L1403.377 550.513L1403.377 550.513L2461.176 550.513z" /></clipPath><clipPath id="24"><path d="M2461.176 1339.082L1403.377 1339.082L1403.377 1339.082L1403.377 -50.79993L1403.377 -50.79993L2461.176 -50.79993z" /></clipPath><clipPath id="25"><path d="M2729.956 490.405L2333.031 1635.403L2333.031 1635.403L1250.309 1317.745L1250.309 1317.745L924.891 237.996L924.891 237.996L2012.238 -633.958L2012.238 -633.958L2623.955 179.509z" /></clipPath><clipPath id="26"><path d="M920.145 234.35L2905.52 234.35L2905.52 234.35L2905.52 1389.233L2905.52 1389.233L920.145 1389.233z" /></clipPath><clipPath id="27"><path d="M1405.211 1389.232L2831.031 1386.181L2831.031 1386.181L2905.518 234.3459L2905.518 234.3459L920.145 238.614z" /></clipPath><linearGradient transform="matrix(1 0 0 1 0 0)" id="12358" x1="1203.717" y1="1555.231" x2="1203.7171555.231" y2="1203.7171486.015"><stop stop-color="#4C216D" offset="0%" /><stop stop-color="#B83F54" offset="100%" /></linearGradient><clipPath id="28"><path d="M1143.95 -272.79L2836.52 -272.79L2836.52 -272.79L2836.52 932.619L2836.52 932.619L1143.95 932.619z" /></clipPath><clipPath id="29"><path d="M1910.373 868.476L1909.633 867.701L1909.633 867.701L1175.109 131.0959L1175.109 131.0959L1176.619 129.5649L1176.619 129.5649L1910.403 865.387L1910.403 865.387L2804.494 -46.23804L2804.494 -46.23804L2805.974 -44.67896z" /></clipPath><linearGradient transform="matrix(1 0 0 1 0 0)" id="13257" x1="1466.356" y1="1930.795" x2="1466.3561930.795" y2="1466.356953.4873"><stop stop-color="#FFD800" offset="0%" /><stop stop-color="#FF387D" offset="100%" /></linearGradient><clipPath id="30"><path d="M1910.065 900.552L1909.326 899.776L1909.326 899.776L1159.529 146.989L1159.529 146.989L1161.039 145.458L1161.039 145.458L1910.094 897.461L1910.094 897.461L2819.766 -30.04797L2819.766 -30.04797L2821.247 -28.48804z" /></clipPath><linearGradient transform="matrix(1 0 0 1 0 0)" id="13897" x1="1474.579" y1="1922.253" x2="1474.5791922.253" y2="1474.579953.0705"><stop stop-color="#FFD800" offset="0%" /><stop stop-color="#FF387D" offset="100%" /></linearGradient><clipPath id="31"><path d="M1909.756 932.619L1909.017 931.834L1909.017 931.834L1143.949 162.875L1143.949 162.875L1145.451 161.344L1145.451 161.344L1909.787 929.528L1909.787 929.528L2835.046 -13.86597L2835.046 -13.86597L2836.518 -12.30798z" /></clipPath><linearGradient transform="matrix(1 0 0 1 0 0)" id="14537" x1="1482.778" y1="1913.72" x2="1482.7781913.72" y2="1482.778952.674"><stop stop-color="#FFD800" offset="0%" /><stop stop-color="#FF387D" offset="100%" /></linearGradient><clipPath id="32"><path d="M2461.176 1885.578L1403.377 1885.578L1403.377 1885.578L1403.377 1810.9L1403.377 1810.9L2461.176 1810.9z" /></clipPath><clipPath id="33"><path d="M2461.176 2599.469L1403.377 2599.469L1403.377 2599.469L1403.377 1209.588L1403.377 1209.588L2461.176 1209.588z" /></clipPath><clipPath id="34"><path d="M2729.956 1750.792L2333.031 2895.791L2333.031 2895.791L1250.309 2578.132L1250.309 2578.132L924.891 1498.383L924.891 1498.383L2012.238 626.429L2012.238 626.429L2623.955 1439.896z" /></clipPath><clipPath id="35"><path d="M920.145 1494.733L2905.52 1494.733L2905.52 1494.733L2905.52 2649.62L2905.52 2649.62L920.145 2649.62z" /></clipPath><clipPath id="36"><path d="M1405.211 2649.62L2831.031 2646.567L2831.031 2646.567L2905.518 1494.732L2905.518 1494.732L920.145 1499.001z" /></clipPath><linearGradient transform="matrix(1 0 0 1 0 0)" id="16083" x1="1203.717" y1="294.8436" x2="1203.717294.8436" y2="1203.7171486.015"><stop stop-color="#4C216D" offset="0%" /><stop stop-color="#B83F54" offset="100%" /></linearGradient><clipPath id="37"><path d="M1143.95 987.599L2836.52 987.599L2836.52 987.599L2836.52 2193.005L2836.52 2193.005L1143.95 2193.005z" /></clipPath><clipPath id="38"><path d="M1910.373 2128.863L1909.633 2128.088L1909.633 2128.088L1175.109 1391.482L1175.109 1391.482L1176.619 1389.952L1176.619 1389.952L1910.403 2125.773L1910.403 2125.773L2804.494 1214.148L2804.494 1214.148L2805.974 1215.708z" /></clipPath><linearGradient transform="matrix(1 0 0 1 0 0)" id="16987" x1="1466.356" y1="670.4076" x2="1466.356670.4076" y2="1466.356953.4873"><stop stop-color="#FFD800" offset="0%" /><stop stop-color="#FF387D" offset="100%" /></linearGradient><clipPath id="39"><path d="M1910.065 2160.938L1909.326 2160.163L1909.326 2160.163L1159.529 1407.377L1159.529 1407.377L1161.039 1405.846L1161.039 1405.846L1910.094 2157.848L1910.094 2157.848L2819.766 1230.339L2819.766 1230.339L2821.247 1231.898z" /></clipPath><linearGradient transform="matrix(1 0 0 1 0 0)" id="17633" x1="1474.579" y1="661.866" x2="1474.579661.866" y2="1474.579953.0705"><stop stop-color="#FFD800" offset="0%" /><stop stop-color="#FF387D" offset="100%" /></linearGradient><clipPath id="40"><path d="M1909.756 2193.006L1909.017 2192.221L1909.017 2192.221L1143.949 1423.262L1143.949 1423.262L1145.451 1421.73L1145.451 1421.73L1909.787 2189.915L1909.787 2189.915L2835.046 1246.52L2835.046 1246.52L2836.518 1248.079z" /></clipPath><linearGradient transform="matrix(1 0 0 1 0 0)" id="18273" x1="1482.778" y1="653.3326" x2="1482.778653.3326" y2="1482.778952.674"><stop stop-color="#FFD800" offset="0%" /><stop stop-color="#FF387D" offset="100%" /></linearGradient><clipPath id="41"><path d="M0 -0.3869629L1176.341 -0.3869629L1176.341 -0.3869629L1176.341 1552L1176.341 1552L0 1552z" /></clipPath><clipPath id="42"><path d="M1220.046 3323.129L-5.135986 3323.129L-5.135986 3323.129L-5.135986 1713.317L-5.135986 1713.317L1220.046 1713.317z" /></clipPath><clipPath id="43"><path d="M1531.356 2340.16L1071.623 3666.34L1071.623 3666.34L-182.426 3298.416L-182.426 3298.416L-559.337 2047.81L-559.337 2047.81L700.069 1037.881L700.069 1037.881L1408.581 1980.068z" /></clipPath><clipPath id="44"><path d="M-305.616 1456.201L1654.78 1456.201L1654.78 1456.201L1654.78 2852.35L1654.78 2852.35L-305.616 2852.35z" /></clipPath><clipPath id="45"><path d="M587.078 2258.064L586.222 2257.156L586.222 2257.156L-16.877 1666.401L-16.877 1666.401L-15.127 1664.628L-15.127 1664.628L587.113 2254.484L587.113 2254.484L1370.034 1456.201L1370.034 1456.201L1371.748 1458.007z" /></clipPath><linearGradient transform="matrix(1 0 0 1 0 0)" id="19851" x1="-67.95959" y1="356.9992" x2="-67.95959356.9992" y2="-67.959591113.547"><stop stop-color="#FFD800" offset="0%" /><stop stop-color="#FF387D" offset="100%" /></linearGradient><clipPath id="46"><path d="M586.722 2295.195L585.865 2294.297L585.865 2294.297L-34.922 1684.8L-34.922 1684.8L-33.173 1683.026L-33.173 1683.026L586.756 2291.615L586.756 2291.615L1387.722 1474.943L1387.722 1474.943L1389.436 1476.749z" /></clipPath><linearGradient transform="matrix(1 0 0 1 0 0)" id="20475" x1="-58.06604" y1="347.119" x2="-58.06604347.119" y2="-58.066041112.7"><stop stop-color="#FFD800" offset="0%" /><stop stop-color="#FF387D" offset="100%" /></linearGradient><clipPath id="47"><path d="M586.365 2332.346L585.508 2331.447L585.508 2331.447L-52.967 1703.198L-52.967 1703.198L-51.218 1701.426L-51.218 1701.426L586.399 2328.766L586.399 2328.766L1405.411 1493.685L1405.411 1493.685L1407.125 1495.492z" /></clipPath><linearGradient transform="matrix(1 0 0 1 0 0)" id="21099" x1="-48.20544" y1="337.2331" x2="-48.20544337.2331" y2="-48.205441111.89"><stop stop-color="#FFD800" offset="0%" /><stop stop-color="#FF387D" offset="100%" /></linearGradient><clipPath id="48"><path d="M586.008 2369.487L585.152 2368.589L585.152 2368.589L-71.011 1721.598L-71.011 1721.598L-69.263 1719.825L-69.263 1719.825L586.043 2365.907L586.043 2365.907L1423.099 1512.427L1423.099 1512.427L1424.813 1514.234z" /></clipPath><linearGradient transform="matrix(1 0 0 1 0 0)" id="21726" x1="-38.38037" y1="327.3493" x2="-38.38037327.3493" y2="-38.380371111.112"><stop stop-color="#FFD800" offset="0%" /><stop stop-color="#FF387D" offset="100%" /></linearGradient><clipPath id="49"><path d="M585.651 2406.627L584.795 2405.72L584.795 2405.72L-89.057 1739.996L-89.057 1739.996L-87.308 1738.223L-87.308 1738.223L585.686 2403.048L585.686 2403.048L1440.788 1531.169L1440.788 1531.169L1442.502 1532.976z" /></clipPath><linearGradient transform="matrix(1 0 0 1 0 0)" id="22352" x1="-28.59839" y1="317.4643" x2="-28.59839317.4643" y2="-28.598391110.375"><stop stop-color="#FFD800" offset="0%" /><stop stop-color="#FF387D" offset="100%" /></linearGradient><clipPath id="50"><path d="M585.294 2443.778L584.438 2442.87L584.438 2442.87L-107.111 1758.405L-107.111 1758.405L-105.362 1756.632L-105.362 1756.632L585.329 2440.199L585.329 2440.199L1458.485 1549.922L1458.485 1549.922L1460.199 1551.727z" /></clipPath><linearGradient transform="matrix(1 0 0 1 0 0)" id="22982" x1="-18.84265" y1="307.575" x2="-18.84265307.575" y2="-18.842651109.665"><stop stop-color="#FFD800" offset="0%" /><stop stop-color="#FF387D" offset="100%" /></linearGradient><clipPath id="51"><path d="M79.2289 875.918L1103.97 875.918L1103.97 875.918L1103.97 1951.151L1103.97 1951.151L79.2289 1951.151z" /></clipPath><clipPath id="52"><path d="M1102.054 1732.716L290.708 877.891L290.708 877.891L292.629 875.918L292.629 875.918L1103.975 1730.742z" /></clipPath><linearGradient transform="matrix(1 0 0 1 0 0)" id="23747" x1="288.5998" y1="249.7137" x2="288.5998249.7137" y2="288.59984.061325"><stop stop-color="#560099" offset="0%" /><stop stop-color="#FF0A35" offset="100%" /></linearGradient><clipPath id="53"><path d="M1088.837 1746.367L277.491 891.544L277.491 891.544L279.412 889.57L279.412 889.57L1090.758 1744.394z" /></clipPath><linearGradient transform="matrix(1 0 0 1 0 0)" id="24263" x1="275.383" y1="236.0622" x2="275.383236.0622" y2="275.3834.061325"><stop stop-color="#560099" offset="0%" /><stop stop-color="#FF0A35" offset="100%" /></linearGradient><clipPath id="54"><path d="M1075.62 1760.019L264.274 905.195L264.274 905.195L266.194 903.221L266.194 903.221L1077.541 1758.045z" /></clipPath><linearGradient transform="matrix(1 0 0 1 0 0)" id="24777" x1="262.165" y1="222.4102" x2="262.165222.4102" y2="262.1654.061325"><stop stop-color="#560099" offset="0%" /><stop stop-color="#FF0A35" offset="100%" /></linearGradient><clipPath id="55"><path d="M1062.401 1773.671L251.056 918.846L251.056 918.846L252.978 916.873L252.978 916.873L1064.324 1771.697z" /></clipPath><linearGradient transform="matrix(1 0 0 1 0 0)" id="25292" x1="248.9471" y1="208.7588" x2="248.9471208.7588" y2="248.94714.061325"><stop stop-color="#560099" offset="0%" /><stop stop-color="#FF0A35" offset="100%" /></linearGradient><clipPath id="56"><path d="M1049.184 1787.322L237.838 932.498L237.838 932.498L239.76 930.524L239.76 930.524L1051.105 1785.349z" /></clipPath><linearGradient transform="matrix(1 0 0 1 0 0)" id="25808" x1="235.7303" y1="195.1074" x2="235.7303195.1074" y2="235.73034.061325"><stop stop-color="#560099" offset="0%" /><stop stop-color="#FF0A35" offset="100%" /></linearGradient><clipPath id="57"><path d="M1035.966 1800.973L224.621 946.161L224.621 946.161L226.543 944.186L226.543 944.186L1037.887 1799z" /></clipPath><linearGradient transform="matrix(1 0 0 1 0 0)" id="26322" x1="222.5123" y1="181.4503" x2="222.5123181.4503" y2="222.51234.061325"><stop stop-color="#560099" offset="0%" /><stop stop-color="#FF0A35" offset="100%" /></linearGradient><clipPath id="58"><path d="M1022.75 1814.625L211.404 959.811L211.404 959.811L213.325 957.839L213.325 957.839L1024.671 1812.652z" /></clipPath><linearGradient transform="matrix(1 0 0 1 0 0)" id="26839" x1="209.2955" y1="167.7989" x2="209.2955167.7989" y2="209.29554.061325"><stop stop-color="#560099" offset="0%" /><stop stop-color="#FF0A35" offset="100%" /></linearGradient><clipPath id="59"><path d="M1009.532 1828.277L198.186 973.452L198.186 973.452L200.107 971.478L200.107 971.478L1011.453 1826.303z" /></clipPath><linearGradient transform="matrix(1 0 0 1 0 0)" id="27357" x1="196.0776" y1="154.1531" x2="196.0776154.1531" y2="196.07764.061325"><stop stop-color="#560099" offset="0%" /><stop stop-color="#FF0A35" offset="100%" /></linearGradient><clipPath id="60"><path d="M996.314 1841.928L184.969 987.114L184.969 987.114L186.89 985.141L186.89 985.141L998.236 1839.955z" /></clipPath><linearGradient transform="matrix(1 0 0 1 0 0)" id="27871" x1="182.8607" y1="140.496" x2="182.8607140.496" y2="182.86074.061325"><stop stop-color="#560099" offset="0%" /><stop stop-color="#FF0A35" offset="100%" /></linearGradient><clipPath id="61"><path d="M983.097 1855.591L171.751 1000.766L171.751 1000.766L173.672 998.793L173.672 998.793L985.018 1853.617z" /></clipPath><linearGradient transform="matrix(1 0 0 1 0 0)" id="28387" x1="169.6427" y1="126.839" x2="169.6427126.839" y2="169.64274.061325"><stop stop-color="#560099" offset="0%" /><stop stop-color="#FF0A35" offset="100%" /></linearGradient><clipPath id="62"><path d="M969.879 1869.23L158.533 1014.418L158.533 1014.418L160.455 1012.444L160.455 1012.444L971.801 1867.258z" /></clipPath><linearGradient transform="matrix(1 0 0 1 0 0)" id="28904" x1="156.4248" y1="113.1932" x2="156.4248113.1932" y2="156.42484.061325"><stop stop-color="#560099" offset="0%" /><stop stop-color="#FF0A35" offset="100%" /></linearGradient><clipPath id="63"><path d="M956.662 1882.883L145.316 1028.069L145.316 1028.069L147.237 1026.096L147.237 1026.096L958.584 1880.908z" /></clipPath><linearGradient transform="matrix(1 0 0 1 0 0)" id="29424" x1="143.208" y1="99.54172" x2="143.20899.54172" y2="143.2084.061325"><stop stop-color="#560099" offset="0%" /><stop stop-color="#FF0A35" offset="100%" /></linearGradient><clipPath id="64"><path d="M943.444 1896.545L132.098 1041.722L132.098 1041.722L134.021 1039.748L134.021 1039.748L945.366 1894.572z" /></clipPath><linearGradient transform="matrix(1 0 0 1 0 0)" id="29941" x1="129.99" y1="85.88467" x2="129.9985.88467" y2="129.994.061325"><stop stop-color="#560099" offset="0%" /><stop stop-color="#FF0A35" offset="100%" /></linearGradient><clipPath id="65"><path d="M930.227 1910.196L118.881 1055.372L118.881 1055.372L120.802 1053.398L120.802 1053.398L932.148 1908.223z" /></clipPath><linearGradient transform="matrix(1 0 0 1 0 0)" id="30455" x1="116.7732" y1="72.23323" x2="116.773272.23323" y2="116.77324.061325"><stop stop-color="#560099" offset="0%" /><stop stop-color="#FF0A35" offset="100%" /></linearGradient><clipPath id="66"><path d="M917.009 1923.848L105.664 1069.024L105.664 1069.024L107.586 1067.051L107.586 1067.051L918.93 1921.875z" /></clipPath><linearGradient transform="matrix(1 0 0 1 0 0)" id="30974" x1="103.5552" y1="58.5818" x2="103.555258.5818" y2="103.55524.061321"><stop stop-color="#560099" offset="0%" /><stop stop-color="#FF0A35" offset="100%" /></linearGradient><clipPath id="67"><path d="M903.792 1937.5L92.447 1082.676L92.447 1082.676L94.368 1080.702L94.368 1080.702L905.713 1935.525z" /></clipPath><linearGradient transform="matrix(1 0 0 1 0 0)" id="31486" x1="90.33839" y1="44.9298" x2="90.3383944.9298" y2="90.338394.061321"><stop stop-color="#560099" offset="0%" /><stop stop-color="#FF0A35" offset="100%" /></linearGradient><clipPath id="68"><path d="M890.575 1951.151L79.229 1096.327L79.229 1096.327L81.15 1094.353L81.15 1094.353L892.496 1949.178z" /></clipPath><linearGradient transform="matrix(1 0 0 1 0 0)" id="31998" x1="77.12046" y1="31.27837" x2="77.1204631.27837" y2="77.120464.061319"><stop stop-color="#560099" offset="0%" /><stop stop-color="#FF0A35" offset="100%" /></linearGradient><clipPath id="69"><path d="M156.767 830.37L1041.294 830.37L1041.294 830.37L1041.294 412.037L1041.294 412.037L156.767 412.037z" /></clipPath><clipPath id="70"><path d="M0 -0.3869629L1176.341 -0.3869629L1176.341 -0.3869629L1176.341 1552L1176.341 1552L0 1552z" /></clipPath><clipPath id="71"><path d="M141.045 397.8199L1056.66 397.8199L1056.66 397.8199L1056.66 843.819L1056.66 843.819L141.045 843.819z" /></clipPath><clipPath id="72"><path d="M141.045 932.809L1056.66 932.809L1056.66 932.809L1056.66 1382.181L1056.66 1382.181L141.045 1382.181z" /></clipPath><clipPath id="73"><path d="M202.367 1366.181L973.475 1366.181L973.475 1366.181L973.475 947.176L973.475 947.176L202.367 947.176z" /></clipPath><clipPath id="74"><path d="M0 -0.3869629L1176.341 -0.3869629L1176.341 -0.3869629L1176.341 1552L1176.341 1552L0 1552z" /></clipPath><clipPath id="75"><path d="M1019.4 1459.926L1176.59 1459.926L1176.59 1459.926L1176.59 1501.926L1176.59 1501.926L1019.4 1501.926z" /></clipPath><clipPath id="76"><path d="M1176.589 1501.926L1019.399 1501.926L1019.399 1501.926L1019.399 1459.926L1019.399 1459.926L1176.589 1459.926z" /></clipPath><linearGradient transform="matrix(1 0 0 1 0 0)" id="33935" x1="1019.399" y1="149.6694" x2="1019.399149.6694" y2="1019.399157.1904"><stop stop-color="#4C216D" offset="0%" /><stop stop-color="#B83F54" offset="100%" /></linearGradient><clipPath id="77"><path d="M823.705 1471.077L1003.13 1471.077L1003.13 1471.077L1003.13 1493.472L1003.13 1493.472L823.705 1493.472z" /></clipPath><clipPath id="78"><path d="M752.75 1496.804L802.391 1496.804L802.391 1496.804L802.391 1467.025L802.391 1467.025L752.75 1467.025z" /></clipPath></defs></svg>