<svg xmlns="http://www.w3.org/2000/svg" xmlns:xlink="http://www.w3.org/1999/xlink" id="body_11" preserveAspectRatio="xMinYMin meet" viewBox="0 0 1568 2069"><g transform="matrix(1.333333 0 0 1.333333 0 0)"><g><g clip-path="url(#1)"><g clip-path="url(#2)"><g><g clip-path="url(#3)"><path transform="matrix(1 0 0 -1 0 1552)" d="M144.7866 247.5359L406.7896 247.5359" stroke="#000000" stroke-width="1" fill="none" stroke-opacity="0.8980392" /></g></g></g><g clip-path="url(#4)"><g><g clip-path="url(#5)"><g clip-path="url(#6)"><g><path transform="matrix(1 0 0 -1 0 1552)" d="M0 -1286L1176 87L1176 87L1176 3599L1176 3599L0 2226" stroke="none" fill="url(#1240)" /><path transform="matrix(1 0 0 -1 0 1552)" d="M0 -1284.919L1176 88.22222L1176 88.22222L1176 0L1176 0L0 0" stroke="none" fill="#4C216D" fill-rule="evenodd" fill-opacity="0.8980392" /><path transform="matrix(1 0 0 -1 0 1552)" d="M0 2225.094L1176 3598.235L1176 3598.235L1176 1552L1176 1552L0 1552" stroke="none" fill="#B83F54" fill-rule="evenodd" fill-opacity="0.8980392" /></g></g></g></g><g><g clip-path="url(#7)"><g clip-path="url(#8)"><g><path transform="matrix(1 0 0 -1 0 1552)" d="M0 3426L1176 2227L1176 2227L1176 268L1176 268L0 1467" stroke="none" fill="url(#2062)" /><path transform="matrix(1 0 0 -1 0 1552)" d="M0 3424.985L1176 2226.177L1176 2226.177L1176 1552L1176 1552L0 1552" stroke="none" fill="#FFD800" fill-rule="evenodd" fill-opacity="0.1960784" /><path transform="matrix(1 0 0 -1 0 1552)" d="M0 1467.991L1176 269.1838L1176 269.1838L1176 0L1176 0L0 0" stroke="none" fill="#FF387D" fill-rule="evenodd" fill-opacity="0.1960784" /></g></g><g clip-path="url(#9)"><g><path transform="matrix(1 0 0 -1 0 1552)" d="M0 3425L1176 2227L1176 2227L1176 269L1176 269L0 1468" stroke="none" fill="url(#2667)" /><path transform="matrix(1 0 0 -1 0 1552)" d="M0 3424.401L1176 2225.594L1176 2225.594L1176 1552L1176 1552L0 1552" stroke="none" fill="#FFD800" fill-rule="evenodd" fill-opacity="0.1960784" /><path transform="matrix(1 0 0 -1 0 1552)" d="M0 1468.834L1176 270.0264L1176 270.0264L1176 0L1176 0L0 0" stroke="none" fill="#FF387D" fill-rule="evenodd" fill-opacity="0.1960784" /></g></g><g clip-path="url(#10)"><g><path transform="matrix(1 0 0 -1 0 1552)" d="M0 3425L1176 2226L1176 2226L1176 270L1176 270L0 1469" stroke="none" fill="url(#3266)" /><path transform="matrix(1 0 0 -1 0 1552)" d="M0 3423.817L1176 2225.01L1176 2225.01L1176 1552L1176 1552L0 1552" stroke="none" fill="#FFD800" fill-rule="evenodd" fill-opacity="0.1960784" /><path transform="matrix(1 0 0 -1 0 1552)" d="M0 1469.619L1176 270.8116L1176 270.8116L1176 0L1176 0L0 0" stroke="none" fill="#FF387D" fill-rule="evenodd" fill-opacity="0.1960784" /></g></g><g clip-path="url(#11)"><g><path transform="matrix(1 0 0 -1 0 1552)" d="M0 3424L1176 2225L1176 2225L1176 271L1176 271L0 1469" stroke="none" fill="url(#3864)" /><path transform="matrix(1 0 0 -1 0 1552)" d="M0 3423.23L1176 2224.423L1176 2224.423L1176 1552L1176 1552L0 1552" stroke="none" fill="#FFD800" fill-rule="evenodd" fill-opacity="0.1960784" /><path transform="matrix(1 0 0 -1 0 1552)" d="M0 1470.331L1176 271.5234L1176 271.5234L1176 0L1176 0L0 0" stroke="none" fill="#FF387D" fill-rule="evenodd" fill-opacity="0.1960784" /></g></g><g clip-path="url(#12)"><g><path transform="matrix(1 0 0 -1 0 1552)" d="M0 3424L1176 2225L1176 2225L1176 271L1176 271L0 1470" stroke="none" fill="url(#4463)" /><path transform="matrix(1 0 0 -1 0 1552)" d="M0 3422.642L1176 2223.834L1176 2223.834L1176 1552L1176 1552L0 1552" stroke="none" fill="#FFD800" fill-rule="evenodd" fill-opacity="0.1960784" /><path transform="matrix(1 0 0 -1 0 1552)" d="M0 1470.991L1176 272.184L1176 272.184L1176 0L1176 0L0 0" stroke="none" fill="#FF387D" fill-rule="evenodd" fill-opacity="0.1960784" /></g></g><g clip-path="url(#13)"><g><path transform="matrix(1 0 0 -1 0 1552)" d="M0 3423L1176 2224L1176 2224L1176 272L1176 272L0 1471" stroke="none" fill="url(#5065)" /><path transform="matrix(1 0 0 -1 0 1552)" d="M0 3422.057L1176 2223.25L1176 2223.25L1176 1552L1176 1552L0 1552" stroke="none" fill="#FFD800" fill-rule="evenodd" fill-opacity="0.1960784" /><path transform="matrix(1 0 0 -1 0 1552)" d="M0 1471.607L1176 272.7993L1176 272.7993L1176 0L1176 0L0 0" stroke="none" fill="#FF387D" fill-rule="evenodd" fill-opacity="0.1960784" /></g></g><g clip-path="url(#14)"><g><path transform="matrix(1 0 0 -1 0 1552)" d="M0 3422L1176 2224L1176 2224L1176 272L1176 272L0 1471" stroke="none" fill="url(#5663)" /><path transform="matrix(1 0 0 -1 0 1552)" d="M0 3421.467L1176 2222.659L1176 2222.659L1176 1552L1176 1552L0 1552" stroke="none" fill="#FFD800" fill-rule="evenodd" fill-opacity="0.1960784" /><path transform="matrix(1 0 0 -1 0 1552)" d="M0 1472.177L1176 273.3698L1176 273.3698L1176 0L1176 0L0 0" stroke="none" fill="#FF387D" fill-rule="evenodd" fill-opacity="0.1960784" /></g></g><g clip-path="url(#15)"><g><path transform="matrix(1 0 0 -1 0 1552)" d="M0 3422L1176 2223L1176 2223L1176 273L1176 273L0 1472" stroke="none" fill="url(#6251)" /><path transform="matrix(1 0 0 -1 0 1552)" d="M0 3420.869L1176 2222.062L1176 2222.062L1176 1552L1176 1552L0 1552" stroke="none" fill="#FFD800" fill-rule="evenodd" fill-opacity="0.1960784" /><path transform="matrix(1 0 0 -1 0 1552)" d="M0 1472.701L1176 273.8939L1176 273.8939L1176 0L1176 0L0 0" stroke="none" fill="#FF387D" fill-rule="evenodd" fill-opacity="0.1960784" /></g></g><g clip-path="url(#16)"><g><path transform="matrix(1 0 0 -1 0 1552)" d="M0 3421L1176 2222L1176 2222L1176 273L1176 273L0 1472" stroke="none" fill="url(#6852)" /><path transform="matrix(1 0 0 -1 0 1552)" d="M0 3420.284L1176 2221.477L1176 2221.477L1176 1552L1176 1552L0 1552" stroke="none" fill="#FFD800" fill-rule="evenodd" fill-opacity="0.1960784" /><path transform="matrix(1 0 0 -1 0 1552)" d="M0 1473.184L1176 274.3762L1176 274.3762L1176 0L1176 0L0 0" stroke="none" fill="#FF387D" fill-rule="evenodd" fill-opacity="0.1960784" /></g></g><g clip-path="url(#17)"><g><path transform="matrix(1 0 0 -1 0 1552)" d="M0 3421L1176 2222L1176 2222L1176 274L1176 274L0 1473" stroke="none" fill="url(#7447)" /><path transform="matrix(1 0 0 -1 0 1552)" d="M0 3419.684L1176 2220.877L1176 2220.877L1176 1552L1176 1552L0 1552" stroke="none" fill="#FFD800" fill-rule="evenodd" fill-opacity="0.1960784" /><path transform="matrix(1 0 0 -1 0 1552)" d="M0 1473.614L1176 274.8061L1176 274.8061L1176 0L1176 0L0 0" stroke="none" fill="#FF387D" fill-rule="evenodd" fill-opacity="0.1960784" /></g></g><g clip-path="url(#18)"><g><path transform="matrix(1 0 0 -1 0 1552)" d="M0 3420L1176 2221L1176 2221L1176 274L1176 274L0 1473" stroke="none" fill="url(#8047)" /><path transform="matrix(1 0 0 -1 0 1552)" d="M0 3419.099L1176 2220.291L1176 2220.291L1176 1552L1176 1552L0 1552" stroke="none" fill="#FFD800" fill-rule="evenodd" fill-opacity="0.1960784" /><path transform="matrix(1 0 0 -1 0 1552)" d="M0 1474.011L1176 275.2032L1176 275.2032L1176 0L1176 0L0 0" stroke="none" fill="#FF387D" fill-rule="evenodd" fill-opacity="0.1960784" /></g></g><g clip-path="url(#19)"><g><path transform="matrix(1 0 0 -1 0 1552)" d="M0 3420L1176 2221L1176 2221L1176 275L1176 275L0 1473" stroke="none" fill="url(#8650)" /><path transform="matrix(1 0 0 -1 0 1552)" d="M0 3418.501L1176 2219.694L1176 2219.694L1176 1552L1176 1552L0 1552" stroke="none" fill="#FFD800" fill-rule="evenodd" fill-opacity="0.1960784" /><path transform="matrix(1 0 0 -1 0 1552)" d="M0 1474.382L1176 275.575L1176 275.575L1176 0L1176 0L0 0" stroke="none" fill="#FF387D" fill-rule="evenodd" fill-opacity="0.1960784" /></g></g><g clip-path="url(#20)"><g><path transform="matrix(1 0 0 -1 0 1552)" d="M0 3419L1176 2220L1176 2220L1176 275L1176 275L0 1474" stroke="none" fill="url(#9253)" /><path transform="matrix(1 0 0 -1 0 1552)" d="M0 3417.906L1176 2219.099L1176 2219.099L1176 1552L1176 1552L0 1552" stroke="none" fill="#FFD800" fill-rule="evenodd" fill-opacity="0.1960784" /><path transform="matrix(1 0 0 -1 0 1552)" d="M0 1474.709L1176 275.9014L1176 275.9014L1176 0L1176 0L0 0" stroke="none" fill="#FF387D" fill-rule="evenodd" fill-opacity="0.1960784" /></g></g><g clip-path="url(#21)"><g><path transform="matrix(1 0 0 -1 0 1552)" d="M0 3418L1176 2220L1176 2220L1176 275L1176 275L0 1474" stroke="none" fill="url(#9853)" /><path transform="matrix(1 0 0 -1 0 1552)" d="M0 3417.312L1176 2218.504L1176 2218.504L1176 1552L1176 1552L0 1552" stroke="none" fill="#FFD800" fill-rule="evenodd" fill-opacity="0.1960784" /><path transform="matrix(1 0 0 -1 0 1552)" d="M0 1474.994L1176 276.1867L1176 276.1867L1176 0L1176 0L0 0" stroke="none" fill="#FF387D" fill-rule="evenodd" fill-opacity="0.1960784" /></g></g><g clip-path="url(#22)"><g><path transform="matrix(1 0 0 -1 0 1552)" d="M0 3418L1176 2219L1176 2219L1176 275L1176 275L0 1474" stroke="none" fill="url(#10444)" /><path transform="matrix(1 0 0 -1 0 1552)" d="M0 3416.719L1176 2217.911L1176 2217.911L1176 1552L1176 1552L0 1552" stroke="none" fill="#FFD800" fill-rule="evenodd" fill-opacity="0.1960784" /><path transform="matrix(1 0 0 -1 0 1552)" d="M0 1475.251L1176 276.444L1176 276.444L1176 0L1176 0L0 0" stroke="none" fill="#FF387D" fill-rule="evenodd" fill-opacity="0.1960784" /></g></g><g clip-path="url(#23)"><g><path transform="matrix(1 0 0 -1 0 1552)" d="M0 3417L1176 2218L1176 2218L1176 276L1176 276L0 1474" stroke="none" fill="url(#11044)" /><path transform="matrix(1 0 0 -1 0 1552)" d="M0 3416.132L1176 2217.324L1176 2217.324L1176 1552L1176 1552L0 1552" stroke="none" fill="#FFD800" fill-rule="evenodd" fill-opacity="0.1960784" /><path transform="matrix(1 0 0 -1 0 1552)" d="M0 1475.473L1176 276.6651L1176 276.6651L1176 0L1176 0L0 0" stroke="none" fill="#FF387D" fill-rule="evenodd" fill-opacity="0.1960784" /></g></g></g></g></g><g clip-path="url(#24)"><g><g clip-path="url(#25)"><g clip-path="url(#26)"><g><path transform="matrix(1 0 0 -1 0 1552)" d="M0 -1791L1176 -418L1176 -418L1176 3094L1176 3094L0 1721" stroke="none" fill="url(#11946)" /><path transform="matrix(1 0 0 -1 0 1552)" d="M0 -1790.175L1176 -417.0337L1176 -417.0337L1176 0L1176 0L0 0" stroke="none" fill="#4C216D" fill-rule="evenodd" fill-opacity="0.8980392" /><path transform="matrix(1 0 0 -1 0 1552)" d="M0 1719.838L1176 3092.979L1176 3092.979L1176 1552L1176 1552L0 1552" stroke="none" fill="#B83F54" fill-rule="evenodd" fill-opacity="0.8980392" /></g></g></g></g><g><g clip-path="url(#27)"><g clip-path="url(#28)"><g><path transform="matrix(1 0 0 -1 0 1552)" d="M0 2921L1176 1723L1176 1723L1176 -238L1176 -238L0 961" stroke="none" fill="url(#12774)" /><path transform="matrix(1 0 0 -1 0 1552)" d="M0 2920.311L1176 1721.504L1176 1721.504L1176 1552L1176 1552L0 1552" stroke="none" fill="#FFD800" fill-rule="evenodd" fill-opacity="0.1960784" /><path transform="matrix(1 0 0 -1 0 1552)" d="M0 961.8275L1176 -236.98L1176 -236.98L1176 0L1176 0L0 0" stroke="none" fill="#FF387D" fill-rule="evenodd" fill-opacity="0.1960784" /></g></g><g clip-path="url(#29)"><g><path transform="matrix(1 0 0 -1 0 1552)" d="M0 2921L1176 1722L1176 1722L1176 -237L1176 -237L0 962" stroke="none" fill="url(#13373)" /><path transform="matrix(1 0 0 -1 0 1552)" d="M0 2919.729L1176 1720.921L1176 1720.921L1176 1552L1176 1552L0 1552" stroke="none" fill="#FFD800" fill-rule="evenodd" fill-opacity="0.1960784" /><path transform="matrix(1 0 0 -1 0 1552)" d="M0 962.7354L1176 -236.0722L1176 -236.0722L1176 0L1176 0L0 0" stroke="none" fill="#FF387D" fill-rule="evenodd" fill-opacity="0.1960784" /></g></g><g clip-path="url(#30)"><g><path transform="matrix(1 0 0 -1 0 1552)" d="M0 2920L1176 1721L1176 1721L1176 -236L1176 -236L0 963" stroke="none" fill="url(#13968)" /><path transform="matrix(1 0 0 -1 0 1552)" d="M0 2919.145L1176 1720.338L1176 1720.338L1176 1552L1176 1552L0 1552" stroke="none" fill="#FFD800" fill-rule="evenodd" fill-opacity="0.1960784" /><path transform="matrix(1 0 0 -1 0 1552)" d="M0 963.578L1176 -235.2294L1176 -235.2294L1176 0L1176 0L0 0" stroke="none" fill="#FF387D" fill-rule="evenodd" fill-opacity="0.1960784" /></g></g><g clip-path="url(#31)"><g><path transform="matrix(1 0 0 -1 0 1552)" d="M0 2920L1176 1721L1176 1721L1176 -235L1176 -235L0 963" stroke="none" fill="url(#14563)" /><path transform="matrix(1 0 0 -1 0 1552)" d="M0 2918.561L1176 1719.754L1176 1719.754L1176 1552L1176 1552L0 1552" stroke="none" fill="#FFD800" fill-rule="evenodd" fill-opacity="0.1960784" /><path transform="matrix(1 0 0 -1 0 1552)" d="M0 964.3631L1176 -234.4444L1176 -234.4444L1176 0L1176 0L0 0" stroke="none" fill="#FF387D" fill-rule="evenodd" fill-opacity="0.1960784" /></g></g><g clip-path="url(#32)"><g><path transform="matrix(1 0 0 -1 0 1552)" d="M0 2919L1176 1720L1176 1720L1176 -235L1176 -235L0 964" stroke="none" fill="url(#15160)" /><path transform="matrix(1 0 0 -1 0 1552)" d="M0 2917.974L1176 1719.167L1176 1719.167L1176 1552L1176 1552L0 1552" stroke="none" fill="#FFD800" fill-rule="evenodd" fill-opacity="0.1960784" /><path transform="matrix(1 0 0 -1 0 1552)" d="M0 965.0749L1176 -233.7326L1176 -233.7326L1176 0L1176 0L0 0" stroke="none" fill="#FF387D" fill-rule="evenodd" fill-opacity="0.1960784" /></g></g><g clip-path="url(#33)"><g><path transform="matrix(1 0 0 -1 0 1552)" d="M0 2918L1176 1720L1176 1720L1176 -234L1176 -234L0 965" stroke="none" fill="url(#15751)" /><path transform="matrix(1 0 0 -1 0 1552)" d="M0 2917.386L1176 1718.578L1176 1718.578L1176 1552L1176 1552L0 1552" stroke="none" fill="#FFD800" fill-rule="evenodd" fill-opacity="0.1960784" /><path transform="matrix(1 0 0 -1 0 1552)" d="M0 965.7355L1176 -233.072L1176 -233.072L1176 0L1176 0L0 0" stroke="none" fill="#FF387D" fill-rule="evenodd" fill-opacity="0.1960784" /></g></g><g clip-path="url(#34)"><g><path transform="matrix(1 0 0 -1 0 1552)" d="M0 2918L1176 1719L1176 1719L1176 -233L1176 -233L0 965" stroke="none" fill="url(#16352)" /><path transform="matrix(1 0 0 -1 0 1552)" d="M0 2916.801L1176 1717.993L1176 1717.993L1176 1552L1176 1552L0 1552" stroke="none" fill="#FFD800" fill-rule="evenodd" fill-opacity="0.1960784" /><path transform="matrix(1 0 0 -1 0 1552)" d="M0 966.3508L1176 -232.4567L1176 -232.4567L1176 0L1176 0L0 0" stroke="none" fill="#FF387D" fill-rule="evenodd" fill-opacity="0.1960784" /></g></g><g clip-path="url(#35)"><g><path transform="matrix(1 0 0 -1 0 1552)" d="M0 2917L1176 1718L1176 1718L1176 -233L1176 -233L0 966" stroke="none" fill="url(#16954)" /><path transform="matrix(1 0 0 -1 0 1552)" d="M0 2916.211L1176 1717.403L1176 1717.403L1176 1552L1176 1552L0 1552" stroke="none" fill="#FFD800" fill-rule="evenodd" fill-opacity="0.1960784" /><path transform="matrix(1 0 0 -1 0 1552)" d="M0 966.9215L1176 -231.886L1176 -231.886L1176 0L1176 0L0 0" stroke="none" fill="#FF387D" fill-rule="evenodd" fill-opacity="0.1960784" /></g></g><g clip-path="url(#36)"><g><path transform="matrix(1 0 0 -1 0 1552)" d="M0 2917L1176 1718L1176 1718L1176 -232L1176 -232L0 966" stroke="none" fill="url(#17548)" /><path transform="matrix(1 0 0 -1 0 1552)" d="M0 2915.613L1176 1716.806L1176 1716.806L1176 1552L1176 1552L0 1552" stroke="none" fill="#FFD800" fill-rule="evenodd" fill-opacity="0.1960784" /><path transform="matrix(1 0 0 -1 0 1552)" d="M0 967.4454L1176 -231.362L1176 -231.362L1176 0L1176 0L0 0" stroke="none" fill="#FF387D" fill-rule="evenodd" fill-opacity="0.1960784" /></g></g><g clip-path="url(#37)"><g><path transform="matrix(1 0 0 -1 0 1552)" d="M0 2916L1176 1717L1176 1717L1176 -232L1176 -232L0 967" stroke="none" fill="url(#18145)" /><path transform="matrix(1 0 0 -1 0 1552)" d="M0 2915.029L1176 1716.221L1176 1716.221L1176 1552L1176 1552L0 1552" stroke="none" fill="#FFD800" fill-rule="evenodd" fill-opacity="0.1960784" /><path transform="matrix(1 0 0 -1 0 1552)" d="M0 967.9277L1176 -230.8798L1176 -230.8798L1176 0L1176 0L0 0" stroke="none" fill="#FF387D" fill-rule="evenodd" fill-opacity="0.1960784" /></g></g><g clip-path="url(#38)"><g><path transform="matrix(1 0 0 -1 0 1552)" d="M0 2915L1176 1717L1176 1717L1176 -231L1176 -231L0 967" stroke="none" fill="url(#18739)" /><path transform="matrix(1 0 0 -1 0 1552)" d="M0 2914.428L1176 1715.621L1176 1715.621L1176 1552L1176 1552L0 1552" stroke="none" fill="#FFD800" fill-rule="evenodd" fill-opacity="0.1960784" /><path transform="matrix(1 0 0 -1 0 1552)" d="M0 968.3575L1176 -230.4499L1176 -230.4499L1176 0L1176 0L0 0" stroke="none" fill="#FF387D" fill-rule="evenodd" fill-opacity="0.1960784" /></g></g><g clip-path="url(#39)"><g><path transform="matrix(1 0 0 -1 0 1552)" d="M0 2915L1176 1716L1176 1716L1176 -231L1176 -231L0 968" stroke="none" fill="url(#19334)" /><path transform="matrix(1 0 0 -1 0 1552)" d="M0 2913.843L1176 1715.035L1176 1715.035L1176 1552L1176 1552L0 1552" stroke="none" fill="#FFD800" fill-rule="evenodd" fill-opacity="0.1960784" /><path transform="matrix(1 0 0 -1 0 1552)" d="M0 968.7548L1176 -230.0528L1176 -230.0528L1176 0L1176 0L0 0" stroke="none" fill="#FF387D" fill-rule="evenodd" fill-opacity="0.1960784" /></g></g><g clip-path="url(#40)"><g><path transform="matrix(1 0 0 -1 0 1552)" d="M0 2914L1176 1715L1176 1715L1176 -231L1176 -231L0 968" stroke="none" fill="url(#19933)" /><path transform="matrix(1 0 0 -1 0 1552)" d="M0 2913.245L1176 1714.438L1176 1714.438L1176 1552L1176 1552L0 1552" stroke="none" fill="#FFD800" fill-rule="evenodd" fill-opacity="0.1960784" /><path transform="matrix(1 0 0 -1 0 1552)" d="M0 969.1265L1176 -229.681L1176 -229.681L1176 0L1176 0L0 0" stroke="none" fill="#FF387D" fill-rule="evenodd" fill-opacity="0.1960784" /></g></g><g clip-path="url(#41)"><g><path transform="matrix(1 0 0 -1 0 1552)" d="M0 2914L1176 1715L1176 1715L1176 -230L1176 -230L0 968" stroke="none" fill="url(#20531)" /><path transform="matrix(1 0 0 -1 0 1552)" d="M0 2912.651L1176 1713.843L1176 1713.843L1176 1552L1176 1552L0 1552" stroke="none" fill="#FFD800" fill-rule="evenodd" fill-opacity="0.1960784" /><path transform="matrix(1 0 0 -1 0 1552)" d="M0 969.4531L1176 -229.3545L1176 -229.3545L1176 0L1176 0L0 0" stroke="none" fill="#FF387D" fill-rule="evenodd" fill-opacity="0.1960784" /></g></g><g clip-path="url(#42)"><g><path transform="matrix(1 0 0 -1 0 1552)" d="M0 2913L1176 1714L1176 1714L1176 -230L1176 -230L0 969" stroke="none" fill="url(#21125)" /><path transform="matrix(1 0 0 -1 0 1552)" d="M0 2912.056L1176 1713.248L1176 1713.248L1176 1552L1176 1552L0 1552" stroke="none" fill="#FFD800" fill-rule="evenodd" fill-opacity="0.1960784" /><path transform="matrix(1 0 0 -1 0 1552)" d="M0 969.7383L1176 -229.0692L1176 -229.0692L1176 0L1176 0L0 0" stroke="none" fill="#FF387D" fill-rule="evenodd" fill-opacity="0.1960784" /></g></g><g clip-path="url(#43)"><g><path transform="matrix(1 0 0 -1 0 1552)" d="M0 2912L1176 1714L1176 1714L1176 -230L1176 -230L0 969" stroke="none" fill="url(#21708)" /><path transform="matrix(1 0 0 -1 0 1552)" d="M0 2911.463L1176 1712.656L1176 1712.656L1176 1552L1176 1552L0 1552" stroke="none" fill="#FFD800" fill-rule="evenodd" fill-opacity="0.1960784" /><path transform="matrix(1 0 0 -1 0 1552)" d="M0 969.9956L1176 -228.8119L1176 -228.8119L1176 0L1176 0L0 0" stroke="none" fill="#FF387D" fill-rule="evenodd" fill-opacity="0.1960784" /></g></g><g clip-path="url(#44)"><g><path transform="matrix(1 0 0 -1 0 1552)" d="M0 2912L1176 1713L1176 1713L1176 -230L1176 -230L0 969" stroke="none" fill="url(#22305)" /><path transform="matrix(1 0 0 -1 0 1552)" d="M0 2910.876L1176 1712.068L1176 1712.068L1176 1552L1176 1552L0 1552" stroke="none" fill="#FFD800" fill-rule="evenodd" fill-opacity="0.1960784" /><path transform="matrix(1 0 0 -1 0 1552)" d="M0 970.2167L1176 -228.5909L1176 -228.5909L1176 0L1176 0L0 0" stroke="none" fill="#FF387D" fill-rule="evenodd" fill-opacity="0.1960784" /></g></g></g></g><g><g clip-path="url(#45)"><g clip-path="url(#46)"><g><path transform="matrix(1 0 0 -1 0 1552)" d="M0 -48677L1176 188034L1176 188034L1176 45964L1176 45964L0 -190748" stroke="none" fill="url(#23018)" /><path transform="matrix(1 0 0 -1 0 1552)" d="M0 -48795.42L1176 187915.8L1176 187915.8L1176 1552L1176 1552L0 1552" stroke="none" fill="#560099" fill-rule="evenodd" fill-opacity="0.04705882" /><path transform="matrix(1 0 0 -1 0 1552)" d="M0 -190629.2L1176 46082.03L1176 46082.03L1176 0L1176 0L0 0" stroke="none" fill="#FF0A35" fill-rule="evenodd" fill-opacity="0.04705882" /></g></g><g clip-path="url(#47)"><g><path transform="matrix(1 0 0 -1 0 1552)" d="M0 -46392L1176 190319L1176 190319L1176 48249L1176 48249L0 -188462" stroke="none" fill="url(#23512)" /><path transform="matrix(1 0 0 -1 0 1552)" d="M0 -46510.31L1176 190200.9L1176 190200.9L1176 1552L1176 1552L0 1552" stroke="none" fill="#560099" fill-rule="evenodd" fill-opacity="0.04705882" /><path transform="matrix(1 0 0 -1 0 1552)" d="M0 -188344.1L1176 48367.14L1176 48367.14L1176 0L1176 0L0 0" stroke="none" fill="#FF0A35" fill-rule="evenodd" fill-opacity="0.04705882" /></g></g><g clip-path="url(#48)"><g><path transform="matrix(1 0 0 -1 0 1552)" d="M0 -44107L1176 192605L1176 192605L1176 50534L1176 50534L0 -186177" stroke="none" fill="url(#24009)" /><path transform="matrix(1 0 0 -1 0 1552)" d="M0 -44225.01L1176 192486.2L1176 192486.2L1176 1552L1176 1552L0 1552" stroke="none" fill="#560099" fill-rule="evenodd" fill-opacity="0.04705882" /><path transform="matrix(1 0 0 -1 0 1552)" d="M0 -186058.8L1176 50652.45L1176 50652.45L1176 0L1176 0L0 0" stroke="none" fill="#FF0A35" fill-rule="evenodd" fill-opacity="0.04705882" /></g></g><g clip-path="url(#49)"><g><path transform="matrix(1 0 0 -1 0 1552)" d="M0 -41820L1176 194883L1176 194883L1176 52817L1176 52817L0 -183886" stroke="none" fill="url(#24506)" /><path transform="matrix(1 0 0 -1 0 1552)" d="M0 -41938.24L1176 194765L1176 194765L1176 1552L1176 1552L0 1552" stroke="none" fill="#560099" fill-rule="evenodd" fill-opacity="0.04705882" /><path transform="matrix(1 0 0 -1 0 1552)" d="M0 -183767.4L1176 52935.85L1176 52935.85L1176 0L1176 0L0 0" stroke="none" fill="#FF0A35" fill-rule="evenodd" fill-opacity="0.04705882" /></g></g><g clip-path="url(#50)"><g><path transform="matrix(1 0 0 -1 0 1552)" d="M0 -39536L1176 197175L1176 197175L1176 55105L1176 55105L0 -181607" stroke="none" fill="url(#25002)" /><path transform="matrix(1 0 0 -1 0 1552)" d="M0 -39654.59L1176 197056.6L1176 197056.6L1176 1552L1176 1552L0 1552" stroke="none" fill="#560099" fill-rule="evenodd" fill-opacity="0.04705882" /><path transform="matrix(1 0 0 -1 0 1552)" d="M0 -181488.4L1176 55222.86L1176 55222.86L1176 0L1176 0L0 0" stroke="none" fill="#FF0A35" fill-rule="evenodd" fill-opacity="0.04705882" /></g></g><g clip-path="url(#51)"><g><path transform="matrix(1 0 0 -1 0 1552)" d="M0 -37251L1176 199460L1176 199460L1176 57390L1176 57390L0 -179321" stroke="none" fill="url(#25498)" /><path transform="matrix(1 0 0 -1 0 1552)" d="M0 -37369.29L1176 199341.9L1176 199341.9L1176 1552L1176 1552L0 1552" stroke="none" fill="#560099" fill-rule="evenodd" fill-opacity="0.04705882" /><path transform="matrix(1 0 0 -1 0 1552)" d="M0 -179203.1L1176 57508.16L1176 57508.16L1176 0L1176 0L0 0" stroke="none" fill="#FF0A35" fill-rule="evenodd" fill-opacity="0.04705882" /></g></g><g clip-path="url(#52)"><g><path transform="matrix(1 0 0 -1 0 1552)" d="M0 -34966L1176 201745L1176 201745L1176 59675L1176 59675L0 -177036" stroke="none" fill="url(#25993)" /><path transform="matrix(1 0 0 -1 0 1552)" d="M0 -35084.18L1176 201627L1176 201627L1176 1552L1176 1552L0 1552" stroke="none" fill="#560099" fill-rule="evenodd" fill-opacity="0.04705882" /><path transform="matrix(1 0 0 -1 0 1552)" d="M0 -176917.9L1176 59793.27L1176 59793.27L1176 0L1176 0L0 0" stroke="none" fill="#FF0A35" fill-rule="evenodd" fill-opacity="0.04705882" /></g></g><g clip-path="url(#53)"><g><path transform="matrix(1 0 0 -1 0 1552)" d="M0 -32681L1176 204031L1176 204031L1176 61960L1176 61960L0 -174751" stroke="none" fill="url(#26487)" /><path transform="matrix(1 0 0 -1 0 1552)" d="M0 -32798.88L1176 203912.3L1176 203912.3L1176 1552L1176 1552L0 1552" stroke="none" fill="#560099" fill-rule="evenodd" fill-opacity="0.04705882" /><path transform="matrix(1 0 0 -1 0 1552)" d="M0 -174632.6L1176 62078.57L1176 62078.57L1176 0L1176 0L0 0" stroke="none" fill="#FF0A35" fill-rule="evenodd" fill-opacity="0.04705882" /></g></g><g clip-path="url(#54)"><g><path transform="matrix(1 0 0 -1 0 1552)" d="M0 -30395L1176 206316L1176 206316L1176 64245L1176 64245L0 -172466" stroke="none" fill="url(#26981)" /><path transform="matrix(1 0 0 -1 0 1552)" d="M0 -30513.76L1176 206197.5L1176 206197.5L1176 1552L1176 1552L0 1552" stroke="none" fill="#560099" fill-rule="evenodd" fill-opacity="0.04705882" /><path transform="matrix(1 0 0 -1 0 1552)" d="M0 -172347.5L1176 64363.69L1176 64363.69L1176 0L1176 0L0 0" stroke="none" fill="#FF0A35" fill-rule="evenodd" fill-opacity="0.04705882" /></g></g><g clip-path="url(#55)"><g><path transform="matrix(1 0 0 -1 0 1552)" d="M0 -28110L1176 208601L1176 208601L1176 66531L1176 66531L0 -170181" stroke="none" fill="url(#27477)" /><path transform="matrix(1 0 0 -1 0 1552)" d="M0 -28228.46L1176 208482.8L1176 208482.8L1176 1552L1176 1552L0 1552" stroke="none" fill="#560099" fill-rule="evenodd" fill-opacity="0.04705882" /><path transform="matrix(1 0 0 -1 0 1552)" d="M0 -170062.2L1176 66648.99L1176 66648.99L1176 0L1176 0L0 0" stroke="none" fill="#FF0A35" fill-rule="evenodd" fill-opacity="0.04705882" /></g></g><g clip-path="url(#56)"><g><path transform="matrix(1 0 0 -1 0 1552)" d="M0 -25824L1176 210879L1176 210879L1176 68814L1176 68814L0 -167890" stroke="none" fill="url(#27973)" /><path transform="matrix(1 0 0 -1 0 1552)" d="M0 -25942.23L1176 210761L1176 210761L1176 1552L1176 1552L0 1552" stroke="none" fill="#560099" fill-rule="evenodd" fill-opacity="0.04705882" /><path transform="matrix(1 0 0 -1 0 1552)" d="M0 -167771.4L1176 68931.85L1176 68931.85L1176 0L1176 0L0 0" stroke="none" fill="#FF0A35" fill-rule="evenodd" fill-opacity="0.04705882" /></g></g><g clip-path="url(#57)"><g><path transform="matrix(1 0 0 -1 0 1552)" d="M0 -23540L1176 213172L1176 213172L1176 71101L1176 71101L0 -165610" stroke="none" fill="url(#28464)" /><path transform="matrix(1 0 0 -1 0 1552)" d="M0 -23658.05L1176 213053.1L1176 213053.1L1176 1552L1176 1552L0 1552" stroke="none" fill="#560099" fill-rule="evenodd" fill-opacity="0.04705882" /><path transform="matrix(1 0 0 -1 0 1552)" d="M0 -165491.8L1176 71219.41L1176 71219.41L1176 0L1176 0L0 0" stroke="none" fill="#FF0A35" fill-rule="evenodd" fill-opacity="0.04705882" /></g></g><g clip-path="url(#58)"><g><path transform="matrix(1 0 0 -1 0 1552)" d="M0 -21254L1176 215450L1176 215450L1176 73384L1176 73384L0 -163320" stroke="none" fill="url(#28958)" /><path transform="matrix(1 0 0 -1 0 1552)" d="M0 -21371.97L1176 215331.3L1176 215331.3L1176 1552L1176 1552L0 1552" stroke="none" fill="#560099" fill-rule="evenodd" fill-opacity="0.04705882" /><path transform="matrix(1 0 0 -1 0 1552)" d="M0 -163201.2L1176 73502.12L1176 73502.12L1176 0L1176 0L0 0" stroke="none" fill="#FF0A35" fill-rule="evenodd" fill-opacity="0.04705882" /></g></g><g clip-path="url(#59)"><g><path transform="matrix(1 0 0 -1 0 1552)" d="M0 -18969L1176 217742L1176 217742L1176 75671L1176 75671L0 -161040" stroke="none" fill="url(#29454)" /><path transform="matrix(1 0 0 -1 0 1552)" d="M0 -19087.63L1176 217623.6L1176 217623.6L1176 1552L1176 1552L0 1552" stroke="none" fill="#560099" fill-rule="evenodd" fill-opacity="0.04705882" /><path transform="matrix(1 0 0 -1 0 1552)" d="M0 -160921.4L1176 75789.82L1176 75789.82L1176 0L1176 0L0 0" stroke="none" fill="#FF0A35" fill-rule="evenodd" fill-opacity="0.04705882" /></g></g><g clip-path="url(#60)"><g><path transform="matrix(1 0 0 -1 0 1552)" d="M0 -16684L1176 220027L1176 220027L1176 77957L1176 77957L0 -158754" stroke="none" fill="url(#29943)" /><path transform="matrix(1 0 0 -1 0 1552)" d="M0 -16802.33L1176 219908.9L1176 219908.9L1176 1552L1176 1552L0 1552" stroke="none" fill="#560099" fill-rule="evenodd" fill-opacity="0.04705882" /><path transform="matrix(1 0 0 -1 0 1552)" d="M0 -158636.1L1176 78075.12L1176 78075.12L1176 0L1176 0L0 0" stroke="none" fill="#FF0A35" fill-rule="evenodd" fill-opacity="0.04705882" /></g></g><g clip-path="url(#61)"><g><path transform="matrix(1 0 0 -1 0 1552)" d="M0 -14399L1176 222312L1176 222312L1176 80242L1176 80242L0 -156469" stroke="none" fill="url(#30432)" /><path transform="matrix(1 0 0 -1 0 1552)" d="M0 -14517.22L1176 222194L1176 222194L1176 1552L1176 1552L0 1552" stroke="none" fill="#560099" fill-rule="evenodd" fill-opacity="0.04705882" /><path transform="matrix(1 0 0 -1 0 1552)" d="M0 -156351L1176 80360.23L1176 80360.23L1176 0L1176 0L0 0" stroke="none" fill="#FF0A35" fill-rule="evenodd" fill-opacity="0.04705882" /></g></g><g clip-path="url(#62)"><g><path transform="matrix(1 0 0 -1 0 1552)" d="M0 -12114L1176 224598L1176 224598L1176 82527L1176 82527L0 -154184" stroke="none" fill="url(#30917)" /><path transform="matrix(1 0 0 -1 0 1552)" d="M0 -12231.92L1176 224479.3L1176 224479.3L1176 1552L1176 1552L0 1552" stroke="none" fill="#560099" fill-rule="evenodd" fill-opacity="0.04705882" /><path transform="matrix(1 0 0 -1 0 1552)" d="M0 -154065.7L1176 82645.53L1176 82645.53L1176 0L1176 0L0 0" stroke="none" fill="#FF0A35" fill-rule="evenodd" fill-opacity="0.04705882" /></g></g></g></g></g><g clip-path="url(#63)"><path transform="matrix(1 0 0 -1 0 1552)" d="M1176.34 0.49L0 0.49L0 0.49L0 1552.877L0 1552.877L1176.34 1552.877z" stroke="#E6E7E8" stroke-width="1" fill="none" /><g><g clip-path="url(#64)"><g clip-path="url(#65)"><g><path transform="matrix(1 0 0 -1 0 1552)" d="M1019.149 0L1019.149 1552L1019.149 1552L1176.34 1552L1176.34 1552L1176.34 0" stroke="none" fill="url(#31824)" /><path transform="matrix(1 0 0 -1 0 1552)" d="M1019.149 0L1019.149 1552L1019.149 1552L0 1552L0 1552L0 0" stroke="none" fill="#4C216D" fill-rule="evenodd" fill-opacity="0.4980392" /><path transform="matrix(1 0 0 -1 0 1552)" d="M1176.34 0L1176.34 1552L1176.34 1552L1176 1552L1176 1552L1176 0" stroke="none" fill="#B83F54" fill-rule="evenodd" fill-opacity="0.4980392" /></g></g></g></g><g><g clip-path="url(#66)"></g></g></g><g clip-path="url(#67)"><g transform="matrix(0.2398164 0 0 0.2382367 752.501 1466.534)"><g transform="matrix(1 0 0 1 0 0)"><image x="0" y="0" xlink:href="img_07.png" width="207" height="125" /></g></g></g><path transform="matrix(1 0 0 -1 0 1552)" d="M813.9316 80.2148L813.9316 64.1328" stroke="#797A7C" stroke-width="1" fill="none" /><path transform="matrix(1 0 0 -1 0 1552)" d="M206.757 635.397L145.786 635.397L145.786 635.397L145.786 722.72L145.786 722.72L206.757 722.72z" stroke="none" fill="#E2D7E2" fill-rule="winding" /><path transform="matrix(1 0 0 -1 0 1552)" d="M206.757 318.017L145.786 318.017L145.786 318.017L145.786 632.836L145.786 632.836L206.757 632.836z" stroke="none" fill="#F2F2F2" fill-rule="winding" /><path transform="matrix(1 0 0 -1 0 1552)" d="M392.164 635.397L208.997 635.397L208.997 635.397L208.997 722.72L208.997 722.72L392.164 722.72z" stroke="none" fill="#E2D7E2" fill-rule="winding" /><path transform="matrix(1 0 0 -1 0 1552)" d="M392.164 318.017L208.997 318.017L208.997 318.017L208.997 632.836L208.997 632.836L392.164 632.836z" stroke="none" fill="#E8E8E8" fill-rule="winding" /><path transform="matrix(1 0 0 -1 0 1552)" d="M724.164 635.397L551.164 635.397L551.164 635.397L551.164 722.72L551.164 722.72L724.164 722.72z" stroke="none" fill="#E2D7E2" fill-rule="winding" /><path transform="matrix(1 0 0 -1 0 1552)" d="M724.164 595.724L551.164 595.724L551.164 595.724L551.164 632.836L551.164 632.836L724.164 632.836z" stroke="none" fill="#F2F2F2" fill-rule="winding" /><path transform="matrix(1 0 0 -1 0 1552)" d="M834.326 635.397L726.761 635.397L726.761 635.397L726.761 722.72L726.761 722.72L834.326 722.72z" stroke="none" fill="#E2D7E2" fill-rule="winding" /><path transform="matrix(1 0 0 -1 0 1552)" d="M834.326 318.017L726.761 318.017L726.761 318.017L726.761 632.836L726.761 632.836L834.326 632.836z" stroke="none" fill="#E8E8E8" fill-rule="winding" /><path transform="matrix(1 0 0 -1 0 1552)" d="M944.892 635.397L837.326 635.397L837.326 635.397L837.326 722.72L837.326 722.72L944.892 722.72z" stroke="none" fill="#E2D7E2" fill-rule="winding" /><path transform="matrix(1 0 0 -1 0 1552)" d="M944.892 318.017L837.326 318.017L837.326 318.017L837.326 632.836L837.326 632.836L944.892 632.836z" stroke="none" fill="#F2F2F2" fill-rule="winding" /><path transform="matrix(1 0 0 -1 0 1552)" d="M1055.401 635.397L947.835 635.397L947.835 635.397L947.835 722.72L947.835 722.72L1055.401 722.72z" stroke="none" fill="#E2D7E2" fill-rule="winding" /><path transform="matrix(1 0 0 -1 0 1552)" d="M1055.401 318.017L947.835 318.017L947.835 318.017L947.835 632.836L947.835 632.836L1055.401 632.836z" stroke="none" fill="#E8E8E8" fill-rule="winding" /><path transform="matrix(1 0 0 -1 0 1552)" d="M470.164 635.397L395.164 635.397L395.164 635.397L395.164 722.72L395.164 722.72L470.164 722.72z" stroke="none" fill="#E2D7E2" fill-rule="winding" /><path transform="matrix(1 0 0 -1 0 1552)" d="M470.164 595.724L395.164 595.724L395.164 595.724L395.164 632.836L395.164 632.836L470.164 632.836z" stroke="none" fill="#F2F2F2" fill-rule="winding" /><path transform="matrix(1 0 0 -1 0 1552)" d="M548.164 635.397L473.164 635.397L473.164 635.397L473.164 722.72L473.164 722.72L548.164 722.72z" stroke="none" fill="#E2D7E2" fill-rule="winding" /><path transform="matrix(1 0 0 -1 0 1552)" d="M548.164 595.724L473.164 595.724L473.164 595.724L473.164 632.836L473.164 632.836L548.164 632.836z" stroke="none" fill="#E8E8E8" fill-rule="winding" /><path transform="matrix(1 0 0 -1 0 1552)" d="M724.164 556.052L551.164 556.052L551.164 556.052L551.164 593.165L551.164 593.165L724.164 593.165z" stroke="none" fill="#F2F2F2" fill-rule="winding" /><path transform="matrix(1 0 0 -1 0 1552)" d="M470.164 556.052L395.164 556.052L395.164 556.052L395.164 593.165L395.164 593.165L470.164 593.165z" stroke="none" fill="#F2F2F2" fill-rule="winding" /><path transform="matrix(1 0 0 -1 0 1552)" d="M548.164 556.052L473.164 556.052L473.164 556.052L473.164 593.165L473.164 593.165L548.164 593.165z" stroke="none" fill="#E8E8E8" fill-rule="winding" /><path transform="matrix(1 0 0 -1 0 1552)" d="M724.164 516.38L551.164 516.38L551.164 516.38L551.164 553.492L551.164 553.492L724.164 553.492z" stroke="none" fill="#F2F2F2" fill-rule="winding" /><path transform="matrix(1 0 0 -1 0 1552)" d="M470.164 516.38L395.164 516.38L395.164 516.38L395.164 553.492L395.164 553.492L470.164 553.492z" stroke="none" fill="#F2F2F2" fill-rule="winding" /><path transform="matrix(1 0 0 -1 0 1552)" d="M548.164 516.38L473.164 516.38L473.164 516.38L473.164 553.492L473.164 553.492L548.164 553.492z" stroke="none" fill="#E8E8E8" fill-rule="winding" /><path transform="matrix(1 0 0 -1 0 1552)" d="M724.164 476.707L551.164 476.707L551.164 476.707L551.164 513.82L551.164 513.82L724.164 513.82z" stroke="none" fill="#F2F2F2" fill-rule="winding" /><path transform="matrix(1 0 0 -1 0 1552)" d="M470.164 476.707L395.164 476.707L395.164 476.707L395.164 513.82L395.164 513.82L470.164 513.82z" stroke="none" fill="#F2F2F2" fill-rule="winding" /><path transform="matrix(1 0 0 -1 0 1552)" d="M548.164 476.707L473.164 476.707L473.164 476.707L473.164 513.82L473.164 513.82L548.164 513.82z" stroke="none" fill="#E8E8E8" fill-rule="winding" /><path transform="matrix(1 0 0 -1 0 1552)" d="M724.164 437.035L551.164 437.035L551.164 437.035L551.164 474.147L551.164 474.147L724.164 474.147z" stroke="none" fill="#F2F2F2" fill-rule="winding" /><path transform="matrix(1 0 0 -1 0 1552)" d="M470.164 437.035L395.164 437.035L395.164 437.035L395.164 474.147L395.164 474.147L470.164 474.147z" stroke="none" fill="#F2F2F2" fill-rule="winding" /><path transform="matrix(1 0 0 -1 0 1552)" d="M548.164 437.035L473.164 437.035L473.164 437.035L473.164 474.147L473.164 474.147L548.164 474.147z" stroke="none" fill="#E8E8E8" fill-rule="winding" /><path transform="matrix(1 0 0 -1 0 1552)" d="M724.164 397.362L551.164 397.362L551.164 397.362L551.164 434.474L551.164 434.474L724.164 434.474z" stroke="none" fill="#F2F2F2" fill-rule="winding" /><path transform="matrix(1 0 0 -1 0 1552)" d="M470.164 397.362L395.164 397.362L395.164 397.362L395.164 434.474L395.164 434.474L470.164 434.474z" stroke="none" fill="#F2F2F2" fill-rule="winding" /><path transform="matrix(1 0 0 -1 0 1552)" d="M548.164 397.362L473.164 397.362L473.164 397.362L473.164 434.474L473.164 434.474L548.164 434.474z" stroke="none" fill="#E8E8E8" fill-rule="winding" /><path transform="matrix(1 0 0 -1 0 1552)" d="M724.164 357.689L551.164 357.689L551.164 357.689L551.164 394.802L551.164 394.802L724.164 394.802z" stroke="none" fill="#F2F2F2" fill-rule="winding" /><path transform="matrix(1 0 0 -1 0 1552)" d="M470.164 357.689L395.164 357.689L395.164 357.689L395.164 394.802L395.164 394.802L470.164 394.802z" stroke="none" fill="#F2F2F2" fill-rule="winding" /><path transform="matrix(1 0 0 -1 0 1552)" d="M548.164 357.689L473.164 357.689L473.164 357.689L473.164 394.802L473.164 394.802L548.164 394.802z" stroke="none" fill="#E8E8E8" fill-rule="winding" /><path transform="matrix(1 0 0 -1 0 1552)" d="M724.164 318.017L551.164 318.017L551.164 318.017L551.164 355.129L551.164 355.129L724.164 355.129z" stroke="none" fill="#F2F2F2" fill-rule="winding" /><path transform="matrix(1 0 0 -1 0 1552)" d="M470.164 318.017L395.164 318.017L395.164 318.017L395.164 355.129L395.164 355.129L470.164 355.129z" stroke="none" fill="#F2F2F2" fill-rule="winding" /><path transform="matrix(1 0 0 -1 0 1552)" d="M548.164 318.017L473.164 318.017L473.164 318.017L473.164 355.129L473.164 355.129L548.164 355.129z" stroke="none" fill="#E8E8E8" fill-rule="winding" /><path transform="matrix(1 0 0 -1 0 1552)" d="M704.0459 981.2373L704.0459 981.2373L704.0459 981.2373L874.5219 981.2373z" stroke="#5BA5EF" stroke-width="1.1" fill="none" /></g></g></g><defs><clipPath id="1"><path d="M0 1552L0 -0.3900146L0 -0.3900146L1176.34 -0.3900146L1176.34 -0.3900146L1176.34 1552L1176.34 1552L0 1552z" /></clipPath><clipPath id="2"><path d="M0 -0.3869629L1176.341 -0.3869629L1176.341 -0.3869629L1176.341 1552L1176.341 1552L0 1552z" /></clipPath><clipPath id="3"><path d="M144.787 1303.964L406.789 1303.964L406.789 1303.964L406.789 1304.964L406.789 1304.964L144.787 1304.964z" /></clipPath><clipPath id="4"><path d="M0 190.26L1055.401 190.26L1055.401 190.26L1055.401 115.582L1055.401 115.582L0 115.582z" /></clipPath><clipPath id="5"><path d="M-485.631 -200.59L1499.74 -200.59L1499.74 -200.59L1499.74 954.301L1499.74 954.301L-485.631 954.301z" /></clipPath><clipPath id="6"><path d="M-0.566 954.301L1425.255 951.248L1425.255 951.248L1499.743 -200.587L1499.743 -200.587L-485.63 -196.318z" /></clipPath><linearGradient transform="matrix(1 0 0 1 0 0)" id="1240" x1="-202.059" y1="1990.162" x2="-202.0591990.162" y2="-202.0591486.015"><stop stop-color="#4C216D" offset="0%" /><stop stop-color="#B83F54" offset="100%" /></linearGradient><clipPath id="7"><path d="M-261.827 -707.72L1430.74 -707.72L1430.74 -707.72L1430.74 497.6899L1430.74 497.6899L-261.827 497.6899z" /></clipPath><clipPath id="8"><path d="M508.601 16.65198L507.862 15.87598L507.862 15.87598L-28.115 -510.353L-28.115 -510.353L-26.604 -511.884L-26.604 -511.884L508.63 13.56104L508.63 13.56104L1200.169 -691.5391L1200.169 -691.5391L1201.649 -689.979z" /></clipPath><linearGradient transform="matrix(1 0 0 1 0 0)" id="2062" x1="-48.09674" y1="2476.705" x2="-48.096742476.705" y2="-48.09674960.6844"><stop stop-color="#FFD800" offset="0%" /><stop stop-color="#FF387D" offset="100%" /></linearGradient><clipPath id="9"><path d="M508.292 48.72705L507.553 47.95105L507.553 47.95105L-43.694 -494.468L-43.694 -494.468L-42.184 -495.998L-42.184 -495.998L508.323 45.63599L508.323 45.63599L1215.442 -675.3569L1215.442 -675.3569L1216.921 -673.7981z" /></clipPath><linearGradient transform="matrix(1 0 0 1 0 0)" id="2667" x1="-39.58331" y1="2468.17" x2="-39.583312468.17" y2="-39.58331959.9851"><stop stop-color="#FFD800" offset="0%" /><stop stop-color="#FF387D" offset="100%" /></linearGradient><clipPath id="10"><path d="M507.985 80.79297L507.246 80.01794L507.246 80.01794L-59.273 -478.582L-59.273 -478.582L-57.764 -480.1121L-57.764 -480.1121L508.014 77.703L508.014 77.703L1230.713 -659.176L1230.713 -659.176L1232.193 -657.616z" /></clipPath><linearGradient transform="matrix(1 0 0 1 0 0)" id="3266" x1="-31.10059" y1="2459.636" x2="-31.100592459.636" y2="-31.10059959.3137"><stop stop-color="#FFD800" offset="0%" /><stop stop-color="#FF387D" offset="100%" /></linearGradient><clipPath id="11"><path d="M507.677 112.86L506.938 112.076L506.938 112.076L-74.853 -462.697L-74.853 -462.697L-73.343 -464.228L-73.343 -464.228L507.706 109.77L507.706 109.77L1245.985 -642.9939L1245.985 -642.9939L1247.465 -641.4341z" /></clipPath><linearGradient transform="matrix(1 0 0 1 0 0)" id="3864" x1="-22.65503" y1="2451.102" x2="-22.655032451.102" y2="-22.65503958.6768"><stop stop-color="#FFD800" offset="0%" /><stop stop-color="#FF387D" offset="100%" /></linearGradient><clipPath id="12"><path d="M507.369 144.936L506.629 144.152L506.629 144.152L-90.442 -446.802L-90.442 -446.802L-88.931 -448.334L-88.931 -448.334L507.399 141.845L507.399 141.845L1261.264 -626.803L1261.264 -626.803L1262.745 -625.2451z" /></clipPath><linearGradient transform="matrix(1 0 0 1 0 0)" id="4463" x1="-14.23206" y1="2442.564" x2="-14.232062442.564" y2="-14.23206958.0642"><stop stop-color="#FFD800" offset="0%" /><stop stop-color="#FF387D" offset="100%" /></linearGradient><clipPath id="13"><path d="M507.061 177.002L506.322 176.218L506.322 176.218L-106.021 -430.927L-106.021 -430.927L-104.511 -432.458L-104.511 -432.458L507.09 173.911L507.09 173.911L1276.537 -610.6311L1276.537 -610.6311L1278.016 -609.072z" /></clipPath><linearGradient transform="matrix(1 0 0 1 0 0)" id="5065" x1="-5.836426" y1="2434.032" x2="-5.8364262434.032" y2="-5.836426957.4756"><stop stop-color="#FFD800" offset="0%" /><stop stop-color="#FF387D" offset="100%" /></linearGradient><clipPath id="14"><path d="M506.753 209.0601L506.013 208.285L506.013 208.285L-121.6 -415.042L-121.6 -415.042L-120.091 -416.572L-120.091 -416.572L506.783 205.97L506.783 205.97L1291.808 -594.449L1291.808 -594.449L1293.289 -592.8899z" /></clipPath><linearGradient transform="matrix(1 0 0 1 0 0)" id="5663" x1="2.536682" y1="2425.498" x2="2.5366822425.498" y2="2.536682956.9064"><stop stop-color="#FFD800" offset="0%" /><stop stop-color="#FF387D" offset="100%" /></linearGradient><clipPath id="15"><path d="M506.445 241.136L505.706 240.36L505.706 240.36L-137.18 -399.147L-137.18 -399.147L-135.67 -400.677L-135.67 -400.677L506.475 238.045L506.475 238.045L1307.081 -578.26L1307.081 -578.26L1308.56 -576.7z" /></clipPath><linearGradient transform="matrix(1 0 0 1 0 0)" id="6251" x1="10.89319" y1="2416.953" x2="10.893192416.953" y2="10.89319956.3563"><stop stop-color="#FFD800" offset="0%" /><stop stop-color="#FF387D" offset="100%" /></linearGradient><clipPath id="16"><path d="M506.137 273.21L505.397 272.4351L505.397 272.4351L-152.76 -383.262L-152.76 -383.262L-151.251 -384.7939L-151.251 -384.7939L506.166 270.12L506.166 270.12L1322.352 -562.0779L1322.352 -562.0779L1323.832 -560.5181z" /></clipPath><linearGradient transform="matrix(1 0 0 1 0 0)" id="6852" x1="19.2262" y1="2408.418" x2="19.22622408.418" y2="19.2262955.8331"><stop stop-color="#FFD800" offset="0%" /><stop stop-color="#FF387D" offset="100%" /></linearGradient><clipPath id="17"><path d="M505.829 305.269L505.089 304.486L505.089 304.486L-168.34 -367.377L-168.34 -367.377L-166.831 -368.908L-166.831 -368.908L505.859 302.179L505.859 302.179L1337.624 -545.896L1337.624 -545.896L1339.104 -544.3369z" /></clipPath><linearGradient transform="matrix(1 0 0 1 0 0)" id="7447" x1="27.52917" y1="2399.878" x2="27.529172399.878" y2="27.52917955.328"><stop stop-color="#FFD800" offset="0%" /><stop stop-color="#FF387D" offset="100%" /></linearGradient><clipPath id="18"><path d="M505.521 337.345L504.789 336.561L504.789 336.561L-183.919 -351.491L-183.919 -351.491L-182.411 -353.0229L-182.411 -353.0229L505.55 334.254L505.55 334.254L1352.895 -529.7151L1352.895 -529.7151L1354.375 -528.156z" /></clipPath><linearGradient transform="matrix(1 0 0 1 0 0)" id="8047" x1="35.82007" y1="2391.342" x2="35.820072391.342" y2="35.82007954.8461"><stop stop-color="#FFD800" offset="0%" /><stop stop-color="#FF387D" offset="100%" /></linearGradient><clipPath id="19"><path d="M505.213 369.4189L504.481 368.636L504.481 368.636L-199.507 -335.6071L-199.507 -335.6071L-197.998 -337.137L-197.998 -337.137L505.243 366.329L505.243 366.329L1368.175 -513.533L1368.175 -513.533L1369.655 -511.9729z" /></clipPath><linearGradient transform="matrix(1 0 0 1 0 0)" id="8650" x1="44.09619" y1="2382.802" x2="44.096192382.802" y2="44.09619954.3707"><stop stop-color="#FFD800" offset="0%" /><stop stop-color="#FF387D" offset="100%" /></linearGradient><clipPath id="20"><path d="M504.905 401.478L504.165 400.702L504.165 400.702L-215.087 -319.7209L-215.087 -319.7209L-213.578 -321.252L-213.578 -321.252L504.935 398.387L504.935 398.387L1383.447 -497.3511L1383.447 -497.3511L1384.927 -495.792z" /></clipPath><linearGradient transform="matrix(1 0 0 1 0 0)" id="9253" x1="52.34747" y1="2374.265" x2="52.347472374.265" y2="52.34747953.9189"><stop stop-color="#FFD800" offset="0%" /><stop stop-color="#FF387D" offset="100%" /></linearGradient><clipPath id="21"><path d="M504.597 433.545L503.858 432.769L503.858 432.769L-230.667 -303.837L-230.667 -303.837L-229.158 -305.3669L-229.158 -305.3669L504.626 430.454L504.626 430.454L1398.718 -481.171L1398.718 -481.171L1400.199 -479.61z" /></clipPath><linearGradient transform="matrix(1 0 0 1 0 0)" id="9853" x1="60.58032" y1="2365.726" x2="60.580322365.726" y2="60.58032953.4873"><stop stop-color="#FFD800" offset="0%" /><stop stop-color="#FF387D" offset="100%" /></linearGradient><clipPath id="22"><path d="M504.289 465.619L503.549 464.844L503.549 464.844L-246.247 -287.942L-246.247 -287.942L-244.738 -289.473L-244.738 -289.473L504.319 462.53L504.319 462.53L1413.99 -464.98L1413.99 -464.98L1415.47 -463.42z" /></clipPath><linearGradient transform="matrix(1 0 0 1 0 0)" id="10444" x1="68.80304" y1="2357.185" x2="68.803042357.185" y2="68.80304953.0706"><stop stop-color="#FFD800" offset="0%" /><stop stop-color="#FF387D" offset="100%" /></linearGradient><clipPath id="23"><path d="M503.981 497.687L503.242 496.903L503.242 496.903L-261.827 -272.056L-261.827 -272.056L-260.325 -273.589L-260.325 -273.589L504.011 494.5959L504.011 494.5959L1429.27 -448.799L1429.27 -448.799L1430.743 -447.239z" /></clipPath><linearGradient transform="matrix(1 0 0 1 0 0)" id="11044" x1="77.00189" y1="2348.651" x2="77.001892348.651" y2="77.00189952.6741"><stop stop-color="#FFD800" offset="0%" /><stop stop-color="#FF387D" offset="100%" /></linearGradient><clipPath id="24"><path d="M0 695.516L1055.401 695.516L1055.401 695.516L1055.401 620.838L1055.401 620.838L0 620.838z" /></clipPath><clipPath id="25"><path d="M-485.631 304.67L1499.74 304.67L1499.74 304.67L1499.74 1459.557L1499.74 1459.557L-485.631 1459.557z" /></clipPath><clipPath id="26"><path d="M-0.566 1459.557L1425.255 1456.504L1425.255 1456.504L1499.743 304.67L1499.743 304.67L-485.63 308.938z" /></clipPath><linearGradient transform="matrix(1 0 0 1 0 0)" id="11946" x1="-202.059" y1="1484.906" x2="-202.0591484.906" y2="-202.0591486.015"><stop stop-color="#4C216D" offset="0%" /><stop stop-color="#B83F54" offset="100%" /></linearGradient><clipPath id="27"><path d="M-261.827 -202.46L1430.74 -202.46L1430.74 -202.46L1430.74 1002.943L1430.74 1002.943L-261.827 1002.943z" /></clipPath><clipPath id="28"><path d="M508.909 489.849L508.169 489.0649L508.169 489.0649L-12.535 -20.98096L-12.535 -20.98096L-11.024 -22.51196L-11.024 -22.51196L508.939 486.7581L508.939 486.7581L1184.898 -202.465L1184.898 -202.465L1186.377 -200.905z" /></clipPath><linearGradient transform="matrix(1 0 0 1 0 0)" id="12774" x1="-56.63861" y1="1979.98" x2="-56.638611979.98" y2="-56.63861961.4152"><stop stop-color="#FFD800" offset="0%" /><stop stop-color="#FF387D" offset="100%" /></linearGradient><clipPath id="29"><path d="M508.601 521.907L507.862 521.132L507.862 521.132L-28.115 -5.097046L-28.115 -5.097046L-26.604 -6.628052L-26.604 -6.628052L508.63 518.817L508.63 518.817L1200.169 -186.282L1200.169 -186.282L1201.649 -184.723z" /></clipPath><linearGradient transform="matrix(1 0 0 1 0 0)" id="13373" x1="-48.09674" y1="1971.449" x2="-48.096741971.449" y2="-48.09674960.6844"><stop stop-color="#FFD800" offset="0%" /><stop stop-color="#FF387D" offset="100%" /></linearGradient><clipPath id="30"><path d="M508.292 553.983L507.553 553.207L507.553 553.207L-43.694 10.78796L-43.694 10.78796L-42.184 9.258057L-42.184 9.258057L508.323 550.892L508.323 550.892L1215.442 -170.1L1215.442 -170.1L1216.921 -168.542z" /></clipPath><linearGradient transform="matrix(1 0 0 1 0 0)" id="13968" x1="-39.58331" y1="1962.914" x2="-39.583311962.914" y2="-39.58331959.985"><stop stop-color="#FFD800" offset="0%" /><stop stop-color="#FF387D" offset="100%" /></linearGradient><clipPath id="31"><path d="M507.985 586.049L507.246 585.274L507.246 585.274L-59.273 26.67395L-59.273 26.67395L-57.764 25.14404L-57.764 25.14404L508.014 582.959L508.014 582.959L1230.713 -153.92L1230.713 -153.92L1232.193 -152.36z" /></clipPath><linearGradient transform="matrix(1 0 0 1 0 0)" id="14563" x1="-31.10059" y1="1954.38" x2="-31.100591954.38" y2="-31.10059959.3137"><stop stop-color="#FFD800" offset="0%" /><stop stop-color="#FF387D" offset="100%" /></linearGradient><clipPath id="32"><path d="M507.677 618.115L506.938 617.332L506.938 617.332L-74.853 42.55896L-74.853 42.55896L-73.343 41.02795L-73.343 41.02795L507.706 615.026L507.706 615.026L1245.985 -137.738L1245.985 -137.738L1247.465 -136.178z" /></clipPath><linearGradient transform="matrix(1 0 0 1 0 0)" id="15160" x1="-22.65503" y1="1945.846" x2="-22.655031945.846" y2="-22.65503958.6768"><stop stop-color="#FFD800" offset="0%" /><stop stop-color="#FF387D" offset="100%" /></linearGradient><clipPath id="33"><path d="M507.369 650.192L506.629 649.407L506.629 649.407L-90.442 58.453L-90.442 58.453L-88.931 56.922L-88.931 56.922L507.399 647.101L507.399 647.101L1261.264 -121.548L1261.264 -121.548L1262.745 -119.989z" /></clipPath><linearGradient transform="matrix(1 0 0 1 0 0)" id="15751" x1="-14.23206" y1="1937.308" x2="-14.232061937.308" y2="-14.23206958.0641"><stop stop-color="#FFD800" offset="0%" /><stop stop-color="#FF387D" offset="100%" /></linearGradient><clipPath id="34"><path d="M507.061 682.258L506.322 681.474L506.322 681.474L-106.021 74.32898L-106.021 74.32898L-104.511 72.79797L-104.511 72.79797L507.09 679.167L507.09 679.167L1276.537 -105.375L1276.537 -105.375L1278.016 -103.816z" /></clipPath><linearGradient transform="matrix(1 0 0 1 0 0)" id="16352" x1="-5.836426" y1="1928.776" x2="-5.8364261928.776" y2="-5.836426957.4756"><stop stop-color="#FFD800" offset="0%" /><stop stop-color="#FF387D" offset="100%" /></linearGradient><clipPath id="35"><path d="M506.753 714.316L506.013 713.541L506.013 713.541L-121.6 90.21399L-121.6 90.21399L-120.091 88.68396L-120.091 88.68396L506.783 711.226L506.783 711.226L1291.808 -89.19299L1291.808 -89.19299L1293.289 -87.63501z" /></clipPath><linearGradient transform="matrix(1 0 0 1 0 0)" id="16954" x1="2.536682" y1="1920.242" x2="2.5366821920.242" y2="2.536682956.9063"><stop stop-color="#FFD800" offset="0%" /><stop stop-color="#FF387D" offset="100%" /></linearGradient><clipPath id="36"><path d="M506.445 746.392L505.706 745.616L505.706 745.616L-137.18 106.109L-137.18 106.109L-135.67 104.578L-135.67 104.578L506.475 743.301L506.475 743.301L1307.081 -73.00403L1307.081 -73.00403L1308.56 -71.44397z" /></clipPath><linearGradient transform="matrix(1 0 0 1 0 0)" id="17548" x1="10.89319" y1="1911.697" x2="10.893191911.697" y2="10.89319956.3563"><stop stop-color="#FFD800" offset="0%" /><stop stop-color="#FF387D" offset="100%" /></linearGradient><clipPath id="37"><path d="M506.137 778.466L505.397 777.691L505.397 777.691L-152.76 121.993L-152.76 121.993L-151.251 120.462L-151.251 120.462L506.166 775.376L506.166 775.376L1322.352 -56.82202L1322.352 -56.82202L1323.832 -55.26196z" /></clipPath><linearGradient transform="matrix(1 0 0 1 0 0)" id="18145" x1="19.2262" y1="1903.162" x2="19.22621903.162" y2="19.2262955.8331"><stop stop-color="#FFD800" offset="0%" /><stop stop-color="#FF387D" offset="100%" /></linearGradient><clipPath id="38"><path d="M505.829 810.525L505.089 809.741L505.089 809.741L-168.34 137.879L-168.34 137.879L-166.831 136.348L-166.831 136.348L505.859 807.435L505.859 807.435L1337.624 -40.64001L1337.624 -40.64001L1339.104 -39.08105z" /></clipPath><linearGradient transform="matrix(1 0 0 1 0 0)" id="18739" x1="27.52917" y1="1894.622" x2="27.529171894.622" y2="27.52917955.3279"><stop stop-color="#FFD800" offset="0%" /><stop stop-color="#FF387D" offset="100%" /></linearGradient><clipPath id="39"><path d="M505.521 842.601L504.789 841.817L504.789 841.817L-183.919 153.765L-183.919 153.765L-182.411 152.234L-182.411 152.234L505.55 839.51L505.55 839.51L1352.895 -24.45898L1352.895 -24.45898L1354.375 -22.89905z" /></clipPath><linearGradient transform="matrix(1 0 0 1 0 0)" id="19334" x1="35.82007" y1="1886.086" x2="35.820071886.086" y2="35.82007954.8461"><stop stop-color="#FFD800" offset="0%" /><stop stop-color="#FF387D" offset="100%" /></linearGradient><clipPath id="40"><path d="M505.213 874.675L504.481 873.892L504.481 873.892L-199.507 169.649L-199.507 169.649L-197.998 168.118L-197.998 168.118L505.243 871.585L505.243 871.585L1368.175 -8.276978L1368.175 -8.276978L1369.655 -6.718018z" /></clipPath><linearGradient transform="matrix(1 0 0 1 0 0)" id="19933" x1="44.09619" y1="1877.546" x2="44.096191877.546" y2="44.09619954.3707"><stop stop-color="#FFD800" offset="0%" /><stop stop-color="#FF387D" offset="100%" /></linearGradient><clipPath id="41"><path d="M504.905 906.734L504.165 905.958L504.165 905.958L-215.087 185.5341L-215.087 185.5341L-213.578 184.004L-213.578 184.004L504.935 903.644L504.935 903.644L1383.447 7.905029L1383.447 7.905029L1384.927 9.463989z" /></clipPath><linearGradient transform="matrix(1 0 0 1 0 0)" id="20531" x1="52.34747" y1="1869.009" x2="52.347471869.009" y2="52.34747953.9189"><stop stop-color="#FFD800" offset="0%" /><stop stop-color="#FF387D" offset="100%" /></linearGradient><clipPath id="42"><path d="M504.597 938.801L503.858 938.026L503.858 938.026L-230.667 201.4189L-230.667 201.4189L-229.158 199.889L-229.158 199.889L504.626 935.71L504.626 935.71L1398.718 24.08496L1398.718 24.08496L1400.199 25.646z" /></clipPath><linearGradient transform="matrix(1 0 0 1 0 0)" id="21125" x1="60.58032" y1="1860.47" x2="60.580321860.47" y2="60.58032953.4873"><stop stop-color="#FFD800" offset="0%" /><stop stop-color="#FF387D" offset="100%" /></linearGradient><clipPath id="43"><path d="M504.289 970.875L503.549 970.1L503.549 970.1L-246.247 217.314L-246.247 217.314L-244.738 215.782L-244.738 215.782L504.319 967.785L504.319 967.785L1413.99 40.276L1413.99 40.276L1415.47 41.83606z" /></clipPath><linearGradient transform="matrix(1 0 0 1 0 0)" id="21708" x1="68.80304" y1="1851.929" x2="68.803041851.929" y2="68.80304953.0705"><stop stop-color="#FFD800" offset="0%" /><stop stop-color="#FF387D" offset="100%" /></linearGradient><clipPath id="44"><path d="M503.981 1002.943L503.242 1002.158L503.242 1002.158L-261.827 233.199L-261.827 233.199L-260.325 231.668L-260.325 231.668L504.011 999.852L504.011 999.852L1429.27 56.45703L1429.27 56.45703L1430.743 58.01697z" /></clipPath><linearGradient transform="matrix(1 0 0 1 0 0)" id="22305" x1="77.00189" y1="1843.395" x2="77.001891843.395" y2="77.00189952.674"><stop stop-color="#FFD800" offset="0%" /><stop stop-color="#FF387D" offset="100%" /></linearGradient><clipPath id="45"><path d="M70.4411 -703.47L955.188 -703.47L955.188 -703.47L955.188 224.87L955.188 224.87L70.4411 224.87z" /></clipPath><clipPath id="46"><path d="M953.529 36.27405L253.029 -701.7649L253.029 -701.7649L254.687 -703.469L254.687 -703.469L955.188 34.56995z" /></clipPath><linearGradient transform="matrix(1 0 0 1 0 0)" id="23018" x1="251.208" y1="1887.351" x2="251.2081887.351" y2="251.2083.50647"><stop stop-color="#560099" offset="0%" /><stop stop-color="#FF0A35" offset="100%" /></linearGradient><clipPath id="47"><path d="M942.117 48.06006L241.618 -689.978L241.618 -689.978L243.276 -691.6831L243.276 -691.6831L943.777 46.35596z" /></clipPath><linearGradient transform="matrix(1 0 0 1 0 0)" id="23512" x1="239.7968" y1="1875.565" x2="239.79681875.565" y2="239.79683.50647"><stop stop-color="#560099" offset="0%" /><stop stop-color="#FF0A35" offset="100%" /></linearGradient><clipPath id="48"><path d="M930.706 59.84595L230.206 -678.1931L230.206 -678.1931L231.864 -679.896L231.864 -679.896L932.365 58.14197z" /></clipPath><linearGradient transform="matrix(1 0 0 1 0 0)" id="24009" x1="228.3847" y1="1863.778" x2="228.38471863.778" y2="228.38473.50647"><stop stop-color="#560099" offset="0%" /><stop stop-color="#FF0A35" offset="100%" /></linearGradient><clipPath id="49"><path d="M919.293 71.63306L218.793 -666.406L218.793 -666.406L220.453 -668.1101L220.453 -668.1101L920.954 69.92896z" /></clipPath><linearGradient transform="matrix(1 0 0 1 0 0)" id="24506" x1="216.9726" y1="1851.992" x2="216.97261851.992" y2="216.97263.506592"><stop stop-color="#560099" offset="0%" /><stop stop-color="#FF0A35" offset="100%" /></linearGradient><clipPath id="50"><path d="M907.882 83.41895L207.382 -654.6201L207.382 -654.6201L209.04 -656.323L209.04 -656.323L909.541 81.71594z" /></clipPath><linearGradient transform="matrix(1 0 0 1 0 0)" id="25002" x1="205.5614" y1="1840.205" x2="205.56141840.205" y2="205.56143.50647"><stop stop-color="#560099" offset="0%" /><stop stop-color="#FF0A35" offset="100%" /></linearGradient><clipPath id="51"><path d="M896.47 95.20605L195.969 -642.824L195.969 -642.824L197.629 -644.5281L197.629 -644.5281L898.129 93.50098z" /></clipPath><linearGradient transform="matrix(1 0 0 1 0 0)" id="25498" x1="194.1493" y1="1828.414" x2="194.14931828.414" y2="194.14933.50647"><stop stop-color="#560099" offset="0%" /><stop stop-color="#FF0A35" offset="100%" /></linearGradient><clipPath id="52"><path d="M885.059 106.991L184.558 -631.0381L184.558 -631.0381L186.217 -632.741L186.217 -632.741L886.718 105.288z" /></clipPath><linearGradient transform="matrix(1 0 0 1 0 0)" id="25993" x1="182.7381" y1="1816.628" x2="182.73811816.628" y2="182.73813.50647"><stop stop-color="#560099" offset="0%" /><stop stop-color="#FF0A35" offset="100%" /></linearGradient><clipPath id="53"><path d="M873.647 118.7791L173.146 -619.26L173.146 -619.26L174.805 -620.9651L174.805 -620.9651L875.306 117.074z" /></clipPath><linearGradient transform="matrix(1 0 0 1 0 0)" id="26487" x1="171.326" y1="1804.846" x2="171.3261804.846" y2="171.3263.50647"><stop stop-color="#560099" offset="0%" /><stop stop-color="#FF0A35" offset="100%" /></linearGradient><clipPath id="54"><path d="M862.235 130.5649L161.735 -607.4651L161.735 -607.4651L163.394 -609.168L163.394 -609.168L863.894 128.8621z" /></clipPath><linearGradient transform="matrix(1 0 0 1 0 0)" id="26981" x1="159.9148" y1="1793.055" x2="159.91481793.055" y2="159.91483.50647"><stop stop-color="#560099" offset="0%" /><stop stop-color="#FF0A35" offset="100%" /></linearGradient><clipPath id="55"><path d="M850.824 142.3621L150.323 -595.677L150.323 -595.677L151.982 -597.3831L151.982 -597.3831L852.482 140.656z" /></clipPath><linearGradient transform="matrix(1 0 0 1 0 0)" id="27477" x1="148.5027" y1="1781.264" x2="148.50271781.264" y2="148.50273.50647"><stop stop-color="#560099" offset="0%" /><stop stop-color="#FF0A35" offset="100%" /></linearGradient><clipPath id="56"><path d="M839.412 154.1379L138.911 -583.8921L138.911 -583.8921L140.571 -585.595L140.571 -585.595L841.071 152.434z" /></clipPath><linearGradient transform="matrix(1 0 0 1 0 0)" id="27973" x1="137.0906" y1="1769.482" x2="137.09061769.482" y2="137.09063.506592"><stop stop-color="#560099" offset="0%" /><stop stop-color="#FF0A35" offset="100%" /></linearGradient><clipPath id="57"><path d="M828 165.924L127.499 -572.105L127.499 -572.105L129.159 -573.8091L129.159 -573.8091L829.659 164.22z" /></clipPath><linearGradient transform="matrix(1 0 0 1 0 0)" id="28464" x1="125.6794" y1="1757.696" x2="125.67941757.696" y2="125.67943.50647"><stop stop-color="#560099" offset="0%" /><stop stop-color="#FF0A35" offset="100%" /></linearGradient><clipPath id="58"><path d="M816.588 177.72L116.087 -560.3181L116.087 -560.3181L117.748 -562.022L117.748 -562.022L818.247 176.017z" /></clipPath><linearGradient transform="matrix(1 0 0 1 0 0)" id="28958" x1="114.2673" y1="1745.905" x2="114.26731745.905" y2="114.26733.506592"><stop stop-color="#560099" offset="0%" /><stop stop-color="#FF0A35" offset="100%" /></linearGradient><clipPath id="59"><path d="M805.177 189.507L104.676 -548.532L104.676 -548.532L106.335 -550.2371L106.335 -550.2371L806.835 187.803z" /></clipPath><linearGradient transform="matrix(1 0 0 1 0 0)" id="29454" x1="102.8561" y1="1734.118" x2="102.85611734.118" y2="102.85613.50647"><stop stop-color="#560099" offset="0%" /><stop stop-color="#FF0A35" offset="100%" /></linearGradient><clipPath id="60"><path d="M793.765 201.293L93.264 -536.7461L93.264 -536.7461L94.924 -538.45L94.924 -538.45L795.423 199.589z" /></clipPath><linearGradient transform="matrix(1 0 0 1 0 0)" id="29943" x1="91.44401" y1="1722.332" x2="91.444011722.332" y2="91.444013.50647"><stop stop-color="#560099" offset="0%" /><stop stop-color="#FF0A35" offset="100%" /></linearGradient><clipPath id="61"><path d="M782.353 213.079L81.853 -524.96L81.853 -524.96L83.512 -526.6631L83.512 -526.6631L784.012 211.375z" /></clipPath><linearGradient transform="matrix(1 0 0 1 0 0)" id="30432" x1="80.03282" y1="1710.545" x2="80.032821710.545" y2="80.032823.50647"><stop stop-color="#560099" offset="0%" /><stop stop-color="#FF0A35" offset="100%" /></linearGradient><clipPath id="62"><path d="M770.942 224.866L70.441 -513.1731L70.441 -513.1731L72.1 -514.877L72.1 -514.877L772.6 223.162z" /></clipPath><linearGradient transform="matrix(1 0 0 1 0 0)" id="30917" x1="68.62071" y1="1698.758" x2="68.620711698.758" y2="68.620713.50647"><stop stop-color="#560099" offset="0%" /><stop stop-color="#FF0A35" offset="100%" /></linearGradient><clipPath id="63"><path d="M0 -0.3869629L1176.341 -0.3869629L1176.341 -0.3869629L1176.341 1552L1176.341 1552L0 1552z" /></clipPath><clipPath id="64"><path d="M1019.15 1459.436L1176.34 1459.436L1176.34 1459.436L1176.34 1501.436L1176.34 1501.436L1019.15 1501.436z" /></clipPath><clipPath id="65"><path d="M1176.34 1501.436L1019.15 1501.436L1019.15 1501.436L1019.15 1459.436L1019.15 1459.436L1176.34 1459.436z" /></clipPath><linearGradient transform="matrix(1 0 0 1 0 0)" id="31824" x1="1019.149" y1="150.1597" x2="1019.149150.1597" y2="1019.149157.1904"><stop stop-color="#4C216D" offset="0%" /><stop stop-color="#B83F54" offset="100%" /></linearGradient><clipPath id="66"><path d="M823.455 1470.587L1002.88 1470.587L1002.88 1470.587L1002.88 1492.981L1002.88 1492.981L823.455 1492.981z" /></clipPath><clipPath id="67"><path d="M752.501 1496.313L802.1429 1496.313L802.1429 1496.313L802.1429 1466.534L802.1429 1466.534L752.501 1466.534z" /></clipPath></defs></svg>