<svg xmlns="http://www.w3.org/2000/svg" xmlns:xlink="http://www.w3.org/1999/xlink" id="body_9" preserveAspectRatio="xMinYMin meet" viewBox="0 0 1568 2069"><g transform="matrix(1.333333 0 0 1.333333 0 0)"><g><g clip-path="url(#1)"><g clip-path="url(#2)"><g clip-path="url(#3)"><g clip-path="url(#4)"><g clip-path="url(#5)"><g><g clip-path="url(#6)"><g clip-path="url(#7)"><g><path transform="matrix(1 0 0 -1 0 1552)" d="M0 -2875L1176 -1502L1176 -1502L1176 2010L1176 2010L0 637" stroke="none" fill="url(#1663)" /><path transform="matrix(1 0 0 -1 0 1552)" d="M0 -2873.768L1176 -1500.627L1176 -1500.627L1176 0L1176 0L0 0" stroke="none" fill="#4C216D" fill-rule="evenodd" fill-opacity="0.8980392" /><path transform="matrix(1 0 0 -1 0 1552)" d="M0 636.2447L1176 2009.386L1176 2009.386L1176 1552L1176 1552L0 1552" stroke="none" fill="#B83F54" fill-rule="evenodd" fill-opacity="0.8980392" /></g></g></g></g><g><g clip-path="url(#8)"><g clip-path="url(#9)"><g><path transform="matrix(1 0 0 -1 0 1552)" d="M0 4904L1176 3705L1176 3705L1176 1761L1176 1761L0 2960" stroke="none" fill="url(#2558)" /><path transform="matrix(1 0 0 -1 0 1552)" d="M0 4902.938L1176 3704.131L1176 3704.131L1176 1552L1176 1552L0 1552" stroke="none" fill="#FFD800" fill-rule="evenodd" fill-opacity="0.1960784" /><path transform="matrix(1 0 0 -1 0 1552)" d="M0 2960.621L1176 1761.813L1176 1761.813L1176 0L1176 0L0 0" stroke="none" fill="#FF387D" fill-rule="evenodd" fill-opacity="0.1960784" /></g></g><g clip-path="url(#10)"><g><path transform="matrix(1 0 0 -1 0 1552)" d="M0 4903L1176 3705L1176 3705L1176 1761L1176 1761L0 2960" stroke="none" fill="url(#3205)" /><path transform="matrix(1 0 0 -1 0 1552)" d="M0 4902.346L1176 3703.538L1176 3703.538L1176 1552L1176 1552L0 1552" stroke="none" fill="#FFD800" fill-rule="evenodd" fill-opacity="0.1960784" /><path transform="matrix(1 0 0 -1 0 1552)" d="M0 2960.878L1176 1762.071L1176 1762.071L1176 0L1176 0L0 0" stroke="none" fill="#FF387D" fill-rule="evenodd" fill-opacity="0.1960784" /></g></g><g clip-path="url(#11)"><g><path transform="matrix(1 0 0 -1 0 1552)" d="M0 4903L1176 3704L1176 3704L1176 1761L1176 1761L0 2960" stroke="none" fill="url(#3844)" /><path transform="matrix(1 0 0 -1 0 1552)" d="M0 4901.758L1176 3702.951L1176 3702.951L1176 1552L1176 1552L0 1552" stroke="none" fill="#FFD800" fill-rule="evenodd" fill-opacity="0.1960784" /><path transform="matrix(1 0 0 -1 0 1552)" d="M0 2961.099L1176 1762.292L1176 1762.292L1176 0L1176 0L0 0" stroke="none" fill="#FF387D" fill-rule="evenodd" fill-opacity="0.1960784" /></g></g></g></g></g></g></g></g><g clip-path="url(#12)"><g><g clip-path="url(#13)"><g clip-path="url(#14)"><g><path transform="matrix(1 0 0 -1 0 1552)" d="M0 -2260L1176 -887L1176 -887L1176 3181L1176 3181L0 1808" stroke="none" fill="url(#4741)" /><path transform="matrix(1 0 0 -1 0 1552)" d="M0 -2259.232L1176 -886.0903L1176 -886.0903L1176 0L1176 0L0 0" stroke="none" fill="#4C216D" fill-rule="evenodd" fill-opacity="0.8980392" /><path transform="matrix(1 0 0 -1 0 1552)" d="M0 1806.511L1176 3179.653L1176 3179.653L1176 1552L1176 1552L0 1552" stroke="none" fill="#B83F54" fill-rule="evenodd" fill-opacity="0.8980392" /></g></g></g></g><g><g clip-path="url(#15)"><g clip-path="url(#16)"><g><path transform="matrix(1 0 0 -1 0 1552)" d="M0 3193L1176 1994L1176 1994L1176 -277L1176 -277L0 922" stroke="none" fill="url(#5558)" /><path transform="matrix(1 0 0 -1 0 1552)" d="M0 3191.785L1176 1992.978L1176 1992.978L1176 1552L1176 1552L0 1552" stroke="none" fill="#FFD800" fill-rule="evenodd" fill-opacity="0.1960784" /><path transform="matrix(1 0 0 -1 0 1552)" d="M0 923.0809L1176 -275.7267L1176 -275.7267L1176 0L1176 0L0 0" stroke="none" fill="#FF387D" fill-rule="evenodd" fill-opacity="0.1960784" /></g></g><g clip-path="url(#17)"><g><path transform="matrix(1 0 0 -1 0 1552)" d="M0 3192L1176 1993L1176 1993L1176 -276L1176 -276L0 923" stroke="none" fill="url(#6154)" /><path transform="matrix(1 0 0 -1 0 1552)" d="M0 3191.111L1176 1992.304L1176 1992.304L1176 1552L1176 1552L0 1552" stroke="none" fill="#FFD800" fill-rule="evenodd" fill-opacity="0.1960784" /><path transform="matrix(1 0 0 -1 0 1552)" d="M0 924.1325L1176 -274.6751L1176 -274.6751L1176 0L1176 0L0 0" stroke="none" fill="#FF387D" fill-rule="evenodd" fill-opacity="0.1960784" /></g></g><g clip-path="url(#18)"><g><path transform="matrix(1 0 0 -1 0 1552)" d="M0 3191L1176 1993L1176 1993L1176 -275L1176 -275L0 924" stroke="none" fill="url(#6752)" /><path transform="matrix(1 0 0 -1 0 1552)" d="M0 3190.435L1176 1991.628L1176 1991.628L1176 1552L1176 1552L0 1552" stroke="none" fill="#FFD800" fill-rule="evenodd" fill-opacity="0.1960784" /><path transform="matrix(1 0 0 -1 0 1552)" d="M0 925.1085L1176 -273.699L1176 -273.699L1176 0L1176 0L0 0" stroke="none" fill="#FF387D" fill-rule="evenodd" fill-opacity="0.1960784" /></g></g><g clip-path="url(#19)"><g><path transform="matrix(1 0 0 -1 0 1552)" d="M0 3191L1176 1992L1176 1992L1176 -274L1176 -274L0 925" stroke="none" fill="url(#7353)" /><path transform="matrix(1 0 0 -1 0 1552)" d="M0 3189.759L1176 1990.951L1176 1990.951L1176 1552L1176 1552L0 1552" stroke="none" fill="#FFD800" fill-rule="evenodd" fill-opacity="0.1960784" /><path transform="matrix(1 0 0 -1 0 1552)" d="M0 926.0179L1176 -272.7896L1176 -272.7896L1176 0L1176 0L0 0" stroke="none" fill="#FF387D" fill-rule="evenodd" fill-opacity="0.1960784" /></g></g><g clip-path="url(#20)"><g><path transform="matrix(1 0 0 -1 0 1552)" d="M0 3190L1176 1991L1176 1991L1176 -273L1176 -273L0 926" stroke="none" fill="url(#7957)" /><path transform="matrix(1 0 0 -1 0 1552)" d="M0 3189.079L1176 1990.271L1176 1990.271L1176 1552L1176 1552L0 1552" stroke="none" fill="#FFD800" fill-rule="evenodd" fill-opacity="0.1960784" /><path transform="matrix(1 0 0 -1 0 1552)" d="M0 926.8422L1176 -271.9652L1176 -271.9652L1176 0L1176 0L0 0" stroke="none" fill="#FF387D" fill-rule="evenodd" fill-opacity="0.1960784" /></g></g><g clip-path="url(#21)"><g><path transform="matrix(1 0 0 -1 0 1552)" d="M0 3189L1176 1991L1176 1991L1176 -272L1176 -272L0 927" stroke="none" fill="url(#8557)" /><path transform="matrix(1 0 0 -1 0 1552)" d="M0 3188.397L1176 1989.59L1176 1989.59L1176 1552L1176 1552L0 1552" stroke="none" fill="#FFD800" fill-rule="evenodd" fill-opacity="0.1960784" /><path transform="matrix(1 0 0 -1 0 1552)" d="M0 927.6074L1176 -271.2002L1176 -271.2002L1176 0L1176 0L0 0" stroke="none" fill="#FF387D" fill-rule="evenodd" fill-opacity="0.1960784" /></g></g><g clip-path="url(#22)"><g><path transform="matrix(1 0 0 -1 0 1552)" d="M0 3189L1176 1990L1176 1990L1176 -271L1176 -271L0 927" stroke="none" fill="url(#9161)" /><path transform="matrix(1 0 0 -1 0 1552)" d="M0 3187.72L1176 1988.912L1176 1988.912L1176 1552L1176 1552L0 1552" stroke="none" fill="#FFD800" fill-rule="evenodd" fill-opacity="0.1960784" /><path transform="matrix(1 0 0 -1 0 1552)" d="M0 928.32L1176 -270.4874L1176 -270.4874L1176 0L1176 0L0 0" stroke="none" fill="#FF387D" fill-rule="evenodd" fill-opacity="0.1960784" /></g></g><g clip-path="url(#23)"><g><path transform="matrix(1 0 0 -1 0 1552)" d="M0 3188L1176 1989L1176 1989L1176 -271L1176 -271L0 928" stroke="none" fill="url(#9758)" /><path transform="matrix(1 0 0 -1 0 1552)" d="M0 3187.036L1176 1988.229L1176 1988.229L1176 1552L1176 1552L0 1552" stroke="none" fill="#FFD800" fill-rule="evenodd" fill-opacity="0.1960784" /><path transform="matrix(1 0 0 -1 0 1552)" d="M0 928.9811L1176 -269.8264L1176 -269.8264L1176 0L1176 0L0 0" stroke="none" fill="#FF387D" fill-rule="evenodd" fill-opacity="0.1960784" /></g></g><g clip-path="url(#24)"><g><path transform="matrix(1 0 0 -1 0 1552)" d="M0 3187L1176 1989L1176 1989L1176 -270L1176 -270L0 929" stroke="none" fill="url(#10358)" /><path transform="matrix(1 0 0 -1 0 1552)" d="M0 3186.344L1176 1987.536L1176 1987.536L1176 1552L1176 1552L0 1552" stroke="none" fill="#FFD800" fill-rule="evenodd" fill-opacity="0.1960784" /><path transform="matrix(1 0 0 -1 0 1552)" d="M0 929.588L1176 -269.2195L1176 -269.2195L1176 0L1176 0L0 0" stroke="none" fill="#FF387D" fill-rule="evenodd" fill-opacity="0.1960784" /></g></g><g clip-path="url(#25)"><g><path transform="matrix(1 0 0 -1 0 1552)" d="M0 3187L1176 1988L1176 1988L1176 -270L1176 -270L0 929" stroke="none" fill="url(#10954)" /><path transform="matrix(1 0 0 -1 0 1552)" d="M0 3185.667L1176 1986.86L1176 1986.86L1176 1552L1176 1552L0 1552" stroke="none" fill="#FFD800" fill-rule="evenodd" fill-opacity="0.1960784" /><path transform="matrix(1 0 0 -1 0 1552)" d="M0 930.1465L1176 -268.6611L1176 -268.6611L1176 0L1176 0L0 0" stroke="none" fill="#FF387D" fill-rule="evenodd" fill-opacity="0.1960784" /></g></g><g clip-path="url(#26)"><g><path transform="matrix(1 0 0 -1 0 1552)" d="M0 3186L1176 1987L1176 1987L1176 -269L1176 -269L0 930" stroke="none" fill="url(#11548)" /><path transform="matrix(1 0 0 -1 0 1552)" d="M0 3184.972L1176 1986.164L1176 1986.164L1176 1552L1176 1552L0 1552" stroke="none" fill="#FFD800" fill-rule="evenodd" fill-opacity="0.1960784" /><path transform="matrix(1 0 0 -1 0 1552)" d="M0 930.6442L1176 -268.1633L1176 -268.1633L1176 0L1176 0L0 0" stroke="none" fill="#FF387D" fill-rule="evenodd" fill-opacity="0.1960784" /></g></g><g clip-path="url(#27)"><g><path transform="matrix(1 0 0 -1 0 1552)" d="M0 3185L1176 1986L1176 1986L1176 -269L1176 -269L0 930" stroke="none" fill="url(#12146)" /><path transform="matrix(1 0 0 -1 0 1552)" d="M0 3184.294L1176 1985.486L1176 1985.486L1176 1552L1176 1552L0 1552" stroke="none" fill="#FFD800" fill-rule="evenodd" fill-opacity="0.1960784" /><path transform="matrix(1 0 0 -1 0 1552)" d="M0 931.1044L1176 -267.7032L1176 -267.7032L1176 0L1176 0L0 0" stroke="none" fill="#FF387D" fill-rule="evenodd" fill-opacity="0.1960784" /></g></g><g clip-path="url(#28)"><g><path transform="matrix(1 0 0 -1 0 1552)" d="M0 3185L1176 1986L1176 1986L1176 -268L1176 -268L0 931" stroke="none" fill="url(#12743)" /><path transform="matrix(1 0 0 -1 0 1552)" d="M0 3183.602L1176 1984.794L1176 1984.794L1176 1552L1176 1552L0 1552" stroke="none" fill="#FFD800" fill-rule="evenodd" fill-opacity="0.1960784" /><path transform="matrix(1 0 0 -1 0 1552)" d="M0 931.5349L1176 -267.2727L1176 -267.2727L1176 0L1176 0L0 0" stroke="none" fill="#FF387D" fill-rule="evenodd" fill-opacity="0.1960784" /></g></g><g clip-path="url(#29)"><g><path transform="matrix(1 0 0 -1 0 1552)" d="M0 3184L1176 1985L1176 1985L1176 -268L1176 -268L0 931" stroke="none" fill="url(#13340)" /><path transform="matrix(1 0 0 -1 0 1552)" d="M0 3182.913L1176 1984.105L1176 1984.105L1176 1552L1176 1552L0 1552" stroke="none" fill="#FFD800" fill-rule="evenodd" fill-opacity="0.1960784" /><path transform="matrix(1 0 0 -1 0 1552)" d="M0 931.9132L1176 -266.8943L1176 -266.8943L1176 0L1176 0L0 0" stroke="none" fill="#FF387D" fill-rule="evenodd" fill-opacity="0.1960784" /></g></g><g clip-path="url(#30)"><g><path transform="matrix(1 0 0 -1 0 1552)" d="M0 3183L1176 1984L1176 1984L1176 -268L1176 -268L0 931" stroke="none" fill="url(#13940)" /><path transform="matrix(1 0 0 -1 0 1552)" d="M0 3182.223L1176 1983.416L1176 1983.416L1176 1552L1176 1552L0 1552" stroke="none" fill="#FFD800" fill-rule="evenodd" fill-opacity="0.1960784" /><path transform="matrix(1 0 0 -1 0 1552)" d="M0 932.2434L1176 -266.564L1176 -266.564L1176 0L1176 0L0 0" stroke="none" fill="#FF387D" fill-rule="evenodd" fill-opacity="0.1960784" /></g></g><g clip-path="url(#31)"><g><path transform="matrix(1 0 0 -1 0 1552)" d="M0 3183L1176 1984L1176 1984L1176 -267L1176 -267L0 932" stroke="none" fill="url(#14546)" /><path transform="matrix(1 0 0 -1 0 1552)" d="M0 3181.537L1176 1982.73L1176 1982.73L1176 1552L1176 1552L0 1552" stroke="none" fill="#FFD800" fill-rule="evenodd" fill-opacity="0.1960784" /><path transform="matrix(1 0 0 -1 0 1552)" d="M0 932.5416L1176 -266.2658L1176 -266.2658L1176 0L1176 0L0 0" stroke="none" fill="#FF387D" fill-rule="evenodd" fill-opacity="0.1960784" /></g></g><g clip-path="url(#32)"><g><path transform="matrix(1 0 0 -1 0 1552)" d="M0 3182L1176 1983L1176 1983L1176 -267L1176 -267L0 932" stroke="none" fill="url(#15146)" /><path transform="matrix(1 0 0 -1 0 1552)" d="M0 3180.857L1176 1982.05L1176 1982.05L1176 1552L1176 1552L0 1552" stroke="none" fill="#FFD800" fill-rule="evenodd" fill-opacity="0.1960784" /><path transform="matrix(1 0 0 -1 0 1552)" d="M0 932.7977L1176 -266.0098L1176 -266.0098L1176 0L1176 0L0 0" stroke="none" fill="#FF387D" fill-rule="evenodd" fill-opacity="0.1960784" /></g></g></g></g><g><g clip-path="url(#33)"><g clip-path="url(#34)"><g><path transform="matrix(1 0 0 -1 0 1552)" d="M0 -50799L1176 185908L1176 185908L1176 21360L1176 21360L0 -215347" stroke="none" fill="url(#15863)" /><path transform="matrix(1 0 0 -1 0 1552)" d="M0 -50916.92L1176 185789.7L1176 185789.7L1176 1552L1176 1552L0 1552" stroke="none" fill="#560099" fill-rule="evenodd" fill-opacity="0.04705882" /><path transform="matrix(1 0 0 -1 0 1552)" d="M0 -215228.3L1176 21478.34L1176 21478.34L1176 0L1176 0L0 0" stroke="none" fill="#FF0A35" fill-rule="evenodd" fill-opacity="0.04705882" /></g></g><g clip-path="url(#35)"><g><path transform="matrix(1 0 0 -1 0 1552)" d="M0 -48152L1176 188555L1176 188555L1176 24007L1176 24007L0 -212700" stroke="none" fill="url(#16360)" /><path transform="matrix(1 0 0 -1 0 1552)" d="M0 -48270.11L1176 188436.8L1176 188436.8L1176 1552L1176 1552L0 1552" stroke="none" fill="#560099" fill-rule="evenodd" fill-opacity="0.04705882" /><path transform="matrix(1 0 0 -1 0 1552)" d="M0 -212581.9L1176 24125.03L1176 24125.03L1176 0L1176 0L0 0" stroke="none" fill="#FF0A35" fill-rule="evenodd" fill-opacity="0.04705882" /></g></g><g clip-path="url(#36)"><g><path transform="matrix(1 0 0 -1 0 1552)" d="M0 -45505L1176 191202L1176 191202L1176 26654L1176 26654L0 -210053" stroke="none" fill="url(#16858)" /><path transform="matrix(1 0 0 -1 0 1552)" d="M0 -45623.39L1176 191083.2L1176 191083.2L1176 1552L1176 1552L0 1552" stroke="none" fill="#560099" fill-rule="evenodd" fill-opacity="0.04705882" /><path transform="matrix(1 0 0 -1 0 1552)" d="M0 -209934.8L1176 26771.86L1176 26771.86L1176 0L1176 0L0 0" stroke="none" fill="#FF0A35" fill-rule="evenodd" fill-opacity="0.04705882" /></g></g><g clip-path="url(#37)"><g><path transform="matrix(1 0 0 -1 0 1552)" d="M0 -42858L1176 193848L1176 193848L1176 29300L1176 29300L0 -207406" stroke="none" fill="url(#17358)" /><path transform="matrix(1 0 0 -1 0 1552)" d="M0 -42976.53L1176 193730.1L1176 193730.1L1176 1552L1176 1552L0 1552" stroke="none" fill="#560099" fill-rule="evenodd" fill-opacity="0.04705882" /><path transform="matrix(1 0 0 -1 0 1552)" d="M0 -207287.9L1176 29418.72L1176 29418.72L1176 0L1176 0L0 0" stroke="none" fill="#FF0A35" fill-rule="evenodd" fill-opacity="0.04705882" /></g></g><g clip-path="url(#38)"><g><path transform="matrix(1 0 0 -1 0 1552)" d="M0 -40212L1176 196495L1176 196495L1176 31947L1176 31947L0 -204760" stroke="none" fill="url(#17857)" /><path transform="matrix(1 0 0 -1 0 1552)" d="M0 -40329.88L1176 196376.7L1176 196376.7L1176 1552L1176 1552L0 1552" stroke="none" fill="#560099" fill-rule="evenodd" fill-opacity="0.04705882" /><path transform="matrix(1 0 0 -1 0 1552)" d="M0 -204641.2L1176 32065.38L1176 32065.38L1176 0L1176 0L0 0" stroke="none" fill="#FF0A35" fill-rule="evenodd" fill-opacity="0.04705882" /></g></g><g clip-path="url(#39)"><g><path transform="matrix(1 0 0 -1 0 1552)" d="M0 -37565L1176 199142L1176 199142L1176 34594L1176 34594L0 -202113" stroke="none" fill="url(#18357)" /><path transform="matrix(1 0 0 -1 0 1552)" d="M0 -37683.01L1176 199023.6L1176 199023.6L1176 1552L1176 1552L0 1552" stroke="none" fill="#560099" fill-rule="evenodd" fill-opacity="0.04705882" /><path transform="matrix(1 0 0 -1 0 1552)" d="M0 -201994.4L1176 34712.24L1176 34712.24L1176 0L1176 0L0 0" stroke="none" fill="#FF0A35" fill-rule="evenodd" fill-opacity="0.04705882" /></g></g><g clip-path="url(#40)"><g><path transform="matrix(1 0 0 -1 0 1552)" d="M0 -34918L1176 201789L1176 201789L1176 37241L1176 37241L0 -199466" stroke="none" fill="url(#18853)" /><path transform="matrix(1 0 0 -1 0 1552)" d="M0 -35036.36L1176 201670.3L1176 201670.3L1176 1552L1176 1552L0 1552" stroke="none" fill="#560099" fill-rule="evenodd" fill-opacity="0.04705882" /><path transform="matrix(1 0 0 -1 0 1552)" d="M0 -199347.8L1176 37358.89L1176 37358.89L1176 0L1176 0L0 0" stroke="none" fill="#FF0A35" fill-rule="evenodd" fill-opacity="0.04705882" /></g></g><g clip-path="url(#41)"><g><path transform="matrix(1 0 0 -1 0 1552)" d="M0 -32271L1176 204436L1176 204436L1176 39887L1176 39887L0 -196819" stroke="none" fill="url(#19351)" /><path transform="matrix(1 0 0 -1 0 1552)" d="M0 -32389.49L1176 204317.1L1176 204317.1L1176 1552L1176 1552L0 1552" stroke="none" fill="#560099" fill-rule="evenodd" fill-opacity="0.04705882" /><path transform="matrix(1 0 0 -1 0 1552)" d="M0 -196700.9L1176 40005.76L1176 40005.76L1176 0L1176 0L0 0" stroke="none" fill="#FF0A35" fill-rule="evenodd" fill-opacity="0.04705882" /></g></g><g clip-path="url(#42)"><g><path transform="matrix(1 0 0 -1 0 1552)" d="M0 -29624L1176 207083L1176 207083L1176 42534L1176 42534L0 -194173" stroke="none" fill="url(#19848)" /><path transform="matrix(1 0 0 -1 0 1552)" d="M0 -29742.66L1176 206964.3L1176 206964.3L1176 1552L1176 1552L0 1552" stroke="none" fill="#560099" fill-rule="evenodd" fill-opacity="0.04705882" /><path transform="matrix(1 0 0 -1 0 1552)" d="M0 -194054.5L1176 42652.46L1176 42652.46L1176 0L1176 0L0 0" stroke="none" fill="#FF0A35" fill-rule="evenodd" fill-opacity="0.04705882" /></g></g><g clip-path="url(#43)"><g><path transform="matrix(1 0 0 -1 0 1552)" d="M0 -26978L1176 209729L1176 209729L1176 45181L1176 45181L0 -191526" stroke="none" fill="url(#20347)" /><path transform="matrix(1 0 0 -1 0 1552)" d="M0 -27095.97L1176 209610.7L1176 209610.7L1176 1552L1176 1552L0 1552" stroke="none" fill="#560099" fill-rule="evenodd" fill-opacity="0.04705882" /><path transform="matrix(1 0 0 -1 0 1552)" d="M0 -191407.4L1176 45299.27L1176 45299.27L1176 0L1176 0L0 0" stroke="none" fill="#FF0A35" fill-rule="evenodd" fill-opacity="0.04705882" /></g></g><g clip-path="url(#44)"><g><path transform="matrix(1 0 0 -1 0 1552)" d="M0 -24331L1176 212376L1176 212376L1176 47828L1176 47828L0 -188879" stroke="none" fill="url(#20840)" /><path transform="matrix(1 0 0 -1 0 1552)" d="M0 -24449.14L1176 212257.8L1176 212257.8L1176 1552L1176 1552L0 1552" stroke="none" fill="#560099" fill-rule="evenodd" fill-opacity="0.04705882" /><path transform="matrix(1 0 0 -1 0 1552)" d="M0 -188761L1176 47946L1176 47946L1176 0L1176 0L0 0" stroke="none" fill="#FF0A35" fill-rule="evenodd" fill-opacity="0.04705882" /></g></g><g clip-path="url(#45)"><g><path transform="matrix(1 0 0 -1 0 1552)" d="M0 -21684L1176 215023L1176 215023L1176 50474L1176 50474L0 -186232" stroke="none" fill="url(#21331)" /><path transform="matrix(1 0 0 -1 0 1552)" d="M0 -21802.45L1176 214904.2L1176 214904.2L1176 1552L1176 1552L0 1552" stroke="none" fill="#560099" fill-rule="evenodd" fill-opacity="0.04705882" /><path transform="matrix(1 0 0 -1 0 1552)" d="M0 -186113.8L1176 50592.79L1176 50592.79L1176 0L1176 0L0 0" stroke="none" fill="#FF0A35" fill-rule="evenodd" fill-opacity="0.04705882" /></g></g><g clip-path="url(#46)"><g><path transform="matrix(1 0 0 -1 0 1552)" d="M0 -19037L1176 217669L1176 217669L1176 53121L1176 53121L0 -183585" stroke="none" fill="url(#21826)" /><path transform="matrix(1 0 0 -1 0 1552)" d="M0 -19155.59L1176 217551L1176 217551L1176 1552L1176 1552L0 1552" stroke="none" fill="#560099" fill-rule="evenodd" fill-opacity="0.04705882" /><path transform="matrix(1 0 0 -1 0 1552)" d="M0 -183467L1176 53239.66L1176 53239.66L1176 0L1176 0L0 0" stroke="none" fill="#FF0A35" fill-rule="evenodd" fill-opacity="0.04705882" /></g></g><g clip-path="url(#47)"><g><path transform="matrix(1 0 0 -1 0 1552)" d="M0 -16391L1176 220316L1176 220316L1176 55768L1176 55768L0 -180939" stroke="none" fill="url(#22316)" /><path transform="matrix(1 0 0 -1 0 1552)" d="M0 -16508.93L1176 220197.7L1176 220197.7L1176 1552L1176 1552L0 1552" stroke="none" fill="#560099" fill-rule="evenodd" fill-opacity="0.04705882" /><path transform="matrix(1 0 0 -1 0 1552)" d="M0 -180820.3L1176 55886.31L1176 55886.31L1176 0L1176 0L0 0" stroke="none" fill="#FF0A35" fill-rule="evenodd" fill-opacity="0.04705882" /></g></g><g clip-path="url(#48)"><g><path transform="matrix(1 0 0 -1 0 1552)" d="M0 -13744L1176 222963L1176 222963L1176 58415L1176 58415L0 -178292" stroke="none" fill="url(#22806)" /><path transform="matrix(1 0 0 -1 0 1552)" d="M0 -13862.06L1176 222844.6L1176 222844.6L1176 1552L1176 1552L0 1552" stroke="none" fill="#560099" fill-rule="evenodd" fill-opacity="0.04705882" /><path transform="matrix(1 0 0 -1 0 1552)" d="M0 -178173.4L1176 58533.18L1176 58533.18L1176 0L1176 0L0 0" stroke="none" fill="#FF0A35" fill-rule="evenodd" fill-opacity="0.04705882" /></g></g></g></g></g><g clip-path="url(#49)"><g><path transform="matrix(1 0 0 -1 0 1552)" d="M0 1401L1176 1415L1176 1415L1176 1216L1176 1216L0 1202" stroke="none" fill="url(#24271)" /><path transform="matrix(1 0 0 -1 0 1552)" d="M0 1399.834L1176 1413.67L1176 1413.67L1176 1552L1176 1552L0 1552" stroke="none" fill="#4C216D" fill-rule="evenodd" /><path transform="matrix(1 0 0 -1 0 1552)" d="M0 1203.452L1176 1217.287L1176 1217.287L1176 0L1176 0L0 0" stroke="none" fill="#B83F54" fill-rule="evenodd" /></g></g><g clip-path="url(#50)"><g><path transform="matrix(1 0 0 -1 0 1552)" d="M0 1401L1176 1415L1176 1415L1176 1216L1176 1216L0 1202" stroke="none" fill="url(#24916)" /><path transform="matrix(1 0 0 -1 0 1552)" d="M0 1399.834L1176 1413.67L1176 1413.67L1176 1552L1176 1552L0 1552" stroke="none" fill="#4C216D" fill-rule="evenodd" /><path transform="matrix(1 0 0 -1 0 1552)" d="M0 1203.452L1176 1217.288L1176 1217.288L1176 0L1176 0L0 0" stroke="none" fill="#B83F54" fill-rule="evenodd" /></g></g><g clip-path="url(#51)"><g><path transform="matrix(1 0 0 -1 0 1552)" d="M0 1401L1176 1415L1176 1415L1176 1216L1176 1216L0 1202" stroke="none" fill="url(#26908)" /><path transform="matrix(1 0 0 -1 0 1552)" d="M0 1399.834L1176 1413.67L1176 1413.67L1176 1552L1176 1552L0 1552" stroke="none" fill="#4C216D" fill-rule="evenodd" /><path transform="matrix(1 0 0 -1 0 1552)" d="M0 1203.452L1176 1217.287L1176 1217.287L1176 0L1176 0L0 0" stroke="none" fill="#B83F54" fill-rule="evenodd" /></g></g><g clip-path="url(#52)"><g><path transform="matrix(1 0 0 -1 0 1552)" d="M0 1401L1176 1415L1176 1415L1176 1216L1176 1216L0 1202" stroke="none" fill="url(#27490)" /><path transform="matrix(1 0 0 -1 0 1552)" d="M0 1399.834L1176 1413.67L1176 1413.67L1176 1552L1176 1552L0 1552" stroke="none" fill="#4C216D" fill-rule="evenodd" /><path transform="matrix(1 0 0 -1 0 1552)" d="M0 1203.452L1176 1217.288L1176 1217.288L1176 0L1176 0L0 0" stroke="none" fill="#B83F54" fill-rule="evenodd" /></g></g><g clip-path="url(#53)"><g><g clip-path="url(#54)"><path transform="matrix(1 0 0 -1 0 1552)" d="M501.7978 880.8113C 467.8918 880.8113 442.3278 889.7303 423.6438 908.0793C 403.6468 927.7144 393.9268 955.8344 393.9268 994.0443L393.9268 994.0443L393.9268 1123.124C 393.9268 1161.388 403.7018 1189.484 423.8118 1209.015C 442.4878 1227.157 468.1218 1235.975 502.1808 1235.975C 536.0808 1235.975 561.6188 1227.144 580.2548 1208.977C 600.3048 1189.431 610.0518 1161.349 610.0518 1123.124L610.0518 1123.124L610.0518 994.0443C 610.0518 955.7953 600.3028 927.6633 580.2468 908.0393C 561.5228 889.7173 535.8618 880.8113 501.7978 880.8113M502.1808 1234.975C 468.3958 1234.975 442.9888 1226.248 424.5078 1208.298C 404.6028 1188.964 394.9268 1161.104 394.9268 1123.124L394.9268 1123.124L394.9268 994.0443C 394.9268 956.1173 404.5488 928.2303 424.3448 908.7914C 442.8318 890.6364 468.1668 881.8113 501.7978 881.8113C 535.5868 881.8113 561.0198 890.6243 579.5478 908.7543C 599.4008 928.1793 609.0518 956.0793 609.0518 994.0443L609.0518 994.0443L609.0518 1123.124C 609.0518 1161.065 599.4038 1188.913 579.5558 1208.26C 561.1168 1226.237 535.8068 1234.975 502.1808 1234.975" stroke="none" fill="#F1F1F2" fill-rule="winding" fill-opacity="0.09803922" /></g></g><g><g clip-path="url(#55)"><path transform="matrix(1 0 0 -1 0 1552)" d="M778.2012 886.5564L559.1922 886.5564L559.1922 886.5564L560.1752 918.0094C 560.5992 931.5724 562.3032 953.0934 565.1532 970.6004L565.1532 970.6004L565.1852 970.7934C 570.1482 999.4724 589.2722 1031.094 623.6502 1067.469L623.6502 1067.469L633.6612 1078.069L633.6612 1078.069L562.8432 1078.069L562.8432 1078.069L562.8412 1117.629C 562.8322 1133.522 562.8162 1160.121 576.4322 1185.603C 594.2922 1219.032 626.9402 1235.982 673.4682 1235.982C 674.0452 1235.982 674.6222 1235.98 675.2062 1235.975C 706.0682 1235.712 732.7021 1225.559 752.2312 1206.614C 771.9772 1187.456 782.4142 1161.368 782.4142 1131.167C 782.4142 1092.741 768.8022 1060.995 739.5762 1031.265L739.5762 1031.265L699.4592 989.6894L699.4592 989.6894L778.2012 989.6894zM560.2242 887.5564L777.2012 887.5564L777.2012 887.5564L777.2012 988.6894L777.2012 988.6894L697.1052 988.6894L697.1052 988.6894L738.8592 1031.963C 767.8932 1061.497 781.4142 1093.02 781.4142 1131.167C 781.4142 1161.09 771.0812 1186.931 751.5352 1205.897C 732.1942 1224.66 705.7972 1234.714 675.1982 1234.975C 674.6172 1234.98 674.0422 1234.982 673.4682 1234.982C 627.3382 1234.982 594.9872 1218.21 577.3132 1185.132C 563.8162 1159.871 563.8322 1133.429 563.8412 1117.63L563.8412 1117.63L563.8432 1079.069L563.8432 1079.069L635.9812 1079.069L635.9812 1079.069L624.3762 1066.782C 590.1392 1030.555 571.0992 999.1024 566.1712 970.6264L566.1712 970.6264L566.1402 970.4384C 563.2972 952.9774 561.5982 931.5084 561.1752 917.9784z" stroke="none" fill="#F1F1F2" fill-rule="winding" fill-opacity="0.09803922" /></g></g><g><g clip-path="url(#56)"><path transform="matrix(1 0 0 -1 0 1552)" d="M501.7976 890.5614C 470.5746 890.5614 447.2456 898.5674 430.4756 915.0344C 412.4426 932.7424 403.6766 958.5864 403.6766 994.0444L403.6766 994.0444L403.6766 1123.124C 403.6766 1158.615 412.4846 1184.422 430.6046 1202.022C 447.3716 1218.308 470.7846 1226.225 502.1806 1226.225C 533.4126 1226.225 556.7246 1218.299 573.4486 1201.995C 591.5186 1184.381 600.3016 1158.581 600.3016 1123.124L600.3016 1123.124L600.3016 994.0444C 600.3016 958.5554 591.5116 932.7024 573.4286 915.0084C 556.6156 898.5583 533.1846 890.5614 501.7976 890.5614M502.1806 1224.725C 471.1936 1224.725 448.1236 1216.947 431.6496 1200.946C 413.8356 1183.643 405.1766 1158.188 405.1766 1123.124L405.1766 1123.124L405.1766 994.0444C 405.1766 959.0104 413.7956 933.5164 431.5266 916.1053C 448.0016 899.9264 470.9876 892.0614 501.7976 892.0614C 532.7736 892.0614 555.8606 899.9174 572.3796 916.0804C 590.1586 933.4784 598.8016 958.9803 598.8016 994.0444L598.8016 994.0444L598.8016 1123.124C 598.8016 1158.157 590.1656 1183.604 572.4016 1200.921C 555.9716 1216.939 533.0016 1224.725 502.1806 1224.725M501.4146 972.6944C 500.8956 972.6944 500.4366 972.7214 500.0506 972.7774L500.0506 972.7774L499.6746 972.8293L499.6746 972.8293L499.4946 973.1644C 498.6206 974.7964 496.6536 980.0074 497.2786 993.1313L497.2786 993.1313L497.3006 993.6044L497.3006 993.6044L497.2996 1123.609L497.2996 1123.609L497.2776 1124.05C 496.6576 1136.909 498.5866 1142.016 499.4446 1143.615L499.4446 1143.615L499.6226 1143.946L499.6226 1143.946L499.9936 1144.001C 500.3926 1144.062 500.8706 1144.092 501.4146 1144.092C 502.6596 1144.092 503.3956 1143.956 503.7946 1143.843L503.7946 1143.843L504.0416 1143.772L504.0416 1143.772L504.1936 1143.565C 505.3946 1141.928 507.2746 1135.978 506.7016 1124.058L506.7016 1124.058L506.6776 1123.573L506.6776 1123.573L506.6786 993.5694L506.6786 993.5694L506.6996 993.1284C 507.3626 979.2194 504.9176 974.3864 504.1536 973.2374L504.1536 973.2374L503.9976 973.0024L503.9976 973.0024L503.7266 972.9283C 503.3336 972.8224 502.6146 972.6944 501.4146 972.6944M500.6446 974.2214C 500.8476 974.2054 501.1026 974.1944 501.4146 974.1944C 502.2156 974.1944 502.7446 974.2574 503.0556 974.3144C 503.7696 975.5714 505.8076 980.3394 505.2016 993.0574L505.2016 993.0574L505.1796 993.5334L505.1796 993.5334L505.1786 1123.61L505.1786 1123.61L505.2036 1124.131C 505.7476 1135.438 504.0026 1140.961 503.1256 1142.46C 502.8116 1142.521 502.2646 1142.592 501.4146 1142.592C 501.0796 1142.592 500.8076 1142.578 500.5956 1142.561C 499.8466 1140.94 498.2066 1135.947 498.7756 1124.123L498.7756 1124.123L498.7986 1123.646L498.7986 1123.646L498.7996 993.5694L498.7996 993.5694L498.7766 993.0604C 498.2016 980.9744 499.8796 975.8734 500.6446 974.2214" stroke="none" fill="#F1F1F2" fill-rule="winding" fill-opacity="0.1568628" /></g></g><g><g clip-path="url(#57)"><path transform="matrix(1 0 0 -1 0 1552)" d="M768.4505 896.3062L569.2515 896.3062L569.2515 896.3062L569.9205 917.7052C 570.3345 930.9502 571.9965 951.9582 574.7765 969.0342L574.7765 969.0342L574.8025 969.1891C 579.4215 995.8792 597.7175 1025.836 630.7355 1060.772L630.7355 1060.772L656.2795 1087.819L656.2795 1087.819L572.5925 1087.819L572.5925 1087.819L572.5915 1117.629C 572.5825 1132.611 572.5675 1157.683 585.0305 1181.008C 601.0635 1211.016 630.8185 1226.232 673.4685 1226.232C 674.0165 1226.232 674.5645 1226.23 675.1195 1226.225C 703.4305 1225.984 727.7465 1216.783 745.4415 1199.616C 763.2505 1182.337 772.6645 1158.669 772.6645 1131.168C 772.6645 1095.462 759.9405 1065.89 732.6225 1038.1L732.6225 1038.1L690.6245 994.5752C 687.1885 991.0201 682.2395 985.7362 677.9445 979.9391L677.9445 979.9391L768.4505 979.9391zM570.7995 897.8062L766.9505 897.8062L766.9505 897.8062L766.9505 978.4391L766.9505 978.4391L675.0105 978.4391L675.0105 978.4391L675.8595 979.6262C 680.3985 985.9642 685.8445 991.7882 689.5455 995.6172L689.5455 995.6172L731.5485 1039.146C 758.5775 1066.643 771.1645 1095.881 771.1645 1131.168C 771.1645 1158.253 761.9084 1181.55 744.3965 1198.54C 726.9845 1215.433 703.0235 1224.488 675.1065 1224.725C 674.5565 1224.73 674.0125 1224.732 673.4685 1224.732C 631.4155 1224.732 602.1055 1209.784 586.3545 1180.301C 574.0675 1157.308 574.0825 1132.471 574.0915 1117.631L574.0915 1117.631L574.0925 1089.319L574.0925 1089.319L659.7075 1089.319L659.7075 1089.319L657.7805 1087.223L657.7805 1087.223L631.8265 1059.742C 599.0165 1025.026 580.8475 995.3242 576.2815 968.9382L576.2815 968.9382L576.2565 968.7911C 573.4875 951.7842 571.8325 930.8542 571.4195 917.6582zM662.3065 1092.146L662.7605 1108.019C 662.8515 1111.233 662.8445 1114.402 662.8365 1117.466C 662.8145 1126.692 662.7935 1135.384 665.4555 1141.659L665.4555 1141.659L665.9675 1143.001L665.9675 1143.001L666.2435 1143.136C 666.7035 1143.361 668.5225 1144.092 672.6285 1144.092C 674.1585 1144.092 675.5865 1144.074 676.2375 1143.843L676.2375 1143.843L676.4335 1143.775L676.4335 1143.775L676.5655 1143.615C 676.9795 1143.116 679.0405 1140.079 679.0405 1129.253C 679.0405 1112.049 675.2855 1106.461 663.6695 1093.65zM667.1675 1141.899C 667.1205 1141.766 667.0775 1141.645 667.0775 1141.645L667.0775 1141.645L666.8365 1141.073C 664.2945 1135.081 664.3145 1126.538 664.3365 1117.493C 664.3445 1114.394 664.3525 1111.213 664.2595 1107.976L664.2595 1107.976L663.9225 1096.17C 674.7405 1108.255 677.5405 1113.595 677.5405 1129.253C 677.5405 1138.568 675.9955 1141.74 675.5355 1142.478C 674.8755 1142.592 673.3325 1142.592 672.6285 1142.592C 669.4345 1142.592 667.7785 1142.124 667.1675 1141.899" stroke="none" fill="#F1F1F2" fill-rule="winding" fill-opacity="0.1568628" /></g></g><g><g clip-path="url(#58)"><path transform="matrix(1 0 0 -1 0 1552)" d="M501.7976 900.3115C 473.2576 900.3115 452.1626 907.4036 437.3066 921.9905C 421.2376 937.7715 413.4266 961.3395 413.4266 994.0446L413.4266 994.0446L413.4266 1123.125C 413.4266 1155.841 421.2676 1179.362 437.3976 1195.03C 452.2556 1209.459 473.4466 1216.476 502.1806 1216.476C 530.7436 1216.476 551.8296 1209.456 566.6426 1195.015C 582.7306 1179.331 590.5516 1155.817 590.5516 1123.125L590.5516 1123.125L590.5516 994.0446C 590.5516 961.3156 582.7206 937.7415 566.6096 921.9775C 551.7096 907.3986 530.5096 900.3115 501.7976 900.3115M502.1806 1214.476C 473.9926 1214.476 453.2576 1207.646 438.7906 1193.594C 423.0686 1178.323 415.4266 1155.273 415.4266 1123.125L415.4266 1123.125L415.4266 994.0446C 415.4266 961.9055 423.0416 938.8026 438.7076 923.4185C 453.1716 909.2155 473.8086 902.3115 501.7976 902.3115C 529.9606 902.3115 550.7036 909.2115 565.2106 923.4065C 580.9166 938.7755 588.5516 961.8815 588.5516 994.0446L588.5516 994.0446L588.5516 1123.125C 588.5516 1155.248 580.9286 1178.295 565.2466 1193.583C 550.8246 1207.641 530.1956 1214.476 502.1806 1214.476M501.4146 962.4445C 496.0026 962.4445 493.6776 964.2285 492.3986 965.5695C 490.0176 968.0665 486.1546 975.0295 487.0396 993.6165L487.0396 993.6165L487.0506 993.8535L487.0506 993.8535L487.0496 1123.365L487.0496 1123.365L487.0396 1123.557C 486.1586 1141.833 489.9886 1148.719 492.3506 1151.197C 493.6376 1152.547 495.9766 1154.343 501.4146 1154.343C 507.4146 1154.343 510.0146 1152.344 511.4486 1150.839C 515.6246 1146.456 517.5756 1136.768 516.9386 1123.558L516.9386 1123.558L516.9276 1123.318L516.9276 1123.318L516.9286 993.8065L516.9286 993.8065L516.9386 993.6155C 517.5786 980.1796 515.6106 970.3455 511.3956 965.9265C 509.9716 964.4315 507.3866 962.4445 501.4146 962.4445M501.4146 1152.343C 496.7446 1152.343 494.8316 1150.901 493.7986 1149.818C 491.6576 1147.572 488.1916 1141.185 489.0376 1123.655L489.0376 1123.655L489.0486 1123.415L489.0486 1123.415L489.0496 993.8065L489.0496 993.8065L489.0376 993.5225C 488.1876 975.6785 491.6856 969.2145 493.8456 966.9495C 494.8716 965.8735 496.7706 964.4445 501.4146 964.4445C 506.6186 964.4445 508.7776 966.0775 509.9486 967.3065C 513.7816 971.3256 515.5546 980.6355 514.9406 993.5215L514.9406 993.5215L514.9296 993.7595L514.9296 993.7595L514.9286 1123.365L514.9286 1123.365L514.9406 1123.656C 515.5506 1136.312 513.7956 1145.477 509.9996 1149.459C 508.8206 1150.697 506.6476 1152.343 501.4146 1152.343" stroke="none" fill="#F1F1F2" fill-rule="winding" fill-opacity="0.2470588" /></g></g><g><g clip-path="url(#59)"><path transform="matrix(1 0 0 -1 0 1552)" d="M758.7011 906.0564L579.3121 906.0564L579.3121 906.0564L579.6661 917.4004C 580.0701 930.3284 581.6901 950.8254 584.4001 967.4684L584.4001 967.4684L584.4171 967.5724C 588.6941 992.2824 606.1621 1020.576 637.8221 1054.074L637.8221 1054.074L663.8201 1081.602L663.8201 1081.602L665.2291 1083.136C 680.8331 1100.104 687.2911 1107.127 687.2911 1129.252C 687.2911 1152.342 679.1611 1152.342 672.6281 1152.342C 660.5441 1152.342 658.7611 1147.35 658.0901 1145.471L658.0901 1145.471L657.8582 1144.875C 654.5401 1137.053 654.5621 1127.54 654.5861 1117.469C 654.5941 1114.457 654.6021 1111.346 654.5131 1108.254L654.5131 1108.254L654.2081 1097.569L654.2081 1097.569L582.3421 1097.569L582.3421 1097.569L582.3411 1117.629C 582.3331 1131.697 582.3191 1155.243 593.6301 1176.413C 607.8351 1203 634.6971 1216.482 673.4681 1216.482C 673.9861 1216.482 674.5042 1216.48 675.0281 1216.475C 727.5951 1216.029 762.9151 1181.745 762.9151 1131.167C 762.9151 1098.185 751.0801 1070.784 725.6691 1044.935L725.6691 1044.935L683.6082 1001.344C 676.1141 993.5914 665.7741 982.0524 661.1501 970.1894L661.1501 970.1894L758.7011 970.1894zM581.3751 908.0564L756.7011 908.0564L756.7011 908.0564L756.7011 968.1894L756.7011 968.1894L658.3001 968.1894L658.3001 968.1894L658.7691 969.5214C 663.2401 982.2174 674.2651 994.5574 682.1691 1002.734L682.1691 1002.734L724.2371 1046.33C 749.2621 1071.787 760.9151 1098.743 760.9151 1131.167C 760.9151 1180.56 726.3921 1214.038 675.0101 1214.475C 674.4921 1214.48 673.9801 1214.482 673.4681 1214.482C 635.4931 1214.482 609.2251 1201.357 595.3941 1175.47C 584.3191 1154.743 584.3331 1131.511 584.3411 1117.63L584.3411 1117.63L584.3421 1099.569L584.3421 1099.569L652.2641 1099.569L652.2641 1099.569L652.5141 1108.311C 652.6011 1111.372 652.5941 1114.467 652.5861 1117.461C 652.5621 1127.745 652.5391 1137.457 656.0171 1145.656L656.0171 1145.656L656.2081 1146.144C 657.0071 1148.386 659.1351 1154.342 672.6281 1154.342C 679.2631 1154.342 689.2911 1154.342 689.2911 1129.252C 689.2911 1106.348 682.6781 1099.157 666.7021 1081.783L666.7021 1081.783L665.2831 1080.239L665.2831 1080.239L639.2751 1052.701C 607.8951 1019.496 590.5951 991.5404 586.3891 967.2354L586.3891 967.2354L586.3731 967.1414C 583.6791 950.5924 582.0671 930.2024 581.6651 917.3374z" stroke="none" fill="#F1F1F2" fill-rule="winding" fill-opacity="0.2470588" /></g></g><path transform="matrix(1 0 0 -1 0 1552)" d="M424.4259 1123.124C 424.4259 1184.024 453.5359 1205.475 502.1809 1205.475C 550.4419 1205.475 579.5519 1184.024 579.5519 1123.124L579.5519 1123.124L579.5519 994.0437C 579.5519 933.1427 550.4419 911.3107 501.7979 911.3107C 453.5359 911.3107 424.4259 933.1427 424.4259 994.0437L424.4259 994.0437L424.4259 1123.124zM478.0499 994.0437C 476.5179 961.8697 487.6259 953.4427 501.4149 953.4427C 515.5869 953.4427 527.4609 961.8697 525.9279 994.0437L525.9279 994.0437L525.9279 1123.124C 527.4609 1154.915 515.5869 1163.342 501.4149 1163.342C 487.6259 1163.342 476.5179 1154.915 478.0499 1123.124L478.0499 1123.124L478.0499 994.0437z" stroke="#F1F1F2" stroke-width="2" fill="none" /><path transform="matrix(1 0 0 -1 0 1552)" d="M590.6607 917.0554C 591.0437 929.3124 592.5757 949.2294 595.2567 965.7004C 598.7037 985.6174 612.8757 1011.662 645.8167 1046.518L645.8167 1046.518L671.8617 1074.096C 689.0987 1092.864 698.2907 1102.057 698.2907 1129.251C 698.2907 1155.297 687.9487 1163.341 672.6287 1163.341C 661.5197 1163.341 651.5617 1159.894 647.7317 1149.169C 642.3687 1136.529 643.9017 1121.974 643.5177 1108.568L643.5177 1108.568L593.3417 1108.568L593.3417 1108.568L593.3417 1116.612C 593.3417 1141.891 592.1927 1206.24 674.9267 1205.474C 720.1237 1205.09 751.9147 1177.13 751.9147 1131.166C 751.9147 1099.375 740.0407 1075.244 717.8247 1052.646L717.8247 1052.646L675.6917 1008.981C 664.5847 997.4914 648.1147 978.7224 647.7317 959.1884L647.7317 959.1884L747.7007 959.1884L747.7007 959.1884L747.7007 917.0554L747.7007 917.0554L590.6607 917.0554z" stroke="#F1F1F2" stroke-width="2" fill="none" /><g clip-path="url(#60)"><g clip-path="url(#61)"><g clip-path="url(#62)"><g><g clip-path="url(#63)"><g clip-path="url(#64)"><g><path transform="matrix(1 0 0 -1 0 1552)" d="M0 -3641L1176 -2268L1176 -2268L1176 1244L1176 1244L0 -129" stroke="none" fill="url(#30511)" /><path transform="matrix(1 0 0 -1 0 1552)" d="M0 -3639.815L1176 -2266.674L1176 -2266.674L1176 0L1176 0L0 0" stroke="none" fill="#4C216D" fill-rule="evenodd" fill-opacity="0.8980392" /><path transform="matrix(1 0 0 -1 0 1552)" d="M0 -129.8021L1176 1243.339L1176 1243.339L1176 1552L1176 1552L0 1552" stroke="none" fill="#B83F54" fill-rule="evenodd" fill-opacity="0.8980392" /></g></g></g></g><g><g clip-path="url(#65)"><g clip-path="url(#66)"><g><path transform="matrix(1 0 0 -1 0 1552)" d="M0 4138L1176 2939L1176 2939L1176 995L1176 995L0 2194" stroke="none" fill="url(#31410)" /><path transform="matrix(1 0 0 -1 0 1552)" d="M0 4136.892L1176 2938.084L1176 2938.084L1176 1552L1176 1552L0 1552" stroke="none" fill="#FFD800" fill-rule="evenodd" fill-opacity="0.1960784" /><path transform="matrix(1 0 0 -1 0 1552)" d="M0 2194.574L1176 995.7666L1176 995.7666L1176 0L1176 0L0 0" stroke="none" fill="#FF387D" fill-rule="evenodd" fill-opacity="0.1960784" /></g></g><g clip-path="url(#67)"><g><path transform="matrix(1 0 0 -1 0 1552)" d="M0 4137L1176 2938L1176 2938L1176 995L1176 995L0 2194" stroke="none" fill="url(#32052)" /><path transform="matrix(1 0 0 -1 0 1552)" d="M0 4136.299L1176 2937.491L1176 2937.491L1176 1552L1176 1552L0 1552" stroke="none" fill="#FFD800" fill-rule="evenodd" fill-opacity="0.1960784" /><path transform="matrix(1 0 0 -1 0 1552)" d="M0 2194.832L1176 996.0239L1176 996.0239L1176 0L1176 0L0 0" stroke="none" fill="#FF387D" fill-rule="evenodd" fill-opacity="0.1960784" /></g></g><g clip-path="url(#68)"><g><path transform="matrix(1 0 0 -1 0 1552)" d="M0 4137L1176 2938L1176 2938L1176 995L1176 995L0 2194" stroke="none" fill="url(#32690)" /><path transform="matrix(1 0 0 -1 0 1552)" d="M0 4135.712L1176 2936.904L1176 2936.904L1176 1552L1176 1552L0 1552" stroke="none" fill="#FFD800" fill-rule="evenodd" fill-opacity="0.1960784" /><path transform="matrix(1 0 0 -1 0 1552)" d="M0 2195.052L1176 996.2449L1176 996.2449L1176 0L1176 0L0 0" stroke="none" fill="#FF387D" fill-rule="evenodd" fill-opacity="0.1960784" /></g></g></g></g></g></g></g></g></g></g></g><defs><clipPath id="1"><path d="M0 1552L0 -0.3900146L0 -0.3900146L1176.34 -0.3900146L1176.34 -0.3900146L1176.34 1552L1176.34 1552L0 1552z" /></clipPath><clipPath id="2"><path d="M0 -0.3869629L1176.341 -0.3869629L1176.341 -0.3869629L1176.341 1552L1176.341 1552L0 1552z" /></clipPath><clipPath id="3"><path d="M2461.176 137.672L1403.377 137.672L1403.377 137.672L1403.377 62.99402L1403.377 62.99402L2461.176 62.99402z" /></clipPath><clipPath id="4"><path d="M2461.176 851.563L1403.377 851.563L1403.377 851.563L1403.377 -538.3179L1403.377 -538.3179L2461.176 -538.3179z" /></clipPath><clipPath id="5"><path d="M2729.956 2.885986L2333.031 1147.885L2333.031 1147.885L1250.309 830.226L1250.309 830.226L924.891 -249.5229L924.891 -249.5229L2012.238 -1121.477L2012.238 -1121.477L2623.955 -308.01z" /></clipPath><clipPath id="6"><path d="M920.145 -253.17L2905.52 -253.17L2905.52 -253.17L2905.52 901.714L2905.52 901.714L920.145 901.714z" /></clipPath><clipPath id="7"><path d="M1405.211 901.714L2831.031 898.661L2831.031 898.661L2905.518 -253.174L2905.518 -253.174L920.145 -248.905z" /></clipPath><linearGradient transform="matrix(1 0 0 1 0 0)" id="1663" x1="1203.717" y1="2042.75" x2="1203.7172042.75" y2="1203.7171486.015"><stop stop-color="#4C216D" offset="0%" /><stop stop-color="#B83F54" offset="100%" /></linearGradient><clipPath id="8"><path d="M1143.95 -760.3101L2836.52 -760.3101L2836.52 -760.3101L2836.52 445.1L2836.52 445.1L1143.95 445.1z" /></clipPath><clipPath id="9"><path d="M1910.373 380.957L1909.633 380.182L1909.633 380.182L1175.109 -356.424L1175.109 -356.424L1176.619 -357.954L1176.619 -357.954L1910.403 377.8669L1910.403 377.8669L2804.494 -533.7581L2804.494 -533.7581L2805.974 -532.198z" /></clipPath><linearGradient transform="matrix(1 0 0 1 0 0)" id="2558" x1="1466.356" y1="2418.313" x2="1466.3562418.313" y2="1466.356953.4873"><stop stop-color="#FFD800" offset="0%" /><stop stop-color="#FF387D" offset="100%" /></linearGradient><clipPath id="10"><path d="M1910.065 413.032L1909.326 412.257L1909.326 412.257L1159.529 -340.5291L1159.529 -340.5291L1161.039 -342.0601L1161.039 -342.0601L1910.094 409.943L1910.094 409.943L2819.766 -517.5669L2819.766 -517.5669L2821.247 -516.0081z" /></clipPath><linearGradient transform="matrix(1 0 0 1 0 0)" id="3205" x1="1474.579" y1="2409.772" x2="1474.5792409.772" y2="1474.579953.0706"><stop stop-color="#FFD800" offset="0%" /><stop stop-color="#FF387D" offset="100%" /></linearGradient><clipPath id="11"><path d="M1909.756 445.1L1909.017 444.316L1909.017 444.316L1143.949 -324.644L1143.949 -324.644L1145.451 -326.176L1145.451 -326.176L1909.787 442.009L1909.787 442.009L2835.046 -501.385L2835.046 -501.385L2836.518 -499.8269z" /></clipPath><linearGradient transform="matrix(1 0 0 1 0 0)" id="3844" x1="1482.778" y1="2401.239" x2="1482.7782401.239" y2="1482.778952.6741"><stop stop-color="#FFD800" offset="0%" /><stop stop-color="#FF387D" offset="100%" /></linearGradient><clipPath id="12"><path d="M0 1552L1176.34 1552L1176.34 1552L1176.34 -0.3869629L1176.34 -0.3869629L0 -0.3869629z" /></clipPath><clipPath id="13"><path d="M-564.834 295.6801L1734.7 295.6801L1734.7 295.6801L1734.7 1633.31L1734.7 1633.31L-564.834 1633.31z" /></clipPath><clipPath id="14"><path d="M-3.014 1633.31L1648.424 1629.774L1648.424 1629.774L1734.699 295.677L1734.699 295.677L-564.834 300.62z" /></clipPath><linearGradient transform="matrix(1 0 0 1 0 0)" id="4741" x1="-236.3907" y1="1531.493" x2="-236.39071531.493" y2="-236.39071721.157"><stop stop-color="#4C216D" offset="0%" /><stop stop-color="#B83F54" offset="100%" /></linearGradient><clipPath id="15"><path d="M-305.616 -291.7L1654.78 -291.7L1654.78 -291.7L1654.78 1104.442L1654.78 1104.442L-305.616 1104.442z" /></clipPath><clipPath id="16"><path d="M587.078 510.158L586.222 509.25L586.222 509.25L-16.877 -81.505L-16.877 -81.505L-15.127 -83.27795L-15.127 -83.27795L587.113 506.578L587.113 506.578L1370.034 -291.705L1370.034 -291.705L1371.748 -289.899z" /></clipPath><linearGradient transform="matrix(1 0 0 1 0 0)" id="5558" x1="-67.95959" y1="2104.905" x2="-67.959592104.905" y2="-67.959591113.547"><stop stop-color="#FFD800" offset="0%" /><stop stop-color="#FF387D" offset="100%" /></linearGradient><clipPath id="17"><path d="M586.722 547.289L585.865 546.391L585.865 546.391L-34.922 -63.10596L-34.922 -63.10596L-33.173 -64.88L-33.173 -64.88L586.756 543.709L586.756 543.709L1387.722 -272.963L1387.722 -272.963L1389.436 -271.157z" /></clipPath><linearGradient transform="matrix(1 0 0 1 0 0)" id="6154" x1="-58.06604" y1="2095.025" x2="-58.066042095.025" y2="-58.066041112.7"><stop stop-color="#FFD800" offset="0%" /><stop stop-color="#FF387D" offset="100%" /></linearGradient><clipPath id="18"><path d="M586.365 584.44L585.508 583.541L585.508 583.541L-52.967 -44.70801L-52.967 -44.70801L-51.218 -46.47998L-51.218 -46.47998L586.399 580.861L586.399 580.861L1405.411 -254.22L1405.411 -254.22L1407.125 -252.4139z" /></clipPath><linearGradient transform="matrix(1 0 0 1 0 0)" id="6752" x1="-48.20544" y1="2085.139" x2="-48.205442085.139" y2="-48.205441111.89"><stop stop-color="#FFD800" offset="0%" /><stop stop-color="#FF387D" offset="100%" /></linearGradient><clipPath id="19"><path d="M586.008 621.581L585.152 620.683L585.152 620.683L-71.011 -26.30798L-71.011 -26.30798L-69.263 -28.08105L-69.263 -28.08105L586.043 618.001L586.043 618.001L1423.099 -235.479L1423.099 -235.479L1424.813 -233.672z" /></clipPath><linearGradient transform="matrix(1 0 0 1 0 0)" id="7353" x1="-38.38037" y1="2075.255" x2="-38.380372075.255" y2="-38.380371111.112"><stop stop-color="#FFD800" offset="0%" /><stop stop-color="#FF387D" offset="100%" /></linearGradient><clipPath id="20"><path d="M585.651 658.721L584.795 657.814L584.795 657.814L-89.057 -7.910034L-89.057 -7.910034L-87.308 -9.682983L-87.308 -9.682983L585.686 655.142L585.686 655.142L1440.788 -216.7371L1440.788 -216.7371L1442.502 -214.929z" /></clipPath><linearGradient transform="matrix(1 0 0 1 0 0)" id="7957" x1="-28.59839" y1="2065.37" x2="-28.598392065.37" y2="-28.598391110.375"><stop stop-color="#FFD800" offset="0%" /><stop stop-color="#FF387D" offset="100%" /></linearGradient><clipPath id="21"><path d="M585.294 695.872L584.438 694.964L584.438 694.964L-107.111 10.49902L-107.111 10.49902L-105.362 8.725952L-105.362 8.725952L585.329 692.293L585.329 692.293L1458.485 -197.984L1458.485 -197.984L1460.199 -196.178z" /></clipPath><linearGradient transform="matrix(1 0 0 1 0 0)" id="8557" x1="-18.84265" y1="2055.481" x2="-18.842652055.481" y2="-18.842651109.665"><stop stop-color="#FFD800" offset="0%" /><stop stop-color="#FF387D" offset="100%" /></linearGradient><clipPath id="22"><path d="M584.938 733.014L584.082 732.106L584.082 732.106L-125.157 28.88794L-125.157 28.88794L-123.407 27.11499L-123.407 27.11499L584.972 729.434L584.972 729.434L1476.173 -179.2531L1476.173 -179.2531L1477.887 -177.446z" /></clipPath><linearGradient transform="matrix(1 0 0 1 0 0)" id="9161" x1="-9.11853" y1="2045.599" x2="-9.118532045.599" y2="-9.118531108.984"><stop stop-color="#FFD800" offset="0%" /><stop stop-color="#FF387D" offset="100%" /></linearGradient><clipPath id="23"><path d="M584.582 770.144L583.725 769.246L583.725 769.246L-143.201 47.28601L-143.201 47.28601L-141.452 45.51404L-141.452 45.51404L584.616 766.565L584.616 766.565L1493.862 -160.51L1493.862 -160.51L1495.576 -158.704z" /></clipPath><linearGradient transform="matrix(1 0 0 1 0 0)" id="9758" x1="0.5794678" y1="2035.715" x2="0.57946782035.715" y2="0.57946781108.324"><stop stop-color="#FFD800" offset="0%" /><stop stop-color="#FF387D" offset="100%" /></linearGradient><clipPath id="24"><path d="M584.225 807.295L583.368 806.397L583.368 806.397L-161.246 65.69604L-161.246 65.69604L-159.497 63.92297L-159.497 63.92297L584.259 803.716L584.259 803.716L1511.55 -141.759L1511.55 -141.759L1513.264 -139.952z" /></clipPath><linearGradient transform="matrix(1 0 0 1 0 0)" id="10358" x1="10.2583" y1="2025.818" x2="10.25832025.818" y2="10.25831107.687"><stop stop-color="#FFD800" offset="0%" /><stop stop-color="#FF387D" offset="100%" /></linearGradient><clipPath id="25"><path d="M583.868 844.446L583.011 843.547L583.011 843.547L-179.291 84.09497L-179.291 84.09497L-177.543 82.32104L-177.543 82.32104L583.902 840.866L583.902 840.866L1529.239 -123.016L1529.239 -123.016L1530.953 -121.21z" /></clipPath><linearGradient transform="matrix(1 0 0 1 0 0)" id="10954" x1="19.90991" y1="2015.932" x2="19.909912015.932" y2="19.909911107.081"><stop stop-color="#FFD800" offset="0%" /><stop stop-color="#FF387D" offset="100%" /></linearGradient><clipPath id="26"><path d="M583.511 881.576L582.655 880.669L582.655 880.669L-197.336 102.493L-197.336 102.493L-195.588 100.72L-195.588 100.72L583.545 877.997L583.545 877.997L1546.926 -104.274L1546.926 -104.274L1548.641 -102.468z" /></clipPath><linearGradient transform="matrix(1 0 0 1 0 0)" id="11548" x1="29.52661" y1="2006.041" x2="29.526612006.041" y2="29.526611106.496"><stop stop-color="#FFD800" offset="0%" /><stop stop-color="#FF387D" offset="100%" /></linearGradient><clipPath id="27"><path d="M583.154 918.728L582.307 917.82L582.307 917.82L-215.381 120.8929L-215.381 120.8929L-213.633 119.119L-213.633 119.119L583.189 915.149L583.189 915.149L1564.614 -85.53198L1564.614 -85.53198L1566.33 -83.72595z" /></clipPath><linearGradient transform="matrix(1 0 0 1 0 0)" id="12146" x1="39.12952" y1="1996.154" x2="39.129521996.154" y2="39.129521105.938"><stop stop-color="#FFD800" offset="0%" /><stop stop-color="#FF387D" offset="100%" /></linearGradient><clipPath id="28"><path d="M582.797 955.878L581.95 954.971L581.95 954.971L-233.435 139.29L-233.435 139.29L-231.687 137.5179L-231.687 137.5179L582.832 952.299L582.832 952.299L1582.312 -66.79004L1582.312 -66.79004L1584.027 -64.98401z" /></clipPath><linearGradient transform="matrix(1 0 0 1 0 0)" id="12743" x1="48.71521" y1="1986.262" x2="48.715211986.262" y2="48.715211105.387"><stop stop-color="#FFD800" offset="0%" /><stop stop-color="#FF387D" offset="100%" /></linearGradient><clipPath id="29"><path d="M582.441 993.009L581.585 992.111L581.585 992.111L-251.48 157.6899L-251.48 157.6899L-249.732 155.917L-249.732 155.917L582.476 989.43L582.476 989.43L1600.001 -48.04797L1600.001 -48.04797L1601.715 -46.24194z" /></clipPath><linearGradient transform="matrix(1 0 0 1 0 0)" id="13340" x1="58.27222" y1="1976.375" x2="58.272221976.375" y2="58.272221104.864"><stop stop-color="#FFD800" offset="0%" /><stop stop-color="#FF387D" offset="100%" /></linearGradient><clipPath id="30"><path d="M582.085 1030.151L581.228 1029.252L581.228 1029.252L-269.526 176.088L-269.526 176.088L-267.777 174.316L-267.777 174.316L582.119 1026.572L582.119 1026.572L1617.688 -29.30603L1617.688 -29.30603L1619.404 -27.5z" /></clipPath><linearGradient transform="matrix(1 0 0 1 0 0)" id="13940" x1="67.80774" y1="1966.485" x2="67.807741966.485" y2="67.807741104.364"><stop stop-color="#FFD800" offset="0%" /><stop stop-color="#FF387D" offset="100%" /></linearGradient><clipPath id="31"><path d="M581.728 1067.301L580.871 1066.403L580.871 1066.403L-287.571 194.4969L-287.571 194.4969L-285.823 192.724L-285.823 192.724L581.762 1063.722L581.762 1063.722L1635.377 -10.55396L1635.377 -10.55396L1637.091 -8.748047z" /></clipPath><linearGradient transform="matrix(1 0 0 1 0 0)" id="14546" x1="77.33167" y1="1956.592" x2="77.331671956.592" y2="77.331671103.881"><stop stop-color="#FFD800" offset="0%" /><stop stop-color="#FF387D" offset="100%" /></linearGradient><clipPath id="32"><path d="M581.371 1104.443L580.514 1103.533L580.514 1103.533L-305.616 212.897L-305.616 212.897L-303.876 211.123L-303.876 211.123L581.405 1100.863L581.405 1100.863L1653.075 8.187988L1653.075 8.187988L1654.78 9.993042z" /></clipPath><linearGradient transform="matrix(1 0 0 1 0 0)" id="15146" x1="86.82788" y1="1946.708" x2="86.827881946.708" y2="86.827881103.422"><stop stop-color="#FFD800" offset="0%" /><stop stop-color="#FF387D" offset="100%" /></linearGradient><clipPath id="33"><path d="M79.2289 -871.99L1103.97 -871.99L1103.97 -871.99L1103.97 203.25L1103.97 203.25L79.2289 203.25z" /></clipPath><clipPath id="34"><path d="M1075.62 12.11401L264.274 -842.7109L264.274 -842.7109L266.194 -844.6841L266.194 -844.6841L1077.541 10.13904z" /></clipPath><linearGradient transform="matrix(1 0 0 1 0 0)" id="15863" x1="262.165" y1="1970.316" x2="262.1651970.316" y2="262.1654.061401"><stop stop-color="#560099" offset="0%" /><stop stop-color="#FF0A35" offset="100%" /></linearGradient><clipPath id="35"><path d="M1062.401 25.76501L251.056 -829.0591L251.056 -829.0591L252.978 -831.033L252.978 -831.033L1064.324 23.79102z" /></clipPath><linearGradient transform="matrix(1 0 0 1 0 0)" id="16360" x1="248.9471" y1="1956.665" x2="248.94711956.665" y2="248.94714.061401"><stop stop-color="#560099" offset="0%" /><stop stop-color="#FF0A35" offset="100%" /></linearGradient><clipPath id="36"><path d="M1049.184 39.41602L237.838 -815.408L237.838 -815.408L239.76 -817.3821L239.76 -817.3821L1051.105 37.44397z" /></clipPath><linearGradient transform="matrix(1 0 0 1 0 0)" id="16858" x1="235.7303" y1="1943.013" x2="235.73031943.013" y2="235.73034.061401"><stop stop-color="#560099" offset="0%" /><stop stop-color="#FF0A35" offset="100%" /></linearGradient><clipPath id="37"><path d="M1035.966 53.06799L224.621 -801.7451L224.621 -801.7451L226.543 -803.719L226.543 -803.719L1037.887 51.09399z" /></clipPath><linearGradient transform="matrix(1 0 0 1 0 0)" id="17358" x1="222.5123" y1="1929.356" x2="222.51231929.356" y2="222.51234.061401"><stop stop-color="#560099" offset="0%" /><stop stop-color="#FF0A35" offset="100%" /></linearGradient><clipPath id="38"><path d="M1022.75 66.71899L211.404 -788.094L211.404 -788.094L213.325 -790.0669L213.325 -790.0669L1024.671 64.74597z" /></clipPath><linearGradient transform="matrix(1 0 0 1 0 0)" id="17857" x1="209.2955" y1="1915.705" x2="209.29551915.705" y2="209.29554.061401"><stop stop-color="#560099" offset="0%" /><stop stop-color="#FF0A35" offset="100%" /></linearGradient><clipPath id="39"><path d="M1009.532 80.37097L198.186 -774.4541L198.186 -774.4541L200.107 -776.427L200.107 -776.427L1011.453 78.39697z" /></clipPath><linearGradient transform="matrix(1 0 0 1 0 0)" id="18357" x1="196.0776" y1="1902.059" x2="196.07761902.059" y2="196.07764.061401"><stop stop-color="#560099" offset="0%" /><stop stop-color="#FF0A35" offset="100%" /></linearGradient><clipPath id="40"><path d="M996.314 94.02197L184.969 -760.792L184.969 -760.792L186.89 -762.7639L186.89 -762.7639L998.236 92.04895z" /></clipPath><linearGradient transform="matrix(1 0 0 1 0 0)" id="18853" x1="182.8607" y1="1888.402" x2="182.86071888.402" y2="182.86074.061401"><stop stop-color="#560099" offset="0%" /><stop stop-color="#FF0A35" offset="100%" /></linearGradient><clipPath id="41"><path d="M983.097 107.6851L171.751 -747.1389L171.751 -747.1389L173.672 -749.113L173.672 -749.113L985.018 105.7111z" /></clipPath><linearGradient transform="matrix(1 0 0 1 0 0)" id="19351" x1="169.6427" y1="1874.745" x2="169.64271874.745" y2="169.64274.061401"><stop stop-color="#560099" offset="0%" /><stop stop-color="#FF0A35" offset="100%" /></linearGradient><clipPath id="42"><path d="M969.879 121.324L158.533 -733.488L158.533 -733.488L160.455 -735.4619L160.455 -735.4619L971.801 119.3521z" /></clipPath><linearGradient transform="matrix(1 0 0 1 0 0)" id="19848" x1="156.4248" y1="1861.099" x2="156.42481861.099" y2="156.42484.061401"><stop stop-color="#560099" offset="0%" /><stop stop-color="#FF0A35" offset="100%" /></linearGradient><clipPath id="43"><path d="M956.662 134.9771L145.316 -719.8369L145.316 -719.8369L147.237 -721.8101L147.237 -721.8101L958.584 133.002z" /></clipPath><linearGradient transform="matrix(1 0 0 1 0 0)" id="20347" x1="143.208" y1="1847.448" x2="143.2081847.448" y2="143.2084.061401"><stop stop-color="#560099" offset="0%" /><stop stop-color="#FF0A35" offset="100%" /></linearGradient><clipPath id="44"><path d="M943.444 148.639L132.098 -706.1841L132.098 -706.1841L134.021 -708.158L134.021 -708.158L945.366 146.666z" /></clipPath><linearGradient transform="matrix(1 0 0 1 0 0)" id="20840" x1="129.99" y1="1833.791" x2="129.991833.791" y2="129.994.061401"><stop stop-color="#560099" offset="0%" /><stop stop-color="#FF0A35" offset="100%" /></linearGradient><clipPath id="45"><path d="M930.227 162.29L118.881 -692.5339L118.881 -692.5339L120.802 -694.5081L120.802 -694.5081L932.148 160.317z" /></clipPath><linearGradient transform="matrix(1 0 0 1 0 0)" id="21331" x1="116.7732" y1="1820.139" x2="116.77321820.139" y2="116.77324.061401"><stop stop-color="#560099" offset="0%" /><stop stop-color="#FF0A35" offset="100%" /></linearGradient><clipPath id="46"><path d="M917.009 175.942L105.664 -678.8821L105.664 -678.8821L107.586 -680.855L107.586 -680.855L918.93 173.969z" /></clipPath><linearGradient transform="matrix(1 0 0 1 0 0)" id="21826" x1="103.5552" y1="1806.488" x2="103.55521806.488" y2="103.55524.061401"><stop stop-color="#560099" offset="0%" /><stop stop-color="#FF0A35" offset="100%" /></linearGradient><clipPath id="47"><path d="M903.792 189.594L92.447 -665.23L92.447 -665.23L94.368 -667.2041L94.368 -667.2041L905.713 187.619z" /></clipPath><linearGradient transform="matrix(1 0 0 1 0 0)" id="22316" x1="90.33839" y1="1792.836" x2="90.338391792.836" y2="90.338394.061401"><stop stop-color="#560099" offset="0%" /><stop stop-color="#FF0A35" offset="100%" /></linearGradient><clipPath id="48"><path d="M890.575 203.245L79.229 -651.5791L79.229 -651.5791L81.15 -653.552L81.15 -653.552L892.496 201.272z" /></clipPath><linearGradient transform="matrix(1 0 0 1 0 0)" id="22806" x1="77.12046" y1="1779.184" x2="77.120461779.184" y2="77.120464.061401"><stop stop-color="#560099" offset="0%" /><stop stop-color="#FF0A35" offset="100%" /></linearGradient><clipPath id="49"><path d="M452.184 226.209L455.99 226.209C 459.162 226.209 461.722 226.845 463.672 228.114L463.672 228.114L463.672 228.114C 465.62 229.3831 466.594 231.603 466.594 234.774L466.594 234.774L466.594 234.774C 466.594 239.6689 465.868 243.316 464.419 245.718L464.419 245.718L464.419 245.718C 462.968 248.12 458.889 249.3199 452.184 249.3199L452.184 249.3199L452.184 249.3199zM430.296 210.168L430.296 300.708L430.296 300.708L452.184 300.708L452.184 300.708L452.184 265.3621C 452.728 265.3621 453.272 265.386 453.815 265.4301L453.815 265.4301L453.815 265.4301C 454.36 265.4771 454.903 265.498 455.447 265.498L455.447 265.498L455.447 265.498C 455.9 265.498 456.398 265.522 456.942 265.566L456.942 265.566L456.942 265.566C 457.486 265.613 458.03 265.635 458.573 265.635L458.573 265.635L458.573 265.635C 466.73 265.635 473.8 263.9139 479.781 260.468L479.781 260.468L479.781 260.468C 485.762 257.025 488.753 249.412 488.753 237.629L488.753 237.629L488.753 237.629C 488.753 228.569 486.532 221.724 482.092 217.1021L482.092 217.1021L482.092 217.1021C 477.651 212.479 469.041 210.168 456.262 210.168L456.262 210.168L456.262 210.168z" /></clipPath><linearGradient transform="matrix(1 0 0 1 0 0)" id="24271" x1="458.0753" y1="1406.224" x2="458.07531406.224" y2="458.0753198.3546"><stop stop-color="#4C216D" offset="0%" /><stop stop-color="#B83F54" offset="100%" /></linearGradient><clipPath id="50"><path d="M552.919 226.209L558.493 266.314L558.493 266.314L546.938 266.314zM541.228 210.168L520.429 300.708L520.429 300.708L542.18 300.708L542.18 300.708L545.035 282.764L545.035 282.764L561.348 282.764L561.348 282.764L564.203 300.708L564.203 300.708L586.363 300.708L586.363 300.708L566.106 210.168z" /></clipPath><linearGradient transform="matrix(1 0 0 1 0 0)" id="24916" x1="551.5598" y1="1407.323" x2="551.55981407.323" y2="551.5598198.3546"><stop stop-color="#4C216D" offset="0%" /><stop stop-color="#B83F54" offset="100%" /></linearGradient><clipPath id="51"><path d="M642.643 225.2581C 646.087 225.2581 648.965 225.6899 651.276 226.55L651.276 226.55L651.276 226.55C 653.586 227.411 655.195 230.4709 656.102 235.726L656.102 235.726L656.102 235.726L656.102 235.726L656.102 238.309C 656.102 242.208 655.218 245.017 653.45 246.7371L653.45 246.7371L653.45 246.7371C 651.684 248.46 649.757 249.3199 647.673 249.3199L647.673 249.3199L647.673 249.3199L647.673 249.3199L642.643 249.3199zM620.756 210.168L620.756 300.708L620.756 300.708L642.643 300.708L642.643 300.708L642.643 265.3621L642.643 265.3621L647.673 265.3621C 650.936 265.3621 653.156 266.089 654.334 267.537L654.334 267.537L654.334 267.537C 655.511 268.988 656.102 271.207 656.102 274.199L656.102 274.199L656.102 274.199L656.102 274.199L656.102 293.095C 656.102 296.45 656.509 298.556 657.326 299.416L657.326 299.416L657.326 299.416C 658.141 300.28 659.953 300.708 662.764 300.708L662.764 300.708L662.764 300.708L662.764 300.708L682.068 300.708L682.068 300.708L682.068 297.853C 681.16 297.853 680.3 297.265 679.485 296.0861L679.485 296.0861L679.485 296.0861C 678.668 294.9091 678.262 292.6429 678.262 289.288L678.262 289.288L678.262 289.288L678.262 289.288L677.309 267.265C 677.309 264.366 676.358 261.963 674.455 260.0601L674.455 260.0601L674.455 260.0601C 672.551 258.157 669.921 256.7531 666.57 255.847L666.57 255.847L666.57 255.847C 670.828 253.943 673.843 251.088 675.61 247.282L675.61 247.282L675.61 247.282C 677.378 243.475 678.262 238.671 678.262 232.87L678.262 232.87L678.262 232.87C 677.806 224.806 675.27 219.005 670.648 215.47L670.648 215.47L670.648 215.47C 666.026 211.936 659.953 210.168 652.432 210.168L652.432 210.168L652.432 210.168z" /></clipPath><linearGradient transform="matrix(1 0 0 1 0 0)" id="26908" x1="649.5795" y1="1408.476" x2="649.57951408.476" y2="649.5795198.3546"><stop stop-color="#4C216D" offset="0%" /><stop stop-color="#B83F54" offset="100%" /></linearGradient><clipPath id="52"><path d="M713.471 210.168L713.471 228.114L713.471 228.114L730.464 228.114L730.464 228.114L730.464 300.708L730.464 300.708L752.623 300.708L752.623 300.708L752.623 228.114L752.623 228.114L768.665 228.114L768.665 228.114L768.665 210.168z" /></clipPath><linearGradient transform="matrix(1 0 0 1 0 0)" id="27490" x1="740.1655" y1="1409.542" x2="740.16551409.542" y2="740.1655198.3546"><stop stop-color="#4C216D" offset="0%" /><stop stop-color="#B83F54" offset="100%" /></linearGradient><clipPath id="53"><path d="M0 -0.3869629L1176.341 -0.3869629L1176.341 -0.3869629L1176.341 1552L1176.341 1552L0 1552z" /></clipPath><clipPath id="54"><path d="M393.926 316.02L610.052 316.02L610.052 316.02L610.052 671.189L610.052 671.189L393.926 671.189z" /></clipPath><clipPath id="55"><path d="M559.192 316.02L782.414 316.02L782.414 316.02L782.414 665.444L782.414 665.444L559.192 665.444z" /></clipPath><clipPath id="56"><path d="M403.676 325.77L600.302 325.77L600.302 325.77L600.302 661.439L600.302 661.439L403.676 661.439z" /></clipPath><clipPath id="57"><path d="M569.252 325.77L772.664 325.77L772.664 325.77L772.664 655.694L772.664 655.694L569.252 655.694z" /></clipPath><clipPath id="58"><path d="M413.426 335.52L590.552 335.52L590.552 335.52L590.552 651.689L590.552 651.689L413.426 651.689z" /></clipPath><clipPath id="59"><path d="M579.311 335.52L762.914 335.52L762.914 335.52L762.914 645.944L762.914 645.944L579.311 645.944z" /></clipPath><clipPath id="60"><path d="M2461.176 935.575L1403.377 935.575L1403.377 935.575L1403.377 835.827L1403.377 835.827L2461.176 835.827z" /></clipPath><clipPath id="61"><path d="M2461.176 1617.61L1403.377 1617.61L1403.377 1617.61L1403.377 227.729L1403.377 227.729L2461.176 227.729z" /></clipPath><clipPath id="62"><path d="M2729.956 768.933L2333.031 1913.932L2333.031 1913.932L1250.309 1596.273L1250.309 1596.273L924.891 516.524L924.891 516.524L2012.238 -355.4301L2012.238 -355.4301L2623.955 458.036z" /></clipPath><clipPath id="63"><path d="M920.145 512.87L2905.52 512.87L2905.52 512.87L2905.52 1667.761L2905.52 1667.761L920.145 1667.761z" /></clipPath><clipPath id="64"><path d="M1405.211 1667.761L2831.031 1664.708L2831.031 1664.708L2905.518 512.873L2905.518 512.873L920.145 517.142z" /></clipPath><linearGradient transform="matrix(1 0 0 1 0 0)" id="30511" x1="1203.717" y1="1276.703" x2="1203.7171276.703" y2="1203.7171486.015"><stop stop-color="#4C216D" offset="0%" /><stop stop-color="#B83F54" offset="100%" /></linearGradient><clipPath id="65"><path d="M1143.95 5.73999L2836.52 5.73999L2836.52 5.73999L2836.52 1211.146L2836.52 1211.146L1143.95 1211.146z" /></clipPath><clipPath id="66"><path d="M1910.373 1147.004L1909.633 1146.229L1909.633 1146.229L1175.109 409.623L1175.109 409.623L1176.619 408.093L1176.619 408.093L1910.403 1143.914L1910.403 1143.914L2804.494 232.2889L2804.494 232.2889L2805.974 233.849z" /></clipPath><linearGradient transform="matrix(1 0 0 1 0 0)" id="31410" x1="1466.356" y1="1652.267" x2="1466.3561652.267" y2="1466.356953.4873"><stop stop-color="#FFD800" offset="0%" /><stop stop-color="#FF387D" offset="100%" /></linearGradient><clipPath id="67"><path d="M1910.065 1179.079L1909.326 1178.304L1909.326 1178.304L1159.529 425.5179L1159.529 425.5179L1161.039 423.9871L1161.039 423.9871L1910.094 1175.989L1910.094 1175.989L2819.766 248.48L2819.766 248.48L2821.247 250.0389z" /></clipPath><linearGradient transform="matrix(1 0 0 1 0 0)" id="32052" x1="1474.579" y1="1643.725" x2="1474.5791643.725" y2="1474.579953.0705"><stop stop-color="#FFD800" offset="0%" /><stop stop-color="#FF387D" offset="100%" /></linearGradient><clipPath id="68"><path d="M1909.756 1211.147L1909.017 1210.363L1909.017 1210.363L1143.949 441.403L1143.949 441.403L1145.451 439.871L1145.451 439.871L1909.787 1208.056L1909.787 1208.056L2835.046 264.661L2835.046 264.661L2836.518 266.22z" /></clipPath><linearGradient transform="matrix(1 0 0 1 0 0)" id="32690" x1="1482.778" y1="1635.192" x2="1482.7781635.192" y2="1482.778952.674"><stop stop-color="#FFD800" offset="0%" /><stop stop-color="#FF387D" offset="100%" /></linearGradient></defs></svg>