<svg xmlns="http://www.w3.org/2000/svg" xmlns:xlink="http://www.w3.org/1999/xlink" id="body_7" preserveAspectRatio="xMinYMin meet" viewBox="0 0 1568 2069"><g transform="matrix(1.333333 0 0 1.333333 0 0)"><g><g clip-path="url(#1)"><g clip-path="url(#2)"><g><g clip-path="url(#3)"><g clip-path="url(#4)"><g><path transform="matrix(1 0 0 -1 0 1552)" d="M0 -1289L1176 84L1176 84L1176 3596L1176 3596L0 2223" stroke="none" fill="url(#834)" /><path transform="matrix(1 0 0 -1 0 1552)" d="M0 -1288.08L1176 85.06105L1176 85.06105L1176 0L1176 0L0 0" stroke="none" fill="#4C216D" fill-rule="evenodd" fill-opacity="0.8980392" /><path transform="matrix(1 0 0 -1 0 1552)" d="M0 2221.933L1176 3595.074L1176 3595.074L1176 1552L1176 1552L0 1552" stroke="none" fill="#B83F54" fill-rule="evenodd" fill-opacity="0.8980392" /></g></g></g></g><g><g clip-path="url(#5)"><g clip-path="url(#6)"><g><path transform="matrix(1 0 0 -1 0 1552)" d="M0 3424L1176 2225L1176 2225L1176 266L1176 266L0 1465" stroke="none" fill="url(#1657)" /><path transform="matrix(1 0 0 -1 0 1552)" d="M0 3423.149L1176 2224.342L1176 2224.342L1176 1552L1176 1552L0 1552" stroke="none" fill="#FFD800" fill-rule="evenodd" fill-opacity="0.1960784" /><path transform="matrix(1 0 0 -1 0 1552)" d="M0 1466.156L1176 267.3481L1176 267.3481L1176 0L1176 0L0 0" stroke="none" fill="#FF387D" fill-rule="evenodd" fill-opacity="0.1960784" /></g></g><g clip-path="url(#7)"><g><path transform="matrix(1 0 0 -1 0 1552)" d="M0 3424L1176 2225L1176 2225L1176 267L1176 267L0 1466" stroke="none" fill="url(#2261)" /><path transform="matrix(1 0 0 -1 0 1552)" d="M0 3422.565L1176 2223.758L1176 2223.758L1176 1552L1176 1552L0 1552" stroke="none" fill="#FFD800" fill-rule="evenodd" fill-opacity="0.1960784" /><path transform="matrix(1 0 0 -1 0 1552)" d="M0 1466.998L1176 268.1909L1176 268.1909L1176 0L1176 0L0 0" stroke="none" fill="#FF387D" fill-rule="evenodd" fill-opacity="0.1960784" /></g></g><g clip-path="url(#8)"><g><path transform="matrix(1 0 0 -1 0 1552)" d="M0 3423L1176 2224L1176 2224L1176 268L1176 268L0 1467" stroke="none" fill="url(#2866)" /><path transform="matrix(1 0 0 -1 0 1552)" d="M0 3421.981L1176 2223.174L1176 2223.174L1176 1552L1176 1552L0 1552" stroke="none" fill="#FFD800" fill-rule="evenodd" fill-opacity="0.1960784" /><path transform="matrix(1 0 0 -1 0 1552)" d="M0 1467.783L1176 268.9758L1176 268.9758L1176 0L1176 0L0 0" stroke="none" fill="#FF387D" fill-rule="evenodd" fill-opacity="0.1960784" /></g></g><g clip-path="url(#9)"><g><path transform="matrix(1 0 0 -1 0 1552)" d="M0 3422L1176 2224L1176 2224L1176 269L1176 269L0 1467" stroke="none" fill="url(#3461)" /><path transform="matrix(1 0 0 -1 0 1552)" d="M0 3421.395L1176 2222.587L1176 2222.587L1176 1552L1176 1552L0 1552" stroke="none" fill="#FFD800" fill-rule="evenodd" fill-opacity="0.1960784" /><path transform="matrix(1 0 0 -1 0 1552)" d="M0 1468.495L1176 269.6876L1176 269.6876L1176 0L1176 0L0 0" stroke="none" fill="#FF387D" fill-rule="evenodd" fill-opacity="0.1960784" /></g></g><g clip-path="url(#10)"><g><path transform="matrix(1 0 0 -1 0 1552)" d="M0 3422L1176 2223L1176 2223L1176 269L1176 269L0 1468" stroke="none" fill="url(#4055)" /><path transform="matrix(1 0 0 -1 0 1552)" d="M0 3420.806L1176 2221.999L1176 2221.999L1176 1552L1176 1552L0 1552" stroke="none" fill="#FFD800" fill-rule="evenodd" fill-opacity="0.1960784" /><path transform="matrix(1 0 0 -1 0 1552)" d="M0 1469.156L1176 270.3482L1176 270.3482L1176 0L1176 0L0 0" stroke="none" fill="#FF387D" fill-rule="evenodd" fill-opacity="0.1960784" /></g></g><g clip-path="url(#11)"><g><path transform="matrix(1 0 0 -1 0 1552)" d="M0 3421L1176 2222L1176 2222L1176 270L1176 270L0 1469" stroke="none" fill="url(#4657)" /><path transform="matrix(1 0 0 -1 0 1552)" d="M0 3420.221L1176 2221.414L1176 2221.414L1176 1552L1176 1552L0 1552" stroke="none" fill="#FFD800" fill-rule="evenodd" fill-opacity="0.1960784" /><path transform="matrix(1 0 0 -1 0 1552)" d="M0 1469.771L1176 270.9634L1176 270.9634L1176 0L1176 0L0 0" stroke="none" fill="#FF387D" fill-rule="evenodd" fill-opacity="0.1960784" /></g></g><g clip-path="url(#12)"><g><path transform="matrix(1 0 0 -1 0 1552)" d="M0 3421L1176 2222L1176 2222L1176 271L1176 271L0 1469" stroke="none" fill="url(#5259)" /><path transform="matrix(1 0 0 -1 0 1552)" d="M0 3419.631L1176 2220.824L1176 2220.824L1176 1552L1176 1552L0 1552" stroke="none" fill="#FFD800" fill-rule="evenodd" fill-opacity="0.1960784" /><path transform="matrix(1 0 0 -1 0 1552)" d="M0 1470.342L1176 271.5343L1176 271.5343L1176 0L1176 0L0 0" stroke="none" fill="#FF387D" fill-rule="evenodd" fill-opacity="0.1960784" /></g></g><g clip-path="url(#13)"><g><path transform="matrix(1 0 0 -1 0 1552)" d="M0 3420L1176 2221L1176 2221L1176 271L1176 271L0 1470" stroke="none" fill="url(#5858)" /><path transform="matrix(1 0 0 -1 0 1552)" d="M0 3419.033L1176 2220.226L1176 2220.226L1176 1552L1176 1552L0 1552" stroke="none" fill="#FFD800" fill-rule="evenodd" fill-opacity="0.1960784" /><path transform="matrix(1 0 0 -1 0 1552)" d="M0 1470.866L1176 272.0583L1176 272.0583L1176 0L1176 0L0 0" stroke="none" fill="#FF387D" fill-rule="evenodd" fill-opacity="0.1960784" /></g></g><g clip-path="url(#14)"><g><path transform="matrix(1 0 0 -1 0 1552)" d="M0 3419L1176 2221L1176 2221L1176 272L1176 272L0 1470" stroke="none" fill="url(#6453)" /><path transform="matrix(1 0 0 -1 0 1552)" d="M0 3418.449L1176 2219.641L1176 2219.641L1176 1552L1176 1552L0 1552" stroke="none" fill="#FFD800" fill-rule="evenodd" fill-opacity="0.1960784" /><path transform="matrix(1 0 0 -1 0 1552)" d="M0 1471.348L1176 272.5404L1176 272.5404L1176 0L1176 0L0 0" stroke="none" fill="#FF387D" fill-rule="evenodd" fill-opacity="0.1960784" /></g></g><g clip-path="url(#15)"><g><path transform="matrix(1 0 0 -1 0 1552)" d="M0 3419L1176 2220L1176 2220L1176 272L1176 272L0 1471" stroke="none" fill="url(#7055)" /><path transform="matrix(1 0 0 -1 0 1552)" d="M0 3417.848L1176 2219.041L1176 2219.041L1176 1552L1176 1552L0 1552" stroke="none" fill="#FFD800" fill-rule="evenodd" fill-opacity="0.1960784" /><path transform="matrix(1 0 0 -1 0 1552)" d="M0 1471.778L1176 272.9702L1176 272.9702L1176 0L1176 0L0 0" stroke="none" fill="#FF387D" fill-rule="evenodd" fill-opacity="0.1960784" /></g></g><g clip-path="url(#16)"><g><path transform="matrix(1 0 0 -1 0 1552)" d="M0 3418L1176 2219L1176 2219L1176 272L1176 272L0 1471" stroke="none" fill="url(#7654)" /><path transform="matrix(1 0 0 -1 0 1552)" d="M0 3417.263L1176 2218.456L1176 2218.456L1176 1552L1176 1552L0 1552" stroke="none" fill="#FFD800" fill-rule="evenodd" fill-opacity="0.1960784" /><path transform="matrix(1 0 0 -1 0 1552)" d="M0 1472.175L1176 273.3674L1176 273.3674L1176 0L1176 0L0 0" stroke="none" fill="#FF387D" fill-rule="evenodd" fill-opacity="0.1960784" /></g></g><g clip-path="url(#17)"><g><path transform="matrix(1 0 0 -1 0 1552)" d="M0 3418L1176 2219L1176 2219L1176 273L1176 273L0 1472" stroke="none" fill="url(#8253)" /><path transform="matrix(1 0 0 -1 0 1552)" d="M0 3416.665L1176 2217.858L1176 2217.858L1176 1552L1176 1552L0 1552" stroke="none" fill="#FFD800" fill-rule="evenodd" fill-opacity="0.1960784" /><path transform="matrix(1 0 0 -1 0 1552)" d="M0 1472.547L1176 273.7391L1176 273.7391L1176 0L1176 0L0 0" stroke="none" fill="#FF387D" fill-rule="evenodd" fill-opacity="0.1960784" /></g></g><g clip-path="url(#18)"><g><path transform="matrix(1 0 0 -1 0 1552)" d="M0 3417L1176 2218L1176 2218L1176 273L1176 273L0 1472" stroke="none" fill="url(#8856)" /><path transform="matrix(1 0 0 -1 0 1552)" d="M0 3416.071L1176 2217.263L1176 2217.263L1176 1552L1176 1552L0 1552" stroke="none" fill="#FFD800" fill-rule="evenodd" fill-opacity="0.1960784" /><path transform="matrix(1 0 0 -1 0 1552)" d="M0 1472.873L1176 274.0659L1176 274.0659L1176 0L1176 0L0 0" stroke="none" fill="#FF387D" fill-rule="evenodd" fill-opacity="0.1960784" /></g></g><g clip-path="url(#19)"><g><path transform="matrix(1 0 0 -1 0 1552)" d="M0 3416L1176 2218L1176 2218L1176 273L1176 273L0 1472" stroke="none" fill="url(#9457)" /><path transform="matrix(1 0 0 -1 0 1552)" d="M0 3415.476L1176 2216.668L1176 2216.668L1176 1552L1176 1552L0 1552" stroke="none" fill="#FFD800" fill-rule="evenodd" fill-opacity="0.1960784" /><path transform="matrix(1 0 0 -1 0 1552)" d="M0 1473.158L1176 274.351L1176 274.351L1176 0L1176 0L0 0" stroke="none" fill="#FF387D" fill-rule="evenodd" fill-opacity="0.1960784" /></g></g><g clip-path="url(#20)"><g><path transform="matrix(1 0 0 -1 0 1552)" d="M0 3416L1176 2217L1176 2217L1176 274L1176 274L0 1472" stroke="none" fill="url(#10051)" /><path transform="matrix(1 0 0 -1 0 1552)" d="M0 3414.883L1176 2216.076L1176 2216.076L1176 1552L1176 1552L0 1552" stroke="none" fill="#FFD800" fill-rule="evenodd" fill-opacity="0.1960784" /><path transform="matrix(1 0 0 -1 0 1552)" d="M0 1473.416L1176 274.6084L1176 274.6084L1176 0L1176 0L0 0" stroke="none" fill="#FF387D" fill-rule="evenodd" fill-opacity="0.1960784" /></g></g><g clip-path="url(#21)"><g><path transform="matrix(1 0 0 -1 0 1552)" d="M0 3415L1176 2216L1176 2216L1176 274L1176 274L0 1473" stroke="none" fill="url(#10647)" /><path transform="matrix(1 0 0 -1 0 1552)" d="M0 3414.296L1176 2215.488L1176 2215.488L1176 1552L1176 1552L0 1552" stroke="none" fill="#FFD800" fill-rule="evenodd" fill-opacity="0.1960784" /><path transform="matrix(1 0 0 -1 0 1552)" d="M0 1473.637L1176 274.8293L1176 274.8293L1176 0L1176 0L0 0" stroke="none" fill="#FF387D" fill-rule="evenodd" fill-opacity="0.1960784" /></g></g></g></g></g><g clip-path="url(#22)"><g clip-path="url(#23)"><g clip-path="url(#24)"><g clip-path="url(#25)"><g><g clip-path="url(#26)"><g clip-path="url(#27)"><g><path transform="matrix(1 0 0 -1 0 1552)" d="M0 -3935L1176 -2562L1176 -2562L1176 950L1176 950L0 -423" stroke="none" fill="url(#12347)" /><path transform="matrix(1 0 0 -1 0 1552)" d="M0 -3933.947L1176 -2560.805L1176 -2560.805L1176 0L1176 0L0 0" stroke="none" fill="#4C216D" fill-rule="evenodd" fill-opacity="0.8980392" /><path transform="matrix(1 0 0 -1 0 1552)" d="M0 -423.9336L1176 949.2078L1176 949.2078L1176 1552L1176 1552L0 1552" stroke="none" fill="#B83F54" fill-rule="evenodd" fill-opacity="0.8980392" /></g></g></g></g><g><g clip-path="url(#28)"><g clip-path="url(#29)"><g><path transform="matrix(1 0 0 -1 0 1552)" d="M0 3896L1176 2698L1176 2698L1176 755L1176 755L0 1954" stroke="none" fill="url(#13234)" /><path transform="matrix(1 0 0 -1 0 1552)" d="M0 3895.431L1176 2696.624L1176 2696.624L1176 1552L1176 1552L0 1552" stroke="none" fill="#FFD800" fill-rule="evenodd" fill-opacity="0.1960784" /><path transform="matrix(1 0 0 -1 0 1552)" d="M0 1954.772L1176 755.9645L1176 755.9645L1176 0L1176 0L0 0" stroke="none" fill="#FF387D" fill-rule="evenodd" fill-opacity="0.1960784" /></g></g></g></g></g></g></g><path transform="matrix(1 0 0 -1 0 1552)" d="M1175.024 0L-1.316895 0L-1.316895 0L-1.316895 1552.387L-1.316895 1552.387L1175.024 1552.387z" stroke="#E6E7E8" stroke-width="1" fill="none" /><g><g clip-path="url(#30)"><g clip-path="url(#31)"><g><path transform="matrix(1 0 0 -1 0 1552)" d="M1017.834 0L1017.834 1552L1017.834 1552L1175.024 1552L1175.024 1552L1175.024 0" stroke="none" fill="url(#13960)" /><path transform="matrix(1 0 0 -1 0 1552)" d="M1017.834 0L1017.834 1552L1017.834 1552L0 1552L0 1552L0 0" stroke="none" fill="#4C216D" fill-rule="evenodd" fill-opacity="0.4980392" /><path transform="matrix(1 0 0 -1 0 1552)" d="M1175.024 0L1175.024 1552L1175.024 1552L1176 1552L1176 1552L1176 0" stroke="none" fill="#B83F54" fill-rule="evenodd" fill-opacity="0.4980392" /></g></g></g></g><g><g clip-path="url(#32)"></g></g></g><g clip-path="url(#33)"><g transform="matrix(0.2398164 0 0 0.2382367 751.1846 1467.024)"><g transform="matrix(1 0 0 1 0 0)"><image x="0" y="0" xlink:href="img_07.png" width="207" height="125" /></g></g></g><path transform="matrix(1 0 0 -1 0 1552)" d="M812.6162 79.7246L812.6162 63.6426" stroke="#797A7C" stroke-width="1" fill="none" /><path transform="matrix(1 0 0 -1 0 1552)" d="M211.053 1163.433L150.082 1163.433L150.082 1163.433L150.082 1250.756L150.082 1250.756L211.053 1250.756z" stroke="none" fill="#E2D7E2" fill-rule="winding" /><path transform="matrix(1 0 0 -1 0 1552)" d="M211.053 1066.92L150.082 1066.92L150.082 1066.92L150.082 1160.873L150.082 1160.873L211.053 1160.873z" stroke="none" fill="#F2F2F2" fill-rule="winding" /><path transform="matrix(1 0 0 -1 0 1552)" d="M436.427 1163.433L214.052 1163.433L214.052 1163.433L214.052 1250.756L214.052 1250.756L436.427 1250.756z" stroke="none" fill="#E2D7E2" fill-rule="winding" /><path transform="matrix(1 0 0 -1 0 1552)" d="M436.427 1066.92L214.052 1066.92L214.052 1066.92L214.052 1160.873L214.052 1160.873L436.427 1160.873z" stroke="none" fill="#E8E8E8" fill-rule="winding" /><path transform="matrix(1 0 0 -1 0 1552)" d="M565.303 1163.433L439.489 1163.433L439.489 1163.433L439.489 1250.756L439.489 1250.756L565.303 1250.756z" stroke="none" fill="#E2D7E2" fill-rule="winding" /><path transform="matrix(1 0 0 -1 0 1552)" d="M565.303 1066.92L439.489 1066.92L439.489 1066.92L439.489 1160.873L439.489 1160.873L565.303 1160.873z" stroke="none" fill="#F2F2F2" fill-rule="winding" /><path transform="matrix(1 0 0 -1 0 1552)" d="M667.782 1163.433L568.196 1163.433L568.196 1163.433L568.196 1250.756L568.196 1250.756L667.782 1250.756z" stroke="none" fill="#E2D7E2" fill-rule="winding" /><path transform="matrix(1 0 0 -1 0 1552)" d="M667.782 1066.92L568.196 1066.92L568.196 1066.92L568.196 1160.873L568.196 1160.873L667.782 1160.873z" stroke="none" fill="#E8E8E8" fill-rule="winding" /><path transform="matrix(1 0 0 -1 0 1552)" d="M791.056 1163.433L670.945 1163.433L670.945 1163.433L670.945 1250.756L670.945 1250.756L791.056 1250.756z" stroke="none" fill="#E2D7E2" fill-rule="winding" /><path transform="matrix(1 0 0 -1 0 1552)" d="M791.056 1066.92L670.945 1066.92L670.945 1066.92L670.945 1160.873L670.945 1160.873L791.056 1160.873z" stroke="none" fill="#F2F2F2" fill-rule="winding" /><path transform="matrix(1 0 0 -1 0 1552)" d="M914.231 1163.433L794.119 1163.433L794.119 1163.433L794.119 1250.756L794.119 1250.756L914.231 1250.756z" stroke="none" fill="#E2D7E2" fill-rule="winding" /><path transform="matrix(1 0 0 -1 0 1552)" d="M914.231 1066.92L794.119 1066.92L794.119 1066.92L794.119 1160.873L794.119 1160.873L914.231 1160.873z" stroke="none" fill="#E8E8E8" fill-rule="winding" /><path transform="matrix(1 0 0 -1 0 1552)" d="M1055.405 1163.433L916.8151 1163.433L916.8151 1163.433L916.8151 1250.756L916.8151 1250.756L1055.405 1250.756z" stroke="none" fill="#E2D7E2" fill-rule="winding" /><path transform="matrix(1 0 0 -1 0 1552)" d="M1055.405 1066.92L916.8151 1066.92L916.8151 1066.92L916.8151 1160.873L916.8151 1160.873L1055.405 1160.873z" stroke="none" fill="#F2F2F2" fill-rule="winding" /><path transform="matrix(1 0 0 -1 0 1552)" d="M232.2344 1118.361L232.2344 1118.361L232.2344 1118.361L396.7904 1118.361z" stroke="#5BA5EF" stroke-width="1.1" fill="none" /><path transform="matrix(1 0 0 -1 0 1552)" d="M211.053 970.407L150.082 970.407L150.082 970.407L150.082 1064.36L150.082 1064.36L211.053 1064.36z" stroke="none" fill="#F2F2F2" fill-rule="winding" /><path transform="matrix(1 0 0 -1 0 1552)" d="M436.427 970.407L214.052 970.407L214.052 970.407L214.052 1064.36L214.052 1064.36L436.427 1064.36z" stroke="none" fill="#E8E8E8" fill-rule="winding" /><path transform="matrix(1 0 0 -1 0 1552)" d="M565.303 970.407L439.489 970.407L439.489 970.407L439.489 1064.36L439.489 1064.36L565.303 1064.36z" stroke="none" fill="#F2F2F2" fill-rule="winding" /><path transform="matrix(1 0 0 -1 0 1552)" d="M667.782 970.407L568.196 970.407L568.196 970.407L568.196 1064.36L568.196 1064.36L667.782 1064.36z" stroke="none" fill="#E8E8E8" fill-rule="winding" /><path transform="matrix(1 0 0 -1 0 1552)" d="M791.056 970.407L670.945 970.407L670.945 970.407L670.945 1064.36L670.945 1064.36L791.056 1064.36z" stroke="none" fill="#F2F2F2" fill-rule="winding" /><path transform="matrix(1 0 0 -1 0 1552)" d="M914.231 970.407L794.119 970.407L794.119 970.407L794.119 1064.36L794.119 1064.36L914.231 1064.36z" stroke="none" fill="#E8E8E8" fill-rule="winding" /><path transform="matrix(1 0 0 -1 0 1552)" d="M1055.405 970.407L916.8151 970.407L916.8151 970.407L916.8151 1064.36L916.8151 1064.36L1055.405 1064.36z" stroke="none" fill="#F2F2F2" fill-rule="winding" /><path transform="matrix(1 0 0 -1 0 1552)" d="M232.2344 1021.849L232.2344 1021.849L232.2344 1021.849L393.3804 1021.849z" stroke="#5BA5EF" stroke-width="1.1" fill="none" /><path transform="matrix(1 0 0 -1 0 1552)" d="M211.053 844.152L150.082 844.152L150.082 844.152L150.082 967.361L150.082 967.361L211.053 967.361z" stroke="none" fill="#F2F2F2" fill-rule="winding" /><path transform="matrix(1 0 0 -1 0 1552)" d="M436.427 844.152L214.052 844.152L214.052 844.152L214.052 967.361L214.052 967.361L436.427 967.361z" stroke="none" fill="#E8E8E8" fill-rule="winding" /><path transform="matrix(1 0 0 -1 0 1552)" d="M565.303 844.152L439.489 844.152L439.489 844.152L439.489 967.361L439.489 967.361L565.303 967.361z" stroke="none" fill="#F2F2F2" fill-rule="winding" /><path transform="matrix(1 0 0 -1 0 1552)" d="M667.782 844.152L568.196 844.152L568.196 844.152L568.196 967.361L568.196 967.361L667.782 967.361z" stroke="none" fill="#E8E8E8" fill-rule="winding" /><path transform="matrix(1 0 0 -1 0 1552)" d="M791.056 844.152L670.945 844.152L670.945 844.152L670.945 967.361L670.945 967.361L791.056 967.361z" stroke="none" fill="#F2F2F2" fill-rule="winding" /><path transform="matrix(1 0 0 -1 0 1552)" d="M914.231 844.152L794.119 844.152L794.119 844.152L794.119 967.361L794.119 967.361L914.231 967.361z" stroke="none" fill="#E8E8E8" fill-rule="winding" /><path transform="matrix(1 0 0 -1 0 1552)" d="M1055.405 844.152L916.8151 844.152L916.8151 844.152L916.8151 967.361L916.8151 967.361L1055.405 967.361z" stroke="none" fill="#F2F2F2" fill-rule="winding" /><path transform="matrix(1 0 0 -1 0 1552)" d="M232.2344 924.8486L232.2344 924.8486L232.2344 924.8486L429.2174 924.8486z" stroke="#5BA5EF" stroke-width="1.1" fill="none" /><path transform="matrix(1 0 0 -1 0 1552)" d="M211.053 747.407L150.082 747.407L150.082 747.407L150.082 841.36L150.082 841.36L211.053 841.36z" stroke="none" fill="#F2F2F2" fill-rule="winding" /><path transform="matrix(1 0 0 -1 0 1552)" d="M436.427 747.407L214.052 747.407L214.052 747.407L214.052 841.36L214.052 841.36L436.427 841.36z" stroke="none" fill="#E8E8E8" fill-rule="winding" /><path transform="matrix(1 0 0 -1 0 1552)" d="M565.303 747.407L439.489 747.407L439.489 747.407L439.489 841.36L439.489 841.36L565.303 841.36z" stroke="none" fill="#F2F2F2" fill-rule="winding" /><path transform="matrix(1 0 0 -1 0 1552)" d="M667.782 747.407L568.196 747.407L568.196 747.407L568.196 841.36L568.196 841.36L667.782 841.36z" stroke="none" fill="#E8E8E8" fill-rule="winding" /><path transform="matrix(1 0 0 -1 0 1552)" d="M791.056 747.407L670.945 747.407L670.945 747.407L670.945 841.36L670.945 841.36L791.056 841.36z" stroke="none" fill="#F2F2F2" fill-rule="winding" /><path transform="matrix(1 0 0 -1 0 1552)" d="M914.231 747.407L794.119 747.407L794.119 747.407L794.119 841.36L794.119 841.36L914.231 841.36z" stroke="none" fill="#E8E8E8" fill-rule="winding" /><path transform="matrix(1 0 0 -1 0 1552)" d="M1055.405 747.407L916.8151 747.407L916.8151 747.407L916.8151 841.36L916.8151 841.36L1055.405 841.36z" stroke="none" fill="#F2F2F2" fill-rule="winding" /><path transform="matrix(1 0 0 -1 0 1552)" d="M232.2344 798.8486L232.2344 798.8486L232.2344 798.8486L346.9614 798.8486z" stroke="#5BA5EF" stroke-width="1.1" fill="none" /><path transform="matrix(1 0 0 -1 0 1552)" d="M211.053 650.407L150.082 650.407L150.082 650.407L150.082 744.36L150.082 744.36L211.053 744.36z" stroke="none" fill="#F2F2F2" fill-rule="winding" /><path transform="matrix(1 0 0 -1 0 1552)" d="M436.427 650.407L214.052 650.407L214.052 650.407L214.052 744.36L214.052 744.36L436.427 744.36z" stroke="none" fill="#E8E8E8" fill-rule="winding" /><path transform="matrix(1 0 0 -1 0 1552)" d="M565.303 650.407L439.489 650.407L439.489 650.407L439.489 744.36L439.489 744.36L565.303 744.36z" stroke="none" fill="#F2F2F2" fill-rule="winding" /><path transform="matrix(1 0 0 -1 0 1552)" d="M667.782 650.407L568.196 650.407L568.196 650.407L568.196 744.36L568.196 744.36L667.782 744.36z" stroke="none" fill="#E8E8E8" fill-rule="winding" /><path transform="matrix(1 0 0 -1 0 1552)" d="M791.056 650.407L670.945 650.407L670.945 650.407L670.945 744.36L670.945 744.36L791.056 744.36z" stroke="none" fill="#F2F2F2" fill-rule="winding" /><path transform="matrix(1 0 0 -1 0 1552)" d="M914.231 650.407L794.119 650.407L794.119 650.407L794.119 744.36L794.119 744.36L914.231 744.36z" stroke="none" fill="#E8E8E8" fill-rule="winding" /><path transform="matrix(1 0 0 -1 0 1552)" d="M1055.405 650.407L916.8151 650.407L916.8151 650.407L916.8151 744.36L916.8151 744.36L1055.405 744.36z" stroke="none" fill="#F2F2F2" fill-rule="winding" /><path transform="matrix(1 0 0 -1 0 1552)" d="M232.2344 701.8486L232.2344 701.8486L232.2344 701.8486L376.0014 701.8486z" stroke="#5BA5EF" stroke-width="1.1" fill="none" /><path transform="matrix(1 0 0 -1 0 1552)" d="M211.053 553.407L150.082 553.407L150.082 553.407L150.082 647.36L150.082 647.36L211.053 647.36z" stroke="none" fill="#F2F2F2" fill-rule="winding" /><path transform="matrix(1 0 0 -1 0 1552)" d="M436.427 553.407L214.052 553.407L214.052 553.407L214.052 647.36L214.052 647.36L436.427 647.36z" stroke="none" fill="#E8E8E8" fill-rule="winding" /><path transform="matrix(1 0 0 -1 0 1552)" d="M565.303 553.407L439.489 553.407L439.489 553.407L439.489 647.36L439.489 647.36L565.303 647.36z" stroke="none" fill="#F2F2F2" fill-rule="winding" /><path transform="matrix(1 0 0 -1 0 1552)" d="M667.782 553.407L568.196 553.407L568.196 553.407L568.196 647.36L568.196 647.36L667.782 647.36z" stroke="none" fill="#E8E8E8" fill-rule="winding" /><path transform="matrix(1 0 0 -1 0 1552)" d="M791.056 553.407L670.945 553.407L670.945 553.407L670.945 647.36L670.945 647.36L791.056 647.36z" stroke="none" fill="#F2F2F2" fill-rule="winding" /><path transform="matrix(1 0 0 -1 0 1552)" d="M914.231 553.407L794.119 553.407L794.119 553.407L794.119 647.36L794.119 647.36L914.231 647.36z" stroke="none" fill="#E8E8E8" fill-rule="winding" /><path transform="matrix(1 0 0 -1 0 1552)" d="M1055.405 553.407L916.8151 553.407L916.8151 553.407L916.8151 647.36L916.8151 647.36L1055.405 647.36z" stroke="none" fill="#F2F2F2" fill-rule="winding" /><path transform="matrix(1 0 0 -1 0 1552)" d="M232.2344 604.8486L232.2344 604.8486L232.2344 604.8486L421.4084 604.8486z" stroke="#5BA5EF" stroke-width="1.1" fill="none" /><path transform="matrix(1 0 0 -1 0 1552)" d="M232.2344 578.8486L232.2344 578.8486L232.2344 578.8486L283.8674 578.8486z" stroke="#5BA5EF" stroke-width="1.1" fill="none" /><path transform="matrix(1 0 0 -1 0 1552)" d="M211.053 456.407L150.082 456.407L150.082 456.407L150.082 550.36L150.082 550.36L211.053 550.36z" stroke="none" fill="#F2F2F2" fill-rule="winding" /><path transform="matrix(1 0 0 -1 0 1552)" d="M436.427 456.407L214.052 456.407L214.052 456.407L214.052 550.36L214.052 550.36L436.427 550.36z" stroke="none" fill="#E8E8E8" fill-rule="winding" /><path transform="matrix(1 0 0 -1 0 1552)" d="M565.303 456.407L439.489 456.407L439.489 456.407L439.489 550.36L439.489 550.36L565.303 550.36z" stroke="none" fill="#F2F2F2" fill-rule="winding" /><path transform="matrix(1 0 0 -1 0 1552)" d="M667.782 456.407L568.196 456.407L568.196 456.407L568.196 550.36L568.196 550.36L667.782 550.36z" stroke="none" fill="#E8E8E8" fill-rule="winding" /><path transform="matrix(1 0 0 -1 0 1552)" d="M791.056 456.407L670.945 456.407L670.945 456.407L670.945 550.36L670.945 550.36L791.056 550.36z" stroke="none" fill="#F2F2F2" fill-rule="winding" /><path transform="matrix(1 0 0 -1 0 1552)" d="M914.231 456.407L794.119 456.407L794.119 456.407L794.119 550.36L794.119 550.36L914.231 550.36z" stroke="none" fill="#E8E8E8" fill-rule="winding" /><path transform="matrix(1 0 0 -1 0 1552)" d="M1055.405 456.407L916.8151 456.407L916.8151 456.407L916.8151 550.36L916.8151 550.36L1055.405 550.36z" stroke="none" fill="#F2F2F2" fill-rule="winding" /><path transform="matrix(1 0 0 -1 0 1552)" d="M232.2344 507.8486L232.2344 507.8486L232.2344 507.8486L399.1224 507.8486z" stroke="#5BA5EF" stroke-width="1.1" fill="none" /><path transform="matrix(1 0 0 -1 0 1552)" d="M211.053 359.407L150.082 359.407L150.082 359.407L150.082 453.36L150.082 453.36L211.053 453.36z" stroke="none" fill="#F2F2F2" fill-rule="winding" /><path transform="matrix(1 0 0 -1 0 1552)" d="M436.427 359.407L214.052 359.407L214.052 359.407L214.052 453.36L214.052 453.36L436.427 453.36z" stroke="none" fill="#E8E8E8" fill-rule="winding" /><path transform="matrix(1 0 0 -1 0 1552)" d="M565.303 359.407L439.489 359.407L439.489 359.407L439.489 453.36L439.489 453.36L565.303 453.36z" stroke="none" fill="#F2F2F2" fill-rule="winding" /><path transform="matrix(1 0 0 -1 0 1552)" d="M667.782 359.407L568.196 359.407L568.196 359.407L568.196 453.36L568.196 453.36L667.782 453.36z" stroke="none" fill="#E8E8E8" fill-rule="winding" /><path transform="matrix(1 0 0 -1 0 1552)" d="M791.056 359.407L670.945 359.407L670.945 359.407L670.945 453.36L670.945 453.36L791.056 453.36z" stroke="none" fill="#F2F2F2" fill-rule="winding" /><path transform="matrix(1 0 0 -1 0 1552)" d="M914.231 359.407L794.119 359.407L794.119 359.407L794.119 453.36L794.119 453.36L914.231 453.36z" stroke="none" fill="#E8E8E8" fill-rule="winding" /><path transform="matrix(1 0 0 -1 0 1552)" d="M1055.405 359.407L916.8151 359.407L916.8151 359.407L916.8151 453.36L916.8151 453.36L1055.405 453.36z" stroke="none" fill="#F2F2F2" fill-rule="winding" /><path transform="matrix(1 0 0 -1 0 1552)" d="M232.2344 410.8486L232.2344 410.8486L232.2344 410.8486L372.3264 410.8486z" stroke="#5BA5EF" stroke-width="1.1" fill="none" /><path transform="matrix(1 0 0 -1 0 1552)" d="M211.053 262.407L150.082 262.407L150.082 262.407L150.082 356.36L150.082 356.36L211.053 356.36z" stroke="none" fill="#F2F2F2" fill-rule="winding" /><path transform="matrix(1 0 0 -1 0 1552)" d="M436.427 262.407L214.052 262.407L214.052 262.407L214.052 356.36L214.052 356.36L436.427 356.36z" stroke="none" fill="#E8E8E8" fill-rule="winding" /><path transform="matrix(1 0 0 -1 0 1552)" d="M565.303 262.407L439.489 262.407L439.489 262.407L439.489 356.36L439.489 356.36L565.303 356.36z" stroke="none" fill="#F2F2F2" fill-rule="winding" /><path transform="matrix(1 0 0 -1 0 1552)" d="M667.782 262.407L568.196 262.407L568.196 262.407L568.196 356.36L568.196 356.36L667.782 356.36z" stroke="none" fill="#E8E8E8" fill-rule="winding" /><path transform="matrix(1 0 0 -1 0 1552)" d="M791.056 262.407L670.945 262.407L670.945 262.407L670.945 356.36L670.945 356.36L791.056 356.36z" stroke="none" fill="#F2F2F2" fill-rule="winding" /><path transform="matrix(1 0 0 -1 0 1552)" d="M914.231 262.407L794.119 262.407L794.119 262.407L794.119 356.36L794.119 356.36L914.231 356.36z" stroke="none" fill="#E8E8E8" fill-rule="winding" /><path transform="matrix(1 0 0 -1 0 1552)" d="M1055.405 262.407L916.8151 262.407L916.8151 262.407L916.8151 356.36L916.8151 356.36L1055.405 356.36z" stroke="none" fill="#F2F2F2" fill-rule="winding" /><path transform="matrix(1 0 0 -1 0 1552)" d="M232.2344 313.8486L232.2344 313.8486L232.2344 313.8486L418.7684 313.8486z" stroke="#5BA5EF" stroke-width="1.1" fill="none" /><path transform="matrix(1 0 0 -1 0 1552)" d="M211.053 165.407L150.082 165.407L150.082 165.407L150.082 259.36L150.082 259.36L211.053 259.36z" stroke="none" fill="#F2F2F2" fill-rule="winding" /><path transform="matrix(1 0 0 -1 0 1552)" d="M436.427 165.407L214.052 165.407L214.052 165.407L214.052 259.36L214.052 259.36L436.427 259.36z" stroke="none" fill="#E8E8E8" fill-rule="winding" /><path transform="matrix(1 0 0 -1 0 1552)" d="M565.303 165.407L439.489 165.407L439.489 165.407L439.489 259.36L439.489 259.36L565.303 259.36z" stroke="none" fill="#F2F2F2" fill-rule="winding" /><path transform="matrix(1 0 0 -1 0 1552)" d="M667.782 165.407L568.196 165.407L568.196 165.407L568.196 259.36L568.196 259.36L667.782 259.36z" stroke="none" fill="#E8E8E8" fill-rule="winding" /><path transform="matrix(1 0 0 -1 0 1552)" d="M791.056 165.407L670.945 165.407L670.945 165.407L670.945 259.36L670.945 259.36L791.056 259.36z" stroke="none" fill="#F2F2F2" fill-rule="winding" /><path transform="matrix(1 0 0 -1 0 1552)" d="M914.231 165.407L794.119 165.407L794.119 165.407L794.119 259.36L794.119 259.36L914.231 259.36z" stroke="none" fill="#E8E8E8" fill-rule="winding" /><path transform="matrix(1 0 0 -1 0 1552)" d="M1055.405 165.407L916.8151 165.407L916.8151 165.407L916.8151 259.36L916.8151 259.36L1055.405 259.36z" stroke="none" fill="#F2F2F2" fill-rule="winding" /><path transform="matrix(1 0 0 -1 0 1552)" d="M232.2344 216.8486L232.2344 216.8486L232.2344 216.8486L412.2564 216.8486z" stroke="#5BA5EF" stroke-width="1.1" fill="none" /></g></g></g><defs><clipPath id="1"><path d="M0 1552L0 -0.3900146L0 -0.3900146L1176.34 -0.3900146L1176.34 -0.3900146L1176.34 1552L1176.34 1552L0 1552z" /></clipPath><clipPath id="2"><path d="M0 192.713L1056.007 192.713L1056.007 192.713L1056.007 118.036L1056.007 118.036L0 118.036z" /></clipPath><clipPath id="3"><path d="M-485.025 -198.13L1500.35 -198.13L1500.35 -198.13L1500.35 956.755L1500.35 956.755L-485.025 956.755z" /></clipPath><clipPath id="4"><path d="M0.04 956.755L1425.861 953.702L1425.861 953.702L1500.348 -198.1331L1500.348 -198.1331L-485.025 -193.864z" /></clipPath><linearGradient transform="matrix(1 0 0 1 0 0)" id="834" x1="-201.4529" y1="1987.709" x2="-201.45291987.709" y2="-201.45291486.015"><stop stop-color="#4C216D" offset="0%" /><stop stop-color="#B83F54" offset="100%" /></linearGradient><clipPath id="5"><path d="M-261.221 -705.27L1431.35 -705.27L1431.35 -705.27L1431.35 500.14L1431.35 500.14L-261.221 500.14z" /></clipPath><clipPath id="6"><path d="M509.206 19.10498L508.467 18.32996L508.467 18.32996L-27.508 -507.8999L-27.508 -507.8999L-25.999 -509.4299L-25.999 -509.4299L509.237 16.01404L509.237 16.01404L1200.776 -689.085L1200.776 -689.085L1202.255 -687.5259z" /></clipPath><linearGradient transform="matrix(1 0 0 1 0 0)" id="1657" x1="-47.49066" y1="2474.252" x2="-47.490662474.252" y2="-47.49066960.6844"><stop stop-color="#FFD800" offset="0%" /><stop stop-color="#FF387D" offset="100%" /></linearGradient><clipPath id="7"><path d="M508.899 51.18103L508.16 50.40405L508.16 50.40405L-43.088 -492.014L-43.088 -492.014L-41.578 -493.5439L-41.578 -493.5439L508.928 48.08997L508.928 48.08997L1216.047 -672.9041L1216.047 -672.9041L1217.527 -671.344z" /></clipPath><linearGradient transform="matrix(1 0 0 1 0 0)" id="2261" x1="-38.97723" y1="2465.717" x2="-38.977232465.717" y2="-38.97723959.9851"><stop stop-color="#FFD800" offset="0%" /><stop stop-color="#FF387D" offset="100%" /></linearGradient><clipPath id="8"><path d="M508.591 83.24695L507.851 82.47205L507.851 82.47205L-58.668 -476.129L-58.668 -476.129L-57.158 -477.6591L-57.158 -477.6591L508.621 80.15698L508.621 80.15698L1231.32 -656.7229L1231.32 -656.7229L1232.799 -655.1621z" /></clipPath><linearGradient transform="matrix(1 0 0 1 0 0)" id="2866" x1="-30.49451" y1="2457.183" x2="-30.494512457.183" y2="-30.49451959.3137"><stop stop-color="#FFD800" offset="0%" /><stop stop-color="#FF387D" offset="100%" /></linearGradient><clipPath id="9"><path d="M508.283 115.313L507.543 114.53L507.543 114.53L-74.248 -460.243L-74.248 -460.243L-72.738 -461.775L-72.738 -461.775L508.313 112.223L508.313 112.223L1246.591 -640.541L1246.591 -640.541L1248.071 -638.981z" /></clipPath><linearGradient transform="matrix(1 0 0 1 0 0)" id="3461" x1="-22.04895" y1="2448.648" x2="-22.048952448.648" y2="-22.04895958.6768"><stop stop-color="#FFD800" offset="0%" /><stop stop-color="#FF387D" offset="100%" /></linearGradient><clipPath id="10"><path d="M507.975 147.39L507.236 146.604L507.236 146.604L-89.836 -444.349L-89.836 -444.349L-88.325 -445.88L-88.325 -445.88L508.004 144.299L508.004 144.299L1261.87 -624.3511L1261.87 -624.3511L1263.35 -622.791z" /></clipPath><linearGradient transform="matrix(1 0 0 1 0 0)" id="4055" x1="-13.62598" y1="2440.11" x2="-13.625982440.11" y2="-13.62598958.0642"><stop stop-color="#FFD800" offset="0%" /><stop stop-color="#FF387D" offset="100%" /></linearGradient><clipPath id="11"><path d="M507.667 179.4561L506.927 178.672L506.927 178.672L-105.416 -428.473L-105.416 -428.473L-103.905 -430.004L-103.905 -430.004L507.697 176.365L507.697 176.365L1277.143 -608.177L1277.143 -608.177L1278.622 -606.6179z" /></clipPath><linearGradient transform="matrix(1 0 0 1 0 0)" id="4657" x1="-5.230408" y1="2431.578" x2="-5.2304082431.578" y2="-5.230408957.4756"><stop stop-color="#FFD800" offset="0%" /><stop stop-color="#FF387D" offset="100%" /></linearGradient><clipPath id="12"><path d="M507.359 211.514L506.62 210.739L506.62 210.739L-120.995 -412.588L-120.995 -412.588L-119.485 -414.118L-119.485 -414.118L507.389 208.423L507.389 208.423L1292.414 -591.9951L1292.414 -591.9951L1293.894 -590.437z" /></clipPath><linearGradient transform="matrix(1 0 0 1 0 0)" id="5259" x1="3.142761" y1="2423.044" x2="3.1427612423.044" y2="3.142761956.9064"><stop stop-color="#FFD800" offset="0%" /><stop stop-color="#FF387D" offset="100%" /></linearGradient><clipPath id="13"><path d="M507.051 243.59L506.312 242.813L506.312 242.813L-136.574 -396.693L-136.574 -396.693L-135.065 -398.225L-135.065 -398.225L507.08 240.499L507.08 240.499L1307.686 -575.8059L1307.686 -575.8059L1309.166 -574.2461z" /></clipPath><linearGradient transform="matrix(1 0 0 1 0 0)" id="5858" x1="11.49927" y1="2414.5" x2="11.499272414.5" y2="11.49927956.3563"><stop stop-color="#FFD800" offset="0%" /><stop stop-color="#FF387D" offset="100%" /></linearGradient><clipPath id="14"><path d="M506.743 275.6639L506.003 274.889L506.003 274.889L-152.154 -380.809L-152.154 -380.809L-150.644 -382.34L-150.644 -382.34L506.773 272.574L506.773 272.574L1322.958 -559.624L1322.958 -559.624L1324.438 -558.0649z" /></clipPath><linearGradient transform="matrix(1 0 0 1 0 0)" id="6453" x1="19.83228" y1="2405.964" x2="19.832282405.964" y2="19.83228955.8331"><stop stop-color="#FFD800" offset="0%" /><stop stop-color="#FF387D" offset="100%" /></linearGradient><clipPath id="15"><path d="M506.435 307.723L505.696 306.939L505.696 306.939L-167.734 -364.923L-167.734 -364.923L-166.224 -366.454L-166.224 -366.454L506.464 304.632L506.464 304.632L1338.229 -543.4431L1338.229 -543.4431L1339.709 -541.8831z" /></clipPath><linearGradient transform="matrix(1 0 0 1 0 0)" id="7055" x1="28.13519" y1="2397.425" x2="28.135192397.425" y2="28.13519955.328"><stop stop-color="#FFD800" offset="0%" /><stop stop-color="#FF387D" offset="100%" /></linearGradient><clipPath id="16"><path d="M506.127 339.799L505.395 339.014L505.395 339.014L-183.314 -349.038L-183.314 -349.038L-181.804 -350.569L-181.804 -350.569L506.157 336.708L506.157 336.708L1353.501 -527.261L1353.501 -527.261L1354.982 -525.7019z" /></clipPath><linearGradient transform="matrix(1 0 0 1 0 0)" id="7654" x1="36.42615" y1="2388.888" x2="36.426152388.888" y2="36.42615954.8461"><stop stop-color="#FFD800" offset="0%" /><stop stop-color="#FF387D" offset="100%" /></linearGradient><clipPath id="17"><path d="M505.819 371.873L505.087 371.09L505.087 371.09L-198.901 -333.153L-198.901 -333.153L-197.392 -334.684L-197.392 -334.684L505.849 368.783L505.849 368.783L1368.782 -511.0791L1368.782 -511.0791L1370.261 -509.521z" /></clipPath><linearGradient transform="matrix(1 0 0 1 0 0)" id="8253" x1="44.70221" y1="2380.348" x2="44.702212380.348" y2="44.70221954.3707"><stop stop-color="#FFD800" offset="0%" /><stop stop-color="#FF387D" offset="100%" /></linearGradient><clipPath id="18"><path d="M505.511 403.932L504.772 403.156L504.772 403.156L-214.481 -317.2679L-214.481 -317.2679L-212.971 -318.799L-212.971 -318.799L505.54 400.8409L505.54 400.8409L1384.053 -494.8979L1384.053 -494.8979L1385.533 -493.339z" /></clipPath><linearGradient transform="matrix(1 0 0 1 0 0)" id="8856" x1="52.95355" y1="2371.812" x2="52.953552371.812" y2="52.95355953.9189"><stop stop-color="#FFD800" offset="0%" /><stop stop-color="#FF387D" offset="100%" /></linearGradient><clipPath id="19"><path d="M505.204 435.999L504.463 435.223L504.463 435.223L-230.061 -301.3831L-230.061 -301.3831L-228.551 -302.913L-228.551 -302.913L505.233 432.908L505.233 432.908L1399.325 -478.717L1399.325 -478.717L1400.805 -477.157z" /></clipPath><linearGradient transform="matrix(1 0 0 1 0 0)" id="9457" x1="61.1864" y1="2363.273" x2="61.18642363.273" y2="61.1864953.4873"><stop stop-color="#FFD800" offset="0%" /><stop stop-color="#FF387D" offset="100%" /></linearGradient><clipPath id="20"><path d="M504.895 468.073L504.156 467.298L504.156 467.298L-245.641 -285.488L-245.641 -285.488L-244.131 -287.02L-244.131 -287.02L504.925 464.983L504.925 464.983L1414.596 -462.526L1414.596 -462.526L1416.077 -460.967z" /></clipPath><linearGradient transform="matrix(1 0 0 1 0 0)" id="10051" x1="69.40912" y1="2354.731" x2="69.409122354.731" y2="69.40912953.0706"><stop stop-color="#FFD800" offset="0%" /><stop stop-color="#FF387D" offset="100%" /></linearGradient><clipPath id="21"><path d="M504.587 500.141L503.848 499.356L503.848 499.356L-261.22 -269.604L-261.22 -269.604L-259.718 -271.135L-259.718 -271.135L504.617 497.05L504.617 497.05L1429.876 -446.345L1429.876 -446.345L1431.349 -444.786z" /></clipPath><linearGradient transform="matrix(1 0 0 1 0 0)" id="10647" x1="77.60797" y1="2346.198" x2="77.607972346.198" y2="77.60797952.6741"><stop stop-color="#FFD800" offset="0%" /><stop stop-color="#FF387D" offset="100%" /></linearGradient><clipPath id="22"><path d="M0 -0.3869629L1176.341 -0.3869629L1176.341 -0.3869629L1176.341 1552L1176.341 1552L0 1552z" /></clipPath><clipPath id="23"><path d="M2485.799 1169.1L1428 1169.1L1428 1169.1L1428 1094.422L1428 1094.422L2485.799 1094.422z" /></clipPath><clipPath id="24"><path d="M2485.799 1882.991L1428 1882.991L1428 1882.991L1428 493.109L1428 493.109L2485.799 493.109z" /></clipPath><clipPath id="25"><path d="M2754.579 1034.313L2357.655 2179.312L2357.655 2179.312L1274.932 1861.654L1274.932 1861.654L949.514 781.905L949.514 781.905L2036.861 -90.05005L2036.861 -90.05005L2648.578 723.418z" /></clipPath><clipPath id="26"><path d="M944.768 778.254L2930.14 778.254L2930.14 778.254L2930.14 1933.142L2930.14 1933.142L944.768 1933.142z" /></clipPath><clipPath id="27"><path d="M1429.833 1933.141L2855.654 1930.089L2855.654 1930.089L2930.141 778.255L2930.141 778.255L944.768 782.523z" /></clipPath><linearGradient transform="matrix(1 0 0 1 0 0)" id="12347" x1="1228.34" y1="1011.322" x2="1228.341011.322" y2="1228.341486.015"><stop stop-color="#4C216D" offset="0%" /><stop stop-color="#B83F54" offset="100%" /></linearGradient><clipPath id="28"><path d="M1168.57 271.12L2861.14 271.12L2861.14 271.12L2861.14 1476.527L2861.14 1476.527L1168.57 1476.527z" /></clipPath><clipPath id="29"><path d="M1934.379 1476.527L1933.64 1475.743L1933.64 1475.743L1168.572 706.784L1168.572 706.784L1170.074 705.253L1170.074 705.253L1934.41 1473.437L1934.41 1473.437L2859.669 530.043L2859.669 530.043L2861.141 531.601z" /></clipPath><linearGradient transform="matrix(1 0 0 1 0 0)" id="13234" x1="1507.401" y1="1369.811" x2="1507.4011369.811" y2="1507.401952.674"><stop stop-color="#FFD800" offset="0%" /><stop stop-color="#FF387D" offset="100%" /></linearGradient><clipPath id="30"><path d="M1017.83 1459.926L1175.02 1459.926L1175.02 1459.926L1175.02 1501.926L1175.02 1501.926L1017.83 1501.926z" /></clipPath><clipPath id="31"><path d="M1175.024 1501.926L1017.834 1501.926L1017.834 1501.926L1017.834 1459.926L1017.834 1459.926L1175.024 1459.926z" /></clipPath><linearGradient transform="matrix(1 0 0 1 0 0)" id="13960" x1="1017.834" y1="149.6694" x2="1017.834149.6694" y2="1017.834157.1904"><stop stop-color="#4C216D" offset="0%" /><stop stop-color="#B83F54" offset="100%" /></linearGradient><clipPath id="32"><path d="M822.14 1471.077L1001.57 1471.077L1001.57 1471.077L1001.57 1493.472L1001.57 1493.472L822.14 1493.472z" /></clipPath><clipPath id="33"><path d="M751.186 1496.804L800.826 1496.804L800.826 1496.804L800.826 1467.025L800.826 1467.025L751.186 1467.025z" /></clipPath></defs></svg>