<svg xmlns="http://www.w3.org/2000/svg" xmlns:xlink="http://www.w3.org/1999/xlink" id="body_6" preserveAspectRatio="xMinYMin meet" viewBox="0 0 1568 2069"><g transform="matrix(1.333333 0 0 1.333333 0 0)"><g><g clip-path="url(#1)"><g clip-path="url(#2)"><g clip-path="url(#3)"><g clip-path="url(#4)"><g clip-path="url(#5)"><g><g clip-path="url(#6)"><g clip-path="url(#7)"><g><path transform="matrix(1 0 0 -1 0 1552)" d="M0 274L1176 1647L1176 1647L1176 5159L1176 5159L0 3786" stroke="none" fill="url(#1658)" /><path transform="matrix(1 0 0 -1 0 1552)" d="M0 275.312L1176 1648.453L1176 1648.453L1176 0L1176 0L0 0" stroke="none" fill="#4C216D" fill-rule="evenodd" fill-opacity="0.8980392" /><path transform="matrix(1 0 0 -1 0 1552)" d="M0 3785.325L1176 5158.467L1176 5158.467L1176 1552L1176 1552L0 1552" stroke="none" fill="#B83F54" fill-rule="evenodd" fill-opacity="0.8980392" /></g></g></g></g><g><g clip-path="url(#8)"><g clip-path="url(#9)"><g><path transform="matrix(1 0 0 -1 0 1552)" d="M0 2054L1176 855L1176 855L1176 -1093L1176 -1093L0 106" stroke="none" fill="url(#2552)" /><path transform="matrix(1 0 0 -1 0 1552)" d="M0 2052.944L1176 854.1368L1176 854.1368L1176 1552L1176 1552L0 1552" stroke="none" fill="#FFD800" fill-rule="evenodd" fill-opacity="0.1960784" /><path transform="matrix(1 0 0 -1 0 1552)" d="M0 106.8735L1176 -1091.934L1176 -1091.934L1176 0L1176 0L0 0" stroke="none" fill="#FF387D" fill-rule="evenodd" fill-opacity="0.1960784" /></g></g><g clip-path="url(#10)"><g><path transform="matrix(1 0 0 -1 0 1552)" d="M0 2053L1176 855L1176 855L1176 -1093L1176 -1093L0 106" stroke="none" fill="url(#3186)" /><path transform="matrix(1 0 0 -1 0 1552)" d="M0 2052.359L1176 853.5512L1176 853.5512L1176 1552L1176 1552L0 1552" stroke="none" fill="#FFD800" fill-rule="evenodd" fill-opacity="0.1960784" /><path transform="matrix(1 0 0 -1 0 1552)" d="M0 107.2706L1176 -1091.537L1176 -1091.537L1176 0L1176 0L0 0" stroke="none" fill="#FF387D" fill-rule="evenodd" fill-opacity="0.1960784" /></g></g><g clip-path="url(#11)"><g><path transform="matrix(1 0 0 -1 0 1552)" d="M0 2053L1176 854L1176 854L1176 -1092L1176 -1092L0 107" stroke="none" fill="url(#3825)" /><path transform="matrix(1 0 0 -1 0 1552)" d="M0 2051.761L1176 852.9537L1176 852.9537L1176 1552L1176 1552L0 1552" stroke="none" fill="#FFD800" fill-rule="evenodd" fill-opacity="0.1960784" /><path transform="matrix(1 0 0 -1 0 1552)" d="M0 107.6424L1176 -1091.165L1176 -1091.165L1176 0L1176 0L0 0" stroke="none" fill="#FF387D" fill-rule="evenodd" fill-opacity="0.1960784" /></g></g><g clip-path="url(#12)"><g><path transform="matrix(1 0 0 -1 0 1552)" d="M0 2052L1176 853L1176 853L1176 -1092L1176 -1092L0 107" stroke="none" fill="url(#4472)" /><path transform="matrix(1 0 0 -1 0 1552)" d="M0 2051.167L1176 852.3592L1176 852.3592L1176 1552L1176 1552L0 1552" stroke="none" fill="#FFD800" fill-rule="evenodd" fill-opacity="0.1960784" /><path transform="matrix(1 0 0 -1 0 1552)" d="M0 107.9691L1176 -1090.838L1176 -1090.838L1176 0L1176 0L0 0" stroke="none" fill="#FF387D" fill-rule="evenodd" fill-opacity="0.1960784" /></g></g><g clip-path="url(#13)"><g><path transform="matrix(1 0 0 -1 0 1552)" d="M0 2052L1176 853L1176 853L1176 -1092L1176 -1092L0 107" stroke="none" fill="url(#5115)" /><path transform="matrix(1 0 0 -1 0 1552)" d="M0 2050.572L1176 851.764L1176 851.764L1176 1552L1176 1552L0 1552" stroke="none" fill="#FFD800" fill-rule="evenodd" fill-opacity="0.1960784" /><path transform="matrix(1 0 0 -1 0 1552)" d="M0 108.2542L1176 -1090.553L1176 -1090.553L1176 0L1176 0L0 0" stroke="none" fill="#FF387D" fill-rule="evenodd" fill-opacity="0.1960784" /></g></g><g clip-path="url(#14)"><g><path transform="matrix(1 0 0 -1 0 1552)" d="M0 2051L1176 852L1176 852L1176 -1091L1176 -1091L0 108" stroke="none" fill="url(#5750)" /><path transform="matrix(1 0 0 -1 0 1552)" d="M0 2049.979L1176 851.1717L1176 851.1717L1176 1552L1176 1552L0 1552" stroke="none" fill="#FFD800" fill-rule="evenodd" fill-opacity="0.1960784" /><path transform="matrix(1 0 0 -1 0 1552)" d="M0 108.5116L1176 -1090.296L1176 -1090.296L1176 0L1176 0L0 0" stroke="none" fill="#FF387D" fill-rule="evenodd" fill-opacity="0.1960784" /></g></g><g clip-path="url(#15)"><g><path transform="matrix(1 0 0 -1 0 1552)" d="M0 2050L1176 852L1176 852L1176 -1091L1176 -1091L0 108" stroke="none" fill="url(#6384)" /><path transform="matrix(1 0 0 -1 0 1552)" d="M0 2049.392L1176 850.584L1176 850.584L1176 1552L1176 1552L0 1552" stroke="none" fill="#FFD800" fill-rule="evenodd" fill-opacity="0.1960784" /><path transform="matrix(1 0 0 -1 0 1552)" d="M0 108.7325L1176 -1090.075L1176 -1090.075L1176 0L1176 0L0 0" stroke="none" fill="#FF387D" fill-rule="evenodd" fill-opacity="0.1960784" /></g></g></g></g></g></g></g><g clip-path="url(#16)"><g clip-path="url(#17)"><g clip-path="url(#18)"><g><g clip-path="url(#19)"><g clip-path="url(#20)"><g><path transform="matrix(1 0 0 -1 0 1552)" d="M0 -271L1176 1102L1176 1102L1176 4614L1176 4614L0 3241" stroke="none" fill="url(#7930)" /><path transform="matrix(1 0 0 -1 0 1552)" d="M0 -270.3395L1176 1102.802L1176 1102.802L1176 0L1176 0L0 0" stroke="none" fill="#4C216D" fill-rule="evenodd" fill-opacity="0.8980392" /><path transform="matrix(1 0 0 -1 0 1552)" d="M0 3239.674L1176 4612.815L1176 4612.815L1176 1552L1176 1552L0 1552" stroke="none" fill="#B83F54" fill-rule="evenodd" fill-opacity="0.8980392" /></g></g></g></g><g><g clip-path="url(#21)"><g clip-path="url(#22)"><g><path transform="matrix(1 0 0 -1 0 1552)" d="M0 1508L1176 309L1176 309L1176 -1639L1176 -1639L0 -440" stroke="none" fill="url(#8825)" /><path transform="matrix(1 0 0 -1 0 1552)" d="M0 1507.293L1176 308.4854L1176 308.4854L1176 1552L1176 1552L0 1552" stroke="none" fill="#FFD800" fill-rule="evenodd" fill-opacity="0.1960784" /><path transform="matrix(1 0 0 -1 0 1552)" d="M0 -438.7779L1176 -1637.585L1176 -1637.585L1176 0L1176 0L0 0" stroke="none" fill="#FF387D" fill-rule="evenodd" fill-opacity="0.1960784" /></g></g><g clip-path="url(#23)"><g><path transform="matrix(1 0 0 -1 0 1552)" d="M0 1508L1176 309L1176 309L1176 -1638L1176 -1638L0 -439" stroke="none" fill="url(#9454)" /><path transform="matrix(1 0 0 -1 0 1552)" d="M0 1506.708L1176 307.8999L1176 307.8999L1176 1552L1176 1552L0 1552" stroke="none" fill="#FFD800" fill-rule="evenodd" fill-opacity="0.1960784" /><path transform="matrix(1 0 0 -1 0 1552)" d="M0 -438.3808L1176 -1637.188L1176 -1637.188L1176 0L1176 0L0 0" stroke="none" fill="#FF387D" fill-rule="evenodd" fill-opacity="0.1960784" /></g></g><g clip-path="url(#24)"><g><path transform="matrix(1 0 0 -1 0 1552)" d="M0 1507L1176 308L1176 308L1176 -1638L1176 -1638L0 -439" stroke="none" fill="url(#10089)" /><path transform="matrix(1 0 0 -1 0 1552)" d="M0 1506.11L1176 307.3022L1176 307.3022L1176 1552L1176 1552L0 1552" stroke="none" fill="#FFD800" fill-rule="evenodd" fill-opacity="0.1960784" /><path transform="matrix(1 0 0 -1 0 1552)" d="M0 -438.0091L1176 -1636.817L1176 -1636.817L1176 0L1176 0L0 0" stroke="none" fill="#FF387D" fill-rule="evenodd" fill-opacity="0.1960784" /></g></g><g clip-path="url(#25)"><g><path transform="matrix(1 0 0 -1 0 1552)" d="M0 1507L1176 308L1176 308L1176 -1637L1176 -1637L0 -439" stroke="none" fill="url(#10727)" /><path transform="matrix(1 0 0 -1 0 1552)" d="M0 1505.515L1176 306.7076L1176 306.7076L1176 1552L1176 1552L0 1552" stroke="none" fill="#FFD800" fill-rule="evenodd" fill-opacity="0.1960784" /><path transform="matrix(1 0 0 -1 0 1552)" d="M0 -437.6825L1176 -1636.49L1176 -1636.49L1176 0L1176 0L0 0" stroke="none" fill="#FF387D" fill-rule="evenodd" fill-opacity="0.1960784" /></g></g><g clip-path="url(#26)"><g><path transform="matrix(1 0 0 -1 0 1552)" d="M0 1506L1176 307L1176 307L1176 -1637L1176 -1637L0 -438" stroke="none" fill="url(#11362)" /><path transform="matrix(1 0 0 -1 0 1552)" d="M0 1504.92L1176 306.1127L1176 306.1127L1176 1552L1176 1552L0 1552" stroke="none" fill="#FFD800" fill-rule="evenodd" fill-opacity="0.1960784" /><path transform="matrix(1 0 0 -1 0 1552)" d="M0 -437.3972L1176 -1636.205L1176 -1636.205L1176 0L1176 0L0 0" stroke="none" fill="#FF387D" fill-rule="evenodd" fill-opacity="0.1960784" /></g></g><g clip-path="url(#27)"><g><path transform="matrix(1 0 0 -1 0 1552)" d="M0 1505L1176 307L1176 307L1176 -1637L1176 -1637L0 -438" stroke="none" fill="url(#11997)" /><path transform="matrix(1 0 0 -1 0 1552)" d="M0 1504.328L1176 305.5201L1176 305.5201L1176 1552L1176 1552L0 1552" stroke="none" fill="#FFD800" fill-rule="evenodd" fill-opacity="0.1960784" /><path transform="matrix(1 0 0 -1 0 1552)" d="M0 -437.1399L1176 -1635.948L1176 -1635.948L1176 0L1176 0L0 0" stroke="none" fill="#FF387D" fill-rule="evenodd" fill-opacity="0.1960784" /></g></g><g clip-path="url(#28)"><g><path transform="matrix(1 0 0 -1 0 1552)" d="M0 1505L1176 306L1176 306L1176 -1637L1176 -1637L0 -438" stroke="none" fill="url(#12632)" /><path transform="matrix(1 0 0 -1 0 1552)" d="M0 1503.74L1176 304.9326L1176 304.9326L1176 1552L1176 1552L0 1552" stroke="none" fill="#FFD800" fill-rule="evenodd" fill-opacity="0.1960784" /><path transform="matrix(1 0 0 -1 0 1552)" d="M0 -436.9189L1176 -1635.726L1176 -1635.726L1176 0L1176 0L0 0" stroke="none" fill="#FF387D" fill-rule="evenodd" fill-opacity="0.1960784" /></g></g></g></g></g></g></g><g clip-path="url(#29)"><g clip-path="url(#30)"><g clip-path="url(#31)"><g><g clip-path="url(#32)"><g clip-path="url(#33)"><g><path transform="matrix(1 0 0 -1 0 1552)" d="M0 -3219L1176 -1846L1176 -1846L1176 1666L1176 1666L0 293" stroke="none" fill="url(#14180)" /><path transform="matrix(1 0 0 -1 0 1552)" d="M0 -3218.378L1176 -1845.236L1176 -1845.236L1176 0L1176 0L0 0" stroke="none" fill="#4C216D" fill-rule="evenodd" fill-opacity="0.8980392" /><path transform="matrix(1 0 0 -1 0 1552)" d="M0 291.6351L1176 1664.776L1176 1664.776L1176 1552L1176 1552L0 1552" stroke="none" fill="#B83F54" fill-rule="evenodd" fill-opacity="0.8980392" /></g></g></g></g></g></g></g><path transform="matrix(1 0 0 -1 0 1552)" d="M1176.341 0L0 0L0 0L0 1552.387L0 1552.387L1176.341 1552.387z" stroke="#E6E7E8" stroke-width="1" fill="none" /><g><g clip-path="url(#34)"><g clip-path="url(#35)"><g><path transform="matrix(1 0 0 -1 0 1552)" d="M1019.15 0L1019.15 1552L1019.15 1552L1176.341 1552L1176.341 1552L1176.341 0" stroke="none" fill="url(#14907)" /><path transform="matrix(1 0 0 -1 0 1552)" d="M1019.15 0L1019.15 1552L1019.15 1552L0 1552L0 1552L0 0" stroke="none" fill="#4C216D" fill-rule="evenodd" fill-opacity="0.4980392" /><path transform="matrix(1 0 0 -1 0 1552)" d="M1176.341 0L1176.341 1552L1176.341 1552L1176 1552L1176 1552L1176 0" stroke="none" fill="#B83F54" fill-rule="evenodd" fill-opacity="0.4980392" /></g></g></g></g><g><g clip-path="url(#36)"></g></g></g><g clip-path="url(#37)"><g transform="matrix(0.2398164 0 0 0.2382367 752.501 1467.024)"><g transform="matrix(1 0 0 1 0 0)"><image x="0" y="0" xlink:href="img_07.png" width="207" height="125" /></g></g></g><path transform="matrix(1 0 0 -1 0 1552)" d="M813.9326 79.7246L813.9326 63.6426" stroke="#797A7C" stroke-width="1" fill="none" /><g clip-path="url(#38)"><g><g clip-path="url(#39)"><path transform="matrix(1 0 0 -1 0 1552)" d="M150.8952 244.8185L412.8972 244.8185" stroke="#000000" stroke-width="1" fill="none" stroke-opacity="0.8980392" /></g></g><g clip-path="url(#40)"><g clip-path="url(#41)"><g clip-path="url(#42)"><g><g clip-path="url(#43)"><g clip-path="url(#44)"><g><path transform="matrix(1 0 0 -1 0 1552)" d="M0 -2954L1176 -1581L1176 -1581L1176 1931L1176 1931L0 558" stroke="none" fill="url(#17303)" /><path transform="matrix(1 0 0 -1 0 1552)" d="M0 -2953.115L1176 -1579.973L1176 -1579.973L1176 0L1176 0L0 0" stroke="none" fill="#4C216D" fill-rule="evenodd" fill-opacity="0.8980392" /><path transform="matrix(1 0 0 -1 0 1552)" d="M0 556.8984L1176 1930.04L1176 1930.04L1176 1552L1176 1552L0 1552" stroke="none" fill="#B83F54" fill-rule="evenodd" fill-opacity="0.8980392" /></g></g></g></g><g><g clip-path="url(#45)"><g clip-path="url(#46)"><g><path transform="matrix(1 0 0 -1 0 1552)" d="M0 1609L1176 410L1176 410L1176 -1550L1176 -1550L0 -351" stroke="none" fill="url(#18204)" /><path transform="matrix(1 0 0 -1 0 1552)" d="M0 1608.071L1176 409.2633L1176 409.2633L1176 1552L1176 1552L0 1552" stroke="none" fill="#FFD800" fill-rule="evenodd" fill-opacity="0.1960784" /><path transform="matrix(1 0 0 -1 0 1552)" d="M0 -350.4127L1176 -1549.22L1176 -1549.22L1176 0L1176 0L0 0" stroke="none" fill="#FF387D" fill-rule="evenodd" fill-opacity="0.1960784" /></g></g><g clip-path="url(#47)"><g><path transform="matrix(1 0 0 -1 0 1552)" d="M0 1608L1176 410L1176 410L1176 -1549L1176 -1549L0 -351" stroke="none" fill="url(#18839)" /><path transform="matrix(1 0 0 -1 0 1552)" d="M0 1607.489L1176 408.6812L1176 408.6812L1176 1552L1176 1552L0 1552" stroke="none" fill="#FFD800" fill-rule="evenodd" fill-opacity="0.1960784" /><path transform="matrix(1 0 0 -1 0 1552)" d="M0 -349.5048L1176 -1548.312L1176 -1548.312L1176 0L1176 0L0 0" stroke="none" fill="#FF387D" fill-rule="evenodd" fill-opacity="0.1960784" /></g></g><g clip-path="url(#48)"><g><path transform="matrix(1 0 0 -1 0 1552)" d="M0 1608L1176 409L1176 409L1176 -1548L1176 -1548L0 -350" stroke="none" fill="url(#19476)" /><path transform="matrix(1 0 0 -1 0 1552)" d="M0 1606.905L1176 408.0976L1176 408.0976L1176 1552L1176 1552L0 1552" stroke="none" fill="#FFD800" fill-rule="evenodd" fill-opacity="0.1960784" /><path transform="matrix(1 0 0 -1 0 1552)" d="M0 -348.6622L1176 -1547.47L1176 -1547.47L1176 0L1176 0L0 0" stroke="none" fill="#FF387D" fill-rule="evenodd" fill-opacity="0.1960784" /></g></g><g clip-path="url(#49)"><g><path transform="matrix(1 0 0 -1 0 1552)" d="M0 1607L1176 409L1176 409L1176 -1548L1176 -1548L0 -349" stroke="none" fill="url(#20116)" /><path transform="matrix(1 0 0 -1 0 1552)" d="M0 1606.321L1176 407.5137L1176 407.5137L1176 1552L1176 1552L0 1552" stroke="none" fill="#FFD800" fill-rule="evenodd" fill-opacity="0.1960784" /><path transform="matrix(1 0 0 -1 0 1552)" d="M0 -347.8771L1176 -1546.685L1176 -1546.685L1176 0L1176 0L0 0" stroke="none" fill="#FF387D" fill-rule="evenodd" fill-opacity="0.1960784" /></g></g><g clip-path="url(#50)"><g><path transform="matrix(1 0 0 -1 0 1552)" d="M0 1607L1176 408L1176 408L1176 -1547L1176 -1547L0 -348" stroke="none" fill="url(#20756)" /><path transform="matrix(1 0 0 -1 0 1552)" d="M0 1605.734L1176 406.9266L1176 406.9266L1176 1552L1176 1552L0 1552" stroke="none" fill="#FFD800" fill-rule="evenodd" fill-opacity="0.1960784" /><path transform="matrix(1 0 0 -1 0 1552)" d="M0 -347.1654L1176 -1545.973L1176 -1545.973L1176 0L1176 0L0 0" stroke="none" fill="#FF387D" fill-rule="evenodd" fill-opacity="0.1960784" /></g></g><g clip-path="url(#51)"><g><path transform="matrix(1 0 0 -1 0 1552)" d="M0 1606L1176 407L1176 407L1176 -1546L1176 -1546L0 -348" stroke="none" fill="url(#21400)" /><path transform="matrix(1 0 0 -1 0 1552)" d="M0 1605.146L1176 406.3381L1176 406.3381L1176 1552L1176 1552L0 1552" stroke="none" fill="#FFD800" fill-rule="evenodd" fill-opacity="0.1960784" /><path transform="matrix(1 0 0 -1 0 1552)" d="M0 -346.5046L1176 -1545.312L1176 -1545.312L1176 0L1176 0L0 0" stroke="none" fill="#FF387D" fill-rule="evenodd" fill-opacity="0.1960784" /></g></g><g clip-path="url(#52)"><g><path transform="matrix(1 0 0 -1 0 1552)" d="M0 1606L1176 407L1176 407L1176 -1546L1176 -1546L0 -347" stroke="none" fill="url(#22041)" /><path transform="matrix(1 0 0 -1 0 1552)" d="M0 1604.561L1176 405.7532L1176 405.7532L1176 1552L1176 1552L0 1552" stroke="none" fill="#FFD800" fill-rule="evenodd" fill-opacity="0.1960784" /><path transform="matrix(1 0 0 -1 0 1552)" d="M0 -345.8894L1176 -1544.697L1176 -1544.697L1176 0L1176 0L0 0" stroke="none" fill="#FF387D" fill-rule="evenodd" fill-opacity="0.1960784" /></g></g><g clip-path="url(#53)"><g><path transform="matrix(1 0 0 -1 0 1552)" d="M0 1605L1176 406L1176 406L1176 -1545L1176 -1545L0 -346" stroke="none" fill="url(#22685)" /><path transform="matrix(1 0 0 -1 0 1552)" d="M0 1603.971L1176 405.1631L1176 405.1631L1176 1552L1176 1552L0 1552" stroke="none" fill="#FFD800" fill-rule="evenodd" fill-opacity="0.1960784" /><path transform="matrix(1 0 0 -1 0 1552)" d="M0 -345.3187L1176 -1544.126L1176 -1544.126L1176 0L1176 0L0 0" stroke="none" fill="#FF387D" fill-rule="evenodd" fill-opacity="0.1960784" /></g></g><g clip-path="url(#54)"><g><path transform="matrix(1 0 0 -1 0 1552)" d="M0 1604L1176 406L1176 406L1176 -1545L1176 -1545L0 -346" stroke="none" fill="url(#23327)" /><path transform="matrix(1 0 0 -1 0 1552)" d="M0 1603.373L1176 404.5653L1176 404.5653L1176 1552L1176 1552L0 1552" stroke="none" fill="#FFD800" fill-rule="evenodd" fill-opacity="0.1960784" /><path transform="matrix(1 0 0 -1 0 1552)" d="M0 -344.7948L1176 -1543.602L1176 -1543.602L1176 0L1176 0L0 0" stroke="none" fill="#FF387D" fill-rule="evenodd" fill-opacity="0.1960784" /></g></g><g clip-path="url(#55)"><g><path transform="matrix(1 0 0 -1 0 1552)" d="M0 1604L1176 405L1176 405L1176 -1544L1176 -1544L0 -345" stroke="none" fill="url(#23967)" /><path transform="matrix(1 0 0 -1 0 1552)" d="M0 1602.788L1176 403.9809L1176 403.9809L1176 1552L1176 1552L0 1552" stroke="none" fill="#FFD800" fill-rule="evenodd" fill-opacity="0.1960784" /><path transform="matrix(1 0 0 -1 0 1552)" d="M0 -344.3124L1176 -1543.12L1176 -1543.12L1176 0L1176 0L0 0" stroke="none" fill="#FF387D" fill-rule="evenodd" fill-opacity="0.1960784" /></g></g><g clip-path="url(#56)"><g><path transform="matrix(1 0 0 -1 0 1552)" d="M0 1603L1176 404L1176 404L1176 -1544L1176 -1544L0 -345" stroke="none" fill="url(#24606)" /><path transform="matrix(1 0 0 -1 0 1552)" d="M0 1602.188L1176 403.3806L1176 403.3806L1176 1552L1176 1552L0 1552" stroke="none" fill="#FFD800" fill-rule="evenodd" fill-opacity="0.1960784" /><path transform="matrix(1 0 0 -1 0 1552)" d="M0 -343.8826L1176 -1542.69L1176 -1542.69L1176 0L1176 0L0 0" stroke="none" fill="#FF387D" fill-rule="evenodd" fill-opacity="0.1960784" /></g></g><g clip-path="url(#57)"><g><path transform="matrix(1 0 0 -1 0 1552)" d="M0 1603L1176 404L1176 404L1176 -1543L1176 -1543L0 -344" stroke="none" fill="url(#25247)" /><path transform="matrix(1 0 0 -1 0 1552)" d="M0 1601.603L1176 402.7952L1176 402.7952L1176 1552L1176 1552L0 1552" stroke="none" fill="#FFD800" fill-rule="evenodd" fill-opacity="0.1960784" /><path transform="matrix(1 0 0 -1 0 1552)" d="M0 -343.4855L1176 -1542.293L1176 -1542.293L1176 0L1176 0L0 0" stroke="none" fill="#FF387D" fill-rule="evenodd" fill-opacity="0.1960784" /></g></g><g clip-path="url(#58)"><g><path transform="matrix(1 0 0 -1 0 1552)" d="M0 1602L1176 403L1176 403L1176 -1543L1176 -1543L0 -344" stroke="none" fill="url(#25891)" /><path transform="matrix(1 0 0 -1 0 1552)" d="M0 1601.005L1176 402.1974L1176 402.1974L1176 1552L1176 1552L0 1552" stroke="none" fill="#FFD800" fill-rule="evenodd" fill-opacity="0.1960784" /><path transform="matrix(1 0 0 -1 0 1552)" d="M0 -343.1138L1176 -1541.921L1176 -1541.921L1176 0L1176 0L0 0" stroke="none" fill="#FF387D" fill-rule="evenodd" fill-opacity="0.1960784" /></g></g><g clip-path="url(#59)"><g><path transform="matrix(1 0 0 -1 0 1552)" d="M0 1601L1176 403L1176 403L1176 -1543L1176 -1543L0 -344" stroke="none" fill="url(#26533)" /><path transform="matrix(1 0 0 -1 0 1552)" d="M0 1600.41L1176 401.6029L1176 401.6029L1176 1552L1176 1552L0 1552" stroke="none" fill="#FFD800" fill-rule="evenodd" fill-opacity="0.1960784" /><path transform="matrix(1 0 0 -1 0 1552)" d="M0 -342.7871L1176 -1541.595L1176 -1541.595L1176 0L1176 0L0 0" stroke="none" fill="#FF387D" fill-rule="evenodd" fill-opacity="0.1960784" /></g></g><g clip-path="url(#60)"><g><path transform="matrix(1 0 0 -1 0 1552)" d="M0 1601L1176 402L1176 402L1176 -1542L1176 -1542L0 -344" stroke="none" fill="url(#27173)" /><path transform="matrix(1 0 0 -1 0 1552)" d="M0 1599.815L1176 401.008L1176 401.008L1176 1552L1176 1552L0 1552" stroke="none" fill="#FFD800" fill-rule="evenodd" fill-opacity="0.1960784" /><path transform="matrix(1 0 0 -1 0 1552)" d="M0 -342.5019L1176 -1541.309L1176 -1541.309L1176 0L1176 0L0 0" stroke="none" fill="#FF387D" fill-rule="evenodd" fill-opacity="0.1960784" /></g></g><g clip-path="url(#61)"><g><path transform="matrix(1 0 0 -1 0 1552)" d="M0 1600L1176 401L1176 401L1176 -1542L1176 -1542L0 -343" stroke="none" fill="url(#27815)" /><path transform="matrix(1 0 0 -1 0 1552)" d="M0 1599.223L1176 400.4154L1176 400.4154L1176 1552L1176 1552L0 1552" stroke="none" fill="#FFD800" fill-rule="evenodd" fill-opacity="0.1960784" /><path transform="matrix(1 0 0 -1 0 1552)" d="M0 -342.2445L1176 -1541.052L1176 -1541.052L1176 0L1176 0L0 0" stroke="none" fill="#FF387D" fill-rule="evenodd" fill-opacity="0.1960784" /></g></g><g clip-path="url(#62)"><g><path transform="matrix(1 0 0 -1 0 1552)" d="M0 1600L1176 401L1176 401L1176 -1542L1176 -1542L0 -343" stroke="none" fill="url(#28459)" /><path transform="matrix(1 0 0 -1 0 1552)" d="M0 1598.635L1176 399.828L1176 399.828L1176 1552L1176 1552L0 1552" stroke="none" fill="#FFD800" fill-rule="evenodd" fill-opacity="0.1960784" /><path transform="matrix(1 0 0 -1 0 1552)" d="M0 -342.0234L1176 -1540.831L1176 -1540.831L1176 0L1176 0L0 0" stroke="none" fill="#FF387D" fill-rule="evenodd" fill-opacity="0.1960784" /></g></g></g></g><g><g clip-path="url(#63)"><g clip-path="url(#64)"><g><path transform="matrix(1 0 0 -1 0 1552)" d="M0 -36179L1176 200532L1176 200532L1176 58462L1176 58462L0 -178249" stroke="none" fill="url(#29238)" /><path transform="matrix(1 0 0 -1 0 1552)" d="M0 -36297.07L1176 200414.1L1176 200414.1L1176 1552L1176 1552L0 1552" stroke="none" fill="#560099" fill-rule="evenodd" fill-opacity="0.04705882" /><path transform="matrix(1 0 0 -1 0 1552)" d="M0 -178130.8L1176 58580.38L1176 58580.38L1176 0L1176 0L0 0" stroke="none" fill="#FF0A35" fill-rule="evenodd" fill-opacity="0.04705882" /></g></g><g clip-path="url(#65)"><g><path transform="matrix(1 0 0 -1 0 1552)" d="M0 -33894L1176 202818L1176 202818L1176 60747L1176 60747L0 -175964" stroke="none" fill="url(#29762)" /><path transform="matrix(1 0 0 -1 0 1552)" d="M0 -34011.96L1176 202699.3L1176 202699.3L1176 1552L1176 1552L0 1552" stroke="none" fill="#560099" fill-rule="evenodd" fill-opacity="0.04705882" /><path transform="matrix(1 0 0 -1 0 1552)" d="M0 -175845.7L1176 60865.49L1176 60865.49L1176 0L1176 0L0 0" stroke="none" fill="#FF0A35" fill-rule="evenodd" fill-opacity="0.04705882" /></g></g><g clip-path="url(#66)"><g><path transform="matrix(1 0 0 -1 0 1552)" d="M0 -31608L1176 205103L1176 205103L1176 63032L1176 63032L0 -173679" stroke="none" fill="url(#30289)" /><path transform="matrix(1 0 0 -1 0 1552)" d="M0 -31726.66L1176 204984.5L1176 204984.5L1176 1552L1176 1552L0 1552" stroke="none" fill="#560099" fill-rule="evenodd" fill-opacity="0.04705882" /><path transform="matrix(1 0 0 -1 0 1552)" d="M0 -173560.4L1176 63150.79L1176 63150.79L1176 0L1176 0L0 0" stroke="none" fill="#FF0A35" fill-rule="evenodd" fill-opacity="0.04705882" /></g></g><g clip-path="url(#67)"><g><path transform="matrix(1 0 0 -1 0 1552)" d="M0 -29323L1176 207385L1176 207385L1176 65317L1176 65317L0 -171391" stroke="none" fill="url(#30814)" /><path transform="matrix(1 0 0 -1 0 1552)" d="M0 -29440.88L1176 207266.5L1176 207266.5L1176 1552L1176 1552L0 1552" stroke="none" fill="#560099" fill-rule="evenodd" fill-opacity="0.04705882" /><path transform="matrix(1 0 0 -1 0 1552)" d="M0 -171272.5L1176 65434.86L1176 65434.86L1176 0L1176 0L0 0" stroke="none" fill="#FF0A35" fill-rule="evenodd" fill-opacity="0.04705882" /></g></g><g clip-path="url(#68)"><g><path transform="matrix(1 0 0 -1 0 1552)" d="M0 -27038L1176 209673L1176 209673L1176 67603L1176 67603L0 -169108" stroke="none" fill="url(#31340)" /><path transform="matrix(1 0 0 -1 0 1552)" d="M0 -27156.25L1176 209555L1176 209555L1176 1552L1176 1552L0 1552" stroke="none" fill="#560099" fill-rule="evenodd" fill-opacity="0.04705882" /><path transform="matrix(1 0 0 -1 0 1552)" d="M0 -168990L1176 67721.21L1176 67721.21L1176 0L1176 0L0 0" stroke="none" fill="#FF0A35" fill-rule="evenodd" fill-opacity="0.04705882" /></g></g><g clip-path="url(#69)"><g><path transform="matrix(1 0 0 -1 0 1552)" d="M0 -24753L1176 211959L1176 211959L1176 69888L1176 69888L0 -166823" stroke="none" fill="url(#31867)" /><path transform="matrix(1 0 0 -1 0 1552)" d="M0 -24870.95L1176 211840.3L1176 211840.3L1176 1552L1176 1552L0 1552" stroke="none" fill="#560099" fill-rule="evenodd" fill-opacity="0.04705882" /><path transform="matrix(1 0 0 -1 0 1552)" d="M0 -166704.7L1176 70006.51L1176 70006.51L1176 0L1176 0L0 0" stroke="none" fill="#FF0A35" fill-rule="evenodd" fill-opacity="0.04705882" /></g></g><g clip-path="url(#70)"><g><path transform="matrix(1 0 0 -1 0 1552)" d="M0 -22467L1176 214244L1176 214244L1176 72173L1176 72173L0 -164538" stroke="none" fill="url(#32394)" /><path transform="matrix(1 0 0 -1 0 1552)" d="M0 -22585.83L1176 214125.4L1176 214125.4L1176 1552L1176 1552L0 1552" stroke="none" fill="#560099" fill-rule="evenodd" fill-opacity="0.04705882" /><path transform="matrix(1 0 0 -1 0 1552)" d="M0 -164419.6L1176 72291.63L1176 72291.63L1176 0L1176 0L0 0" stroke="none" fill="#FF0A35" fill-rule="evenodd" fill-opacity="0.04705882" /></g></g><g clip-path="url(#71)"><g><path transform="matrix(1 0 0 -1 0 1552)" d="M0 -20182L1176 216529L1176 216529L1176 74459L1176 74459L0 -162253" stroke="none" fill="url(#32918)" /><path transform="matrix(1 0 0 -1 0 1552)" d="M0 -20300.53L1176 216410.7L1176 216410.7L1176 1552L1176 1552L0 1552" stroke="none" fill="#560099" fill-rule="evenodd" fill-opacity="0.04705882" /><path transform="matrix(1 0 0 -1 0 1552)" d="M0 -162134.3L1176 74576.92L1176 74576.92L1176 0L1176 0L0 0" stroke="none" fill="#FF0A35" fill-rule="evenodd" fill-opacity="0.04705882" /></g></g><g clip-path="url(#72)"><g><path transform="matrix(1 0 0 -1 0 1552)" d="M0 -17897L1176 218814L1176 218814L1176 76744L1176 76744L0 -159968" stroke="none" fill="url(#33441)" /><path transform="matrix(1 0 0 -1 0 1552)" d="M0 -18015.42L1176 218695.8L1176 218695.8L1176 1552L1176 1552L0 1552" stroke="none" fill="#560099" fill-rule="evenodd" fill-opacity="0.04705882" /><path transform="matrix(1 0 0 -1 0 1552)" d="M0 -159849.2L1176 76862.04L1176 76862.04L1176 0L1176 0L0 0" stroke="none" fill="#FF0A35" fill-rule="evenodd" fill-opacity="0.04705882" /></g></g><g clip-path="url(#73)"><g><path transform="matrix(1 0 0 -1 0 1552)" d="M0 -15612L1176 221099L1176 221099L1176 79029L1176 79029L0 -157682" stroke="none" fill="url(#33962)" /><path transform="matrix(1 0 0 -1 0 1552)" d="M0 -15730.12L1176 220981.1L1176 220981.1L1176 1552L1176 1552L0 1552" stroke="none" fill="#560099" fill-rule="evenodd" fill-opacity="0.04705882" /><path transform="matrix(1 0 0 -1 0 1552)" d="M0 -157563.9L1176 79147.34L1176 79147.34L1176 0L1176 0L0 0" stroke="none" fill="#FF0A35" fill-rule="evenodd" fill-opacity="0.04705882" /></g></g><g clip-path="url(#74)"><g><path transform="matrix(1 0 0 -1 0 1552)" d="M0 -13326L1176 223381L1176 223381L1176 81313L1176 81313L0 -155395" stroke="none" fill="url(#34485)" /><path transform="matrix(1 0 0 -1 0 1552)" d="M0 -13444.59L1176 223262.8L1176 223262.8L1176 1552L1176 1552L0 1552" stroke="none" fill="#560099" fill-rule="evenodd" fill-opacity="0.04705882" /><path transform="matrix(1 0 0 -1 0 1552)" d="M0 -155276.2L1176 81431.14L1176 81431.14L1176 0L1176 0L0 0" stroke="none" fill="#FF0A35" fill-rule="evenodd" fill-opacity="0.04705882" /></g></g><g clip-path="url(#75)"><g><path transform="matrix(1 0 0 -1 0 1552)" d="M0 -11041L1176 225670L1176 225670L1176 83599L1176 83599L0 -153112" stroke="none" fill="url(#35008)" /><path transform="matrix(1 0 0 -1 0 1552)" d="M0 -11159.7L1176 225551.5L1176 225551.5L1176 1552L1176 1552L0 1552" stroke="none" fill="#560099" fill-rule="evenodd" fill-opacity="0.04705882" /><path transform="matrix(1 0 0 -1 0 1552)" d="M0 -152993.5L1176 83717.75L1176 83717.75L1176 0L1176 0L0 0" stroke="none" fill="#FF0A35" fill-rule="evenodd" fill-opacity="0.04705882" /></g></g><g clip-path="url(#76)"><g><path transform="matrix(1 0 0 -1 0 1552)" d="M0 -8756L1176 227953L1176 227953L1176 85884L1176 85884L0 -150826" stroke="none" fill="url(#35530)" /><path transform="matrix(1 0 0 -1 0 1552)" d="M0 -8874.334L1176 227835.1L1176 227835.1L1176 1552L1176 1552L0 1552" stroke="none" fill="#560099" fill-rule="evenodd" fill-opacity="0.04705882" /><path transform="matrix(1 0 0 -1 0 1552)" d="M0 -150707.2L1176 86002.23L1176 86002.23L1176 0L1176 0L0 0" stroke="none" fill="#FF0A35" fill-rule="evenodd" fill-opacity="0.04705882" /></g></g><g clip-path="url(#77)"><g><path transform="matrix(1 0 0 -1 0 1552)" d="M0 -6471L1176 230240L1176 230240L1176 88170L1176 88170L0 -148541" stroke="none" fill="url(#36050)" /><path transform="matrix(1 0 0 -1 0 1552)" d="M0 -6589.29L1176 230121.9L1176 230121.9L1176 1552L1176 1552L0 1552" stroke="none" fill="#560099" fill-rule="evenodd" fill-opacity="0.04705882" /><path transform="matrix(1 0 0 -1 0 1552)" d="M0 -148423L1176 88288.16L1176 88288.16L1176 0L1176 0L0 0" stroke="none" fill="#FF0A35" fill-rule="evenodd" fill-opacity="0.04705882" /></g></g><g clip-path="url(#78)"><g><path transform="matrix(1 0 0 -1 0 1552)" d="M0 -4186L1176 232526L1176 232526L1176 90455L1176 90455L0 -146256" stroke="none" fill="url(#36569)" /><path transform="matrix(1 0 0 -1 0 1552)" d="M0 -4303.99L1176 232407.2L1176 232407.2L1176 1552L1176 1552L0 1552" stroke="none" fill="#560099" fill-rule="evenodd" fill-opacity="0.04705882" /><path transform="matrix(1 0 0 -1 0 1552)" d="M0 -146137.7L1176 90573.46L1176 90573.46L1176 0L1176 0L0 0" stroke="none" fill="#FF0A35" fill-rule="evenodd" fill-opacity="0.04705882" /></g></g><g clip-path="url(#79)"><g><path transform="matrix(1 0 0 -1 0 1552)" d="M0 -1901L1176 234811L1176 234811L1176 92740L1176 92740L0 -143971" stroke="none" fill="url(#37090)" /><path transform="matrix(1 0 0 -1 0 1552)" d="M0 -2018.876L1176 234692.3L1176 234692.3L1176 1552L1176 1552L0 1552" stroke="none" fill="#560099" fill-rule="evenodd" fill-opacity="0.04705882" /><path transform="matrix(1 0 0 -1 0 1552)" d="M0 -143852.6L1176 92858.58L1176 92858.58L1176 0L1176 0L0 0" stroke="none" fill="#FF0A35" fill-rule="evenodd" fill-opacity="0.04705882" /></g></g><g clip-path="url(#80)"><g><path transform="matrix(1 0 0 -1 0 1552)" d="M0 385L1176 237096L1176 237096L1176 95026L1176 95026L0 -141686" stroke="none" fill="url(#37607)" /><path transform="matrix(1 0 0 -1 0 1552)" d="M0 266.4245L1176 236977.6L1176 236977.6L1176 1552L1176 1552L0 1552" stroke="none" fill="#560099" fill-rule="evenodd" fill-opacity="0.04705882" /><path transform="matrix(1 0 0 -1 0 1552)" d="M0 -141567.3L1176 95143.88L1176 95143.88L1176 0L1176 0L0 0" stroke="none" fill="#FF0A35" fill-rule="evenodd" fill-opacity="0.04705882" /></g></g></g></g></g></g></g><g clip-path="url(#81)"><g clip-path="url(#82)"><g clip-path="url(#83)"><g><g clip-path="url(#84)"><g clip-path="url(#85)"><g><path transform="matrix(1 0 0 -1 0 1552)" d="M0 1104L1176 -95L1176 -95L1176 -2055L1176 -2055L0 -857" stroke="none" fill="url(#39263)" /><path transform="matrix(1 0 0 -1 0 1552)" d="M0 1102.815L1176 -95.9926L1176 -95.9926L1176 1552L1176 1552L0 1552" stroke="none" fill="#FFD800" fill-rule="evenodd" fill-opacity="0.1960784" /><path transform="matrix(1 0 0 -1 0 1552)" d="M0 -855.6687L1176 -2054.476L1176 -2054.476L1176 0L1176 0L0 0" stroke="none" fill="#FF387D" fill-rule="evenodd" fill-opacity="0.1960784" /></g></g></g></g><g><g clip-path="url(#86)"><g clip-path="url(#87)"><g><path transform="matrix(1 0 0 -1 0 1552)" d="M0 -36684L1176 200027L1176 200027L1176 57957L1176 57957L0 -178754" stroke="none" fill="url(#40053)" /><path transform="matrix(1 0 0 -1 0 1552)" d="M0 -36802.33L1176 199908.9L1176 199908.9L1176 1552L1176 1552L0 1552" stroke="none" fill="#560099" fill-rule="evenodd" fill-opacity="0.04705882" /><path transform="matrix(1 0 0 -1 0 1552)" d="M0 -178636.1L1176 58075.12L1176 58075.12L1176 0L1176 0L0 0" stroke="none" fill="#FF0A35" fill-rule="evenodd" fill-opacity="0.04705882" /></g></g><g clip-path="url(#88)"><g><path transform="matrix(1 0 0 -1 0 1552)" d="M0 -34399L1176 202312L1176 202312L1176 60242L1176 60242L0 -176469" stroke="none" fill="url(#40582)" /><path transform="matrix(1 0 0 -1 0 1552)" d="M0 -34517.22L1176 202194L1176 202194L1176 1552L1176 1552L0 1552" stroke="none" fill="#560099" fill-rule="evenodd" fill-opacity="0.04705882" /><path transform="matrix(1 0 0 -1 0 1552)" d="M0 -176351L1176 60360.23L1176 60360.23L1176 0L1176 0L0 0" stroke="none" fill="#FF0A35" fill-rule="evenodd" fill-opacity="0.04705882" /></g></g><g clip-path="url(#89)"><g><path transform="matrix(1 0 0 -1 0 1552)" d="M0 -32114L1176 204598L1176 204598L1176 62527L1176 62527L0 -174184" stroke="none" fill="url(#41111)" /><path transform="matrix(1 0 0 -1 0 1552)" d="M0 -32231.92L1176 204479.3L1176 204479.3L1176 1552L1176 1552L0 1552" stroke="none" fill="#560099" fill-rule="evenodd" fill-opacity="0.04705882" /><path transform="matrix(1 0 0 -1 0 1552)" d="M0 -174065.7L1176 62645.54L1176 62645.54L1176 0L1176 0L0 0" stroke="none" fill="#FF0A35" fill-rule="evenodd" fill-opacity="0.04705882" /></g></g><g clip-path="url(#90)"><g><path transform="matrix(1 0 0 -1 0 1552)" d="M0 -29828L1176 206883L1176 206883L1176 64812L1176 64812L0 -171899" stroke="none" fill="url(#41638)" /><path transform="matrix(1 0 0 -1 0 1552)" d="M0 -29946.59L1176 206764.4L1176 206764.4L1176 1552L1176 1552L0 1552" stroke="none" fill="#560099" fill-rule="evenodd" fill-opacity="0.04705882" /><path transform="matrix(1 0 0 -1 0 1552)" d="M0 -171780.4L1176 64930.59L1176 64930.59L1176 0L1176 0L0 0" stroke="none" fill="#FF0A35" fill-rule="evenodd" fill-opacity="0.04705882" /></g></g><g clip-path="url(#91)"><g><path transform="matrix(1 0 0 -1 0 1552)" d="M0 -27543L1176 209168L1176 209168L1176 67098L1176 67098L0 -169614" stroke="none" fill="url(#42170)" /><path transform="matrix(1 0 0 -1 0 1552)" d="M0 -27661.5L1176 209049.7L1176 209049.7L1176 1552L1176 1552L0 1552" stroke="none" fill="#560099" fill-rule="evenodd" fill-opacity="0.04705882" /><path transform="matrix(1 0 0 -1 0 1552)" d="M0 -169495.3L1176 67215.95L1176 67215.95L1176 0L1176 0L0 0" stroke="none" fill="#FF0A35" fill-rule="evenodd" fill-opacity="0.04705882" /></g></g><g clip-path="url(#92)"><g><path transform="matrix(1 0 0 -1 0 1552)" d="M0 -25258L1176 211453L1176 211453L1176 69383L1176 69383L0 -167328" stroke="none" fill="url(#42701)" /><path transform="matrix(1 0 0 -1 0 1552)" d="M0 -25376.2L1176 211335L1176 211335L1176 1552L1176 1552L0 1552" stroke="none" fill="#560099" fill-rule="evenodd" fill-opacity="0.04705882" /><path transform="matrix(1 0 0 -1 0 1552)" d="M0 -167210L1176 69501.25L1176 69501.25L1176 0L1176 0L0 0" stroke="none" fill="#FF0A35" fill-rule="evenodd" fill-opacity="0.04705882" /></g></g><g clip-path="url(#93)"><g><path transform="matrix(1 0 0 -1 0 1552)" d="M0 -22973L1176 213738L1176 213738L1176 71668L1176 71668L0 -165043" stroke="none" fill="url(#43232)" /><path transform="matrix(1 0 0 -1 0 1552)" d="M0 -23091.09L1176 213620.1L1176 213620.1L1176 1552L1176 1552L0 1552" stroke="none" fill="#560099" fill-rule="evenodd" fill-opacity="0.04705882" /><path transform="matrix(1 0 0 -1 0 1552)" d="M0 -164924.8L1176 71786.37L1176 71786.37L1176 0L1176 0L0 0" stroke="none" fill="#FF0A35" fill-rule="evenodd" fill-opacity="0.04705882" /></g></g><g clip-path="url(#94)"><g><path transform="matrix(1 0 0 -1 0 1552)" d="M0 -20687L1176 216024L1176 216024L1176 73953L1176 73953L0 -162758" stroke="none" fill="url(#43759)" /><path transform="matrix(1 0 0 -1 0 1552)" d="M0 -20805.79L1176 215905.4L1176 215905.4L1176 1552L1176 1552L0 1552" stroke="none" fill="#560099" fill-rule="evenodd" fill-opacity="0.04705882" /><path transform="matrix(1 0 0 -1 0 1552)" d="M0 -162639.5L1176 74071.67L1176 74071.67L1176 0L1176 0L0 0" stroke="none" fill="#FF0A35" fill-rule="evenodd" fill-opacity="0.04705882" /></g></g><g clip-path="url(#95)"><g><path transform="matrix(1 0 0 -1 0 1552)" d="M0 -18402L1176 218309L1176 218309L1176 76238L1176 76238L0 -160473" stroke="none" fill="url(#44286)" /><path transform="matrix(1 0 0 -1 0 1552)" d="M0 -18520.67L1176 218190.5L1176 218190.5L1176 1552L1176 1552L0 1552" stroke="none" fill="#560099" fill-rule="evenodd" fill-opacity="0.04705882" /><path transform="matrix(1 0 0 -1 0 1552)" d="M0 -160354.4L1176 76356.78L1176 76356.78L1176 0L1176 0L0 0" stroke="none" fill="#FF0A35" fill-rule="evenodd" fill-opacity="0.04705882" /></g></g><g clip-path="url(#96)"><g><path transform="matrix(1 0 0 -1 0 1552)" d="M0 -16117L1176 220594L1176 220594L1176 78524L1176 78524L0 -158188" stroke="none" fill="url(#44811)" /><path transform="matrix(1 0 0 -1 0 1552)" d="M0 -16235.38L1176 220476L1176 220476L1176 1552L1176 1552L0 1552" stroke="none" fill="#560099" fill-rule="evenodd" fill-opacity="0.04705882" /><path transform="matrix(1 0 0 -1 0 1552)" d="M0 -158069.2L1176 78642.13L1176 78642.13L1176 0L1176 0L0 0" stroke="none" fill="#FF0A35" fill-rule="evenodd" fill-opacity="0.04705882" /></g></g><g clip-path="url(#97)"><g><path transform="matrix(1 0 0 -1 0 1552)" d="M0 -13832L1176 222880L1176 222880L1176 80809L1176 80809L0 -155902" stroke="none" fill="url(#45336)" /><path transform="matrix(1 0 0 -1 0 1552)" d="M0 -13950.08L1176 222761.3L1176 222761.3L1176 1552L1176 1552L0 1552" stroke="none" fill="#560099" fill-rule="evenodd" fill-opacity="0.04705882" /><path transform="matrix(1 0 0 -1 0 1552)" d="M0 -155784.1L1176 80927.26L1176 80927.26L1176 0L1176 0L0 0" stroke="none" fill="#FF0A35" fill-rule="evenodd" fill-opacity="0.04705882" /></g></g><g clip-path="url(#98)"><g><path transform="matrix(1 0 0 -1 0 1552)" d="M0 -11547L1176 225165L1176 225165L1176 83094L1176 83094L0 -153617" stroke="none" fill="url(#45863)" /><path transform="matrix(1 0 0 -1 0 1552)" d="M0 -11664.97L1176 225046.5L1176 225046.5L1176 1552L1176 1552L0 1552" stroke="none" fill="#560099" fill-rule="evenodd" fill-opacity="0.04705882" /><path transform="matrix(1 0 0 -1 0 1552)" d="M0 -153498.8L1176 83212.58L1176 83212.58L1176 0L1176 0L0 0" stroke="none" fill="#FF0A35" fill-rule="evenodd" fill-opacity="0.04705882" /></g></g><g clip-path="url(#99)"><g><path transform="matrix(1 0 0 -1 0 1552)" d="M0 -9261L1176 227450L1176 227450L1176 85379L1176 85379L0 -151332" stroke="none" fill="url(#46391)" /><path transform="matrix(1 0 0 -1 0 1552)" d="M0 -9379.668L1176 227331.8L1176 227331.8L1176 1552L1176 1552L0 1552" stroke="none" fill="#560099" fill-rule="evenodd" fill-opacity="0.04705882" /><path transform="matrix(1 0 0 -1 0 1552)" d="M0 -151213.7L1176 85497.69L1176 85497.69L1176 0L1176 0L0 0" stroke="none" fill="#FF0A35" fill-rule="evenodd" fill-opacity="0.04705882" /></g></g><g clip-path="url(#100)"><g><path transform="matrix(1 0 0 -1 0 1552)" d="M0 -6976L1176 229735L1176 229735L1176 87665L1176 87665L0 -149047" stroke="none" fill="url(#46920)" /><path transform="matrix(1 0 0 -1 0 1552)" d="M0 -7094.549L1176 229616.8L1176 229616.8L1176 1552L1176 1552L0 1552" stroke="none" fill="#560099" fill-rule="evenodd" fill-opacity="0.04705882" /><path transform="matrix(1 0 0 -1 0 1552)" d="M0 -148928.4L1176 87782.95L1176 87782.95L1176 0L1176 0L0 0" stroke="none" fill="#FF0A35" fill-rule="evenodd" fill-opacity="0.04705882" /></g></g><g clip-path="url(#101)"><g><path transform="matrix(1 0 0 -1 0 1552)" d="M0 -4691L1176 232020L1176 232020L1176 89950L1176 89950L0 -146761" stroke="none" fill="url(#47447)" /><path transform="matrix(1 0 0 -1 0 1552)" d="M0 -4809.248L1176 231902.1L1176 231902.1L1176 1552L1176 1552L0 1552" stroke="none" fill="#560099" fill-rule="evenodd" fill-opacity="0.04705882" /><path transform="matrix(1 0 0 -1 0 1552)" d="M0 -146643.1L1176 90068.26L1176 90068.26L1176 0L1176 0L0 0" stroke="none" fill="#FF0A35" fill-rule="evenodd" fill-opacity="0.04705882" /></g></g><g clip-path="url(#102)"><g><path transform="matrix(1 0 0 -1 0 1552)" d="M0 -2406L1176 234305L1176 234305L1176 92235L1176 92235L0 -144476" stroke="none" fill="url(#47978)" /><path transform="matrix(1 0 0 -1 0 1552)" d="M0 -2524.132L1176 234187.1L1176 234187.1L1176 1552L1176 1552L0 1552" stroke="none" fill="#560099" fill-rule="evenodd" fill-opacity="0.04705882" /><path transform="matrix(1 0 0 -1 0 1552)" d="M0 -144357.9L1176 92353.32L1176 92353.32L1176 0L1176 0L0 0" stroke="none" fill="#FF0A35" fill-rule="evenodd" fill-opacity="0.04705882" /></g></g><g clip-path="url(#103)"><g><path transform="matrix(1 0 0 -1 0 1552)" d="M0 -120L1176 236591L1176 236591L1176 94520L1176 94520L0 -142191" stroke="none" fill="url(#48504)" /><path transform="matrix(1 0 0 -1 0 1552)" d="M0 -238.8314L1176 236472.4L1176 236472.4L1176 1552L1176 1552L0 1552" stroke="none" fill="#560099" fill-rule="evenodd" fill-opacity="0.04705882" /><path transform="matrix(1 0 0 -1 0 1552)" d="M0 -142072.6L1176 94638.63L1176 94638.63L1176 0L1176 0L0 0" stroke="none" fill="#FF0A35" fill-rule="evenodd" fill-opacity="0.04705882" /></g></g></g></g></g></g></g></g></g></g></g><defs><clipPath id="1"><path d="M0 1552L0 -0.3900146L0 -0.3900146L1176.34 -0.3900146L1176.34 -0.3900146L1176.34 1552L1176.34 1552L0 1552z" /></clipPath><clipPath id="2"><path d="M0 -0.3869629L1176.341 -0.3869629L1176.341 -0.3869629L1176.341 1552L1176.341 1552L0 1552z" /></clipPath><clipPath id="3"><path d="M-282.93 192.713L-1340.73 192.713L-1340.73 192.713L-1340.73 118.035L-1340.73 118.035L-282.93 118.035z" /></clipPath><clipPath id="4"><path d="M-282.93 906.603L-1340.73 906.603L-1340.73 906.603L-1340.73 -483.278L-1340.73 -483.278L-282.93 -483.278z" /></clipPath><clipPath id="5"><path d="M-14.151 57.927L-411.076 1202.926L-411.076 1202.926L-1493.797 885.266L-1493.797 885.266L-1819.215 -194.4821L-1819.215 -194.4821L-731.868 -1066.437L-731.868 -1066.437L-120.152 -252.969z" /></clipPath><clipPath id="6"><path d="M-1823.96 -198.13L161.412 -198.13L161.412 -198.13L161.412 956.755L161.412 956.755L-1823.96 956.755z" /></clipPath><clipPath id="7"><path d="M-1338.896 956.755L86.925 953.702L86.925 953.702L161.412 -198.1331L161.412 -198.1331L-1823.961 -193.864z" /></clipPath><linearGradient transform="matrix(1 0 0 1 0 0)" id="1658" x1="-1540.39" y1="1987.709" x2="-1540.391987.709" y2="-1540.391486.015"><stop stop-color="#4C216D" offset="0%" /><stop stop-color="#B83F54" offset="100%" /></linearGradient><clipPath id="8"><path d="M-1600.16 -705.27L92.41187 -705.27L92.41187 -705.27L92.41187 500.14L92.41187 500.14L-1600.16 500.14z" /></clipPath><clipPath id="9"><path d="M-832.501 307.723L-833.242 306.939L-833.242 306.939L-1506.67 -364.923L-1506.67 -364.923L-1505.161 -366.454L-1505.161 -366.454L-832.472 304.632L-832.472 304.632L-0.707 -543.4431L-0.707 -543.4431L0.773 -541.8831z" /></clipPath><linearGradient transform="matrix(1 0 0 1 0 0)" id="2552" x1="-1310.802" y1="2397.425" x2="-1310.8022397.425" y2="-1310.802955.328"><stop stop-color="#FFD800" offset="0%" /><stop stop-color="#FF387D" offset="100%" /></linearGradient><clipPath id="10"><path d="M-832.81 339.799L-833.541 339.014L-833.541 339.014L-1522.25 -349.038L-1522.25 -349.038L-1520.74 -350.569L-1520.74 -350.569L-832.78 336.708L-832.78 336.708L14.564 -527.261L14.564 -527.261L16.045 -525.7019z" /></clipPath><linearGradient transform="matrix(1 0 0 1 0 0)" id="3186" x1="-1302.511" y1="2388.888" x2="-1302.5112388.888" y2="-1302.511954.8461"><stop stop-color="#FFD800" offset="0%" /><stop stop-color="#FF387D" offset="100%" /></linearGradient><clipPath id="11"><path d="M-833.117 371.873L-833.85 371.09L-833.85 371.09L-1537.838 -333.153L-1537.838 -333.153L-1536.328 -334.684L-1536.328 -334.684L-833.088 368.783L-833.088 368.783L29.844 -511.0791L29.844 -511.0791L31.325 -509.521z" /></clipPath><linearGradient transform="matrix(1 0 0 1 0 0)" id="3825" x1="-1294.234" y1="2380.348" x2="-1294.2342380.348" y2="-1294.234954.3707"><stop stop-color="#FFD800" offset="0%" /><stop stop-color="#FF387D" offset="100%" /></linearGradient><clipPath id="12"><path d="M-833.426 403.932L-834.165 403.156L-834.165 403.156L-1553.417 -317.2679L-1553.417 -317.2679L-1551.908 -318.799L-1551.908 -318.799L-833.396 400.8409L-833.396 400.8409L45.117 -494.8979L45.117 -494.8979L46.596 -493.339z" /></clipPath><linearGradient transform="matrix(1 0 0 1 0 0)" id="4472" x1="-1285.983" y1="2371.812" x2="-1285.9832371.812" y2="-1285.983953.9189"><stop stop-color="#FFD800" offset="0%" /><stop stop-color="#FF387D" offset="100%" /></linearGradient><clipPath id="13"><path d="M-833.734 435.999L-834.473 435.223L-834.473 435.223L-1568.997 -301.3831L-1568.997 -301.3831L-1567.489 -302.913L-1567.489 -302.913L-833.703 432.908L-833.703 432.908L60.387 -478.717L60.387 -478.717L61.868 -477.157z" /></clipPath><linearGradient transform="matrix(1 0 0 1 0 0)" id="5115" x1="-1277.75" y1="2363.273" x2="-1277.752363.273" y2="-1277.75953.4873"><stop stop-color="#FFD800" offset="0%" /><stop stop-color="#FF387D" offset="100%" /></linearGradient><clipPath id="14"><path d="M-834.041 468.073L-834.782 467.298L-834.782 467.298L-1584.577 -285.488L-1584.577 -285.488L-1583.068 -287.02L-1583.068 -287.02L-834.012 464.983L-834.012 464.983L75.659 -462.526L75.659 -462.526L77.14 -460.967z" /></clipPath><linearGradient transform="matrix(1 0 0 1 0 0)" id="5750" x1="-1269.528" y1="2354.731" x2="-1269.5282354.731" y2="-1269.528953.0706"><stop stop-color="#FFD800" offset="0%" /><stop stop-color="#FF387D" offset="100%" /></linearGradient><clipPath id="15"><path d="M-834.35 500.141L-835.089 499.356L-835.089 499.356L-1600.157 -269.604L-1600.157 -269.604L-1598.656 -271.135L-1598.656 -271.135L-834.32 497.05L-834.32 497.05L90.94 -446.345L90.94 -446.345L92.412 -444.786z" /></clipPath><linearGradient transform="matrix(1 0 0 1 0 0)" id="6384" x1="-1261.329" y1="2346.198" x2="-1261.3292346.198" y2="-1261.329952.6741"><stop stop-color="#FFD800" offset="0%" /><stop stop-color="#FF387D" offset="100%" /></linearGradient><clipPath id="16"><path d="M-282.93 738.364L-1340.73 738.364L-1340.73 738.364L-1340.73 663.686L-1340.73 663.686L-282.93 663.686z" /></clipPath><clipPath id="17"><path d="M-282.93 1452.255L-1340.73 1452.255L-1340.73 1452.255L-1340.73 62.37402L-1340.73 62.37402L-282.93 62.37402z" /></clipPath><clipPath id="18"><path d="M-14.151 603.578L-411.076 1748.577L-411.076 1748.577L-1493.797 1430.918L-1493.797 1430.918L-1819.215 351.17L-1819.215 351.17L-731.868 -520.7849L-731.868 -520.7849L-120.152 292.682z" /></clipPath><clipPath id="19"><path d="M-1823.96 347.52L161.412 347.52L161.412 347.52L161.412 1502.406L161.412 1502.406L-1823.96 1502.406z" /></clipPath><clipPath id="20"><path d="M-1338.896 1502.406L86.925 1499.353L86.925 1499.353L161.412 347.5179L161.412 347.5179L-1823.961 351.787z" /></clipPath><linearGradient transform="matrix(1 0 0 1 0 0)" id="7930" x1="-1540.39" y1="1442.057" x2="-1540.391442.057" y2="-1540.391486.015"><stop stop-color="#4C216D" offset="0%" /><stop stop-color="#B83F54" offset="100%" /></linearGradient><clipPath id="21"><path d="M-1600.16 -159.62L92.41187 -159.62L92.41187 -159.62L92.41187 1045.792L92.41187 1045.792L-1600.16 1045.792z" /></clipPath><clipPath id="22"><path d="M-832.501 853.374L-833.242 852.591L-833.242 852.591L-1506.67 180.728L-1506.67 180.728L-1505.161 179.197L-1505.161 179.197L-832.472 850.283L-832.472 850.283L-0.707 2.208984L-0.707 2.208984L0.773 3.767944z" /></clipPath><linearGradient transform="matrix(1 0 0 1 0 0)" id="8825" x1="-1310.802" y1="1851.773" x2="-1310.8021851.773" y2="-1310.802955.3279"><stop stop-color="#FFD800" offset="0%" /><stop stop-color="#FF387D" offset="100%" /></linearGradient><clipPath id="23"><path d="M-832.81 885.45L-833.541 884.665L-833.541 884.665L-1522.25 196.613L-1522.25 196.613L-1520.74 195.082L-1520.74 195.082L-832.78 882.359L-832.78 882.359L14.564 18.39099L14.564 18.39099L16.045 19.94897z" /></clipPath><linearGradient transform="matrix(1 0 0 1 0 0)" id="9454" x1="-1302.511" y1="1843.237" x2="-1302.5111843.237" y2="-1302.511954.8461"><stop stop-color="#FFD800" offset="0%" /><stop stop-color="#FF387D" offset="100%" /></linearGradient><clipPath id="24"><path d="M-833.117 917.524L-833.85 916.741L-833.85 916.741L-1537.838 212.498L-1537.838 212.498L-1536.328 210.968L-1536.328 210.968L-833.088 914.434L-833.088 914.434L29.844 34.57202L29.844 34.57202L31.325 36.13098z" /></clipPath><linearGradient transform="matrix(1 0 0 1 0 0)" id="10089" x1="-1294.234" y1="1834.697" x2="-1294.2341834.697" y2="-1294.234954.3707"><stop stop-color="#FFD800" offset="0%" /><stop stop-color="#FF387D" offset="100%" /></linearGradient><clipPath id="25"><path d="M-833.426 949.583L-834.165 948.807L-834.165 948.807L-1553.417 228.384L-1553.417 228.384L-1551.908 226.853L-1551.908 226.853L-833.396 946.492L-833.396 946.492L45.117 50.75403L45.117 50.75403L46.596 52.31201z" /></clipPath><linearGradient transform="matrix(1 0 0 1 0 0)" id="10727" x1="-1285.983" y1="1826.16" x2="-1285.9831826.16" y2="-1285.983953.9189"><stop stop-color="#FFD800" offset="0%" /><stop stop-color="#FF387D" offset="100%" /></linearGradient><clipPath id="26"><path d="M-833.734 981.65L-834.473 980.874L-834.473 980.874L-1568.997 244.2679L-1568.997 244.2679L-1567.489 242.738L-1567.489 242.738L-833.703 978.559L-833.703 978.559L60.387 66.93396L60.387 66.93396L61.868 68.495z" /></clipPath><linearGradient transform="matrix(1 0 0 1 0 0)" id="11362" x1="-1277.75" y1="1817.621" x2="-1277.751817.621" y2="-1277.75953.4873"><stop stop-color="#FFD800" offset="0%" /><stop stop-color="#FF387D" offset="100%" /></linearGradient><clipPath id="27"><path d="M-834.041 1013.724L-834.782 1012.949L-834.782 1012.949L-1584.577 260.163L-1584.577 260.163L-1583.068 258.632L-1583.068 258.632L-834.012 1010.635L-834.012 1010.635L75.659 83.125L75.659 83.125L77.14 84.68396z" /></clipPath><linearGradient transform="matrix(1 0 0 1 0 0)" id="11997" x1="-1269.528" y1="1809.08" x2="-1269.5281809.08" y2="-1269.528953.0705"><stop stop-color="#FFD800" offset="0%" /><stop stop-color="#FF387D" offset="100%" /></linearGradient><clipPath id="28"><path d="M-834.35 1045.792L-835.089 1045.008L-835.089 1045.008L-1600.157 276.048L-1600.157 276.048L-1598.656 274.516L-1598.656 274.516L-834.32 1042.701L-834.32 1042.701L90.94 99.30701L90.94 99.30701L92.412 100.866z" /></clipPath><linearGradient transform="matrix(1 0 0 1 0 0)" id="12632" x1="-1261.329" y1="1800.546" x2="-1261.3291800.546" y2="-1261.329952.674"><stop stop-color="#FFD800" offset="0%" /><stop stop-color="#FF387D" offset="100%" /></linearGradient><clipPath id="29"><path d="M2709.173 192.713L1651.373 192.713L1651.373 192.713L1651.373 118.035L1651.373 118.035L2709.173 118.035z" /></clipPath><clipPath id="30"><path d="M2709.173 906.603L1651.373 906.603L1651.373 906.603L1651.373 -483.278L1651.373 -483.278L2709.173 -483.278z" /></clipPath><clipPath id="31"><path d="M2977.952 57.927L2581.027 1202.926L2581.027 1202.926L1498.304 885.266L1498.304 885.266L1172.886 -194.4821L1172.886 -194.4821L2260.234 -1066.437L2260.234 -1066.437L2871.95 -252.969z" /></clipPath><clipPath id="32"><path d="M1168.14 -198.13L3153.51 -198.13L3153.51 -198.13L3153.51 956.755L3153.51 956.755L1168.14 956.755z" /></clipPath><clipPath id="33"><path d="M1653.206 956.755L3079.026 953.702L3079.026 953.702L3153.513 -198.1331L3153.513 -198.1331L1168.14 -193.864z" /></clipPath><linearGradient transform="matrix(1 0 0 1 0 0)" id="14180" x1="1451.713" y1="1987.709" x2="1451.7131987.709" y2="1451.7131486.015"><stop stop-color="#4C216D" offset="0%" /><stop stop-color="#B83F54" offset="100%" /></linearGradient><clipPath id="34"><path d="M1019.15 1459.926L1176.34 1459.926L1176.34 1459.926L1176.34 1501.926L1176.34 1501.926L1019.15 1501.926z" /></clipPath><clipPath id="35"><path d="M1176.341 1501.926L1019.151 1501.926L1019.151 1501.926L1019.151 1459.926L1019.151 1459.926L1176.341 1459.926z" /></clipPath><linearGradient transform="matrix(1 0 0 1 0 0)" id="14907" x1="1019.15" y1="149.6694" x2="1019.15149.6694" y2="1019.15157.1904"><stop stop-color="#4C216D" offset="0%" /><stop stop-color="#B83F54" offset="100%" /></linearGradient><clipPath id="36"><path d="M823.456 1471.077L1002.88 1471.077L1002.88 1471.077L1002.88 1493.472L1002.88 1493.472L823.456 1493.472z" /></clipPath><clipPath id="37"><path d="M752.501 1496.804L802.1429 1496.804L802.1429 1496.804L802.1429 1467.025L802.1429 1467.025L752.501 1467.025z" /></clipPath><clipPath id="38"><path d="M0 -0.3869629L1176.341 -0.3869629L1176.341 -0.3869629L1176.341 1552L1176.341 1552L0 1552z" /></clipPath><clipPath id="39"><path d="M150.895 1306.681L412.897 1306.681L412.897 1306.681L412.897 1307.681L412.897 1307.681L150.895 1307.681z" /></clipPath><clipPath id="40"><path d="M987.134 1938.166L-70.66608 1938.166L-70.66608 1938.166L-70.66608 1863.488L-70.66608 1863.488L987.134 1863.488z" /></clipPath><clipPath id="41"><path d="M987.134 2652.056L-70.66608 2652.056L-70.66608 2652.056L-70.66608 1262.175L-70.66608 1262.175L987.134 1262.175z" /></clipPath><clipPath id="42"><path d="M1255.914 1803.379L858.989 2948.378L858.989 2948.378L-223.733 2630.719L-223.733 2630.719L-549.151 1550.971L-549.151 1550.971L538.196 679.015L538.196 679.015L1149.912 1492.483z" /></clipPath><clipPath id="43"><path d="M-553.897 1547.32L1431.48 1547.32L1431.48 1547.32L1431.48 2702.21L1431.48 2702.21L-553.897 2702.21z" /></clipPath><clipPath id="44"><path d="M-68.832 2702.207L1356.989 2699.154L1356.989 2699.154L1431.476 1547.319L1431.476 1547.319L-553.897 1551.588z" /></clipPath><linearGradient transform="matrix(1 0 0 1 0 0)" id="17303" x1="-270.3253" y1="242.2565" x2="-270.3253242.2565" y2="-270.32531486.015"><stop stop-color="#4C216D" offset="0%" /><stop stop-color="#B83F54" offset="100%" /></linearGradient><clipPath id="45"><path d="M-330.093 1040.186L1362.48 1040.186L1362.48 1040.186L1362.48 2245.593L1362.48 2245.593L-330.093 2245.593z" /></clipPath><clipPath id="46"><path d="M440.642 1732.499L439.903 1731.715L439.903 1731.715L-80.801 1221.669L-80.801 1221.669L-79.29 1220.138L-79.29 1220.138L440.673 1729.408L440.673 1729.408L1116.632 1040.185L1116.632 1040.185L1118.111 1041.745z" /></clipPath><linearGradient transform="matrix(1 0 0 1 0 0)" id="18204" x1="-124.905" y1="737.3298" x2="-124.905737.3298" y2="-124.905961.4152"><stop stop-color="#FFD800" offset="0%" /><stop stop-color="#FF387D" offset="100%" /></linearGradient><clipPath id="47"><path d="M440.335 1764.557L439.595 1763.782L439.595 1763.782L-96.381 1237.553L-96.381 1237.553L-94.87 1236.022L-94.87 1236.022L440.364 1761.467L440.364 1761.467L1131.903 1056.367L1131.903 1056.367L1133.383 1057.927z" /></clipPath><linearGradient transform="matrix(1 0 0 1 0 0)" id="18839" x1="-116.363" y1="728.7994" x2="-116.363728.7994" y2="-116.363960.6844"><stop stop-color="#FFD800" offset="0%" /><stop stop-color="#FF387D" offset="100%" /></linearGradient><clipPath id="48"><path d="M440.026 1796.633L439.287 1795.857L439.287 1795.857L-111.96 1253.438L-111.96 1253.438L-110.45 1251.908L-110.45 1251.908L440.056 1793.542L440.056 1793.542L1147.176 1072.549L1147.176 1072.549L1148.655 1074.108z" /></clipPath><linearGradient transform="matrix(1 0 0 1 0 0)" id="19476" x1="-107.8496" y1="720.2641" x2="-107.8496720.2641" y2="-107.8496959.985"><stop stop-color="#FFD800" offset="0%" /><stop stop-color="#FF387D" offset="100%" /></linearGradient><clipPath id="49"><path d="M439.718 1828.699L438.979 1827.924L438.979 1827.924L-127.539 1269.324L-127.539 1269.324L-126.031 1267.794L-126.031 1267.794L439.748 1825.609L439.748 1825.609L1162.447 1088.73L1162.447 1088.73L1163.927 1090.29z" /></clipPath><linearGradient transform="matrix(1 0 0 1 0 0)" id="20116" x1="-99.36694" y1="711.7307" x2="-99.36694711.7307" y2="-99.36694959.3137"><stop stop-color="#FFD800" offset="0%" /><stop stop-color="#FF387D" offset="100%" /></linearGradient><clipPath id="50"><path d="M439.411 1860.765L438.672 1859.982L438.672 1859.982L-143.119 1285.209L-143.119 1285.209L-141.61 1283.678L-141.61 1283.678L439.44 1857.676L439.44 1857.676L1177.719 1104.912L1177.719 1104.912L1179.199 1106.472z" /></clipPath><linearGradient transform="matrix(1 0 0 1 0 0)" id="20756" x1="-90.92139" y1="703.1961" x2="-90.92139703.1961" y2="-90.92139958.6768"><stop stop-color="#FFD800" offset="0%" /><stop stop-color="#FF387D" offset="100%" /></linearGradient><clipPath id="51"><path d="M439.102 1892.842L438.363 1892.057L438.363 1892.057L-158.708 1301.103L-158.708 1301.103L-157.198 1299.572L-157.198 1299.572L439.133 1889.751L439.133 1889.751L1192.998 1121.102L1192.998 1121.102L1194.478 1122.661z" /></clipPath><linearGradient transform="matrix(1 0 0 1 0 0)" id="21400" x1="-82.49841" y1="694.6579" x2="-82.49841694.6579" y2="-82.49841958.0641"><stop stop-color="#FFD800" offset="0%" /><stop stop-color="#FF387D" offset="100%" /></linearGradient><clipPath id="52"><path d="M438.795 1924.908L438.055 1924.124L438.055 1924.124L-174.287 1316.979L-174.287 1316.979L-172.778 1315.448L-172.778 1315.448L438.824 1921.817L438.824 1921.817L1208.27 1137.275L1208.27 1137.275L1209.75 1138.834z" /></clipPath><linearGradient transform="matrix(1 0 0 1 0 0)" id="22041" x1="-74.10278" y1="686.1261" x2="-74.10278686.1261" y2="-74.10278957.4756"><stop stop-color="#FFD800" offset="0%" /><stop stop-color="#FF387D" offset="100%" /></linearGradient><clipPath id="53"><path d="M438.487 1956.966L437.747 1956.191L437.747 1956.191L-189.867 1332.864L-189.867 1332.864L-188.358 1331.334L-188.358 1331.334L438.516 1953.876L438.516 1953.876L1223.542 1153.457L1223.542 1153.457L1225.022 1155.015z" /></clipPath><linearGradient transform="matrix(1 0 0 1 0 0)" id="22685" x1="-65.72968" y1="677.592" x2="-65.72968677.592" y2="-65.72968956.9063"><stop stop-color="#FFD800" offset="0%" /><stop stop-color="#FF387D" offset="100%" /></linearGradient><clipPath id="54"><path d="M438.178 1989.042L437.439 1988.265L437.439 1988.265L-205.447 1348.759L-205.447 1348.759L-203.937 1347.228L-203.937 1347.228L438.209 1985.951L438.209 1985.951L1238.814 1169.646L1238.814 1169.646L1240.294 1171.206z" /></clipPath><linearGradient transform="matrix(1 0 0 1 0 0)" id="23327" x1="-57.37317" y1="669.0474" x2="-57.37317669.0474" y2="-57.37317956.3563"><stop stop-color="#FFD800" offset="0%" /><stop stop-color="#FF387D" offset="100%" /></linearGradient><clipPath id="55"><path d="M437.871 2021.116L437.131 2020.341L437.131 2020.341L-221.027 1364.643L-221.027 1364.643L-219.517 1363.112L-219.517 1363.112L437.9 2018.026L437.9 2018.026L1254.086 1185.828L1254.086 1185.828L1255.565 1187.388z" /></clipPath><linearGradient transform="matrix(1 0 0 1 0 0)" id="23967" x1="-49.0401" y1="660.5118" x2="-49.0401660.5118" y2="-49.0401955.8331"><stop stop-color="#FFD800" offset="0%" /><stop stop-color="#FF387D" offset="100%" /></linearGradient><clipPath id="56"><path d="M437.562 2053.175L436.823 2052.391L436.823 2052.391L-236.607 1380.529L-236.607 1380.529L-235.097 1378.998L-235.097 1378.998L437.592 2050.085L437.592 2050.085L1269.357 1202.01L1269.357 1202.01L1270.838 1203.569z" /></clipPath><linearGradient transform="matrix(1 0 0 1 0 0)" id="24606" x1="-40.73718" y1="651.9726" x2="-40.73718651.9726" y2="-40.73718955.3279"><stop stop-color="#FFD800" offset="0%" /><stop stop-color="#FF387D" offset="100%" /></linearGradient><clipPath id="57"><path d="M437.255 2085.251L436.523 2084.467L436.523 2084.467L-252.186 1396.415L-252.186 1396.415L-250.677 1394.883L-250.677 1394.883L437.284 2082.16L437.284 2082.16L1284.629 1218.191L1284.629 1218.191L1286.109 1219.75z" /></clipPath><linearGradient transform="matrix(1 0 0 1 0 0)" id="25247" x1="-32.44629" y1="643.4362" x2="-32.44629643.4362" y2="-32.44629954.8461"><stop stop-color="#FFD800" offset="0%" /><stop stop-color="#FF387D" offset="100%" /></linearGradient><clipPath id="58"><path d="M436.947 2117.325L436.215 2116.542L436.215 2116.542L-267.774 1412.299L-267.774 1412.299L-266.264 1410.768L-266.264 1410.768L436.976 2114.235L436.976 2114.235L1299.909 1234.373L1299.909 1234.373L1301.388 1235.932z" /></clipPath><linearGradient transform="matrix(1 0 0 1 0 0)" id="25891" x1="-24.17017" y1="634.8958" x2="-24.17017634.8958" y2="-24.17017954.3707"><stop stop-color="#FFD800" offset="0%" /><stop stop-color="#FF387D" offset="100%" /></linearGradient><clipPath id="59"><path d="M436.638 2149.384L435.899 2148.608L435.899 2148.608L-283.354 1428.184L-283.354 1428.184L-281.844 1426.654L-281.844 1426.654L436.669 2146.293L436.669 2146.293L1315.18 1250.555L1315.18 1250.555L1316.661 1252.114z" /></clipPath><linearGradient transform="matrix(1 0 0 1 0 0)" id="26533" x1="-15.91882" y1="626.3594" x2="-15.91882626.3594" y2="-15.91882953.9189"><stop stop-color="#FFD800" offset="0%" /><stop stop-color="#FF387D" offset="100%" /></linearGradient><clipPath id="60"><path d="M436.331 2181.451L435.591 2180.675L435.591 2180.675L-298.933 1444.069L-298.933 1444.069L-297.424 1442.539L-297.424 1442.539L436.36 2178.36L436.36 2178.36L1330.452 1266.735L1330.452 1266.735L1331.932 1268.296z" /></clipPath><linearGradient transform="matrix(1 0 0 1 0 0)" id="27173" x1="-7.686035" y1="617.8205" x2="-7.686035617.8205" y2="-7.686035953.4873"><stop stop-color="#FFD800" offset="0%" /><stop stop-color="#FF387D" offset="100%" /></linearGradient><clipPath id="61"><path d="M436.023 2213.525L435.283 2212.75L435.283 2212.75L-314.513 1459.964L-314.513 1459.964L-313.004 1458.432L-313.004 1458.432L436.052 2210.435L436.052 2210.435L1345.723 1282.926L1345.723 1282.926L1347.204 1284.486z" /></clipPath><linearGradient transform="matrix(1 0 0 1 0 0)" id="27815" x1="0.5367432" y1="609.2788" x2="0.5367432609.2788" y2="0.5367432953.0705"><stop stop-color="#FFD800" offset="0%" /><stop stop-color="#FF387D" offset="100%" /></linearGradient><clipPath id="62"><path d="M435.715 2245.593L434.975 2244.808L434.975 2244.808L-330.093 1475.849L-330.093 1475.849L-328.591 1474.317L-328.591 1474.317L435.745 2242.502L435.745 2242.502L1361.004 1299.107L1361.004 1299.107L1362.476 1300.667z" /></clipPath><linearGradient transform="matrix(1 0 0 1 0 0)" id="28459" x1="8.735596" y1="600.7455" x2="8.735596600.7455" y2="8.735596952.674"><stop stop-color="#FFD800" offset="0%" /><stop stop-color="#FF387D" offset="100%" /></linearGradient><clipPath id="63"><path d="M2.17474 539.18L886.921 539.18L886.921 539.18L886.921 1467.516L886.921 1467.516L2.17474 1467.516z" /></clipPath><clipPath id="64"><path d="M885.262 1278.924L184.762 540.885L184.762 540.885L186.421 539.18L186.421 539.18L886.922 1277.22z" /></clipPath><linearGradient transform="matrix(1 0 0 1 0 0)" id="29238" x1="182.9417" y1="644.7015" x2="182.9417644.7015" y2="182.94173.50647"><stop stop-color="#560099" offset="0%" /><stop stop-color="#FF0A35" offset="100%" /></linearGradient><clipPath id="65"><path d="M873.85 1290.71L173.351 552.671L173.351 552.671L175.009 550.967L175.009 550.967L875.51 1289.006z" /></clipPath><linearGradient transform="matrix(1 0 0 1 0 0)" id="29762" x1="171.5305" y1="632.9151" x2="171.5305632.9151" y2="171.53053.50647"><stop stop-color="#560099" offset="0%" /><stop stop-color="#FF0A35" offset="100%" /></linearGradient><clipPath id="66"><path d="M862.439 1302.496L161.939 564.457L161.939 564.457L163.597 562.754L163.597 562.754L864.098 1300.792z" /></clipPath><linearGradient transform="matrix(1 0 0 1 0 0)" id="30289" x1="160.1184" y1="621.1282" x2="160.1184621.1282" y2="160.11843.50647"><stop stop-color="#560099" offset="0%" /><stop stop-color="#FF0A35" offset="100%" /></linearGradient><clipPath id="67"><path d="M851.027 1314.283L150.527 576.244L150.527 576.244L152.186 574.54L152.186 574.54L852.687 1312.579z" /></clipPath><linearGradient transform="matrix(1 0 0 1 0 0)" id="30814" x1="148.7063" y1="609.3419" x2="148.7063609.3419" y2="148.70633.506531"><stop stop-color="#560099" offset="0%" /><stop stop-color="#FF0A35" offset="100%" /></linearGradient><clipPath id="68"><path d="M839.616 1326.069L139.116 588.03L139.116 588.03L140.774 586.327L140.774 586.327L841.275 1324.366z" /></clipPath><linearGradient transform="matrix(1 0 0 1 0 0)" id="31340" x1="137.2951" y1="597.5554" x2="137.2951597.5554" y2="137.29513.50647"><stop stop-color="#560099" offset="0%" /><stop stop-color="#FF0A35" offset="100%" /></linearGradient><clipPath id="69"><path d="M828.204 1337.856L127.703 599.826L127.703 599.826L129.363 598.122L129.363 598.122L829.863 1336.151z" /></clipPath><linearGradient transform="matrix(1 0 0 1 0 0)" id="31867" x1="125.8829" y1="585.7642" x2="125.8829585.7642" y2="125.88293.50647"><stop stop-color="#560099" offset="0%" /><stop stop-color="#FF0A35" offset="100%" /></linearGradient><clipPath id="70"><path d="M816.793 1349.641L116.292 611.612L116.292 611.612L117.951 609.909L117.951 609.909L818.452 1347.938z" /></clipPath><linearGradient transform="matrix(1 0 0 1 0 0)" id="32394" x1="114.4718" y1="573.9778" x2="114.4718573.9778" y2="114.47183.50647"><stop stop-color="#560099" offset="0%" /><stop stop-color="#FF0A35" offset="100%" /></linearGradient><clipPath id="71"><path d="M805.381 1361.429L104.88 623.389L104.88 623.389L106.539 621.685L106.539 621.685L807.04 1359.724z" /></clipPath><linearGradient transform="matrix(1 0 0 1 0 0)" id="32918" x1="103.0597" y1="562.1963" x2="103.0597562.1963" y2="103.05973.50647"><stop stop-color="#560099" offset="0%" /><stop stop-color="#FF0A35" offset="100%" /></linearGradient><clipPath id="72"><path d="M793.968 1373.215L93.468 635.185L93.468 635.185L95.128 633.481L95.128 633.481L795.628 1371.512z" /></clipPath><linearGradient transform="matrix(1 0 0 1 0 0)" id="33441" x1="91.64848" y1="550.405" x2="91.64848550.405" y2="91.648483.50647"><stop stop-color="#560099" offset="0%" /><stop stop-color="#FF0A35" offset="100%" /></linearGradient><clipPath id="73"><path d="M782.557 1385.012L82.056 646.971L82.056 646.971L83.716 645.267L83.716 645.267L784.216 1383.306z" /></clipPath><linearGradient transform="matrix(1 0 0 1 0 0)" id="33962" x1="80.23635" y1="538.6138" x2="80.23635538.6138" y2="80.236353.50647"><stop stop-color="#560099" offset="0%" /><stop stop-color="#FF0A35" offset="100%" /></linearGradient><clipPath id="74"><path d="M771.145 1396.787L70.644 658.758L70.644 658.758L72.304 657.055L72.304 657.055L772.804 1395.084z" /></clipPath><linearGradient transform="matrix(1 0 0 1 0 0)" id="34485" x1="68.82426" y1="526.8323" x2="68.82426526.8323" y2="68.824263.506531"><stop stop-color="#560099" offset="0%" /><stop stop-color="#FF0A35" offset="100%" /></linearGradient><clipPath id="75"><path d="M759.734 1408.574L59.233 670.545L59.233 670.545L60.892 668.841L60.892 668.841L761.392 1406.87z" /></clipPath><linearGradient transform="matrix(1 0 0 1 0 0)" id="35008" x1="57.41308" y1="515.0458" x2="57.41308515.0458" y2="57.413083.50647"><stop stop-color="#560099" offset="0%" /><stop stop-color="#FF0A35" offset="100%" /></linearGradient><clipPath id="76"><path d="M748.322 1420.37L47.821 682.332L47.821 682.332L49.481 680.628L49.481 680.628L749.981 1418.667z" /></clipPath><linearGradient transform="matrix(1 0 0 1 0 0)" id="35530" x1="46.00095" y1="503.2546" x2="46.00095503.2546" y2="46.000953.5065"><stop stop-color="#560099" offset="0%" /><stop stop-color="#FF0A35" offset="100%" /></linearGradient><clipPath id="77"><path d="M736.911 1432.157L36.41 694.118L36.41 694.118L38.069 692.413L38.069 692.413L738.569 1430.452z" /></clipPath><linearGradient transform="matrix(1 0 0 1 0 0)" id="36050" x1="34.58977" y1="491.4682" x2="34.58977491.4682" y2="34.589773.50647"><stop stop-color="#560099" offset="0%" /><stop stop-color="#FF0A35" offset="100%" /></linearGradient><clipPath id="78"><path d="M725.499 1443.942L24.998 705.904L24.998 705.904L26.658 704.2L26.658 704.2L727.157 1442.239z" /></clipPath><linearGradient transform="matrix(1 0 0 1 0 0)" id="36569" x1="23.17766" y1="479.6818" x2="23.17766479.6818" y2="23.177663.50647"><stop stop-color="#560099" offset="0%" /><stop stop-color="#FF0A35" offset="100%" /></linearGradient><clipPath id="79"><path d="M714.087 1455.729L13.587 717.69L13.587 717.69L15.246 715.987L15.246 715.987L715.746 1454.025z" /></clipPath><linearGradient transform="matrix(1 0 0 1 0 0)" id="37090" x1="11.76648" y1="467.895" x2="11.76648467.895" y2="11.766483.50647"><stop stop-color="#560099" offset="0%" /><stop stop-color="#FF0A35" offset="100%" /></linearGradient><clipPath id="80"><path d="M702.675 1467.516L2.175 729.477L2.175 729.477L3.834 727.773L3.834 727.773L704.334 1465.812z" /></clipPath><linearGradient transform="matrix(1 0 0 1 0 0)" id="37607" x1="0.354366" y1="456.1086" x2="0.354366456.1086" y2="0.3543663.50647"><stop stop-color="#560099" offset="0%" /><stop stop-color="#FF0A35" offset="100%" /></linearGradient><clipPath id="81"><path d="M987.134 2443.422L-70.66608 2443.422L-70.66608 2443.422L-70.66608 2368.744L-70.66608 2368.744L987.134 2368.744z" /></clipPath><clipPath id="82"><path d="M987.134 3157.311L-70.66608 3157.311L-70.66608 3157.311L-70.66608 1767.43L-70.66608 1767.43L987.134 1767.43z" /></clipPath><clipPath id="83"><path d="M1255.914 2308.635L858.989 3453.634L858.989 3453.634L-223.733 3135.974L-223.733 3135.974L-549.151 2056.226L-549.151 2056.226L538.196 1184.271L538.196 1184.271L1149.912 1997.739z" /></clipPath><clipPath id="84"><path d="M-330.093 1545.442L1362.48 1545.442L1362.48 1545.442L1362.48 2750.85L1362.48 2750.85L-330.093 2750.85z" /></clipPath><clipPath id="85"><path d="M440.642 2237.755L439.903 2236.971L439.903 2236.971L-80.801 1726.925L-80.801 1726.925L-79.29 1725.393L-79.29 1725.393L440.673 2234.664L440.673 2234.664L1116.632 1545.441L1116.632 1545.441L1118.111 1547.001z" /></clipPath><linearGradient transform="matrix(1 0 0 1 0 0)" id="39263" x1="-124.905" y1="232.0739" x2="-124.905232.0739" y2="-124.905961.4152"><stop stop-color="#FFD800" offset="0%" /><stop stop-color="#FF387D" offset="100%" /></linearGradient><clipPath id="86"><path d="M2.17474 1044.436L886.921 1044.436L886.921 1044.436L886.921 1972.772L886.921 1972.772L2.17474 1972.772z" /></clipPath><clipPath id="87"><path d="M885.262 1784.18L184.762 1046.14L184.762 1046.14L186.421 1044.436L186.421 1044.436L886.922 1782.475z" /></clipPath><linearGradient transform="matrix(1 0 0 1 0 0)" id="40053" x1="182.9417" y1="139.4456" x2="182.9417139.4456" y2="182.94173.50647"><stop stop-color="#560099" offset="0%" /><stop stop-color="#FF0A35" offset="100%" /></linearGradient><clipPath id="88"><path d="M873.85 1795.966L173.351 1057.928L173.351 1057.928L175.009 1056.223L175.009 1056.223L875.51 1794.262z" /></clipPath><linearGradient transform="matrix(1 0 0 1 0 0)" id="40582" x1="171.5305" y1="127.6592" x2="171.5305127.6592" y2="171.53053.50647"><stop stop-color="#560099" offset="0%" /><stop stop-color="#FF0A35" offset="100%" /></linearGradient><clipPath id="89"><path d="M862.439 1807.752L161.939 1069.713L161.939 1069.713L163.597 1068.01L163.597 1068.01L864.098 1806.048z" /></clipPath><linearGradient transform="matrix(1 0 0 1 0 0)" id="41111" x1="160.1184" y1="115.8723" x2="160.1184115.8723" y2="160.11843.50647"><stop stop-color="#560099" offset="0%" /><stop stop-color="#FF0A35" offset="100%" /></linearGradient><clipPath id="90"><path d="M851.027 1819.539L150.527 1081.5L150.527 1081.5L152.186 1079.796L152.186 1079.796L852.687 1817.835z" /></clipPath><linearGradient transform="matrix(1 0 0 1 0 0)" id="41638" x1="148.7063" y1="104.0859" x2="148.7063104.0859" y2="148.70633.506477"><stop stop-color="#560099" offset="0%" /><stop stop-color="#FF0A35" offset="100%" /></linearGradient><clipPath id="91"><path d="M839.616 1831.325L139.116 1093.286L139.116 1093.286L140.774 1091.583L140.774 1091.583L841.275 1829.622z" /></clipPath><linearGradient transform="matrix(1 0 0 1 0 0)" id="42170" x1="137.2951" y1="92.29951" x2="137.295192.29951" y2="137.29513.50647"><stop stop-color="#560099" offset="0%" /><stop stop-color="#FF0A35" offset="100%" /></linearGradient><clipPath id="92"><path d="M828.204 1843.112L127.703 1105.082L127.703 1105.082L129.363 1103.378L129.363 1103.378L829.863 1841.407z" /></clipPath><linearGradient transform="matrix(1 0 0 1 0 0)" id="42701" x1="125.8829" y1="80.50829" x2="125.882980.50829" y2="125.88293.50647"><stop stop-color="#560099" offset="0%" /><stop stop-color="#FF0A35" offset="100%" /></linearGradient><clipPath id="93"><path d="M816.793 1854.897L116.292 1116.868L116.292 1116.868L117.951 1115.165L117.951 1115.165L818.452 1853.194z" /></clipPath><linearGradient transform="matrix(1 0 0 1 0 0)" id="43232" x1="114.4718" y1="68.72189" x2="114.471868.72189" y2="114.47183.50647"><stop stop-color="#560099" offset="0%" /><stop stop-color="#FF0A35" offset="100%" /></linearGradient><clipPath id="94"><path d="M805.381 1866.684L104.88 1128.645L104.88 1128.645L106.539 1126.941L106.539 1126.941L807.04 1864.98z" /></clipPath><linearGradient transform="matrix(1 0 0 1 0 0)" id="43759" x1="103.0597" y1="56.94034" x2="103.059756.94034" y2="103.05973.50647"><stop stop-color="#560099" offset="0%" /><stop stop-color="#FF0A35" offset="100%" /></linearGradient><clipPath id="95"><path d="M793.968 1878.471L93.468 1140.441L93.468 1140.441L95.128 1138.738L95.128 1138.738L795.628 1876.767z" /></clipPath><linearGradient transform="matrix(1 0 0 1 0 0)" id="44286" x1="91.64848" y1="45.1491" x2="91.6484845.1491" y2="91.648483.50647"><stop stop-color="#560099" offset="0%" /><stop stop-color="#FF0A35" offset="100%" /></linearGradient><clipPath id="96"><path d="M782.557 1890.267L82.056 1152.228L82.056 1152.228L83.716 1150.523L83.716 1150.523L784.216 1888.562z" /></clipPath><linearGradient transform="matrix(1 0 0 1 0 0)" id="44811" x1="80.23635" y1="33.35787" x2="80.2363533.35787" y2="80.236353.506468"><stop stop-color="#560099" offset="0%" /><stop stop-color="#FF0A35" offset="100%" /></linearGradient><clipPath id="97"><path d="M771.145 1902.044L70.644 1164.014L70.644 1164.014L72.304 1162.31L72.304 1162.31L772.804 1900.34z" /></clipPath><linearGradient transform="matrix(1 0 0 1 0 0)" id="45336" x1="68.82426" y1="21.57632" x2="68.8242621.57632" y2="68.824263.506472"><stop stop-color="#560099" offset="0%" /><stop stop-color="#FF0A35" offset="100%" /></linearGradient><clipPath id="98"><path d="M759.734 1913.83L59.233 1175.801L59.233 1175.801L60.892 1174.097L60.892 1174.097L761.392 1912.126z" /></clipPath><linearGradient transform="matrix(1 0 0 1 0 0)" id="45863" x1="57.41308" y1="9.789927" x2="57.413089.789927" y2="57.413083.506466"><stop stop-color="#560099" offset="0%" /><stop stop-color="#FF0A35" offset="100%" /></linearGradient><clipPath id="99"><path d="M748.322 1925.626L47.821 1187.588L47.821 1187.588L49.481 1185.884L49.481 1185.884L749.981 1923.923z" /></clipPath><linearGradient transform="matrix(1 0 0 1 0 0)" id="46391" x1="46.00095" y1="-2.001307" x2="46.00095-2.001307" y2="46.000953.506471"><stop stop-color="#560099" offset="0%" /><stop stop-color="#FF0A35" offset="100%" /></linearGradient><clipPath id="100"><path d="M736.911 1937.413L36.41 1199.374L36.41 1199.374L38.069 1197.669L38.069 1197.669L738.569 1935.709z" /></clipPath><linearGradient transform="matrix(1 0 0 1 0 0)" id="46920" x1="34.58977" y1="-13.7877" x2="34.58977-13.7877" y2="34.589773.506468"><stop stop-color="#560099" offset="0%" /><stop stop-color="#FF0A35" offset="100%" /></linearGradient><clipPath id="101"><path d="M725.499 1949.199L24.998 1211.16L24.998 1211.16L26.658 1209.456L26.658 1209.456L727.157 1947.495z" /></clipPath><linearGradient transform="matrix(1 0 0 1 0 0)" id="47447" x1="23.17766" y1="-25.57409" x2="23.17766-25.57409" y2="23.177663.506468"><stop stop-color="#560099" offset="0%" /><stop stop-color="#FF0A35" offset="100%" /></linearGradient><clipPath id="102"><path d="M714.087 1960.985L13.587 1222.946L13.587 1222.946L15.246 1221.243L15.246 1221.243L715.746 1959.281z" /></clipPath><linearGradient transform="matrix(1 0 0 1 0 0)" id="47978" x1="11.76648" y1="-37.36097" x2="11.76648-37.36097" y2="11.766483.50647"><stop stop-color="#560099" offset="0%" /><stop stop-color="#FF0A35" offset="100%" /></linearGradient><clipPath id="103"><path d="M702.675 1972.772L2.175 1234.733L2.175 1234.733L3.834 1233.029L3.834 1233.029L704.334 1971.068z" /></clipPath><linearGradient transform="matrix(1 0 0 1 0 0)" id="48504" x1="0.354366" y1="-49.14736" x2="0.354366-49.14736" y2="0.3543663.50647"><stop stop-color="#560099" offset="0%" /><stop stop-color="#FF0A35" offset="100%" /></linearGradient></defs></svg>